<svg xmlns="http://www.w3.org/2000/svg" viewBox="0 0 42.598 65.352" height="247" width="161"><path style="fill:#fff;fill-opacity:1;stroke-width:.26563182" d="M-30.84 179.756c-.406-.445-.442-3.053-.442-32.106 0-30.299.02-31.64.488-32.06.445-.4 2.27-.438 20.76-.438 19.3 0 20.293.023 20.713.484.406.445.442 3.053.442 32.106 0 30.299-.02 31.64-.488 32.06-.445.4-2.27.438-20.76.438-19.3 0-20.293-.024-20.714-.484z" transform="translate(31.282 -114.888)"/><path style="fill:#b0b2ae;stroke-width:.26458332" d="M-90.445 177.35c-.403-.444-.438-3.061-.438-32.238 0-30.427.02-31.772.484-32.192.441-.4 2.27-.438 20.86-.438 19.406 0 20.399.023 20.816.484.402.445.438 3.062.438 32.238 0 30.427-.02 31.773-.484 32.192-.441.4-2.271.438-20.861.438-19.405 0-20.398-.023-20.815-.484zm41.411-.218c.464-.42.484-1.757.484-31.928 0-28.93-.035-31.529-.438-31.973-.417-.461-1.401-.484-20.55-.484-18.344 0-20.155.038-20.597.438-.463.42-.484 1.756-.484 31.927 0 28.93.036 31.53.438 31.974.417.46 1.402.484 20.55.484 18.345 0 20.156-.039 20.597-.438zm-39.03-1.634c-.402-.444-.438-2.933-.438-30.386 0-28.633.02-29.92.484-30.34.44-.398 2.106-.438 18.48-.438 17.098 0 18.018.024 18.434.484.402.444.438 2.941.438 30.506 0 22.999-.075 30.097-.318 30.34-.24.241-4.706.318-18.48.318-17.26 0-18.184-.024-18.6-.484zm36.815-.098c.461-.46.461-60.023 0-60.484-.459-.459-36.212-.459-36.67 0-.462.461-.462 60.023 0 60.484.458.46 36.211.46 36.67 0zm-3.386-.494c0-.413.12-.509.492-.39.613.194 1.274-.046 1.46-.53.107-.278-.038-.331-.598-.22-.922.185-1.619-.446-1.619-1.466 0-1.466 1.842-2.15 2.91-1.08.796.795.731 2.732-.12 3.584-.863.863-2.525.93-2.525.102zm1.863-3.012c-.187-.225-.432-.41-.544-.41-.382 0-.536.86-.222 1.238.27.325.367.322.71-.02.326-.327.336-.47.056-.808zm-34.936 2.737c0-.459.114-.53.642-.397.412.103.792.011 1.059-.255.553-.553.53-.591-.255-.441-.42.08-.865-.048-1.19-.342-1.093-.989-.321-2.77 1.2-2.77 1.143 0 1.719.776 1.719 2.32 0 1.487-.875 2.442-2.237 2.442-.778 0-.938-.095-.938-.557zm1.966-2.968c-.094-.244-.28-.443-.415-.443-.356 0-.577.722-.379 1.237.151.395.214.4.567.047.223-.222.322-.591.227-.84zm15.35 1.21c-.085-.4-.252-.97-.37-1.268-.257-.642.142-3.355.662-4.51.34-.757.423-2.488.119-2.49-.073 0-.475.43-.894.954-.8 1.003-2.514 1.94-3.564 1.95-.68.007-2.397.739-2.818 1.201-.578.636-2.687 1.835-3.376 1.92-1.423.176-1.138-1.317.515-2.695.86-.717 1.232-.784 3.792-.687 1.269.049 3.7-.372 3.7-.64 0-.05-.805-.054-1.787-.007l-1.786.085-.992-1.074c-.546-.59-.992-1.303-.992-1.582 0-.445.122-.483.992-.31.546.11 1.236.188 1.534.176.363-.015.735.315 1.13 1.001.912 1.585 2.83 1.75 3.585.308.33-.63.325-.753-.041-1.02-.365-.267-.379-.576-.107-2.522.307-2.205.68-8.808.47-8.303-.062.145-.181.681-.266 1.19-.085.51-.414 1.343-.731 1.853-.317.509-.546 1.254-.508 1.655.173 1.858-1.33 3.837-3.38 4.452-.862.258-1.177.238-1.897-.12-.657-.329-1.643-.431-4.141-.431-3.128 0-3.309-.03-3.928-.65-.357-.357-.65-.866-.65-1.131 0-.266-.172-.73-.383-1.03-.343-.49-.318-.71.232-2.065.34-.834.745-1.644.901-1.8.167-.168 1.627-.302 3.538-.327 2.478-.032 3.455-.148 4.1-.488.466-.246 1.12-.444 1.455-.44 1.063.01 2.85.994 3.327 1.834.251.44.552.803.668.804.305.002 1.231-2.138 1.238-2.862.003-.338.184-.793.403-1.011.601-.602.517-2.634-.14-3.337-.296-.32-.465-.756-.378-.982.087-.223.224-.733.305-1.133.13-.642.067-.728-.527-.728-.538 0-.71.165-.854.82-.099.452-.632 1.273-1.184 1.825-1.236 1.237-2.632 1.558-4.1.945-.69-.289-1.852-.415-3.82-.415-1.852 0-2.979-.114-3.266-.33-.241-.183-.729-.994-1.084-1.805-.569-1.297-.61-1.592-.34-2.467.168-.547.62-1.372 1.005-1.834l.699-.84 3.005-.042c1.653-.023 3.445-.127 3.983-.23 1.574-.304 2.782.063 3.905 1.186.56.559 1.098 1.386 1.197 1.837.1.452.35.82.556.82.497 0 .78-.1.74-.264-.33-1.284-.33-2.113-.001-2.441.585-.585.856-4.284.37-5.032-.214-.328-.467-1.017-.562-1.532-.295-1.588-1.494-2.847-1.494-1.568 0 .297-.446 1.012-.992 1.59-.784.83-1.243 1.083-2.183 1.203-.689.089-1.525.018-1.984-.167-.482-.195-1.89-.3-3.579-.269-3.308.062-3.968-.266-4.458-2.212-.163-.65-.409-1.25-.545-1.335-.293-.181.637-2.456 1.268-3.1.328-.333 1.097-.477 3.12-.584 1.478-.079 3.465-.223 4.416-.32 1.573-.161 1.839-.113 2.95.538.753.442 1.356 1.037 1.576 1.556.8 1.893.956 2.192 1.468 2.826.295.364.646 1.197.78 1.852.384 1.872.086-2.122-.433-5.795-.412-2.917-.41-3.03.074-3.383.46-.336.467-.422.1-1.077-.47-.838-1.853-1.677-2.019-1.226-.059.161-.49.712-.958 1.224-.756.827-1.599 1.247-2.834 1.41a9.017 9.017 0 0 0-.794.15c-.288.07-.414-.157-.46-.829-.056-.797.06-1.004.837-1.494.496-.312 1.417-.658 2.048-.768l1.147-.2-.794-.22c-.744-.206-1.582-.172-4.29.176-1.109.142-1.123.133-2.077-1.304-1.056-1.59-1.007-2.12.175-1.894l1.574.304c.443.086 1.128.441 1.521.79.394.348.872.766 1.063.928.19.162 1.353.531 2.583.821 1.713.404 2.42.712 3.026 1.318.435.435.79.96.79 1.167 0 .207.128.376.283.376.334 0 .102-.914-.456-1.798-.348-.551-.712-.765-2.34-1.377-1.693-.635-1.946-.828-2.465-1.878-.715-1.444-.449-1.86.984-1.537 1.752.393 2.409.739 2.66 1.4.134.353.37.72.525.815.154.095.281.434.282.753.001.319.239.937.528 1.373.618.934.71.352.121-.775-1.482-2.843-.574-8.122 1.275-7.413.84.323 1.164 4.978.477 6.866-.267.733-.258.754.11.28.219-.283.402-.7.406-.926.01-.507.65-1.387.857-1.18.083.083.283-.097.446-.4.19-.356.556-.553 1.027-.553.402 0 .862-.13 1.022-.29.369-.37 1.403-.057 1.403.423 0 1.094-1.408 3.042-2.198 3.042-.23 0-.498.132-.598.293-.255.412 1.48.022 2.023-.454.23-.202.503-.368.608-.368.105 0 .62-.416 1.144-.926.525-.51 1.174-.926 1.442-.926.27 0 .489-.125.489-.279 0-.168.5-.247 1.254-.198 1.371.088 1.756.604 1.008 1.352-.225.226-.41.532-.41.681 0 .558-1.8 1.109-3.86 1.182-2.335.083-4.07.68-2.019.694.758.005 1.184.14 1.285.405.084.218.433.397.776.397.503 0 .678.204.91 1.064.157.585.216 1.178.13 1.316-.086.14-.714.182-1.4.097-.99-.124-1.42-.35-2.094-1.101-.466-.52-.883-1.192-.926-1.492-.123-.853-1.49-.63-2.412.395-.7.778-.719.858-.308 1.313.408.45.401.78-.104 4.803-.298 2.376-.598 5.749-.668 7.495l-.126 3.175.252-2.432c.138-1.338.372-2.707.52-3.043.227-.517.246-.468.12.316-.083.51-.223 1.85-.312 2.978-.134 1.706-.086 2.136.284 2.544.339.375.403.753.27 1.586-.155.971-.117 1.094.346 1.094.374 0 .606-.284.823-1.008.166-.555.574-1.263.905-1.575.707-.663 2.44-1.439 2.68-1.199.091.091 1.995.241 4.231.333 4.692.192 5.095.349 6.052 2.348l.614 1.283-.571 1.298c-1.013 2.3-1.097 2.333-6.418 2.521-4.403.156-4.726.134-5.673-.386-.706-.388-1.177-.928-1.586-1.819-.441-.962-.724-1.267-1.173-1.267-.55 0-.58.085-.427 1.202.139 1.015.076 1.285-.402 1.73-.457.426-.567.834-.567 2.105 0 1.226.089 1.578.397 1.578.263 0 .388.245.37.727l-.026.728-.234-.662c-.282-.8-.1 3.071.34 7.233.237 2.243.232 2.91-.021 3.066-.54.334.188 1.526 1.236 2.024.911.432.94.428 1.413-.186.265-.345.485-.73.488-.854.015-.564 1.51-1.364 2.644-1.414 1.898-.083 2.012.05 1.065 1.245-.462.583-.94.997-1.064.92-.124-.076-.335.058-.47.298-.134.24-.528.466-.876.501-1.127.115-1.144.122-.871.395.293.293.71.315 3.489.18l1.926-.092.934 1.033c.513.569.884 1.175.824 1.346-.073.206-.682.29-1.78.246-1.724-.069-3.825-.985-4.14-1.806-.08-.207-.348-.376-.598-.376-.967 0-2.993-.89-3.832-1.683l-.88-.83.075 1.058c.042.582.205 1.393.363 1.803.35.91.377 3.459.041 4.087-.135.253-.31.668-.388.923-.235.758-1.185.574-1.364-.265zm3.048-47.687c.45-.187.756-.403.678-.48-.128-.13-.777.117-2.081.788-.423.218-.462.17-.298-.361.107-.347.088-.517-.043-.392-.127.121-.246.752-.264 1.402l-.033 1.18.61-.899c.337-.494.98-1.052 1.431-1.238zm-8.26 45.41c-1.053-.395-.97-.807.388-1.899.187-.15.816-.485 1.399-.744 2.656-1.183 3.023-1.4 3.41-2.023.594-.956.52-.3-.103.924-.291.57-.53 1.176-.53 1.345 0 .169-.446.788-.992 1.376-1.085 1.17-2.272 1.509-3.571 1.022zm9.978-.187c-.993-.289-2.503-1.6-2.503-2.174 0-.233-.105-.488-.233-.568-.128-.079-.292-.37-.364-.648-.124-.473-.045-.466 1.298.128.787.348 1.58.633 1.761.633.633 0 2.182 2.195 1.887 2.673-.176.285-.762.271-1.846-.044zm.54-8.06c-1.669-.896-2.41-1.984-2.764-4.053-.115-.677-.301-1.47-.412-1.76l-.203-.53.45.53c.303.357.492.426.582.211.835-1.99 3.41-3.007 5.221-2.062.464.242 1.542.404 2.778.417 3.44.038 5.077.334 5.63 1.018.27.333.492.851.492 1.151 0 .3.173.737.386.972.34.376.31.584-.256 1.767-.353.737-.843 1.508-1.088 1.711-.308.257-1.592.426-4.175.551-2.052.1-4.207.253-4.79.341-.726.11-1.306.027-1.85-.265zm-4.035-10.312c.003-.582.058-.789.12-.46.064.33.062.806-.004 1.059-.067.253-.118-.017-.115-.599zm-1.582-12.303c0-.655.052-.923.115-.595a3.77 3.77 0 0 1 0 1.19c-.063.328-.115.06-.115-.595zm5.617-2.114c-.759-.293-1.34-1.042-1.715-2.21-.372-1.157-.648-1.038-1.204.52-.2.565-.37.806-.377.537-.014-.612.766-2.289 1.065-2.289.122 0 .302-.425.4-.945.097-.52.474-1.298.837-1.73 1.196-1.421 1.61-1.506 6.627-1.356 5.259.156 5.664.31 6.171 2.323.161.64.45 1.293.643 1.453.285.236.255.385-.162.802-.281.281-.511.727-.511.99 0 .63-.92 1.6-1.661 1.751-1.124.228-9.587.357-10.113.154zm11.51-17.808c-.932-.467-1.246-1.873-.707-3.163.471-1.127 1.402-1.67 2.425-1.413.934.235.705.786-.396.95-.486.073-.94.3-1.007.505-.085.258.012.321.313.206.24-.092.732-.032 1.094.133.53.24.658.492.658 1.283 0 1.42-1.125 2.129-2.38 1.499zm1.19-1.377c0-.287-.209-.562-.463-.61-.347-.068-.463.086-.463.61 0 .525.116.678.463.611.254-.049.463-.324.463-.61zm-34.74.859c-.86-1.038-.516-3.322.615-4.062.76-.499 2.11-.396 2.11.16 0 .25-.336.447-.905.53-.498.073-.96.3-1.028.505-.085.257.012.32.312.206.7-.269 1.724.269 1.908 1.001.276 1.102-.49 1.992-1.716 1.992-.56 0-1.144-.15-1.295-.332zm1.751-1.21c.064-.432-.051-.575-.463-.575-.354 0-.547.171-.547.485 0 1.006.864 1.083 1.01.09z" transform="translate(90.883 -112.482)"/><path style="fill:#eed508;stroke-width:.26458332" d="M-54.304 175.278c-.597-.241-.347-.619.41-.619.714 0 1.375-.407 1.375-.846 0-.117-.412-.212-.916-.212-.66 0-1-.156-1.213-.554-.704-1.315.685-2.738 2.06-2.112 2.28 1.04.605 5.28-1.716 4.343zm1.653-3c0-.413-.17-.687-.464-.744-.523-.1-.864.533-.623 1.16.252.658 1.087.338 1.087-.416zm-34.728 2.735c-.497-.2-.119-.618.56-.618.588 0 1.228-.441 1.228-.847 0-.116-.42-.212-.933-.212-.752 0-.981-.128-1.184-.662-.557-1.464.96-2.72 2.257-1.87 2.01 1.317.279 5.098-1.928 4.209zm1.655-3c0-.754-.835-1.074-1.087-.416-.24.627.1 1.26.623 1.16.293-.057.464-.33.464-.744zm15.48 1.062c-.374-.7-.547-3.354-.266-4.086.116-.3.352-1.069.523-1.705.308-1.143.316-1.15.647-.512.819 1.578 1.154 4.884.545 5.365-.191.15-.387.501-.436.78-.127.727-.664.81-1.013.158zm-11.114-3.005c0-.74 1.305-2.196 2.31-2.578.812-.309 2.641-.313 2.831-.006.145.234-1.468 1.617-1.885 1.617-.12 0-.525.284-.899.63-.374.348-1.057.714-1.518.816-.768.168-.84.128-.84-.478zm5.887.416c-.752-.122-.816-1.11-.085-1.302.281-.073.575-.3.654-.504.078-.204.298-.37.488-.37s1.043-.362 1.895-.804c.852-.442 1.59-.763 1.64-.713.15.152-.436 2.045-.636 2.047-.102.001-.458.402-.79.89-.616.905-1.275 1.062-3.166.756zm10.12-.148c-1.377-.536-2.258-1.279-2.766-2.332-.555-1.147-.332-1.293.95-.624.417.217 1.003.395 1.303.396.944.003 2.386 2.568 1.572 2.796-.146.04-.622-.065-1.059-.236zm4.44-.666c-1.845-.49-3.303-1.529-2.689-1.916.201-.127 1.194-.22 2.206-.206 1.687.023 1.901.091 2.58.817.835.894.934 1.398.32 1.634-.505.194-.392.21-2.416-.329zm-5.185-3.188c.08-.306.254-.556.387-.556.134 0 .319-.2.412-.443.363-.944 1.168-1.441 2.477-1.53.72-.05 1.375.019 1.457.151.197.32-.977 1.789-1.445 1.807-.202.008-.5.185-.662.394-.161.208-.85.459-1.532.556-1.168.168-1.231.146-1.094-.379zm-9.64.022c-.532-.05-.86-.227-.86-.463 0-.209-.153-.38-.34-.38-.54 0-1.366-1.575-1.012-1.928.216-.216.373-.215.59.003.164.163.45.238.636.167.185-.072.41-.014.497.128.087.142.38.2.648.13.361-.095.607.12.938.818.247.52.563.947.702.947.138 0 .252.105.252.234 0 .295-.935.452-2.05.344zm6.148-1.39c-.114-.519-.304-.765-.526-.68-.414.16-1.308-.75-1.088-1.105.196-.317.956-9.96.956-12.125 0-1.218-.101-1.665-.406-1.782-.327-.125-.372-.421-.228-1.504l.179-1.349-.75.087c-.58.068-.795.268-.954.888-.113.44-.62 1.201-1.125 1.691-.723.7-1.197.917-2.218 1.016-.779.074-1.55-.01-1.925-.21-.367-.197-1.854-.365-3.607-.41-1.641-.041-3.107-.151-3.259-.245-.424-.262-1.781-3.259-1.582-3.493.098-.114.389-.781.647-1.482.591-1.607 1.004-1.768 4.513-1.768 1.509 0 3.073-.126 3.476-.279 1.822-.692 4.178.627 5.01 2.805.362.949.575 1.178 1.094 1.178.625 0 .639-.043.467-1.422-.161-1.286-.12-1.462.426-1.845l.604-.423-.466-5.1c-.428-4.683-.753-7.313-1.1-8.88-.102-.466.048-.706.666-1.058.44-.25.8-.603.801-.785.001-.182.108-.33.237-.33.13 0 .219.207.199.462-.02.255.098.438.262.407.165-.03.495.16.733.424.364.402.39.69.166 1.776-.423 2.049-1.066 8.869-1.066 11.311 0 1.966.06 2.242.504 2.358.46.12.497.37.432 2.955-.062 2.424-.146 2.892-.6 3.315-.42.391-.508.753-.43 1.772.352 4.685.93 11.204 1.056 11.912.117.662.032.914-.397 1.182-.39.243-.503.513-.394.944.083.332.088.604.011.604s-.22-.366-.318-.812zm5.023-2.65c-.883-.25-1.74-.959-2.427-2.006-.504-.77-.873-3.03-.556-3.41.114-.138.53-.653.926-1.146 1.244-1.554 2.913-1.857 4.766-.865.34.182 1.84.306 3.705.306 3.613 0 4.112.204 4.617 1.889.177.592.458 1.128.624 1.192.512.196-1.06 3.17-1.777 3.363-.335.09-2.016.165-3.736.167-1.72.002-3.327.106-3.572.231-.794.407-1.75.51-2.57.278zm-13.354-.38c-.493-.286-1.45-.369-3.765-.326-3.535.065-3.686-.004-4.46-2.042-.438-1.153-.435-1.251.072-2.588.29-.764.65-1.537.801-1.72.192-.231 1.248-.33 3.533-.33 2.758 0 3.395-.08 4.135-.516 1.457-.86 3.66-.088 4.723 1.655.69 1.13.688 3.208-.002 4.34-.984 1.614-3.547 2.39-5.036 1.527zm12.925-12.293c-1.304-.702-2.164-2.144-2.142-3.593.022-1.472.68-2.563 1.987-3.298.849-.477 1.273-.553 2.273-.406.676.099 2.42.234 3.875.3 4.428.201 4.77.347 5.686 2.418.496 1.121.497 1.173.017 2.266-.975 2.222-.826 2.156-5.35 2.347-2.232.095-4.355.243-4.718.33-.414.098-1.023-.038-1.628-.364zm-12.395-11.999c-.51-.14-2.177-.298-3.705-.351-3.742-.13-3.803-.151-4.354-1.473-.26-.622-.582-1.371-.716-1.665-.28-.608.522-2.71 1.27-3.333.403-.335 5.283-.772 8.394-.752 2.97.019 4.859 3.137 3.497 5.77-.775 1.498-2.667 2.277-4.386 1.804zm12.567-.153c-2.173-.945-2.738-4.354-1.027-6.2 1.217-1.312 2.041-1.565 4.075-1.249.999.155 3.003.282 4.454.282 2.62 0 2.642.005 3.323.814.377.448.685 1.076.685 1.396 0 .32.18.84.4 1.153.243.348.298.633.14.731-.144.089-.493.687-.778 1.33-.621 1.406-.63 1.408-5.319 1.56-1.964.064-3.988.183-4.497.265-.51.081-1.165.044-1.456-.082zm1.852-9.392c-1.164-.318-2.513-1.438-2.513-2.086 0-.228-.193-.607-.429-.843-.395-.395-.38-.416.199-.271.345.086.924.172 1.288.191.364.019.84.18 1.059.358.218.178.616.365.885.417.617.118 1.312 1.955.868 2.295-.17.13-.753.104-1.357-.06zm-15.011-.478c-.194-.579.117-1.53.499-1.53.205 0 .442-.18.526-.397.084-.219.43-.397.77-.397s.697-.129.794-.286c.098-.158.454-.217.793-.132.34.085.692.034.784-.115.091-.148.266-.208.388-.133.347.215-.009 1.184-.538 1.468-.263.14-.556.5-.65.798-.095.299-.37.518-.613.489-.243-.03-.62.014-.838.097-1.008.383-1.815.441-1.915.138zm7.567-3.865c-.597-1.505-.636-4.825-.07-6.004.565-1.18 1.602-1.105 1.877.136.39 1.771.31 4.577-.167 5.735-.646 1.57-1.058 1.603-1.64.133zm1.758.945c0-.182.179-.671.396-1.088.218-.417.396-.923.396-1.125 0-.201.172-.366.383-.366.211 0 .493-.195.626-.432.42-.752 3.007-1.456 3.344-.911.386.624-1.492 3.195-2.333 3.195-.22 0-.48.127-.576.282-.096.156-.333.222-.526.148-.193-.074-.493.037-.667.247-.389.469-1.046.5-1.043.05zm-11.947-.67c-1.343-1.489-1.663-3.066-.494-2.44.272.145.67.197.884.115.214-.082.467-.022.564.133.096.156.404.283.686.283.28 0 .66.238.841.529.182.29.462.529.623.529.358 0 1.346 1.051 1.01 1.076l-1.629.117c-.764.055-1.49.162-1.613.238-.123.076-.515-.185-.872-.58zm9.217.538c-.118-.182-.421-.33-.674-.33-.254 0-.608-.148-.789-.328-.18-.18-.472-.342-.648-.36-.979-.094-1.493-.512-1.881-1.528-.233-.61-.424-1.196-.424-1.302 0-.212 1.923.034 2.807.36.715.263 2.015 2.469 1.906 3.234-.058.407-.148.484-.297.254zm7.226-.603c0-.122.268-.306.595-.41.328-.103.834-.457 1.125-.786.852-.965 2.335-1.661 3.332-1.564.496.049.99.096 1.1.105.386.033.189.586-.53 1.486-.4.502-.876.912-1.058.912-.182 0-.33.097-.33.214 0 .118-.953.226-2.118.24-1.164.013-2.116-.076-2.116-.197zm10.227-4.71c-.752-.83-.466-3.192.462-3.811.557-.372 2.01-.228 2.01.2 0 .29-.173.358-.623.245-.397-.1-.78 0-1.058.278-.64.64-.534.85.361.718.438-.064.974.03 1.191.21.517.43.505 1.702-.021 2.229-.562.561-1.785.525-2.322-.068zm1.66-.537c.19-.356.156-.631-.123-.993-.38-.49-.395-.49-.774 0-.28.362-.313.637-.123.993.335.626.684.626 1.02 0zm-34.733.273c-.751-.83-.465-3.192.462-3.812.502-.334 2.01-.23 2.01.14 0 .193-.297.336-.69.33-.412-.006-.839.21-1.06.54-.351.521-.33.543.428.432.997-.146 1.587.321 1.587 1.258 0 1.403-1.808 2.138-2.737 1.112zm1.765-.681c.078-.204-.028-.591-.236-.86-.369-.475-.39-.475-.758 0-.46.595-.265 1.231.379 1.231.26 0 .537-.167.615-.371z" transform="translate(90.883 -112.482)"/><path style="fill:#a69a1c;stroke-width:.26458332" d="M-54.304 175.278c-.597-.241-.347-.619.41-.619.714 0 1.375-.407 1.375-.846 0-.117-.412-.212-.916-.212-.66 0-1-.156-1.213-.554-.704-1.315.685-2.738 2.06-2.112 2.28 1.04.605 5.28-1.716 4.343zm1.653-3c0-.413-.17-.687-.464-.744-.523-.1-.864.533-.623 1.16.252.658 1.087.338 1.087-.416zm-34.728 2.735c-.497-.2-.119-.618.56-.618.588 0 1.228-.441 1.228-.847 0-.116-.42-.212-.933-.212-.752 0-.981-.128-1.184-.662-.557-1.464.96-2.72 2.257-1.87 2.01 1.317.279 5.098-1.928 4.209zm1.655-3c0-.754-.835-1.074-1.087-.416-.24.627.1 1.26.623 1.16.293-.057.464-.33.464-.744zm15.48 1.062c-.374-.7-.547-3.354-.266-4.086.116-.3.352-1.069.523-1.705.308-1.143.316-1.15.647-.512.819 1.578 1.154 4.884.545 5.365-.191.15-.387.501-.436.78-.127.727-.664.81-1.013.158zm-11.114-3.005c0-.74 1.305-2.196 2.31-2.578.812-.309 2.641-.313 2.831-.006.145.234-1.468 1.617-1.885 1.617-.12 0-.525.284-.899.63-.374.348-1.057.714-1.518.816-.768.168-.84.128-.84-.478zm5.887.416c-.752-.122-.816-1.11-.085-1.302.281-.073.575-.3.654-.504.078-.204.298-.37.488-.37s1.043-.362 1.895-.804c.852-.442 1.59-.763 1.64-.713.15.152-.436 2.045-.636 2.047-.102.001-.458.402-.79.89-.616.905-1.275 1.062-3.166.756zm10.12-.148c-1.377-.536-2.258-1.279-2.766-2.332-.555-1.147-.332-1.293.95-.624.417.217 1.003.395 1.303.396.944.003 2.386 2.568 1.572 2.796-.146.04-.622-.065-1.059-.236zm4.44-.666c-1.845-.49-3.303-1.529-2.689-1.916.201-.127 1.194-.22 2.206-.206 1.687.023 1.901.091 2.58.817.835.894.934 1.398.32 1.634-.505.194-.392.21-2.416-.329zm-5.185-3.188c.08-.306.254-.556.387-.556.134 0 .319-.2.412-.443.363-.944 1.168-1.441 2.477-1.53.72-.05 1.375.019 1.457.151.197.32-.977 1.789-1.445 1.807-.202.008-.5.185-.662.394-.161.208-.85.459-1.532.556-1.168.168-1.231.146-1.094-.379zm-9.64.022c-.532-.05-.86-.227-.86-.463 0-.209-.153-.38-.34-.38-.54 0-1.366-1.575-1.012-1.928.216-.216.373-.215.59.003.164.163.45.238.636.167.185-.072.41-.014.497.128.087.142.38.2.648.13.361-.095.607.12.938.818.247.52.563.947.702.947.138 0 .252.105.252.234 0 .295-.935.452-2.05.344zm6.148-1.39c-.114-.519-.304-.765-.526-.68-.414.16-1.308-.75-1.088-1.105.196-.317.956-9.96.956-12.125 0-1.218-.101-1.665-.406-1.782-.327-.125-.372-.421-.228-1.504l.179-1.349-.75.087c-.58.068-.795.268-.954.888-.113.44-.62 1.201-1.125 1.691-.723.7-1.197.917-2.218 1.016-.779.074-1.55-.01-1.925-.21-.367-.197-1.854-.365-3.607-.41-1.641-.041-3.117-.157-3.28-.258-.255-.158-1.55-2.785-1.558-3.16-.001-.072.076-.16.172-.197.096-.036.313.343.481.843.293.87.367.912 1.743.986 1.05.057 1.295.011.909-.17-.353-.165.318-.208 2.016-.128l2.545.119.14-.867c.186-1.14-.07-3.33-.412-3.542-.155-.096-.19-.037-.081.139.104.168.062.305-.092.305a.275.275 0 0 1-.28-.267c0-.158-.59-.232-1.44-.18-.793.047-1.388-.001-1.322-.108.066-.106-.03-.254-.213-.328-.183-.073.583-.143 1.701-.154 1.118-.012 2.363-.147 2.766-.3 1.822-.692 4.178.627 5.01 2.805.365.959.572 1.178 1.109 1.178.623 0 .65-.06.487-1.078-.114-.708-.08-1.02.098-.91.149.092.27-.026.27-.261 0-.236-.118-.355-.264-.265-.534.33-.246-.38.313-.771l.578-.405-.466-5.1c-.43-4.712-.755-7.324-1.105-8.903-.129-.578-.106-.594.29-.199.235.236.484.43.553.43.207 0-.013-.914-.264-1.096-.128-.093.02-.25.33-.349.311-.098.565-.35.565-.558 0-.208.106-.379.235-.379.13 0 .219.208.199.463-.02.255.109.434.287.4.224-.045.275.178.165.727-.182.908-.053.98.595.33.437-.437.45-.42.263.328-.405 1.612-.953 6.737-1.12 10.477-.168 3.744-.157 3.866.37 4.003.51.134.538.31.47 2.966-.06 2.424-.145 2.892-.599 3.315-.42.391-.508.753-.43 1.772.352 4.685.93 11.204 1.056 11.912.117.662.032.914-.397 1.182-.39.243-.503.513-.394.944.083.332.088.604.011.604s-.22-.366-.318-.812zm-.37-1.423c.133.082.242.023.242-.13 0-.155-.179-.28-.397-.28-.219 0-.388.207-.376.462.012.28.074.331.155.13.073-.182.243-.264.376-.182zm1.228-14.858c-.088-.088-.316-.098-.507-.021-.21.084-.148.147.16.16.279.011.435-.051.347-.14zm-.547-5.198c-.073-.182-.133-.033-.133.33 0 .364.06.513.133.331.074-.182.074-.48 0-.661zm-.193-15.346c-.018-.565-.03-.568-.232-.066-.199.494-.222.485-.342-.132-.128-.653-.13-.652-.166.066-.024.486.096.727.361.727.241 0 .39-.234.379-.595zm4.905 34.174c-.883-.25-1.74-.958-2.427-2.005-.504-.77-.873-3.03-.556-3.41.114-.138.53-.653.926-1.146 1.244-1.554 2.913-1.857 4.766-.865.343.183 1.864.306 3.808.306 1.78 0 3.171.065 3.092.144-.08.08-1.294.144-2.7.144-2.757 0-3.423.127-3.153.6.095.166.076.214-.043.106-.478-.433-.927.434-.927 1.788 0 1.027.11 1.437.419 1.555.572.22.96.202.813-.038-.068-.109.156-.215.496-.235.34-.02.683.128.76.33.167.435 1.216.5 1.216.075 0-.164.193-.219.439-.124.24.092 1.044.235 1.786.318.74.082 1.426.278 1.523.434.164.266 1.142-1.562 1.059-1.979-.021-.104.12-.129.311-.055.558.214-.957 3.174-1.73 3.38-.335.09-2.016.166-3.736.168-1.72.002-3.327.106-3.572.231-.794.407-1.75.51-2.57.278zm-13.354-.379c-.492-.286-1.448-.369-3.748-.327-3.489.065-3.854-.088-4.43-1.855a32.754 32.754 0 0 0-.48-1.384c-.136-.341-.096-.346.281-.034.242.2.44.52.44.71 0 .464.882.54 4.498.382l3.043-.132-.032-1.53c-.017-.843-.084-1.585-.15-1.65-.065-.065-.5-.009-.968.125-.728.209-.84.18-.776-.203.06-.366-.15-.446-1.158-.446-.678 0-1.177-.09-1.11-.198.18-.291-2.07-.17-2.686.146-.472.242-.49.224-.166-.17.303-.367.905-.44 3.623-.44 2.758 0 3.395-.08 4.135-.516 1.457-.86 3.66-.088 4.723 1.655.69 1.13.688 3.208-.002 4.34-.984 1.614-3.547 2.39-5.036 1.527zm-.793-6.452c0-.132-.238-.178-.53-.101-.29.076-.529.184-.529.24 0 .055.239.1.53.1.29 0 .529-.107.529-.239zm19.976 3.944c-.09-.146-.038-.265.116-.265.155 0 .28.12.28.265 0 .145-.052.265-.116.265s-.19-.12-.28-.265zm-22.475-3.329c-.282-.206-.4-.373-.264-.371.366.006 1.048.476.903.621-.07.069-.356-.044-.639-.25zm21.02.05c0-.057.184-.175.41-.262.236-.09.342-.046.25.104-.156.252-.66.372-.66.158zm5.787-.36c-.33-.419-.32-.428.1-.099.44.346.58.563.363.563-.055 0-.264-.208-.463-.463zm-10.59-6.146c-1.304-.702-2.164-2.144-2.142-3.593.022-1.472.68-2.563 1.987-3.298.851-.479 1.27-.553 2.273-.403.676.1 2.599.247 4.272.324 1.674.077 3.083.248 3.132.38.048.131.206.166.35.077.293-.181 1.545.89 1.545 1.322 0 .152-.19.007-.42-.324-.318-.453-.506-.53-.769-.312-.252.21-.375.204-.45-.022-.118-.353-5.209-.77-5.41-.443-.07.111-.346.202-.616.202-.365 0-.527.254-.632.992-.147 1.033-.1 1.99.107 2.134.066.046.351-.005.634-.114.323-.124.553-.077.62.126.084.25.195.252.483.013.251-.209.789-.247 1.628-.116.69.108 1.521.185 1.849.171.327-.014.595.107.595.267 0 .161.221.235.492.164.27-.07.682-.022.915.109.336.188.527.011.924-.856.366-.798.545-.98.664-.67.17.443-.54 2.299-1.227 3.204-.36.474-.826.547-4.458.7-2.232.095-4.355.243-4.718.33-.414.098-1.023-.038-1.628-.364zm-20.24-6.015c.42-.812 1.088-1.137 2.288-1.113.659.013.659.014.067.252-.328.132-.596.437-.596.677 0 .34-.081.37-.36.14-.274-.228-.53-.164-1.086.274l-.727.571zm24.85.535c.257-.067.614-.062.793.01.18.073-.032.128-.468.122-.437-.005-.583-.064-.326-.131zm-17.005-6.52c-.51-.14-2.177-.297-3.705-.35-3.742-.13-3.803-.151-4.354-1.473a64.06 64.06 0 0 0-.734-1.697c-.164-.356-.17-.73-.014-1.009.193-.346.325-.12.6 1.031.311 1.293.666 1.748.666.853 0-.367 1.156-.441 2.712-.174.698.12 1.125.094 1.125-.069 0-.148.168-.123.385.057.212.176.531.23.71.12.232-.144.179-.259-.187-.402-.424-.166-.435-.204-.064-.219.246-.01.52.1.61.246.09.146.395.265.678.265.46 0 .513-.196.513-1.877 0-1.655-.062-1.893-.529-2.015-.851-.223-.613-.523.595-.75 3.456-.652 5.808.956 5.808 3.97 0 2.408-2.408 4.156-4.815 3.494zm12.567-.152c-2.173-.945-2.738-4.354-1.027-6.2 1.232-1.329 2.032-1.566 4.156-1.234 1.044.163 3.055.298 4.47.299 2.532.002 2.58.014 3.24.799.369.438.667.937.661 1.107-.005.171-.164.032-.353-.309-.303-.546-.564-.628-2.2-.687-1.02-.038-2.011-.164-2.201-.282-.214-.132-.28-.109-.175.062.095.154-.122.331-.495.403-.365.07-.728.024-.806-.102-.078-.126-.521-.221-.986-.21-.711.015-.76.053-.315.245.515.221.514.228-.038.246-.68.022-.888.484-.888 1.975v1.12l3.638-.073c2.152-.042 3.422.02 3.109.152-.487.206-.47.24.21.418.786.206.976.13 1.093-.44.04-.195.183-.622.316-.947.236-.576.25-.578.563-.079.194.312.222.575.069.67-.138.085-.484.681-.77 1.325-.62 1.405-.628 1.407-5.318 1.56-1.964.063-3.988.182-4.497.264-.51.081-1.165.044-1.456-.082zm9.393-6.638c0-.146-.052-.265-.117-.265-.064 0-.19.12-.28.265-.09.145-.037.264.117.264s.28-.119.28-.264zm.926 0a.615.615 0 0 0-.479-.26c-.189.001-.156.106.082.26.509.328.6.328.397 0zm-31.088.813c0-.135.313-.492.697-.794.579-.455 1.072-.548 2.91-.548 1.227 0 2.213.112 2.213.252 0 .147-.881.21-2.116.153-1.84-.086-2.117-.041-2.121.343-.003.352-.05.368-.233.08-.185-.292-.338-.254-.79.199-.308.308-.56.45-.56.315zm22.621-3.567c-1.164-.318-2.513-1.438-2.513-2.086 0-.228-.193-.607-.429-.843-.395-.395-.38-.416.199-.272.345.087.924.173 1.288.192.364.019.84.18 1.059.358.218.178.616.365.885.417.617.118 1.312 1.955.868 2.295-.17.13-.753.104-1.357-.06zm-15.011-.478c-.194-.579.117-1.53.499-1.53.205 0 .442-.18.526-.397.084-.219.43-.397.77-.397s.697-.13.794-.286c.098-.158.454-.217.793-.132.34.085.692.034.784-.115.091-.148.266-.208.388-.133.347.215-.009 1.184-.538 1.468-.263.14-.556.5-.65.798-.095.299-.37.518-.613.489-.243-.03-.62.014-.838.097-1.008.383-1.815.441-1.915.138zm7.567-3.865c-.597-1.505-.636-4.825-.07-6.004.565-1.18 1.602-1.105 1.877.136.39 1.771.31 4.577-.167 5.735-.646 1.57-1.058 1.603-1.64.133zm1.17-6.356c.075-.228-.052-.323-.354-.265-.26.05-.525.252-.59.448-.076.228.051.323.353.264.26-.05.525-.251.59-.447zm.588 7.301c0-.182.179-.671.396-1.088.218-.417.396-.923.396-1.125 0-.201.172-.366.383-.366.211 0 .493-.195.626-.432.42-.752 3.007-1.456 3.344-.911.386.624-1.492 3.195-2.333 3.195-.22 0-.48.127-.576.282-.096.156-.333.222-.526.148-.193-.074-.493.037-.667.247-.389.469-1.046.5-1.043.05zm-11.947-.67c-1.343-1.489-1.663-3.066-.494-2.44.272.145.67.197.884.115.214-.082.467-.022.564.133.096.155.404.283.686.283.28 0 .66.238.841.529.182.29.462.529.623.529.358 0 1.346 1.051 1.01 1.076l-1.629.117c-.764.055-1.49.162-1.613.238-.123.076-.515-.186-.872-.58zm9.217.538c-.118-.182-.421-.33-.674-.33-.254 0-.608-.148-.789-.328-.18-.18-.472-.342-.648-.36-.979-.094-1.493-.512-1.881-1.528-.233-.61-.424-1.196-.424-1.302 0-.212 1.923.034 2.807.36.715.263 2.015 2.469 1.906 3.234-.058.407-.148.484-.297.254zm7.226-.603c0-.122.268-.306.595-.41.328-.103.834-.457 1.125-.786.852-.965 2.335-1.661 3.332-1.564.496.049.99.096 1.1.105.386.033.189.586-.53 1.486-.4.502-.876.912-1.058.912-.182 0-.33.097-.33.214 0 .118-.953.226-2.118.24-1.164.013-2.116-.076-2.116-.197zm10.227-4.71c-.752-.83-.466-3.192.462-3.811.557-.372 2.01-.228 2.01.2 0 .29-.173.358-.623.245-.397-.1-.78 0-1.058.278-.64.64-.534.85.361.718.438-.064.974.03 1.191.21.517.43.505 1.702-.021 2.229-.562.561-1.785.525-2.322-.068zm1.66-.537c.19-.356.156-.631-.123-.993-.38-.49-.395-.49-.774 0-.28.362-.313.637-.123.993.335.626.684.626 1.02 0zm-34.733.273c-.751-.83-.465-3.192.462-3.812.502-.335 2.01-.23 2.01.14 0 .193-.297.336-.69.33-.412-.006-.839.21-1.06.54-.351.521-.33.543.428.432.997-.147 1.587.321 1.587 1.258 0 1.403-1.808 2.138-2.737 1.112zm1.765-.681c.078-.204-.028-.591-.236-.86-.369-.475-.39-.475-.758 0-.46.595-.265 1.231.379 1.231.26 0 .537-.167.615-.371z" transform="translate(90.883 -112.482)"/><path style="fill:#b13b2b;stroke-width:.26458332" d="M-54.304 175.278c-.597-.241-.347-.619.41-.619.703 0 1.375-.406 1.375-.83 0-.108-.444-.233-.987-.278-.801-.067-1.035-.218-1.239-.802-.556-1.59 1.972-2.568 2.916-1.127 1.121 1.711-.685 4.378-2.475 3.656zm1.653-3c0-.413-.17-.687-.464-.744-.523-.1-.864.533-.623 1.16.252.658 1.087.338 1.087-.416zm-34.728 2.735c-.497-.2-.119-.618.56-.618.588 0 1.228-.441 1.228-.847 0-.116-.42-.212-.933-.212-.764 0-.98-.126-1.198-.697-.524-1.379 1.029-2.65 2.256-1.845 2.023 1.326.306 5.113-1.913 4.219zm1.655-3c0-.754-.835-1.074-1.087-.416-.24.627.1 1.26.623 1.16.293-.057.464-.33.464-.744zm15.467 1.037c-.56-1.046-.267-5.236.447-6.39.195-.316.752.513 1.02 1.517.374 1.4.37 3.663-.006 3.96-.19.15-.386.501-.435.78-.129.738-.665.807-1.026.133zm-11.101-2.98c0-.74 1.305-2.196 2.31-2.578.812-.309 2.641-.313 2.831-.006.145.234-1.468 1.617-1.885 1.617-.12 0-.525.284-.899.63-.374.348-1.057.714-1.518.816-.768.168-.84.128-.84-.478zm5.887.416c-.752-.122-.816-1.11-.085-1.302.281-.073.575-.3.654-.504.078-.204.298-.37.488-.37s1.043-.362 1.895-.804c.852-.442 1.59-.763 1.64-.713.15.152-.436 2.045-.636 2.047-.102.001-.458.402-.79.89-.616.905-1.275 1.062-3.166.756zm10.12-.148c-1.377-.536-2.258-1.279-2.766-2.332-.555-1.147-.332-1.293.95-.624.417.217 1.03.395 1.361.396.332.001.682.21.778.465.095.255.328.582.516.728.42.325.582 1.501.22 1.603-.146.04-.622-.065-1.059-.236zm4.44-.666c-1.842-.49-3.305-1.53-2.689-1.913.201-.125 1.2-.213 2.218-.195 1.72.03 1.904.091 2.575.852.828.937.91 1.356.314 1.585-.506.194-.393.21-2.417-.329zm-5.023-3.242c.252-.349.537-.804.633-1.011.422-.912 1.212-1.378 2.481-1.464.72-.05 1.375.019 1.457.151.197.32-.977 1.789-1.445 1.807-.202.008-.5.185-.662.394-.161.208-.885.464-1.608.568l-1.315.189zm-9.802.076c-.532-.05-.86-.227-.86-.463 0-.209-.153-.38-.34-.38-.54 0-1.366-1.575-1.012-1.929.216-.215.373-.214.59.003.164.164.45.239.636.168.185-.072.41-.014.497.128.087.142.38.2.648.13.361-.095.607.12.938.818.247.52.563.947.702.947.138 0 .252.105.252.234 0 .295-.935.452-2.05.344zm6.02-1.743c0-.201.195-.441.434-.533.642-.246.679-.054.087.453-.405.347-.521.364-.521.08zm-1.064-.56c-.28-.338-.263-.377.1-.237.239.092.434.273.434.403 0 .34-.153.292-.534-.167zm-.227-2.112c.243-1.64.432-4.145.664-8.754.166-3.307.142-3.592-.325-3.96-.493-.389-.493-.395-.002-.323.276.04.56-.094.63-.298.093-.263-.025-.33-.405-.23-.486.126-.522.043-.395-.908.137-1.021.122-1.045-.61-.96-.58.068-.796.268-.955.888-.335 1.3-1.824 2.544-3.237 2.703-1.266.143-2.913-.337-2.646-.77.093-.15-1.137-.23-3.112-.2l-3.265.046-.518-.893c-.423-.728-.437-.827-.078-.54.242.195.583.266.757.158.2-.124.248-.083.128.11-.138.224.654.305 2.984.305 3.749 0 3.574.18 3.433-3.51l-.092-2.404.794-.215c1.868-.506 3.983.745 4.777 2.824.37.97.576 1.189 1.114 1.189.609 0 .649-.074.508-.94-.14-.861-.107-.924.403-.763.548.174.553.14.388-2.963-.16-3.038-.756-9.3-1.115-11.738l-.176-1.191h1.482c.816 0 1.481.06 1.48.132-.001.073-.186 1.68-.41 3.572-.431 3.637-.92 11.769-.727 12.106.062.11.318.09.567-.044.412-.22.454-.042.447 1.933-.007 2.112-.024 2.173-.602 2.064-.418-.08-.595.014-.595.314 0 .236.187.428.415.428.364 0 .368.048.032.385-.255.254-.352.769-.287 1.521.054.625.285 3.459.513 6.296.229 2.838.466 5.338.529 5.556.09.318-.17.397-1.288.397h-1.401zm-8.234-13.19c.509-.045-.54-.102-2.331-.127-1.791-.024-3.202.045-3.135.154.112.184 3.29.168 5.466-.026zm14.676 13.564c-.883-.25-1.74-.958-2.427-2.005-.442-.676-.915-3.185-.626-3.323.083-.04.49-.526.904-1.081 1.13-1.514 2.709-1.944 4.464-1.217.62.257.74.434.602.877-.372 1.18-.443 3.315-.14 4.23l.315.955h3.668c3.491 0 3.689-.029 4.08-.588.528-.752.532-.41.01.601-.223.43-.61.779-.86.777-.392-.003-.4-.041-.06-.261.267-.172-.8-.258-3.257-.26-2.257-.003-3.594.092-3.497.248.187.304-.79.955-1.713 1.14-.364.074-1.022.032-1.463-.093zm-13.428-.397c-.404-.22-.665-.512-.58-.65.148-.24-.77-.326-3.976-.376-.727-.011-1.49-.125-1.694-.254-.22-.138-.312-.135-.226.006.08.132-.009.381-.197.555-.267.247-.427.218-.734-.132-.533-.608-.831-1.639-.474-1.639.155 0 .283.182.283.405 0 .346.518.393 3.638.33l3.638-.073.078-1.653c.044-.91-.031-2.053-.166-2.542-.224-.81-.181-.926.491-1.323 1.617-.956 3.958-.266 5.022 1.48.7 1.148.703 3.217.008 4.358-.997 1.636-3.509 2.377-5.11 1.509zm-6.805-1.167a.265.265 0 0 0-.264-.265.265.265 0 0 0-.265.265.265.265 0 0 0 .53 0zm1.01.877c.19-.076.418-.067.506.021.088.088-.068.15-.347.14-.308-.013-.371-.076-.16-.16zm23.795-.259c.182-.073.48-.073.661 0 .182.074.034.134-.33.134s-.513-.06-.331-.134zm2.662-.006c.191-.076.42-.067.508.021.087.088-.069.15-.348.14-.308-.013-.37-.076-.16-.16zm4.023-2.083c.006-.366.476-1.048.621-.903.069.069-.044.356-.25.638-.206.283-.373.402-.371.265zm-33.192-.569c-.144-.377-.114-.407.148-.148.18.18.262.393.18.475-.081.081-.23-.066-.328-.327zm21.506-9.078c-2.36-1.247-2.89-4.271-1.067-6.095 1.132-1.131 2.009-1.446 3.332-1.198l.9.169-.146 2.638c-.136 2.46-.111 2.64.356 2.662.276.013 1.07.067 1.767.12.935.072 1.215.014 1.073-.221-.114-.191-.01-.172.26.047.328.266.958.33 2.307.233 1.965-.14 2.9-.645 2.9-1.566 0-.269.132-.488.293-.488.175 0 .216.186.102.463-.105.254-.25.671-.324.926-.073.254-.327.472-.565.484-.264.012-.306.072-.108.152.243.098.218.291-.097.773-.231.353-.544.641-.696.641-.151 0-.059-.239.206-.53.264-.292.431-.565.371-.606-.06-.042-1.817-.03-3.904.027-3.792.103-3.797.104-3.68.71.096.507-.044.653-.866.9-1.242.372-1.258.37-2.414-.24zm-21.073-3.182c-.177-.285-.215-.517-.084-.517.237 0 .646.795.49.952-.046.045-.228-.15-.406-.435zm15.222-3.196c.18-.18.393-.262.474-.18.082.08-.065.229-.326.328-.377.144-.408.113-.148-.148zm-6.435-5.53c-1.063-.226-1.432-.467-1.432-.935 0-.31-.572-.381-3.059-.381-1.971 0-3 .094-2.894.264.09.146.055.265-.077.265s-.449-.506-.704-1.125a28.532 28.532 0 0 0-.702-1.584c-.13-.252-.237-.547-.237-.654 0-.342.715.824.926 1.51.112.365.336.75.499.857.428.282 5.78.238 6.238-.051.488-.308.714-3.625.324-4.744-.325-.934-.083-1.088 1.705-1.088 4.809 0 5.759 6.632 1.096 7.65-.477.104-1.234.111-1.683.016zm12.458-.246c-.827-.342-1.644-1.375-1.934-2.447-.741-2.738 1.692-5.516 4.447-5.075.583.093 1.06.225 1.06.293 0 .068-.191.779-.424 1.58-.276.95-.363 1.856-.25 2.61.159 1.055.252 1.171 1.064 1.323.49.092 2.079.126 3.532.076 1.454-.05 2.505-.004 2.337.103-.169.107-1.754.196-3.523.198-3.012.004-3.208.036-3.087.5.214.817-1.927 1.375-3.222.84zm-19.116-.724c.255-.066.672-.066.926 0 .255.067.047.121-.463.121s-.717-.054-.463-.12zm2.001.002c.191-.076.42-.067.507.021.088.088-.068.15-.347.14-.308-.013-.37-.076-.16-.16zm27.93-.348c.325-1.198 1.049-2.622 1.265-2.488.146.09.111.32-.086.558-.185.222-.55.837-.811 1.366-.262.528-.427.782-.368.564zm-8.963-8.31c-1.164-.318-2.513-1.438-2.513-2.086 0-.228-.203-.617-.45-.865-.425-.424-.415-.439.18-.25.348.11.951.217 1.34.236.39.02.873.17 1.076.335.202.165.587.342.856.394.617.12 1.311 1.957.868 2.297-.17.13-.753.104-1.357-.06zm-15.011-.478c-.194-.579.117-1.53.499-1.53.205 0 .442-.18.526-.398.084-.218.43-.396.77-.396s.681-.103.759-.229c.077-.126.605-.228 1.172-.228.881 0 1.012.072.9.501-.073.276-.347.617-.61.757-.263.141-.556.5-.65.799-.095.298-.37.518-.613.488-.243-.029-.62.015-.838.098-1.008.383-1.815.441-1.915.138zm8-.737c0-.291.108-.53.24-.53s.177.239.101.53c-.076.291-.184.53-.24.53-.055 0-.101-.239-.101-.53zm1.325-2.183c0-.182.179-.672.396-1.088.218-.417.396-.923.396-1.125 0-.201.172-.366.383-.366.211 0 .493-.195.626-.432.42-.752 3.007-1.456 3.344-.911.386.624-1.492 3.195-2.333 3.195-.22 0-.48.127-.576.282-.096.156-.333.222-.526.148-.193-.074-.493.037-.667.247-.389.468-1.046.5-1.043.05zm-11.947-.67c-1.343-1.489-1.663-3.066-.494-2.44.272.145.67.197.884.115.214-.083.467-.023.564.133.096.155.404.283.686.283.28 0 .66.238.841.529.182.29.462.529.623.529.358 0 1.346 1.051 1.01 1.075l-1.629.118c-.764.055-1.49.162-1.613.238-.123.075-.515-.186-.872-.58zm9.217.538c-.118-.182-.421-.33-.674-.33-.254 0-.608-.148-.789-.328-.18-.18-.472-.342-.648-.36-.979-.095-1.493-.513-1.881-1.528-.233-.61-.424-1.197-.424-1.302 0-.213 1.923.034 2.807.36.715.263 2.015 2.469 1.906 3.233-.058.408-.148.485-.297.255zm1.019-.743c-.542-1.296-.738-3.194-.477-4.615.18-.978.321-1.19.793-1.19.315 0 .74-.227.944-.505.333-.454.397-.29.646 1.656.272 2.136.158 3.305-.471 4.824-.429 1.035-.958.972-1.435-.17zm6.207.14c0-.122.247-.3.55-.396.301-.096.971-.585 1.488-1.087s1.073-.867 1.237-.812c.163.055.416-.054.561-.243.3-.389 2.514-.201 2.514.213 0 .409-1.433 2.068-1.786 2.068-.182 0-.33.096-.33.214s-.953.226-2.118.239c-1.164.013-2.116-.075-2.116-.196zm10.227-4.71c-.625-.69-.566-2.456.11-3.316.635-.807 2.363-1.023 2.363-.296 0 .29-.174.359-.624.246-.397-.1-.78 0-1.058.278-.624.624-.536.962.202.777 1.447-.364 2.387 1.32 1.329 2.38-.562.56-1.784.525-2.322-.069zm1.66-.537c.19-.357.156-.632-.123-.993-.38-.49-.395-.49-.774 0-.28.361-.313.636-.123.993.335.626.684.626 1.02 0zm-34.733.273c-.751-.83-.465-3.192.462-3.812.502-.335 2.01-.23 2.01.139 0 .194-.297.337-.69.33a1.303 1.303 0 0 0-1.09.585c-.391.583-.382.592.425.43 1.023-.204 1.62.244 1.62 1.216 0 1.403-1.808 2.138-2.737 1.112zm1.66-.538c.19-.356.156-.631-.123-.992-.38-.49-.395-.49-.774 0-.28.36-.313.636-.123.992.336.626.684.626 1.02 0z" transform="translate(90.883 -112.482)"/><path style="fill:#188e38;stroke-width:.26458332" d="M-54.304 175.278c-.597-.241-.347-.619.41-.619.703 0 1.375-.406 1.375-.83 0-.108-.444-.233-.987-.278-.801-.067-1.035-.218-1.239-.802-.556-1.59 1.972-2.568 2.916-1.127 1.121 1.711-.685 4.378-2.475 3.656zm1.653-3c0-.413-.17-.687-.464-.744-.523-.1-.864.533-.623 1.16.252.658 1.087.338 1.087-.416zm-34.728 2.735c-.548-.221-.087-.618.717-.618.632 0 1.07-.388 1.07-.948 0-.061-.42-.11-.932-.11-.758 0-.981-.128-1.19-.68-.681-1.79 1.772-2.886 2.834-1.266 1.101 1.68-.73 4.335-2.499 3.622zm1.655-3c0-.754-.835-1.074-1.087-.416-.24.627.1 1.26.623 1.16.293-.057.464-.33.464-.744zm15.467 1.037c-.56-1.046-.267-5.236.447-6.39.195-.316.752.513 1.02 1.517.374 1.4.37 3.663-.006 3.96-.19.15-.386.501-.435.78-.129.738-.665.807-1.026.133zm-11.101-2.98c0-.74 1.305-2.196 2.31-2.578.812-.309 2.641-.313 2.831-.006.145.234-1.468 1.617-1.885 1.617-.12 0-.525.284-.899.63-.374.348-1.057.714-1.518.816-.768.168-.84.128-.84-.478zm5.887.416c-.752-.122-.816-1.11-.085-1.302.281-.073.575-.3.654-.504.078-.204.298-.37.488-.37s1.043-.362 1.895-.804c.852-.442 1.59-.763 1.64-.713.15.152-.436 2.045-.636 2.047-.102.001-.458.402-.79.89-.616.905-1.275 1.062-3.166.756zm10.12-.148c-1.377-.536-2.258-1.279-2.766-2.332-.555-1.147-.332-1.293.95-.624.417.217 1.03.395 1.361.396.332.001.682.21.778.465.095.255.328.582.516.728.42.325.582 1.501.22 1.603-.146.04-.622-.065-1.059-.236zm4.44-.666c-1.842-.49-3.305-1.53-2.689-1.913.201-.125 1.2-.213 2.218-.195 1.72.03 1.904.091 2.575.852.828.937.91 1.356.314 1.585-.506.194-.393.21-2.417-.329zm-5.023-3.242c.252-.349.537-.804.633-1.011.422-.912 1.212-1.378 2.481-1.464.72-.05 1.375.019 1.457.151.197.32-.977 1.789-1.445 1.807-.202.008-.5.185-.662.394-.161.208-.885.464-1.608.568l-1.315.189zm-9.802.076c-.532-.05-.86-.227-.86-.463 0-.209-.153-.38-.34-.38-.54 0-1.366-1.575-1.012-1.929.216-.215.373-.214.59.003.164.164.45.239.636.168.185-.072.41-.014.497.128.087.142.38.2.648.13.361-.095.607.12.938.818.247.52.563.947.702.947.138 0 .252.105.252.234 0 .295-.935.452-2.05.344zm6.02-1.743c0-.201.195-.441.434-.533.642-.246.679-.054.087.453-.405.347-.521.364-.521.08zm-1.093-.621c-.329-.42-.32-.429.1-.1.255.2.463.408.463.463 0 .218-.217.078-.562-.363zm6.244-1.677c-1.554-.439-2.815-2.073-3.027-3.923-.145-1.254-.113-1.327 1.324-2.999.51-.595.965-.813 1.914-.92 1.666-.188 2.943.326 2.717 1.093-.38 1.294-.46 2.334-.287 3.715l.183 1.47h3.932c3.747 0 3.94-.026 4.106-.55.096-.301.232-.49.302-.42.264.263-.737 1.763-1.175 1.76-.391-.003-.4-.041-.06-.261.268-.172-.794-.258-3.24-.26-3.02-.004-3.638.061-3.638.383 0 .743-1.773 1.274-3.051.912zm-13.287-.3c-.328-.157-.596-.447-.596-.643 0-.353-.62-.426-4.1-.48-.728-.011-1.49-.125-1.695-.254-.255-.16-.313-.138-.183.072.104.168.073.305-.07.305-.141 0-.31-.148-.376-.33-.065-.182-.21-.245-.324-.139-.113.106-.047.403.147.662.248.33.189.312-.2-.06-.303-.291-.63-.827-.725-1.19-.15-.573-.127-.605.17-.241.508.62 7.242.919 7.468.33.234-.61.182-3.3-.082-4.22-.21-.732-.157-.864.504-1.254 1.547-.914 3.843-.27 4.951 1.388.78 1.169.818 3.24.081 4.448-.945 1.55-3.425 2.352-4.97 1.606zm-5.937-.387c.191-.076.42-.067.507.021.088.088-.068.15-.347.14-.308-.013-.371-.076-.16-.16zm23.796-.259c.182-.073.48-.073.661 0 .182.074.034.134-.33.134s-.513-.06-.331-.134zm-9.995-1.964c-.185-.351-.422-.698-.526-.77-.104-.074-.092-1.324.027-2.779.366-4.487.308-6.239-.222-6.659-.436-.346-.434-.363.04-.293.275.04.559-.094.63-.298.093-.268-.028-.33-.436-.223-.31.081-.498.04-.417-.092.082-.132.647-.224 1.257-.204.61.02.841.087.514.15-.699.135-.81.87-.132.876.388.003.4.044.073.25-.434.275-.433 2.229.003 6.539.192 1.895.167 2.614-.114 3.284l-.36.857-.337-.638zm16.676-.165c0-.152.208-.44.463-.64.428-.335.434-.323.075.166-.214.292-.422.58-.463.64-.042.06-.075-.014-.075-.166zm-33.188-.528c-.144-.377-.114-.408.148-.148.18.18.262.393.18.474-.081.082-.23-.065-.328-.326zm8.714-8.87c-.291-.184-.53-.515-.53-.733 0-.327-.571-.41-3.261-.471-1.88-.043-3.2.026-3.115.163.08.13.477.196.88.145.72-.09.721-.087.073.126-.833.275-.969.197-1.47-.84-.306-.631-.315-.727-.035-.38.319.397.85.463 3.699.463 3.925 0 3.727.194 3.586-3.513l-.092-2.406.904-.234c1.834-.476 4.083.984 4.783 3.104.245.743.451.94 1.014.964l.708.031-.777.168c-.58.124-.83.37-.985.967-.114.44-.624 1.204-1.133 1.697-.77.747-1.16.913-2.322.992-.837.056-1.61-.04-1.927-.242zm12.792-.208c-2.224-1.175-2.855-4.118-1.27-5.923.95-1.083 2.245-1.578 3.505-1.341l.905.17-.029 2.689-.028 2.69h3.743c3.31 0 3.807-.059 4.3-.504.305-.278.556-.724.556-.993 0-.268.132-.488.293-.488.175 0 .216.186.102.463-.105.255-.248.66-.317.901-.193.668-2.088 1.017-5.518 1.017h-3.089l.121.633c.103.539-.023.675-.86.926-1.242.372-1.258.37-2.414-.24zm10.673-.922c.316-.363.616-.661.666-.661.05 0-.105.298-.343.661-.238.364-.538.662-.666.662s.027-.298.343-.662zm-31.746-2.26c-.177-.285-.215-.518-.084-.518.237 0 .646.795.49.952-.046.045-.228-.15-.406-.435zm17.144-.386c0-.218.047-.396.104-.396.058 0 .173.178.257.396.083.219.037.397-.104.397s-.257-.178-.257-.397zm-1.389-1.365c.438-.177.42-2.937-.048-7.328-.334-3.128-.326-3.485.094-4.423l.456-1.02.454 1.029c.25.565.386 1.305.304 1.644-.199.817-.628 9.556-.482 9.81.063.11.375.074.694-.08.559-.27.561-.266.065.131-.282.227-.818.402-1.19.391-.373-.011-.529-.08-.347-.154zm-.533-1.445c.18-.181.393-.263.474-.181.082.081-.065.23-.326.329-.377.143-.408.113-.148-.148zm-6.435-5.53c-1.063-.226-1.432-.467-1.432-.936 0-.31-.572-.38-3.059-.38-1.971 0-3 .093-2.894.264.09.145.055.264-.077.264s-.449-.506-.704-1.124a28.532 28.532 0 0 0-.702-1.584c-.366-.71-.28-.89.151-.319.214.283.393.714.397.958.02 1.058.697 1.276 3.963 1.276h3.123l.166-.827c.245-1.228.2-3.545-.085-4.293-.301-.793.01-.966 1.74-.966 4.809 0 5.759 6.633 1.096 7.65-.477.105-1.234.112-1.683.016zm12.458-.246c-.827-.343-1.644-1.376-1.934-2.447-.724-2.675 1.744-5.571 4.332-5.085.504.094.968.256 1.033.36.064.105-.063.776-.283 1.492a6.477 6.477 0 0 0-.234 2.683l.165 1.381 3.356.083 3.355.083-3.349.057c-3.128.054-3.34.09-3.219.553.214.818-1.927 1.375-3.222.84zm-19.232-.722c.191-.077.42-.067.508.02.088.088-.069.151-.348.14-.308-.013-.37-.076-.16-.16zm30.047-.349c.325-1.198 1.049-2.622 1.265-2.488.146.09.111.32-.086.558-.185.223-.55.837-.811 1.366-.262.528-.427.782-.368.564zm-8.963-8.31c-1.164-.318-2.513-1.438-2.513-2.086 0-.228-.203-.617-.45-.865-.425-.424-.415-.439.18-.25.348.11.951.217 1.34.237.39.02.873.17 1.076.335.202.164.587.341.856.394.617.12 1.311 1.956.868 2.296-.17.13-.753.104-1.357-.06zm-15.011-.478c-.194-.579.117-1.53.499-1.53.205 0 .442-.18.526-.397.084-.219.43-.397.77-.397s.681-.103.759-.229c.077-.125.605-.228 1.172-.228.881 0 1.012.072.9.501-.073.276-.347.617-.61.758-.263.14-.556.5-.65.798-.095.299-.37.518-.613.489-.243-.03-.62.014-.838.097-1.008.383-1.815.441-1.915.138zm8-.737c0-.29.108-.529.24-.529s.177.238.101.53c-.076.29-.184.528-.24.528-.055 0-.101-.238-.101-.529zm1.325-2.183c0-.182.179-.671.396-1.088.218-.417.396-.923.396-1.125 0-.201.172-.366.383-.366.211 0 .493-.195.626-.432.42-.752 3.007-1.456 3.344-.911.386.624-1.492 3.195-2.333 3.195-.22 0-.48.127-.576.282-.096.156-.333.222-.526.148-.193-.074-.493.037-.667.247-.389.469-1.046.5-1.043.05zm-11.947-.67c-1.343-1.489-1.663-3.066-.494-2.44.272.145.67.197.884.115.214-.082.467-.022.564.133.096.156.404.283.686.283.28 0 .66.238.841.529.182.29.462.529.623.529.358 0 1.346 1.051 1.01 1.076l-1.629.117c-.764.055-1.49.162-1.613.238-.123.076-.515-.185-.872-.58zm9.217.538c-.118-.182-.421-.33-.674-.33-.254 0-.608-.148-.789-.328-.18-.18-.472-.342-.648-.36-.979-.094-1.493-.512-1.881-1.528-.233-.61-.424-1.196-.424-1.302 0-.212 1.923.034 2.807.36.715.263 2.015 2.469 1.906 3.234-.058.407-.148.484-.297.254zm1.019-.743c-.542-1.296-.738-3.193-.477-4.615.18-.978.321-1.19.793-1.19.315 0 .74-.227.944-.505.333-.454.397-.29.646 1.656.272 2.136.158 3.305-.471 4.824-.429 1.035-.958.973-1.435-.17zm6.207.14c0-.122.247-.3.55-.395.301-.096.971-.585 1.488-1.087s1.072-.869 1.234-.815c.162.054.46-.067.662-.269s.54-.3.752-.22c.211.082.672.148 1.024.148s.64.125.64.279c0 .434-1.417 2.102-1.786 2.102-.182 0-.33.097-.33.214 0 .118-.953.226-2.118.24-1.164.013-2.116-.076-2.116-.197zm10.227-4.71c-.625-.69-.566-2.455.11-3.316.635-.807 2.363-1.023 2.363-.296 0 .29-.174.359-.624.246-.397-.1-.78 0-1.058.278-.624.624-.536.962.202.777 1.447-.363 2.387 1.32 1.329 2.38-.562.561-1.784.525-2.322-.068zm1.66-.537c.19-.356.156-.631-.123-.993-.38-.49-.395-.49-.774 0-.28.362-.313.637-.123.993.335.626.684.626 1.02 0zm-34.733.273c-.751-.83-.465-3.192.462-3.812.502-.334 2.01-.23 2.01.14 0 .193-.297.336-.69.33-.434-.007-.842.216-1.1.6-.4.594-.391.607.268.441.99-.248 1.787.273 1.787 1.166 0 1.424-1.8 2.17-2.737 1.135zm1.66-.538c.19-.356.156-.631-.123-.992-.38-.49-.395-.49-.774 0-.28.361-.313.636-.123.992.336.626.684.626 1.02 0z" transform="translate(90.883 -112.482)"/><path style="fill:#15662b;stroke-width:.26458332" d="M-54.238 175.196c-.561-.228-.327-.409.762-.587.273-.045.668-.34.877-.655.371-.56.357-.569-.687-.429-.954.128-1.098.072-1.377-.541-.465-1.02.26-2.029 1.457-2.029 1.157 0 1.62.595 1.588 2.044-.037 1.673-1.3 2.733-2.62 2.197zm1.587-2.918c0-.413-.17-.687-.464-.744-.523-.1-.864.533-.623 1.16.252.658 1.087.338 1.087-.416zm-34.597 2.724c-.693-.176-.278-.607.586-.607.44 0 .816-.174.91-.419.26-.675.187-.898-.237-.735-.218.084-.695.078-1.058-.013-.537-.135-.661-.33-.661-1.034 0-1.098.405-1.504 1.502-1.504 1.158 0 1.804.941 1.583 2.305-.235 1.447-1.382 2.324-2.625 2.007zm1.524-2.989c0-.754-.835-1.074-1.087-.416-.24.627.1 1.26.623 1.16.293-.057.464-.33.464-.744zm15.974.331c-.019-.11-.061-.556-.094-.992-.107-1.419-.132-1.49-.447-1.295-.171.106-.111-.092.132-.44.243-.347.43-.992.415-1.433l-.027-.8-.206.872c-.114.48-.282.948-.373 1.04-.275.275.153-1.6.528-2.31l.349-.661.05.926c.128 2.377-.123 6.29-.327 5.093zm-1.004-1.279c.013-.308.076-.37.16-.16.076.191.067.42-.02.508-.089.087-.151-.069-.14-.348zm-10.482-.656c-.096-.156-.104-.354-.016-.442.087-.087.158-.023.158.144 0 .198.297.245.86.138 1.012-.193.92.025-.116.273-.406.097-.786.049-.886-.113zm14.66-.71c-.315-.403-.31-.425.035-.169.218.163.575.362.793.443.332.122.327.15-.033.167-.237.012-.594-.187-.794-.442zm-13.874-.037c.342-.554 2.5-1.882 3.058-1.882.31 0 .496-.109.414-.241-.16-.258.425-.249.647.01.146.17-1.08 1.209-2.118 1.795-.606.343-.63.337-.297-.066.2-.242.513-.44.695-.44.183 0 .48-.178.662-.396.469-.566.14-.492-.998.222-1.555.977-2.262 1.319-2.063.998zm6.2-.171c1.09-.475 1.238-.484.878-.05-.154.186-.615.36-1.024.388-.732.049-.73.043.146-.338zm15.789.124c.095-.154-.047-.541-.315-.86l-.49-.578.596.504c.62.525.8 1.216.315 1.216-.154 0-.202-.127-.106-.282zm-14.44-.672c-.22-.579-.38-.663-.987-.528-.56.124-.49.041.316-.37.572-.291 1.167-.522 1.323-.513.156.01-.014.142-.378.295-.468.197-.55.319-.283.418.213.079.622-.165.936-.56.716-.898 1.371-.975.887-.103-.182.327-.335.674-.34.771-.005.097-.118.276-.25.397-.14.128-.161.082-.05-.11.104-.182.068-.33-.081-.33-.15 0-.408.255-.576.568-.262.49-.242.546.137.4.26-.1.375-.061.28.093-.283.457-.665.283-.935-.428zm10.814.511c-.242-.064-.507-.289-.587-.5-.117-.303 0-.29.572.068.396.247.77.486.83.53.138.1-.237.055-.815-.098zm1.102-.102c0-.154.119-.207.264-.117.146.09.265.216.265.28 0 .065-.12.117-.265.117-.145 0-.264-.126-.264-.28zm-14.602-.165c.191-.077.42-.067.507.02.088.089-.068.151-.347.14-.308-.013-.37-.076-.16-.16zm7.982-.223c-.184-.222-.284-.454-.22-.517.062-.062.258.119.436.403.384.615.256.683-.216.114zm1.505.227a.729.729 0 0 1-.177-.45c0-.165.123-.15.313.04.172.172.252.375.177.45-.076.075-.216.057-.313-.04zm3.924-.656c-.925-.568-1.298-.626-1.035-.16.148.263.114.264-.165.004-.194-.18-.29-.387-.215-.463.225-.225 3.135.445 3.135.722 0 .141-.17.191-.38.11-.209-.08-.417-.05-.463.065-.046.115-.44-.01-.877-.279zm-18.45-.006c.154-.154.436-.228.627-.164.198.066.078.186-.28.28-.44.115-.543.08-.347-.116zm15.292-.143c-.143-.377-.113-.407.148-.148.181.18.262.393.181.475-.081.081-.23-.066-.329-.327zm-1.855-.167c-.463-.338-.463-.362-.013-.535.26-.1.534-.119.61-.043.076.076-.015.139-.202.139-.273 0-.276.079-.012.397.408.491.254.508-.383.042zm-12.388-.472c.18-.18.393-.262.475-.18.081.08-.066.229-.326.328-.378.144-.408.113-.149-.148zm11.333-.15c-.21-.545-.026-.718.465-.437.32.183.327.28.043.542-.272.251-.38.23-.508-.104zm2.232-.934c0-.214.266-.616.59-.893.481-.41.525-.418.233-.04-.49.631-.293.58.76-.196 1.13-.834 1.361-.655.364.284l-.757.713.72-.131c.396-.072.665-.043.598.066-.067.108-.532.245-1.032.303-.584.068-.851.007-.745-.169.09-.152-.037-.112-.284.088-.382.31-.447.306-.447-.025zm-9.988-.389c.632-.165.584-.356-.265-1.073l-.727-.614 1.034.527c.57.29 1.165.456 1.323.367.159-.088.025.095-.296.408-.321.312-.797.554-1.058.537-.442-.028-.443-.039-.011-.152zm1.521.079c0-.057.179-.173.397-.256.218-.084.397-.037.397.104 0 .14-.179.256-.397.256-.218 0-.397-.047-.397-.104zm11.774-.69c.09-.145.216-.265.28-.265.064 0 .117.12.117.265 0 .146-.126.265-.28.265-.154 0-.207-.12-.117-.265zm-6.99-.948c.012-.308.075-.37.16-.16.076.191.066.42-.022.507-.087.088-.15-.068-.139-.347zm7.651.23c0-.151.209-.439.464-.639.428-.335.433-.323.074.166-.213.291-.421.58-.463.64-.04.06-.075-.014-.075-.166zm-1.058-.312c0-.13.173-.302.384-.383.256-.099.334-.02.236.236-.16.418-.62.527-.62.147zm-12.761-.337c.154-.154.436-.228.627-.164.198.066.078.186-.28.28-.44.114-.543.08-.347-.116zm-1.596-1.966c-.258-.258.096-.9.495-.9.203 0 .368.153.368.34 0 .187.23.34.51.34s.457-.085.393-.19c-.065-.104.017-.272.181-.374.164-.101.4-.02.524.18.151.245.076.424-.228.545-.576.229-2.035.267-2.243.059zm12.085-.342c-1.037-.633-2.021-1.872-1.847-2.326.074-.192.018-.349-.122-.349-.425 0-.289-1.849.197-2.671.441-.746 1.3-1.102 1.057-.438-.067.182-.256.301-.42.265-.571-.127-.292.402.294.556.468.122.523.222.264.48-.253.254-.396.256-.643.01-.175-.175-.436-.318-.58-.318-.144 0-.043.16.226.356.478.35.346 1.124-.14.823-.136-.084-.247-.026-.247.128 0 .355.445.365.661.016.238-.384.993-.326.85.066-.068.182-.265.298-.44.258-.174-.04-.24.05-.148.2.093.15-.017.345-.245.432-.54.207-.533.631.012.631.253 0 .368.148.284.367-.094.244.007.329.302.252.515-.134 1.593.569 1.31.852-.106.106-.376.039-.602-.148-.225-.187-.477-.272-.56-.19-.083.083.23.348.697.59.466.24.773.317.682.17-.26-.42.288-.613.688-.242.437.407 1.106.577.89.226-.086-.139-.035-.328.112-.419a.616.616 0 0 0 .27-.466c0-.164-.171-.068-.38.214-.3.406-.448.446-.707.19-.261-.257-.19-.452.345-.948.582-.54.618-.66.265-.884-.464-.292-.222-.887.36-.887.26 0 .39.317.407.992.024.886.05.921.238.331l.212-.661.027.727.026.728h3.969c2.847 0 3.969-.087 3.969-.309 0-.17.078-.23.174-.134.216.216-.676 1.238-1.075 1.233-.16-.002-.111-.12.107-.261.267-.172-.795-.258-3.241-.26-2.549-.004-3.638.086-3.638.297 0 1.017-2.495 1.353-3.86.521zm3.511-.872c-.084-.212-.147-.149-.16.16-.011.278.051.435.14.347.087-.088.097-.316.02-.507zm-16.516.446c-.168-.3-.871-.42-2.896-.497-1.47-.054-2.824-.192-3.007-.305-.216-.134-.267-.099-.144.1.104.168.073.305-.07.305-.141 0-.31-.149-.376-.33-.065-.182-.21-.245-.324-.14-.113.106-.047.404.147.662.248.33.189.312-.2-.06-.303-.29-.63-.826-.725-1.19-.15-.572-.127-.605.17-.24.27.33 1.1.454 3.85.575 3.446.153 3.508.146 3.628-.42.317-1.493.382-1.52.286-.114-.082 1.184-.035 1.448.21 1.19.186-.194.292-.951.257-1.839-.05-1.23.011-1.482.326-1.36.467.179.49.412.078.823-.235.236-.204.35.13.478.243.093.373.277.291.41a.287.287 0 0 1-.395.089c-.135-.084-.246.04-.246.275 0 .236.12.354.266.264.147-.09.338.021.425.249.088.227.325.413.528.413.427 0 .492.422.102.663-.147.09-.338-.021-.425-.249-.224-.582-.829-.514-1.029.116-.199.628-.55.682-.857.132zm3.628-.009c-.46-.553-.077-.85.436-.337.247.248.31.481.156.577-.143.088-.41-.02-.592-.24zm14.758-.033c.182-.074.48-.074.661 0 .182.073.034.133-.33.133s-.513-.06-.331-.133zm-14.202-.463c-.212-.255-.222-.428-.032-.545.37-.228.806.063.806.537 0 .486-.374.49-.774.008zm-1.527-.24c-.116-.194-.45-.447-.741-.562-.312-.123-.4-.258-.215-.328.173-.065.645.098 1.048.362.404.264.642.33.53.149-.279-.452.023-.87.497-.688.536.206.478.413-.267.954-.517.376-.68.398-.852.113zm10.912.102c-.196-.316.302-.63.654-.412.296.183.102.659-.269.659-.128 0-.302-.111-.385-.247zm-8.578-.523c-.2-.126-.282-.364-.18-.528.101-.164.295-.23.43-.146.446.275.257-.21-.216-.556-.254-.186-.376-.425-.271-.53.105-.105.403-.026.661.177.431.338.438.329.09-.115-.33-.419-.33-.514-.002-.717.315-.194.29-.3-.149-.62-.578-.423-.397-.852.254-.602.298.114.409.54.409 1.57 0 1.557-.438 2.439-1.026 2.067zm7.784-.006c-.196-.316.302-.63.654-.412.296.183.102.659-.269.659-.128 0-.301-.111-.385-.247zm1.444-.282c0-.146-.179-.265-.397-.265-.397 0-.528-.31-.249-.59.234-.233 1.727.604 1.559.875-.203.328-.913.312-.913-.02zm-5.953-.815c-.396-.829-.42-1.42-.206-5.154.209-3.65.187-4.283-.166-4.7-.308-.366-.32-.462-.05-.397.195.047.416-.081.49-.285.098-.27-.02-.33-.43-.224-.31.082-.498.04-.417-.092.082-.132.647-.223 1.257-.204.61.02.841.088.514.151-.619.12-.845.869-.265.876.259.003.257.05-.007.219-.27.171-.282.979-.058 4.03.154 2.1.335 4.072.403 4.385.067.313-.045.966-.248 1.45l-.37.881-.447-.936zm3.715.568c-.193-.313.3-.631.647-.417.146.09.197-.008.115-.222-.178-.462.307-.83.557-.425.097.157-.032.516-.287.798-.511.565-.801.64-1.032.266zm-10.044-.562c-.54-.544-.399-1.034.17-.593.645.499 1.247.608 1.09.198-.15-.39.205-.53.527-.207.22.22-.595 1.152-.99 1.13-.159-.009-.518-.246-.797-.528zm2.084.262c-.243-.394.04-.608.546-.414.234.09.35.283.26.43-.214.347-.586.34-.806-.016zm10.198-.459c0-.14-.25-.321-.556-.4-.306-.08-.477-.273-.381-.429.22-.357.937-.37.937-.017 0 .145.188.264.419.264.23 0 .372.142.314.314-.131.394-.733.614-.733.268zm10.848.112c0-.055.208-.263.463-.463.42-.33.429-.32.1.1-.346.44-.563.58-.563.363zm-22.754-.694c-.313-.193-.326-.31-.064-.57.255-.256.399-.259.646-.012.429.43-.052.91-.582.582zm1.577-.006c-.275-.17-.302-.317-.096-.523.206-.206.377-.178.606.098.383.461.028.758-.51.425zm11.123-.242c0-.137.126-.327.28-.423.18-.11.121-.29-.16-.495-.4-.292-.376-.366.248-.775l.69-.452v1.197c0 1.02-.078 1.197-.53 1.197-.29 0-.528-.112-.528-.25zm-2.515-.282c-.09-.147.026-.34.26-.43.507-.194.79.02.546.414-.22.355-.592.363-.806.015zm-11.067-.175c-.363-.362-.159-.674.353-.54.291.076.464.032.383-.099-.08-.13.086-.485.369-.789.818-.878.952-.11.14.802-.737.827-.942.93-1.245.626zm1.532-.106c-.096-.155-.11-.346-.033-.423.19-.19.705.144.705.456 0 .339-.456.316-.672-.033zm.966-.262c-.348-.29-.562-.598-.475-.686.24-.238 1.03.133.863.405-.08.13.048.22.285.2.237-.02.484.113.548.295.177.5-.508.38-1.221-.214zm9.79.047c-.405-.312-.526-.55-.337-.666.319-.198 1.63.55 1.63.93 0 .381-.616.256-1.292-.264zm-13.075-.392c-.108-.28-.03-.434.222-.434.213 0 .388-.119.388-.264 0-.146.179-.265.397-.265.218 0 .397.12.397.265 0 .145-.136.264-.302.264-.165 0-.444.196-.618.434-.295.403-.33.403-.484 0zm11.78-.474c.138-.412.73-.485.75-.092.008.146-.184.306-.427.356-.276.057-.397-.042-.323-.264zm1.661.039c-.09-.147.022-.338.25-.426.54-.207.532-.63-.012-.63-.27 0-.37-.146-.273-.398.2-.521.106-.501-.625.133-.627.544-1.061.68-1.054.33.005-.262.424-.916.554-.865.057.022.313-.041.57-.14.259-.099.664-.018.91.182.306.248.383.257.246.03-.257-.428.624-.442 1.54-.024.711.324.778.554.41 1.413-.195.452-.231.462-.247.066-.02-.507-.42-.62-.683-.194-.091.147-.264.208-.384.133-.12-.074-.287.043-.37.26-.175.455-.59.52-.832.13zm1.562-1.366a.508.508 0 0 0-.385-.22c-.137 0-.25.1-.25.22 0 .122.174.221.386.221.212 0 .324-.1.249-.22zm-11.603 1.121c-.084-.135-.032-.32.116-.412.316-.195.798.052.798.41 0 .321-.716.324-.914.003zm-4.092-.437c.013-.308.076-.37.16-.16.077.191.067.42-.02.507-.089.088-.151-.068-.14-.347zm4.487-.4c-1.027-.861-1.333-.949-1.333-.38 0 .224.157.328.37.247.454-.175.81.317.409.564-.159.099-.555-.072-.881-.378-.742-.696-.908-.695-1.666.017-.686.645-.835.596-.938-.312-.094-.83 1.122-1.346 1.951-.828.298.186.61.27.693.187.083-.082-.008-.15-.202-.15s-.292-.061-.217-.136c.226-.226 1.913.584 2.447 1.174.773.854.388.85-.633-.006zm-3.307-.223c-.084-.137.057-.371.315-.521.258-.15.334-.277.17-.281-.394-.01-.935.654-.713.876.258.258.404.21.228-.074zm12.172.796c-.196-.317.302-.63.655-.413.295.183.101.659-.27.659-.128 0-.301-.11-.385-.246zm-11.377-.265c-.18-.292.237-.608.481-.364.252.252.205.61-.08.61-.137 0-.317-.11-.401-.246zm-1.373-5.915c-.508-.287-.525-.361-.162-.697.353-.326.452-.313.751.096.328.448.383.443 1.135-.092.583-.415.843-.48.989-.244.109.176.057.367-.114.424-.171.057-.311.221-.311.364 0 .205.937-.314 1.833-1.015.062-.049-.117-.262-.397-.474-.435-.329-.446-.387-.075-.394.239-.005.507-.2.597-.433.104-.272.326-.362.616-.25.249.095.368.088.264-.015-.103-.103-.055-.348.107-.543.218-.263.209-.458-.035-.752-.181-.218-.225-.405-.098-.414.127-.009-.045-.127-.382-.262s-.538-.366-.447-.512c.328-.532.828-.248 1.156.659.184.509.476.928.648.93.198.003.175.092-.061.241-.207.13-.623.753-.926 1.383-.704 1.463-2.001 2.344-3.435 2.331-.597-.005-1.34-.154-1.653-.33zm4.801-1.776c.09-.146.038-.265-.116-.265s-.28.12-.28.265c0 .145.052.264.116.264s.19-.119.28-.264zm8.154 1.57c-1.171-.582-1.667-1.172-2.139-2.55-.75-2.192 1.397-4.963 3.643-4.698.363.042.87.087 1.124.1.324.015.462.24.459.75-.003.566-.06.64-.26.33-.191-.295-.258-.143-.261.595-.003.686-.122.992-.385.992-.6 0-.736-.47-.22-.762.442-.25.438-.288-.06-.66-.523-.388-.521-.396.108-.631.505-.19.551-.272.22-.399-.24-.092-.48.002-.563.22-.08.21-.281.38-.447.38-.166 0-.238-.165-.16-.367.098-.257-.012-.327-.369-.233-.28.073-.51.238-.51.367 0 .128-.127.233-.283.233-.284 0-.46.158-1.429 1.285-.327.38-.389.575-.165.52.196-.046.417.083.492.288.088.242.002.322-.244.228-.275-.106-.366.045-.335.553.025.384.07.698.1.698.031 0 .086.268.123.595.086.782.393 1.066.668.62.123-.198.364-.268.543-.157.251.155.249.245-.013.406-.266.165-.256.288.05.594.815.815 2.14.843 2.444.052.09-.236.005-.312-.244-.216-.49.188-.492-.103-.005-.59.498-.498.676-.477.699.085.015.38.05.391.198.066.148-.325.852-.397 3.923-.397 3.368 0 3.803-.053 4.338-.529.422-.375.559-.413.47-.132-.22.701-1.851 1.028-5.209 1.043l-3.272.015.122.637c.099.517-.007.663-.564.775a8.572 8.572 0 0 0-1.083.29c-.219.085-.895-.094-1.504-.396zm-12.352-.738c-.34-.375-.432-1.05-.432-3.153 0-1.526-.115-2.746-.269-2.841-.518-.32.045-.659 1.094-.659.638 0 .993.105.895.265-.09.145.089.264.397.264.34 0 .49-.114.38-.29-.254-.412.929.223 1.665.893.54.492.552.565.15.859-.364.266-.645.174-1.648-.539-.665-.472-1.506-.94-1.87-1.04-.51-.14-.57-.117-.265.1.349.247.35.312.008.532-.214.138-.287.346-.162.463.125.117.28.064.345-.118.144-.402 1.215-.448 1.081-.046-.052.156-.189.245-.305.198-.115-.047-.328.125-.472.383-.145.257-.374.4-.511.315-.432-.267-.27.121.28.671.292.291.65.53.795.53.327 0 .348.446.03.642-.13.08-.382-.032-.562-.248-.18-.217-.461-.39-.625-.386-.164.005-.073.18.204.389.4.303.438.457.185.761-.215.26-.228.437-.039.553.404.25.34.75-.075.591-.194-.074-.353.012-.353.192s.159.328.353.328c.194 0 .352-.1.352-.22 0-.122.179-.221.397-.221.219 0 .397-.12.397-.265 0-.145.169-.264.375-.264s.422-.14.479-.312c.062-.188.244-.224.459-.092.287.178.27.282-.09.545-.39.285-.394.345-.04.48.223.086.405.279.405.429 0 .38-.727.343-.856-.045-.072-.216-.363-.134-.913.258-.776.553-.824.557-1.24.098zm3.633-5.198c-.084-.218-.309-.397-.5-.397a.538.538 0 0 1-.467-.33c-.097-.265-.191-.265-.472 0-.289.272-.271.33.1.33.247 0 .45.11.45.245s.207.3.462.367c.255.066.49.134.521.151.032.017-.01-.148-.094-.366zm9.429 5.424c0-.145.178-.264.397-.264.218 0 .397.119.397.264 0 .146-.179.265-.397.265-.219 0-.397-.12-.397-.265zm-20.914-.552c-.163-.303-.227-.62-.142-.705.085-.085.154-.015.154.155 0 .454 6.785.432 6.968-.022.074-.182.143-.093.155.198.02.508-.12.526-3.448.442-2.44-.062-3.416-.003-3.292.198.098.157.115.286.039.286-.077 0-.272-.248-.434-.552zm1.004.377c.182-.073.48-.073.661 0 .182.073.033.133-.33.133-.364 0-.513-.06-.331-.133zm19.25-.087c-.173-.28.537-1.033.99-1.052.326-.014.23.245-.302.816-.344.37-.56.443-.688.236zm-.347-1.213c-.62-.435-.8-1.03-.25-.829.182.067.31.23.284.362-.026.133.168.241.433.241.282 0 .426-.14.35-.34-.074-.19.056-.34.294-.34.56 0 .539.344-.053.88-.432.39-.534.393-1.058.026zm1.705.233c-.298-.298-.181-.61.228-.61.218 0 .397.112.397.25 0 .333-.413.572-.625.36zm-2.815-.345a.265.265 0 0 1 .53 0 .265.265 0 0 1-.53 0zm-10.44-.247c-.083-.135-.03-.32.117-.412.316-.195.798.052.798.41 0 .322-.716.324-.915.003zm13.992-.025c-.384-.612-1.524-1.182-1.644-.823-.123.37-.85.402-.85.036 0-.145-.178-.264-.396-.264-.219 0-.397-.12-.397-.265 0-.145.178-.264.397-.264.218 0 .396.119.396.264 0 .38.725.327.884-.066.105-.259.189-.254.383.023.136.194.294.315.35.269.238-.194 1.342.82 1.237 1.136-.09.269-.169.259-.36-.046zm-11.64-.287c-.228-.37.46-.825.774-.512.254.255.009.806-.359.806-.128 0-.315-.132-.415-.294zm-1.558-.217c-.084-.135-.031-.32.117-.412.316-.195.798.052.798.41 0 .321-.716.324-.915.003zm9.506-.031c-.252-.407.093-.67.432-.33.19.19.195.338.014.45-.148.091-.349.037-.446-.12zm-19.704-.384c-.19-.229-.215-.397-.06-.397.147 0 .337.179.42.397.084.218.112.397.061.397-.05 0-.24-.179-.42-.397zm32.809 0c0-.218.115-.397.256-.397.141 0 .188.179.104.397-.084.218-.2.397-.256.397-.057 0-.104-.179-.104-.397zm-22.194-.496c-.384-.408-.498-.702-.316-.815.394-.243.878.1.72.511-.07.186.01.322.181.304.369-.04.585.448.248.56-.128.043-.503-.209-.833-.56zm1.57.072c-.52-.433-.574-.584-.277-.768.463-.285.871-.057.7.392-.074.19.05.323.283.304.228-.018.466.116.53.298.178.504-.51.378-1.236-.226zm5.034.137c.013-.308.076-.37.16-.16.077.192.067.42-.02.508-.089.088-.151-.069-.14-.348zm5.86-.16c.164-.49.734-.571.734-.104a.42.42 0 0 1-.419.419c-.23 0-.372-.142-.314-.314zm-2.297-.46c-.084-.136-.032-.322.116-.413.316-.195.798.052.798.41 0 .322-.716.324-.914.003zm1.047-.406c-.292-.356-.678-.652-.86-.66-.457-.016-.42-.54.037-.54.203 0 .45-.209.549-.464.17-.44.195-.44.52 0 .188.255.477.463.643.463.373 0 .396.44.035.663-.147.09-.338-.021-.425-.249-.175-.453-.896-.574-.896-.149 0 .146.117.265.261.265.328 0 1.326.84 1.326 1.117 0 .43-.683.174-1.19-.446zm-12.41-.1c-.163-.264.937-1.1 1.448-1.1.167 0 .236.172.155.383-.094.247-.02.334.21.246.442-.17.79.327.398.569-.157.097-.496-.014-.753-.247-.547-.494-.85-.544-.756-.125.084.38-.496.607-.701.275zm10.69-.175c0-.242.128-.398.284-.346.157.052.285.208.285.346 0 .139-.128.295-.285.347-.156.052-.284-.104-.284-.347zm-4.3-.042c.434-.176.42-3.16-.035-7.493-.313-2.982-.304-3.398.093-4.286l.44-.983.416.918c.333.734.373 1.324.2 2.962-.3 2.845-.517 8.441-.335 8.623.083.083.403.03.711-.12.545-.262.546-.258.047.142-.282.227-.818.402-1.19.39-.373-.01-.529-.08-.347-.153zm-7.937-7.337c-.255-.194-.463-.487-.463-.653 0-.209-.946-.302-3.059-.302-1.971 0-3 .094-2.894.265.09.145.056.264-.075.264-.13 0-.375-.303-.544-.674-.413-.905-.387-1.03.108-.535.332.331 1.054.416 3.554.416 3.038 0 3.142-.02 3.27-.596.073-.327.106-.153.073.387-.069 1.126.09 1.081.484-.135.275-.854 1.067-1.187 1.067-.45 0 .218-.149.367-.33.33-.183-.036-.331.044-.331.177 0 .134-.071.461-.158.728-.12.369-.095.397.103.12.143-.2.392-.283.554-.183.438.27.357.627-.169.744-.254.056.073.106.728.112.655.005 1.016-.051.803-.125-.565-.194-1.329-1.207-1.093-1.449.322-.33 1.13.103.97.52-.08.207-.034.308.1.225.135-.084.356.044.49.284.167.298.303.342.429.138.101-.164.058-.298-.096-.298s-.28-.179-.28-.397c0-.218.179-.397.397-.397.218 0 .397-.12.397-.265 0-.145.178-.264.397-.264.218 0 .396.123.396.273 0 .15-.178.341-.396.425-.219.084-.397.277-.397.43 0 .152.242.057.538-.21.296-.269.473-.66.392-.869-.08-.21-.01-.544.156-.744.227-.274.217-.466-.045-.78-.287-.346-.28-.458.034-.654.608-.379.752.771.266 2.122-.577 1.6-1.76 2.39-3.563 2.38-.743-.005-1.559-.167-1.813-.36zm13.892.092c-1.036-.224-1.566-.636-2.07-1.61-.486-.94-.494-1.594-.01-.958.193.254.486.463.652.463.4 0 .388.456-.016.59-.247.083-.247.15 0 .303.175.108.318.07.318-.084 0-.154.179-.28.397-.28.48 0 .527.432.066.62-.249.1-.233.203.066.414.218.155.516.28.662.28.145 0 .089-.11-.125-.245-.214-.136-.314-.322-.221-.414.092-.093.476.034.853.281.556.365.761.387 1.085.119.296-.246.324-.421.108-.682-.16-.192-.22-.466-.131-.608a.31.31 0 0 0-.11-.424c-.426-.263-.324-1.006.115-.838.256.098.334.02.236-.236-.081-.211-.303-.384-.494-.384a.544.544 0 0 1-.47-.33c-.087-.232-.24-.18-.511.172-.488.635-.81.19-.334-.46.34-.465.377-.465 1.09.003.461.3.656.347.518.123-.139-.225-.085-.45.143-.6.299-.197.28-.29-.104-.516-.258-.152-.399-.39-.313-.529.086-.139.297-.172.469-.073.172.098.224.081.116-.038s-.072-.366.08-.548c.19-.23.187-.385-.01-.507-.156-.096-.251-.033-.211.142.04.174-.076.372-.258.438-.182.067-.33-.054-.33-.269 0-.365.525-.712 1.08-.712.133 0 .244.209.246.463.004.4.043.41.29.066.237-.33.259-.315.128.088-.087.267-.16.624-.161.794-.003.178-.11.142-.253-.084-.278-.439-.314.714-.097 3.097l.125 1.382 3.356.082 3.355.083-3.349.057c-3.178.055-3.342.084-3.213.575.105.402-.034.554-.62.683-.416.092-.875.196-1.02.232-.146.036-.651-.018-1.123-.12zm-19.697-.698c.191-.077.42-.067.508.02.088.088-.069.151-.348.14-.308-.013-.37-.076-.16-.16zm20.567-.066c-.196-.317.302-.63.654-.412.296.182.102.658-.269.658-.128 0-.302-.11-.385-.246zm-1.476-1.144c-.514-.472-1.05-.9-1.19-.949-.868-.305-1.025-.52-.684-.93.188-.227.265-.535.172-.685-.1-.163-.003-.21.242-.115.456.174.561.63.146.63-.145 0-.264.178-.264.397 0 .218.089.367.198.332.326-.106 2.197 1.15 2.055 1.38-.072.117.016.196.197.176.37-.041.617.441.281.551-.12.04-.638-.315-1.153-.787zm11.421-.39c.309-.762.666-1.32.794-1.24.129.079.054.323-.165.543-.22.219-.4.546-.4.726 0 .18-.177.558-.394.84-.248.323-.186-.002.165-.87zm-22.138.44c-.096-.155-.111-.346-.034-.424.19-.19.706.145.706.457 0 .338-.457.316-.672-.033zm.704-.341c-.23-.278-.216-.438.062-.668.278-.23.437-.216.668.062.23.278.216.437-.062.668-.278.23-.438.216-.668-.062zm11.345.094c0-.146-.179-.265-.397-.265-.218 0-.397-.119-.397-.264 0-.146-.178-.265-.397-.265-.45 0-.531-.414-.13-.663.146-.09.338.022.425.25.202.526.631.538.631.016 0-.412.313-.525.615-.223.096.096.039.338-.127.538-.233.28-.187.45.2.743.46.348.464.381.04.389-.255.005-.463-.11-.463-.256zm-13.108-.547c-.096-.155-.108-.348-.027-.43.218-.217.964.123.964.44 0 .358-.713.351-.937-.01zm-9.232-.434c-.144-.377-.113-.407.148-.148.18.18.262.393.18.474-.081.082-.229-.065-.328-.326zm8.052.187c0-.145.12-.265.265-.265a.265.265 0 0 1 0 .53.265.265 0 0 1-.265-.265zm3.887.094c-.364-.364-.175-.925.28-.837.255.049.464.256.464.46 0 .418-.467.654-.744.377zm-1.916-.382c-.231-.373.279-.883.652-.652.42.26.352.94-.093.94-.21 0-.462-.13-.56-.288zm-1.615-.385c-.086-.224-.09-.474-.009-.556.232-.231.712.162.712.583 0 .508-.505.488-.703-.027zm2.552-.256c-.446-.538-.143-.805.558-.492.484.216.507.295.17.574-.312.26-.458.243-.728-.082zm9.05.115c.052-.156.207-.284.346-.284.138 0 .294.128.346.284.052.157-.104.285-.346.285-.243 0-.399-.128-.347-.285zm-10.893-.369c-.437-.526.204-.837.701-.34.346.347.346.41-.006.545-.219.084-.531-.008-.695-.205zm10.959-.555c-.428-.357-.615-.618-.415-.58.2.038.424-.096.497-.298.092-.253.02-.302-.231-.156-.2.116-.067-.116.296-.516.641-.705 2.341-1.603 2.581-1.363.21.209-.227.696-.482.539-.136-.084-.247.033-.247.26 0 .492-.433.55-.608.082-.086-.23-.312-.15-.742.264-.52.5-.546.596-.164.596.251 0 .456.119.456.264 0 .146-.119.265-.265.265-.145 0-.264.208-.264.463 0 .356.16.28.69-.33.379-.437.795-.765.926-.728.13.036.206-.041.17-.172-.037-.131.023-.25.132-.265.333-.044.247.226-.29.909-.283.359-.652.652-.822.652-.17 0-.24.11-.156.246.344.557-.337.472-1.062-.132zm-8.287.176c-.2-.127-.28-.37-.175-.538.144-.233.28-.232.563.003.698.579.378 1.02-.388.535zm-3.604-.29c-.285-.461.137-.854.55-.512.203.169.305.413.225.542-.193.312-.573.298-.775-.03zm1.606.03c-.08-.13.016-.369.214-.532.27-.224.433-.21.656.06.163.197.219.437.123.532-.25.25-.823.215-.993-.06zm2.8-.379c-.166-.199-.222-.44-.126-.535.095-.096-.084-.174-.4-.174-.342 0-.573-.166-.573-.413 0-.227-.105-.347-.235-.267-.129.08-.381-.033-.561-.25-.37-.445-1.056-.53-1.056-.129 0 .146-.186.265-.412.265-.227 0-.34-.12-.25-.265.09-.145-.081-.264-.38-.264-.753 0-.69.132.38.793 1.036.64 1.193 1.059.397 1.059-.29 0-.529-.175-.529-.389 0-.22-.157-.328-.362-.25-.316.122-.68-.553-.692-1.287-.002-.113.702-.157 1.564-.098 1.649.114 2.934.779 3.481 1.8.342.64.176.913-.247.404zm9.749.084c0-.145.179-.264.397-.264.218 0 .397.119.397.264 0 .146-.179.265-.397.265-.218 0-.397-.12-.397-.265zm-12.028-.659c-.79-.645-.793-1.133-.005-.83.243.093.342.296.232.474-.128.208-.051.258.229.15.445-.17 1.107.394.81.691-.266.266-.419.208-1.266-.485zm10.705-.399c0-.145.12-.265.265-.265a.265.265 0 0 1 0 .53.265.265 0 0 1-.265-.265zm-12.965-3.66c0-.121.174-.22.386-.22.212 0 .324.099.249.22a.508.508 0 0 1-.386.22c-.136 0-.249-.099-.249-.22zm13.957.045c.182-.073.48-.073.662 0 .182.074.033.134-.331.134s-.513-.06-.33-.134zm-5.977-.883c0-.364.06-.512.133-.33.074.181.074.479 0 .66-.073.183-.133.034-.133-.33zm6.37-.252c-.329-.275-.745-.554-.925-.621-.238-.088-.2-.255.134-.605.385-.404.515-.425.793-.125.263.283.264.319.002.171-.182-.103-.46-.107-.617-.01-.17.105.045.379.529.673.449.273.816.617.816.765 0 .349-.025.34-.731-.249zm-13.027-.145c.182-.218.443-.397.58-.397.139 0 .073.179-.145.397-.218.219-.48.397-.58.397-.101 0-.036-.178.145-.397zm1.242-.743c.072-.117.478-.138.9-.045.478.105.769.06.769-.117a.284.284 0 0 0-.28-.285c-.154 0-.207-.12-.117-.265.09-.145.331-.264.536-.264.276 0 .315.155.152.595-.171.463-.427.595-1.156.595-.515 0-.877-.096-.804-.214zm9.342-.712c-.484-.312-.066-.312.661 0 .35.15.394.232.132.242-.218.008-.575-.1-.793-.242zm-2.53-.53c.078-.363.143-.763.145-.887.002-.125.185-.157.406-.072.222.085.627-.07.9-.343.475-.474 1.608-.986 1.608-.725 0 .068-.424.374-.942.68-.517.305-.876.66-.796.789.08.129-.04.387-.264.574-.225.186-.388.23-.363.096.15-.79-.11-.932-.447-.243-.338.69-.37.708-.247.132zm-1.813-.797c-.278-.58-.427-1.135-.33-1.232.096-.096.175 0 .175.215s.17.622.379.904c.338.46.367.313.273-1.38-.083-1.493-.023-1.924.285-2.042.32-.123.359.044.215.941-.126.786-.09 1.04.127.905.18-.11.259-.046.195.158-.059.19-.177.702-.262 1.138l-.154.794.538-.926c.417-.716.5-.776.37-.265-.202.789-.842 1.854-1.112 1.85-.106-.003-.42-.479-.699-1.06zm-9.217.623c.182-.074.48-.074.661 0 .182.073.033.133-.33.133-.364 0-.513-.06-.331-.133zm1.557-.219c.112-.292.036-.36-.27-.242-.25.095-.427.029-.427-.16 0-.194-.213-.268-.53-.186-.29.076-.529.038-.529-.086 0-.459.52-.517 1.371-.154 1.62.691 2.205.975 1.72.834-.266-.076-.71-.018-.987.13-.407.218-.474.192-.348-.136zm5.976-.55c-.477-.5-.766-.908-.641-.908.235 0 1.16.947 1.485 1.521.29.512.098.372-.844-.613zm5.233.737c0-.172.32-.392.71-.49.739-.186 1.913-1.323 1.927-1.867.005-.173.117-.382.249-.464.132-.081.177.094.1.389-.184.7-1.507 2.11-1.98 2.11-.204 0-.514.143-.689.317-.24.242-.317.243-.317.005zm3.175-.322c-.338-.218-.327-.257.074-.26.26-.003.54-.183.624-.402.084-.218.266-.397.404-.397.139 0 .166.14.06.31-.127.208-.047.254.246.142.375-.144.39-.094.112.352-.353.565-.898.657-1.52.255zm1.984 0c.09-.146.365-.263.611-.26.386.003.393.039.05.26-.517.335-.868.335-.66 0zm1.323 0c.09-.146.216-.265.28-.265.065 0 .117.12.117.265 0 .145-.126.264-.28.264-.154 0-.207-.119-.117-.264zm-12.352-.181c.19-.076.419-.067.507.02.088.089-.069.151-.348.14-.308-.013-.37-.076-.16-.16zm11.823-.843c.89-.552 1.169-.514.667.091-.184.222-.588.403-.898.402-.492 0-.462-.063.231-.493zm1.72.296c0-.3 1.299-1.919 1.314-1.639.005.081-.289.55-.653 1.044-.363.493-.661.76-.661.595zm-8.71-.387c-.012-.25.247-.584.574-.743.505-.244.532-.236.175.057-.23.19-.49.524-.574.742-.125.322-.159.311-.175-.056zm-12.787-.119c.181-.073.48-.073.661 0 .182.074.033.134-.33.134-.365 0-.513-.06-.331-.134zm6.94-.492c-.28-.337-.263-.376.1-.236.239.091.434.273.434.403 0 .34-.153.292-.534-.167zm12.059-.237c.282-.206.569-.319.638-.25.145.145-.537.615-.903.621-.137.002-.018-.165.265-.371zm-18.933-.154c.218-.141.516-.256.661-.256.146 0 .086.115-.132.256-.218.141-.516.257-.662.257-.145 0-.086-.116.133-.257zm11.99-1.525-.029-1.518.225 1.323c.123.727.136 1.41.029 1.517-.108.108-.209-.487-.225-1.322zm8.118 1.425c0-.055.208-.263.463-.463.42-.329.429-.32.1.1-.346.44-.563.581-.563.363zm-6.134-.487c.142-.14.478-.21.748-.152.364.077.297.143-.256.256-.483.099-.657.062-.492-.104zm7.39.147c.183-.073.48-.073.662 0 .182.074.033.134-.33.134-.364 0-.513-.06-.331-.134zm-11.818-.508c.012-.308.075-.37.16-.16.076.191.066.42-.021.507-.088.088-.15-.068-.14-.347zm17.06-1.757c-1.063-1.516-.089-3.91 1.591-3.91.589 0 .907.127.907.36 0 .236-.215.32-.62.242a1.259 1.259 0 0 0-1.058.32c-.65.65-.534.936.312.767.89-.178 1.63.427 1.63 1.332 0 1.364-1.983 2.002-2.763.89zm1.69-.32c.372-.449-.09-1.57-.58-1.407-.59.196-.848.927-.483 1.367.43.518.659.527 1.063.04zm-34.646.115c-1.277-1.277-.278-3.97 1.474-3.97.603 0 .907.126.907.373 0 .244-.185.324-.538.231-.314-.082-.755.056-1.058.33-.705.638-.656.963.116.77 1.547-.39 2.452 1.475 1.156 2.383-.791.554-1.422.518-2.057-.117zm1.696-.606c.413-.656-.435-1.48-1.022-.993-.492.41-.523.85-.089 1.284.39.39.74.298 1.111-.291zm14.443.224c0-.21.108-.448.24-.53.132-.08.178.09.102.382-.162.618-.342.696-.342.148zm1.894-.677c0-.363.06-.512.134-.33.073.182.073.48 0 .661-.074.182-.134.033-.134-.33z" transform="translate(90.883 -112.482)"/><path style="fill:#121b13;stroke-width:.26458332" d="M-54.37 174.924c0-.146.352-.265.784-.265.996 0 1.34-.62 1.147-2.065-.129-.959-.237-1.11-.793-1.11-.547 0-.632.11-.56.728.06.522.252.751.682.812.749.107.507.577-.297.577-.784 0-1.228-.478-1.228-1.323 0-.91.454-1.323 1.455-1.323 1.121 0 1.455.424 1.455 1.846 0 1.617-.56 2.387-1.735 2.387-.5 0-.91-.119-.91-.264zm-33.074-.265c0-.145.353-.264.785-.264.505 0 .882-.183 1.058-.512.403-.753.353-.814-.519-.64-.985.198-1.588-.262-1.588-1.21 0-.929.448-1.343 1.455-1.343 1.121 0 1.455.424 1.455 1.847 0 1.616-.56 2.387-1.734 2.387-.502 0-.912-.12-.912-.265zm1.93-2.386c.191-.728-.529-1.447-1.031-1.03-.387.321-.494 1.087-.193 1.388.367.366 1.09.155 1.224-.358zm9.133-9.965c.191-.077.42-.067.508.02.087.088-.069.151-.348.14-.308-.013-.37-.076-.16-.16zm12.965 0c.191-.077.42-.067.507.02.088.088-.068.151-.347.14-.308-.013-.371-.076-.16-.16zm-12.121-.497c0-.227.119-.339.264-.249.146.09.265.276.265.413 0 .137-.12.249-.265.249-.145 0-.264-.186-.264-.413zm11.245.148c-.09-.145-.038-.264.116-.264s.28.119.28.264c0 .146-.052.265-.116.265s-.19-.12-.28-.265zm1.638.096c-.211-.212.028-.625.362-.625.136 0 .248.179.248.397 0 .41-.312.526-.61.228zm-14.47-.376c0-.154.118-.207.264-.117.145.09.264.216.264.28 0 .065-.119.117-.264.117-.146 0-.265-.126-.265-.28zm11.773-.249c-.09-.145.03-.265.265-.265.235 0 .354.12.264.265-.09.146-.209.265-.264.265-.056 0-.175-.12-.265-.265zm-12.435-.265c.09-.145.216-.264.28-.264.064 0 .117.119.117.264 0 .146-.126.265-.28.265-.155 0-.207-.119-.117-.265zm1.325-.004c.092-.147.277-.2.413-.116.367.227.298.385-.166.385-.227 0-.338-.12-.247-.269zm1.668.089c.19-.077.42-.067.507.02.088.088-.068.151-.347.14-.308-.013-.371-.076-.16-.16zm10.897-.084c0-.146.172-.265.382-.265.21 0 .455.12.544.265.09.145-.081.264-.38.264-.3 0-.546-.119-.546-.264zm-15.08-.16c-.365-.044-2.05-.156-3.747-.25-2.869-.157-3.094-.208-3.228-.74-.128-.509-.107-.522.19-.125.278.37.936.458 3.953.529 2.673.062 3.62.17 3.623.415 0 .182-.028.313-.064.291-.037-.022-.364-.076-.728-.12zm12.831-.105c-.09-.145-.037-.264.117-.264s.28.119.28.264c0 .146-.052.265-.116.265-.065 0-.19-.12-.28-.265zm5.557.087c3.17-.192 6.952-.203 6.839-.02-.068.108-1.932.176-4.143.149-2.21-.027-3.424-.085-2.696-.13zm-16.669-.351c-.09-.146-.037-.265.117-.265s.28.119.28.265c0 .145-.053.264-.117.264s-.19-.119-.28-.264zm1.455-.016c0-.154.12-.207.265-.117.145.09.264.216.264.28 0 .065-.119.117-.264.117-.146 0-.265-.126-.265-.28zm1.588.016c0-.146.119-.265.264-.265a.265.265 0 0 1 0 .53.265.265 0 0 1-.264-.265zm9.525 0c0-.146.119-.265.264-.265a.265.265 0 0 1 0 .53.265.265 0 0 1-.264-.265zm1.587 0c0-.146.179-.265.397-.265.218 0 .397.119.397.265 0 .145-.179.264-.397.264-.218 0-.397-.119-.397-.264zm-13.361-.53c-.09-.145-.038-.264.116-.264s.28.119.28.264c0 .146-.052.265-.116.265s-.19-.12-.28-.265zm1.455 0c0-.145.119-.264.264-.264.146 0 .265.119.265.264a.265.265 0 0 1-.53 0zm1.587 0a.265.265 0 0 1 .53 0 .265.265 0 0 1-.53 0zm9.404.019c-.18-.293.237-.609.481-.364.252.251.205.61-.08.61-.136 0-.317-.11-.4-.246zm-6.081-.783c-.403-.779-.419-1.297-.16-5.242.268-4.074.255-4.404-.18-4.743-.44-.342-.44-.355-.006-.203.324.113.463.024.463-.295 0-.326-.151-.416-.53-.318-.29.077-.462.031-.38-.101.08-.132.646-.224 1.256-.204.621.02.844.087.506.152-.598.115-.601.141-.454 3.337.081 1.772.238 4.065.349 5.096.135 1.26.1 2.12-.108 2.629l-.31.756-.446-.864zm3.821.5c0-.146.126-.265.28-.265.154 0 .207.12.117.265-.09.145-.216.264-.28.264-.064 0-.117-.119-.117-.264zm-9.643-.242a.295.295 0 0 1 .096-.406.296.296 0 0 1 .405.096.295.295 0 0 1-.096.406.296.296 0 0 1-.405-.096zm1.587 0a.295.295 0 0 1 .096-.406.296.296 0 0 1 .406.096.295.295 0 0 1-.096.406.296.296 0 0 1-.406-.096zm9.644-.023c0-.145.126-.264.28-.264.154 0 .206.119.117.264-.09.146-.216.265-.28.265-.065 0-.117-.12-.117-.265zm-12.965-.256c0-.141.179-.188.397-.104.218.084.397.199.397.256 0 .057-.179.104-.397.104-.218 0-.397-.115-.397-.256zm4.895-.008c.09-.146.216-.265.28-.265.064 0 .117.12.117.265 0 .145-.126.265-.28.265-.155 0-.207-.12-.117-.265zm9.525 0c.09-.146.275-.265.412-.265.137 0 .25.12.25.265 0 .145-.186.265-.413.265-.227 0-.34-.12-.25-.265zm-3.966-.269c.091-.148.277-.2.412-.117.367.227.299.386-.166.386-.227 0-.338-.121-.246-.269zm1.452.004c0-.145.179-.265.397-.265.218 0 .397.12.397.265 0 .146-.179.265-.397.265-.218 0-.397-.12-.397-.265zm-11.112-.265c0-.145.112-.264.249-.264s.322.119.412.264c.09.146-.022.265-.249.265s-.412-.119-.412-.265zm1.722-.004c.092-.147.277-.2.413-.116.367.227.298.385-.166.385-.227 0-.338-.12-.247-.269zm11.11.004c.09-.145.276-.264.413-.264.137 0 .249.119.249.264 0 .146-.186.265-.413.265-.227 0-.339-.119-.249-.265zm-2.513-.264c0-.146.119-.265.264-.265a.265.265 0 0 1 0 .53.265.265 0 0 1-.264-.265zm1.733.022a.295.295 0 0 1 .096-.405.295.295 0 0 1 .406.096.295.295 0 0 1-.096.405.296.296 0 0 1-.406-.096zm-12.846-.435c0-.226.12-.339.265-.249.145.09.264.276.264.413 0 .137-.119.249-.264.249-.146 0-.265-.186-.265-.413zm1.588.148c0-.145.119-.264.264-.264.146 0 .265.119.265.264a.265.265 0 0 1-.53 0zm1.455 0c-.09-.145.022-.264.249-.264s.412.119.412.264c0 .146-.112.265-.249.265s-.322-.12-.412-.265zm1.587 0c-.09-.145.022-.264.25-.264.226 0 .412.119.412.264 0 .146-.112.265-.25.265-.136 0-.322-.12-.412-.265zm9.79 0c-.09-.145.022-.264.249-.264s.412.119.412.264c0 .146-.112.265-.249.265s-.322-.12-.412-.265zm-4.101-.264c0-.146.119-.265.264-.265a.265.265 0 0 1 0 .53.265.265 0 0 1-.264-.265zm-9.643-.242a.295.295 0 0 1 .095-.406.296.296 0 0 1 .406.096.295.295 0 0 1-.096.405.296.296 0 0 1-.405-.095zm3.16-.023c-.09-.145.03-.264.265-.264.236 0 .355.119.265.264-.09.146-.21.265-.265.265-.055 0-.175-.12-.264-.265zm7.938 0c.09-.145.276-.264.413-.264.136 0 .248.119.248.264 0 .146-.185.265-.412.265-.227 0-.339-.12-.249-.265zm1.852 0c-.09-.145.03-.264.265-.264.235 0 .354.119.264.264-.09.146-.209.265-.264.265-.056 0-.175-.12-.265-.265zm-11.374-.269c.091-.148.277-.2.412-.116.367.226.299.385-.166.385-.227 0-.338-.12-.246-.269zm8.731-.264c.091-.148.277-.2.412-.117.367.227.299.386-.166.386-.227 0-.337-.121-.246-.27zm1.717.004c0-.146.186-.265.413-.265.226 0 .338.12.249.265-.09.145-.276.264-.413.264-.137 0-.249-.119-.249-.264zm1.724.007c-.209-.338.225-.54.626-.291.266.164.25.245-.07.368-.226.087-.476.052-.556-.077zm-14.424-.287c0-.154.12-.207.265-.117.145.09.264.216.264.28 0 .064-.119.117-.264.117-.146 0-.265-.126-.265-.28zm1.323.015a.265.265 0 0 1 .53 0 .265.265 0 0 1-.53 0zm1.587 0a.265.265 0 0 1 .53 0 .265.265 0 0 1-.53 0zm1.588.008c0-.14.179-.187.397-.104.218.084.397.2.397.257 0 .057-.179.104-.397.104-.218 0-.397-.116-.397-.257zm5.82-.008c0-.145.127-.264.281-.264.154 0 .207.119.117.264-.09.146-.216.265-.28.265-.065 0-.117-.12-.117-.265zm1.456-.264c-.09-.146.022-.265.249-.265s.412.12.412.265c0 .145-.112.264-.248.264-.137 0-.323-.119-.413-.264zm-11.245-.265a.265.265 0 0 1 .53 0 .265.265 0 0 1-.53 0zm1.455 0c-.09-.145.023-.264.25-.264.226 0 .412.119.412.264 0 .146-.112.265-.25.265-.136 0-.322-.12-.412-.265zm1.588 0c-.09-.145-.037-.264.117-.264s.28.119.28.264c0 .146-.053.265-.117.265s-.19-.12-.28-.265zm9.922 0c0-.145.112-.264.249-.264s.322.119.412.264c.09.146-.022.265-.249.265s-.412-.12-.412-.265zm-2.514-.264c.09-.146.283-.265.428-.265.146 0 .191.12.101.265-.09.145-.282.264-.428.264-.145 0-.19-.119-.1-.264zm-9.775-.242a.295.295 0 0 1 .095-.406.296.296 0 0 1 .406.096.295.295 0 0 1-.096.405.296.296 0 0 1-.405-.095zm2.94.065a.729.729 0 0 1-.176-.45c0-.165.123-.15.313.04.172.172.251.375.176.45-.075.075-.216.057-.313-.04zm8.423-.088c.09-.146.275-.265.412-.265.137 0 .25.12.25.265 0 .146-.186.265-.413.265-.227 0-.34-.12-.25-.265zm1.72 0c0-.146.119-.265.264-.265a.265.265 0 0 1 0 .53.265.265 0 0 1-.264-.265zm-11.642-.28c0-.154.119-.207.264-.117.146.09.265.216.265.28 0 .065-.119.117-.265.117-.145 0-.264-.126-.264-.28zm9.148.047c-.082-.132.029-.309.246-.392.218-.084.395-.044.395.089 0 .358-.47.58-.641.303zm1.322-.434c-.28-.212-.413-.476-.294-.587.118-.11.268-.052.333.13.065.181.287.33.493.33.206 0 .375.12.375.265 0 .364-.304.318-.907-.138zm1.965.17c0-.146.12-.34.265-.429.145-.09.264-.045.264.101 0 .146-.119.338-.264.428-.146.09-.265.045-.265-.1zm-13.229-.312c0-.154.12-.207.265-.117.145.09.264.216.264.28 0 .064-.119.117-.264.117-.146 0-.265-.126-.265-.28zm-2.249-.25c.09-.145.283-.264.428-.264.146 0 .191.12.101.265-.09.145-.282.264-.428.264-.145 0-.19-.119-.1-.264zm14.552 0c-.09-.145.022-.264.25-.264.226 0 .412.12.412.265 0 .145-.112.264-.25.264-.136 0-.322-.119-.412-.264zm-13.097-.264a.265.265 0 0 1 .53 0 .265.265 0 0 1-.53 0zm-.529-4.513c0-.155.12-.207.265-.117.145.09.264.216.264.28 0 .064-.119.117-.264.117-.146 0-.265-.126-.265-.28zm.662-.25c-.09-.145.022-.264.249-.264s.412.12.412.265c0 .145-.112.264-.249.264s-.322-.119-.412-.264zm1.587 0c.09-.145.216-.264.28-.264.065 0 .117.12.117.265 0 .145-.126.264-.28.264-.154 0-.207-.119-.117-.264zm10.319 0c-.09-.145-.045-.264.101-.264.146 0 .338.12.428.265.09.145.045.264-.1.264-.146 0-.34-.119-.429-.264zm1.455-.015c0-.154.12-.207.265-.117.145.09.266-.052.268-.315.004-.398.046-.413.251-.089.163.258.139.459-.07.592-.446.283-.714.257-.714-.071zm-14.949-.249c.09-.145.276-.265.413-.265.137 0 .249.12.249.265 0 .146-.186.265-.413.265-.227 0-.339-.12-.249-.265zm2.381-.265c-.09-.145.023-.264.25-.264.226 0 .412.119.412.264 0 .146-.112.265-.25.265-.136 0-.322-.119-.412-.265zm1.456 0c0-.145.119-.264.264-.264.146 0 .265.119.265.264a.265.265 0 0 1-.53 0zm8.863 0c.09-.145.216-.264.28-.264.065 0 .117.119.117.264 0 .146-.126.265-.28.265-.154 0-.207-.119-.117-.265zm-11.774-.264a.265.265 0 0 1 .53 0 .265.265 0 0 1-.53 0zm2.246-.27c-.088-.143.025-.26.252-.26s.413-.118.413-.264c0-.145.119-.264.264-.264.434 0 .302.378-.252.724-.326.203-.576.227-.677.064zm8.734.005c-.09-.146-.044-.265.102-.265.145 0 .338.12.428.265.09.145.044.264-.101.264-.146 0-.339-.119-.429-.264zm2.779 0c0-.146.119-.265.264-.265a.265.265 0 0 1 0 .53.265.265 0 0 1-.264-.265zm-20.043-.196c.983-.051 2.59-.051 3.572 0 .983.05.179.092-1.786.092-1.964 0-2.768-.041-1.786-.092zm6.984-.007c-.069-.112.162-.339.513-.505.368-.173.702-.2.787-.061.082.131-.037.24-.264.24s-.413.118-.413.264c0 .31-.442.355-.623.062zm10.942-.342c0-.154.119-.207.264-.117.146.09.265.216.265.28 0 .064-.119.117-.265.117-.145 0-.264-.126-.264-.28zm1.323 0c0-.154.119-.207.264-.117.146.09.265.216.265.28 0 .064-.12.117-.265.117-.145 0-.264-.126-.264-.28zm4.3.084a29.41 29.41 0 0 1 3.042 0c.837.053.152.096-1.521.096-1.674 0-2.358-.043-1.522-.096zm-17.383-.31a.295.295 0 0 1 .096-.406.296.296 0 0 1 .405.095.295.295 0 0 1-.096.406.296.296 0 0 1-.405-.096zm22.558.06c.191-.076.42-.066.507.021.088.088-.068.15-.347.14-.308-.013-.37-.076-.16-.16zm-20.199-.361c-.251-.407.093-.67.433-.33.19.19.194.338.013.45-.148.092-.349.037-.446-.12zm1.463.013c0-.145.127-.264.28-.264.155 0 .207.119.117.264-.09.146-.216.265-.28.265-.064 0-.117-.12-.117-.265zm8.467-.015c0-.155.12-.207.265-.117.145.09.264.216.264.28 0 .064-.119.117-.264.117-.146 0-.265-.126-.265-.28zm1.458.01c.091-.147.277-.2.412-.116.367.227.299.386-.166.386-.227 0-.337-.121-.246-.27zm-12.967-.26c-.09-.145.029-.264.264-.264.236 0 .355.12.265.265-.09.145-.21.264-.265.264-.055 0-.174-.119-.264-.264zm9.392-.28c0-.154.12-.206.265-.116.146.09.265.216.265.28 0 .064-.12.117-.265.117-.146 0-.265-.126-.265-.28zm1.323.016a.265.265 0 0 1 .53 0 .265.265 0 0 1-.53 0zm1.458-.004c.092-.148.277-.2.413-.117.367.227.298.386-.166.386-.227 0-.338-.121-.247-.269zm-11.38-.26c-.09-.146.03-.265.265-.265.235 0 .355.12.265.265-.09.145-.21.264-.265.264-.056 0-.175-.119-.265-.264zm1.456 0c0-.146.112-.265.249-.265s.322.12.412.265c.09.145-.022.264-.249.264s-.412-.119-.412-.264zm1.587.026c0-.275.503-.673.653-.516.048.051-.079.246-.283.434-.203.188-.37.224-.37.082zm-4.762-.29c0-.146.119-.265.264-.265.146 0 .265.119.265.264a.265.265 0 0 1-.53 0zm10.98 0c-.09-.146-.038-.265.117-.265.154 0 .28.119.28.264 0 .146-.053.265-.117.265s-.19-.12-.28-.265zm1.455-.016c0-.155.12-.207.265-.117.145.09.264.216.264.28 0 .064-.119.117-.264.117-.146 0-.265-.126-.265-.28zm1.323.015a.265.265 0 0 1 .53 0 .265.265 0 0 1-.53 0zm-11.223-.229c-.114-.184-.136-.407-.048-.494.237-.237.495.111.367.495-.09.269-.152.269-.319 0zm1.566-.035c-.09-.146-.038-.265.116-.265s.28.119.28.265c0 .145-.052.264-.116.264s-.19-.119-.28-.264zm4.386-.155c.013-.308.076-.37.16-.16.076.191.067.42-.02.507-.089.088-.151-.068-.14-.347zm1.852 0c.013-.308.076-.37.16-.16.077.191.067.42-.02.507-.089.088-.151-.068-.14-.347zm13.738.155c0-.146.126-.265.28-.265.154 0 .207.119.117.265-.09.145-.216.264-.28.264-.065 0-.117-.119-.117-.264zm-23.284-.265a.265.265 0 0 1 .53 0c0 .145-.12.265-.265.265a.265.265 0 0 1-.265-.265zm10.848-.016c0-.154.12-.206.265-.116.145.09.264.216.264.28 0 .064-.119.117-.264.117-.146 0-.265-.127-.265-.28zm1.456.016c-.09-.146-.038-.265.116-.265s.28.12.28.265c0 .145-.052.265-.116.265s-.19-.12-.28-.265zm1.322 0c-.09-.146-.037-.265.117-.265s.28.12.28.265c0 .145-.052.265-.116.265-.065 0-.19-.12-.28-.265zm-14.287-.53c-.09-.145-.037-.264.117-.264s.28.12.28.265c0 .145-.053.264-.117.264s-.19-.119-.28-.264zm1.455 0c0-.145.186-.264.413-.264.227 0 .339.12.249.265-.09.145-.276.264-.413.264-.137 0-.249-.119-.249-.264zm1.588 0c0-.145.119-.264.264-.264a.265.265 0 0 1 0 .53.265.265 0 0 1-.264-.265zm7.673 0c0-.145.119-.264.264-.264a.265.265 0 0 1 0 .53.265.265 0 0 1-.264-.265zm1.455 0c-.09-.145-.038-.264.116-.264.155 0 .28.12.28.265 0 .145-.052.264-.116.264s-.19-.119-.28-.264zm1.323 0c-.09-.145.029-.264.264-.264.236 0 .355.12.265.265-.09.145-.21.264-.265.264-.055 0-.174-.119-.264-.264zm-12.686-.506a.295.295 0 0 1 .095-.405.296.296 0 0 1 .406.095.295.295 0 0 1-.096.406.296.296 0 0 1-.405-.096zm1.565-.036c-.251-.406.093-.669.433-.33.19.19.194.339.013.45-.148.092-.349.038-.446-.12zm1.596.014c-.09-.146-.038-.265.116-.265s.28.12.28.265c0 .145-.052.264-.116.264s-.19-.119-.28-.264zm7.42.018c-.084-.136-.032-.321.116-.413.148-.091.269.02.269.247 0 .464-.159.533-.386.166zm2.943.07a.729.729 0 0 1-.177-.45c0-.166.123-.15.313.04.172.172.252.374.177.45-.076.075-.216.057-.313-.04zm-7.387-.264c.43-.173.44-3.398.02-7.647-.271-2.763-.259-3.33.095-4.216l.408-1.023.328.995c.256.775.264 1.831.036 4.784-.318 4.135-.376 7.018-.142 7.018.083 0 .41-.126.728-.28.558-.269.56-.264.064.133-.282.226-.818.402-1.19.39-.373-.01-.529-.08-.347-.154zm5.758-.093c.091-.148.277-.2.412-.117.367.227.299.386-.166.386-.227 0-.338-.121-.246-.27zm-12.703-.525c.09-.146.216-.265.28-.265.064 0 .117.12.117.265 0 .145-.126.264-.28.264-.154 0-.207-.119-.117-.264zm1.455 0a.265.265 0 0 1 .53 0 .265.265 0 0 1-.53 0zm1.588 0c0-.146.119-.265.264-.265a.265.265 0 0 1 0 .53.265.265 0 0 1-.264-.265zm8.995 0a.265.265 0 0 1 .53 0 .265.265 0 0 1-.53 0zm1.323 0a.265.265 0 0 1 .53 0 .265.265 0 0 1-.53 0zm-12.7-.53a.265.265 0 0 1 .53 0 .265.265 0 0 1-.53 0zm1.588 0c0-.145.119-.264.264-.264a.265.265 0 0 1 0 .53.265.265 0 0 1-.264-.265zm8.996 0c0-.145.119-.264.264-.264a.265.265 0 0 1 0 .53.265.265 0 0 1-.264-.265zm1.455 0c-.09-.145-.037-.264.117-.264s.28.12.28.265c0 .145-.053.264-.117.264s-.19-.119-.28-.264zm1.455 0c0-.145.186-.264.413-.264.227 0 .339.12.249.265-.09.145-.276.264-.413.264-.137 0-.249-.119-.249-.264zm-14.155-.528c.09-.146.216-.265.28-.265.064 0 .117.119.117.265 0 .145-.126.264-.28.264-.154 0-.207-.119-.117-.264zm1.455 0a.265.265 0 0 1 .53 0 .265.265 0 0 1-.53 0zm1.455 0c-.09-.146-.037-.265.117-.265s.28.119.28.265c0 .145-.052.264-.116.264-.065 0-.19-.119-.28-.264zm8.996 0c-.09-.146.03-.265.265-.265.235 0 .354.119.264.265-.09.145-.209.264-.264.264-.056 0-.175-.119-.265-.264zm1.602.022a.295.295 0 0 1 .095-.405.296.296 0 0 1 .406.095.295.295 0 0 1-.096.406.295.295 0 0 1-.405-.096zm-14.17-.552a.265.265 0 0 1 .53 0 .265.265 0 0 1-.53 0zm1.323 0a.265.265 0 0 1 .53 0 .265.265 0 0 1-.53 0zm-1.323-5.027c-.21-.13-.293-.323-.186-.43.107-.108.334-.057.504.113.4.4.177.623-.318.317zm1.458-.004c.092-.148.277-.2.413-.116.367.226.298.385-.166.385-.227 0-.338-.12-.247-.269zm1.475-.07c.06-.041.348-.25.64-.463.489-.36.501-.354.165.075-.2.254-.487.463-.639.463-.152 0-.227-.034-.166-.075zm9.32-.603c-.49-.446-.563-.588-.214-.416.844.416 1.617 1.076 1.272 1.085-.174.005-.65-.296-1.059-.669zm1.77.397c0-.154.12-.206.265-.116.146.09.265.216.265.28 0 .064-.12.117-.265.117-.146 0-.265-.126-.265-.28zm1.323-.1c0-.217.227-.363.53-.34.633.047.69.337.11.56-.589.226-.64.208-.64-.22zm-14.692-.162c-.252-.407.093-.67.432-.33.19.19.195.339.014.45-.148.092-.349.038-.446-.12zm1.463.013c0-.145.186-.264.413-.264.227 0 .339.119.249.264-.09.146-.276.265-.413.265-.137 0-.249-.119-.249-.265zm11.245-.264c-.09-.146-.037-.265.117-.265s.28.12.28.265c0 .145-.053.264-.117.264s-.19-.119-.28-.264zm1.19.031c0-.145.12-.338.265-.428.146-.09.265-.045.265.101 0 .146-.12.338-.265.428-.145.09-.264.045-.264-.1zm-13.096-.296a.491.491 0 0 1 .072-.575c.177-.176.329-.161.457.046.105.171.073.43-.073.575-.176.177-.328.161-.456-.046zm1.601.023a.295.295 0 0 1 .096-.406.296.296 0 0 1 .405.096.295.295 0 0 1-.095.406.296.296 0 0 1-.406-.096zm-8.414-.219c.91-.051 2.397-.051 3.307 0 .91.052.165.094-1.654.094s-2.563-.042-1.653-.094zm5.357-.068c0-.146.127-.265.28-.265.155 0 .207.12.117.265-.09.145-.216.264-.28.264-.064 0-.117-.119-.117-.264zm13.883-.014c-.252-.406.093-.669.432-.33.19.19.195.339.014.45-.148.092-.349.038-.446-.12zm10.08-.064c.099-.26.247-.408.328-.326.082.081 0 .295-.18.474-.262.26-.292.23-.149-.148zm-7.915-.12c-.068-.11.907-.167 2.167-.128 4.041.125 4.495.232 1.182.28-1.774.025-3.281-.044-3.35-.153zm-13.787-.313c-.181-.293.236-.608.48-.364.252.251.205.61-.08.61-.136 0-.317-.11-.4-.246zm1.579-.023c.091-.148.277-.2.412-.117.367.227.299.386-.166.386-.227 0-.338-.12-.246-.269zm7.645-.298c-.503-.564-.502-.565.091-.2.327.2.595.456.595.566 0 .32-.147.24-.686-.366zm1.612.302c-.09-.145-.037-.264.117-.264s.28.119.28.264c0 .146-.052.265-.116.265-.065 0-.19-.119-.28-.265zm-12.567-.264c0-.146.178-.265.397-.265.218 0 .396.12.396.265 0 .145-.178.264-.396.264-.219 0-.397-.119-.397-.264zm4.233-.117c0-.21.108-.448.24-.53.132-.08.177.09.101.382-.161.618-.341.696-.341.148zm9.657.117c-.09-.146-.037-.265.117-.265s.28.12.28.265c0 .145-.052.264-.117.264-.064 0-.19-.119-.28-.264zm-11.388-.282c-.096-.155-.11-.346-.033-.424.19-.19.706.145.706.457 0 .338-.457.315-.673-.033zm9.286.04a.295.295 0 0 1 .095-.406.296.296 0 0 1 .406.096.295.295 0 0 1-.096.406.296.296 0 0 1-.405-.096zm-10.87-.3c-.244-.394-.05-.533.374-.27.228.14.255.276.077.386a.331.331 0 0 1-.452-.117zm12.179.013c-.09-.146-.038-.265.116-.265s.28.12.28.265c0 .145-.052.264-.116.264s-.19-.119-.28-.264zm1.322 0c-.09-.146.023-.265.25-.265.226 0 .412.12.412.265 0 .145-.112.264-.25.264-.136 0-.322-.119-.412-.264zm-12.834-.665c-.266-.32-.25-.394.086-.394.494 0 .817.432.48.64-.132.082-.386-.029-.566-.246zm1.773.231c-.093-.093-.109-.266-.035-.385.165-.267.91-.006.91.318 0 .271-.623.32-.875.067zm8.945-.095c-.09-.146-.038-.265.116-.265.155 0 .28.119.28.265 0 .145-.052.264-.116.264s-.19-.119-.28-.264zm1.334.018c-.084-.136-.031-.321.117-.413.148-.091.269.02.269.247 0 .464-.16.533-.386.166zm-9.235-.415c-.084-.219-.037-.397.104-.397.14 0 .256.178.256.397 0 .218-.047.397-.104.397-.057 0-.172-.179-.256-.397zm-4.535-.133c-.09-.145-.044-.264.101-.264.146 0 .339.119.429.264.09.146.044.265-.102.265-.145 0-.338-.12-.428-.265zm2.393-.246c-.084-.135-.031-.321.117-.412.315-.196.798.052.798.41 0 .321-.716.323-.915.002zm-1.731-.283c0-.145.178-.264.397-.264.218 0 .397.119.397.264 0 .146-.179.265-.397.265-.219 0-.397-.12-.397-.265zm10.319 0c0-.145.126-.264.28-.264.154 0 .206.119.116.264-.09.146-.216.265-.28.265-.064 0-.116-.12-.116-.265zm-7.552-.282c-.096-.155-.11-.346-.033-.423.19-.19.705.144.705.456 0 .338-.456.316-.672-.033zm11.256.018c0-.146.119-.265.264-.265a.265.265 0 0 1 0 .53.265.265 0 0 1-.264-.265zm-13.108-.283c-.096-.155-.11-.345-.033-.423.19-.19.705.145.705.457 0 .338-.456.315-.672-.034zm-1.709-.247a.265.265 0 0 1 .53 0 .265.265 0 0 1-.53 0zm4.41.089a.729.729 0 0 1-.177-.45c0-.166.124-.15.314.04.172.172.251.374.176.45-.075.075-.216.057-.313-.04zm9.745-.089c-.09-.145-.037-.264.117-.264s.28.119.28.264c0 .146-.052.265-.117.265-.064 0-.19-.119-.28-.265zm-13.442-.433c-.282-.282.071-.612.485-.453.212.081.32.255.24.385-.171.278-.486.307-.725.068zm1.8-.096c-.09-.145-.044-.264.102-.264.145 0 .338.119.428.264.09.146.044.265-.101.265-.146 0-.338-.12-.428-.265zm9.658-.015c0-.154.119-.207.264-.117.146.09.265.216.265.28 0 .064-.119.117-.265.117-.145 0-.264-.126-.264-.28zm2.513.015c-.09-.145.03-.264.265-.264.235 0 .355.119.265.264-.09.146-.21.265-.265.265-.056 0-.175-.12-.265-.265zm-11.365-.51c-.181-.293.236-.609.48-.364.252.251.205.61-.08.61-.136 0-.317-.111-.4-.247zm-1.731-.283c0-.146.112-.265.249-.265.136 0 .322.119.412.265.09.145-.022.264-.249.264s-.412-.119-.412-.264zm-.794-.53c0-.145.119-.264.264-.264.146 0 .265.119.265.264a.265.265 0 0 1-.53 0zm1.587 0c0-.145.112-.264.25-.264.136 0 .322.119.412.264.09.146-.022.265-.25.265-.226 0-.412-.12-.412-.265zm12.303 0c.09-.145.216-.264.28-.264.065 0 .117.119.117.264 0 .146-.126.265-.28.265-.154 0-.206-.12-.117-.265zm-.71-.445c.19-.076.419-.067.507.021.087.088-.069.15-.348.139-.308-.013-.37-.075-.16-.16zm-6.016-6.853c.013-.308.076-.37.16-.16.077.191.067.42-.02.508-.088.087-.151-.069-.14-.348zm15.824-4.11c-.455-.454-.536-.78-.429-1.73.168-1.49.805-2.207 1.956-2.207.487 0 .885.119.885.264 0 .146-.334.265-.741.265-.787 0-1.376.416-1.376.972 0 .224.245.293.728.205 1.002-.183 1.477.209 1.477 1.218 0 1.478-1.449 2.065-2.5 1.013zm1.718-.559c.36-.571-.366-1.42-1.005-1.174-.42.161-.578 1.251-.232 1.597.293.293.921.078 1.237-.423zm-34.422.583c-1.036-.413-1.134-2.672-.162-3.746.46-.508 2.205-.68 2.205-.215 0 .145-.353.264-.785.264-.504 0-.882.183-1.058.512-.4.748-.352.813.477.648.506-.101.893-.007 1.19.29 1.158 1.157-.274 2.88-1.867 2.247zm1.239-.641c.43-.518.094-1.468-.519-1.468s-.948.95-.519 1.468c.176.21.41.384.519.384.11 0 .343-.173.519-.384z" transform="translate(90.883 -112.482)"/></svg>