<svg xmlns="http://www.w3.org/2000/svg" viewBox="0 0 42.598 65.352" height="247" width="161"><path d="M220.218-27.087c-.403-.445-.438-3.053-.438-32.106 0-30.299.02-31.64.483-32.06.442-.4 2.253-.438 20.597-.438 19.149 0 20.134.023 20.55.484.403.445.438 3.053.438 32.106 0 30.299-.02 31.64-.483 32.06-.442.4-2.253.438-20.597.438-19.149 0-20.134-.023-20.55-.484z" style="fill:#fff;fill-opacity:1;stroke-width:.26458332" transform="translate(252.671 -133.86)"/><path style="fill:#fff;fill-opacity:1;stroke-width:.26584104" d="M-276.23 105.934c-.407-.444-.442-3.052-.442-32.106 0-30.298.02-31.64.488-32.06.445-.399 2.274-.437 20.793-.437 19.331 0 20.325.023 20.746.484.406.444.442 3.052.442 32.105 0 30.3-.02 31.64-.488 32.06-.446.4-2.275.438-20.793.438-19.331 0-20.326-.023-20.746-.484z" transform="translate(276.672 -41.066)"/><path style="fill:#b4b3b2;stroke-width:.26458332" d="M-175.741 229.947c-.403-.444-.438-3.061-.438-32.238 0-30.427.02-31.772.484-32.192.441-.4 2.27-.438 20.86-.438 19.406 0 20.399.023 20.816.484.402.445.438 3.062.438 32.238 0 30.427-.02 31.773-.484 32.192-.442.4-2.271.438-20.861.438-19.405 0-20.398-.023-20.815-.484zm41.411-.218c.464-.42.484-1.757.484-31.928 0-28.93-.035-31.529-.438-31.973-.417-.461-1.401-.484-20.55-.484-18.344 0-20.155.038-20.597.438-.463.42-.484 1.757-.484 31.927 0 28.93.036 31.53.438 31.974.417.46 1.402.484 20.55.484 18.345 0 20.156-.039 20.597-.438zm-39.03-1.634c-.402-.444-.438-2.933-.438-30.386 0-28.633.02-29.92.484-30.34.44-.398 2.106-.438 18.48-.438 17.098 0 18.018.024 18.434.484.402.444.438 2.942.438 30.507 0 22.998-.075 30.096-.318 30.34-.24.24-4.706.317-18.48.317-17.26 0-18.184-.024-18.6-.484zm36.815-.098c.461-.46.461-60.023 0-60.484-.459-.459-36.212-.459-36.67 0-.462.461-.462 60.023 0 60.484.458.46 36.211.46 36.67 0zm-36-.634c-.34-.34.127-.816.695-.708.342.066.746-.064.945-.303.303-.366.244-.419-.473-.419-1.765 0-2.072-2.213-.412-2.969.565-.258.827-.24 1.418.1l.725.416-.48-.994c-1.55-3.206-.324-6.678 2.944-8.343 1.306-.666 3.794-.629 5.163.077 2.136 1.102 3.257 2.694 3.49 4.958.566 5.474-5.643 8.688-10.148 5.252l-.977-.745.17.677c.233.927-.259 2.565-.867 2.891-.547.293-1.94.362-2.193.11zm1.79-3.017c0-.34-.149-.667-.33-.728-.406-.135-.711.576-.492 1.147.233.606.822.306.822-.42zm30.824 2.617c0-.458.114-.53.642-.397.411.104.792.012 1.058-.254.554-.554.532-.592-.254-.442-1.406.27-2.308-1.696-1.227-2.674.656-.594 1.784-.551 2.427.092.795.795.73 2.732-.12 3.583-.87.87-2.526.93-2.526.092zm1.966-2.967c-.094-.244-.34-.444-.548-.444-.536 0-.745.727-.346 1.207.286.345.393.352.7.044.2-.2.287-.563.194-.807zm-9.21 1.284c-2.31-.823-3.881-3.161-3.901-5.804-.042-5.48 6.311-8.272 10.479-4.604 1.52 1.339 2.12 2.885 1.888 4.864-.511 4.353-4.493 6.96-8.465 5.544zm-19.166-20.742c-1.599-.563-3.01-1.794-3.832-3.343-.717-1.35-.778-4.1-.117-5.331.392-.731.4-.873.057-1.157-.61-.507-.473-1.516.273-2.004.55-.361.793-.381 1.428-.118.62.257.908.243 1.523-.075 2.95-1.525 6.952-.083 8.632 3.11.782 1.485.783 4.109.004 5.575-1.603 3.017-4.932 4.414-7.968 3.344zm-2.827-10.62c.09-.145.038-.264-.116-.264s-.28.12-.28.265c0 .145.052.264.116.264s.19-.119.28-.264zm22.091 10.337c-4.836-1.471-6.396-7.337-2.885-10.848 1.7-1.7 4.615-2.414 6.66-1.63.402.153 1.236.21 1.853.125 1.494-.205 2.194.478 1.961 1.913-.1.613-.015 1.24.23 1.713.47.91.5 3.106.06 4.578-.444 1.485-2.648 3.725-4.04 4.105-1.195.325-2.85.344-3.839.044zm6.617-11.13c0-.145-.126-.265-.28-.265-.155 0-.207.12-.117.265.09.146.216.265.28.265.064 0 .117-.12.117-.265zm-26.106-10.264c-1.956-.698-3.118-1.69-3.936-3.361-2.649-5.415 3.47-11.403 8.81-8.623 1.456.758 2.426 1.78 3.135 3.303 2.399 5.15-2.628 10.6-8.01 8.68zm18.697-.323c-3.483-1.624-4.897-5.268-3.34-8.61 1.913-4.109 7.302-5.1 10.4-1.912 1.977 2.035 2.445 5.062 1.169 7.564-1.465 2.87-5.39 4.281-8.229 2.958zm-24.077-9.97c-.218-.078-.546-.329-.727-.558-.346-.437-.45-2.346-.167-3.082.25-.65 1.583-1.24 2.359-1.045.842.212.712.74-.21.85-.377.045-.83.253-1.003.463-.264.318-.182.381.49.381.82 0 1.642.575 1.636 1.143-.01.904-.39 1.496-1.12 1.75-.445.156-.82.273-.834.261a5.506 5.506 0 0 0-.424-.163zm1.059-1.536c0-.672-.603-.92-.934-.384-.255.412.065 1.046.528 1.046.256 0 .406-.244.406-.662zm30.975 1.082c-.462-.557-.628-2.045-.317-2.854.371-.966 1.443-1.637 2.28-1.427.955.24.84.9-.176 1-1.012.1-1.321.678-.363.678 1.298 0 1.875 1.191 1.193 2.465-.332.62-2.137.716-2.617.138zm1.785-1.013c-.125-.88-1.01-.957-1.01-.088 0 .512.135.68.547.68.416 0 .527-.142.463-.592z" transform="translate(176.18 -165.08)"/><path style="fill:#f5d906;stroke-width:.26458332" d="M-172.299 227.344c-.372-.372-.147-.617.565-.617.795 0 1.376-.417 1.376-.988 0-.275-.121-.289-.547-.06-.746.398-1.835-.307-1.835-1.188 0-1.37 1.825-1.993 2.773-.945.661.73.424 2.839-.394 3.501-.585.474-1.605.63-1.938.297zm1.81-2.471c.282-.457-.145-1.32-.653-1.32-.545 0-.863.595-.635 1.19.172.448 1.037.536 1.288.13zm30.999 2.471c-.35-.35-.164-.617.432-.617.647 0 1.243-.444 1.243-.926 0-.176-.362-.248-.921-.183-.788.092-.959.012-1.174-.554-.363-.956-.076-1.706.766-2 1.477-.514 2.468.643 2.187 2.554-.183 1.247-1.866 2.394-2.533 1.726zm1.543-2.998c0-.413-.17-.687-.464-.744-.523-.1-.864.533-.623 1.16.252.658 1.087.338 1.087-.416zm-29.369.694c-1.625-.767-2.373-1.553-2.901-3.05-.812-2.301-.373-4.725 1.137-6.28 1.99-2.048 4.675-2.503 7.205-1.22 2.016 1.022 2.968 2.454 3.11 4.676.128 2.015-.255 3.317-1.339 4.55-1.72 1.96-4.702 2.507-7.212 1.324zm21.432.36c-1.785-.267-2.94-.999-3.995-2.53-.91-1.32-.987-1.579-1.002-3.358-.015-1.649.09-2.11.718-3.183 1.418-2.418 4.33-3.551 7.057-2.743 1.64.486 3.293 1.878 3.87 3.26.825 1.974.311 4.853-1.156 6.477-1.512 1.674-3.404 2.39-5.492 2.077zm-20.554-21.107c-1.416-.517-2.915-1.789-3.546-3.01-.68-1.313-.795-3.704-.248-5.136.341-.894.386-1.293.169-1.51-.389-.389-.377-1.325.022-1.724.389-.388 1.332-.414 1.7-.047.184.185.679.09 1.553-.297 1.49-.659 3.948-.605 5.343.117 4.002 2.069 4.723 7.577 1.37 10.462-1.835 1.577-4.074 1.98-6.363 1.145zm-2.408-10.803c-.254-.253-1.008.438-.817.749.096.154.33.091.577-.156.229-.23.337-.496.24-.593zm20.977 10.343c-2.301-1.036-3.822-3.362-3.8-5.813.027-2.955 1.723-5.282 4.444-6.093 1.603-.479 2.616-.478 3.966.004.744.265 1.183.293 1.546.098 1.185-.634 2.68.704 2.068 1.85-.165.307-.074.956.283 2.012.66 1.953.49 3.497-.594 5.393-1.13 1.981-2.482 2.757-5.002 2.874-1.404.065-2.256-.03-2.91-.325zm7.673-10.724c0-.137-.253-.249-.561-.249-.468 0-.507.067-.235.394.33.399.796.314.796-.145zm-26.6-10.46c-3.526-1.251-5.095-5.217-3.456-8.737 1.41-3.03 5.246-4.402 8.36-2.99 1.486.674 2.285 1.409 2.957 2.72 2.8 5.46-2.086 11.058-7.861 9.008zm19.039-.202c-1.241-.565-2.726-1.982-3.341-3.187-1.34-2.628-.263-6.412 2.265-7.952.969-.59 1.695-.81 2.952-.89 4.155-.264 6.744 2.13 6.744 6.235 0 2.302-.96 3.976-3.041 5.303-1.297.827-4.269 1.088-5.579.491zm-24.749-10.52c-.748-.748-.575-2.756.299-3.464.74-.6 2.113-.639 2.113-.06 0 .235-.2.393-.463.366-.856-.087-1.104.012-1.393.552-.26.486-.226.522.363.374.973-.244 1.758.29 1.758 1.195 0 1.512-1.587 2.127-2.677 1.037zm1.75-.495c.215-.678-.03-1.061-.676-1.061-.362 0-.514.182-.514.617 0 1.062.889 1.393 1.19.444zm30.998.572c-.752-.831-.466-3.193.462-3.812.16-.107.688-.196 1.173-.198 1.074-.005 1.025.597-.052.644-.634.028-1.21.48-1.223.96-.002.083.334.102.747.042 1.43-.21 2.139 1.28 1.101 2.318-.66.66-1.633.68-2.208.046zm1.547-.994c0-.862-.563-1.046-1.015-.33-.202.32-.181.557.077.868.507.61.938.363.938-.538z" transform="translate(176.18 -165.08)"/><path style="fill:#a89a1b;stroke-width:.26458332" d="M-172.299 227.344c-.372-.372-.147-.617.565-.617.795 0 1.376-.417 1.376-.988 0-.275-.121-.289-.547-.06-.746.398-1.835-.307-1.835-1.188 0-1.37 1.825-1.993 2.773-.945.661.73.424 2.839-.394 3.501-.585.474-1.605.63-1.938.297zm1.81-2.471c.282-.457-.145-1.32-.653-1.32-.545 0-.863.595-.635 1.19.172.448 1.037.536 1.288.13zm30.999 2.471c-.35-.35-.164-.617.432-.617.647 0 1.243-.444 1.243-.926 0-.176-.362-.248-.921-.183-.788.092-.959.012-1.174-.554-.363-.956-.076-1.706.766-2 1.477-.514 2.468.643 2.187 2.554-.183 1.247-1.866 2.394-2.533 1.726zm1.543-2.998c0-.413-.17-.687-.464-.744-.523-.1-.864.533-.623 1.16.252.658 1.087.338 1.087-.416zm-29.369.694c-1.625-.767-2.373-1.553-2.901-3.05-1.123-3.182.179-6.378 3.145-7.726 3.324-1.51 7.814.744 8.235 4.133.125 1.013.116 1.005-.237-.227-.202-.704-.628-1.538-.947-1.852l-.581-.571.174.714c.136.555.024.865-.5 1.39-.59.59-.758.636-1.348.367-.766-.35-.907-1.287-.272-1.814.327-.272.49-.253.88.1.264.238.572.433.686.433.433 0-.169-1.48-.82-2.02-.573-.473-.829-.525-1.58-.317-.494.136-1.045.16-1.225.051-.219-.131-.208-.049.033.248.308.38.3.468-.053.604-.228.087-.52.094-.647.014-.129-.079-.234.04-.234.266 0 .225.437.685.97 1.022 1.43.903 3.153 2.96 3.973 4.746l.721 1.57.421-.776c.474-.876.605-.664.145.232-1.418 2.76-5.048 3.873-8.038 2.463zm4.58.137c.276-.176.24-.495-.187-1.618-.292-.77-.83-1.851-1.197-2.404-.788-1.191-3.063-2.872-3.063-2.264 0 .216-.245.47-.544.565l-.544.172.544.472c.698.605.686.8-.052.833-.57.025-.568.035.066.238l.662.212-.662.03c-.478.022-.561.094-.301.259.198.125.585.169.86.097.275-.072.5.002.5.165a.301.301 0 0 1-.305.295c-.168 0-.038.232.289.515.326.284.524.627.44.764-.085.137.113.328.439.426.56.168.564.19.083.38-.435.174-.36.265.53.633 1.164.482 1.93.554 2.441.23zm14.945-.376c-1.059-.56-2.597-2.143-1.929-1.985.175.041.464-.402.644-.984.506-1.641 1.315-3.058 2.536-4.443.615-.698 1.048-1.338.962-1.424-.085-.085-.038-.375.106-.644.215-.401.182-.458-.185-.317-.318.122-.387.074-.239-.165.163-.263.09-.273-.337-.044-.403.216-.595.212-.735-.014-.125-.203-.072-.234.158-.093.234.145.282.111.15-.104-.139-.223-.296-.236-.529-.043-.182.151-.41.198-.504.103-.324-.325-1.234.786-1.208 1.475l.027.686.183-.661c.317-1.149 2.145-.93 2.145.256 0 .25-.233.667-.518.925-.72.652-1.727.35-2.17-.652l-.352-.795-.486.596c-.473.579-.473.57-.001-.302 1.125-2.082 4.133-3.29 6.673-2.681 3.482.835 5.263 4.094 4.244 7.765-.514 1.85-3.17 4.123-4.842 4.142-.41.005-.44-.062-.166-.39.181-.22.5-.398.71-.398.208 0 .306-.119.216-.264-.09-.146-.037-.265.117-.265s.28-.172.28-.382c0-.21.247-.554.548-.766.347-.242.443-.45.263-.56-.319-.198.033-.646.871-1.114.445-.248.45-.29.053-.443-.259-.099-.373-.06-.278.093.089.144-.037.262-.28.262-.281 0-.386-.142-.289-.395.085-.22-.108-.648-.434-.965-.34-.33-.42-.513-.19-.433.528.183.617-1.028.09-1.23-.213-.081-.31-.03-.22.115.089.144.036.262-.119.262-.154 0-.28-.12-.28-.265 0-.609-.82-.189-1.68.86-.972 1.187-1.83 3.105-2.133 4.767-.16.877-.109 1.025.427 1.24.334.134.43.248.211.253-.218.005-.897-.255-1.51-.579zm6.537-4.689c0-.145-.053-.264-.117-.264s-.19.119-.28.264c-.09.146-.037.265.117.265s.28-.119.28-.265zm-9.268 1.838c-.16-.3-.252-.662-.204-.805.048-.144.224.1.39.544.348.92.244 1.066-.186.26zm-8.408-1.176c.005-.437.065-.583.132-.326.067.258.063.615-.01.794-.072.18-.127-.031-.122-.468zm7.948-1.455c0-.51.054-.718.12-.463.067.254.067.671 0 .926-.066.254-.12.046-.12-.463zm-15.456-15.026c-1.416-.517-2.915-1.789-3.546-3.01-.68-1.313-.795-3.704-.248-5.136.341-.894.386-1.293.169-1.51-.389-.389-.377-1.325.022-1.724.39-.389 1.332-.414 1.7-.045.187.186.642.105 1.443-.259.775-.352 1.66-.517 2.625-.49 1.321.036 1.351.05.325.142-.622.056-1.061.213-.977.35.151.245-.21.355-.873.268-.185-.024-.32.051-.3.167.1.598-.065.842-.467.687-.296-.113-.378-.067-.25.14.106.171.39.31.632.31.346 0 .313.09-.152.415-.326.229-.52.534-.43.678.09.145-.046.494-.301.776-.255.282-.364.513-.24.513.122 0-.038.242-.357.539-.693.646-.734.98-.135 1.095.411.079.41.12-.018.548-.255.255-.329.463-.164.463.164 0 .213.14.107.31-.132.214-.035.255.315.132.491-.173.491-.166-.007.22-.707.546-.32.497.855-.11 1.337-.69 2.799-2.266 3.578-3.859.823-1.68 1.116-3.208.653-3.394-.228-.091-.2-.143.085-.157.563-.028 2.438 1.256 3.134 2.147 2.12 2.71 1.678 6.582-1.003 8.791-.632.521-1.287.94-1.455.93-.168-.01-.035-.149.295-.308.68-.328.99-1.212.72-2.06l-.18-.57-.398.566c-.455.65-1.34.632-1.759-.036-.667-1.064 1.406-1.78 2.298-.795.24.266.438.82.438 1.232 0 .745.002.746.566.244 1.53-1.36 1.998-4.523.997-6.722l-.542-1.19-.911 1.96c-1.095 2.358-2.287 3.868-4.113 5.208l-1.36.999.833.745c.584.521 1.13.75 1.822.763.794.015.884.063.459.246-.856.368-2.554.276-3.885-.21zm-2.408-10.803c-.254-.253-1.008.438-.817.749.096.154.33.091.577-.156.229-.23.337-.496.24-.593zm20.977 10.343c-2.045-.92-3.614-3.105-3.842-5.35l-.127-1.257.345 1.455c.392 1.653.964 2.84 1.68 3.488.471.427.486.398.393-.776-.075-.946.01-1.298.38-1.569.703-.513 1.106-.43 1.604.33.424.646.418.704-.112 1.235-.469.468-.622.501-.974.21-.63-.523-.707-.216-.199.778.25.49.746.994 1.1 1.12.636.228.638.223.158-.308-.488-.539-.487-.54.363-.115.99.494 1.12.42 1.207-.68.035-.447.16-.9.277-1.006.117-.106.135-.057.04.11-.195.342.377.627 1.235.614.568-.008.569-.012.044-.397-3.192-2.348-4.438-3.813-5.4-6.35-.527-1.387-.763-1.277-1.438.67-.227.655-.418.981-.425.725-.024-.863 1.104-2.85 2.07-3.65 1.033-.854 3.07-1.58 4.381-1.56.447.005 1.28.177 1.85.38.744.266 1.183.293 1.546.099 1.185-.634 2.68.704 2.068 1.85-.165.307-.074.956.283 2.012.66 1.952.49 3.497-.594 5.393-1.13 1.981-2.482 2.757-5.002 2.874-1.404.065-2.256-.03-2.91-.325zm4.738-5.322c-.332-.409-.318-.438.128-.27.386.145.437.11.222-.149-.327-.396-.12-1.792.267-1.792.167 0 .158-.13-.023-.349-.213-.257-.186-.496.103-.908.276-.395.305-.614.098-.742-.164-.101-.23-.504-.15-.907.118-.585.022-.782-.491-1.016-1.054-.48-3.1-.598-4.098-.236-.842.305-.92.418-.85 1.254.156 1.905 2.125 4.812 3.813 5.63 1.006.486 1.56.195.981-.515zm2.935-5.402c0-.137-.253-.249-.561-.249-.468 0-.507.067-.235.394.33.399.796.314.796-.145zm-26.6-10.46c-2.53-.897-4.094-3.14-4.089-5.86.006-3.674 2.75-6.422 6.405-6.416 1.576.003 3.686.862 4.622 1.881.768.835 1.664 2.846 1.638 3.673-.015.489-.082.4-.256-.34-.28-1.189-.856-2.357-1.373-2.786-.305-.254-.433-.107-.708.813-.734 2.458-2.73 5.457-4.385 6.587-1.688 1.153-.969 1.742 2.181 1.785 2.037.028 2.457-.236 2.457-1.546 0-.483-.064-.509-.53-.218-.677.423-1.417.007-1.546-.868-.093-.629.532-1.31 1.2-1.31.64 0 1.405 1.038 1.413 1.918.008.821.027.836.405.336.218-.288.525-1.003.683-1.588.463-1.715.498-1.807.63-1.674.244.244-.638 2.656-1.34 3.67-1.433 2.067-4.67 2.916-7.407 1.944zm1.026-5.124c.625-.576 1.451-1.691 1.837-2.478.762-1.556 1.349-3.77 1.105-4.164-.172-.278-2.562-.29-3.537-.017-.59.165-.74.453-.88 1.694-.032.288-.198.414-.43.325-.31-.12-.317-.073-.043.258.184.221.22.403.08.403-.465 0-.861 1.221-.517 1.594.22.238.223.286.007.166-.167-.093-.374.014-.46.24-.086.224-.048.34.086.258.134-.083.33-.01.435.16.105.17.078.24-.06.154-.14-.086-.422-.051-.63.077-.314.194-.3.262.08.408.25.096.455.405.455.686 0 .6.517 1.26.998 1.274.185.006.848-.462 1.473-1.038zm17.669 4.704c-.985-.529-1.17-.758-1.23-1.53-.094-1.195.247-2.04.908-2.25.774-.246 1.613.296 1.613 1.041 0 .767-.795 1.095-1.603.662-.516-.276-.548-.249-.38.316.102.34.356.888.564 1.218.31.49.473.55.898.322.287-.153.52-.397.52-.54 0-.145.388-.075.86.154l.86.417-.6-.523c-.683-.594-.306-1.093.39-.518.385.317.397.292.112-.242-.202-.379-.218-.596-.045-.596.15 0-.534-.803-1.52-1.786-1.702-1.697-3.231-4.177-3.231-5.24 0-.386-.06-.397-.44-.084-.401.33-.411.308-.114-.25.326-.612 2.525-2.168 3.053-2.16.153.001.113.109-.09.237-.85.538.748 4.185 2.617 5.975l.814.78.748-.799c.703-.752.747-.936.743-3.115-.005-2.659-.276-3.05-2.165-3.125-.993-.04-1.006-.05-.194-.15 1.418-.175 3.373.628 4.374 1.798 1.04 1.215 1.501 2.57 1.501 4.412 0 3.433-2.386 5.874-5.95 6.088-1.575.094-2.03.017-3.013-.512zm6.272-10.083c.216-.26.146-.348-.299-.37-.32-.016-.432.03-.249.1s.265.236.183.37c-.225.363.04.29.365-.1zm-8.72 8.08c-.328-.42-.32-.428.1-.1.441.346.581.564.364.564-.055 0-.264-.209-.463-.463zm-.859-1.531c-.09-.236-.157-.569-.148-.739.009-.17.13-.024.27.325.14.348.206.68.148.739-.058.058-.18-.089-.27-.325zm-.368-2.239c0-.51.054-.717.12-.463.067.255.067.672 0 .926-.066.255-.12.047-.12-.463zm-20.73-4.529c-.748-.748-.575-2.756.299-3.464.74-.6 2.113-.638 2.113-.06 0 .235-.2.393-.463.366-.856-.087-1.104.012-1.393.552-.26.486-.226.522.363.374.973-.244 1.758.29 1.758 1.195 0 1.512-1.587 2.127-2.677 1.037zm1.75-.495c.215-.678-.03-1.061-.676-1.061-.362 0-.514.182-.514.617 0 1.062.889 1.393 1.19.444zm30.998.572c-.752-.831-.466-3.193.462-3.812.16-.107.688-.196 1.173-.198 1.074-.005 1.025.597-.052.644-.634.028-1.21.48-1.223.96-.002.083.334.102.747.042 1.43-.21 2.139 1.28 1.101 2.318-.66.66-1.633.68-2.208.046zm1.547-.994c0-.862-.563-1.046-1.015-.33-.202.32-.181.557.077.868.507.61.938.363.938-.538zm-8.666-.55c.182-.073.48-.073.662 0 .182.074.033.134-.33.134-.365 0-.513-.06-.332-.134z" transform="translate(176.18 -165.08)"/><path style="fill:#b12b20;stroke-width:.26458332" d="M-172.299 227.344c-.372-.372-.147-.617.565-.617.795 0 1.376-.417 1.376-.988 0-.275-.121-.289-.547-.06-.746.398-1.835-.307-1.835-1.188 0-1.471 1.995-2.04 2.807-.801.587.897.35 2.727-.438 3.365-.576.467-1.597.62-1.928.29zm1.81-2.471c.282-.457-.145-1.32-.653-1.32-.545 0-.863.595-.635 1.19.172.448 1.037.536 1.288.13zm30.999 2.471c-.35-.35-.164-.617.432-.617.647 0 1.243-.444 1.243-.926 0-.176-.362-.248-.921-.183-.807.094-.957.017-1.198-.618-.405-1.066.254-1.977 1.432-1.977 1.162 0 1.569.54 1.546 2.056-.015.998-.155 1.356-.718 1.84-.687.591-1.468.774-1.816.425zm1.543-2.998c0-.413-.17-.687-.464-.744-.523-.1-.864.533-.623 1.16.252.658 1.087.338 1.087-.416zm-29.898.436c-.582-.338-1.025-.762-.985-.942.04-.18-.045-.255-.187-.167-.363.225-1.17-1.086-.977-1.588.088-.227.055-.348-.073-.27-.127.08-.303-.123-.39-.449-.234-.872-.149-1.497.099-.724.155.483.21.234.203-.926-.007-1.354-.037-1.451-.203-.662-.193.914-.196.916-.224.132-.068-1.859 2.492-5.134 3.712-4.747.39.124.49.082.348-.147-.144-.234-.035-.27.397-.133.355.113.533.088.44-.062-.09-.146.425-.26 1.224-.27l1.379-.019-1.023.244c-1.27.303-2.814 1.021-2.814 1.309 0 .118.65.587 1.446 1.042 1.82 1.041 4.22 3.67 4.81 5.267.247.671.546 1.35.664 1.507.222.295-.732 1.286-1.826 1.899-.54.302-.596.277-.596-.265 0-.995-1.442-3.71-2.528-4.761-.94-.911-2.919-2.054-3.554-2.054-.147 0-.277.149-.288.33a6.513 6.513 0 0 1-.145.86c-.381 1.62.291 3.597 1.727 5.08 1.28 1.32 1.06 1.5-.636.516zm.43-9.872c.33-.4.308-.41-.231-.123-.616.328-.768.563-.363.563.127 0 .395-.198.595-.44zm19.414 9.819c-1.325-.677-1.467-1.04-1.015-2.588.756-2.591 2.644-5.174 4.776-6.532l1.116-.711-.719-.348c-.395-.191-1.254-.43-1.91-.532-1.14-.177-1.12-.186.53-.21 1.05-.017 1.977.12 2.381.351.8.458 1.153.499.91.106-.128-.207-.037-.213.315-.023.733.398 2.1 1.902 1.728 1.902-.229 0-.2.233.103.818.309.598.4 1.373.337 2.885-.047 1.137-.175 2.012-.284 1.944-.109-.067-.198-.065-.198.004 0 .07-.08.334-.177.588-.135.351-.087.408.198.236.32-.193.322-.16.015.218-.198.245-.461.383-.584.307-.123-.076-.41.223-.638.664-.229.442-.561.8-.74.799-.21-.003-.187-.09.066-.25.214-.136.31-.325.214-.422-.096-.096.057-.422.339-.725.282-.303.513-.76.513-1.015 0-.255.107-.53.238-.61.6-.371-.097-4.142-.866-4.686-.855-.607-3.834 1.996-4.835 4.224-.347.775-.72 1.994-.826 2.71l-.193 1.302-.794-.406zm-14.674-6.853c-.805-.97.367-1.926 1.312-1.07.465.42.496.404.603-.308l.112-.751.04.819c.064 1.332-1.32 2.21-2.067 1.31zm14.071-.557c-.323-.226-.586-.554-.584-.727.003-.203.089-.182.241.058.183.29.257.236.327-.238.122-.829.87-1.284 1.479-.9.674.424.705 1.051.082 1.674-.654.654-.785.665-1.545.133zm-.683-2.101c.083-.219.273-.397.42-.397.155 0 .13.168-.06.397-.181.218-.37.397-.421.397-.05 0-.023-.179.06-.397zm-12.638-.573c-.33-.399-.308-.41.232-.123.615.328.767.563.363.563-.128 0-.396-.198-.595-.44zm-4.52-10.506c-.686-.336-1.168-.48-1.072-.322.096.158-.25-.069-.77-.506-1.095-.92-1.998-2.249-1.529-2.249.191 0 .234-.175.114-.463-.271-.644-.578-4.299-.361-4.299.392 0 .435-.77.08-1.453-.459-.885-.478-1.514-.058-1.934.396-.395 1.334-.412 1.716-.03.207.206.524.165 1.13-.148 1.298-.672 1.42-.377.324.787-1.621 1.72-2.051 2.987-1.932 5.688.068 1.55.324 1.72 1.61 1.064.616-.315 1.628-1.04 2.249-1.612 1.293-1.191 2.788-4.01 2.788-5.257 0-.753.065-.825.595-.665 1.012.306 2.074 1.476 1.897 2.09-.84 2.907-3.09 5.875-5.586 7.368-.772.462-1.404.911-1.404.998 0 .262 1.119.778 2.518 1.162l1.318.361-1.19.016c-.735.009-1.668-.219-2.437-.596zm-2.401-10.649c-.254-.253-1.008.438-.817.749.096.154.33.091.577-.156.229-.23.337-.496.24-.593zm21.771 10.425c0-.114.317-.207.704-.207.586 0 3-1.15 3-1.43 0-.046-.844-.712-1.876-1.48-2.14-1.59-3.145-2.84-4.256-5.286l-.779-1.713.876-.727c.859-.713 1.445-.969 1.16-.507-.205.331.776 3.065 1.462 4.076.318.467.948 1.18 1.4 1.586.811.725 3.1 2.042 3.55 2.042.209 0 .69-1.305 1.015-2.755.214-.952.125-2.778-.16-3.313-.396-.738-.37-1.276.042-.864.441.44.741.396.741-.11 0-.314-.176-.395-.66-.302-.365.07-.87-.027-1.125-.214-.427-.313-.405-.363.265-.618 1.385-.53 2.673.66 2.027 1.869-.173.322-.169.658.012.996.15.28.194.717.097.97-.129.334-.083.4.17.245.27-.167.31-.015.184.684-.335 1.858-.445 3.316-.198 2.618.147-.418.243-.499.26-.22.042.696-.267 1.292-.571 1.104-.164-.102-.2-.045-.086.138.534.865-2.457 3.69-3.543 3.346-.27-.086-.562-.042-.648.098-.186.3-3.063.275-3.063-.026zm5.027-.758.662-.539-.926.447c-1.133.546-1.253.645-.772.637.206-.003.672-.248 1.036-.545zm-6.513.349c-.162-.107-.385-.492-.496-.856-.226-.745-.167-.704.48.33.484.773.485.835.016.526zm-14.058-1.296c-.461-.186-.414-1.014.082-1.425.497-.413 1.723-.067 1.924.542.112.34.068.345-.31.034-.384-.318-.44-.297-.44.17 0 .41-.59.97-.881.833-.024-.011-.193-.08-.375-.154zm13.193-.899c-.043-.966.532-1.64 1.308-1.53.782.11 1.003 1.03.373 1.553-.334.278-.542.29-.921.052-.4-.25-.512-.223-.61.148-.076.29-.13.21-.15-.223zm10.33-3.424c0-.363.06-.512.134-.33.073.182.073.48 0 .661-.074.182-.134.033-.134-.33zm-6.85-6.268c.258-.067.615-.063.794.01.18.072-.031.127-.468.122-.436-.005-.583-.065-.325-.132zm-20.44-8.931c-.362-.2-.75-.308-.86-.24-.111.069-.202.012-.202-.127 0-.138-.293-.325-.652-.415-1.066-.267-2.082-1.78-2.166-3.224-.04-.691-.175-1.326-.3-1.41-.305-.208-.256-1.865.05-1.676.133.082.174-.108.092-.421-.082-.314-.045-.57.082-.57s.172-.156.1-.346c-.177-.458.905-2.015 1.736-2.5.455-.265.373-.125-.265.45-.51.459-.728.76-.487.67.398-.15.406-.07.08.874-.209.608-.302 1.577-.224 2.334.074.713.136 1.477.139 1.7.003.222.204.664.447.982.43.563.466.566 1.368.128 2.23-1.084 4.36-4.247 4.681-6.952.172-1.452.15-1.429.959-1.011 1.287.665 1.458.975 1.197 2.162-.664 3.01-2.908 6.207-5.325 7.588l-1.328.758.9.563c.76.475 1.226.55 2.977.48 1.825-.072 1.985-.043 1.323.24-1.016.434-3.51.412-4.322-.037zm19.84-.058c1.465-.23 1.845-.381 2.628-1.04l.816-.686-1.524-1c-2.736-1.796-3.784-3.163-5.278-6.883-.232-.579-.154-.744.658-1.389.506-.403 1.008-.732 1.115-.732.107 0 .271.58.365 1.289.242 1.824 1.81 4.15 3.62 5.37 1.452.979 2.682 1.501 2.59 1.1-.07-.303.332-1.75.575-2.07.11-.146.18-1.01.156-1.919-.025-.91.054-1.653.176-1.653.12 0 .13-.15.021-.331-.128-.214-.036-.199.261.042.253.206.402.525.33.71-.07.186.012.385.184.443.19.063.28.5.227 1.105-.047.55.013.939.135.864.122-.075.221.15.221.5s-.089.635-.198.635c-.11 0-.199.246-.199.547 0 .3-.123.777-.274 1.058-.188.353-.188.512 0 .512.48 0 .299.483-.534 1.432-.445.507-.969.86-1.164.785a.478.478 0 0 0-.555.187c-.137.22-.09.256.146.11.224-.139.282-.11.165.08-.1.161-.376.219-.614.128-.276-.106-.367-.061-.251.125.099.16.04.378-.13.483-.194.12-.24.077-.121-.114.248-.401.068-.386-1.074.091-.522.219-1.441.381-2.042.361-.657-.022-.829-.077-.43-.14zm-1.587-.353c-.239-.154-.271-.258-.082-.26a.616.616 0 0 1 .479.26c.203.329.11.329-.397 0zm-12.535-.625c.502-.69.893-.892.893-.464 0 .13-.313.44-.695.69l-.695.455zm11.637-.587c-.285-.743-.171-1.89.22-2.214.21-.174.716-.278 1.125-.231.594.068.743.218.743.747 0 .85-1.106 1.086-1.67.356-.338-.44-.362-.376-.238.636.145 1.181.088 1.405-.18.706zm-12.974-1.056c-.229-.228-.416-.562-.416-.74 0-.899 1.506-1.3 2.117-.564.227.274.237.397.032.397-.163 0-.297.225-.297.5 0 .276-.188.574-.418.662-.56.215-.544.22-1.018-.255zm-8.718-1.314a2.544 2.544 0 0 1-.142-.871c.013-.243.128-.09.256.339.25.835.161 1.248-.114.532zm-1.752-6.737c-.897-.897-.46-3.37.673-3.804.81-.311 1.708-.18 1.708.25 0 .234-.2.392-.463.365-.853-.086-1.104.011-1.386.538-.255.477-.212.51.477.373.905-.181 1.637.423 1.637 1.352 0 1.36-1.639 1.933-2.646.926zm1.72-.797c0-.48-.16-.68-.596-.742-.475-.068-.595.043-.595.55 0 .763.23 1.035.781.929.239-.046.41-.353.41-.737zm30.997.843c-.752-.831-.466-3.193.462-3.812.16-.107.688-.196 1.173-.198 1.074-.005 1.025.597-.052.644-.661.029-1.213.484-1.223 1.01-.002.112.298.128.668.035.782-.196 1.71.487 1.71 1.258 0 .683-.939 1.546-1.68 1.546-.34 0-.817-.217-1.058-.483zm1.635-.807c.049-.342-.041-.753-.2-.912-.45-.45-1.178.415-.951 1.13.238.75 1.035.6 1.151-.218zm-4.19-.032c-.238-.155-.27-.259-.081-.26a.616.616 0 0 1 .478.26c.203.328.112.328-.397 0zm-23.597-.71c.191-.077.42-.067.507.02.088.088-.068.151-.347.14-.308-.013-.371-.076-.16-.16z" transform="translate(176.18 -165.08)"/><path style="fill:#2e281a;stroke-width:.26458332" d="M-172.299 227.344c-.372-.372-.147-.617.565-.617.795 0 1.376-.417 1.376-.988 0-.275-.121-.289-.547-.06-.746.398-1.835-.307-1.835-1.188 0-1.471 1.995-2.04 2.807-.801.587.897.35 2.727-.438 3.365-.576.467-1.597.62-1.928.29zm1.81-2.471c.282-.457-.145-1.32-.653-1.32-.545 0-.863.595-.635 1.19.172.448 1.037.536 1.288.13zm30.999 2.471c-.35-.35-.164-.617.432-.617.647 0 1.243-.444 1.243-.926 0-.176-.362-.248-.921-.183-.807.094-.957.017-1.198-.618-.405-1.066.254-1.977 1.432-1.977 1.162 0 1.569.54 1.546 2.056-.015.998-.155 1.356-.718 1.84-.687.591-1.468.774-1.816.425zm1.543-2.998c0-.413-.17-.687-.464-.744-.523-.1-.864.533-.623 1.16.252.658 1.087.338 1.087-.416zm-29.898.436c-.582-.338-1.025-.762-.985-.942.04-.18-.045-.255-.187-.167-.363.225-1.17-1.086-.977-1.588.088-.227.055-.348-.073-.27-.127.08-.303-.123-.39-.449-.234-.872-.149-1.497.099-.724.155.483.21.234.203-.926-.007-1.354-.037-1.451-.203-.662-.193.914-.196.916-.224.132-.068-1.859 2.492-5.134 3.712-4.747.39.124.49.082.348-.147-.144-.234-.035-.27.397-.133.355.113.533.088.44-.062-.09-.146.425-.26 1.224-.27l1.379-.019-1.023.244c-1.676.4-2.86 1.058-2.693 1.497.106.274.025.341-.272.227-.231-.089-.549-.161-.705-.161-.156 0-.057-.256.22-.568.499-.562.498-.565-.047-.28-.303.16-.694.462-.869.673-.265.32-.112.453.919.805 3.405 1.16 5.598 3.452 6.865 7.175.112.33.226.405.303.198.068-.182.255-.33.416-.33.16 0-.05.357-.468.793-1.002 1.046-1.358 1.001-1.58-.198-.267-1.437-1.405-3.391-2.606-4.477-1.517-1.37-5.207-2.919-5.207-2.184 0 .162.246.359.548.437.48.126.526.275.37 1.232-.098.6-.167 1.369-.152 1.71.04.944.938 2.718 1.854 3.664 1.28 1.322 1.06 1.5-.636.517zm19.183-.436c-.364-.285-.526-.52-.36-.523.165-.003.374-.393.465-.866.24-1.262 1.335-3.486 2.315-4.705.949-1.181 3.04-2.654 4.447-3.131.835-.284.972-.254 1.57.344.61.61.616.644.1.51-.926-.243-3.688 1.179-4.845 2.494-1.268 1.44-2.321 3.598-2.542 5.207-.09.66-.237 1.196-.327 1.193-.089-.003-.46-.239-.823-.523zm6.871.01c.214-.135.31-.325.214-.42-.096-.097.056-.424.339-.727.282-.303.513-.76.513-1.014 0-.255.107-.53.238-.61.61-.378-.101-4.148-.886-4.7-.32-.223-.192-.356.568-.59.955-.293 1.46 1.03 1.356 3.552-.047 1.136-.175 2.012-.284 1.944-.109-.067-.198-.065-.198.004 0 .07-.08.334-.177.588-.135.351-.087.408.198.236.32-.193.322-.16.015.218-.198.245-.461.383-.584.307-.123-.076-.41.223-.638.664-.229.442-.561.8-.74.799-.21-.003-.187-.09.066-.25zm-21.539-2.05c-.143-.376-.113-.407.148-.147.181.179.262.393.18.474-.08.081-.228-.065-.328-.326zm18.107-3.087c0-.055.208-.264.463-.463.42-.33.43-.32.1.1-.346.44-.563.58-.563.363zm-17.452-1.343c-.805-.97.367-1.926 1.312-1.071.465.42.496.405.603-.307l.112-.751.04.819c.064 1.332-1.32 2.21-2.067 1.31zm15.6.284c0-.054.208-.263.463-.463.42-.329.429-.32.1.1-.346.441-.563.581-.563.363zm2.91 0c0-.054.209-.263.463-.463.42-.329.43-.32.1.1-.345.441-.563.581-.563.363zm-4.439-.84c-.323-.227-.586-.555-.584-.728.003-.203.089-.182.241.058.183.29.257.236.327-.238.122-.829.87-1.284 1.479-.9.674.424.705 1.051.082 1.674-.654.654-.785.665-1.545.133zm-.683-2.102c.083-.219.273-.397.42-.397.156 0 .13.168-.06.397-.181.218-.37.397-.421.397-.05 0-.023-.18.06-.397zm-12.638-.573c-.33-.399-.308-.41.232-.123.615.328.767.563.363.563-.128 0-.396-.198-.595-.44zm18.147-.04c-.431-.23-1.32-.5-1.974-.596-1.167-.172-1.159-.177.45-.211 1.546-.034 2.99.34 2.99.772 0 .418-.721.436-1.466.036zM-166.3 204.24c-.606-.269-1.154-.436-1.22-.371-.064.065-.279-.094-.477-.352-.198-.258-.259-.385-.136-.281.123.103.56.014.97-.199.847-.438 1.375-.515.773-.113-.341.229-.324.311.128.592.288.179 1.181.524 1.984.767l1.46.442-1.19.002c-.655.001-1.686-.218-2.292-.487zm19.225-.324c0-.114.317-.207.704-.207.388 0 1.228-.307 1.868-.681.974-.571 1.11-.746.837-1.075-.247-.298.023-.26 1.11.152 1.675.637 1.566.618 1.566.281 0-.145-.148-.264-.33-.264-.61 0-3.634-1.56-4.72-2.433-.592-.475-1.441-1.428-1.888-2.117-.447-.69-.932-1.18-1.079-1.09-.15.093-.185.034-.081-.135.16-.257-.273-2.32-.563-2.684-.054-.069-.21.05-.345.264-.135.214-.248.255-.25.09-.005-.377 1.827-1.794 2.042-1.58.087.088.02.16-.15.16-.853 0 .305 3.354 1.735 5.024 1.271 1.485 3.694 3.042 5.355 3.44l1.313.315-.435.665c-.605.924-2.374 1.994-2.978 1.803-.27-.086-.562-.042-.648.097-.185.3-3.063.276-3.063-.025zm5.027-.758.662-.539-.926.447c-1.133.546-1.253.645-.772.637.206-.003.672-.248 1.036-.545zm-6.513.349c-.162-.107-.385-.492-.496-.856-.226-.745-.167-.704.48.33.484.773.485.835.016.526zm-20.576-.995c-.557-.558-1.196-1.746-.672-1.25.512.483 1.267.404 2.758-.291 2.642-1.233 4.986-4.327 5.354-7.07.167-1.247.513-1.303 1.527-.244.61.636.696.861.43 1.124-.264.263-.295.236-.155-.134.097-.254.07-.463-.061-.463s-.385.55-.565 1.223c-.48 1.793-1.487 3.35-3.146 4.867-2.335 2.134-4.633 3.074-5.47 2.238zm6.518-.3c-.461-.187-.413-1.015.082-1.426.497-.413 1.723-.067 1.924.542.112.34.068.345-.31.034-.384-.318-.44-.297-.44.17 0 .41-.59.97-.881.833-.024-.011-.193-.08-.375-.154zm13.193-.9c-.043-.966.532-1.64 1.308-1.53.782.11 1.003 1.03.373 1.553-.334.277-.542.29-.921.052-.4-.25-.512-.223-.61.148-.076.29-.13.21-.15-.223zm-20.271-.699c-.275-.655-.585-4.312-.366-4.312.392 0 .435-.77.08-1.453-.459-.885-.478-1.514-.058-1.934.396-.395 1.334-.412 1.716-.03.207.206.524.165 1.13-.149 1.298-.671 1.42-.376.324.788-1.763 1.871-2.243 3.67-1.834 6.869.086.673-.727.854-.992.221zm.886-7.512c-.42-.259-1.283.195-1.283.674 0 .611.633.653 1.136.075.36-.415.396-.595.147-.75zm27.845 7.624c-.642-.132-1.047-.317-.899-.413.265-.172.757-1.47 1.03-2.716.413-1.886-.046-3.967-1.054-4.783l-.55-.446.726-.276c1.382-.525 2.67.665 2.023 1.871-.172.323-.168.659.013.997.15.28.194.717.097.97-.129.334-.083.4.17.245.27-.167.31-.016.184.684-.335 1.858-.445 3.316-.198 2.618.195-.55.237-.573.25-.132.01.29-.127.774-.304 1.074-.285.485-.45.519-1.488.307zm.727-8.16c-.194-.124-.592-.215-.883-.202-.436.018-.412.06.132.234.555.177.577.217.133.247-.493.032-.484.073.132.587l.661.553.09-.598c.049-.328-.07-.698-.265-.821zm1.143 5.323c0-.363.06-.512.134-.33.073.182.073.48 0 .661-.074.182-.134.033-.134-.33zm-6.85-6.268c.258-.067.615-.063.794.01.18.072-.031.127-.468.122-.436-.005-.583-.065-.325-.132zm-20.44-8.931c-.362-.2-.75-.308-.86-.24-.111.069-.202.007-.202-.136 0-.143-.208-.31-.463-.372-.432-.103-.43-.124.022-.32.323-.14.836-.012 1.54.384.898.504 1.358.578 3.057.492 1.769-.089 1.912-.063 1.237.225-1.024.437-3.516.418-4.331-.033zm20.237-.128c.582-.099 1.298-.311 1.59-.471.677-.371 1.617-1.4 1.28-1.4-.14 0-.486-.173-.769-.386-.282-.212.174-.11 1.014.227.84.337 1.61.696 1.712.797.101.101-.008.11-.244.02s-.518-.019-.628.16c-.137.22-.09.254.146.109.224-.14.282-.11.165.08-.1.161-.376.219-.614.128-.276-.106-.367-.061-.251.125.099.16.04.378-.13.483-.194.12-.24.077-.121-.114.248-.401.067-.386-1.074.091-.523.219-1.441.382-2.042.364l-1.092-.033zm-1.984-.283c-.239-.154-.271-.258-.082-.26a.616.616 0 0 1 .479.26c.203.328.11.328-.397 0zm-12.535-.625c.502-.69.893-.892.893-.464 0 .129-.313.44-.695.69l-.695.455zm-8.586-.517c-.7-.745-.723-.975-.098-.975.856 0 3.174-1.33 4.29-2.464.6-.609 1.434-1.777 1.853-2.594.87-1.702 1.334-4.202.778-4.202-.188 0-.274-.068-.19-.152.083-.083.512.035.953.263.73.378.788.504.652 1.409-.356 2.359-2.155 5.458-4 6.891-.537.417-1.596 1.063-2.354 1.434-.757.37-1.303.748-1.212.839.09.09.105.164.034.164-.072 0-.39-.276-.706-.613zm20.223-.07c-.285-.743-.171-1.89.22-2.214.21-.174.716-.278 1.125-.231.594.068.743.218.743.747 0 .85-1.106 1.086-1.67.355-.338-.439-.362-.375-.238.637.145 1.181.088 1.405-.18.706zm6.758-.65c-3.287-1.158-5.791-3.654-6.868-6.843-.505-1.494-.508-1.596-.072-1.991.648-.586.815-.523.815.311 0 1.145 1.403 3.792 2.676 5.05 1.247 1.233 2.52 1.98 4.549 2.67 1.212.412 1.253.456.797.868-.447.404-.582.4-1.897-.065zm-19.732-.406c-.229-.229-.416-.562-.416-.74 0-.899 1.506-1.3 2.117-.564.227.274.237.397.032.397-.163 0-.297.225-.297.5 0 .276-.188.574-.418.662-.56.215-.544.22-1.018-.255zm-8.112.092c-.013-.04-.068-.659-.123-1.374-.054-.716-.2-1.37-.325-1.455-.306-.208-.257-1.865.05-1.676.132.082.173-.108.09-.421-.081-.314-.044-.57.083-.57s.172-.156.1-.346c-.177-.458.905-2.015 1.736-2.5.455-.265.373-.125-.265.45-.51.459-.728.76-.487.67.398-.15.406-.07.08.874-.307.893-.32 2.205-.04 4.026.033.218.209.66.39.983.3.53.255.626-.467 1-.44.226-.81.38-.822.339zm29.547-.746c-.424-.127-.854-.364-.954-.526-.168-.272.175-1.61.574-2.24.092-.146.148-1.01.124-1.919-.024-.91.055-1.653.177-1.653.12 0 .13-.15.021-.331-.128-.214-.036-.199.261.042.253.205.402.525.33.71-.07.186.012.385.184.443.19.063.28.5.227 1.105-.047.55.013.939.135.864.122-.075.221.15.221.5 0 .349-.089.635-.198.635-.11 0-.2.268-.203.596-.002.327-.114.77-.25.983-.155.246-.141.512.037.728.155.186.238.329.184.316a38.92 38.92 0 0 1-.87-.253zm-30.153-.66a2.544 2.544 0 0 1-.142-.871c.013-.243.128-.09.256.339.25.835.161 1.248-.114.532zm-1.752-6.737c-.897-.897-.46-3.37.673-3.804.81-.311 1.708-.18 1.708.249 0 .235-.2.393-.463.366-.853-.086-1.104.011-1.386.538-.255.477-.212.51.477.373.905-.181 1.637.423 1.637 1.352 0 1.36-1.639 1.933-2.646.926zm1.72-.797c0-.48-.16-.68-.595-.743-.476-.067-.596.044-.596.552 0 .762.23 1.034.781.928.239-.046.41-.354.41-.737zm30.997.843c-.752-.831-.466-3.193.462-3.812.16-.107.688-.196 1.173-.198 1.074-.005 1.025.597-.052.644-.661.029-1.213.484-1.223 1.01-.002.112.298.128.668.035.782-.196 1.71.487 1.71 1.258 0 .683-.939 1.546-1.68 1.546-.34 0-.817-.217-1.058-.483zm1.635-.807c.049-.342-.041-.753-.2-.912-.45-.45-1.178.414-.951 1.13.238.75 1.035.6 1.151-.218zm-4.19-.032c-.238-.155-.27-.259-.081-.261a.616.616 0 0 1 .478.26c.203.329.112.329-.397 0zm-23.597-.71c.191-.077.42-.067.507.02.088.088-.068.151-.347.14-.308-.013-.371-.076-.16-.16z" transform="translate(176.18 -165.08)"/></svg>