<svg xmlns="http://www.w3.org/2000/svg" viewBox="0 0 42.598 65.352" height="247" width="161"><path d="M98.343 88.908c-.403-.445-.438-3.053-.438-32.106 0-30.299.02-31.64.484-32.06.44-.4 2.252-.438 20.596-.438 19.149 0 20.134.023 20.55.484.403.445.438 3.053.438 32.106 0 30.299-.02 31.64-.483 32.06-.442.4-2.253.438-20.597.438-19.149 0-20.133-.023-20.55-.484z" style="fill:#fff;fill-opacity:1;stroke-width:.26458332" transform="translate(95.147 5.29)"/><path style="fill:#fff;fill-opacity:1;stroke-width:.26576927" d="M-87.756 171.831c-.406-.444-.442-3.052-.442-32.106 0-30.299.02-31.64.488-32.06.445-.4 2.273-.438 20.781-.438 19.321 0 20.315.024 20.736.484.406.445.441 3.053.441 32.106 0 30.299-.02 31.64-.488 32.06-.445.4-2.273.438-20.781.438-19.321 0-20.315-.023-20.735-.484z" transform="translate(88.198 -106.963)"/><path style="fill:#b3b3b1;stroke-width:.26458332" d="M179.09 179.013c-.402-.445-.437-3.062-.437-32.239 0-30.427.02-31.772.484-32.192.441-.4 2.27-.438 20.86-.438 19.406 0 20.399.023 20.816.484.402.445.438 3.062.438 32.238 0 30.427-.02 31.773-.484 32.193-.441.4-2.271.437-20.861.437-19.405 0-20.398-.023-20.815-.483zm41.412-.219c.464-.42.484-1.757.484-31.928 0-28.93-.035-31.529-.438-31.973-.417-.46-1.401-.484-20.55-.484-18.344 0-20.155.038-20.597.438-.463.42-.484 1.757-.484 31.927 0 28.93.036 31.53.438 31.974.417.46 1.402.484 20.55.484 18.345 0 20.156-.039 20.597-.438zm-39.03-1.633c-.402-.445-.438-2.934-.438-30.387 0-28.632.02-29.92.484-30.34.44-.398 2.106-.438 18.48-.438 17.098 0 18.018.025 18.434.484.402.445.438 2.942.438 30.507 0 22.998-.075 30.097-.318 30.34-.24.24-4.706.317-18.48.317-17.26 0-18.184-.024-18.6-.483zm36.815-.099c.461-.46.461-60.023 0-60.483-.459-.46-36.212-.46-36.67 0-.462.46-.462 60.022 0 60.483.458.46 36.211.46 36.67 0zm-35.614-.939c.05-.255.327-.475.615-.49.98-.05 1.129-.105 1.266-.46.098-.256-.046-.322-.51-.233-1.384.265-2.271-1.712-1.203-2.679.667-.603 1.787-.548 2.457.122.768.768.593 3.008-.29 3.723-.801.649-2.46.66-2.335.017zm1.76-2.86c-.123-.634-.648-.772-.857-.226-.21.545.347 1.295.7.943.136-.137.206-.46.156-.717zm30.795 2.595c.056-.254.255-.429.444-.387.52.114 1.28-.187 1.426-.565.09-.236-.087-.305-.594-.23-1.47.215-2.243-1.845-1.015-2.705.837-.586 1.452-.512 2.234.27.592.591.663.842.543 1.907-.165 1.467-.888 2.173-2.223 2.173-.735 0-.896-.091-.815-.463zm1.742-2.666c.063-.432-.052-.575-.463-.575-.355 0-.548.171-.548.485 0 1.006.865 1.083 1.01.09zm-17.252-2.814c-.235-.359-.428-.811-.428-1.006 0-.247-.276-.32-.926-.244-.958.111-1.195-.191-.562-.717.2-.166.515-.84.7-1.499.184-.658.526-1.34.76-1.516.572-.43.648-1.395.224-2.833-.195-.664-.272-1.541-.172-1.984a8.94 8.94 0 0 0 .192-1.455c.023-1.1-.674 1.427-.878 3.185-.112.966-.309 1.577-.507 1.577-.177 0-.72.356-1.208.79-1.034.924-2.169 1.194-3.996.952-1.007-.134-1.412-.08-1.724.232-.519.519-1.53.524-1.957.01-.18-.218-.612-.396-.958-.396s-.63-.157-.63-.35c0-.192-.386-.519-.86-.727-.783-.345-.86-.484-.871-1.574-.007-.657-.098-1.333-.203-1.503-.105-.17-.07-.383.078-.474.148-.091.27-.498.27-.903 0-.742.532-1.393 1.388-1.697.255-.09.463-.287.463-.437 0-.15.283-.273.63-.273.345 0 .777-.178.958-.397.181-.218.544-.397.807-.397s.657.179.875.397c.218.219.643.397.945.397.31 0 .548.172.548.397 0 .218.165.397.367.397.203 0 .615.208.918.463.536.451.618 1.022.577 4.014-.01.811-.695 1.873-1.207 1.873a.395.395 0 0 0-.39.397c0 .605 2.054.513 3.126-.14 1.295-.79 2.782-4.492 3.204-7.977.17-1.398.14-1.521-.428-1.78-.741-.338-.754-.701-.108-3.073.735-2.694.938-4.56.549-5.03-.24-.289-.928-.389-2.677-.389-2.35 0-2.353.001-2.195.633.087.348.03.712-.127.81-.158.096-.286.508-.286.913 0 .737-.694 1.613-1.278 1.613-.17 0-.31.119-.31.265 0 .145-.178.264-.397.264-.218 0-.635.238-.926.53-.625.625-1.653.69-2.116.132-.181-.219-.557-.397-.835-.397-.278 0-.573-.179-.657-.397-.084-.218-.36-.397-.612-.397-1.007 0-1.297-.79-1.232-3.353.065-2.512.345-3.262 1.219-3.262.255 0 .612-.177.791-.394.18-.216.424-.334.542-.261.117.073.648-.124 1.178-.437.96-.566.967-.566 1.674-.05.39.284.918.594 1.173.689.254.095.463.326.463.515 0 .188.267.46.594.603.327.144.75.589.94.99.33.69.435.725 2.118.7.975-.014 2.07-.111 2.433-.216.769-.22.77-.267.087-4.577-.428-2.703-.427-2.86.021-3.355.445-.492.447-.673.05-3.364-.237-1.609-.66-3.313-.973-3.921-1.205-2.341-3.163-3.61-4.681-3.034l-.689.262.844.513c.711.433.843.671.843 1.522 0 .555.13 1.139.288 1.297.207.207.207.338 0 .466-.158.097-.288.625-.288 1.171 0 .809-.177 1.152-.951 1.837-.524.463-1.053.78-1.178.703-.124-.077-.355.101-.513.397-.213.398-.553.536-1.32.536-.569 0-1.107-.119-1.197-.265-.09-.145-.454-.264-.81-.264-.397 0-.645-.153-.645-.397 0-.218-.22-.397-.488-.397-.976 0-1.4-.881-1.422-2.952-.025-2.386.147-2.969.989-3.352.36-.164.656-.48.656-.702 0-.238.243-.406.595-.41.328-.006.827-.184 1.11-.397.673-.51 1.446-.493 2.039.044.416.377.632.39 1.664.1 1.432-.4 2.066-.264 3.602.777.647.439 1.385.8 1.64.802.372.004.466.25.481 1.262.01.69.128 1.494.26 1.785l.242.53-.042-.53c-.023-.29.097-1.005.267-1.587.495-1.69.39-2.83-.325-3.506-.345-.328-.71-.923-.81-1.323-.1-.4-.362-.928-.583-1.174-.526-.584-.193-1.09.616-.936.444.085.762-.049 1.037-.438l.398-.56.453.588c.304.395.57.514.813.363.572-.358 1.42-.029 1.214.472-.096.236-.348.923-.56 1.526-.211.604-.615 1.307-.898 1.563-.671.607-.669 2.084.005 3.342.449.837.485 1.177.267 2.51-.14.848-.239 1.958-.22 2.468.052 1.539.57-2.27.6-4.418l.025-1.904.926-.408c.51-.224 1.442-.795 2.072-1.27 1.032-.776 1.324-.861 2.954-.863.995 0 1.899-.09 2.008-.2.344-.343 1.619-.214 1.962.2.181.218.553.396.826.396.274 0 .497.179.497.397 0 .242.247.397.631.397 1.064 0 1.494 1.003 1.354 3.164-.135 2.096-.412 2.806-1.19 3.053a.775.775 0 0 0-.53.71c0 .402-.13.509-.499.413-.29-.076-.676.077-.923.366-.512.597-1.303.642-1.753.1-.181-.22-.613-.398-.959-.398-.382 0-.629-.155-.629-.397 0-.243-.247-.397-.642-.397-.868 0-1.822-1.222-1.61-2.064.087-.348.028-.789-.13-.98-.2-.24-.204-.4-.012-.52.153-.094.278-.681.278-1.305 0-1.157.355-1.683 1.455-2.157.436-.188.349-.245-.497-.323-3.018-.279-5.099 2.707-5.677 8.143-.219 2.055-.195 2.298.28 2.821.502.555.505.647.097 3.023-.548 3.192-.549 4.634-.003 4.844.538.206 3.501.202 4.278-.006.488-.131.595-.346.595-1.186 0-.97.069-1.057 1.257-1.58a37.646 37.646 0 0 0 1.96-.927c.938-.5 1.376-.471 1.917.126.269.298.661.446.967.366.385-.1.514.001.514.408 0 .394.198.566.721.627.881.102 1.454 1.087 1.128 1.942-.139.366-.115.696.064.875.205.205.206.385.002.63-.157.188-.324.756-.372 1.262-.063.657-.27 1.009-.728 1.236-.352.174-.747.507-.876.739-.13.232-.354.35-.496.261-.143-.088-.549.028-.901.26-.843.552-1.362.529-2.156-.095-.36-.283-.814-.453-1.01-.378-.195.075-.428-.08-.515-.346-.088-.265-.546-.66-1.017-.879-.78-.361-.856-.503-.856-1.587v-1.19l-1.846-.08c-1.016-.044-2.135-.007-2.486.08-.625.157-.635.204-.48 2.232.089 1.14.36 2.865.603 3.834.436 1.736.435 1.77-.121 2.362-1.028 1.094-.628 5.42.697 7.55 1.014 1.632 3.016 2.736 4.74 2.615l1.274-.09-1.003-.463c-1.118-.515-1.559-1.329-1.215-2.241.168-.446.124-.645-.166-.756-.521-.2-.505-.624.024-.624.326 0 .38-.173.245-.786-.138-.63-.042-.907.483-1.39 1.165-1.07 1.469-1.264 1.986-1.264.279 0 .656-.178.837-.397.181-.218.598-.396.926-.396.328 0 .745.178.926.396.181.219.54.397.798.397.257 0 .537.179.62.397.084.218.376.397.65.397.742 0 1.428.905 1.337 1.765-.043.412.014.898.126 1.08a.684.684 0 0 1 .005.653c-.11.178-.173.673-.14 1.1.045.596-.165.98-.908 1.66-.532.487-1.175.886-1.43.886-.255 0-.612.178-.793.397-.401.483-.907.503-1.671.066-.318-.182-1.411-.336-2.43-.343-1.57-.01-2.089-.14-3.41-.86-.858-.466-1.694-.848-1.859-.848-.164 0-.564-1.042-.888-2.315-.364-1.434-.535-1.857-.448-1.11.091.79-.006 1.552-.285 2.22-.484 1.157-.328 2.201.404 2.714.269.189.698.908.953 1.6.256.691.574 1.4.706 1.576.368.486-.052.933-.72.765-.476-.12-.69.032-1.089.773-.59 1.096-.712 1.122-1.271.269zm1.082-12.908c-.063-.327-.115-.06-.115.595s.052.923.115.596a3.768 3.768 0 0 0 0-1.191zm-1.062-.127c-.067-.258-.126-.111-.131.325-.005.437.049.648.122.468.072-.179.076-.536.01-.793zm.004-21.037c-.063-.329-.117-.122-.12.46-.003.582.049.852.115.599s.069-.73.005-1.059zm.782.526c-.073-.181-.133-.033-.133.331s.06.513.133.33c.074-.181.074-.479 0-.66zm-1.09-2.724c-.1-.674-.234-1.176-.296-1.113-.063.062-.037.671.056 1.354.094.683.228 1.184.298 1.114.07-.07.044-.68-.057-1.355zm-16.96-12.666c-.394-.288-.514-.695-.514-1.743 0-1.177.106-1.458.76-2.02.86-.74 2.094-.766 2.23-.047.063.33-.136.467-.77.53-1.024.1-1.347.679-.38.679.924 0 1.468.52 1.468 1.402 0 1.399-1.589 2.08-2.794 1.199zm1.603-1.08c0-.287-.208-.562-.463-.611-.347-.067-.463.087-.463.611 0 .525.116.678.463.611.255-.049.463-.324.463-.61zm31.437 1.186c-.826-.329-1.223-1.234-1.063-2.425.213-1.588 1.27-2.484 2.538-2.152.855.223.67.833-.282.927-1.088.107-1.34.744-.293.744.987 0 1.397.433 1.397 1.476 0 1.218-1.105 1.906-2.297 1.43zm1.107-1.45c0-.288-.209-.563-.463-.612-.347-.066-.463.087-.463.612 0 .524.116.677.463.61.254-.048.463-.323.463-.61z" transform="translate(-178.653 -114.144)"/><path style="fill:#f3d807;stroke-width:.26458332" d="M183.063 176.41c-.351-.351-.164-.618.432-.618.646 0 1.243-.444 1.243-.926 0-.176-.362-.248-.919-.183-.78.091-.965.006-1.228-.572-.25-.55-.23-.799.108-1.315 1.195-1.824 3.373-.46 2.94 1.843-.242 1.296-1.907 2.44-2.576 1.77zm1.543-2.999c0-.413-.17-.687-.464-.743-.524-.101-.864.532-.623 1.16.252.657 1.087.337 1.087-.417zm30.743 2.741c-.29-.29.086-.624.705-.624.66 0 1.228-.454 1.228-.981 0-.275-.105-.281-.503-.032-.405.252-.638.226-1.19-.137-1.316-.861-.58-2.554 1.11-2.554 1.017 0 1.377.577 1.377 2.212 0 .97-.129 1.29-.697 1.737-.678.533-1.687.722-2.03.38zm1.8-3.006c0-.999-1.028-.92-1.143.088-.075.65-.006.737.529.661.456-.065.615-.258.615-.749zm-17.467-3.186c-.436-.968-.553-1.053-1.23-.905-.83.183-.93-.028-.386-.81.2-.288.445-.897.544-1.355.1-.458.413-1.042.695-1.298.577-.522.674-1.818.247-3.295-.173-.6-.18-1.39-.019-2.247a42.11 42.11 0 0 0 .412-2.969c.16-1.602.146-1.65-.514-1.815-1.103-.277-1.177-.777-.501-3.373.344-1.32.625-2.974.625-3.678 0-1.082-.091-1.313-.591-1.498l-.591-.219.621-.197c.581-.184.611-.294.47-1.69-.082-.822-.341-2.491-.575-3.709-.412-2.145-.409-2.23.092-2.696.285-.265.59-.41.678-.321.302.301.152-2.44-.233-4.254-.307-1.45-.322-2.06-.076-3.043.366-1.458.734-1.999.734-1.077 0 .36.193.93.429 1.267.374.534.39.904.132 2.921-.353 2.754-.38 4.341-.07 4.15.123-.077.448.024.722.223.484.354.484.447.019 3.69-.54 3.764-.461 4.38.572 4.433.624.032.638.05.114.15-1.18.228-1.2 1.045-.182 7.377.165 1.024.131 1.098-.649 1.42-.964.4-1.017.92-.444 4.378.295 1.783.293 2.23-.014 2.832-.55 1.08-.45 2.209.268 2.983.348.375.775 1.066.95 1.535.174.469.5 1.196.726 1.615l.41.763-.847-.124c-.764-.112-.897-.025-1.364.89-.285.56-.557 1.016-.605 1.016-.047 0-.303-.481-.569-1.07zm-10.181-4.09c-.364-.208-.827-.382-1.028-.387-.202-.005-.626-.277-.943-.605-.317-.327-.787-.714-1.043-.86-.336-.19-.486-.656-.537-1.663-.04-.77.037-1.466.17-1.548.133-.082.178-.317.099-.522-.213-.556.3-1.69.764-1.69.224 0 .61-.239.86-.53.249-.29.61-.529.804-.529.193 0 .69-.175 1.105-.39.691-.357.81-.345 1.44.15.376.296.8.468.939.382.14-.086.383.085.54.38.159.295.454.536.657.536.712 0 1.258.835 1.091 1.67-.087.433-.032.938.12 1.123.195.234.195.387.002.507-.153.094-.278.543-.278.997 0 .61-.249 1.054-.959 1.704-.528.483-1.153.882-1.389.887-.236.005-.66.183-.943.397-.62.468-.638.468-1.471-.008zm20.256-.273c-.282-.213-.716-.388-.964-.388s-.519-.179-.602-.397c-.084-.218-.376-.397-.65-.397-.792 0-1.463-.923-1.26-1.734.097-.384.05-.85-.103-1.034-.2-.241-.177-.422.084-.638.21-.174.309-.584.235-.97-.134-.702.538-1.71 1.14-1.71.18 0 .4-.185.487-.413.087-.227.257-.353.378-.278.12.074.615-.106 1.1-.4l.88-.536.74.546c.407.301.925.476 1.15.39.262-.101.412-.011.412.246 0 .226.399.536.903.703.496.163.965.46 1.042.66.076.2.082 1.295.012 2.433-.117 1.914-.19 2.128-.976 2.857-.467.434-.944.76-1.061.725-.118-.034-.472.118-.787.339-.716.502-1.494.5-2.16-.004zm-11.806-3.321c.373-.98.699-1.762.725-1.737.025.025-.02.777-.101 1.672-.127 1.403-.227 1.642-.725 1.737l-.577.11zm4.74 1.688c-.583-.09-.72-.272-.822-1.085-.067-.538-.11-.99-.094-1.005.016-.015.414.491.885 1.125.471.633.828 1.134.794 1.112-.034-.022-.378-.088-.763-.147zm-13.888-12.381c-.084-.218-.28-.397-.438-.397-.156 0-.787-.243-1.4-.54-1.201-.581-1.394-1-1.277-2.767.039-.582.079-1.567.09-2.189.02-1.17-.022-1.128 1.738-1.81.291-.112.649-.213.794-.225.146-.01.56-.226.92-.478.857-.6 1.495-.579 2.052.072.25.29.605.529.791.529.186 0 .338.116.338.257 0 .142.344.436.765.654.81.419 1.522 1.863 1.059 2.15-.17.103-.159.285.028.51.201.242.205.403.013.522-.153.094-.277.47-.277.834 0 .937-.463 1.687-1.04 1.687-.27 0-.56.179-.644.397-.083.218-.381.397-.661.397s-.578.179-.662.397c-.095.25-.5.397-1.094.397-.594 0-1-.147-1.095-.397zm20.69-.802c-.283-.214-.73-.389-.993-.389s-.478-.178-.478-.397a.404.404 0 0 0-.41-.396c-.224 0-.7-.292-1.056-.648-.562-.562-.61-.747-.366-1.39.225-.59.202-.791-.113-.99-.348-.22-.344-.29.032-.564.24-.175.435-.702.443-1.193.012-.704.174-.963.808-1.29.437-.224.834-.497.882-.606.049-.11.369-.199.712-.199.343 0 .697-.119.787-.264.258-.417 1.718-.315 1.89.132.083.218.38.397.66.397s.578.179.662.397c.084.218.318.397.52.397.204 0 .605.235.892.522.432.432.499.765.385 1.919-.075.767-.13 1.715-.122 2.107.016.818-1.298 1.97-2.874 2.52-1.221.425-1.629.413-2.262-.065zm-20.918-14.83c-.582-.345-1.32-.744-1.638-.886-.845-.376-1.167-1.165-1.174-2.871-.007-1.837.35-2.865 1.077-3.096.31-.098.544-.4.544-.702 0-.405.122-.49.52-.364.328.104.811-.05 1.309-.419.748-.553.824-.56 1.455-.147.367.24.975.437 1.353.437.377 0 .621.105.541.234-.079.128.208.38.638.557.857.356 1.193 1.03.927 1.867-.095.298-.056.685.086.86.404.498-.06 2.862-.642 3.263-.274.19-.642.468-.818.618-.176.15-.474.274-.664.274-.19 0-.493.238-.675.529-.437.7-1.494.642-2.84-.154zm20.828-.523c-.324-.227-.695-.346-.825-.266-.13.08-.305-.032-.388-.25-.083-.217-.394-.395-.69-.395-.917 0-1.675-.992-1.514-1.983.077-.475.012-.993-.144-1.15-.203-.202-.189-.4.05-.689.186-.222.264-.594.175-.826-.288-.75.133-1.671.925-2.022.454-.2.716-.484.637-.689-.091-.239.02-.3.354-.194.268.086.833-.025 1.255-.245 1.009-.526 1.253-.508 1.835.135.268.296.643.478.835.405.19-.073.347-.028.347.101s.446.453.992.72c.935.456.992.555.995 1.722.001.68.078 1.312.17 1.404.092.092.043.547-.11 1.012a30.357 30.357 0 0 0-.369 1.2c-.051.196-.327.417-.612.492-.286.074-.59.36-.678.636-.088.275-.376.5-.642.5s-.552.18-.635.397c-.198.516-1.216.508-1.963-.015zm-11.42-4.693c-.198-.32-.525-.835-.725-1.143-.339-.523-.32-.552.28-.437.51.097.667.321.763 1.089.149 1.19.131 1.217-.318.49zm3.498-.385c-.053-.882.035-1.037.793-1.395l.853-.403-.662 1.392c-.363.766-.72 1.393-.793 1.395-.073.002-.16-.444-.191-.99zm-1.926-2.434c0-.138-.298-.572-.661-.964-.364-.393-.662-.935-.662-1.205s-.238-.728-.53-1.02c-.714-.714-.676-.793.388-.793.664 0 1-.155 1.218-.561l.3-.562.437.66c.34.515.529.599.863.386.235-.15.63-.194.876-.1.411.158.414.223.036.763-.227.324-.413.793-.413 1.04s-.298.804-.661 1.236c-.364.432-.662.918-.662 1.079 0 .16-.119.292-.264.292a.259.259 0 0 1-.265-.25zm-16.874-6.51c-.807-.565-.843-2.774-.06-3.557.553-.553 2.382-.756 2.382-.265 0 .145-.334.265-.741.265-.766 0-1.376.413-1.376.933 0 .177.305.253.751.188 1.431-.21 2.14 1.28 1.101 2.318-.635.636-1.266.672-2.058.117zm1.48-1.108c-.102-.884-.89-1.127-1.137-.35-.221.697.021 1.076.69 1.076.422 0 .513-.148.447-.726zm30.913.77c-.27-.298-.438-.937-.438-1.673 0-1.474.843-2.43 2.023-2.294.834.095.928.598.12.644-.85.048-1.349.33-1.349.762 0 .307.169.368.672.241.756-.19 1.71.48 1.71 1.2 0 1.377-1.828 2.126-2.738 1.12zm1.63-.925c.068-.568-.025-.707-.471-.707-.686 0-.977.663-.528 1.203.464.56.9.343 1-.496z" transform="translate(-178.653 -114.144)"/><path style="fill:#a79a1a;stroke-width:.26458332" d="M183.063 176.41c-.351-.351-.164-.618.432-.618.646 0 1.243-.444 1.243-.926 0-.176-.362-.248-.919-.183-.78.091-.965.006-1.228-.572-.25-.55-.23-.799.108-1.315 1.195-1.824 3.373-.46 2.94 1.843-.242 1.296-1.907 2.44-2.576 1.77zm1.543-2.999c0-.413-.17-.687-.464-.743-.524-.101-.864.532-.623 1.16.252.657 1.087.337 1.087-.417zm30.743 2.741c-.29-.29.086-.624.705-.624.66 0 1.228-.454 1.228-.981 0-.275-.105-.281-.503-.032-.405.252-.638.226-1.19-.137-1.316-.861-.58-2.554 1.11-2.554 1.017 0 1.377.577 1.377 2.212 0 .97-.129 1.29-.697 1.737-.678.533-1.687.722-2.03.38zm1.8-3.006c0-.999-1.028-.92-1.143.088-.075.65-.006.737.529.661.456-.065.615-.258.615-.749zm-17.462-3.175c-.262-.582-.593-1.058-.734-1.058-.164 0-.162-.12.004-.33.288-.366.678-1.787.49-1.787-.065 0-.326.208-.579.46-.437.438-.45.422-.264-.33.108-.435.426-1.037.706-1.337.567-.608.659-1.854.242-3.292-.173-.6-.18-1.39-.018-2.247.137-.728.32-2.054.41-2.948l.16-1.624-.804-.28c-.895-.312-1.1-.6-.274-.384.406.106.53.008.53-.422 0-.607-.508-.74-.988-.261-.164.164-.01-.812.344-2.169s.643-3.043.643-3.747c0-1.082-.09-1.313-.59-1.498l-.592-.219.621-.197c.581-.184.612-.294.47-1.69-.082-.822-.341-2.493-.575-3.713-.315-1.642-.349-2.296-.129-2.514.22-.217.254-.18.131.141-.09.24-.038.515.117.611.177.11.283-.132.283-.65 0-.483.11-.757.264-.661.392.241.32-2.075-.128-4.194-.308-1.45-.323-2.06-.076-3.043.17-.677.404-1.343.52-1.481.226-.267.242-.047.26 3.69.009 1.817.057 2.13.204 1.323.114-.622.163.303.12 2.25-.041 1.818.007 2.854.108 2.3.172-.946.214-.983.707-.62.518.381.518.421.046 3.712-.54 3.764-.46 4.38.572 4.433.625.032.638.05.114.15-1.18.228-1.2 1.045-.181 7.377.164 1.019.128 1.099-.627 1.412l-.8.331-.01 3.483c-.01 3.14.026 3.418.364 2.821.207-.363.376-.542.376-.397 0 .146-.17.563-.378.927-.542.948-.49 2.287.112 2.89.751.751 1.19 1.634.768 1.545-.5-.105-.278 1.703.263 2.149.414.34.413.355-.018.207-.346-.12-.596.104-.997.89-.295.577-.575 1.05-.622 1.05-.048 0-.302-.476-.564-1.059zm.043-31.551c-.073-.182-.133-.033-.133.33 0 .364.06.513.133.331.074-.182.074-.48 0-.661zm-2.027 30.544c0-.118.185-.445.411-.728.398-.497.403-.495.135.06-.205.425-.192.609.051.707.194.079.139.142-.134.154-.255.011-.463-.076-.463-.193zm4.254-1.528c.013-.308.075-.371.16-.16.076.191.067.42-.021.507-.088.088-.15-.068-.139-.347zm-11.332-1.585c.727-.394.854-.808.57-1.863-.222-.83-1.918-.75-2.132.1-.083.33-.093.821-.022 1.092.176.676-.791.424-1.578-.411-.534-.566-.542-.618-.096-.618.268 0 .758-.22 1.089-.487l.6-.487-.549-.55c-.302-.302-.48-.618-.395-.703.085-.085-.11-.155-.431-.155-.322 0-.854.269-1.182.596l-.596.596.024-.928c.012-.51.108-1.065.212-1.233.104-.168.12-.525.037-.793-.119-.381-.076-.366.198.07.192.306.514.499.716.429.215-.075.295-.01.192.157-.11.178.025.246.36.181.774-.148.983-.32 1.145-.939.106-.404-.052-.668-.595-.999-.67-.407-.7-.486-.318-.843.232-.217.792-.523 1.245-.68l.824-.284-.372.746c-.405.813-.207 2.184.22 1.512.165-.262.232-.272.235-.037.002.19.254.292.6.24.89-.133.99-1.677.152-2.361-.339-.276-.437-.415-.219-.307.218.107.598.368.843.578.246.21.567.308.715.217.147-.091.397.076.555.37.158.296.453.537.656.537.567 0 1.203.767 1.17 1.408-.03.537-.04.54-.162.048-.208-.849-.614-1.191-1.413-1.191-.473 0-.9.218-1.166.595-.39.553-.383.626.106 1.026.289.236.451.504.36.595-.246.247.593.2 1.313-.075.838-.318 1.301.358.849 1.24-.274.533-.349.555-.65.192a.794.794 0 0 0-.865-.243c-.348.11-.464.067-.344-.127.1-.16.075-.293-.055-.293s-.386.283-.571.629c-.403.751-.046 1.624.768 1.882.444.141.474.243.201.68-.176.282-.56.517-.852.522-.293.005-.763.183-1.046.397-.282.213-.64.383-.793.378-.154-.006.047-.189.447-.406zm19.132-.254c-.283-.213-.716-.388-.964-.388s-.519-.179-.602-.397c-.084-.218-.376-.397-.65-.397-.668 0-1.447-.904-1.293-1.501.109-.422.129-.414.155.06.065 1.143 1.313 1.557 2.296.76.282-.229.364-.341.183-.249-.397.201-.456-.55-.062-.792.433-.268.02-.659-.697-.659-.462 0-.6-.1-.458-.33.116-.189-.085-.143-.466.106-.629.411-.687.409-.97-.043-.23-.368-.22-.548.04-.764.187-.155.317-.612.289-1.015-.034-.488-.013-.534.062-.137.063.328.358.727.657.887.415.221.497.215.348-.027-.149-.24-.068-.248.337-.032.692.37 1.29-.206.78-.754-.261-.283-.234-.319.14-.187.254.09.463.054.463-.079 0-.363-1.103-1.062-1.713-1.086-.388-.015-.427-.063-.14-.175.219-.085.542-.343.72-.574.177-.231.326-.327.33-.213.005.115.25.079.546-.08.486-.26.522-.225.376.36-.09.36-.034.725.128.825a.34.34 0 0 1 .113.467c-.102.164-.055.211.11.11.158-.098.373-.04.478.13.134.218.296.165.547-.178.269-.367.363-.393.383-.106.015.21.117.084.228-.28.133-.436.065-.887-.2-1.323-.395-.652-.393-.655.131-.192.303.267.72.397.967.302.293-.112.435-.027.435.259 0 .233.123.425.274.425.453 0-.269 1.106-.815 1.249-.408.107-.436.21-.174.63.172.276.47.502.662.502.195 0 .266.134.162.303-.134.216.031.248.577.111 1.22-.306 1.521-1.17.718-2.058-.41-.453-.41-.48-.01-.327.663.254.723.736.494 3.925-.031.431-.111.403-.596-.213-.735-.935-1.58-.825-1.867.243-.164.61-.111.87.231 1.125.496.368 1.427.436 1.813.132.138-.11-.106.155-.543.587-.436.433-.89.758-1.007.723-.117-.034-.47.118-.786.339-.315.22-.693.402-.838.402-.146 0 0-.186.323-.412 1.087-.761.691-2.234-.6-2.234-.675 0-.902.131-1.026.595-.234.872-.217.942.362 1.521.614.614.37.693-.381.124zm-11.806-3.321c.373-.98.699-1.762.725-1.737.025.025-.02.777-.101 1.672-.127 1.403-.227 1.642-.725 1.737l-.577.11zm4.74 1.688c-.583-.09-.72-.272-.822-1.085-.067-.538-.11-.99-.094-1.005.016-.015.414.491.885 1.125.471.633.828 1.134.794 1.112-.034-.022-.378-.088-.763-.147zm-2.036-3.782c0-.364.06-.513.133-.33.074.181.074.479 0 .66-.073.183-.133.034-.133-.33zm-14.33-1.01c0-.32.503-.693.686-.51.067.067-.06.272-.282.456-.251.209-.403.229-.403.054zm23.743-2.198c.18-.18.393-.262.474-.18.082.08-.065.229-.326.328-.377.144-.408.113-.148-.148zm-21.265-5.391c-.084-.218-.28-.397-.438-.397-.492 0-2.568-1.093-2.568-1.353 0-.135.29-.057.643.175.745.488 1.595.194 1.86-.643.212-.667-.366-1.884-.892-1.88-.337.004-.35.05-.062.232.292.185.295.268.016.44-.201.124-.386.084-.447-.097-.07-.214-.25-.23-.581-.053-.387.207-.498.143-.584-.333-.058-.324-.037-.946.047-1.383.138-.72.167-.739.313-.21.224.816 1.5 1.116 1.976.464.307-.42.276-.577-.236-1.163-.324-.373-.42-.53-.21-.348.208.182.504.327.657.322.403-.012-.905-1.05-1.324-1.05-.194 0-.538.265-.765.589-.343.49-.411.511-.411.127 0-.254.267-.569.595-.7 1.366-.544 1.668-.647 1.948-.665.163-.011.51-.196.771-.412.443-.366.455-.352.168.185-.169.317-.3.853-.289 1.19.018.578.032.583.246.084.217-.505.228-.502.246.066.027.857.902.767 1.285-.133l.31-.727-.089.72c-.048.395.014.656.138.58.346-.214.27-1.597-.104-1.9-.182-.148-.569-.328-.86-.4-.477-.117-.47-.132.069-.16.329-.017.802.207 1.05.498.25.291.547.53.66.53.113 0 .424.208.692.463a7.5 7.5 0 0 0 .992.778c.395.246.317.247-.355.008-.757-.27-.926-.241-1.415.248-.458.458-.503.652-.257 1.113.628 1.173 2.377.936 2.42-.328.017-.547.024-.548.231-.033.117.29.103.667-.031.836-.155.194-.134.376.055.493.217.134.22.266.013.473-.158.158-.304.651-.323 1.095-.028.62-.063.67-.15.214-.138-.711-1.049-1.403-1.791-1.36-.446.025-.459.05-.074.15.255.067.463.221.463.342 0 .122-.238.158-.529.082-.296-.077-.53-.008-.53.157 0 .163.091.296.202.296.11 0 .36.255.555.567.313.5.303.548-.082.4-.277-.106-.372-.062-.26.12.098.157.572.24 1.054.184.482-.056.818-.008.747.107-.071.115-.348.21-.615.21s-.554.178-.638.396c-.083.218-.394.397-.69.397-.408 0-.538-.174-.54-.728-.003-.4-.126-.906-.273-1.124-.2-.295-.231-.193-.123.397.129.694.114.72-.115.198-.383-.868-1-.734-1.222.265-.167.751-.217.793-.4.33-.199-.505-.209-.506-.226-.02-.01.28.178.726.419.992.275.304.32.484.124.484-.173 0-.383-.179-.466-.397zm20.69-.802c-.283-.214-.73-.389-.993-.389s-.478-.178-.478-.397c0-.218-.209-.401-.463-.407-.275-.006-.127-.157.365-.37.455-.199.916-.504 1.024-.678.147-.238.04-.235-.431.012-.623.327-.624.326-.133-.228.627-.706.423-1.258-.54-1.455-.567-.117-.87-.013-1.247.428l-.498.582.186-.597c.132-.424.064-.643-.237-.759-.38-.146-.377-.196.033-.496.267-.194.462-.7.47-1.213.012-.704.175-.963.81-1.29.436-.224.833-.497.881-.606.049-.11.352-.199.675-.199.322 0 .73-.119.904-.264.23-.193.245-.178.053.053-.476.57-.306 1.758.298 2.081.426.228.61.225.757-.013.107-.173.3-.3.43-.283.129.017.272-.271.318-.64.092-.736.923-.937 1.292-.31.117.196.39.425.609.507.26.099.186.158-.214.171-.396.014-.544.13-.42.33.129.209.048.255-.246.143-.27-.104-.413-.045-.374.153.035.177-.086.292-.268.255-.181-.036-.33.053-.33.199 0 .145.119.264.264.264.146 0 .265.17.265.376 0 .5 1.5.82 1.98.422.203-.169.42-.566.48-.883.061-.317.063.079.004.879-.058.8-.1 1.772-.092 2.159.015.76-1.442 2.124-2.57 2.405-.515.129-.573.066-.439-.469.277-1.104-.099-1.714-1.058-1.714-.824 0-.866.05-.905 1.047-.03.746.09 1.123.42 1.315.253.147.34.268.195.268-.145 0-.495-.176-.778-.39zm4.603-1.567c.432-.52.115-1.387-.703-1.923-.636-.417-.693-.414-1.044.066-.204.278-.31.665-.235.859.074.193.017.279-.127.19-.412-.255-.305.177.177.709.525.58 1.492.63 1.932.1zm-5.381-3.446c.317-.317.33-.503.07-.992-.293-.549-.282-.57.125-.233.386.318.426.314.294-.03-.084-.22-.451-.535-.815-.7-.865-.395-1.69.03-1.69.868 0 .697.626 1.348 1.046 1.088.152-.094.277-.044.277.11 0 .387.232.35.693-.11zm-21.144 3.574c.245-.287.5-.468.564-.403.158.157-.49.924-.78.924-.127 0-.03-.234.216-.521zm-2.018-.427c.013-.308.075-.37.16-.16.076.191.067.42-.021.507-.088.088-.15-.068-.14-.347zm20.847-.044c-.329-.42-.32-.43.1-.1.255.2.463.408.463.463 0 .218-.217.078-.563-.363zm4.797-6.416c-.239-.154-.271-.258-.082-.26a.616.616 0 0 1 .478.26c.203.328.112.328-.396 0zm-21.788-6.02c-.068-.109.312-.198.844-.198.814 0 .982-.098 1.056-.622.163-1.156-.184-1.934-.823-1.842-.336.048-.623.307-.677.612-.052.291-.215.648-.362.794-.179.177-.215-.04-.11-.662l.157-.926-.38.794c-.208.437-.318 1.001-.243 1.255.104.355.024.422-.345.29-1.009-.36-1.188-.67-.62-1.067.293-.205.667-.635.831-.955.247-.48.238-.523-.05-.25-.547.516-.823.388-.494-.227.385-.72-.063-1.275-.642-.795-.274.228-.436.237-.564.03-.26-.421-.916.187-.963.892-.021.31-.11.086-.199-.496-.088-.582-.117-1.455-.063-1.939.093-.84.11-.854.397-.292.164.324.597.69.96.815.644.22.647.214.133-.202-.515-.415-.509-.424.205-.3.73.127 1.264-.237.82-.559-.127-.093-.268-.338-.313-.544-.067-.31-.01-.317.331-.034.286.238.412.25.412.04 0-.573-1.253-.936-2.05-.595-.675.289-.69.282-.215-.09.283-.22.61-.4.728-.4s.214-.247.214-.548c0-.433.114-.51.548-.373.354.112.746.001 1.106-.313l.558-.487-.444.655c-.477.701-.588 1.185-.22.957.125-.077.36.154.524.513.37.813.782.835 1.095.058.239-.594.24-.594.279.066.037.633.05.627.274-.124.173-.582.124-.958-.19-1.455-.243-.384-.274-.529-.072-.339.194.182.692.33 1.108.33.416 0 .692.106.612.235-.08.128.213.382.65.562.749.31 1.33 1.394.95 1.774-.09.09-.163-.091-.163-.403 0-.313-.297-.762-.662-1-.613-.402-.71-.402-1.323 0-.364.237-.661.572-.661.742 0 .17.17.077.38-.205.414-.559.452-.018.045.634-.402.645.273.96 1.016.473.372-.243.675-.378.675-.3 0 .078-.387.378-.86.667-.701.427-.76.524-.315.525.3 0 .773-.166 1.052-.37.768-.561 1.164.172.914 1.694-.107.655-.21.93-.228.61-.036-.621-.95-1.41-1.614-1.393-.228.006-.087.182.324.405.964.523.92.66-.115.364-1.063-.305-1.161-.199-.604.652.505.771.258.933-.34.222-.34-.405-.339-.38.002.198.214.364.644.7.955.746.49.074.515.135.187.463-.208.208-.537.379-.73.379-.194 0-.501.238-.683.529-.326.522-1.742.756-2.005.33zm21.258-.699c0-.057.185-.175.411-.261.236-.09.342-.046.249.104-.155.251-.66.372-.66.157zm-1.466-.443c-.096-.155-.331-.222-.523-.149-.191.074-.414-.037-.494-.247-.08-.209-.417-.394-.75-.41-.54-.028-.548-.045-.074-.161.67-.165 1.143-.548 1.5-1.216.232-.432.208-.497-.133-.366-.273.105-.368.04-.28-.19.074-.193-.05-.534-.275-.76-.31-.31-.33-.446-.082-.56.18-.083.03-.08-.333.007-.364.087-.781.294-.928.46-.146.167-.152.213-.013.104a.972.972 0 0 1 .53-.19c.154.004.073.128-.179.274-.251.147-.549.24-.661.206-.112-.034-.29.29-.394.717-.165.678-.176.655-.087-.182.055-.528-.027-1.089-.183-1.245-.492-.492.264-1.154.916-.805.386.207.484.205.354-.006-.113-.182.068-.29.481-.29.85 0 1.064-.365.662-1.12-.3-.563-.29-.575.163-.204.452.37.463.359.176-.18-.342-.643-1.198-1.013-1.67-.722-.19.119-.236.075-.118-.115.104-.168.373-.305.598-.305.263 0 .353-.149.25-.415-.122-.32-.036-.375.382-.242.297.094.716.025.93-.153.216-.178.468-.248.561-.154.094.093.044.17-.11.17-.404 0-.658 1.252-.365 1.8.365.682 1.328.665 1.637-.03l.258-.58-.115.596c-.063.327-.017.595.104.595.275 0 .616-1.49.415-1.816-.082-.132.058-.225.311-.205.254.02.556.186.672.367.117.182.414.339.662.348.32.012.274.087-.163.262-.337.135-.546.352-.466.483.08.13-.06.399-.313.597-.417.327-.426.317-.097-.102.2-.255.242-.463.094-.463-.883 0-.365 1.843.526 1.87.573.018.577.03.075.247-.505.217-.502.228.066.246.327.01.854-.24 1.17-.557.472-.472.543-.49.393-.099-.1.262-.069.614.07.783.14.168.158.463.039.656-.177.285-.333.273-.845-.062-.825-.54-1.59-.406-1.86.326-.169.456-.067.74.451 1.258.447.447.616.837.508 1.175-.21.662-1.183.697-1.01.036.067-.259-.016-.824-.186-1.257-.285-.723-.327-.743-.527-.256-.119.29-.225.38-.235.198-.03-.535-.762-.378-.946.202-.093.293-.28.465-.415.382-.135-.084-.245.1-.245.408 0 .308.093.503.208.432.114-.07.208.101.208.381 0 .584-.05.623-.295.228zm-22.909-.71c-.33-.42-.32-.429.1-.1.44.346.58.563.363.563-.055 0-.263-.208-.463-.463zm4.309-.066c0-.363.06-.512.133-.33.074.182.074.48 0 .661-.073.182-.133.033-.133-.33zm22.47-.604c.06-.04.348-.25.64-.463.489-.359.501-.353.165.075-.2.255-.487.463-.64.463-.151 0-.226-.033-.165-.075zm-12.416-1.512c0-.364.06-.513.133-.331.074.182.074.48 0 .661-.073.182-.133.034-.133-.33zm-.157-1.246c-.144-.377-.113-.407.148-.148.18.18.262.393.18.475-.08.081-.229-.066-.328-.327zm-2.515-.42c-.199-.32-.525-.835-.725-1.143-.339-.523-.32-.552.28-.437.51.097.667.321.763 1.089.148 1.19.131 1.217-.318.491zm3.498-.385c-.053-.882.035-1.037.793-1.395l.853-.403-.662 1.392c-.363.766-.72 1.393-.793 1.395-.073.002-.16-.444-.191-.99zm-1.926-2.434c0-.138-.298-.572-.662-.964-.363-.393-.661-.935-.661-1.205s-.248-.738-.551-1.041c-.303-.303-.482-.621-.397-.706.19-.19.226-.152.916.992l.56.926v-.869c0-.478.2-1.173.444-1.544l.442-.675.615 1.015c.338.558.615 1.23.615 1.494.001.263.12.405.266.315.496-.307.267.354-.396 1.142-.364.433-.662.918-.662 1.079 0 .16-.119.292-.264.292a.259.259 0 0 1-.265-.25zm10.534-1.517c.19-.076.419-.067.507.021.088.088-.069.15-.347.139-.309-.013-.371-.075-.16-.16zm-8.547-1.908c.165-.553.118-.616-.37-.488-.308.08-.493.038-.411-.094.18-.29 1.095-.319 1.268-.038.069.11-.056.438-.276.727-.388.51-.395.507-.21-.108zm-18.862-3.086c-.806-.564-.842-2.772-.058-3.556.552-.553 2.38-.756 2.38-.265 0 .146-.333.265-.74.265-.766 0-1.376.413-1.376.933 0 .177.305.253.751.188 1.431-.21 2.139 1.28 1.101 2.318-.635.636-1.266.672-2.058.117zm1.48-1.107c-.102-.884-.89-1.127-1.136-.35-.221.697.021 1.076.69 1.076.422 0 .513-.148.447-.726zm30.914.77c-.27-.298-.438-.937-.438-1.673 0-1.474.843-2.43 2.023-2.294.834.095.928.598.12.644-.85.048-1.35.33-1.35.762 0 .307.17.368.673.241.756-.19 1.71.48 1.71 1.2 0 1.377-1.828 2.126-2.738 1.12zm1.63-.925c.068-.568-.025-.707-.471-.707-.686 0-.977.663-.528 1.203.464.56.9.343 1-.496z" transform="translate(-178.653 -114.144)"/><path style="fill:#c02023;stroke-width:.26458332" d="M183.063 176.41c-.351-.351-.164-.618.432-.618.64 0 1.243-.443 1.243-.913 0-.152-.431-.277-.959-.277-.733 0-1.008-.132-1.168-.557-.35-.935.278-1.813 1.362-1.904 1.218-.103 1.603.373 1.603 1.98 0 1.038-.125 1.371-.698 1.864-.686.59-1.467.773-1.815.425zm1.543-2.999c0-.413-.17-.687-.464-.743-.524-.101-.864.532-.623 1.16.252.657 1.087.337 1.087-.417zm30.743 2.741c-.316-.316.11-.624.862-.624.44 0 .816-.173.91-.419.28-.726.188-.991-.223-.65-.527.437-1.44.098-1.786-.663-.413-.907.324-1.972 1.364-1.972 1.131 0 1.6.62 1.6 2.116 0 1.073-.115 1.375-.697 1.833-.678.533-1.687.722-2.03.38zm1.8-3.006c0-.999-1.028-.92-1.143.088-.075.65-.006.737.529.661.456-.065.615-.258.615-.749zm-17.502-3.254c-.472-.989-.493-1.235-.195-2.236.3-1.012.123-1.533-.294-.86-.09.146-.264.265-.388.265-.363 0 .018-1.046.508-1.397.684-.489.796-1.36.38-2.954-.28-1.073-.31-1.732-.114-2.58.144-.626.286-1.615.315-2.197.03-.582.147.668.26 2.778.238 4.404.249 4.498.52 4.498.283 0 1.033.782 1.033 1.077 0 .135-.09.216-.199.18-.341-.114-.386.165-.19 1.207.137.73.058 1.301-.286 2.063-.262.58-.553 1.103-.648 1.161-.095.059-.41-.393-.702-1.005zm-11.999-4.949c-.24-.447-.181-.577.373-.83.871-.396 1.028-.897.563-1.797-.307-.592-.52-.716-1.06-.613-.372.071-.742.234-.82.363-.252.406-.576.252-.733-.349-.235-.897.277-1.355.971-.869.84.588 1.318.477 1.831-.425.41-.721.57-.799 1.406-.686.824.11.975.041 1.201-.554.143-.374.201-.83.13-1.015-.182-.477.711-.594 1.06-.139.226.297.11.542-.53 1.115l-.82.734.493.837c.48.816.48.86 0 1.76-.49.918-.49.924.106 1.41.33.269.724.53.875.58.519.173-.069 1.009-.708 1.009-.493 0-.633-.142-.633-.64 0-1.151-.27-1.477-1.226-1.477-.72 0-.955.134-1.154.659-.138.363-.182.839-.098 1.058.238.62-.89.5-1.227-.13zm21.256.317c-.636-.09-1.093-.907-.6-1.071.548-.183 1.377-1.153 1.133-1.326-.13-.092-.384-.504-.564-.915-.286-.65-.26-.847.204-1.498l.534-.749-.812-.683c-.86-.724-.857-1.066.012-1.293.422-.11.534-.01.534.476 0 1.113.277 1.452 1.19 1.452.88 0 1.19-.343 1.19-1.317 0-.673.73-.884 1.043-.302.205.383.098.596-.534 1.063l-.789.584.555.78c.58.813 1.883 1.09 2.26.48.285-.46.705.475.5 1.118-.152.482-.22.5-.61.158a3.306 3.306 0 0 0-1.021-.562c-.47-.143-.664-.018-1.012.654-.4.772-.398.867.021 1.33.248.274.67.568.938.653.387.123.429.248.202.611-.157.252-.511.457-.787.457-.386 0-.5-.192-.5-.837 0-1.021-.518-1.497-1.506-1.384-.65.075-.76.219-.876 1.144-.113.902-.217 1.046-.705.977zm-11.514-1.432c.141-.14.478-.21.748-.152.364.077.297.144-.257.256-.483.099-.657.062-.49-.104zm5.226-.345c-.396-.367-.681-.76-.634-.874.048-.114.426.186.84.667.896 1.04.798 1.138-.206.207zm-9.393-1.502c-.782-.393-.837-.479-.396-.618.28-.089.698-.26.926-.38.575-.301 1.099.524.678 1.067-.262.338-.416.33-1.208-.069zm5.032-.08c.027-.5.468-1.344.484-.925.008.218-.101.575-.242.793-.141.219-.25.278-.242.133zm7.974-.178c-.246-.246-.226-.417.09-.766.332-.367.523-.394 1.052-.149.766.355.818.576.188.798a8.46 8.46 0 0 0-.738.3c-.15.074-.417-.008-.592-.183zm-17.522-2.732c-.181-.218-.498-.397-.703-.397-.288 0-.31-.118-.1-.512.151-.282.513-.495.804-.473.413.03.528.23.528.91 0 .98-.062 1.035-.529.472zm11.398-4.008c-.02-1.346-.03-1.362-.815-1.308-.436.03-.793.037-.793.016 0-.021.238-.97.529-2.108.29-1.138.529-2.65.529-3.358 0-1.082-.092-1.323-.576-1.502l-.576-.213.576-.15c.447-.118.576-.35.576-1.036 0-.78-.51-3.906-.943-5.78-.123-.532-.087-.597.183-.33.185.182.793.33 1.35.33.805 0 1.064-.123 1.254-.595l.24-.595.016.63c.009.346-.173 1.82-.404 3.277-.232 1.456-.373 2.9-.313 3.21.123.644-.698 1.684-.975 1.235-.096-.155-.295-.282-.443-.282-.147 0-.08.187.148.415.23.229.42.616.427.86.007.298.14.204.405-.283.452-.833.649-.942.47-.26-.067.258.078 1.716.322 3.241.535 3.346.696 4.762.48 4.229-.18-.445-.882-1.059-1.21-1.059-.117 0-.213.358-.213.794 0 .457.14.796.33.798.23.003.242.064.04.198-.16.107-.359.373-.442.592-.083.218-.16-.217-.172-.966zm.508-9.237c0-.226-.119-.338-.264-.249-.146.09-.265.276-.265.413 0 .137.12.249.265.249.145 0 .264-.186.264-.413zm-13.15 5.149c-.212-.213-.074-.486.51-1.008.793-.708.796-.724.364-1.56-.458-.885-.907-1.03-1.768-.57-.4.215-.551.185-.672-.131a1.33 1.33 0 0 1 .002-.822c.143-.375.213-.375.748 0 .839.587 1.088.523 1.647-.425l.495-.837-.815-.73c-.705-.628-.755-.756-.372-.932.908-.418 1.235-.256 1.37.677.12.838.218.926 1.124 1.013.877.084 1.024.012 1.268-.63.151-.398.22-.869.152-1.046-.079-.204.055-.274.368-.193.56.147.962.946.546 1.085-.152.05-.53.298-.842.55-.549.445-.552.483-.11 1.337.289.56.356.94.185 1.045-.147.091-.344.469-.437.84-.13.513-.003.838.532 1.373.701.702.691 1.255-.024 1.255-.21 0-.381-.246-.381-.547 0-.955-.5-1.57-1.28-1.57-.93 0-1.366.439-1.366 1.376 0 .787-.666 1.027-1.244.45zm24.13-1.218c0-.827.074-1.047.265-.788.146.197.54.505.877.685.71.378.432.948-.554 1.137-.534.102-.587.007-.587-1.034zm-2.976.763c-.327-.046-.595-.245-.595-.44a.572.572 0 0 0-.331-.49c-.228-.093-.207-.143.066-.164.218-.016.667-.255.997-.53.588-.49.591-.521.15-1.447-.44-.92-.435-.969.143-1.75l.594-.805-.766-.717c-.88-.823-.836-1.378.11-1.378.38 0 .585.114.488.271-.092.15-.09.626.005 1.059.15.683.29.787 1.062.787.986 0 1.161-.164 1.244-1.167.037-.442.214-.685.5-.685.565 0 .898.825.444 1.1-1.155.702-1.141.667-.667 1.661.361.758.39 1.07.143 1.61-.295.647-.665.822-2.066.979-.557.062-.683.242-.794 1.132-.114.916-.212 1.047-.728.974zm-15.742-2.53-.728-.322.926-.335c.51-.184.926-.446.926-.582 0-.136.133-.247.297-.247.213 0 .21.104-.013.373-.222.268-.228.424-.02.553.209.128.203.284-.02.552-.36.435-.406.435-1.368.008zm21.232-.155c0-.141-.327-.434-.728-.651l-.727-.395.712-.01c.391-.006.795-.145.896-.31.334-.539.694.5.378 1.09-.306.572-.53.689-.53.276zm-7.991-1.174c-.352-.258-.323-.358.221-.768.345-.26.626-.358.626-.218 0 .14.313.36.696.487l.695.232-.917.281c-.66.203-1.029.2-1.321-.014zm-4.494-.338c.191-.077.42-.067.507.02.088.089-.068.151-.347.14-.308-.013-.371-.076-.16-.16zm-1.655-7.997c-.082-.132-.037-.52.1-.86.232-.58.25-.564.265.24.017.87-.094 1.058-.365.62zm-.405-3.663c-.384-2.232-.405-2.924-.128-4.236.36-1.708.52-1.009.592 2.608.041 2.023.033 3.679-.018 3.679-.052 0-.252-.923-.446-2.05zm-11.77 1.01c-.085-.136.147-.548.513-.914.832-.832.836-1.224.022-2.102-.354-.383-.54-.76-.413-.838.127-.079.404-.49.616-.916.347-.695.34-.814-.07-1.185-.25-.227-.595-.412-.766-.412-.17 0-.31-.239-.31-.53 0-.388.177-.529.662-.529.475 0 .661.143.661.508 0 1.046.296 1.344 1.33 1.344.864 0 1.089.13 1.572.913.566.915.957.986 1.808.326.242-.188.47-.14.77.16.59.589.007 1.37-.728.977-.843-.451-1.574-.3-1.832.378-.237.623-1.567 1.164-2.081.846-.277-.17-.839.972-.839 1.704 0 .528-.64.716-.915.27zm3.728-.613c-.26-.972-.2-1.04.486-.541.78.567.865 1.137.172 1.137-.294 0-.565-.246-.658-.596zm16.547-.225c-.184-.294-.206-.502-.054-.502.144 0 .462-.308.708-.683.419-.638.419-.732.006-1.43-.54-.915-.547-1.249-.046-2.21.374-.716.356-.788-.378-1.522-.423-.423-.646-.77-.493-.77.182 0 .174-.123-.022-.359-.24-.288-.15-.353.455-.33.576.021.724.135.632.486-.066.253-.047.746.04 1.096.126.499.375.662 1.155.757 1.098.133 1.38-.103 1.387-1.159.005-.784.67-1.208.91-.58.088.23-.13.745-.503 1.189-.613.729-.631.826-.255 1.401.437.666.305 1.776-.267 2.25-.182.152-.676.3-1.098.33-.928.068-1.155.35-1.16 1.44-.005.98-.571 1.311-1.018.596zm3.616-.741-.099-1.033.604.604c.368.367.54.771.44 1.033-.308.8-.844.457-.945-.604zm-25.966-1.704c-.27-.703.199-1.023.978-.668l.718.328-.61.338c-.782.434-.92.434-1.086.002zm27.89-.682c-.618-.465-.619-.473-.072-.616.622-.162 1.169.322.883.784-.133.216-.367.167-.812-.168zm-7.681-.128c-.431-.52.27-1.023 1.032-.74l.593.219-.667.436c-.55.36-.717.375-.958.085zm-4.233-.577c.012-.308.075-.37.16-.16.076.192.066.42-.022.508-.087.088-.15-.069-.138-.348zm-3.843-.35c-.081-.132-.036-.52.1-.86.232-.58.25-.564.265.24.017.87-.094 1.058-.365.62zm-.686-1.126c-.303-.591-.296-.598.162-.162.263.252.405.53.316.618-.088.09-.303-.116-.478-.456zm4.458-.138c.191-.076.42-.067.507.021.088.088-.068.15-.347.14-.308-.013-.371-.076-.16-.16zm.843-.068c0-.137.118-.321.262-.41.15-.093.194.013.104.249-.176.458-.366.542-.366.161zm-11.112-.616c0-.431.166-.6.617-.625.801-.046.801.568 0 .933-.546.249-.617.213-.617-.308zm8.202-.855c0-.218-.116-.396-.258-.396-.227 0-1.065-1.337-1.065-1.699 0-.075.17-.072.378.008.269.104.339-.002.244-.365-.073-.28.059-.97.294-1.533l.428-1.023.517.785c.284.431.518 1.167.519 1.636 0 .675.09.817.429.687.356-.136.38-.075.147.361a3.464 3.464 0 0 1-.693.866c-.226.188-.41.506-.41.706 0 .2-.12.365-.265.365-.146 0-.265-.179-.265-.397zm-16.874-6.365c-.854-.598-.84-2.7.024-3.51.634-.596 1.88-.774 2.166-.311.094.153-.156.265-.593.265-.807 0-1.392.413-1.392.984 0 .241.207.297.672.18.782-.196 1.71.486 1.71 1.258 0 .621-.915 1.546-1.53 1.546-.258 0-.734-.185-1.058-.412zm1.376-.532c.476-.476.14-1.437-.5-1.437-.513 0-.783 1.002-.396 1.468.395.475.39.475.896-.031zm31.017.196c-.27-.3-.438-.938-.438-1.674 0-1.474.843-2.43 2.023-2.294.834.095.928.598.12.644-.857.049-1.349.331-1.349.775 0 .3.151.375.52.258 1.245-.396 2.217 1.001 1.48 2.126-.516.788-1.716.872-2.356.165zm1.634-.508c.13-.255.185-.612.12-.794-.166-.463-1.118-.414-1.302.066-.382.994.702 1.66 1.182.728z" transform="translate(-178.653 -114.144)"/><path style="fill:#332e20;stroke-width:.26458332" d="M183.063 176.41c-.351-.351-.164-.618.432-.618.64 0 1.243-.443 1.243-.913 0-.152-.431-.277-.959-.277-.733 0-1.008-.132-1.168-.557-.35-.935.278-1.813 1.362-1.904 1.218-.103 1.603.373 1.603 1.98 0 1.038-.125 1.371-.698 1.864-.686.59-1.467.773-1.815.425zm1.543-2.999c0-.413-.17-.687-.464-.743-.524-.101-.864.532-.623 1.16.252.657 1.087.337 1.087-.417zm30.743 2.741c-.316-.316.11-.624.862-.624.44 0 .816-.173.91-.419.28-.726.188-.991-.223-.65-.527.437-1.44.098-1.786-.663-.413-.907.324-1.972 1.364-1.972 1.131 0 1.6.62 1.6 2.116 0 1.073-.115 1.375-.697 1.833-.678.533-1.687.722-2.03.38zm1.8-3.006c0-.999-1.028-.92-1.143.088-.075.65-.006.737.529.661.456-.065.615-.258.615-.749zm-17.99-4.497c.089-.146.215-.265.28-.265.064 0 .116.119.116.265 0 .145-.126.264-.28.264-.154 0-.207-.119-.117-.264zm.925-1.607c0-.368.777-1.145.96-.96.079.077-.105.39-.409.692-.303.304-.55.424-.55.268zm-1.402-.501c.075-.287.332-.668.57-.848.367-.275.383-.268.105.045-.182.204-.331.585-.331.847s-.108.476-.24.476-.179-.234-.104-.52zm.74-.274c.09-.145.283-.264.429-.264.145 0 .19.119.1.264-.089.146-.282.265-.427.265-.146 0-.191-.12-.101-.265zm-11.774-1.324c-.24-.447-.181-.577.373-.83.871-.396 1.028-.897.563-1.797-.307-.592-.52-.716-1.06-.613-.372.071-.742.234-.82.363-.252.406-.576.252-.733-.349-.235-.897.277-1.355.971-.869.835.585 1.318.478 1.819-.403.296-.52.66-.792 1.058-.791.55 0 .525.051-.252.525-1.864 1.136-.412 3.683 1.513 2.653.404-.216.463-.175.354.242-.117.448.172.744 1.446 1.488.04.023-.003.238-.094.477-.092.239-.452.435-.8.435-.493 0-.633-.142-.633-.64 0-1.151-.27-1.477-1.226-1.477-.72 0-.955.134-1.154.659-.138.363-.182.839-.098 1.058.238.62-.89.5-1.227-.13zm12.241-.157c.072-.377-.035-1.323-.238-2.102-.274-1.049-.302-1.71-.107-2.554.144-.626.286-1.615.315-2.197.03-.582.13.608.224 2.646.182 3.936.245 4.385.663 4.692.145.107-.018.196-.362.198-.532.003-.606-.099-.495-.683zm9.015.474c-.636-.09-1.093-.907-.6-1.071.588-.196 1.422-1.19 1.09-1.3-.173-.058-.314-.24-.314-.405 0-.18.145-.144.363.089.254.271.313.743.198 1.578-.142 1.03-.241 1.18-.737 1.109zm3.086-.655c0-.445-.183-1.013-.408-1.26-.346-.383-.351-.474-.033-.596.234-.09.363.016.342.279-.018.232.339.677.793.988.656.449.765.644.53.945-.164.21-.506.397-.76.417-.349.028-.464-.164-.464-.773zm-14.6-.777c.141-.14.478-.21.748-.152.364.077.297.144-.257.256-.483.099-.657.062-.49-.104zm5.226-.345c-.396-.367-.681-.76-.634-.874.048-.114.426.186.84.667.896 1.04.798 1.138-.206.207zm-9.393-1.502c-.782-.393-.837-.479-.396-.618.28-.089.698-.26.926-.38.575-.301 1.099.524.678 1.067-.262.338-.416.33-1.208-.069zm20.838.158c-.232-.232-.733-.44-1.114-.462-.38-.022-.692-.168-.692-.325 0-.166.331-.236.796-.168.438.064.964-.022 1.169-.192.295-.246.407-.199.542.229.094.296.07.718-.054.94-.2.356-.272.353-.647-.021zm-22.34-.715c-.028-.787-.011-.804.242-.241.165.366.177.699.03.845-.147.147-.255-.092-.273-.604zm6.534.478c.027-.502.468-1.345.484-.926.008.218-.101.575-.242.793-.141.219-.25.278-.242.133zm7.974-.179c-.246-.246-.226-.417.09-.766.332-.367.523-.394 1.052-.149.766.355.818.576.188.798a8.46 8.46 0 0 0-.738.3c-.15.074-.417-.008-.592-.183zm2.508-.044c-.12-.31.006-.758.343-1.232l.53-.746-.811-.683c-.86-.724-.857-1.066.012-1.293.422-.11.534-.01.534.476 0 .926.271 1.45.755 1.46.35.006.332.066-.094.303-.738.412-.704.362-.902 1.329-.145.703-.216.778-.367.386zm2.46-1.651c-.452-.251-.524-.369-.227-.371.459-.004.756-.523.756-1.32 0-.674.73-.885 1.042-.303.205.384.097.597-.541 1.069-.643.475-.737.662-.485.966.37.445.325.442-.545-.041zm-20.53-.152c-.118-.189-.073-.233.116-.116.35.216.932-1.06.728-1.592-.18-.468.707-.598 1.047-.154.212.278.063.582-.622 1.267-1.015 1.016-1.011 1.014-1.27.595zm-1.96-.885c-.181-.218-.498-.397-.703-.397-.288 0-.31-.118-.1-.512.151-.282.513-.495.804-.473.413.03.528.23.528.91 0 .98-.062 1.035-.529.472zm11.398-4.05c-.013-.865-.123-1.342-.285-1.241-.146.09-.265.037-.265-.117s.179-.28.397-.28c.277 0 .397.279.397.926 0 .562.13.927.33.93.23.003.241.064.04.198-.16.107-.359.373-.442.592-.083.218-.16-.236-.172-1.008zm1.597-.368c-.017-.248-.239-.572-.493-.72-.255-.148-.344-.271-.199-.274.547-.008.974.466.85.946-.106.415-.132.423-.158.048zm-14.245-3.685c-.221-.221-.095-.47.49-.962.434-.365.73-.82.656-1.011-.085-.22.007-.294.25-.2.444.17.5.516.119.751-.146.09-.265.514-.265.942 0 .573-.126.778-.476.778-.262 0-.61-.134-.774-.298zm3.896-.305c0-.331-.177-.854-.392-1.162-.336-.48-.339-.604-.02-.868.299-.248.345-.213.242.184-.08.303.14.76.573 1.193.703.703.693 1.256-.022 1.256-.22 0-.381-.254-.381-.603zm8.523.007c-.307-3.232-.418-3.69-.936-3.882-.527-.195-.527-.201.04-.35.477-.124.576-.345.583-1.3.005-.631.165-1.354.356-1.605.323-.425.367-.416.636.132.499 1.014.511 2.426.026 2.937-.288.303-.505.367-.618.184-.096-.156-.295-.283-.443-.283-.147 0-.08.187.148.416.229.229.42.616.427.86.007.297.14.204.405-.284.217-.4.42-.727.452-.727.219.002-.066 2.677-.358 3.373-.374.89-.663 1.104-.718.53zm.737-4.844c0-.227-.119-.339-.264-.249-.146.09-.265.276-.265.413 0 .137.12.249.265.249.145 0 .264-.186.264-.413zm10.98 3.93c0-.826.074-1.046.265-.787.146.197.54.505.877.684.71.379.432.949-.554 1.137-.534.102-.587.007-.587-1.034zm-2.976.764c-.327-.047-.595-.245-.595-.441a.572.572 0 0 0-.331-.49c-.228-.092-.207-.143.066-.163.585-.044 1.654-1.013 1.462-1.325-.099-.159.004-.203.25-.109.28.107.335.261.167.464-.139.166-.29.718-.338 1.226-.073.786-.174.91-.681.838zm-15.742-2.53-.728-.322.926-.335c.51-.184.926-.446.926-.582 0-.136.133-.248.297-.248.213 0 .21.105-.013.374-.222.267-.228.424-.02.552.209.129.203.285-.02.553-.36.434-.406.435-1.368.008zm-6.978-.285a1.33 1.33 0 0 1 .002-.821c.143-.375.213-.375.748 0 .839.587 1.088.523 1.647-.425l.495-.838-.815-.728c-.705-.63-.755-.757-.372-.933.91-.42 1.235-.256 1.373.688.09.614.262.902.507.849.204-.045-.006.27-.467.701-.46.43-.837.961-.837 1.18 0 .261-.173.353-.502.267-.276-.072-.754.004-1.062.169-.451.241-.591.22-.717-.109zm28.21.13c0-.141-.327-.434-.728-.651l-.727-.395.712-.01c.391-.007.795-.146.896-.31.334-.539.694.5.378 1.09-.306.572-.53.689-.53.276zm-22.578-.185a.729.729 0 0 1-.176-.45c0-.166.123-.15.313.04.172.172.252.374.176.45-.075.075-.216.057-.313-.04zm17.145-.648c-.119-.373.013-.817.395-1.334l.572-.774-.766-.717c-.88-.824-.836-1.378.11-1.378.38 0 .585.114.488.271-.092.15-.09.625.005 1.058.15.683.29.788 1.062.788.986 0 1.161-.164 1.244-1.167.064-.777.84-.955 1.108-.255.157.408-.47 1.13-.999 1.149-.126.005-.168.244-.092.533.115.44.06.483-.349.264-1.244-.666-2.828.265-2.523 1.483.198.786-.011.85-.256.08zm-2.558-.342c-.352-.257-.323-.357.221-.768.345-.26.626-.357.626-.217 0 .14.313.36.696.487l.695.232-.917.281c-.66.203-1.029.199-1.321-.015zm-15.409-.562c-.455-.344-.461-.389-.06-.389.48 0 1.077-1.192.869-1.735-.079-.205.055-.275.368-.193.412.108.964.853.732.988-1.169.682-1.546 1.04-1.424 1.357.176.46.158.459-.485-.028zm10.915.225c.191-.077.42-.067.507.02.088.088-.068.15-.347.14-.308-.013-.371-.076-.16-.16zm-.286-7.25c.094-.357.213-.477.28-.279.063.191-.01.473-.164.627-.197.196-.231.093-.116-.347zm-1.37-.747c-.08-.132-.036-.52.1-.86.233-.58.25-.564.266.24.017.87-.094 1.058-.365.62zm-.404-3.663c-.384-2.233-.405-2.924-.128-4.236.36-1.708.52-1.009.592 2.608.041 2.023.033 3.679-.018 3.679-.052 0-.252-.923-.446-2.05zm-11.77 1.01c-.085-.137.147-.548.513-.915.74-.74.83-1.201.336-1.736-.182-.197-.036-.162.323.079.866.579 1.48.552 2.124-.091 1.454-1.454-.36-3.423-2.057-2.234-.324.226-.589.293-.589.147 0-.145.127-.342.282-.438.346-.214-.46-1.18-.984-1.18-.196 0-.356-.238-.356-.529 0-.388.177-.529.662-.529.475 0 .661.143.661.508 0 1.045.295 1.344 1.33 1.344.864 0 1.089.13 1.572.913.566.915.957.985 1.808.326.242-.188.47-.14.77.16.59.588.007 1.37-.728.977-.843-.452-1.574-.3-1.832.378-.237.623-1.567 1.164-2.081.846-.277-.171-.839.971-.839 1.704 0 .528-.64.716-.915.27zm3.728-.613c-.26-.972-.2-1.04.486-.542.78.568.865 1.137.172 1.137-.294 0-.565-.245-.658-.595zm16.547-.225c-.197-.314-.213-.503-.044-.503.15 0 .52-.387.824-.86.305-.472.482-.641.393-.375-.088.267-.16.82-.16 1.229 0 .905-.583 1.198-1.013.51zm3.616-.742-.099-1.033.604.604c.368.368.54.772.44 1.033-.308.8-.844.458-.945-.604zm-25.966-1.703c-.27-.703.199-1.023.978-.668l.718.327-.61.339c-.782.434-.92.434-1.086.002zm25.506-.096c.193-.32.407-.526.477-.457.07.07-.088.332-.35.583-.456.437-.461.431-.127-.126zm-23.256-.04c-.274-.173-.26-.286.066-.557.348-.289.41-.255.41.222 0 .633-.004.635-.476.335zm25.64-.546c-.618-.466-.619-.473-.072-.616.622-.163 1.169.322.883.784-.133.215-.367.167-.812-.168zm-7.681-.128c-.431-.52.27-1.023 1.032-.74l.593.218-.667.437c-.55.36-.717.375-.958.085zm-4.233-.577c.012-.308.075-.37.16-.16.076.191.066.42-.022.507-.087.088-.15-.068-.138-.347zm9.743-.527c-.25-.517-.332-1.017-.202-1.221.12-.19.22-.661.223-1.046.005-.784.67-1.208.91-.58.088.23-.13.744-.503 1.189-.62.737-.635.82-.242 1.42.23.351.377.745.327.876-.05.131-.28-.156-.513-.638zm-13.586.177c-.081-.132-.036-.52.1-.86.232-.58.25-.564.265.24.017.87-.094 1.058-.365.62zm10.7-.46c0-.139.136-.388.302-.554.225-.225.097-.505-.509-1.111-.445-.446-.685-.81-.533-.81.182 0 .175-.123-.021-.36-.24-.288-.151-.353.454-.33.576.022.724.135.632.487-.065.252-.044.758.048 1.125.132.528.344.673 1.022.701.723.03.753.055.193.157-.364.066-.87.306-1.124.534-.255.227-.463.3-.463.161zm-11.386-.667c-.303-.59-.296-.597.162-.16.263.25.405.528.316.617-.088.089-.303-.117-.478-.457zm4.458-.137c.191-.076.42-.067.507.021.088.088-.068.15-.347.139-.308-.013-.371-.075-.16-.16zm.843-.068c0-.137.118-.322.262-.41.15-.093.194.013.104.248-.176.459-.366.543-.366.162zm-11.112-.617c0-.43.166-.599.617-.625.801-.046.801.569 0 .934-.546.249-.617.213-.617-.309zm8.202-.854c0-.218.119-.397.265-.397.145 0 .264.179.264.397 0 .218-.119.397-.264.397-.146 0-.265-.179-.265-.397zm-.209-1.825c.188-.204.383-.33.434-.282.157.149-.24.652-.516.652-.142 0-.106-.167.082-.37zm-1.114-.175c0-.154.12-.206.265-.117.145.09.264.217.264.28 0 .065-.119.117-.264.117-.146 0-.265-.126-.265-.28zm-15.551-4.365c-.854-.598-.84-2.7.024-3.51.634-.596 1.88-.775 2.166-.311.094.153-.156.264-.593.264-.807 0-1.392.414-1.392.984 0 .242.207.297.672.18.782-.196 1.71.487 1.71 1.259 0 .621-.915 1.546-1.53 1.546-.258 0-.734-.185-1.058-.412zm1.376-.532c.476-.476.14-1.437-.5-1.437-.513 0-.783 1.001-.396 1.468.395.475.39.475.896-.031zm31.017.196c-.27-.3-.438-.938-.438-1.674 0-1.474.843-2.43 2.023-2.295.834.096.928.6.12.645-.857.049-1.349.33-1.349.774 0 .3.151.375.52.258 1.245-.395 2.217 1.002 1.48 2.127-.516.788-1.716.872-2.356.165zm1.634-.509c.13-.254.185-.612.12-.793-.166-.463-1.118-.414-1.302.066-.382.993.702 1.66 1.182.727z" transform="translate(-178.653 -114.144)"/></svg>