<svg xmlns="http://www.w3.org/2000/svg" viewBox="0 0 42.598 65.352" height="247" width="161"><path style="fill:#fff;fill-opacity:1;stroke-width:.26599103" d="M-45.724 177.954c-.407-.445-.442-3.053-.442-32.106 0-30.299.02-31.64.489-32.06.446-.4 2.276-.438 20.816-.438 19.353 0 20.348.024 20.77.484.406.445.442 3.053.442 32.106 0 30.299-.02 31.64-.489 32.06-.446.4-2.277.438-20.816.438-19.353 0-20.349-.023-20.77-.484z" transform="translate(46.166 -113.086)"/><path style="fill:#b1b3af;stroke-width:.26458332" d="M-95.44 179.157c-.403-.445-.439-3.062-.439-32.238 0-30.427.02-31.773.484-32.193.442-.4 2.271-.437 20.861-.437 19.405 0 20.398.023 20.815.483.403.445.438 3.062.438 32.239 0 30.427-.02 31.772-.484 32.192-.441.4-2.27.438-20.86.438-19.406 0-20.399-.024-20.816-.484zm41.41-.219c.464-.42.485-1.757.485-31.927 0-28.93-.036-31.53-.438-31.974-.417-.46-1.402-.484-20.55-.484-18.344 0-20.156.039-20.597.438-.464.42-.484 1.757-.484 31.928 0 28.93.036 31.529.438 31.973.417.46 1.402.484 20.55.484 18.344 0 20.156-.038 20.597-.438zm-20.488-1.348 18.318-.07.144-.593c.079-.327.11-14.007.07-30.4-.04-16.394.016-29.752.126-29.684.109.067.198 13.665.198 30.217 0 23.053-.074 30.168-.317 30.411-.243.242-4.658.302-18.587.253l-18.27-.064zm-18.803-.507c-.245-.245-.223-60.089.022-60.24.11-.067.199 13.499.199 30.147 0 16.648-.01 30.27-.023 30.27-.012 0-.1-.08-.198-.177zm.732-.437c-.22-.574 1.731-4.414 2.244-4.414.246 0 .918-.345 1.492-.766.574-.422 1.759-1.005 2.632-1.297.873-.29 1.825-.613 2.116-.716.291-.103.167.047-.276.333-.442.286-1.026.864-1.297 1.285-.774 1.204-2.09 2.478-2.561 2.481-.237.002-.586.19-.775.417-.207.25-.57.357-.918.27-.434-.11-.65.02-.88.524-.464 1.02-.382 1.173.622 1.173.75 0 .926.101.926.53 0 .47-.176.529-1.596.529-1.076 0-1.64-.114-1.73-.349zm32.694-.031c0-.223.443-1.3.984-2.394.708-1.43 1.125-1.989 1.486-1.989.586 0 .542.245-.441 2.42l-.675 1.493.976-.038c.71-.028.977.07.977.359 0 .302-.395.415-1.654.475-1.342.064-1.653.003-1.653-.326zm-15.33-1.671c-.327-.264-.598-.774-.603-1.133-.02-1.39.32-3.34.75-4.293.247-.547.374-1.07.282-1.163-.265-.264-.974.452-.974.984 0 .264-.12.554-.265.644-.145.09-.264.374-.264.631 0 .768-1.113 1.579-2.605 1.899-1.58.339-1.914.208-1.274-.498.241-.267.439-.599.439-.737 0-.317 1.551-1.692 1.91-1.692.147 0 .727-.258 1.29-.574.804-.453.96-.651.726-.932-.22-.266-.181-.889.155-2.442.247-1.147.425-2.722.394-3.5-.031-.778.022-2.07.117-2.87.15-1.27.134-1.354-.129-.662-.166.437-.643 1.306-1.06 1.932-.416.625-.757 1.383-.757 1.683 0 .912-1.104 2.577-2.102 3.17-1.121.665-2.66.726-3.556.139-.482-.316-1.449-.443-3.779-.5l-3.13-.074-.876-1.756-.875-1.756.566-1.204c.859-1.828 1.5-2.134 4.888-2.338 1.601-.096 3.576-.258 4.389-.36 1.947-.244 2.901.247 3.909 2.011l.76 1.332.574-.972c.315-.534.715-1.5.887-2.146.318-1.187.222-1.425-.707-1.75-.137-.049.007-1.748.331-3.913.722-4.827.724-5.152.015-3.813-.307.58-.724 1.243-.926 1.473-.203.23-.368.579-.368.776 0 .806-1.152 2.657-1.968 3.161-1.015.628-2.232.681-3.72.165-.638-.221-2.145-.368-3.788-.368-3.123 0-3.393-.135-4.38-2.198l-.594-1.24.579-1.313c.878-1.988 1.3-2.18 4.815-2.18 2.237 0 3.205-.107 3.82-.425 1.756-.908 3.885.007 4.847 2.082l.593 1.281.526-.873c.79-1.312.807-1.562.143-2.225-.784-.784-.769-1.304.06-2.072l.669-.62-.538-1.418c-.702-1.852-1.055-2.41-1.06-1.678-.008 1.004-1.245 2.434-2.53 2.925-1.194.456-1.24.454-2.426-.123-.987-.48-1.63-.582-3.487-.555-4 .057-4.208.032-4.767-.567-.29-.311-.605-.936-.702-1.39-.097-.453-.3-.977-.45-1.163-.19-.235-.188-.522.004-.926.152-.323.427-.983.61-1.467.528-1.403 1.071-1.594 4.58-1.617 2.307-.015 3.379-.134 4.04-.448 1.065-.505 2.209-.346 3.227.45.824.643 1.893 2.3 1.895 2.937.001.242.314 1.063.696 1.824.382.76.795 1.693.917 2.072.349 1.08-.034-2.17-.558-4.735-.272-1.336-.369-2.422-.237-2.676.284-.545-.877-2.419-2.234-3.607-.783-.686-1.213-.86-2.123-.86-.946 0-1.304.158-2.094.926-.525.509-1.075.926-1.223.926-.149 0-.706.245-1.239.544-.533.3-1.131.482-1.33.405-.388-.149-.493-.996-.164-1.324a.917.917 0 0 0 .231-.441l.066-.507c.018-.146.271-.265.563-.265.29 0 .529-.11.529-.245s.37-.43.823-.656c.657-.328 1.065-.356 2.02-.143.657.148 1.26.205 1.337.127.078-.077.009-.141-.153-.141s-1.045-.44-1.963-.978c-.917-.538-1.93-.956-2.25-.93-.32.026-.654-.07-.743-.213-.088-.143-.503-.26-.921-.26-.528 0-.812-.162-.928-.53-.093-.29-.274-.529-.403-.529-.13 0-.315-.446-.414-.992-.098-.546-.307-1.154-.465-1.351-.215-.27-.16-.451.218-.728.783-.573 1.238-.451 2.64.708 1.217 1.005 1.75 1.662 2.132 2.628.504 1.272.925 1.784 1.923 2.334.865.478 1.078.522.954.199-.088-.23-.252-.416-.365-.416-.324 0-1.284-2.69-1.286-3.603-.004-1.422 1.978-2.42 2.172-1.094.033.225.219.6.412.834.39.47.48 2.046.177 3.069-.108.364-.253.864-.322 1.112-.087.314.22.667 1.013 1.163 1.29.806 2.354 1.892 3.298 3.364.72 1.124 1.49 1.227 1.633.218.16-1.129-.177-1.837-.959-2.008-1.265-.278-2.406-1.147-2.826-2.154-.458-1.094-.538-2.904-.14-3.15.147-.091.265-1.306.265-2.735 0-2.996.274-3.587 1.857-4.014.574-.154 1.174-.523 1.332-.82.284-.529.299-.527.918.142.347.374.797.68 1.001.68.204 0 .686.292 1.07.649.662.612.701.787.701 3.124 0 1.767.111 2.623.388 2.99 1.013 1.338-.025 3.795-2.042 4.832-1.208.622-1.256.691-1.256 1.802 0 1.48.582 1.548 1.295.15.59-1.158 2.473-2.976 3.768-3.64.49-.25.974-.587 1.077-.747.103-.16.123-1.364.044-2.675-.142-2.371-.138-2.39.671-3.31.675-.768.893-.876 1.279-.633.658.415.859 2.048.412 3.345-.375 1.088-1.27 2.544-1.787 2.906-.432.303.09.236.732-.094.86-.442 2.035-1.604 1.878-1.858-.076-.122.075-.908.335-1.746.472-1.524 1.576-2.979 2.26-2.979.201 0 .488-.123.638-.273.325-.325 1.06-.092 1.247.395.207.539-.477 2.246-1.211 3.024-.366.388-1.186 1.053-1.823 1.478-.637.425-1.46 1.045-1.83 1.377-.369.333-1.143.837-1.72 1.12l-1.048.516 1.648-.02c.906-.01 1.8.101 1.984.247.186.146.664.344 1.065.44.522.124.728.34.731.763.002.325.11.759.24.964.443.7.01 1.082-1.223 1.082-.964 0-1.213-.1-1.325-.53-.077-.29-.361-.528-.635-.528-.275 0-.76-.41-1.093-.923-1.026-1.584-2.845-1.212-4.881.996-1.584 1.718-1.815 2.239-1.263 2.848.319.353.396.711.264 1.235-.263 1.049-1.192 6.745-1.177 7.22.007.219.16-.138.34-.793.18-.655.515-1.607.743-2.117.228-.51.55-1.402.716-1.984.36-1.26.953-2.013 2.172-2.756 1.069-.652 1.95-.694 3.241-.155.646.27 1.866.397 3.81.397 3.386 0 3.803.2 4.715 2.263l.617 1.397-.801 1.48c-.44.813-1.014 1.592-1.273 1.731-.271.145-1.79.189-3.566.103-2.704-.132-3.157-.093-3.603.311-.399.361-.775.425-1.728.295-1.484-.204-2.49-.883-3.166-2.137-.28-.52-.588-.945-.684-.945-.272 0-1.027 2.048-1.027 2.784 0 .36.238.894.53 1.185.67.67.673 1.375.009 1.976-.475.43-.486.533-.134 1.214.582 1.127.864 1.156 1.29.134.563-1.345 1.835-2.062 3.332-1.876.655.08 2.965.244 5.133.362 4.416.241 4.624.339 5.187 2.428.15.557.42 1.075.599 1.15.231.098.194.22-.127.425-.248.158-.53.702-.625 1.21-.313 1.67-1.042 1.973-4.746 1.973-2.217 0-3.527.12-4.15.38-2.326.972-4.964-1.222-4.974-4.137 0-.247-.299-.77-.663-1.163-.363-.392-.661-.875-.661-1.072 0-.197-.121-.358-.27-.358-.148 0-.21.268-.137.595.362 1.632 1.164 6.248 1.208 6.945.077 1.25.025 1.41-.515 1.581-.412.13-.468.297-.3.885.231.806 1.288 2.958 1.453 2.958.058 0 .37-.429.694-.953.324-.524.96-1.179 1.411-1.454.863-.526 3.033-.69 3.48-.263.139.132 1.627.28 3.307.33 3.372.101 4.3.445 4.757 1.759.136.393.404 1.011.596 1.375.283.535.286.788.017 1.323-.183.364-.396.96-.474 1.323-.302 1.414-.384 1.442-4.832 1.654-2.297.11-4.679.225-5.291.258-.773.04-1.34-.106-1.852-.479-.919-.67-1.93-2.6-1.93-3.685 0-.45-.12-.938-.268-1.086-.148-.148-.61-1.076-1.026-2.064-.417-.987-.823-1.689-.904-1.558-.284.459.33 3.995 1.006 5.79.818 2.173 2.041 3.813 3.867 5.184 1.63 1.225 2.398 1.274 3.452.22.437-.437.967-.794 1.18-.794.212 0 .65-.165.971-.367.323-.202.987-.373 1.476-.38.86-.013.884.014.722.83-.093.463-.274.879-.403.923-.128.044-.501.312-.828.595-.628.545-1.033.621-2.8.53-.602-.032-1.174.07-1.27.226-.097.156.187.735.63 1.286.962 1.198 1.324 3.09.74 3.87-.366.488-.4.489-1.192.021-.448-.265-.824-.67-.836-.899-.236-4.527-.197-4.349-1.105-5.048-2.553-1.964-3.886-3.485-4.702-5.366-.92-2.12-.932-1.91-.135 2.287.362 1.902.358 2.121-.04 2.561-.455.504-.302.647 2.137 1.996.286.158.633.664.773 1.124.139.46.394.838.566.838.408 0 .74 1.324.414 1.65-.295.295-2.288-.716-2.992-1.518-.256-.291-.54-1.01-.631-1.596-.171-1.095-1.165-2.754-1.177-1.963-.003.226.096.524.22.662.542.6 1.078 2.96.846 3.717-.13.422-.334 1.115-.455 1.54-.276.97-.64 1.095-1.395.484zm-9.63-.507c-.383-.383-.15-2.354.353-2.999.285-.363.52-.781.524-.928.003-.147.244-.416.535-.598.29-.181.529-.423.529-.536 0-.198-.237-.244-1.775-.34-.909-.057-2.763-.845-3.185-1.353-.177-.213-.354-.67-.393-1.016-.066-.587.006-.623 1.098-.55 1.544.102 2.075.34 3.278 1.467 1.143 1.072 1.19 1.083 2.438.562 1.38-.577 2.917-1.919 4.003-3.496.536-.777 1.027-1.36 1.093-1.295.303.304-2.125 3.164-3.656 4.306-1.676 1.25-1.713 1.305-1.898 2.784-.264 2.116-2.197 4.738-2.943 3.992zm22.975-.22c-1.092-.32-2.778-1.788-2.778-2.42 0-.197-.476-.835-1.058-1.417-1.052-1.052-1.13-1.396-.148-.653.283.214.841.389 1.241.389.4 0 .801.119.891.264.09.146.43.265.755.265.892 0 2.464 1.79 2.493 2.84.03 1.06-.08 1.117-1.396.732zm-14.125-11.973c.3-.898.5-1.103.5-.513 0 .19-.178.577-.394.86-.36.47-.369.44-.106-.347zm16.639-40.555c0-.15.357-.98.794-1.844.436-.865.793-1.636.793-1.713 0-.076-.476-.14-1.058-.14-.764 0-1.058-.11-1.058-.396 0-.312.367-.397 1.72-.397 2.07 0 2.082.043.81 2.795-.7 1.518-1.033 1.967-1.455 1.967-.3 0-.546-.122-.546-.272zm-31.998-1.706c.427-.943.777-1.776.777-1.852 0-.076-.417-.138-.926-.138-.647 0-.926-.12-.926-.397 0-.309.353-.397 1.587-.397 1.935 0 1.995.224.737 2.773-.666 1.35-.978 1.725-1.438 1.725h-.588zm7.742-3.776c5.067-.04 13.283-.04 18.256 0 4.973.04.827.073-9.214.073-10.04 0-14.11-.033-9.042-.073z" transform="translate(95.879 -114.289)"/><path style="fill:#f0d607;stroke-width:.26458332" d="M-59.63 176.47c0-.918 1.658-3.973 2.156-3.973.398 0 .358.216-.321 1.714-.428.943-.777 1.776-.777 1.852 0 .076.476.138 1.058.138 1.07 0 1.41.338.64.633-.23.088-.945.16-1.588.16-.989 0-1.169-.08-1.169-.523zm-32.809-.107c0-.202.368-1.154.819-2.117.542-1.159.972-1.75 1.273-1.75.25 0 .691-.208.981-.462 1.047-.92 2.034-1.436 3.356-1.756.715-.173.728-.157.397.457-1.008 1.864-3.36 3.561-4.456 3.214-.341-.109-.56.121-.883.927-.236.589-.429 1.128-.429 1.198 0 .07.477.127 1.059.127s1.058.12 1.058.265c0 .147-.706.264-1.588.264-1.177 0-1.587-.095-1.587-.367zm17.053-1.864c-.416-.636-.412-.942.052-3.59.09-.509.304-1.202.476-1.54.306-.601.324-.59.825.523.845 1.879.47 5.25-.585 5.25-.19 0-.536-.29-.768-.643zm-9.32-.214c-.399-.486-.257-1.821.273-2.575.254-.36.464-.776.468-.926.007-.27.848-1.12 2.105-2.126.561-.45.602-.457.282-.044-.207.266-.42.961-.475 1.546-.14 1.5-.6 2.468-1.82 3.83-.435.488-.621.553-.833.295zm17.867-.039c-.475-.36-1.034-3.26-.8-4.151.065-.25-.018-.735-.185-1.077-.294-.604-.288-.603.227.04.292.363.69.843.884 1.066.447.514 1.263 2.224 1.4 2.933.115.599-.38 1.561-.797 1.548-.147-.005-.475-.166-.73-.359zm4.896-.083c-.795-.154-2.477-1.835-3.028-3.027l-.445-.964 1.371.321c1.484.348 2.562.913 2.562 1.342 0 .149.22.407.487.574.355.222.455.526.367 1.122-.066.45-.255.802-.42.782-.166-.02-.568-.088-.894-.15zm-9.384-1.228c-.54-.31-1.094-.802-1.233-1.096-.687-1.452-.914-2.517-.537-2.517.12 0 .63.196 1.134.436.79.377 1.175.894 1.317 1.768.02.12.226.36.46.53.233.17.509.578.613.905.244.768-.386.759-1.754-.026zm-8.806-.434c-.09-.144-.036-.412.119-.596.154-.184.524-.659.822-1.056.506-.676 2.833-1.94 3.092-1.68.065.064-.022.54-.192 1.057-.344 1.042-1.39 2.006-2.177 2.006-.281 0-.734.12-1.007.266-.326.174-.55.175-.657.003zm-5.835-3.818c-1.325-.731-2.238-1.549-2.238-2.005 0-.404.167-.487.86-.426 1.56.135 2.438.484 3.164 1.257.395.42.99.873 1.323 1.007l.606.243-.661.045-1.599.104c-.515.033-1.17-.068-1.455-.225zm19.038.072c-.064-.104.126-.266.423-.36.297-.094.73-.46.96-.813.246-.374.677-.641 1.036-.641.339 0 .681-.106.761-.236.216-.349 1.97-.495 2.093-.173.16.424-.3 1.467-.648 1.467-.17 0-.457.201-.637.447-.247.338-.761.454-2.1.473-.974.013-1.824-.06-1.888-.164zm-8.84-.888c-.216-.26-.189-.723.104-1.764.318-1.134.954-7.327.954-9.293 0-.257-.29-.516-.695-.617-.677-.17-.69-.214-.542-1.79.084-.89.334-2.808.554-4.263.497-3.277.498-3.308.063-3.308-.53 0-1.232-.885-1.232-1.554 0-.375.286-.75.792-1.038.436-.248.792-.57.792-.715 0-.22-.398-2.624-1.239-7.468-.129-.746-.058-.888.565-1.125.877-.333 2.006-.343 2.515-.02.33.208.289.822-.294 4.427l-.676 4.186.908.794c.81.707.879.87.64 1.499-.148.387-.513.782-.813.877-.688.219-.686.303.15 4.821.382 2.067.629 3.931.547 4.142-.08.212-.52.467-.976.567l-.83.182.17 3.084c.093 1.696.35 4.198.57 5.56.289 1.778.321 2.558.115 2.763-.424.425-1.805.459-2.142.053zm-6.855-2.42c-.474-.333-1.328-.45-3.592-.49-1.634-.03-3.11-.141-3.281-.247-.171-.105-.642-.887-1.047-1.736l-.736-1.545.584-1.147c1.041-2.048 1.358-2.2 4.702-2.245 1.622-.022 3.284-.171 3.694-.33 1.768-.69 3.507.05 4.62 1.965 1.836 3.163-2.103 7.765-4.944 5.775zm13.602-.155c-1.701-.58-2.779-2.126-2.779-3.988 0-2.748 3.042-4.918 5.31-3.787.63.314 1.612.428 3.707.428 2.68 0 2.898.04 3.663.685.448.377.816.883.818 1.124.002.242.159.737.348 1.101.189.364.262.84.163 1.059-.1.218-.345.932-.546 1.587l-.366 1.19-3.818.074c-2.1.04-3.946.173-4.101.295-.516.402-1.595.506-2.4.232zm-13.326-11.456c-.574-.25-1.844-.398-3.572-.415-3.72-.037-3.869-.097-4.74-1.892l-.737-1.516.575-1.336c.316-.735.788-1.45 1.05-1.59.26-.14 1.855-.255 3.544-.255 2.382 0 3.215-.095 3.722-.428.915-.6 2.602-.52 3.568.168.824.587 1.581 1.782 1.581 2.496 0 .226.134.41.297.41.2 0 .212.108.037.33-.142.183-.335.729-.427 1.214-.191 1.009-1.037 2.303-1.756 2.688-.878.47-2.233.524-3.142.126zm12.366-.305c-1.386-.86-2.3-3.58-1.755-5.215.674-2.021 2.295-2.805 4.466-2.16.926.275 2.465.412 4.627.412 3.186 0 3.25.012 3.789.697.301.383.549.83.55.992 0 .162.182.64.402 1.063.357.685.357.814-.002 1.211-.22.244-.402.68-.402.969 0 .288-.243.785-.54 1.103-.575.618-.791.643-5.08.58-1.712-.024-2.468.075-2.904.38-.76.533-2.266.517-3.151-.032zm-12.263-10.32c-.59-.32-1.648-.44-4.213-.481-3.202-.051-3.458-.094-3.91-.651-.265-.329-.483-.859-.483-1.179 0-.32-.161-.802-.358-1.072-.302-.412-.302-.6-.002-1.175.197-.376.358-.817.359-.98 0-.162.248-.608.55-.991.539-.685.605-.698 3.77-.7 2.424 0 3.419-.104 4.016-.42 1.8-.948 3.814-.109 4.914 2.048 1.05 2.058.528 4.2-1.33 5.451-1.032.696-2.205.748-3.313.15zm13.283.174c-1.847-.325-3.42-2.48-3.105-4.25.275-1.54 1.103-2.676 2.458-3.373 1.199-.617 1.293-.627 2.373-.235.622.226 2.54.485 4.298.58 3.586.194 4.123.459 4.678 2.309.166.554.39 1.008.499 1.008.371 0-1.38 2.914-1.928 3.206-.357.192-1.57.24-3.508.142-2.193-.112-3.093-.062-3.467.191-.787.531-1.221.611-2.298.422zm-17.556-10.873c.091-.455.165-.919.165-1.03 0-.362 2.612-1.583 3.385-1.583.79 0 2.137.77 1.375.785-.22.005-.749.336-1.176.736-.822.77-2.938 1.912-3.55 1.916-.267.002-.32-.218-.199-.824zm21.46-.144c-.223-.34-.542-.617-.71-.617-.169 0-.683-.411-1.144-.914l-.837-.914.742-.163c1.11-.244 3.938.66 3.938 1.26 0 .26.144.705.32.987.41.657.146.909-.994.947-.683.022-1.013-.125-1.316-.586zm-10.49-.62c-1.402-.247-2.312-.942-2.883-2.2-.578-1.273-.618-1.72-.24-2.713.15-.395.311-1.767.359-3.05.099-2.656.49-3.516 1.71-3.76.436-.088 1.04-.424 1.342-.749.302-.324.55-.458.55-.298 0 .16.536.55 1.192.868 1.706.826 1.905 1.234 1.962 4.021.027 1.329.161 2.626.299 2.884 1.226 2.292-1.519 5.49-4.291 4.998zm6.129-1.677c0-.061.312-.316.694-.566.381-.25.613-.324.514-.164-.189.305-1.208.921-1.208.73zm-12.37-1.437c-.473-.693-.86-1.458-.86-1.701 0-.243-.115-.514-.255-.6-.383-.237-.005-1.789.572-2.344.565-.544 1.271-.415 1.271.232 0 .233.17.595.38.803.398.399.375 2.691-.041 4.144l-.208.725zm13.831-.63c-.081-.34-.188-1.333-.238-2.206-.08-1.43-.01-1.688.699-2.592.747-.953.812-.982 1.279-.56.27.245.481.757.47 1.137-.042 1.348-.545 3.167-.915 3.31-.206.079-.375.311-.375.516 0 .205-.174.517-.386.693-.317.263-.413.21-.534-.298zm-16.675.06c-1.019-.41-2.422-.81-2.833-.81-.366 0-1.328-1.543-1.402-2.25-.016-.145-.127-.482-.248-.748-.263-.58.421-1.396.957-1.142 1.68.798 3.644 2.99 4.02 4.488.098.39.146.701.107.692-.04-.01-.31-.114-.6-.23zm19.583-.985c.57-2.794.787-3.38 1.54-4.15.449-.459.881-.841.96-.848.078-.007.422-.109.764-.225.356-.121.732-.102.878.045.422.421-.04 2.056-.81 2.871-.895.947-2.091 1.952-2.325 1.952-.096 0-.385.19-.64.421-.43.388-.458.383-.367-.066zm-26.859-5.49c0-.059.352-.892.783-1.852l.783-1.744h-1.048c-.754 0-1.047-.111-1.047-.397 0-.309.353-.397 1.587-.397 1.247 0 1.588.087 1.588.403 0 .735-1.848 4.095-2.252 4.095-.217 0-.394-.049-.394-.108zm33.47-1.744.933-1.852h-1.062c-.767 0-1.062-.11-1.062-.397 0-.304.337-.397 1.44-.397.792 0 1.51.115 1.597.255.087.14-.262 1.153-.775 2.25-.71 1.516-1.061 1.993-1.469 1.993-.499 0-.472-.124.398-1.852z" transform="translate(95.879 -114.289)"/><path style="fill:#a3991a;stroke-width:.26458332" d="M-59.63 176.47c0-.918 1.658-3.973 2.156-3.973.398 0 .358.216-.321 1.714-.428.943-.777 1.776-.777 1.852 0 .076.476.138 1.058.138 1.07 0 1.41.338.64.633-.23.088-.945.16-1.588.16-.989 0-1.169-.08-1.169-.523zm-32.809-.107c0-.202.368-1.154.819-2.117.542-1.159.972-1.75 1.273-1.75.25 0 .691-.208.981-.462 1.047-.92 2.034-1.436 3.356-1.756.715-.173.728-.157.397.457-1.008 1.864-3.36 3.561-4.456 3.214-.341-.109-.56.121-.883.927-.236.589-.429 1.128-.429 1.198 0 .07.477.127 1.059.127s1.058.12 1.058.265c0 .147-.706.264-1.588.264-1.177 0-1.587-.095-1.587-.367zm17.053-1.864c-.416-.636-.412-.942.052-3.59.09-.509.304-1.202.476-1.54.306-.601.324-.59.825.523.845 1.879.47 5.25-.585 5.25-.19 0-.536-.29-.768-.643zm-9.32-.214c-.399-.486-.257-1.821.273-2.575.254-.36.464-.776.468-.926.007-.27.848-1.12 2.105-2.126.561-.45.602-.457.282-.044-.207.266-.42.961-.475 1.546-.14 1.5-.6 2.468-1.82 3.83-.435.488-.621.553-.833.295zm17.867-.039c-.475-.36-1.034-3.26-.8-4.151.065-.25-.018-.735-.185-1.077-.294-.604-.288-.603.227.04.292.363.69.843.884 1.066.447.514 1.263 2.224 1.4 2.933.115.599-.38 1.561-.797 1.548-.147-.005-.475-.166-.73-.359zm4.896-.083c-.795-.154-2.477-1.835-3.028-3.027l-.445-.964 1.371.321c1.484.348 2.562.913 2.562 1.342 0 .149.22.407.487.574.355.222.455.526.367 1.122-.066.45-.255.802-.42.782-.166-.02-.568-.088-.894-.15zm-9.384-1.228c-.54-.31-1.094-.802-1.233-1.096-.687-1.452-.914-2.517-.537-2.517.12 0 .63.196 1.134.436.79.377 1.175.894 1.317 1.768.02.12.226.36.46.53.233.17.509.578.613.905.244.768-.386.759-1.754-.026zm-8.806-.434c-.09-.144-.036-.412.119-.596.154-.184.524-.659.822-1.056.506-.676 2.833-1.94 3.092-1.68.065.064-.022.54-.192 1.057-.344 1.042-1.39 2.006-2.177 2.006-.281 0-.734.12-1.007.266-.326.174-.55.175-.657.003zm-5.835-3.818c-1.325-.731-2.238-1.549-2.238-2.005 0-.404.167-.487.86-.426 1.56.135 2.438.484 3.164 1.257.395.42.99.873 1.323 1.007l.606.243-.661.045-1.599.104c-.515.033-1.17-.068-1.455-.225zm19.038.072c-.064-.104.126-.266.423-.36.297-.094.73-.46.96-.813.246-.374.677-.641 1.036-.641.339 0 .681-.106.761-.236.216-.349 1.97-.495 2.093-.173.16.424-.3 1.467-.648 1.467-.17 0-.457.201-.637.447-.247.338-.761.454-2.1.473-.974.013-1.824-.06-1.888-.164zm-8.84-.888c-.216-.26-.189-.723.104-1.764.318-1.134.954-7.327.954-9.293 0-.257-.29-.516-.695-.617-.677-.17-.69-.214-.542-1.79.084-.89.334-2.808.554-4.263.497-3.277.498-3.308.063-3.308-.524 0-1.232-.882-1.232-1.536 0-.333.3-.756.728-1.023.4-.25.77-.484.82-.519.052-.035-.177-1.648-.51-3.586-.854-4.99-.85-5.057.315-5.346 1.066-.263 2.351-.042 2.351.406 0 .212-.098.21-.355-.003-.421-.35-.703-.133-.703.539 0 .559.285.623.74.167.409-.408.413-.466-.317 3.89l-.622 3.704.912.794c.813.707.883.87.644 1.498-.148.388-.513.783-.813.878-.688.218-.686.303.15 4.82.689 3.725.697 4.581.042 4.573-.247-.003-.236-.07.04-.244.315-.2.321-.312.034-.657-.552-.666-.868-.491-.678.376.14.634.086.794-.266.794-.394 0-.422.31-.271 2.977.166 2.93.55 6.236.828 7.143.095.312-.001.463-.295.463-.24 0-.382.15-.316.331.067.182.285.293.485.246.29-.068.298-.018.036.25-.457.463-1.83.527-2.185.1zm1.323-.397c0-.146-.053-.265-.117-.265s-.19.12-.28.265c-.09.145-.038.264.116.264.155 0 .28-.119.28-.264zm.183-12.364c-.067-.258-.126-.111-.132.325-.005.437.05.647.122.468.073-.179.077-.536.01-.793zm-.187-19.127c.129.208.238.104.316-.301.095-.498-.002-.627-.494-.658-.418-.026-.612.107-.612.42 0 .57.35.95.49.531.078-.235.151-.233.3.008zm-8.174 29.468c-.474-.333-1.328-.45-3.592-.49-1.634-.03-3.11-.141-3.281-.247-.171-.105-.642-.887-1.047-1.736l-.736-1.545.584-1.147c1.041-2.048 1.358-2.2 4.702-2.245 1.622-.022 3.284-.171 3.694-.33 1.768-.69 3.507.05 4.62 1.965 1.836 3.163-2.103 7.765-4.944 5.775zm-.816-2.609c.144-.09.262-.036.262.118s.12.28.265.28c.34 0 .345-2.928.006-3.819-.144-.38-.464-.677-.727-.674-.371.003-.393.052-.104.235.293.186.267.262-.132.384-.573.176-1.325.093-1.593-.175-.101-.101-.015-.191.19-.2.535-.025-.8-.574-1.71-.705-.634-.091-.734-.033-.59.343.148.384.112.401-.237.112-.594-.493-1.544.014-2.375 1.27-.64.968-.656 1.071-.277 1.797.221.424.403.9.404 1.057.001.304 6.123.283 6.618-.023zm-5.608-.311c.191-.077.42-.067.507.02.088.088-.068.15-.347.14-.308-.013-.371-.076-.16-.16zm.196-3.233c-.491-.193-.488-.209.067-.354.32-.084.52-.054.447.065-.074.12.015.278.198.351.183.074.213.136.068.137-.146 0-.497-.089-.78-.2zm1.853-.53c-.081-.133.09-.178.381-.102.618.161.696.341.149.341-.21 0-.448-.108-.53-.24zm17.977 6.528c-1.701-.58-2.779-2.127-2.779-3.988 0-2.748 3.042-4.918 5.31-3.787.63.315 1.614.428 3.723.428 2.762 0 2.893.026 3.638.727.425.4.843 1.085.93 1.522.13.648.049.575-.437-.397-.445-.89-.73-1.172-1.125-1.117-.291.04-.827.084-1.19.095-.364.012-.834.158-1.044.323-.293.232-.335.226-.182-.029.257-.428-.412-.439-.838-.013-.247.247-.318.247-.318 0 0-.472-2.761-.419-3.16.061-.173.208-.382 1.042-.466 1.852l-.152 1.474h2.698c1.732 0 2.64.095 2.535.264-.101.165.394.265 1.308.265 1.155 0 1.47.088 1.47.412 0 .227.12.34.265.25.146-.09.265-.382.265-.647 0-.615.662-1.91.87-1.702.086.086.06.352-.057.591-.118.239-.38.97-.58 1.625l-.366 1.19-3.818.074c-2.1.041-3.946.173-4.101.295-.516.402-1.595.507-2.4.232zm7.876-2.768c.257-.067.615-.063.794.01.179.072-.032.127-.468.122-.437-.005-.583-.065-.326-.132zm-3.031-3.437c.19-.076.419-.067.507.02.088.089-.068.151-.347.14-.309-.013-.371-.076-.16-.16zm-18.171-5.25c-.574-.252-1.844-.4-3.572-.416-1.475-.015-2.98-.105-3.343-.201-.917-.242-2.226-2.894-1.868-3.786.139-.347.257-.444.27-.22.012.218.258.917.547 1.552.44.972.587 1.104.917.83.216-.179.33-.429.251-.554-.077-.126.966-.214 2.318-.196 4.225.058 3.915.174 3.915-1.472 0-1.492-.33-1.91-1.234-1.562-.26.1-.374.06-.278-.094.103-.167-.861-.255-2.669-.243-1.878.012-2.813.115-2.779.305.028.158-.11.287-.306.287-.473 0-.206-.653.4-.977.265-.142 1.862-.258 3.55-.258 2.383 0 3.216-.095 3.723-.428.915-.6 2.602-.52 3.568.168.824.587 1.581 1.782 1.581 2.496 0 .226.134.41.297.41.2 0 .212.108.037.33-.142.183-.335.729-.427 1.214-.191 1.009-1.037 2.303-1.756 2.688-.878.47-2.233.524-3.142.126zm12.366-.306c-1.386-.86-2.3-3.58-1.755-5.215.614-1.842 2.416-2.864 3.98-2.258.468.181 2.565.4 4.66.486 3.764.154 3.816.165 4.348.88.297.397.46.801.365.897-.096.096-.26-.05-.363-.326-.343-.911-.953-1.147-2.867-1.108l-1.852.039 1.72.185c1.162.126.678.153-1.493.085-3.663-.114-3.534-.193-3.534 2.177v1.439l2.513-.177c1.948-.137 2.514-.101 2.514.16 0 .217.116.253.33.1.59-.419 1.383-.241 1.65.37.402.914.62.728 1.116-.957.447-1.517.464-1.536.802-.886.291.561.282.734-.057 1.109-.22.244-.402.68-.402.969 0 .288-.243.785-.54 1.103-.575.618-.791.643-5.08.58-1.712-.024-2.468.075-2.904.38-.76.533-2.266.517-3.151-.032zm-15.908-3.699c.182-.073.48-.073.662 0 .182.073.033.134-.33.134-.365 0-.513-.06-.332-.134zm1.725-.008c.258-.067.615-.063.794.01.18.073-.031.127-.468.122-.437-.005-.583-.065-.326-.132zm-4.552-1.658c-.223-.138-.135-.252.28-.36.735-.192.81-.141.377.257-.182.167-.478.214-.657.103zm1.906-.459c.258-.067.615-.062.794.01.18.073-.031.128-.468.122-.436-.005-.583-.064-.326-.131zm4.566-4.497c-.59-.319-1.648-.44-4.213-.48-3.202-.051-3.458-.094-3.91-.651-.265-.328-.479-.852-.474-1.163.008-.534.029-.539.368-.091.34.448.39.437.89-.199.565-.718 1.008-.86 1.17-.375.064.192.401.231.95.11.468-.102.78-.3.694-.44-.16-.26 1.725-.148 3.13.186.725.172.727.169.727-1.268v-1.441l-2.017.114c-1.425.08-1.963.028-1.836-.178.099-.16.5-.305.892-.322.477-.02.554-.072.233-.155-.264-.068-.877.065-1.363.296-.925.439-2.692.601-2.038.187.281-.178.263-.258-.088-.393-.635-.243-.927-.209-.927.111 0 .155.138.196.306.092.176-.11.234-.073.136.085-.21.338-1.236.628-1.236.348 0-.112.255-.527.565-.922.538-.683.65-.711 2.315-.577.963.078 2.346.156 3.074.175l1.323.033-.794.363-.794.364 1.13.012c1.04.01 1.117-.035.98-.584-.119-.48.015-.666.696-.965 1.223-.537 2.266-.42 3.3.368 1.834 1.398 2.526 4.019 1.518 5.744-1.072 1.835-3.049 2.514-4.707 1.616zm13.283.175c-1.847-.325-3.42-2.479-3.105-4.25.275-1.54 1.103-2.676 2.458-3.373 1.215-.626 1.28-.631 2.382-.21.673.257 1.914.433 3.058.433 1.34 0 1.87.089 1.744.292-.121.196-.001.236.359.122.297-.094.618-.044.714.111.118.19-.298.259-1.274.21-.797-.041-1.394-.163-1.327-.272.066-.11-.273-.195-.754-.19-.827.008-.847.03-.362.396.718.543.279.487-.579-.074-.39-.255-.623-.325-.518-.155.104.17.05.355-.122.412-.176.058-.363.812-.43 1.726l-.117 1.621 3.084-.073c1.697-.04 3.147.03 3.224.154.077.124.256.154.398.067.317-.196 1.074.392.889.691-.074.12-.025.284.107.365.132.082.322-.177.422-.575.196-.78.608-1.389.94-1.389.378 0-1.362 2.91-1.918 3.207-.357.19-1.57.24-3.508.141-2.193-.111-3.093-.062-3.467.191-.787.532-1.221.611-2.298.422zm-22.355-3.695c-.174-.278-.213-.57-.087-.648.336-.207.82.48.595.843-.134.218-.287.16-.508-.195zm32.57-1.686c-.124-.22-.522-.52-.885-.665-.488-.194-.535-.267-.18-.28.263-.008.41-.127.326-.262-.084-.136-.478-.2-.876-.142-.696.101-.7.094-.127-.19.486-.243.697-.205 1.149.204.64.579 1.135 1.419.947 1.607-.072.071-.231-.051-.355-.272zm-6.505-.607c.182-.074.48-.074.661 0 .182.073.033.133-.33.133-.364 0-.513-.06-.331-.133zm-21.266-4.885c.091-.455.165-.919.165-1.03 0-.362 2.612-1.583 3.385-1.583.79 0 2.137.77 1.375.785-.22.005-.749.336-1.176.736-.822.77-2.938 1.912-3.55 1.916-.267.002-.32-.218-.199-.824zm21.46-.144c-.223-.34-.542-.617-.71-.617-.169 0-.683-.411-1.144-.914l-.837-.914.742-.163c1.11-.244 3.938.661 3.938 1.26 0 .26.144.705.32.987.41.657.146.909-.994.947-.683.023-1.013-.124-1.316-.586zm-10.49-.619c-1.402-.248-2.312-.943-2.883-2.201-.586-1.29-.62-1.73-.213-2.74.166-.41.275-1.202.243-1.76-.088-1.535.254-3.56.624-3.702.234-.09.327.229.32 1.104-.004.677.016 1.85.046 2.608.053 1.35.073 1.382 1.046 1.652 1.475.41 2.398.345 2.647-.184.12-.255.2-1.772.18-3.372l-.037-2.908-.833-.239c-.815-.234-1.092-.764-.568-1.088.146-.09.265-.048.265.093 0 .141.537.516 1.193.834 1.706.826 1.905 1.234 1.962 4.021.027 1.329.161 2.627.299 2.884 1.227 2.292-1.519 5.49-4.291 4.998zm6.129-1.678c0-.061.312-.316.694-.566.381-.25.613-.324.514-.164-.189.306-1.208.922-1.208.73zm-12.37-1.437c-.473-.693-.86-1.458-.86-1.701 0-.243-.115-.513-.255-.6-.383-.237-.005-1.789.572-2.344.565-.544 1.271-.415 1.271.232 0 .233.17.595.38.803.398.399.375 2.691-.041 4.145l-.208.724zm13.831-.63c-.081-.34-.188-1.333-.238-2.206-.08-1.43-.01-1.688.699-2.592.747-.953.812-.981 1.279-.56.27.245.481.757.47 1.137-.042 1.348-.545 3.168-.915 3.31-.206.079-.375.311-.375.516 0 .205-.174.517-.386.694-.317.262-.413.209-.534-.299zm-16.675.06c-1.019-.41-2.422-.81-2.833-.81-.366 0-1.328-1.543-1.402-2.25-.016-.145-.127-.482-.248-.748-.263-.58.421-1.396.957-1.142 1.68.798 3.644 2.99 4.02 4.488.098.39.146.702.107.692-.04-.01-.31-.114-.6-.23zm19.583-.985c.57-2.794.787-3.38 1.54-4.149.449-.46.881-.842.96-.85.078-.006.422-.107.764-.224.356-.12.732-.102.878.045.422.421-.04 2.056-.81 2.871-.895.947-2.091 1.952-2.325 1.952-.096 0-.385.19-.64.421-.43.388-.458.383-.367-.066zm-26.859-5.49c0-.059.352-.892.783-1.852l.783-1.744h-1.048c-.754 0-1.047-.111-1.047-.397 0-.309.353-.397 1.587-.397 1.247 0 1.588.087 1.588.404 0 .734-1.848 4.094-2.252 4.094-.217 0-.394-.048-.394-.108zm33.47-1.744.933-1.852h-1.062c-.767 0-1.062-.11-1.062-.397 0-.304.337-.397 1.44-.397.792 0 1.51.115 1.597.256.087.14-.262 1.152-.775 2.249-.71 1.517-1.061 1.993-1.469 1.993-.499 0-.472-.124.398-1.852zm-17.86.16c0-.057.185-.174.411-.261.236-.09.342-.046.25.104-.156.251-.66.372-.66.157z" transform="translate(95.879 -114.289)"/><path style="fill:#b52d25;stroke-width:.26458332" d="M-59.63 176.47c0-.918 1.658-3.973 2.156-3.973.398 0 .358.216-.321 1.714-.428.943-.777 1.776-.777 1.852 0 .076.41.138.91.138.99 0 1.456.377.786.634-.23.088-.943.16-1.586.16-.989 0-1.169-.081-1.169-.524zm-32.809-.132c0-.708 1.693-3.841 2.076-3.841.206 0 .935-.403 1.62-.895.684-.492 1.532-.977 1.883-1.079 1.73-.5 1.639-.515 1.255.195-.642 1.189-2.023 2.545-3.012 2.959-1.305.545-1.508.515-1.302-.188l.175-.595-.433.59c-.404.551-1.204 2.262-1.204 2.576 0 .078.477.141 1.059.141s1.058.12 1.058.265c0 .147-.706.264-1.588.264-1.225 0-1.587-.09-1.587-.392zm17.056-1.835c-.469-.715-.382-1.931.313-4.387l.411-1.455.545 1.058c.93 1.805.594 5.424-.504 5.424-.19 0-.535-.288-.765-.64zm-9.323-.218c-.399-.486-.257-1.821.273-2.575.254-.36.46-.763.46-.895 0-.228.592-.82 2.115-2.12.642-.548.647-.549.199-.014-.264.315-.463.993-.465 1.588-.002.57-.176 1.335-.387 1.699-.21.363-.464.823-.564 1.02-.1.198-.447.646-.77.995-.457.493-.65.56-.861.302zm17.867-.039c-.475-.36-1.034-3.26-.8-4.151.065-.25-.016-.705-.18-1.01-.563-1.054-.058-.554.986.976 1.46 2.138 1.811 3.237 1.3 4.057-.363.58-.671.61-1.306.128zm4.896-.083c-1.095-.212-3.636-3.215-3.14-3.71.069-.07.625-.04 1.235.062 1.537.26 3.158 1.786 3.159 2.974 0 .87-.063.903-1.254.674zm-9.384-1.228c-.54-.31-1.094-.802-1.233-1.096-.687-1.452-.914-2.517-.537-2.517.12 0 .63.196 1.134.436.79.377 1.175.894 1.317 1.768.02.12.226.36.46.53.233.17.509.578.613.905.244.768-.386.759-1.754-.026zm-8.79-.407c-.08-.13.032-.383.249-.563.216-.18.394-.47.394-.643 0-.369 1.198-1.47 1.598-1.47.15 0 .57-.196.933-.434.859-.563 1.032-.348.65.808-.343 1.042-1.39 2.006-2.176 2.006-.281 0-.734.12-1.007.266-.283.151-.558.164-.64.03zm-5.84-3.836c-2.263-1.26-2.9-2.397-1.322-2.356 1.565.04 2.477.407 3.217 1.295.411.493.977.897 1.257.897.28 0 .45.058.38.129-.283.283-3.037.31-3.532.035zm19.183.196c0-.254 1.744-1.71 2.116-1.767.263-.04.638-.201.834-.358.51-.407 2.036-.575 2.164-.238.163.43-.293 1.474-.645 1.474-.17 0-.457.201-.637.447-.246.337-.76.454-2.08.472-.964.014-1.752 0-1.752-.03zm-8.837-.845c-.075-.121.037-.22.25-.22.211 0 .384.099.384.22s-.112.22-.248.22c-.137 0-.31-.099-.386-.22zm-.037-1.764c.594-2.095 1.106-9.653.673-9.92-.22-.137-.188-.24.109-.353.347-.134.425.076.454 1.22.103 4.083.462 7.763.896 9.185.095.313-.135.397-1.08.397-1.075 0-1.186-.055-1.052-.529zm-7.07-.881c-.401-.265-.65-.562-.55-.66.097-.098-.719-.179-1.814-.179-1.095 0-2.562-.078-3.26-.174-1.043-.142-1.235-.107-1.075.199.106.205-.054.091-.356-.252-.667-.758-.733-1.342-.086-.762.352.315 1.22.436 3.63.504l3.166.088.383-.788c.311-.641.33-1.138.104-2.646-.153-1.022-.36-2.054-.459-2.294-.138-.334.046-.51.782-.754 1.959-.646 3.923.36 4.753 2.434 1.335 3.337-2.414 7.133-5.218 5.284zm13.695-.106c-2.477-.845-3.523-3.798-2.128-6.007.782-1.239 1.548-1.811 2.718-2.03.735-.139 2.452.27 2.452.583 0 .052-.237.484-.528.96-.675 1.107-.746 3.92-.114 4.552.465.465 1.171.557 1.171.151 0-.145.387-.247.86-.225l.86.04-.793.157c-.46.091.49.22 2.248.305l3.043.147-3.666.052c-3.052.044-3.642.116-3.522.43.3.78-1.307 1.327-2.601.885zm10.736-2.739c.013-.308.076-.371.16-.16.076.191.067.42-.02.507-.089.088-.151-.068-.14-.347zm-32.775-.651c-.178-.285-.216-.518-.085-.518.238 0 .647.795.49.952-.045.046-.228-.15-.405-.434zm15.032-7.166c.003-.345.171-1.58.374-2.744.705-4.034.782-5.16.354-5.16-.556 0-1.262-.87-1.262-1.554 0-.375.286-.75.792-1.038.436-.248.793-.609.794-.802.002-.438-1.027-6.367-1.21-6.97-.118-.39-.025-.408.823-.147.703.215 1.166.215 1.74-.002.778-.294.78-.291.625.545a272 272 0 0 0-.629 3.75l-.472 2.91.871.818c1.002.938.978 1.816-.063 2.29-.781.356-.78.6.031 4.698.818 4.135.817 4.104.116 3.613-.583-.409-1.98-.328-2.558.148-.248.204-.33.116-.326-.355zm3.042-8.975c.331-1.043-1.06-1.814-2.374-1.314-1.63.62-.91 1.856 1.08 1.856.898 0 1.156-.108 1.294-.542zm-2.458-.034c-.45-.45.097-1.011.987-1.011.917 0 1.117.21.787.828-.297.554-1.3.658-1.774.183zm-6.939 8.052c-.651-.315-1.908-.49-4.233-.588l-3.307-.141-.72-1.455c-.765-1.55-.853-1.852-.537-1.852.109 0 .45.62.759 1.378.673 1.655.85 1.721 4.62 1.743 2.968.018 2.482-.354-.589-.45-3.391-.106-3.653-.493-.309-.457 2.183.023 3.328-.067 3.543-.28.445-.44.618-2.686.297-3.85-.338-1.222.008-1.561 1.742-1.71 2.225-.192 3.862 1.446 3.826 3.828-.046 3.014-2.681 4.998-5.092 3.834zm12.361-.273c-1.422-.881-2.265-3.887-1.574-5.615.61-1.526 2.27-2.308 3.916-1.847l1.086.304-.227 1.367c-.226 1.367-.084 3.502.273 4.08.128.206 1.45.318 4.066.343 3.439.032 3.857.084 3.713.461-.09.233-.2.311-.246.173-.05-.148-1.611-.218-3.795-.17-2.043.043-3.647.184-3.568.312.246.398-.996 1.062-1.975 1.055-.513-.004-1.264-.212-1.669-.463zm11.482-1.947c-.05-.71.665-2.19.885-1.833.107.173.017.516-.2.761-.218.246-.454.685-.525.976-.091.373-.138.402-.16.096zm-23.91-8.39c-.576-.254-.94-.577-.868-.768.095-.253-.614-.331-3.02-.331-1.73 0-3.353-.08-3.607-.177-.348-.134-.41-.085-.248.198.146.256.128.291-.059.111-.15-.145-.362-.557-.47-.914-.186-.611-.171-.623.253-.198.378.378 1.002.45 3.862.45 4.09 0 3.996.084 3.847-3.38-.1-2.312-.085-2.386.546-2.673 1.003-.457 2.047-.354 3.033.3 1.004.664 2.112 2.65 2.146 3.842.032 1.137-.848 2.741-1.881 3.43-1.042.693-2.133.727-3.534.11zm13.489.212c-1.737-.299-3.28-2.319-3.121-4.086.227-2.52 2.775-4.516 4.792-3.754.69.26.795.413.667.971-.322 1.403-.476 3.423-.311 4.08.17.677.199.684 2.879.719 1.894.024 2.429.093 1.78.23-.73.153-.504.202 1.072.23 1.287.022 2.116-.083 2.33-.296.268-.266.3-.24.158.132-.193.506-.16.502-4.882.524-2.886.013-2.94.023-1.059.193l1.985.18-1.886.047c-1.24.032-1.99.174-2.192.416-.417.503-1.03.618-2.212.414zm3.713-2.557c.33-.063.805-.06 1.058.005.253.067-.016.118-.598.115-.582-.003-.79-.057-.46-.12zm6.829-.342c.095-.363.278-.774.408-.912.377-.405.261.175-.183.912l-.398.662zm-32.906-.805c-.204-.328-.222-.518-.048-.518.152 0 .346.184.432.409.238.62-.019.693-.384.109zm.732-2.62c.152-.282.406-.595.566-.694.16-.098.086.133-.164.515-.53.808-.804.93-.402.18zm4.076-4.545c.091-.455.165-.931.165-1.059 0-.127.239-.231.53-.231.29 0 .529-.11.529-.245 0-.366 1.567-1.078 2.371-1.078.76 0 2.064.77 1.33.785-.22.005-.749.336-1.176.736-.822.77-2.938 1.912-3.55 1.916-.267.002-.32-.218-.199-.824zm21.46-.144c-.223-.34-.542-.617-.71-.617-.169 0-.679-.406-1.134-.903l-.827-.903.742-.149c.85-.17 2.273.06 2.484.402.078.126.433.23.788.23.47 0 .646.144.646.533 0 .293.144.764.32 1.046.41.657.146.909-.994.947-.683.022-1.013-.125-1.316-.586zm-10.49-.619c-1.433-.254-2.323-.955-2.916-2.296-.375-.847-.478-1.467-.355-2.126l.175-.93 1.107.216c.608.119 1.82.222 2.694.23l1.587.013v-3.373c0-1.856.067-3.374.148-3.374.081 0 .38.18.662.398.295.229.345.34.116.262-.336-.114-.403.335-.44 2.938l-.043 3.074.747-.15c.833-.166 1.06.143 1.06 1.45 0 2.16-2.348 4.057-4.542 3.668zm-6.241-3.115c-.473-.693-.86-1.458-.86-1.701 0-.243-.115-.514-.255-.6-.38-.235-.003-1.732.582-2.317.592-.592 1.261-.44 1.261.286 0 .278.17.646.378.819.4.331.377 2.595-.039 4.047l-.208.725zm13.831-.63c-.081-.34-.187-1.333-.235-2.206-.074-1.357.008-1.712.565-2.447.961-1.267 1.586-1.124 1.796.412.14 1.028-.391 3.16-.83 3.33-.207.079-.376.311-.376.516 0 .205-.174.517-.386.693-.317.263-.413.21-.534-.298zm-16.94-.034c-.436-.138-1-.355-1.253-.483-.252-.129-.745-.234-1.094-.234-.462 0-.751-.245-1.062-.9-.235-.495-.427-1.032-.427-1.194 0-.162-.146-.529-.325-.816-.269-.429-.249-.598.111-.958.55-.55 1.23-.254 2.883 1.258.685.627 2.275 3.347 2.052 3.51-.05.036-.448-.046-.884-.183zm19.817-.732c.07-.21.26-1.055.422-1.878.283-1.44 1.432-3.134 2.125-3.134.146 0 .5-.146.785-.324 1.295-.81 1.32 1.505.031 2.87-.895.947-2.091 1.952-2.325 1.952-.096 0-.398.202-.67.448-.374.338-.464.354-.368.066zm-26.828-5.649c0-.059.352-.892.783-1.852l.783-1.744h-1.048c-.754 0-1.047-.111-1.047-.397 0-.309.353-.397 1.587-.397 1.247 0 1.588.087 1.588.404 0 .734-1.848 4.094-2.252 4.094-.217 0-.394-.048-.394-.108zm32.808-.153c0-.143.353-.947.783-1.785l.783-1.526-1.047-.081c-.699-.055-1.048-.209-1.048-.463 0-.286.362-.382 1.44-.382.792 0 1.51.115 1.597.255.252.407-1.655 4.243-2.108 4.243-.22 0-.4-.117-.4-.26zm-15.437-1.826c-.414-.273-.652-.555-.529-.626.123-.071.519.153.88.498.788.755.667.799-.35.128z" transform="translate(95.879 -114.289)"/><path style="fill:#1b8d38;stroke-width:.26458332" d="M-59.63 176.47c0-.918 1.658-3.973 2.156-3.973.398 0 .358.216-.321 1.714-.428.943-.777 1.776-.777 1.852 0 .076.41.138.91.138.99 0 1.456.377.786.634-.23.088-.943.16-1.586.16-.989 0-1.169-.081-1.169-.524zm-32.809-.132c0-.708 1.693-3.841 2.076-3.841.206 0 .935-.403 1.62-.895.684-.492 1.532-.977 1.883-1.079 1.73-.5 1.639-.515 1.255.195-.642 1.189-2.023 2.545-3.012 2.959-1.305.545-1.508.515-1.302-.188l.175-.595-.433.59c-.404.551-1.204 2.262-1.204 2.576 0 .078.477.141 1.059.141s1.058.12 1.058.265c0 .147-.706.264-1.588.264-1.225 0-1.587-.09-1.587-.392zm17.056-1.835c-.469-.715-.382-1.931.313-4.387l.411-1.455.545 1.058c.93 1.805.594 5.424-.504 5.424-.19 0-.535-.288-.765-.64zm-9.323-.218c-.399-.486-.257-1.821.273-2.575.254-.36.46-.763.46-.895 0-.228.592-.82 2.115-2.12.642-.548.647-.549.199-.014-.264.315-.463.993-.465 1.588-.002.57-.176 1.335-.387 1.699-.21.363-.464.823-.564 1.02-.1.198-.447.646-.77.995-.457.493-.65.56-.861.302zm17.867-.039c-.475-.36-1.034-3.26-.8-4.151.065-.25-.016-.705-.18-1.01-.563-1.054-.058-.554.986.976 1.46 2.138 1.811 3.237 1.3 4.057-.363.58-.671.61-1.306.128zm4.896-.083c-1.095-.212-3.636-3.215-3.14-3.71.069-.07.625-.04 1.235.062 1.537.26 3.158 1.786 3.159 2.974 0 .87-.063.903-1.254.674zm-9.384-1.228c-.54-.31-1.094-.802-1.233-1.096-.687-1.452-.914-2.517-.537-2.517.12 0 .63.196 1.134.436.79.377 1.175.894 1.317 1.768.02.12.226.36.46.53.233.17.509.578.613.905.244.768-.386.759-1.754-.026zm-8.79-.407c-.08-.13.032-.383.249-.563.216-.18.394-.47.394-.643 0-.369 1.198-1.47 1.598-1.47.15 0 .57-.196.933-.434.859-.563 1.032-.348.65.808-.343 1.042-1.39 2.006-2.176 2.006-.281 0-.734.12-1.007.266-.283.151-.558.164-.64.03zm-5.84-3.836c-2.263-1.26-2.9-2.397-1.322-2.356 1.565.04 2.477.407 3.217 1.295.411.493.977.897 1.257.897.28 0 .45.058.38.129-.283.283-3.037.31-3.532.035zm19.183.196c0-.254 1.744-1.71 2.116-1.767.263-.04.638-.201.834-.358.51-.407 2.036-.575 2.164-.238.163.43-.293 1.474-.645 1.474-.17 0-.457.201-.637.447-.246.337-.76.454-2.08.472-.964.014-1.752 0-1.752-.03zm-8.837-.845c-.075-.121.037-.22.25-.22.211 0 .384.099.384.22s-.112.22-.248.22c-.137 0-.31-.099-.386-.22zm-7.107-2.645c-.401-.265-.65-.562-.55-.66.097-.098-.719-.179-1.814-.179-1.095 0-2.562-.078-3.26-.174-1.043-.142-1.235-.107-1.075.199.106.205-.054.091-.356-.252-.667-.758-.733-1.342-.086-.762.352.315 1.22.436 3.63.504l3.166.088.383-.788c.311-.641.33-1.138.104-2.646-.153-1.022-.36-2.054-.459-2.294-.138-.334.046-.51.782-.754 1.959-.646 3.923.36 4.753 2.434 1.335 3.337-2.414 7.133-5.218 5.284zm13.695-.106c-2.477-.845-3.523-3.798-2.128-6.007.782-1.239 1.548-1.811 2.718-2.03.735-.139 2.452.27 2.452.583 0 .052-.237.484-.528.96-.675 1.107-.746 3.92-.114 4.552.465.465 1.171.557 1.171.151 0-.145.387-.247.86-.225l.86.04-.793.157c-.46.091.49.22 2.248.305l3.043.147-3.666.052c-3.052.044-3.642.116-3.522.43.3.78-1.307 1.327-2.601.885zm-5.9-1.954c-.19-.205-.292-.46-.227-.568.065-.107.199-1.552.297-3.21.129-2.167.093-3.069-.127-3.205-.213-.131-.179-.237.114-.35.334-.128.422.038.433.824.008.54.076 2.252.15 3.802.134 2.828-.001 3.399-.64 2.707zm16.636-.785c.013-.308.076-.371.16-.16.076.191.067.42-.02.507-.089.088-.151-.068-.14-.347zm-32.775-.651c-.178-.285-.216-.518-.085-.518.238 0 .647.795.49.952-.045.046-.228-.15-.405-.434zm15.027-6.868c0-.145.126-.264.28-.264.154 0 .207.119.117.264-.09.146-.216.265-.28.265-.064 0-.117-.12-.117-.265zm-6.35-1.256c-.651-.314-1.908-.489-4.233-.587l-3.307-.141-.72-1.455c-.765-1.55-.853-1.852-.537-1.852.109 0 .45.62.759 1.378.673 1.655.85 1.721 4.62 1.743 2.968.017 2.482-.354-.589-.45-3.391-.106-3.653-.493-.309-.457 2.183.023 3.328-.067 3.543-.28.445-.44.618-2.686.297-3.85-.338-1.222.008-1.561 1.742-1.71 2.225-.192 3.862 1.446 3.826 3.828-.046 3.014-2.681 4.998-5.092 3.833zm12.361-.272c-1.422-.881-2.265-3.887-1.574-5.615.61-1.526 2.27-2.308 3.916-1.847l1.086.304-.227 1.367c-.226 1.367-.084 3.502.273 4.08.128.206 1.45.318 4.066.343 3.439.032 3.857.084 3.713.46-.09.234-.2.312-.246.174-.05-.148-1.611-.218-3.795-.171-2.043.044-3.647.185-3.568.313.246.398-.996 1.062-1.975 1.055-.513-.004-1.264-.212-1.669-.463zm11.482-1.947c-.05-.71.665-2.19.885-1.833.107.173.017.516-.2.761-.218.245-.454.684-.525.976-.091.373-.138.401-.16.096zm-16.17-.626c0-.218-.134-.397-.299-.397-.21 0-.245-.544-.116-1.852.148-1.5.112-1.852-.19-1.852-.543 0-1.247-.877-1.247-1.554 0-.38.285-.745.812-1.038.768-.426.804-.516.658-1.668-.099-.776-.02-1.536.215-2.097l.37-.88.394.775c.275.541.34 1.132.215 1.964-.166 1.105-.116 1.25.682 2.008.99.94.96 1.818-.075 2.29-.687.313-.776.95-.377 2.671.187.803.145 1.121-.197 1.521-.52.608-.845.65-.845.11zm1.724-5.172c.331-1.043-1.06-1.814-2.374-1.314-1.63.62-.91 1.856 1.08 1.856.898 0 1.156-.108 1.294-.542zm-2.458-.034c-.45-.45.097-1.011.987-1.011.917 0 1.117.21.787.828-.297.554-1.3.658-1.774.183zm-7.006-2.558c-.576-.254-.94-.577-.868-.768.095-.253-.614-.331-3.02-.331-1.73 0-3.353-.08-3.607-.177-.348-.134-.41-.085-.248.198.146.256.128.291-.059.111-.15-.145-.362-.557-.47-.914-.186-.611-.171-.623.253-.198.378.378 1.002.45 3.862.45 4.09 0 3.996.084 3.847-3.38-.1-2.312-.085-2.386.546-2.673 1.003-.457 2.047-.354 3.033.3 1.004.664 2.112 2.65 2.146 3.842.032 1.137-.848 2.741-1.881 3.43-1.042.693-2.133.727-3.534.11zm13.489.212c-1.737-.299-3.28-2.319-3.121-4.086.227-2.52 2.775-4.516 4.792-3.754.69.26.795.413.667.971-.322 1.403-.476 3.423-.311 4.08.17.677.199.684 2.879.719 1.894.024 2.429.093 1.78.23-.73.153-.504.202 1.072.23 1.287.022 2.116-.083 2.33-.296.268-.266.3-.24.158.132-.193.506-.16.502-4.882.524-2.886.013-2.94.023-1.059.193l1.985.18-1.886.047c-1.24.032-1.99.174-2.192.416-.417.503-1.03.618-2.212.414zm3.713-2.557c.33-.063.805-.06 1.058.005.253.067-.016.118-.598.115-.582-.003-.79-.057-.46-.12zm6.829-.342c.095-.363.278-.774.408-.912.377-.405.261.175-.183.912l-.398.662zm-32.906-.805c-.204-.328-.222-.518-.048-.518.152 0 .346.184.432.409.238.62-.019.693-.384.109zm.732-2.62c.152-.282.406-.595.566-.694.16-.098.086.133-.164.515-.53.808-.804.93-.402.18zm4.076-4.545c.091-.455.165-.931.165-1.059 0-.127.239-.231.53-.231.29 0 .529-.11.529-.245 0-.366 1.567-1.078 2.371-1.078.76 0 2.064.77 1.33.785-.22.005-.749.336-1.176.736-.822.77-2.938 1.912-3.55 1.916-.267.002-.32-.218-.199-.824zm21.46-.144c-.223-.34-.542-.617-.71-.617-.169 0-.679-.406-1.134-.903l-.827-.903.742-.149c.85-.17 2.273.06 2.484.402.078.126.433.23.788.23.47 0 .646.144.646.533 0 .293.144.764.32 1.046.41.657.146.909-.994.947-.683.022-1.013-.125-1.316-.586zm-10.49-.619c-1.433-.254-2.323-.955-2.916-2.296-.375-.847-.478-1.467-.355-2.126l.175-.93 1.107.216c.608.119 1.82.222 2.694.23l1.587.013v-3.373c0-1.856.067-3.374.148-3.374.081 0 .38.18.662.398.295.229.345.34.116.262-.336-.114-.403.335-.44 2.938l-.043 3.074.747-.15c.833-.166 1.06.143 1.06 1.45 0 2.16-2.348 4.057-4.542 3.668zm-6.241-3.115c-.473-.693-.86-1.458-.86-1.701 0-.243-.115-.514-.255-.6-.38-.235-.003-1.732.582-2.317.592-.592 1.261-.44 1.261.286 0 .278.17.646.378.819.4.331.377 2.595-.039 4.047l-.208.725zm13.831-.63c-.081-.34-.187-1.333-.235-2.206-.074-1.357.008-1.712.565-2.447.961-1.267 1.586-1.124 1.796.412.14 1.028-.391 3.16-.83 3.33-.207.079-.376.311-.376.516 0 .205-.174.517-.386.693-.317.263-.413.21-.534-.298zm-16.94-.034c-.436-.138-1-.355-1.253-.483-.252-.129-.745-.234-1.094-.234-.462 0-.751-.245-1.062-.9-.235-.495-.427-1.032-.427-1.194 0-.162-.146-.529-.325-.816-.269-.429-.249-.598.111-.958.55-.55 1.23-.254 2.883 1.258.685.627 2.275 3.347 2.052 3.51-.05.036-.448-.046-.884-.183zm19.817-.732c.07-.21.26-1.055.422-1.878.283-1.44 1.432-3.134 2.125-3.134.146 0 .5-.146.785-.324 1.295-.81 1.32 1.505.031 2.87-.895.947-2.091 1.952-2.325 1.952-.096 0-.398.202-.67.448-.374.338-.464.354-.368.066zm-26.828-5.649c0-.059.352-.892.783-1.852l.783-1.744h-1.048c-.754 0-1.047-.111-1.047-.397 0-.309.353-.397 1.587-.397 1.247 0 1.588.087 1.588.404 0 .734-1.848 4.094-2.252 4.094-.217 0-.394-.048-.394-.108zm32.808-.153c0-.143.353-.947.783-1.785l.783-1.526-1.047-.081c-.699-.055-1.048-.209-1.048-.463 0-.286.362-.382 1.44-.382.792 0 1.51.115 1.597.255.252.407-1.655 4.243-2.108 4.243-.22 0-.4-.117-.4-.26zm-15.437-1.826c-.414-.273-.652-.555-.529-.626.123-.071.519.153.88.498.788.755.667.799-.35.128z" transform="translate(95.879 -114.289)"/><path style="fill:#146228;stroke-width:.26458332" d="M-92.439 176.468c0-.144.373-1.097.83-2.117.583-1.306.97-1.854 1.306-1.854.263 0 .552-.12.642-.265.09-.145.284-.264.431-.264.148 0 .081.187-.147.415-.522.522-1.626 2.434-1.862 3.223-.163.549-.093.595.899.595.592 0 1.076.12 1.076.265 0 .147-.706.264-1.588.264-.873 0-1.587-.118-1.587-.262zm32.808-.13c0-.215.383-1.168.85-2.116.578-1.17 1.005-1.725 1.328-1.725.422 0 .386.177-.322 1.58-.438.869-.797 1.702-.797 1.852 0 .15.416.272.926.272.509 0 .926.12.926.265 0 .145-.655.264-1.455.264-1.11 0-1.456-.093-1.456-.392zm-29.104-2.884c0-.056.238-.164.53-.24.29-.076.462-.03.38.101-.141.23-.91.348-.91.139zm13.908-.241c.1-.26.247-.408.329-.326.081.081 0 .295-.181.474-.261.26-.292.23-.148-.148zm8.373-.65c-.267-.891-.258-.94.088-.479.336.449.543 1.471.297 1.471-.048 0-.221-.446-.385-.992zm-7.303.066c.218-.973.37-1.184.364-.507a1.924 1.924 0 0 1-.273.904c-.196.29-.22.183-.09-.397zm11.108 0c-.391-.597-.393-.661-.015-.661.23 0 .353.106.272.236-.08.13.032.306.25.39.217.082.395.274.395.424 0 .486-.458.289-.902-.389zm-25.954-.284c1.26-.658 1.796-1.224 1.396-1.478-.186-.118-.218-.214-.073-.214.146 0 .423.1.616.222.26.165.055.44-.78 1.055-.622.457-1.315.83-1.541.83-.226-.001-.054-.188.382-.415zm5.752-.176c.183-.392.377-.586.43-.431.054.155-.096.476-.334.713-.398.398-.405.377-.096-.282zm-.978.081c-.083-.135-.031-.32.117-.412.148-.091.269.02.269.246 0 .465-.159.533-.386.167zm4-.328c.49-.543.71-.499.482.096-.083.215-.324.39-.537.39-.32 0-.31-.084.054-.486zm5.355.509c-.109-.273-.147-3.636-.04-3.529.19.19.39 3.595.212 3.595-.08 0-.157-.03-.172-.066zm3.07-.463c-.264-.291-.37-.53-.238-.53.133 0 .391.239.573.53.182.29.288.529.237.529-.052 0-.31-.238-.573-.53zm-7.012-.794c.364-.285.722-.52.796-.523.074-.003.291-.257.483-.563.288-.461.287-.526-.003-.377-.192.098-.119-.008.164-.237.619-.502.943-.532.937-.086-.006.49-.277.783-1.465 1.588-1.224.83-1.91.978-.912.198zm4.519-.154c.012-.309.075-.371.16-.16.076.19.067.419-.021.507-.088.088-.15-.069-.14-.347zm6.879 0c.013-.309.075-.371.16-.16.076.19.067.419-.021.507-.088.088-.15-.069-.14-.347zm-16.16-.168c0-.235-.143-.475-.318-.534-.195-.065-.139-.174.146-.283.255-.098.397-.07.316.061-.081.131.002.294.184.36.266.098.267.193.002.473-.273.29-.33.276-.33-.077zm3.704.222c0-.055.208-.263.463-.463.42-.33.429-.32.1.1-.346.44-.563.58-.563.363zm14.463-.077a.729.729 0 0 1-.176-.45c0-.165.123-.15.313.04.172.173.252.375.177.45-.076.075-.217.057-.314-.04zm-7.452-.352c-.09-.146-.037-.265.117-.265s.28.12.28.265c0 .145-.053.264-.117.264s-.19-.119-.28-.264zm-13.494-.265c.09-.145.283-.264.428-.264.146 0 .191.119.101.264-.09.146-.282.265-.428.265-.145 0-.19-.12-.1-.265zm7.735-.297c.18-.181.393-.262.474-.18.082.08-.065.228-.326.328-.377.143-.407.113-.148-.148zm10.716.004c.072-.202.021-.606-.113-.897-.24-.52-.236-.521.169-.016.489.611.513.848.112 1.096-.183.112-.248.041-.168-.183zm-5.75-.5c-.09-.146-.038-.265.116-.265s.28.12.28.265c0 .145-.052.264-.117.264-.064 0-.19-.119-.28-.264zm-9.129-.18c0-.147.268-.494.595-.771l.596-.504-.527.661c-.29.364-.557.711-.595.772-.038.06-.069-.01-.069-.158zm-1.587-.878c-.342-.222-.335-.258.05-.261.246-.002.521.115.611.26.207.335-.143.335-.661 0zm17.583-.073c.285-.219.66-.343.833-.277a.421.421 0 0 0 .49-.162c.096-.155.495-.277.887-.27.631.01.592.057-.346.418-.583.224-1.356.47-1.72.548-.637.136-.642.126-.144-.257zm-19.05-.438c.083-.135-.118-.297-.448-.36-.542-.105-.532-.12.096-.152.383-.02.844.143 1.025.361.276.332.235.397-.248.397-.317 0-.509-.11-.425-.246zm9.828.025c-.075-.12.037-.22.25-.22.211 0 .384.1.384.22 0 .122-.112.221-.248.221-.137 0-.31-.1-.386-.22zm10.16-.573c0-.145.126-.264.28-.264.154 0 .206.119.116.264-.09.146-.216.265-.28.265-.064 0-.117-.12-.117-.265zm-21.537-.485c-.075-.121.032-.22.238-.22.205 0 .312.099.237.22-.075.121-.182.22-.237.22-.056 0-.163-.099-.238-.22zm5.187-1.565c-.186-.255-.268-.315-.181-.133.25.524-.597.388-.983-.157-.29-.41-.841-.513-3.457-.64-2.327-.113-3.072-.074-2.956.158.085.17-.093.028-.395-.316-.667-.758-.732-1.337-.086-.77.661.58 6.258.927 6.87.426.38-.312.413-.283.278.241-.094.364-.05.532.111.432.146-.09.211-.443.146-.786-.065-.342-.017-.56.107-.482.125.077.227-.03.227-.236 0-.27.28-.357.992-.31.546.036.843.01.661-.059-.182-.068-.33-.234-.33-.367 0-.434.537-.256 1.265.419.393.364.834.652.98.64.148-.01.12-.08-.063-.154-.58-.234-.355-.686.265-.53.513.13.476.043-.265-.626-.955-.864-1.04-1.05-.478-1.05.21 0 .571.268.802.596.35.497.459.53.662.206.434-.697.556-.11.197.946-.193.567-.48 1.005-.636.975-.157-.031-.27.147-.25.396.021.289-.395.67-1.146 1.048-1.421.717-1.89.743-2.337.133zm1.136-.066a.615.615 0 0 0-.479-.26c-.189.001-.156.105.082.26.508.328.6.328.397 0zm1.061-.616c.002-.241.12-.427.265-.414.144.013.229.14.189.282-.04.142.044.186.187.097.367-.227.108-.753-.583-1.184-.529-.33-.554-.324-.246.049.22.265.247.475.077.58-.146.09-.198.34-.116.553.195.51-.104.494-.631-.033-.316-.316-.341-.47-.101-.618.463-.287-.304-.871-.862-.657-.513.197-.56.541-.1.728.25.101.233.208-.066.436-.328.25-.3.275.161.147.342-.096.69.004.9.256.414.5.922.378.926-.222zm-1.723-.972a.265.265 0 0 1 .53 0 .265.265 0 0 1-.53 0zm11.388 1.026c-1.53-.93-2.356-3.864-1.441-5.116.318-.434.372-.429.93.092.327.304.504.643.394.754-.11.11-.354-.007-.54-.262-.407-.558-.575-.58-.76-.099-.078.206.018.35.221.331.199-.018.36.086.36.231 0 .146-.145.253-.324.238-.178-.015-.325.176-.325.424s.17.44.378.424a.535.535 0 0 1 .508.344c.097.275-.032.33-.5.212-.586-.146-.574-.11.163.493.592.486.706.706.45.869-.27.172-.245.298.117.592.297.24.39.256.261.042-.311-.518.075-.943.521-.573.286.237.304.4.077.675-.22.265-.222.361-.004.361.164 0 .297-.119.297-.264 0-.423.795-.305.967.144.139.361.214.356.653-.041.362-.327.497-.354.497-.1 0 .192.055.295.122.228.33-.33-.263-1.287-.942-1.524-.422-.147-.768-.392-.768-.545 0-.416.682-.336 1.064.125.184.221.392.346.46.277.07-.07.3.047.511.258.44.44 1.14.513 1.14.12 0-.146.387-.247.86-.225l.86.04-.794.157c-.458.09.492.22 2.25.304l3.042.147-3.666.053c-3.12.045-3.644.111-3.516.446.362.942-2.148 1.205-3.523.368zm1.759-.403c-.345-.345-.18-.623.37-.623.307 0 .504.139.446.314-.13.387-.57.554-.816.309zm-1.122-.646c-.273-.441.34-.947.705-.582.306.305.115.87-.294.87-.128 0-.313-.13-.411-.288zm-5.622-.405c-.19-.205-.281-.474-.205-.598.077-.125.199-1.687.27-3.472.131-3.281.393-4.622.434-2.227.013.716.076 2.453.14 3.86.119 2.594-.017 3.11-.639 2.437zm4.567-.383c-.096-.155-.108-.349-.027-.43.217-.217.964.122.964.439 0 .36-.714.352-.937-.009zm-11.623-.578c-.18-.555-.296-2.58-.147-2.576.076.002.318.122.536.265.353.232.353.29 0 .525-.353.235-.353.294 0 .53.348.232.35.294.008.514-.214.138-.287.346-.163.463.125.117.28.064.345-.118.065-.182.259-.33.43-.33.172 0 .535-.296.806-.657.27-.361.615-.581.764-.489.164.102.086.303-.198.511-.424.31-.43.383-.059.753.226.226.562.41.747.41.258 0 .264.073.024.312-.239.24-.43.174-.825-.28-.448-.517-.583-.548-1.064-.248-.303.19-.55.434-.55.545 0 .333-.538.226-.653-.13zm12.55.06c-.275-.17-.302-.317-.096-.523.206-.206.377-.179.606.098.383.46.027.757-.51.425zm-21.632-.535c-.178-.284-.216-.517-.085-.517.238 0 .647.795.49.952-.045.045-.228-.15-.405-.435zm23.23.277c0-.146.118-.265.264-.265a.265.265 0 0 1 0 .53.265.265 0 0 1-.265-.265zm-1.299-.774c-.544-.444-.786-.803-.612-.91.158-.098.444.033.635.29.36.483 1.172.81.894.36-.227-.368.378-.663.7-.341.187.187.117.44-.223.803-.494.531-.496.53-1.394-.202zm-1.34.255c-.214-.136-.308-.327-.21-.426.242-.242.996.066.996.407 0 .336-.274.343-.786.019zm-8.135-.67c-.323-.346-.799-.746-1.057-.89-.257-.145-.374-.358-.258-.474.116-.115.322-.035.457.179s.252.27.259.125c.006-.146.194-.027.416.264.38.5.419.503.669.06.146-.257.38-.397.518-.312.14.086.19.26.112.385s-.02.302.128.394c.148.091.269.285.269.43 0 .146-.12.192-.265.102-.145-.09-.264-.038-.264.116 0 .437-.344.305-.984-.38zm.984-.134a.265.265 0 0 0-.265-.265.265.265 0 0 0-.265.265.265.265 0 0 0 .53 0zm-3.705 0c0-.146.18-.265.397-.265.219 0 .397.12.397.265 0 .145-.178.264-.397.264-.218 0-.397-.119-.397-.264zm12.502-.188c-.352-.129-.466-.873-.132-.867.109.002.376.117.593.254.457.289.068.807-.461.613zm-12.076-.473c-.275-.208-.624-.42-.774-.47-.154-.051-.181-.242-.062-.435.173-.28.252-.278.43.008.119.194.309.26.421.147.113-.113.048-.303-.146-.423-.193-.12-.248-.28-.121-.359.126-.078.465.031.754.242.418.306.452.43.167.605-.249.154-.269.276-.064.402.33.204.397.684.094.67-.11-.004-.424-.178-.699-.387zm1.76-.654c-.698-.651-2.23-1.595-2.582-1.59-.146.001-.09.113.124.249.689.435.117.56-.801.173l-.889-.373 1.114-.334c.855-.256 1.346-.264 2.121-.032 1.227.368 2.249 1.378 2.014 1.99-.218.567-.418.552-1.1-.083zm.529-.525c-.665-.611-1.738-1.335-1.98-1.335-.113 0-.205.126-.205.28 0 .154.104.216.23.137.128-.078.574.19.993.596.419.407.911.742 1.094.745.212.003.164-.15-.132-.423zm8.691.684c-.235-.284-.24-.433-.018-.57.431-.267.967.325.613.679-.191.19-.373.158-.595-.11zm1.68.08c-.095-.155-.12-.337-.053-.403.185-.185.99.18.99.449 0 .33-.725.295-.937-.046zm-14.216-.76c-.093-.354-.023-.464.234-.365.417.16.481.512.133.727-.13.08-.294-.083-.367-.362zm11.614.036c-.207-.334.887-1.302 1.699-1.503.482-.12.806-.02 1.142.351.305.338.37.578.186.692-.42.26-.87-.116-.692-.579.132-.343.055-.337-.518.038-.37.243-.797.365-.949.272-.158-.098-.239.025-.19.292.09.497-.433.834-.678.437zm1.566-.034c-.083-.136-.03-.321.117-.413.316-.195.798.053.798.41 0 .322-.716.324-.915.003zm1.505-.068c.163-.49.733-.572.733-.105a.42.42 0 0 1-.419.42c-.23 0-.372-.142-.314-.315zm.386-.82c-.905-.94-.782-1.134.462-.724 1.025.339 1.09.456.604 1.082-.284.365-.41.323-1.066-.359zm.771-.382c-.269-.269-.49.136-.27.493.167.27.23.27.319.001.061-.184.04-.406-.049-.494zm-9.42-2.717c0-.146.126-.265.28-.265.154 0 .207.12.117.265-.09.145-.216.264-.28.264-.064 0-.117-.119-.117-.264zm-6.843-1.47c-.585-.251-1.857-.385-3.704-.39-1.793-.006-2.967-.126-3.236-.331-.505-.386-1.582-2.729-1.358-2.953.087-.087.422.466.744 1.228.701 1.66.87 1.723 4.629 1.745 2.968.018 2.482-.353-.589-.45-.925-.028-2.098-.16-2.607-.292-.65-.17-.155-.199 1.66-.1 3.081.169 4.108-.012 4.447-.782.186-.423.22-.228.129.752l-.122 1.323.329-1.018c.275-.851.381-.954.65-.63.256.309.237.457-.095.733-.38.315-.38.367.002.58.23.13.362.327.293.44-.07.112.04.204.244.204s.348-.13.32-.287c-.03-.158.126-.287.345-.287.218 0 .367.15.33.331-.09.453.328.416.726-.063.18-.217.435-.327.568-.245.132.082.208.049.168-.074-.04-.123.25-.572.644-.998.56-.605.651-.854.414-1.14-.23-.278-.216-.418.06-.589.304-.188.305-.293.007-.652-.266-.321-.28-.504-.053-.73.384-.384.625-.145.644.638.037 1.557-.79 3.453-1.725 3.96-.875.473-2.848.513-3.864.077zm13.013-.015c-.48-.237-1.04-.83-1.305-1.383-.527-1.101-.92-3.218-.598-3.218.118 0 .155-.155.082-.345-.158-.413.987-2.197 1.35-2.102.452.118.27.729-.206.691-.257-.02-.385.086-.29.239.093.151-.057.442-.334.647-.474.35-.476.387-.04.634.585.332.6.766.025.766-.408 0-.408.033 0 .483.498.551.558.84.173.84-.145 0-.264-.199-.264-.441 0-.243-.075-.367-.165-.276-.091.09-.072.378.042.639.114.26.188.564.165.673-.023.109.106.168.288.132.19-.038.331.2.331.561 0 .361.259.8.61 1.034.334.223.572.28.528.127-.044-.154.01-.292.119-.306.59-.08.77.008.654.313-.077.2.067.34.349.34.264 0 .43-.08.37-.177-.061-.098.075-.332.301-.52.367-.304.348-.376-.166-.651-.576-.309-.576-.311.219-.877l.796-.567.166.659.165.66 3.766.03c2.07.018 3.884.008 4.03-.021.145-.03.165.045.043.167-.29.291-.16.282-4.41.32-2.41.021-3.703.13-3.703.313 0 .154.119.206.264.116.146-.09.265-.1.265-.022 0 .27-1.564.948-2.17.942-.335-.003-.987-.192-1.45-.42zm3.007-1.74c-.085-.21-.147-.148-.16.16-.012.279.05.435.139.347.088-.088.097-.316.02-.507zm-14.865 1.108a.491.491 0 0 1 .072-.575c.177-.177.329-.161.457.046.105.17.073.43-.073.575-.176.177-.328.161-.456-.046zm1.389.11c-.19-.189.836-1.42 1.19-1.428.11-.003.199.174.199.392 0 .218-.136.397-.302.397-.166 0-.437.185-.602.412-.166.226-.384.329-.485.228zm9.999-.356c-.196-.317.302-.63.654-.413.296.183.102.66-.268.66-.129 0-.302-.112-.386-.247zm1.18-.275c-.521-.4-.593-.578-.34-.832.255-.255.37-.198.543.27.12.326.303.584.405.574.566-.06.728.008.582.245-.23.37-.433.326-1.19-.257zm-11.907-.427c0-.23.141-.372.314-.314.49.163.572.733.105.733a.42.42 0 0 1-.419-.419zm-.661-.375a.491.491 0 0 1 .072-.575c.177-.176.329-.161.457.046.105.17.073.43-.073.575-.176.177-.328.161-.456-.046zm1.341.03c-.08-.129.022-.373.225-.542.413-.342.835.051.55.512-.202.328-.582.343-.775.03zm1.572-.025c-.195-.316.052-.799.41-.799.321 0 .324.717.002.915-.135.084-.32.031-.412-.116zm9.948-.102c-.236-.285-.241-.433-.019-.57.432-.267.967.325.614.678-.192.192-.374.158-.595-.108zm-1.609-.157c-.214-.135-.308-.327-.21-.426.242-.242.996.066.996.407 0 .336-.274.343-.786.019zm11.92.086c-.043-.612.698-2.02.894-1.7.107.172.02.515-.193.76-.214.246-.454.625-.535.844-.08.218-.155.261-.166.096zm-16.16-.493c0-.219-.135-.397-.3-.397-.21 0-.245-.545-.116-1.852.123-1.244.09-1.852-.098-1.852-.477 0-1.339-1.03-1.339-1.6 0-.33.317-.717.812-.992.768-.427.804-.517.658-1.668-.099-.776-.02-1.536.215-2.097l.37-.88.378.774c.261.533.322 1.145.197 1.965-.17 1.116-.125 1.243.717 2.025.815.758.87.898.587 1.516-.17.375-.53.752-.8.837-.546.174-.619.959-.24 2.59.187.804.145 1.122-.197 1.522-.52.607-.845.65-.845.109zm1.723-5.172c.331-1.044-1.06-1.814-2.374-1.315-1.63.62-.91 1.857 1.08 1.857.898 0 1.156-.108 1.294-.542zm-2.458-.034c-.45-.45.097-1.012.987-1.012.917 0 1.117.211.787.829-.297.554-1.3.657-1.774.183zm-6.939 4.841c0-.678.725-1.265 1.1-.89.326.325.046.943-.324.714-.136-.083-.247.034-.247.26 0 .227-.119.413-.264.413-.146 0-.265-.223-.265-.497zm1.323.1c0-.218.179-.397.397-.397.218 0 .397.179.397.397a.398.398 0 0 1-.397.397.398.398 0 0 1-.397-.397zm1.107-.213c-.592-.63-.535-.977.159-.977.244 0 .336.18.254.495-.102.39-.017.466.401.357.365-.096.494-.028.413.215-.197.593-.615.562-1.227-.09zm10.101.213c-.084-.218-.318-.397-.52-.397-.203 0-.37-.178-.37-.397 0-.218.124-.396.274-.396.15 0 .341.178.425.396.084.219.318.397.52.397.203 0 .37.179.37.397 0 .218-.123.397-.274.397-.15 0-.341-.179-.425-.397zm1.668.22c-.304-.304-.192-.617.22-.617.553 0 .497-.228-.197-.813l-.596-.5.596-.168c.742-.21.765-.546.052-.772-.436-.138-.482-.247-.23-.55.237-.285.402-.305.673-.08.197.163.293.403.214.532-.08.13-.005.235.167.235.2 0 .227.12.078.33-.284.4-.287 1.007-.006 1.456.116.184.087.33-.065.33-.15 0-.203.179-.12.397.154.4-.44.567-.786.22zm-.861-.716c-.225-.584.074-.882.478-.478.238.238.24.386.004.622-.235.235-.35.2-.482-.144zm-10.137-.534c-.38-.406-.492-.697-.31-.81.402-.248.876.105.713.53-.089.23 0 .305.246.21.237-.09.383.015.383.278 0 .598-.339.53-1.032-.208zm-2.024-.183c-.273-.442.34-.948.705-.583.305.306.114.87-.294.87-.129 0-.314-.13-.411-.287zm11.112 0c-.273-.442.34-.948.706-.583.305.306.114.87-.295.87-.128 0-.313-.13-.411-.287zm-12.289-.242a.265.265 0 0 1 .53 0 .265.265 0 0 1-.53 0zm.321-.579c-.176-.176-.323-.505-.325-.73-.004-.362-.034-.364-.26-.014-.141.218-.257.278-.257.132 0-.145.104-.428.231-.629.277-.437.91-.123.726.359-.075.196.055.323.313.304.243-.019.442.135.442.341 0 .504-.474.633-.87.237zm1.65.027c-.273-.441.34-.947.705-.582.305.305.114.87-.295.87-.128 0-.313-.13-.41-.288zm1.601.023c-.216-.35.1-.845.415-.65.322.198.32.914-.003.914-.136 0-.322-.119-.412-.264zm7.987.094c-.345-.346-.18-.623.37-.623.307 0 .504.138.446.314-.129.386-.57.554-.816.309zm1.524-.117c-.273-.441.34-.947.705-.582.306.305.115.87-.294.87-.128 0-.313-.13-.411-.288zm-9.309-1.255c-.773-.88-.88-.927-1.14-.503-.156.258-.397.4-.533.316-.393-.243-.29-.652.164-.652.228 0 .333-.128.235-.286-.373-.605 1.487.596 1.9 1.226.676 1.033.32.975-.626-.1zm-2.597.461c-.273-.441.34-.947.705-.582.305.305.114.87-.294.87-.129 0-.314-.13-.411-.288zm1.601.023c-.285-.46.138-.854.55-.512.204.17.305.413.225.542-.193.312-.572.298-.775-.03zm9.544.03c-.08-.129.021-.373.225-.542.413-.342.835.051.55.512-.202.328-.582.342-.775.03zm-11.94-.847c-.097-.158-.421-.223-.72-.145-.51.133-.516.115-.092-.308.279-.28.52-.35.638-.185.104.145.402.282.661.303.375.03.41-.038.166-.33-.25-.302-.169-.37.434-.37h.74l-.621.662c-.684.727-.938.806-1.205.373zm12.847-.109c0-.218.179-.397.397-.397.218 0 .397.179.397.397a.398.398 0 0 1-.397.397.398.398 0 0 1-.397-.397zm1.588-.044c0-.243-.08-.361-.177-.264-.097.097-.378-.005-.624-.227-.398-.36-.482-.361-.779-.004-.324.391-.801.327-.801-.108 0-.407 1.4-.488 2.488-.145.596.189.935.354.753.369-.182.014-.331.204-.331.423 0 .218-.12.396-.265.396-.145 0-.264-.198-.264-.44zm-13.978-3.818c-.496-.795-.273-.839.45-.089.401.418.492.644.258.644-.199 0-.517-.25-.708-.555zm1.02.166c-.189-.227-.202-.416-.038-.518a.311.311 0 0 1 .425.109c.257.414.554.327 1.446-.423.56-.47.774-.845.671-1.169-.083-.262-.021-.556.137-.654.208-.128.206-.277-.004-.53-.22-.266-.175-.422.186-.638.458-.275.458-.298-.017-.582-.397-.237-.424-.34-.135-.518.298-.184.3-.282.013-.564-.191-.188-.309-.223-.262-.077.047.145-.005.294-.114.33-.449.15-.51.044-.193-.337.184-.222.25-.488.145-.593-.104-.104-.307.02-.45.277-.144.256-.374.397-.51.313-.386-.24-.292-.652.148-.652.219 0 .397-.119.397-.264 0-.146-.178-.265-.397-.265-.218 0-.396-.11-.396-.244s-.422-.383-.937-.553c-.73-.241-1.023-.237-1.335.022-.32.266-.331.375-.056.553.275.178.264.275-.054.487-.352.235-.352.294 0 .529.353.235.353.293 0 .525-.306.201-.315.261-.038.265.227.003.297.167.19.445-.093.244-.017.541.17.662.272.175.263.269-.04.464-.315.202-.32.316-.034.661.29.35.28.417-.06.417-.225 0-.448.12-.497.268-.05.147-.107-.81-.13-2.125-.02-1.316-.168-2.549-.327-2.74-.349-.42.648-.959 1.776-.959 1.645 0 3.753 2.451 3.809 4.43.056 1.982-2.582 4.74-3.49 3.648zm-2.021-.182c-.48-.233-.517-.361-.265-.904.162-.348.45-.693.64-.766.381-.149 1.64.58 1.64.948 0 .389-.8.263-.959-.15-.116-.303-.222-.317-.493-.067-.234.217-.266.467-.099.782.279.525.29.522-.464.157zm12.34-.29c-.477-.327-1.142-1.09-1.477-1.694-.606-1.092-.607-1.103-.09-1.57.5-.454.541-.45 1.072.08.331.331.47.684.347.883-.154.25-.292.212-.558-.152-.195-.266-.436-.402-.536-.302-.1.1.048.355.328.567.36.273.4.389.135.395-.206.005-.296.087-.2.183.096.096.406-.035.69-.29.282-.257.64-.388.794-.292.446.275.333.555-.38.936-.846.453-.832.579.133 1.149.694.41.793.417.793.057 0-.491.304-.531.738-.097.377.376 1.18.535.968.19-.082-.132.043-.24.279-.24.235 0 .35-.125.256-.278-.117-.19-.288-.18-.541.03-.436.361-1.284.116-1.028-.298.096-.156.372-.213.612-.125.24.087.079-.139-.358-.502-.754-.628-.66-.827.327-.7.191.024.262-.127.17-.366-.088-.229-.016-.407.165-.407.211 0 .265.227.156.661-.168.668.215.943.462.33.107-.264.138-.264.155 0 .015.24.77.341 2.733.366 1.896.025 2.433.094 1.785.23-.73.154-.504.202 1.072.23 1.287.022 2.116-.083 2.33-.296.268-.265.3-.239.158.132-.193.506-.16.503-4.882.524-2.886.014-2.94.024-1.059.194l1.985.18-1.886.047c-1.307.033-1.987.17-2.215.444-.51.615-2.411.505-3.434-.198zm-9.797-.33c0-.218.134-.397.297-.397.203 0 .192-.127-.037-.403-.42-.506-.136-.837.362-.424.203.17.563.233.8.142.237-.09.43-.084.43.014 0 .283-.725.936-1.039.936-.156 0-.283.119-.283.264 0 .146-.12.265-.265.265-.146 0-.265-.179-.265-.397zm9.911-.15c-.243-.394.04-.608.546-.414.234.09.35.283.26.43-.214.347-.586.34-.806-.016zm-19.965-.44c-.423-.16-.783-.594-.79-.95-.002-.12.184-.03.412.198.335.335 1.079.416 3.824.416 2.966 0 3.442-.06 3.677-.463.294-.505.383-.099.125.574-.135.352-.687.415-3.506.397-1.84-.011-3.523-.088-3.742-.172zm9.525-.04c0-.129-.266-.304-.59-.389-.467-.122-.523-.222-.267-.479.257-.256.437-.205.856.245.59.634.66.856.266.856-.146 0-.265-.105-.265-.233zm11.234-.049c-.243-.394.039-.608.546-.414.233.09.35.283.26.43-.215.347-.586.34-.806-.016zm-10.054-.794c-.096-.155-.11-.345-.033-.423.19-.19.705.144.705.457 0 .338-.456.315-.672-.034zm-1.536-.466c-.498-.55-.558-.839-.173-.839.146 0 .265.179.265.397 0 .218.134.367.297.33.164-.036.353.083.42.265.18.492-.308.4-.809-.153zm15.639.297c.33-.064.805-.061 1.058.005s-.016.118-.598.115c-.582-.003-.79-.057-.46-.12zm-13.43-.475c0-.218.118-.396.264-.396.145 0 .264.178.264.396 0 .219-.119.397-.264.397-.146 0-.265-.178-.265-.397zm9.126.13c-.09-.146.027-.339.26-.429.507-.194.79.02.546.414-.22.356-.591.363-.806.016zm-11.045-.743c-.76-.747-.91-1.106-.463-1.106.146 0 .265.185.265.412 0 .227.097.352.217.278.12-.074.417.1.661.385.887 1.035.365 1.059-.68.031zm-10.728-.06c-.204-.327-.222-.517-.048-.517.152 0 .346.184.432.408.238.62-.019.694-.384.109zm11.34-.405c-.499-.493-.834-.97-.744-1.06.244-.244.76.15.58.443-.086.14-.056.22.067.18.32-.104 1.486 1.036 1.225 1.198-.12.074-.628-.268-1.127-.761zm11.39.584c-.237-.284-.241-.433-.02-.57.432-.267.968.326.614.679-.191.191-.373.158-.595-.109zm10.29.129c0-.146.118-.338.264-.428.145-.09.264-.045.264.1 0 .146-.119.339-.264.429-.146.09-.265.044-.265-.101zm-11.907-.45c0-.468.57-.386.733.104.058.173-.084.315-.314.315a.42.42 0 0 1-.419-.42zm-8.334-.11a.491.491 0 0 1 .072-.576c.177-.176.329-.16.457.046.105.171.073.43-.073.576-.176.176-.328.16-.456-.047zm6.482-.502c0-.306.104-.557.231-.557.128 0 .303-.353.389-.784.21-1.055 2.09-2.358 2.685-1.863.5.414.514.795.03.795-.202 0-.437.179-.52.397-.084.218-.275.397-.426.397-.485 0-.289-.717.323-1.176.334-.251.191-.213-.326.086-.507.293-.97.675-1.027.848-.058.174.021.237.176.142.413-.255.694.358.329.718-.238.235-.402.185-.691-.206-.209-.282-.38-.395-.38-.251 0 .144.114.375.252.513.158.159.011.482-.397.875-.638.613-.648.614-.648.066zm1.19.237a.491.491 0 0 1 .073-.575c.176-.177.329-.161.457.046.105.17.073.43-.073.575-.176.176-.328.16-.456-.046zm1.497-.116c.05-.243.21-.435.356-.427.392.02.32.612-.092.75-.222.074-.322-.047-.264-.323zm1.7.151c-.114-.184-.135-.406-.048-.494.237-.237.495.112.367.495-.09.27-.152.27-.319 0zm-11.746-.58a.827.827 0 0 1 .463-.464c.199-.066.298.033.232.232a.827.827 0 0 1-.463.463c-.199.066-.298-.033-.232-.232zm9.269-.29c.137-.412.729-.484.75-.091.007.145-.185.306-.428.356-.276.057-.396-.042-.322-.265zm1.602-.025c.064-.182.303-.316.53-.298.234.02.358-.113.285-.304-.152-.394.32-.757.69-.529.325.2-.754 1.462-1.25 1.462-.205 0-.32-.15-.255-.331zm-12.897-.186c-.162-.262.01-.379.455-.308.11.017.199-.12.199-.302 0-.367 1.03-1.107 1.243-.894.135.136-.49.838-1.286 1.446-.297.227-.495.246-.61.058zm1.34.029c-.09-.148-.037-.35.12-.447.407-.251.67.093.33.433-.19.19-.338.195-.45.014zm10.809-.33c-.273-.44.34-.946.705-.581.306.305.115.87-.294.87-.128 0-.313-.13-.411-.288zm-21.285-.693c0-.152.208-.44.463-.64.428-.336.434-.323.075.166a43.49 43.49 0 0 0-.463.64c-.041.06-.075-.014-.075-.166zm9.046-.093a.827.827 0 0 1 .463-.463c.198-.066.297.033.231.231a.827.827 0 0 1-.463.463c-.198.066-.298-.033-.231-.231zm13.058.034c-.194-.314.301-.63.65-.415.146.09.265-.009.265-.22 0-.3.512-.706.891-.706.03 0 .068.268.084.596.016.327-.027.45-.096.272-.087-.226-.292-.166-.684.198-.62.578-.883.643-1.11.275zm-12.513-.66c-.835-.389-.743-.775.132-.556.887.223 1.031.35.71.624-.135.116-.514.085-.842-.067zm12.81-.593c-.346-.346-.167-.565.35-.43.29.076.461.243.382.372-.172.279-.486.304-.732.058zm-18.38-2.866c0-.29.096-.827.212-1.19.168-.524.212-.552.212-.133 0 .291-.095.827-.212 1.19-.167.525-.211.552-.211.133zm22.437-.132c-.238-.154-.27-.258-.081-.26a.616.616 0 0 1 .478.26c.203.328.112.328-.397 0zm-19.314-1.059c.156-.29.343-.529.415-.529.073 0 .005.238-.15.53-.156.29-.343.529-.416.529-.073 0-.005-.238.15-.53zm-1.985 0c.09-.145.343-.264.56-.264.22 0 .324.119.234.264-.09.146-.342.265-.56.265-.218 0-.323-.119-.234-.265zm9.98-.661c.992-.92 1.817-.822.935.112-.273.288-.232.299.23.062.308-.158.654-.203.77-.099.115.105.135.06.045-.099-.21-.368 1.314-1.523 1.536-1.164.214.347-.104.841-.417.648-.135-.084-.246-.03-.246.12 0 .452-1.493 1.082-2.564 1.082h-1.003zm-1.534.098c-.102-.165.004-.406.235-.535.232-.13.609-.424.838-.653.23-.229.586-.351.794-.272.24.092.326.015.24-.212-.169-.438.315-.776.737-.515.203.126-.134.588-.975 1.339-1.371 1.223-1.579 1.318-1.87.848zm-7.107-.354c.282-.214.752-.4 1.043-.416l.529-.027-.53-.227-.528-.227.529-.01c.29-.004.827.164 1.19.375l.662.383-.794-.044c-.437-.025-1.054.096-1.372.269-.82.444-1.344.39-.73-.076zm6.296-.295c-.103-.279-.266-.567-.362-.64-.208-.157-.81-1.852-.657-1.852.058 0 .482.547.941 1.215.597.867.755 1.296.551 1.5-.204.203-.339.14-.473-.223zm10.622-.11c-.506-.56-.344-.64.529-.265.29.125.373.236.183.246-.19.01-.273.138-.183.283.274.444-.022.296-.53-.264zm-6.886-.01c-.266-.432.326-.967.68-.614.19.191.157.373-.11.595-.284.236-.433.24-.57.018zm-2.928-.354c-.224-.585.074-.883.478-.479.239.239.24.387.005.622-.236.236-.35.201-.483-.143zm3.728-.43c-.215-.35.1-.845.415-.65.322.198.32.914-.002.914-.137 0-.323-.119-.413-.264zm1.347.04c-.092-.15.044-.392.301-.538.445-.252.443-.285-.035-.637-.49-.362-.372-1.146.125-.838.136.083.247-.034.247-.26 0-.227-.12-.413-.265-.413-.145 0-.265-.134-.265-.297 0-.21.111-.205.382.02.25.208.358.72.312 1.493-.071 1.21-.489 1.975-.802 1.47zm-9.41-.428c-.39-.47-.607-3.052-.256-3.052.233 0 .384 1.12.295 2.183-.022.255.059.463.178.463.12 0 .217.179.217.397 0 .491-.032.492-.433.009zm4.887.121c-.09-.146.027-.34.26-.43.507-.194.79.02.546.415-.22.355-.591.362-.806.015zm-1.15-.25c.114-.34.477-.401.51-.085.01.105-.123.24-.298.298-.175.058-.27-.037-.212-.212zm2.21-.277a.491.491 0 0 1 .072-.575c.177-.177.329-.161.457.046.105.17.073.43-.073.575-.176.177-.328.161-.456-.046zm1.312-.018c-.244-.394.038-.608.545-.413.234.09.351.283.26.43-.214.346-.586.339-.805-.016zm.98-.332c-.317-.338-.497-.696-.399-.794.099-.098.053-.179-.101-.179s-.35.179-.433.397c-.084.218-.275.397-.425.397-.15 0-.273-.179-.273-.397 0-.566-.266-.494-1.088.294-.397.38-.852.61-1.011.51-.396-.244-.053-.742.393-.57.231.088.304 0 .206-.254-.112-.294-.237-.318-.504-.096-.378.314-1.006.095-.78-.271.074-.12-.049-.29-.274-.376-.225-.086-.341-.047-.259.086.194.313-.305.627-.652.412-.177-.109-.173-.337.01-.68.227-.423.375-.465.816-.228.296.158.693.228.883.156.189-.073.473-.003.63.155.159.158.834.267 1.5.241 1.358-.051 2.356.353 2.156.873-.076.198.044.33.282.31.227-.018.466.116.53.298.196.555-.593.369-1.207-.284zm-5.07-.311c0-.243.127-.399.284-.347.156.053.284.208.284.347 0 .138-.128.294-.284.346-.157.052-.285-.104-.285-.346zm10.517-.199c.145-.182.219-.606.164-.942-.058-.357.01-.544.162-.45.144.09.213.424.153.744s-.118.671-.129.78c-.01.11-.153.199-.317.199-.201 0-.212-.106-.033-.33zm-16.738-.203c-.091-.147-.295-.189-.453-.091-.172.106-.211.054-.099-.128.261-.422.601-.382.783.091.172.45.02.535-.23.128zm11.505-.458c-.299-.355-.39-1.252-.39-3.837 0-1.856.067-3.374.148-3.373.081 0 .38.179.662.397.296.23.345.34.116.263-.336-.115-.404.344-.445 3.016-.045 2.965-.016 3.16.49 3.291.296.078.46.268.363.423-.247.4-.496.352-.944-.18zm-7.765-.209c-.091-.236-.158-.569-.149-.739.01-.17.131-.024.27.325.14.348.207.68.149.739-.058.058-.18-.088-.27-.325zm-7.518-.395c-.473-.759-.39-1.002.104-.298.233.333.377.652.32.708-.056.057-.247-.128-.424-.41zm1.816-.16c-.302-.383-.545-.83-.54-.992.006-.162.16-.023.345.309.184.332.389.556.454.497.065-.059.347.116.628.389.43.418.443.495.085.495-.233 0-.67-.314-.972-.698zm21.412.303c0-.22.133-.4.295-.4.165 0 .235-.233.157-.529-.076-.29-.038-.467.086-.39.123.075.35-.014.504-.199l.83-.998.547-.661-.482.925c-.265.509-.65 1.057-.853 1.217-.204.16-.301.404-.216.543.086.138-.075.395-.356.571-.422.263-.512.25-.512-.079zm-19.96-.322c-.143-.377-.113-.407.149-.148.18.18.262.393.18.475-.081.081-.229-.066-.328-.327zm17.578-.53c0-.152.209-.44.463-.64.429-.335.434-.323.075.167-.213.29-.422.579-.463.64-.04.06-.075-.015-.075-.167zm3.97.088c0-.055.208-.263.462-.463.42-.329.43-.32.1.1-.346.441-.563.581-.563.363zm-25.447-1.044c-.099-.483-.062-.657.104-.491.14.14.21.477.152.747-.077.364-.143.297-.256-.256zm7.685-.112c-.329-.42-.32-.43.1-.1.44.345.581.563.363.563-.055 0-.263-.209-.463-.463zm-5.368-.236c-.139-.363-.1-.38.237-.1.459.38.507.534.166.534-.13 0-.311-.195-.403-.434zm18.102-.46c0-.055.208-.263.463-.463.42-.329.43-.32.1.1-.346.44-.563.581-.563.363zm-20.179-.991c.18-.18.393-.262.475-.18.081.08-.066.229-.327.328-.377.144-.407.113-.148-.148zm27.541-.675c.113-.553.18-.62.257-.256.057.27-.012.606-.153.747-.166.166-.202-.008-.104-.49zm-30.91-1.02c0-.076.357-.847.794-1.712.436-.865.794-1.628.794-1.696 0-.068-.438-.16-.972-.206-.535-.045-1.02-.23-1.08-.413-.08-.24.331-.33 1.5-.33 1.266 0 1.61.086 1.61.403 0 .734-1.848 4.094-2.252 4.094-.217 0-.394-.063-.394-.14zm32.888-.19c.075-.182.443-1.016.819-1.852l.682-1.522h-1.055c-.761 0-1.055-.11-1.055-.397 0-.304.338-.397 1.456-.397 1.25 0 1.455.07 1.455.5 0 .847-1.606 3.998-2.038 3.998-.22 0-.339-.148-.264-.33zm-15.517-1.757c-.414-.273-.652-.554-.529-.626.123-.07.519.153.88.498.788.755.667.8-.35.128z" transform="translate(95.879 -114.289)"/><path style="fill:#121a13;stroke-width:.26458332" d="M-92.444 176.532c-.002-.11.385-1.058.86-2.108.592-1.306 1.012-1.912 1.331-1.918.4-.008.333.256-.466 1.843l-.933 1.852h1.062c.584 0 1.061.12 1.061.265 0 .302-2.908.368-2.915.066zm32.809 0c-.012-.533 1.767-4.018 2.055-4.026.458-.013.418.166-.433 1.975l-.748 1.588 1.02.081c.562.045 1.02.194 1.02.33 0 .294-2.908.345-2.914.052zm-21.692-10.93c0-.154.12-.207.265-.117.146.09.265.216.265.28 0 .065-.12.117-.265.117-.145 0-.265-.126-.265-.28zm-1.47-.385c-.31-.242-.366-.373-.14-.33.205.038.462-.228.571-.592.163-.545.19-.487.156.33-.024.545-.05.992-.058.992-.009 0-.247-.18-.53-.4zm2.96-.072c-.07-.114.093-.208.363-.208s.432.094.361.208a.478.478 0 0 1-.361.208.478.478 0 0 1-.362-.208zm11.955.027c.19-.076.419-.067.507.021.088.088-.069.15-.348.14-.308-.014-.37-.076-.16-.16zm-.984-.333c-.19-.117-.238-.28-.107-.361.132-.082.395-.052.586.066.19.117.238.28.107.362-.132.081-.395.051-.586-.066zm1.672-.052c-.12-.193-.077-.239.114-.12.193.119.306-.012.306-.357 0-.525.124-.542 3.505-.487l3.506.057-3.373.083c-2.69.066-3.374.159-3.374.456 0 .508-.448.75-.684.368zm-17.506-.41c.255-.067.671-.067.926 0 .255.066.046.12-.463.12-.51 0-.718-.054-.463-.12zm14.63-.064c-.196-.317.302-.63.654-.413.296.183.102.66-.269.66-.128 0-.302-.112-.385-.247zm-18.858-.202c.257-.067.614-.062.793.01.18.073-.031.128-.468.122-.436-.005-.583-.064-.325-.131zm20.778-.134c.247-.247.388-.247.635 0s.176.318-.318.318-.564-.07-.317-.318zm-13.385-.354c-.188-.213-.232-.387-.099-.387.134 0 .39.179.572.397.424.512-.022.502-.473-.01zm3.383-.122c0-.146.127-.265.28-.265.155 0 .207.12.117.265-.09.145-.216.265-.28.265-.064 0-.117-.12-.117-.265zm3.328-.201c-.09-.286-.107-1.28-.037-2.21.07-.93.15-2.166.178-2.748.027-.583.142.31.255 1.984.19 2.803.001 4.225-.396 2.974zm3.816.2c-.32-.205-.277-.256.214-.26.341-.002.539.113.448.26-.197.32-.17.32-.662 0zm1.72 0c-.09-.145.022-.264.249-.264s.412.12.412.265c0 .145-.112.265-.248.265-.137 0-.323-.12-.413-.265zm-10.716-.528c0-.146.126-.265.28-.265.155 0 .207.12.117.265-.09.145-.216.264-.28.264-.064 0-.117-.119-.117-.264zm9.815.015c-.263-.162-.27-.26-.03-.409a.495.495 0 0 1 .58.07c.345.344-.098.618-.55.34zm1.706.003c-.18-.292.237-.608.481-.363.252.251.205.61-.08.61-.137 0-.317-.111-.4-.247zm-9.669-.555c0-.141.18-.257.397-.257.219 0 .397.047.397.104 0 .058-.178.173-.397.257-.218.083-.397.037-.397-.104zm7.023-.238c-.18-.293.237-.609.481-.364.252.251.205.61-.08.61-.136 0-.317-.11-.4-.246zm1.576-.019c-.09-.145.016-.264.234-.264.218 0 .47.119.56.264.09.146-.015.265-.233.265-.218 0-.47-.12-.56-.265zm-11.641-.264c-.09-.146-.038-.265.116-.265.155 0 .28.12.28.265 0 .145-.052.264-.116.264s-.19-.119-.28-.264zm1.19 0c0-.146.126-.265.28-.265.155 0 .207.12.117.265-.09.145-.216.264-.28.264-.064 0-.117-.119-.117-.264zm1.323 0c0-.146.126-.265.28-.265.155 0 .207.12.117.265-.09.145-.216.264-.28.264-.064 0-.117-.119-.117-.264zm6.88-.413c0-.227.12-.337.268-.246.148.091.2.277.117.412-.227.367-.386.299-.386-.166zm1.446.135c-.25-.407.093-.67.433-.33.19.19.195.338.014.45-.148.091-.35.037-.447-.12zm1.596.013c-.09-.145.015-.264.234-.264.218 0 .47.119.56.264.09.146-.015.265-.233.265-.219 0-.47-.12-.56-.265zm.794-.529c-.09-.146-.037-.265.117-.265s.28.12.28.265c0 .146-.053.265-.117.265s-.19-.12-.28-.265zm-13.479-.419c-.282-.206-.4-.373-.264-.37.366.005 1.048.475.903.62-.07.07-.356-.043-.639-.25zm1.44.154a.265.265 0 0 1 .53 0 .265.265 0 0 1-.53 0zm8.732 0c0-.145.119-.264.264-.264.146 0 .265.119.265.264a.265.265 0 0 1-.53 0zm1.587 0c0-.145.112-.264.25-.264.136 0 .322.119.412.264.09.146-.022.265-.25.265-.226 0-.412-.12-.412-.265zm-10.848-.529c0-.145.126-.264.28-.264.155 0 .207.119.117.264-.09.146-.216.265-.28.265-.064 0-.117-.12-.117-.265zm1.19 0c-.09-.145.03-.264.265-.264.236 0 .355.119.265.264-.09.146-.209.265-.265.265-.055 0-.174-.12-.264-.265zm1.324 0c-.09-.145-.038-.264.116-.264.155 0 .28.119.28.264 0 .146-.052.265-.116.265s-.19-.12-.28-.265zm9.007.019c-.18-.293.237-.609.48-.364.252.251.206.61-.079.61-.137 0-.317-.111-.401-.246zm-1.599-.283c-.09-.146-.044-.265.101-.265.146 0 .338.12.428.265.09.145.045.264-.1.264-.146 0-.339-.119-.429-.264zm2.37-.282c-.288-.467.016-.532.56-.12.447.338.455.386.062.393-.246.005-.526-.118-.622-.273zm-10.44-.087c0-.057.185-.175.41-.261.236-.09.343-.046.25.104-.155.25-.66.371-.66.157zm8.732-.16c0-.146.119-.265.264-.265a.265.265 0 0 1 0 .53.265.265 0 0 1-.264-.265zm-12.171-.265c-.219-.141-.278-.257-.133-.257.146 0 .444.116.662.257.218.141.278.256.132.256-.145 0-.443-.115-.661-.256zm12.843-.246c-.18-.293.237-.609.481-.364.252.251.205.61-.08.61-.136 0-.317-.11-.4-.246zm-9.536-.283c-.09-.146-.037-.265.117-.265s.28.12.28.265c0 .145-.053.264-.117.264s-.19-.119-.28-.264zm8.07 0c0-.146.119-.265.264-.265a.265.265 0 0 1 0 .53.265.265 0 0 1-.264-.265zm2.263-.242a.295.295 0 0 1 .095-.406.296.296 0 0 1 .406.096.295.295 0 0 1-.096.405.296.296 0 0 1-.405-.095zm-1.585-.26c-.08-.13.032-.305.25-.388.24-.092.395 0 .395.237 0 .428-.414.525-.645.151zm-12.45-.296c.092-.148.278-.2.413-.117.367.227.299.386-.166.386-.227 0-.338-.121-.246-.27zm14.947-.276c0-.154.119-.207.264-.117.146.09.265.216.265.28 0 .065-.12.117-.265.117-.145 0-.264-.126-.264-.28zm-14.337-3.87c.19-.076.419-.066.507.021.088.088-.069.15-.347.14-.309-.013-.371-.076-.16-.16zm1.996-.216c.218-.218.524-.396.68-.396.156 0 .284-.18.284-.397 0-.219.119-.397.264-.397.546 0 .237.696-.504 1.133-.947.56-1.25.584-.724.057zm11.415.133c.09-.146.216-.265.28-.265.064 0 .117.12.117.265 0 .145-.126.264-.28.264-.155 0-.207-.119-.117-.264zm-14.557-.243c-.145-.145-1.215-.306-2.378-.359-1.84-.083-1.76-.096.608-.1 1.542-.003 2.795.111 2.888.262.097.156-.01.198-.26.103-.232-.09-.461-.046-.509.097-.056.169-.178.168-.35-.003zm2.029-.008c.113-.341.476-.403.51-.086.01.105-.124.24-.299.297-.174.059-.27-.037-.211-.211zm11.511-.16c.16-.418.62-.527.62-.146 0 .13-.173.302-.384.383-.256.098-.334.02-.236-.236zm1.81.144c-.091-.146.02-.452.248-.68.376-.375.414-.375.414.002 0 .229.149.418.33.42.221.003.2.09-.065.26-.51.33-.723.329-.928-.001zm-21.96-.527c-.09-.145-.037-.264.117-.264s.28.119.28.264c0 .146-.053.265-.117.265s-.19-.12-.28-.265zm7.805-.264c0-.146.179-.265.397-.265.218 0 .397.12.397.265 0 .145-.179.264-.397.264-.218 0-.397-.119-.397-.264zm1.588.121c0-.332 1.015-1.2 1.149-.982.08.13-.087.437-.372.681-.534.457-.777.552-.777.301zm9.833-.306c.154-.186.387-.273.516-.194.42.26.247.611-.282.572-.387-.03-.445-.123-.234-.378zm1.676.185c-.09-.146.022-.265.25-.265.226 0 .412.12.412.265 0 .145-.112.264-.25.264-.136 0-.322-.119-.412-.264zm2.25-.331c0-.11 1.614-.198 3.587-.198 2.504 0 3.534.086 3.41.286-.202.326-6.996.241-6.997-.088zm-23.957-.216c-.095-.155-.117-.339-.048-.408.07-.07.197.057.283.282.179.466.026.548-.235.126zm8.081-.1c0-.226.12-.412.265-.412.145 0 .264.112.264.25 0 .136-.119.322-.264.412-.146.09-.265-.022-.265-.25zm1.47.14a.295.295 0 0 1 .095-.405.296.296 0 0 1 .406.095.295.295 0 0 1-.096.406.296.296 0 0 1-.406-.096zm2.763-.155c0-.218.116-.397.257-.397.14 0 .188.179.104.397-.084.219-.2.397-.257.397-.057 0-.104-.178-.104-.397zm10.212.174c-.091-.148-.037-.35.12-.447.407-.25.67.093.33.433-.19.19-.338.195-.45.014zm-2.935-.306c-.09-.146-.038-.265.116-.265s.28.12.28.265c0 .146-.052.265-.116.265s-.19-.12-.28-.265zm1.322 0c-.09-.146-.044-.265.102-.265.145 0 .338.12.428.265.09.146.044.265-.101.265-.146 0-.339-.12-.429-.265zm-12.038-.53c0-.145.119-.264.264-.264a.265.265 0 0 1 0 .53.265.265 0 0 1-.264-.265zm1.323 0c0-.145.119-.264.264-.264a.265.265 0 0 1 0 .53.265.265 0 0 1-.264-.265zm1.362.014c.059-.175.193-.309.298-.298.316.033.255.396-.086.51-.175.058-.27-.037-.212-.212zm8.551-.026c-.25-.407.093-.67.433-.33.19.19.195.338.014.45-.148.091-.35.037-.447-.12zm1.464.013c0-.146.119-.265.264-.265a.265.265 0 0 1 0 .53.265.265 0 0 1-.264-.265zm-5.82-.397c0-.218-.127-.397-.282-.397-.187 0-.221-.595-.103-1.796.173-1.754.16-1.805-.513-2.111-.38-.173-.69-.44-.69-.591 0-.152.305-.076.68.169 1.017.667 2.596.232 2.709-.746.104-.904-.721-1.39-2.006-1.182-.81.131-.867.107-.452-.197.386-.281.443-.573.308-1.562-.108-.782-.04-1.52.19-2.067.356-.847.36-.848.678-.253.208.388.26 1.122.152 2.093-.165 1.463-.15 1.506.638 1.947 1.034.577 1.08 1.545.111 2.307-.657.517-.686.636-.517 2.13.111.979.07 1.787-.107 2.118-.336.627-.797.707-.797.138zm-6.205-.11a.295.295 0 0 1 .096-.405.296.296 0 0 1 .406.095.295.295 0 0 1-.096.406.296.296 0 0 1-.406-.096zm1.442.01c0-.146.119-.339.264-.429.146-.09.265-.044.265.101 0 .146-.12.338-.265.428-.145.09-.264.045-.264-.1zm11.407-.013c-.228-.14-.255-.277-.077-.387a.331.331 0 0 1 .452.117c.243.393.05.532-.375.27zm-10.085-.284a.265.265 0 0 1 .53 0 .265.265 0 0 1-.53 0zm7.012 0c-.09-.145-.037-.264.117-.264s.28.119.28.264c0 .146-.053.265-.117.265s-.19-.119-.28-.265zm1.455-.015c0-.154.12-.207.265-.117.145.09.264.216.264.28 0 .065-.119.117-.264.117-.146 0-.265-.126-.265-.28zm-12.024-.491a.295.295 0 0 1 .095-.406.296.296 0 0 1 .406.096.295.295 0 0 1-.096.406.296.296 0 0 1-.405-.096zm1.48-.01c.114-.34.477-.401.51-.085.01.105-.123.24-.298.298-.174.058-.27-.037-.211-.212zm1.548-.16c0-.227.121-.338.27-.246.147.09.2.277.116.412-.227.367-.386.299-.386-.166zm6.916-.183c-.025-.486.095-.728.36-.728.219 0 .397.126.397.28 0 .155-.11.212-.245.129-.136-.084-.298.118-.361.447-.1.519-.12.502-.151-.128zm1.154.33c-.09-.145-.037-.264.117-.264s.28.12.28.265c0 .145-.053.264-.117.264s-.19-.119-.28-.264zm1.599.019c-.18-.292.237-.608.48-.364.252.252.206.61-.079.61-.137 0-.317-.11-.401-.246zm.782-.547a.491.491 0 0 1 .073-.576c.176-.176.329-.16.457.046.105.171.072.43-.073.576-.176.176-.329.16-.457-.046zm-12.781-.285c.052-.156.208-.284.346-.284.138 0 .294.128.346.284.052.157-.104.285-.346.285-.243 0-.398-.128-.346-.285zm1.537.02c0-.146.119-.265.264-.265a.265.265 0 0 1 0 .53.265.265 0 0 1-.264-.265zm1.322 0a.265.265 0 0 1 .53 0c0 .145-.12.265-.265.265a.265.265 0 0 1-.265-.265zm8.203 0c0-.146.185-.265.412-.265.227 0 .339.12.249.265-.09.145-.276.265-.412.265-.137 0-.25-.12-.25-.265zm-11.907-.794a.265.265 0 0 1 .53 0 .265.265 0 0 1-.53 0zm1.588 0c0-.145.119-.264.264-.264.146 0 .265.119.265.264a.265.265 0 0 1-.53 0zm1.323 0c0-.145.178-.264.397-.264.218 0 .396.119.396.264 0 .146-.178.265-.396.265-.219 0-.397-.12-.397-.265zm8.202 0c0-.145.112-.264.249-.264s.322.119.412.264c.09.146-.022.265-.249.265s-.412-.12-.412-.265zm1.638-.02c.052-.156.208-.284.346-.284.138 0 .294.128.346.284.053.157-.103.285-.346.285-.242 0-.398-.128-.346-.285zm-12.064-.468c-.091-.148-.037-.349.12-.446.407-.251.67.093.33.433-.19.19-.338.194-.45.013zm1.6.04c-.299-.298-.182-.61.227-.61.218 0 .397.112.397.249 0 .334-.413.572-.625.361zm8.176-.063c-.084-.135-.032-.32.116-.412.148-.091.27.02.27.246 0 .465-.16.533-.386.166zm1.444-.128a.42.42 0 0 1 .418-.419c.23 0 .372.141.315.314-.164.49-.733.572-.733.105zm1.756.191c-.298-.298-.181-.61.228-.61.218 0 .397.112.397.249 0 .334-.413.573-.625.361zm-14.192-.361c0-.154.12-.207.265-.117.145.09.264.216.264.28 0 .065-.119.117-.264.117-.146 0-.265-.126-.265-.28zm.408-.495c-.18-.293.237-.609.481-.364.252.251.205.61-.08.61-.136 0-.317-.11-.4-.246zm3.164-.019c-.09-.145-.037-.264.117-.264s.28.119.28.264c0 .146-.053.265-.117.265s-.19-.12-.28-.265zm7.949.019c-.196-.317.302-.63.654-.413.296.183.102.659-.269.659-.128 0-.301-.11-.385-.246zm1.855.004a.295.295 0 0 1 .095-.406.295.295 0 0 1 .406.096.295.295 0 0 1-.096.405.296.296 0 0 1-.405-.095zm-11.391-.288c.09-.145.275-.264.412-.264.137 0 .249.119.249.264 0 .146-.186.265-.413.265-.226 0-.338-.119-.248-.265zm12.981-.077c.1-.261.247-.408.329-.326.081.081 0 .295-.18.474-.262.26-.292.229-.149-.148zm-13.775-.452c-.09-.145.029-.264.264-.264.236 0 .355.119.265.264-.09.146-.21.265-.265.265-.055 0-.174-.12-.264-.265zm11.51 0c0-.145.118-.264.264-.264.145 0 .264.119.264.264 0 .146-.119.265-.264.265a.265.265 0 0 1-.265-.265zm1.322 0c0-.145.179-.264.397-.264.218 0 .397.119.397.264 0 .146-.179.265-.397.265-.218 0-.397-.12-.397-.265zm-6.813-.44c-.56-.226-.366-.864.316-1.035.738-.185 1.205.023 1.205.537 0 .528-.799.79-1.521.498zm6.284-2.867c-.27-.325-.252-.397.1-.397.236 0 .43.179.43.397 0 .218-.046.397-.1.397-.056 0-.249-.179-.43-.397zm-11.691-.049c.19-.076.419-.067.507.021.088.088-.069.15-.348.14-.308-.013-.37-.076-.16-.16zm13.278-.077c0-.166.11-.235.242-.153.133.083.303.027.377-.123.075-.15.107-.128.073.048-.083.42-.692.62-.692.228zm-13.846-.447a.729.729 0 0 1-.177-.45c0-.166.124-.15.314.04.172.172.251.374.176.45-.075.075-.216.057-.313-.04zm11.226-.073c-.263-.163-.27-.26-.03-.41a.495.495 0 0 1 .58.07c.345.345-.099.62-.55.34zm1.738.073c-.32-.322-.182-.604.22-.449.22.084.398.259.398.389 0 .277-.365.313-.618.06zm-11.156-.353c-.09-.146.029-.265.264-.265.236 0 .355.12.265.265-.09.145-.209.264-.265.264-.055 0-.174-.119-.264-.264zm-10.517-.19c-.4-.06-.728-.217-.728-.349 0-.13.149-.192.33-.135.183.057 1.876.179 3.763.27 1.888.093 3.485.22 3.55.286.145.144-5.902.082-6.915-.072zm9.326-.09c0-.154.12-.207.265-.117.145.09.264.216.264.28 0 .064-.119.117-.264.117-.146 0-.265-.126-.265-.28zm13.649-.154c-.13-.34-.09-.37.188-.14.213.177 1.879.327 4.173.376l3.818.081-4.006.059c-3.505.05-4.028.004-4.173-.376zm-4.675-.4c-.335-.628-.307-.754.172-.754.289 0 .366.155.254.508-.13.41-.059.48.379.366.297-.078.54-.016.54.137 0 .447-1.078.24-1.345-.257zm2.403.29c0-.155.12-.208.265-.118.145.09.264.216.264.28 0 .065-.119.117-.264.117-.146 0-.265-.126-.265-.28zm-12.038-.25c-.09-.145-.038-.264.116-.264.155 0 .28.119.28.264 0 .146-.052.265-.116.265s-.19-.12-.28-.265zm1.19 0a.265.265 0 0 1 .53 0 .265.265 0 0 1-.53 0zm2.117-.264a.265.265 0 0 1 .53 0 .265.265 0 0 1-.53 0zm7.805 0c-.09-.146.022-.265.25-.265.226 0 .412.119.412.265 0 .145-.112.264-.25.264-.136 0-.322-.119-.412-.264zm1.455 0c0-.146.18-.265.397-.265.219 0 .397.119.397.265 0 .145-.178.264-.397.264-.218 0-.397-.119-.397-.264zm-12.038-.265c-.09-.146.03-.265.265-.265.235 0 .354.12.264.265-.09.145-.209.265-.264.265-.056 0-.175-.12-.265-.265zm3.109-.44c-.46-.186-.415-.618.066-.618.218 0 .397.178.397.397 0 .218-.03.387-.066.375-.037-.011-.215-.08-.397-.154zm6.68-.09c-.09-.145-.044-.264.102-.264.145 0 .338.12.428.265.09.145.044.264-.101.264-.146 0-.339-.119-.428-.264zm1.456 0c0-.145.112-.264.249-.264s.322.12.412.265c.09.145-.022.264-.249.264s-.412-.119-.412-.264zm1.72 0c.09-.145.216-.264.28-.264.064 0 .116.12.116.265 0 .145-.126.264-.28.264-.154 0-.206-.119-.116-.264zm-4.3-.182c.255-.066.463-.23.463-.366 0-.135.134-.245.297-.245.205 0 .195.123-.032.397-.182.218-.524.383-.76.366-.364-.026-.359-.05.032-.152zm-7.342-.346c.09-.146.216-.265.28-.265.064 0 .117.12.117.265 0 .145-.126.264-.28.264-.155 0-.207-.119-.117-.264zm9.26 0c-.09-.146.03-.265.265-.265.235 0 .354.12.264.265-.09.145-.209.264-.264.264-.056 0-.175-.119-.265-.264zm1.455 0c0-.146.186-.265.413-.265.227 0 .339.12.249.265-.09.145-.276.264-.413.264-.136 0-.249-.119-.249-.264zm-13.493-.265c0-.145.119-.264.264-.264.146 0 .265.119.265.264a.265.265 0 0 1-.53 0zm2.116-.264c0-.146.126-.265.28-.265.155 0 .207.119.117.265-.09.145-.216.264-.28.264-.064 0-.117-.119-.117-.264zm1.323 0a.265.265 0 0 1 .53 0 .265.265 0 0 1-.53 0zm6.615-.117c0-.227.119-.413.264-.413.146 0 .265.112.265.25 0 .136-.119.322-.265.412-.145.09-.264-.022-.264-.25zm-9.26-.164c0-.154.119-.206.264-.116.146.09.265.216.265.28 0 .064-.12.117-.265.117-.145 0-.265-.127-.265-.28zm10.583.016c0-.146.119-.265.264-.265a.265.265 0 0 1 0 .53.265.265 0 0 1-.264-.265zm1.455 0c.09-.146.276-.265.413-.265.136 0 .248.12.248.265 0 .145-.185.264-.412.264-.227 0-.339-.119-.249-.264zm-10.054-.265c-.09-.145.029-.264.264-.264.236 0 .355.119.265.264-.09.146-.209.265-.265.265-.055 0-.174-.12-.264-.265zm1.455.016c0-.137.12-.323.265-.413.145-.09.264.023.264.25 0 .226-.119.412-.264.412-.146 0-.265-.112-.265-.25zm-4.233-.296c0-.154.119-.206.264-.117.146.09.265.216.265.28 0 .065-.12.117-.265.117-.145 0-.264-.126-.264-.28zm10.727.034c-.084-.135-.032-.321.116-.412.148-.092.27.019.27.246 0 .465-.16.533-.386.166zm1.325.004a.295.295 0 0 1 .096-.405.296.296 0 0 1 .405.095.295.295 0 0 1-.095.406.296.296 0 0 1-.406-.096zm1.6.019c-.092-.148-.038-.35.12-.447.406-.251.669.093.329.433-.19.19-.338.194-.45.014zm-2.275-.835c0-.146.185-.265.412-.265.227 0 .34.12.25.265-.09.145-.276.264-.413.264-.137 0-.25-.119-.25-.264zm1.587 0a.265.265 0 0 1 .53 0 .265.265 0 0 1-.53 0zm-11.51-.265c.09-.145.217-.265.281-.265.064 0 .117.12.117.265 0 .146-.126.265-.28.265-.154 0-.207-.12-.117-.265zm1.456-.016c0-.154.12-.206.265-.116.145.09.264.216.264.28 0 .064-.119.117-.264.117-.146 0-.265-.126-.265-.28zm9.418-.207c-.091-.148-.037-.35.12-.447.407-.251.67.093.33.433-.19.19-.338.195-.45.014zm-10.212-.322c0-.154.12-.206.265-.116.146.09.265.216.265.28 0 .064-.12.116-.265.116-.146 0-.265-.126-.265-.28zm1.456.016c-.09-.146-.038-.265.116-.265s.28.12.28.265c0 .145-.052.264-.116.264s-.19-.119-.28-.264zm10.186 0a.265.265 0 0 1 .53 0 .265.265 0 0 1-.53 0zm-14.023-.104c0-.057.185-.175.41-.262.236-.09.342-.046.25.104-.156.252-.66.372-.66.158zm12.1-.458c.18-.18.393-.262.475-.18.081.08-.066.229-.326.328-.378.144-.408.113-.149-.148zm1.394.033c0-.146.126-.265.28-.265.154 0 .207.12.117.265-.09.145-.216.264-.28.264-.065 0-.117-.119-.117-.264zm-12.436-.265c0-.145.127-.264.28-.264.155 0 .207.119.117.264-.09.146-.216.265-.28.265-.064 0-.117-.12-.117-.265zm1.323-.249c0-.154-.208-.29-.463-.3-.26-.013-.322-.079-.142-.152.461-.187 1.285.312.904.548-.164.101-.299.058-.299-.096zm11.774-.015c-.09-.146-.037-.265.117-.265s.28.119.28.265c0 .145-.052.264-.116.264-.065 0-.19-.119-.28-.264zm-7.5-4.22c.058-.175.192-.31.297-.298.316.032.255.395-.086.51-.175.057-.27-.038-.212-.213zm-1.23-.278c-.09-.146-.045-.265.1-.265.146 0 .338.12.428.265.09.145.045.264-.1.264-.146 0-.339-.119-.429-.264zm2.13-.242a.295.295 0 0 1 .095-.406.296.296 0 0 1 .406.096.295.295 0 0 1-.096.405.296.296 0 0 1-.405-.095zm-1.47-.288a.265.265 0 0 1 .53 0 .265.265 0 0 1-.53 0zm3.043 0c.09-.145.216-.264.28-.264.065 0 .117.119.117.264 0 .146-.126.265-.28.265-.154 0-.207-.119-.117-.265zm-4.498-.264c-.09-.146-.044-.265.101-.265.146 0 .339.12.429.265.09.145.044.264-.102.264-.145 0-.338-.119-.428-.264zm2.168-.17c-.211-.21.028-.624.362-.624.136 0 .248.179.248.397 0 .41-.312.526-.61.228zm1.455-.115c.052-.156.208-.284.346-.284.138 0 .294.128.346.284.052.157-.103.285-.346.285-.242 0-.398-.128-.346-.285zm1.537.02c0-.145.126-.264.28-.264.154 0 .207.119.117.264-.09.146-.216.265-.28.265-.065 0-.117-.12-.117-.265zm-4.352-.242a.295.295 0 0 1 .096-.405.296.296 0 0 1 .405.095.295.295 0 0 1-.095.406.296.296 0 0 1-.406-.096zm-1.47-.287c0-.145.12-.265.265-.265a.265.265 0 0 1 0 .53.265.265 0 0 1-.264-.265zm2.264-.242a.295.295 0 0 1 .096-.405.296.296 0 0 1 .405.095.295.295 0 0 1-.096.406.296.296 0 0 1-.405-.096zm1.309-.023c-.09-.145.022-.264.249-.264s.412.119.412.264c0 .146-.112.265-.249.265s-.322-.119-.412-.265zm1.72 0c0-.145.119-.264.264-.264.146 0 .265.119.265.264a.265.265 0 0 1-.53 0zm1.322 0a.265.265 0 0 1 .53 0 .265.265 0 0 1-.53 0zm-5.688-.264c-.09-.146-.037-.265.117-.265s.28.12.28.265c0 .145-.053.264-.117.264s-.19-.119-.28-.264zm3.453-.242a.295.295 0 0 1 .096-.406.296.296 0 0 1 .406.096.295.295 0 0 1-.096.406.296.296 0 0 1-.406-.096zm1.574-.023c-.09-.145-.037-.264.117-.264s.28.119.28.264c0 .146-.053.265-.117.265s-.19-.12-.28-.265zm-4.366-.233c0-.146.12-.338.265-.428.146-.09.265-.045.265.1 0 .146-.12.34-.265.429-.146.09-.265.045-.265-.101zm1.374-.051c.052-.157.208-.285.346-.285.138 0 .294.128.346.285.053.156-.103.284-.346.284-.242 0-.398-.128-.346-.284zm-2.697-.245a.265.265 0 0 1 .53 0 .265.265 0 0 1-.53 0zm4.803-.251c.113-.341.476-.403.509-.086.01.105-.123.24-.298.297-.174.059-.27-.037-.211-.211zm1.547-.013a.265.265 0 0 1 .53 0 .265.265 0 0 1-.53 0zm-5.556-.322c0-.236-.149-.488-.33-.562-.182-.073-.212-.14-.067-.15.146-.009.443.096.66.233.314.199.327.316.066.578-.262.262-.329.241-.329-.1zm1.323-.075c0-.219.12-.397.265-.397.145 0 .264.178.264.397 0 .218-.119.397-.264.397-.146 0-.265-.18-.265-.397zm1.323.132a.265.265 0 0 1 .53 0c0 .145-.12.265-.265.265a.265.265 0 0 1-.265-.265zm-3.969-.265a.265.265 0 0 1 .53 0 .265.265 0 0 1-.53 0zm6.086-.264c0-.146.119-.265.264-.265a.265.265 0 0 1 0 .53.265.265 0 0 1-.264-.265zm-.427-3.837c0-1.891.043-2.63.094-1.642.051.988.05 2.536 0 3.44-.052.903-.094.094-.094-1.798zm-18.189-3.252c1.109-2.454 1.11-2.436-.154-2.436-.67 0-1.04-.105-.942-.265.21-.338 2.696-.347 2.904-.01.217.35-1.593 3.876-2.088 4.066-.305.117-.237-.21.28-1.355zm32.11 1.393c0-.077.357-.848.793-1.713.437-.864.794-1.635.794-1.712 0-.077-.476-.14-1.058-.14-.582 0-1.059-.119-1.059-.264 0-.146.655-.265 1.456-.265 1.108 0 1.455.094 1.455.392 0 .673-1.684 3.842-2.041 3.842-.187 0-.34-.063-.34-.14z" transform="translate(95.879 -114.289)"/></svg>