<svg xmlns="http://www.w3.org/2000/svg" viewBox="0 0 42.598 65.352" height="247" width="161"><path d="M220.218-27.087c-.403-.445-.438-3.053-.438-32.106 0-30.299.02-31.64.483-32.06.442-.4 2.253-.438 20.597-.438 19.149 0 20.134.023 20.55.484.403.445.438 3.053.438 32.106 0 30.299-.02 31.64-.483 32.06-.442.4-2.253.438-20.597.438-19.149 0-20.134-.023-20.55-.484z" style="fill:#fff;fill-opacity:1;stroke-width:.26458332" transform="translate(232.625 -114.972)"/><path style="fill:#fff;fill-opacity:1;stroke-width:.26605007" d="M-185.88 93.472c-.407-.444-.443-3.052-.443-32.106 0-30.299.02-31.64.49-32.06.446-.399 2.277-.437 20.825-.437 19.362 0 20.357.023 20.779.483.407.445.443 3.053.443 32.106 0 30.3-.02 31.64-.49 32.06-.446.4-2.277.438-20.825.438-19.362 0-20.357-.023-20.779-.484z" transform="translate(186.323 -28.604)"/><path style="fill:#b3b3b1;stroke-width:.26458332" d="M-112.296 229.947c-.403-.444-.438-3.061-.438-32.238 0-30.427.02-31.772.484-32.192.441-.4 2.27-.438 20.86-.438 19.406 0 20.399.023 20.816.484.402.445.438 3.062.438 32.238 0 30.427-.02 31.773-.484 32.192-.442.4-2.271.438-20.861.438-19.405 0-20.398-.023-20.815-.484zm41.411-.218c.464-.42.484-1.757.484-31.928 0-28.93-.035-31.529-.438-31.973-.417-.461-1.402-.484-20.55-.484-18.344 0-20.155.038-20.597.438-.463.42-.484 1.757-.484 31.927 0 28.93.036 31.53.438 31.974.417.46 1.402.484 20.55.484 18.345 0 20.156-.039 20.597-.438zm-39.03-1.634c-.402-.444-.438-2.933-.438-30.386 0-28.633.02-29.92.484-30.34.44-.398 2.106-.438 18.48-.438 17.098 0 18.018.024 18.434.484.402.444.437 2.942.437 30.507 0 22.998-.074 30.096-.317 30.34-.24.24-4.706.317-18.48.317-17.26 0-18.184-.024-18.6-.484zm36.815-.098c.461-.46.461-60.023 0-60.484-.459-.459-36.212-.459-36.67 0-.462.461-.462 60.023 0 60.484.458.46 36.211.46 36.67 0zm-36.08-.821c-.072-.19.282-1.253.787-2.361.71-1.56 1.057-2.037 1.53-2.109.684-.104.687-.026-.07-2.186-.85-2.42-.382-4.513 1.438-6.45 1.263-1.343 2.62-1.932 4.52-1.96 4.036-.062 6.89 3.187 6.405 7.29-.194 1.63-1.336 3.418-2.907 4.55-1.022.735-1.275.794-3.483.814-1.31.011-2.642.16-2.96.33-.845.454-1.275.386-2.134-.336l-.768-.647-.572 1.176-.57 1.176h1.054c.879 0 1.055.088 1.055.529 0 .47-.176.529-1.596.529-1.068 0-1.64-.114-1.728-.345zm4.458-3.501c-.55-.402-.732-.31-.514.258.09.237.326.338.57.245.364-.14.358-.2-.056-.503zm28.236 3.203c0-.369.382-1.446.85-2.395.666-1.35.978-1.725 1.439-1.725h.588l-.777 1.714c-.428.943-.777 1.776-.777 1.852 0 .076.425.139.945.139.758 0 .928.092.857.463-.07.365-.408.48-1.607.542-1.469.077-1.518.058-1.518-.59zm-7.704-2.087c-3.087-1.157-4.805-4.15-4.203-7.322.303-1.6.393-1.777 1.525-3.018 1.35-1.48 2.813-2.124 4.825-2.124 1.964 0 3.322.577 4.732 2.01 1.19 1.21 1.679 2.448 1.706 4.32.034 2.345-1.17 4.278-3.6 5.784-.991.614-3.762.809-4.985.35zm-1.16-20.655c-1.6-.757-2.576-1.752-3.272-3.338-.815-1.858-.928-2.963-.464-4.558.555-1.911 1.378-3.075 2.89-4.092 1.496-1.005 3.164-1.312 5.162-.95.985.18 1.686.175 2.18-.01.579-.22.873-.18 1.445.195.607.398.697.607.578 1.342-.1.612.049 1.248.498 2.136 1.198 2.366.774 5.374-1.05 7.446-2.099 2.384-5.258 3.11-7.967 1.83zm-17.693-.022c-2.558-.912-4.4-3.525-4.4-6.244 0-.85.136-1.843.302-2.207.231-.507.222-.855-.039-1.485-.302-.728-.28-.903.192-1.533.43-.573.757-.715 1.692-.733.639-.013 1.603-.221 2.144-.463.584-.261 1.661-.44 2.646-.438 3.245.005 5.526 1.76 6.458 4.967.513 1.766.332 3.167-.638 4.942-1.617 2.956-5.191 4.322-8.357 3.194zm9.419-10.939c-2.867-.918-4.602-3.14-4.644-5.946-.013-.905.135-2.11.33-2.68.46-1.343 2.105-3.116 3.454-3.725.635-.286 1.064-.66 1.064-.927 0-.599.835-1.324 1.523-1.324.307 0 .89.4 1.302.893.411.491 1.045.984 1.409 1.095 2.178.663 4.113 3.139 4.41 5.64.349 2.95-1.803 6.179-4.69 7.036-1.734.515-2.386.505-4.158-.062zm1.985-13.174c-.088-.088-.316-.098-.507-.021-.211.084-.149.147.16.16.278.011.435-.051.347-.14zm6.069 2.218c-3.232-1.753-4.522-5.56-2.985-8.805.847-1.788 2.127-2.937 4.013-3.6 1.645-.578 3.378-.549 4.76.08.467.214.825.218 1.274.013.76-.346 1.74.064 2.16.904.266.536.306.515.864-.455.788-1.367.743-1.573-.34-1.573-.75 0-.927-.1-.927-.529 0-.47.177-.529 1.572-.529.865 0 1.643.115 1.73.254.086.14-.281 1.212-.816 2.382-.802 1.755-1.078 2.127-1.577 2.127h-.604l.509 1.448c.623 1.772.636 2.594.072 4.34-1.335 4.135-5.92 5.997-9.705 3.944zm8.29-11.026c0-.13-.195-.311-.434-.403-.363-.14-.38-.1-.1.236.38.46.534.507.534.167zm-26.345 10.983c-3.167-1.474-4.688-5.492-3.267-8.63 1.562-3.45 5.484-4.993 8.842-3.479 2.712 1.223 3.953 3.105 3.953 5.992 0 2.248-.6 3.55-2.339 5.08-2.023 1.782-4.747 2.175-7.189 1.037zm-5.353-9.887c.506-1.044 1.535-3.328 1.535-3.406 0-.055-.425-.1-.945-.1-.758 0-.928-.092-.856-.463.072-.373.368-.463 1.537-.463 1.835 0 1.918.299.774 2.78-.714 1.55-.957 1.85-1.497 1.85-.354 0-.6-.089-.548-.198z" transform="translate(112.734 -165.08)"/><path style="fill:#f5d905;stroke-width:.26458332" d="M-109.03 226.896c0-.198.358-1.15.796-2.117.572-1.261.937-1.756 1.295-1.756.755 0 .854-.66.286-1.913-1.821-4.011 1.258-8.935 5.587-8.935 2.584 0 5.093 1.618 5.937 3.827.704 1.842.458 4.522-.546 5.975-1.481 2.143-4.181 3.276-6.439 2.703-.762-.193-1.131-.168-1.5.102-.903.66-2.77.27-2.77-.578 0-.729-.424-.388-1.006.81-.77 1.584-.743 1.713.344 1.713.51 0 .926.12.926.265 0 .145-.654.264-1.455.264-1.051 0-1.455-.1-1.455-.36zm4.612-2.785c.195-.316-.552-.911-.885-.706-.145.09-.197.339-.115.552.164.429.772.522 1 .154zm27.932 2.807c0-.772 1.846-4.16 2.267-4.16.244 0 .375.145.299.331a126.43 126.43 0 0 1-.819 1.852l-.682 1.521h1.055c.761 0 1.055.11 1.055.397 0 .31-.353.397-1.588.397-1.112 0-1.587-.101-1.587-.338zm-8.406-2.603c-3.374-1.67-4.488-5.988-2.36-9.146 1.72-2.556 5.124-3.45 7.988-2.1 1.576.743 2.295 1.475 3.02 3.075 1.38 3.044.005 6.57-3.208 8.225-1.379.71-3.948.685-5.44-.054zm.952-19.938c-1.506-.301-1.856-.487-3.217-1.714-1.887-1.7-2.526-5.523-1.31-7.836 1.138-2.167 3.24-3.533 5.508-3.58 4.795-.098 6.397.255 6.112 1.349-.057.218-.137.516-.177.661-.04.146.2.858.536 1.583.83 1.795.95 3.24.412 4.951-1.07 3.405-4.311 5.295-7.864 4.586zm6.033-12.183c-.09-.234-.289-.348-.442-.253-.192.119-.18.292.035.552.385.464.63.283.407-.3zm-23.98 11.986c-2.645-.387-4.755-2.464-5.338-5.255-.262-1.256-.24-1.685.147-2.868.342-1.045.381-1.48.157-1.75-.765-.922.726-2.87 1.755-2.294.364.204.746.132 1.55-.295 1.517-.803 4.6-.797 6.128.012 3.007 1.592 4.329 5.326 2.992 8.45-1.295 3.028-4.006 4.495-7.39 4zm-3.703-11.086c0-.146-.12-.191-.265-.101-.146.09-.265.282-.265.428 0 .145.12.19.265.1.145-.089.265-.282.265-.427zm11.655-.162c-1.528-.539-3.583-2.584-3.96-3.94-.885-3.192.369-6.408 3.045-7.806.81-.423 1.326-.916 1.575-1.505.338-.798.46-.869 1.364-.794.732.061 1.074.247 1.303.709.17.344.807.848 1.414 1.12 1.778.796 2.62 1.52 3.453 2.974.642 1.12.784 1.67.786 3.056.006 4.722-4.444 7.788-8.98 6.186zm2.42-13.09c-.247-.246-.388-.246-.635 0-.247.248-.176.318.318.318s.564-.07.317-.317zm7.753 2.96c-4.006-.866-6.396-5.563-4.72-9.275 1.432-3.167 5.392-4.837 8.447-3.56.708.296 1.047.318 1.407.093.767-.478 1.865-.043 2.26.897l.35.832.692-1.462c.38-.804.692-1.54.692-1.635 0-.095-.476-.173-1.059-.173-.582 0-1.058-.12-1.058-.265 0-.147.706-.264 1.588-.264 1.036 0 1.587.107 1.587.31 0 .17-.375 1.122-.833 2.116-.684 1.485-.944 1.807-1.455 1.807-.736 0-.776.36-.194 1.753.55 1.318.373 3.82-.374 5.284-1.34 2.625-4.502 4.153-7.33 3.542zm6.381-11.851c-.228-.23-.495-.337-.592-.24-.254.254.438 1.008.748.816.155-.095.092-.329-.156-.576zm-24.531 11.564c-3.187-.477-5.32-3.053-5.344-6.456-.035-4.735 5.26-7.92 9.519-5.726 3.764 1.94 4.677 6.517 2 10.026-1.232 1.616-3.799 2.511-6.175 2.156zm-6.853-10.21c0-.051.35-.865.777-1.808l.777-1.714h-1.042c-.75 0-1.042-.111-1.042-.397 0-.308.353-.396 1.588-.396.947 0 1.587.113 1.587.281 0 .156-.4 1.148-.888 2.205-.576 1.246-1.041 1.923-1.323 1.923-.239 0-.434-.042-.434-.094z" transform="translate(112.734 -165.08)"/><path style="fill:#a5971a;stroke-width:.26458332" d="M-109.03 226.896c0-.198.358-1.15.796-2.117.572-1.261.937-1.756 1.295-1.756.755 0 .854-.66.286-1.913-.747-1.645-.69-3.74.15-5.422 1.89-3.795 6.768-4.699 9.757-1.808.61.59.783.79.382.443-.705-.61-.724-.612-.582-.07.208.797-.098 1.804-.61 2-.663.255-1.732-.563-1.635-1.25.067-.47.245-.572.943-.54.916.042 1.085-.184.5-.669-.578-.48-1.956-.524-2.587-.082-.365.255-.503.282-.373.07.163-.263.092-.274-.321-.053-.604.323-1.016 1.171-.632 1.3.628.209 2.64 1.7 3.533 2.62.539.554 1.336 1.66 1.77 2.455.851 1.558.82 1.564 1.417-.256.072-.218.084-.043.027.39-.212 1.613-2.963 4.396-4.312 4.362-.226-.006 0-.189.503-.407.502-.218.95-.433.995-.477.201-.202-.785-2.42-1.552-3.486-.844-1.176-2.968-2.763-3.698-2.763-.21 0-.403.257-.426.571-.024.314-.198.67-.387.79-.27.171-.259.223.053.24.267.016.224.098-.133.25l-.529.228.53.037.529.038-.53.227c-.29.125-.38.236-.198.246.182.01.33.197.33.415 0 .219.15.4.331.401.22.003.199.09-.066.26-.342.222-.335.258.051.261.301.003.415.174.349.521-.065.336.08.575.415.68.287.092.436.294.336.455-.114.185-.023.23.251.125.27-.104.607.055.904.426.276.345.693.554 1.002.503.396-.066.438-.026.168.159-.304.208-.304.269 0 .39.608.242-1.442.2-2.303-.047-.576-.165-.95-.127-1.305.133-.91.665-2.778.28-2.778-.572 0-.729-.424-.388-1.006.81-.769 1.584-.743 1.713.344 1.713.51 0 .926.12.926.265 0 .145-.654.264-1.455.264-1.051 0-1.455-.1-1.455-.36zm4.612-2.785c.195-.316-.552-.911-.885-.706-.145.09-.197.339-.115.552.164.429.772.522 1 .154zm27.932 2.807c0-.772 1.846-4.16 2.267-4.16.244 0 .375.145.299.331a126.43 126.43 0 0 1-.819 1.852l-.682 1.521h1.055c.761 0 1.055.11 1.055.397 0 .31-.353.397-1.588.397-1.112 0-1.587-.101-1.587-.338zm-8.406-2.603c-1.098-.543-2.971-2.428-2.971-2.989 0-.153.318.19.707.762l.706 1.04.447-1.312c.936-2.755 2.936-5.564 4.592-6.45.38-.203.691-.595.691-.87s-.106-.434-.236-.354c-.13.08-.306-.031-.39-.249a.663.663 0 0 0-.572-.395c-.25 0-.344-.124-.232-.306.126-.203.072-.233-.161-.088-.193.119-.718.252-1.166.295-1.57.15-1.846.283-2.084.998-.297.889-.132 1.089.547.665.652-.407 1.384-.147 1.384.491 0 .657-.51 1.12-1.234 1.12-.71 0-1.147-.706-1.147-1.855v-.832l-.623.748a11.11 11.11 0 0 0-1.048 1.542c-.234.437-.43.658-.435.493-.006-.165.376-.875.849-1.578 1.737-2.579 5.128-3.478 8.004-2.122 1.576.743 2.295 1.475 3.02 3.075.917 2.022.563 4.751-.823 6.351-.803.927-2.166 1.869-2.513 1.736-.205-.08-.308-.038-.229.09.475.768-3.528.764-5.083-.006zm2.552.01c-.176-.108-.554-.151-.84-.096-.866.167-.77.293.222.293.519 0 .794-.088.618-.197zm.344-.591c.244-.017.39-.118.323-.225-.168-.274.838-.773 1.093-.543.115.104.135-.02.043-.274-.116-.322-.028-.47.289-.484.315-.014.345-.064.098-.163-.246-.098-.124-.295.397-.638.414-.274.615-.498.446-.499-.383-.002-.282-.864.117-.997.161-.053.235-.248.164-.432-.28-.728-.28-2.529-.002-2.644.161-.066.097-.13-.142-.141-.239-.012-1.035.52-1.77 1.18-1.515 1.363-2.955 3.958-2.955 5.329 0 .833.046.878.728.725.4-.09.927-.177 1.171-.194zm-6.32-5.077c.001-.727.053-.994.113-.591.061.402.06.997-.003 1.323-.063.325-.113-.004-.11-.732zm-6.67-1.61c.012-.307.075-.37.16-.16.076.192.067.42-.021.508-.088.088-.15-.068-.14-.347zm11.027-12.674c-1.444-.288-1.893-.493-1.942-.885-.012-.097-.161-.512-.33-.921-.755-1.821.062-3.436 1.484-2.935.557.195.72.424.72 1.011 0 .978-.713 1.474-1.454 1.01-.445-.277-.53-.264-.53.082 0 .706.796 2.003 1.11 1.809.196-.121.22-.057.07.19-.19.315-.157.317.221.01.245-.198.372-.478.284-.621-.09-.144.09-.126.4.04.676.361.748.673.098.426-.354-.135-.39-.103-.156.134.349.35.883.122.883-.378 0-.182.35-.667.779-1.077.56-.537.95-.704 1.389-.598.604.147.603.144-.044-.295-2.968-2.014-5.068-4.428-5.758-6.616l-.448-1.422-.603.754c-.332.414-.605.665-.605.556-.004-.586 2.837-3.11 3.5-3.11.05 0 .118.368.152.817.14 1.832 1.764 4.47 3.488 5.665 1.036.717 2.259 1.103 1.959.617-.075-.12-.003-.22.16-.22s.222-.118.133-.263c-.257-.415-.385-1.316-.183-1.287.1.014.36.01.579-.01.353-.03.353-.063 0-.291-.288-.186-.302-.258-.05-.26.21-.002.265-.134.14-.335-.113-.182-.217-.973-.23-1.757-.021-1.198-.138-1.523-.726-2.03l-.7-.602 1.036-.175c.57-.097 1.274-.1 1.564-.008.627.199.943 1.022.617 1.604-.158.283-.02.847.428 1.751.707 1.43 1.108 4.193.608 4.193-.159 0-.23.155-.157.345.201.524-.545 2.055-1.523 3.125-1.64 1.794-3.822 2.465-6.363 1.957zm2.176-1.594c.156.096.25.017.21-.175-.04-.193.106-.313.324-.266.32.069.333.02.063-.255-.272-.276-.47-.195-1.059.428-.398.423-.52.616-.272.43.248-.185.579-.258.734-.162zm3.477-7.608c-.26-.26-.291-.229-.148.148.1.261.248.408.33.327.08-.082 0-.295-.182-.475zm.4-2.977c-.09-.234-.29-.348-.443-.253-.192.119-.18.292.035.553.385.463.63.282.407-.3zm-23.98 11.986c-2.646-.387-4.756-2.464-5.339-5.255-.262-1.256-.24-1.685.147-2.868.342-1.045.381-1.48.157-1.75-.765-.922.726-2.87 1.755-2.294.362.203.749.136 1.543-.27.646-.33 1.682-.565 2.655-.604.877-.036 1.217-.013.755.05-.461.062-.982.285-1.156.496-.175.21-.422.382-.55.382-.358 0-1.149.896-1.236 1.4-.042.248.036.452.174.452.138 0 .19.237.114.526-.08.304-.265.45-.438.346-.166-.1-.139.02.06.264.217.27.28.628.156.91-.112.257-.187.552-.165.656.021.104-.168.115-.421.024-.253-.09-.379-.074-.279.037.1.11.068.5-.07.866-.209.547-.182.637.148.51.556-.213.507.271-.06.602-.374.217-.386.277-.067.31.218.02.486.024.595.007.11-.017.199.147.199.366 0 .526.1.507 1.284-.24 1.907-1.205 3.533-3.74 3.88-6.05.172-1.146.137-1.266-.438-1.496-.344-.138-.472-.258-.284-.267.566-.028 2.261.943 2.966 1.699.364.39.5.67.304.62-.22-.053-.483.319-.684.971-.757 2.454-2.614 4.907-5.044 6.663-.628.454-.675.545-.228.438.31-.074.657.012.768.193.131.212.095.261-.102.14-.168-.104-.306-.126-.306-.048 0 .25 1.446.88 1.762.766a.42.42 0 0 1 .477.166c.106.172.39.072.75-.265.32-.297.79-.485 1.045-.419.256.067.398.014.317-.118-.082-.132-.022-.24.132-.24s.28-.297.28-.661c0-.364-.12-.662-.265-.662-.145 0-.264.107-.264.237 0 .4-.805.57-1.342.282-.959-.513-.46-1.842.692-1.842.741 0 1.394.743 1.612 1.837l.176.876.507-.629c.38-.472.442-.497.247-.1-.303.619-1.45 1.696-2.492 2.343-1.038.644-2.736.89-4.427.643zm-3.704-11.086c0-.146-.12-.191-.265-.101-.146.09-.265.282-.265.428 0 .145.12.19.265.1.145-.089.265-.282.265-.427zm18.628 9.754-.505-.595.596.504c.56.474.716.687.504.687-.05 0-.318-.268-.595-.596zm-1.574-2.068c-.096-.155-.117-.339-.048-.408.07-.07.197.058.283.282.179.466.026.548-.235.126zm-5.626-2.231c.006-.437.065-.583.132-.326.067.258.063.615-.01.794-.072.18-.127-.031-.122-.468zm5.055-.661c0-.8.05-1.128.11-.728.06.4.06 1.055 0 1.455-.06.4-.11.073-.11-.727zm-5.055-1.191c.006-.437.065-.583.132-.326.067.258.063.615-.01.794-.072.18-.127-.032-.122-.468zm5.248-.794c0-.145.116-.443.257-.661.14-.219.256-.278.256-.133 0 .146-.115.444-.256.662-.141.218-.257.278-.257.132zm-5.664-.54c-.255-.665-.18-.836.132-.3.155.266.225.539.157.607-.068.068-.198-.07-.289-.306zm2.614-2.17c1.255-.127 1.984-.705 1.984-1.574 0-.54-.072-.59-.512-.355-.744.398-1.02.34-1.352-.278-.235-.44-.202-.653.164-1.058.586-.647 1.037-.641 1.7.022.623.623.687 1.774.142 2.552-.214.305-.313.629-.22.72.091.092-.538.148-1.4.123-1.24-.035-1.346-.067-.506-.152zm4.894-1.788 1.157-1.323c.127-.145.108-.026-.043.265-.15.29-.672.886-1.157 1.322l-.883.793zm-9.409-.198-.777-.86.86.777c.801.724.981.943.777.943-.046 0-.433-.387-.86-.86zm12.27.15c.191-.077.42-.067.507.02.088.089-.068.151-.347.14-.308-.013-.37-.076-.16-.16zm3.175 0c.191-.077.42-.067.507.02.088.089-.068.151-.347.14-.308-.013-.37-.076-.16-.16zm-1.587-.265c.19-.076.419-.067.507.021.088.088-.069.15-.347.14-.309-.014-.371-.076-.16-.16zm-15.044-1.43c-.163-.303-.226-.62-.142-.705.085-.084.154-.008.154.17 0 .18.13.245.288.147.207-.128.207-.258 0-.465-.475-.474-.325-.75.241-.446.34.182.522.539.508 1.001-.011.395-.08.57-.154.388-.073-.182-.255-.331-.404-.331-.15 0-.202.178-.119.397.226.588-.032.48-.372-.155zm12.05-1.002.014-1.012-2.124.749c-2.67.942-5.1 1.006-7.717.202-.998-.306-1.953-.67-2.123-.807-.21-.171-.348-.1-.432.226-.068.262-.132-.178-.143-.978-.034-2.617 1.16-4.74 3.29-5.854.81-.423 1.326-.916 1.575-1.505.338-.799.46-.869 1.368-.794.775.064 1.072.239 1.33.782.184.384.631.774.995.865.372.093.67.366.681.624.014.298.07.338.16.113.103-.26.234-.226.527.132.223.273.31.307.203.08-.103-.218.156-.033.576.412.42.444.584.563.365.264-.395-.542-.395-.542.208-.03.333.281.546.664.475.85a.446.446 0 0 0 .164.521c.178.11.219.061.105-.124-.104-.168-.125-.305-.047-.305.079 0 .39.485.693 1.077.446.876.531 1.445.452 3.045-.1 2.049-.62 3.328-.595 1.467zm-3.244-2.409c.544-.161 1.126-.556 1.293-.877.167-.32.206-.492.088-.381-.12.111-.57-.127-1.003-.53-.433-.402-.703-.583-.6-.403.126.222.052.276-.23.168-.303-.116-.342-.253-.141-.494.204-.246.142-.37-.238-.469-.318-.083-.47-.02-.4.167.071.183-.198.306-.688.312-.516.007-.76-.102-.683-.304.071-.186-.196-.361-.654-.428-.427-.063-.775-.016-.775.105 0 .12.126.218.28.218.154 0 .2.13.102.288-.128.207-.258.207-.465 0-.42-.42-.83-.352-.472.078.236.285.203.405-.145.539-.251.096-.544.022-.664-.168-.172-.271-.217-.267-.22.02-.002.204-.17.295-.387.211-.247-.094-.335-.02-.247.21.075.196.008.436-.15.534-.158.097-.203.318-.1.49.12.2.035.188-.236-.032-.327-.264-.47-.27-.621-.025-.12.193-.085.25.086.144.156-.097.327-.044.38.117.298.893 4.54 1.207 6.89.51zm-8.019-2.783c0-.146-.17.033-.378.397-.208.363-.378.78-.378.926 0 .145.17-.033.378-.397s.378-.78.378-.926zm5.363-3.625c-.247-.247-.388-.247-.635 0s-.176.317.318.317.564-.07.317-.317zm7.753 2.959c-1.52-.329-2.433-.983-2.61-1.87-.426-2.125-.022-3 1.31-2.841.916.109 1.41.832 1.007 1.474-.36.574-1.328.742-1.839.319-.512-.426-.528.24-.022.933.358.488.54.556 2.242.835.855.14.873.126.56-.475-.178-.34-.229-.531-.113-.424.115.108.354.077.53-.069.223-.185.43-.129.685.185.206.253.229.369.054.264-.172-.103-.373-.09-.446.029-.073.118.151.216.5.216.404 0 .553-.1.413-.278-.12-.153-.187-.474-.148-.714.041-.253-.514-.941-1.32-1.638-1.656-1.43-3.127-3.558-3.596-5.202-.187-.655-.438-1.304-.56-1.442-.12-.138-.22-.33-.22-.427 0-.223 2.097-1.685 2.214-1.544.048.058.223.804.39 1.657.328 1.688.987 2.92 2.396 4.482.889.984 2.148 1.89 1.764 1.269-.099-.16-.054-.291.1-.291s.28.12.28.265c0 .145.186.264.413.264.227 0 .34-.117.25-.261-.092-.15.014-.195.25-.104.226.086.41.025.41-.136 0-.16-.267-.295-.595-.299-.518-.005-.487-.059.238-.417.947-.467.99-1.02.132-1.715-.573-.464-.419-.858.268-.684.195.05.26.038.145-.025-.115-.063-.071-.281.098-.486.244-.293.215-.37-.136-.37-.245 0-.372.118-.282.264.232.375-.108.329-.488-.066-.364-.378-.388-.717-.087-1.19.122-.193.086-.332-.086-.332-.163 0-.236-.097-.162-.216.073-.119-.092-.379-.367-.577-.276-.199-.441-.459-.368-.578.074-.119-.111-.216-.41-.216-.3 0-.545-.113-.545-.25 0-.138-.566-.295-1.257-.35-1.236-.097-1.231-.1.273-.146.858-.027 1.94.123 2.462.342.708.296 1.047.318 1.407.093.767-.478 1.865-.043 2.26.897l.35.832.692-1.462c.38-.804.692-1.54.692-1.635 0-.095-.476-.173-1.059-.173-.582 0-1.058-.12-1.058-.265 0-.147.706-.264 1.588-.264 1.036 0 1.587.107 1.587.31 0 .17-.375 1.122-.833 2.116-.684 1.485-.944 1.807-1.455 1.807-.736 0-.776.36-.194 1.753.55 1.318.373 3.82-.374 5.284-1.34 2.625-4.502 4.153-7.33 3.542zm3.042-2.245c-.18-.218-.463-.393-.627-.388-.164.005-.068.183.215.397.66.499.83.495.412-.008zm3.34-9.606c-.23-.23-.496-.337-.593-.24-.254.254.438 1.008.748.816.155-.095.092-.329-.156-.576zm-24.532 11.561c-1.53-.226-2.525-.743-3.588-1.866-2.26-2.386-2.39-6.31-.286-8.613.296-.323.63-.53.745-.46.114.072.294-.01.4-.18.13-.211.072-.24-.181-.091-.214.125-.172-.01.098-.318.606-.693 2.856-1.417 4.257-1.37.733.023.876.075.433.157-.364.067-.748.273-.853.458-.111.193-.475.282-.86.208-.408-.078-.668-.007-.668.183 0 .171.119.238.264.148.146-.09.265-.066.265.053s-.248.371-.552.56c-.303.19-.487.51-.41.712.097.253.008.316-.286.204-.284-.11-.363-.06-.235.146.105.17.05.31-.122.31-.22 0-.205.13.051.446.316.388.306.425-.078.28-.541-.202-.83.409-.398.844.238.24.187.267-.22.115-.487-.182-.497-.158-.132.3.219.273.261.415.094.315-.456-.273-.648.524-.213.885.208.172.32.407.25.52-.07.114.045.273.255.354.212.081.338.381.282.67-.077.4.021.5.415.425 1.899-.366 4.334-3.762 4.657-6.496.137-1.153.097-1.307-.345-1.326-.275-.011-.36-.078-.189-.147.502-.205 2.26.833 3.261 1.925.51.556.673.799.363.54-.556-.463-.566-.456-.75.535-.342 1.84-1.967 4.51-3.665 6.023-1.48 1.318-1.56 1.446-1.152 1.854.458.458 1.912.857 1.665.457-.078-.126.026-.23.232-.23.205 0 .312.1.237.22-.16.26.31.28 1.172.05.672-.18 1.181-1.172.934-1.817-.117-.305-.244-.334-.507-.115-.513.425-1.551.197-1.658-.364-.05-.265.104-.699.343-.963.926-1.023 2.404.289 2.209 1.96-.093.792-.052.873.301.602.252-.193.223-.096-.073.253-.637.748-3.004 1.752-3.78 1.603-.338-.064-.649-.04-.69.052-.042.093-.623.088-1.292-.01zm-2.091-5.527c-.218-.14-.516-.256-.661-.256-.146 0-.086.115.132.256.218.141.516.257.661.257.146 0 .086-.115-.132-.257zm-.265-.633c0-.057-.184-.175-.41-.261-.236-.09-.342-.046-.25.104.156.251.66.372.66.157zm15.133-.293c.006-.436.065-.583.132-.325.067.257.063.614-.01.793-.072.18-.127-.031-.122-.468zm9.606.133c.09-.146.283-.265.428-.265.146 0 .191.12.101.265-.09.145-.282.264-.428.264-.145 0-.19-.119-.101-.264zm-14.928-1.478c.013-.308.075-.37.16-.16.076.192.067.42-.021.508-.088.088-.15-.069-.14-.348zm-14.308-2.409c0-.051.35-.865.777-1.808l.777-1.714h-1.042c-.75 0-1.042-.11-1.042-.397 0-.308.353-.396 1.588-.396.947 0 1.587.113 1.587.282 0 .155-.4 1.147-.888 2.204-.576 1.247-1.041 1.923-1.323 1.923-.239 0-.434-.042-.434-.094z" transform="translate(112.734 -165.08)"/><path style="fill:#b42220;stroke-width:.26458332" d="M-109.03 226.994c0-.144.373-1.097.83-2.117.585-1.31.97-1.854 1.309-1.854.264 0 .576-.17.692-.376.182-.324.285-.323.74.01.429.314.459.43.16.614-.51.315-.16 1.075.494 1.075.613 0 .687-.27.207-.762-.182-.186.055-.12.527.146.977.55.982.908.017 1.25-.91.321-2.092-.017-2.257-.646-.21-.806-.437-.63-1.206.938l-.713 1.455h1.055c.58 0 1.055.12 1.055.265 0 .145-.654.264-1.455.264-.8 0-1.455-.118-1.455-.262zm32.544.015c0-.136.378-1.088.84-2.116.58-1.29.985-1.87 1.307-1.87.412 0 .377.196-.312 1.714-.427.943-.777 1.776-.777 1.852 0 .076.476.138 1.058.138.582 0 1.059.12 1.059.265 0 .147-.706.264-1.588.264-.873 0-1.587-.111-1.587-.247zm-8.943-2.967c-.767-.49-.854-.66-.712-1.384.524-2.68 3.246-6.463 5.463-7.594.56-.285 1.017-.63 1.017-.765 0-.136-.417-.445-.926-.687-.51-.241-.926-.471-.926-.51 0-.04.294-.128.653-.197.36-.068.598-.035.53.074-.067.11.066.27.295.359.64.245.953.19.754-.131-.343-.555.918.284 1.895 1.261.657.657.853 1.012.634 1.147-.246.152-.247.33-.005.782.3.561.44 3.105.22 4.02-.186.775-1.505 2.458-2.402 3.064-.48.325-1.286.662-1.79.75l-.917.158 1.059-.64c.582-.352 1.028-.778.992-.947-.037-.17.044-.308.179-.308.526 0 1.147-1.792 1.237-3.572.112-2.189-.073-2.612-1.038-2.37-1.918.482-4.55 4.127-4.858 6.728-.087.732-.23 1.328-.32 1.326-.088-.002-.554-.256-1.034-.564zm6.958-10.28c-.09-.145-.282-.264-.428-.264-.145 0-.19.119-.1.264.09.146.282.265.427.265.146 0 .191-.119.101-.265zm-19.185 9.624c-.012-2.467-4.51-6.787-6.535-6.279-.65.164-.67.2-.2.384.513.2.512.203-.01.226-.44.018-.462.065-.131.279.339.219.33.257-.067.26-.254.002-.463.123-.463.269 0 .145.103.265.229.265.125 0 .192.325.148.722-.09.828.516 2.302 1.314 3.195.53.592.53.605.023.425-.763-.27-2.253-1.724-2.553-2.49-.38-.969-.501-3.232-.194-3.603.304-.365-.125-.764-.544-.505-.49.303.26-1.329.957-2.079.497-.536.746-.653.892-.416.154.248.385.2.958-.196 1.024-.71 1.584-.897 3.136-1.046.972-.094 1.217-.054.926.15a1.78 1.78 0 0 1-.85.282c-.665.006-2.326.85-2.32 1.178.002.155.66.565 1.462.913 1.814.785 3.981 2.908 5.088 4.986l.827 1.55-.582.67c-.32.367-.79.822-1.045 1.012-.399.295-.464.274-.466-.152zm12.14-7.16c-.247-.305-.257-.385-.032-.25.22.132.33.025.33-.318 0-.533.658-.952 1.083-.69.4.247.27 1.372-.178 1.544-.633.243-.807.201-1.203-.287zm-13.13-.258c-.465-.187-.412-1.397.07-1.582.22-.084.578-.007.794.173.572.475.534-.467-.044-1.106-.241-.267-.314-.484-.163-.484.152 0 .48.431.73.958.718 1.513-.016 2.594-1.386 2.041zm12.656-1.037c.012-.308.075-.37.16-.16.076.191.066.42-.021.507-.088.088-.15-.068-.14-.347zm.243-1.16c0-.14.268-.395.596-.567.592-.31.592-.31.09.255-.56.631-.686.689-.686.313zm2.778-9.29c-.512-.206-.51-.218.067-.391.327-.098.595-.291.595-.428s.104-.185.231-.106c.218.134 2.415-1.29 2.415-1.567 0-.07-.626-.481-1.39-.913-2.617-1.477-4.76-3.998-5.62-6.61l-.473-1.437.765-.612c1.053-.843 1.338-.774 1.551.377.413 2.228 2.531 4.95 4.766 6.126 1.534.807 1.931.73 2.146-.415.357-1.903.231-4.122-.311-5.49-.141-.355-.109-.449.108-.315.18.111.31.037.31-.177 0-.534-.303-.754-.646-.47-.378.314-1.07-.093-.828-.486.293-.473 1.616-.338 2.118.216.463.511.376 1.607-.127 1.607-.133 0-.11.327.05.727l.503 1.257c.366.92.473 2.365.262 3.523-.113.615-.107 1.18.014 1.254.12.074.146.34.058.59-.24.679-1.184 1.648-1.447 1.485-.127-.078-.676.21-1.219.64-1.032.816-2.969 1.743-2.976 1.424-.002-.102-.091-.052-.198.11-.12.18-.399.212-.724.081zm-18.051-.512c-.761-.11-1.82-.46-2.354-.774-.533-.315-1.126-.513-1.316-.44-.19.074-.65-.227-1.02-.668-.714-.848-.851-1.29-.4-1.29.187 0 .185-.165-.006-.522-.446-.833-.51-3.77-.092-4.19.197-.196.312-.437.256-.534-.056-.097.24-.534.659-.97.577-.604.76-.687.76-.347 0 .246-.112.517-.249.601-.215.133-.325 1.424-.298 3.483.004.31.13.888.281 1.285.235.617.379.696.998.545 1.705-.415 4.17-2.633 5.092-4.581.294-.622.662-1.723.817-2.448.156-.724.376-1.317.49-1.317.113 0 .513.241.888.536l.68.535-.41 1.383c-.225.76-.65 1.859-.946 2.44-.667 1.318-3.762 4.399-4.884 4.864-.556.23-.786.475-.687.733.082.213.302.329.49.257.187-.072.4.023.472.211.072.189.529.436 1.014.55.486.114.972.235 1.081.269.11.034.325.077.479.095.154.018.207.152.117.298-.09.145-.246.25-.347.231-.1-.018-.805-.123-1.566-.235zm15.67.003c-.09-.145-.044-.264.101-.264.146 0 .338.119.428.264.09.146.045.265-.1.265-.146 0-.339-.119-.429-.265zm-11.052-2.17c.185-1.455.25-1.513.386-.346.065.553-.023 1.062-.21 1.217-.247.205-.288.004-.176-.87zm10.721-.46c-.742-.62-.76-1.231-.048-1.612.425-.228.69-.2 1.19.129.745.487.818.992.229 1.581-.522.521-.637.513-1.37-.098zm-12.713-.597c-.463-.464-.389-.949.194-1.261 1.058-.566 1.738-.13 1.358.872-.285.749-1.01.93-1.552.389zm-8.479-6.362c-.818-.819.057-2.317 1.354-2.317 1.04 0 1.029.288-.058 1.51-.748.84-1.065 1.037-1.295.807zm1.439-1.455c-.184-.183-.686.19-.686.51 0 .175.152.155.404-.054.221-.184.348-.39.282-.456zm15.625-1.782c-.129-.336-.254-.356-.66-.102-.707.441-1.42.1-1.316-.63.067-.467.257-.597.875-.597.607 0 .874.174 1.149.748.197.411.303.803.235.871-.068.068-.196-.063-.283-.29zm-3.478-2.162c-1.682-.35-3.028-.763-3.903-1.198-.842-.418-.992-.622-.988-1.348.005-.969.346-1.657.711-1.432.136.084.463-.228.729-.693 1.63-2.855 3.889-3.817 6.919-2.95 1.235.354 1.834.73 2.88 1.805.727.747 1.407 1.33 1.51 1.295.264-.087.568 1.69.375 2.193-.203.53-3.052 1.818-4.873 2.203-1.402.297-2.365.333-3.36.125zm5.639-3.1c1.475-.758 1.691-1.302.74-1.86-.275-.16-.8-.561-1.166-.89-.366-.329-.718-.546-.78-.483-.064.063-.551-.032-1.084-.21-1.58-.531-3.31-.236-4.89.835-.823.56-1.767 1.762-1.767 2.255 0 .094 1.362.717 2.382 1.087.218.08 1.468.11 2.778.067 1.98-.065 2.618-.2 3.787-.801zm4.551-2.987c-.002-.18-.25-.252-.6-.176-.477.105-.516.075-.198-.153.219-.156.665-.285.993-.287.327-.002.595-.143.595-.313s.076-.232.17-.14c.092.094.537-.035.987-.286 1.526-.851 1.527-.961.017-1.752-1.6-.837-3.77-3.003-4.555-4.544-.291-.572-.711-1.653-.934-2.403-.393-1.326-.388-1.378.187-1.918.986-.926 1.389-.722 1.568.795.284 2.394 2.45 5.193 5.03 6.5 1.108.562 1.358.606 1.669.296.535-.536.933-2.06.539-2.064-.197-.003-.215-.076-.048-.199.332-.244.469-1.364.232-1.904-.098-.224-.154-.663-.123-.977.03-.313-.071-.648-.226-.743-.154-.095-.28-.412-.28-.705 0-.41.12-.493.53-.363.57.18.664-.038.279-.646-.189-.299-.379-.32-.868-.097-.532.243-.632.213-.663-.201-.096-1.267 2.238-.672 2.5.638.156.78.16.777.897-.646.975-1.883.959-2.09-.161-2.09-.51 0-.926-.12-.926-.265 0-.146.655-.265 1.455-.265.935 0 1.455.11 1.455.31 0 .17-.375 1.123-.833 2.116-.607 1.318-.97 1.808-1.342 1.808-.28 0-.687.178-.906.397-.342.342-.345.418-.017.544.3.115.364.655.303 2.579-.111 3.49-.223 4.083-.902 4.806-.333.355-.68.624-.77.598-.09-.026-.818.27-1.618.658-.8.387-1.813.741-2.25.786-.436.044-.88.2-.987.346-.124.17-.196.155-.199-.04zm-19.183-.616c-.1-.16-.385-.226-.635-.146-.25.08-.686-.044-.97-.274-.283-.23-.348-.33-.143-.225.253.132.307.09.171-.13a.468.468 0 0 0-.538-.194c-.186.071-.738-.283-1.227-.787-.682-.704-.806-.968-.533-1.137.272-.168.286-.346.063-.764-.58-1.082-.192-5.343.485-5.343.108 0 .332-.298.498-.662.165-.363.425-.661.577-.661.151 0 .025.49-.28 1.09-.307.6-.571 1.582-.589 2.183-.038 1.312.291 2.812.617 2.812.13 0 .167.179.083.397-.268.7.575.44 2.29-.707 2.029-1.354 3.532-3.525 3.966-5.727.163-.827.32-1.6.35-1.717.03-.117.47.07.976.416.824.562.913.738.842 1.668-.19 2.485-2.467 5.845-5.107 7.54-1.511.97-1.415 1.46.342 1.741 1.147.183 1.06.472-.224.743-.506.106-.905.06-1.014-.116zm16.915-.128c-.283-.214-.38-.392-.216-.397.164-.005.447.17.628.388.418.504.247.508-.412.008zm-11.83-.703c.18-.18.394-.262.475-.18.082.08-.065.229-.326.328-.377.144-.408.113-.148-.148zm3.775-1.28c0-1.163 1.644-1.768 2.495-.917.583.582.518 1.172-.129 1.172-.3 0-.476-.111-.393-.247.262-.423-.45-.65-.756-.24-.5.666-1.217.803-1.217.233zm7.725-.427c-.281-.197-.587-.283-.678-.191-.338.337-.155-.35.244-.92.227-.324.637-.589.911-.589.582 0 1.343.964 1.153 1.46-.198.516-1.056.642-1.63.24zm-12.985-.582c-.589-1.102.785-1.851 1.647-.898.467.515.594.966.204.725-.13-.08-.382.032-.562.249-.439.529-.982.497-1.289-.076zm-10.085-6.858c0-.053.357-.803.793-1.668.437-.865.794-1.635.794-1.712 0-.077-.476-.14-1.058-.14-.765 0-1.059-.11-1.059-.397 0-.309.353-.397 1.588-.397.947 0 1.587.114 1.587.282 0 .155-.4 1.147-.888 2.205-.576 1.246-1.041 1.923-1.323 1.923-.239 0-.434-.043-.434-.096z" transform="translate(112.734 -165.08)"/><path style="fill:#2f2718;stroke-width:.26458332" d="M-109.03 226.994c0-.144.373-1.097.83-2.117.604-1.353.964-1.854 1.33-1.854.276 0 .569-.173.65-.385.119-.309.246-.322.653-.068.629.392.658.767.052.663-.557-.096-.772.724-.33 1.258.33.397 1.842.543 1.842.178 0-.113-.183-.467-.408-.787l-.407-.582.803.457c.923.525.912.886-.039 1.222-.91.322-2.092-.016-2.257-.645-.21-.806-.437-.63-1.206.938l-.714 1.455h1.056c.58 0 1.055.12 1.055.265 0 .145-.654.264-1.455.264-.8 0-1.455-.118-1.455-.262zm32.544.015c0-.136.378-1.088.84-2.116.58-1.29.985-1.87 1.307-1.87.412 0 .377.196-.312 1.714-.427.943-.777 1.776-.777 1.852 0 .076.476.138 1.058.138.582 0 1.059.12 1.059.265 0 .147-.706.264-1.588.264-.873 0-1.587-.111-1.587-.247zm-9.195-3.106c-.327-.229-.593-.55-.59-.714.002-.184.087-.166.223.048.147.231.42-.251.823-1.455.998-2.981 3.007-5.385 5.62-6.723.54-.276 1.154-.503 1.366-.503.212 0 .432-.14.49-.31.056-.171.38.078.718.553.549.77.559.829.092.537-.44-.274-.764-.217-2.012.354-2.982 1.366-5.336 4.482-5.678 7.518-.142 1.258-.194 1.293-1.052.695zm5.094-.154c.582-.352 1.028-.778.992-.947-.037-.17.044-.308.179-.308.507 0 1.147-1.78 1.237-3.44.116-2.15-.047-2.737-.714-2.562-.277.072-.504.086-.504.03 0-.18 1.552-.907 1.94-.907.555 0 1.034 1.386 1.028 2.974-.008 1.817-.08 2.074-.924 3.283-.873 1.25-2.16 2.148-3.376 2.358l-.917.159 1.059-.64zm-17.045-.351c.013-.309.075-.371.16-.16.076.19.067.419-.021.507-.088.088-.15-.068-.14-.347zm-5.842-.296c-.655-.238-2.15-1.753-2.427-2.46-.379-.969-.5-3.232-.194-3.603.304-.365-.125-.764-.543-.505-.16.099-.157-.121.006-.589.252-.723 1.425-2.183 1.755-2.183.09 0-.043.227-.293.503-.44.486-.415.51.687.686 1.52.242 3.51 1.162 5.02 2.323.678.52 1.322.866 1.432.768.109-.098.116-.034.014.142-.1.176.172.81.606 1.41 1.067 1.473 1.496 2.796 1.072 3.307-.417.503-.785.493-.785-.021 0-1.271-2.122-4.223-3.868-5.38-1.69-1.118-5.392-2.227-5.392-1.614 0 .142.268.267.595.278.327.01 1.012.175 1.521.365l.926.345-.784.207c-.695.183-.725.23-.264.41.512.2.511.203-.01.226-.44.018-.463.065-.133.279.34.219.33.257-.066.26-.254.002-.463.123-.463.269 0 .145.103.265.229.265.125 0 .192.325.148.722-.09.822.515 2.3 1.3 3.18.557.623.553.643-.09.41zm3.555-3.85-.777-.86.86.778c.473.427.86.814.86.86 0 .204-.218.024-.943-.777zm-2.364-1.674c-.582-.347-.94-.633-.794-.635.318-.004 1.984.988 1.984 1.181 0 .173.055.198-1.19-.546zm3.538-.31c-.33-.42-.32-.429.1-.1.255.2.463.408.463.463 0 .218-.217.078-.563-.363zm13.23-1.043c-.248-.304-.258-.384-.033-.249.22.132.33.025.33-.318 0-.533.658-.952 1.083-.69.4.247.27 1.372-.178 1.544-.633.243-.807.201-1.203-.287zm-13.13-.257c-.466-.187-.413-1.397.07-1.582.22-.084.577-.007.793.173.572.475.534-.467-.044-1.106-.241-.267-.314-.484-.163-.484.152 0 .48.431.73.958.718 1.513-.016 2.594-1.386 2.041zm12.655-1.037c.012-.308.075-.37.16-.16.076.191.066.42-.021.507-.088.088-.15-.068-.14-.347zm-18.12-.304-.767-.114.768-.523c1.13-.771 1.936-1.053 3.413-1.194.972-.093 1.218-.053.926.151a1.78 1.78 0 0 1-.85.282c-.725.006-2.325.863-2.325 1.244 0 .191-.089.33-.198.308-.11-.022-.544-.09-.966-.154zm24.342-.497c-.078-.202-.294-.371-.48-.376-.187-.005-.55-.169-.809-.365-.437-.331-.424-.365.19-.482.363-.07.605-.037.538.072-.068.11.065.27.294.359.64.245.953.19.754-.131-.13-.21-.028-.21.367 0 .3.162.63.442.732.623.147.26.111.26-.17-.001-.484-.449-.92-.422-.542.033.237.286.19.394-.215.5-.302.08-.577-.018-.66-.232zm-5.979-.358c0-.14.268-.396.596-.568.592-.31.592-.31.09.255-.56.631-.686.689-.686.313zm2.778-9.29c-.512-.207-.51-.22.067-.392.327-.098.595-.291.595-.428s.104-.185.231-.106c.128.078.744-.228 1.37-.682 1.069-.774 1.108-.846.644-1.186-.648-.473-.42-.456.822.063l1.014.424-.916.76c-.814.675-2.596 1.496-2.871 1.322-.056-.035-.176.048-.265.186-.091.142-.392.159-.69.038zm-18.03-.51c-.75-.11-1.865-.482-2.479-.827l-1.116-.627.847-.244c.624-.179.904-.152 1.06.1.117.19.332.27.479.18.146-.092.328-.005.404.192.075.197.534.451 1.02.565.485.114.971.235 1.08.269.11.034.325.077.48.095.153.018.206.152.116.298-.09.145-.246.25-.347.231-.1-.018-.795-.122-1.544-.232zm15.65 0c-.09-.145-.045-.264.1-.264.146 0 .338.12.428.265.09.145.045.264-.1.264-.146 0-.339-.119-.429-.264zm-11.053-2.169c.185-1.456.25-1.514.386-.347.065.553-.023 1.062-.21 1.218-.247.205-.288.004-.176-.871zm-9.428.237c-.449-.449-.35-.579.46-.607 2.477-.085 6.378-3.318 7.444-6.169.361-.966.554-1.965.488-2.53-.118-1.014-.042-1.085.621-.581.366.279.4.545.2 1.613-.684 3.661-4.115 7.239-7.957 8.297-.678.186-1.053.18-1.256-.023zm20.15-.698c-.743-.62-.762-1.23-.049-1.612.425-.228.69-.199 1.19.13.745.487.818.991.229 1.58-.522.522-.637.514-1.37-.098zm7.024-.009c-3.082-.96-5.376-2.885-6.785-5.694-1.05-2.092-1.276-3.033-.805-3.332.582-.368.764-.283.764.355 0 1.052 1.52 3.85 2.771 5.1 1.234 1.234 3.805 2.64 5.365 2.933.917.173 1.062.402.529.838-.23.187-.792.126-1.84-.2zm-19.738-.588c-.463-.463-.389-.948.194-1.26 1.058-.567 1.738-.13 1.358.872-.285.749-1.01.93-1.552.388zm-7.722-.47c-.446-.833-.51-3.77-.092-4.189.197-.197.312-.437.256-.535-.056-.097.24-.534.659-.97.578-.604.76-.687.76-.347 0 .246-.111.517-.248.602-.22.135-.335 1.545-.293 3.554.007.35.18.967.382 1.373.202.407.301.806.22.887-.345.345-1.386.108-1.644-.374zm28.489-.205c-.424-.098-.456-.285-.278-1.61.325-2.425.229-4.055-.322-5.444-.132-.33-.104-.447.078-.334.291.18.658-.738.4-.997-.26-.26-1.119-.158-1.119.133 0 .154.138.195.306.091.185-.114.234-.072.124.106-.229.37-1.016.092-.883-.311.177-.542 1.635-.496 2.144.067.461.509.4 1.619-.09 1.619-.218 0 .204 1.432.61 2.066.122.19.227 1.182.233 2.203.012 1.97-.31 2.617-1.203 2.41zm.263-7.788c-.084-.211-.147-.148-.16.16-.011.279.051.435.14.347.087-.088.097-.316.02-.507zm-29.508 2.101c-.819-.818.056-2.316 1.353-2.316 1.04 0 1.029.288-.058 1.51-.748.84-1.065 1.037-1.295.806zm.868-1.522c.073 0 .06.208-.03.463-.153.44-.137.44.329.002.372-.351.415-.535.18-.77-.42-.42-1.13.176-1.107.933.017.552.021.552.256-.033.132-.327.299-.595.372-.595zm16.195-1.715c-.129-.336-.254-.355-.66-.102-.707.442-1.42.101-1.316-.63.067-.466.257-.596.875-.596.607 0 .874.174 1.149.748.197.41.303.803.235.871-.068.068-.196-.063-.283-.29zm-4.669-2.959c-.364-.072-1.346-.436-2.183-.808-1.213-.539-1.521-.799-1.521-1.282v-.607l1.521.769c3.599 1.818 7.628 1.6 10.42-.565.985-.764 1.288-.757 1.288.03 0 .294-.696.803-2.004 1.467-1.846.937-2.194 1.021-4.431 1.073-1.336.03-2.726-.004-3.09-.077zm-2.778-2.782c-.437-.295-.605-.476-.373-.402.275.089.584-.152.897-.7 1.612-2.824 3.898-3.808 6.85-2.95.823.239 1.85.733 2.283 1.097.982.827 1.965 2.184 1.743 2.406-.092.092-.35-.093-.573-.412-.223-.318-.512-.58-.642-.58s-.558-.298-.953-.663c-.394-.365-.768-.613-.83-.55-.064.064-.551-.031-1.084-.21-1.067-.358-1.573-.368-2.952-.058-1.963.442-4.323 2.78-3.399 3.365.196.124.237.219.091.21-.145-.008-.622-.257-1.058-.553zm14.16-2.508c-.003-.179-.252-.251-.6-.175-.478.105-.517.075-.199-.153.219-.156.665-.285.993-.288.327-.002.595-.143.595-.312 0-.17.076-.233.17-.14.173.174 1.543-.5 2.135-1.05.338-.313 1.302-.196 1.538.187.176.285-2.45 1.524-3.446 1.625-.437.045-.881.2-.988.347-.124.17-.196.155-.199-.04zm-19.184-.615c-.1-.16-.385-.226-.635-.146-.555.176-1.417-.416-1.15-.79.323-.449 1.656-.96 1.581-.605-.082.39 1.073.998 1.907 1.003.847.005.407.423-.689.653-.506.107-.905.062-1.014-.115zm16.915-.129c-.283-.213-.38-.392-.216-.396.164-.005.447.17.628.388.418.504.247.508-.412.008zm-11.83-.702c.18-.181.394-.262.475-.18.082.08-.065.229-.326.328-.377.143-.408.113-.148-.148zm-8.392-.89c-.491-.507-.812-1.003-.713-1.102.1-.1.18-.041.18.128 0 .504.825.357 2.532-.451 3.024-1.43 4.908-3.74 5.659-6.937.418-1.78.442-1.814.99-1.43.527.368.541.472.229 1.651-.956 3.613-3.51 6.565-6.831 7.897-.767.308-1.21.634-1.133.836.188.497.064.416-.913-.591zm12.167-.406c0-1.149 1.651-1.745 2.495-.901.589.588.516 1.171-.146 1.171-.445 0-.499-.075-.261-.361.466-.562-.293-1.091-1.012-.706-.633.339-.735.594-.147.368.279-.107.354-.032.247.247-.24.625-1.176.77-1.176.182zm14.468.006c-3.525-1.107-6.157-3.935-7.34-7.883-.293-.982-.283-1.192.075-1.55.376-.376.441-.289.705.943.418 1.95 1.394 3.717 2.857 5.175 1.487 1.482 4.201 2.874 5.296 2.716l.74-.108-.86-.209c-.907-.22-1.03-.395-.59-.835.461-.462.796-1.953.44-1.958-.197-.003-.215-.076-.048-.198.332-.244.469-1.365.232-1.904-.098-.224-.154-.664-.123-.977.03-.314-.071-.648-.226-.743-.287-.178-.399-1.2-.13-1.2.082 0 .38.123.661.273.42.225.512.187.512-.211 0-.268-.143-.629-.317-.804-.366-.365-1.375-.436-1.155-.08.08.13-.007.296-.195.368-.197.075-.357-.076-.378-.357-.096-1.268 2.238-.674 2.5.636.156.78.16.778.897-.645.975-1.884.959-2.091-.161-2.091-.51 0-.926-.12-.926-.265 0-.145.655-.264 1.455-.264.935 0 1.455.11 1.455.31 0 .17-.375 1.122-.833 2.116-.607 1.318-.97 1.807-1.342 1.807-.28 0-.687.179-.906.398-.342.342-.345.418-.017.543.3.116.364.656.303 2.58-.157 4.925-.282 5.14-2.581 4.417zm-6.743-.417c-.281-.197-.587-.283-.678-.191-.338.337-.155-.35.244-.921.227-.324.637-.588.911-.588.582 0 1.343.964 1.153 1.46-.198.516-1.056.642-1.63.24zm-12.985-.582c-.589-1.102.785-1.852 1.647-.899.467.516.594.966.204.725-.13-.08-.382.033-.562.25-.439.529-.982.497-1.289-.076zm-7.43-.572c-.564-1.054-.161-5.309.503-5.309.108 0 .332-.297.498-.661.165-.364.425-.662.577-.662.151 0 .025.491-.28 1.09-.307.6-.571 1.582-.589 2.183-.037 1.285.289 2.813.6 2.813.12 0 .157.238.08.529-.176.675-1.032.686-1.39.017zm-2.655-6.286c0-.053.357-.804.793-1.668.437-.865.794-1.636.794-1.713 0-.077-.476-.14-1.058-.14-.765 0-1.059-.11-1.059-.396 0-.31.353-.397 1.588-.397.947 0 1.587.113 1.587.282 0 .155-.4 1.147-.888 2.204-.576 1.247-1.041 1.923-1.323 1.923-.239 0-.434-.043-.434-.095zm23.59-1.404c0-.364.06-.513.133-.33.073.181.073.479 0 .66-.074.183-.134.034-.134-.33z" transform="translate(112.734 -165.08)"/></svg>