<svg xmlns="http://www.w3.org/2000/svg" viewBox="0 0 42.598 65.352" height="247" width="161"><path d="M98.343 88.908c-.403-.445-.438-3.053-.438-32.106 0-30.299.02-31.64.484-32.06.44-.4 2.252-.438 20.596-.438 19.149 0 20.134.023 20.55.484.403.445.438 3.053.438 32.106 0 30.299-.02 31.64-.483 32.06-.442.4-2.253.438-20.597.438-19.149 0-20.133-.023-20.55-.484z" style="fill:#fff;fill-opacity:1;stroke-width:.26458332" transform="translate(128.91 -34.982)"/><path style="fill:#fff;fill-opacity:1;stroke-width:.26584104" d="M-83.032 240.434c-.406-.445-.442-3.053-.442-32.106 0-30.299.02-31.64.489-32.06.445-.4 2.274-.438 20.793-.438 19.33 0 20.325.023 20.746.484.406.444.442 3.052.442 32.106 0 30.299-.02 31.64-.488 32.06-.446.4-2.275.438-20.793.438-19.331 0-20.326-.024-20.747-.484z" transform="translate(83.474 -175.565)"/><path style="fill:#b1b2af;stroke-width:.26458332" d="M234.464 246.103c-.402-.444-.438-3.061-.438-32.238 0-30.427.02-31.772.484-32.192.442-.4 2.271-.438 20.861-.438 19.405 0 20.398.023 20.815.484.403.445.438 3.062.438 32.238 0 30.427-.02 31.773-.484 32.192-.44.4-2.27.438-20.86.438-19.406 0-20.399-.023-20.816-.484zm41.412-.218c.463-.42.484-1.757.484-31.928 0-28.93-.036-31.529-.438-31.973-.417-.461-1.402-.484-20.55-.484-18.344 0-20.156.038-20.597.438-.464.42-.484 1.757-.484 31.927 0 28.93.036 31.53.438 31.974.417.46 1.402.484 20.55.484 18.344 0 20.156-.039 20.597-.438zm-39.03-1.634c-.402-.444-.438-2.933-.438-30.386 0-28.633.02-29.92.484-30.34.44-.398 2.105-.438 18.48-.438 17.098 0 18.017.024 18.433.484.402.444.438 2.941.438 30.507 0 22.998-.074 30.096-.317 30.34-.241.24-4.707.317-18.48.317-17.26 0-18.184-.024-18.6-.484zm35.082.024c-1.15-.066-1.654-.201-1.654-.445 0-.194.414-1.26.92-2.37.719-1.577 1.04-2.017 1.473-2.017.647 0 .57.424-.447 2.448l-.632 1.257h.918c.594 0 1.012.163 1.187.463.184.316.272-9.043.277-29.58.006-23.024-.066-30.118-.309-30.362-.46-.459-36.212-.459-36.671 0-.461.461-.461 60.023 0 60.484.242.242 4.643.305 18.454.267 9.976-.028 17.393-.094 16.484-.145zm-34.462-.48c0-.226.377-1.238.837-2.249.681-1.498.949-1.838 1.444-1.838h.607l-.782 1.745c-.43.959-.783 1.792-.783 1.852 0 .059.476.107 1.058.107.765 0 1.059.11 1.059.397 0 .312-.368.397-1.72.397-1.378 0-1.72-.082-1.72-.41zm17.676-1.375c-.219-.255-.466-.657-.55-.893-.099-.283-.362-.391-.767-.316-.339.064-.843-.052-1.121-.258-.484-.357-.476-.38.189-.547.537-.135.761-.425.993-1.287.165-.611.526-1.4.803-1.752.639-.812.633-1.262-.03-2.564-.502-.983-.512-1.146-.156-2.636.208-.873.44-2.361.513-3.307l.134-1.72-.37 1.985a155.12 155.12 0 0 1-.776 3.836c-.223 1.019-.404 2.388-.403 3.043l.003 1.19-1.93.63c-2.058.671-2.396.647-4.348-.305-1.049-.512-1.151-.518-1.608-.105-.606.549-1.467.57-1.902.045-.18-.218-.539-.397-.795-.397s-.528-.238-.604-.529a.707.707 0 0 0-.66-.53c-.915 0-1.095-.565-1.01-3.162.068-2.037.169-2.54.568-2.832.267-.195.632-.355.81-.355a.47.47 0 0 0 .422-.292c.114-.342 1.94-1.021 2.758-1.027.31-.002.711.175.893.393.18.218.612.397.958.397.387 0 .63.155.63.402 0 .222.284.532.631.69.815.372 1.31 1.422.97 2.057-.168.312-.158.57.028.756a.532.532 0 0 1 .07.624c-.115.188-.218.699-.228 1.135-.013.607-.204.891-.81 1.203-.437.225-.88.528-.983.673-.557.78 2.135 1.594 3.448 1.041 1.387-.583 2.722-3.712 3.331-7.81.361-2.43.36-2.436-.257-2.992-.613-.552-.616-.576-.248-2.542 1.393-7.445 1.903-11.405 1.617-12.545-.311-1.24-.69-.713-.7.97-.005.91-.19 2.606-.412 3.77-.221 1.164-.471 2.92-.555 3.903-.131 1.526-.226 1.786-.657 1.786-.278 0-.971.238-1.542.529-1.388.708-2.45.666-3.842-.15l-1.159-.68-.791.586c-.727.537-.864.555-1.667.22-.481-.2-1.024-.332-1.206-.291-.182.04-.33-.101-.33-.314 0-.216-.354-.465-.797-.562-.947-.208-1.428-.982-1.229-1.978.08-.4.004-.863-.17-1.037-.242-.243-.228-.367.064-.548.311-.192.317-.306.034-.647-.511-.616-.127-1.674.778-2.142.435-.225.79-.524.79-.666 0-.142.184-.258.408-.258.224 0 .749-.252 1.166-.56.721-.534.8-.54 1.617-.133.473.236 1.08.428 1.348.428.269 0 .488.18.488.397 0 .219.166.397.368.397.786 0 1.568.949 1.542 1.87-.014.493.115.984.287 1.09.24.148.24.266-.002.507-.179.18-.25.64-.163 1.07.17.852-.269 1.549-.978 1.549-.767 0-.805.706-.076 1.435.798.798 2.268.92 3.201.266 1.339-.937 2.788-5.135 3.101-8.983l.173-2.121-.882-.26c-.553-.162-1.011-.531-1.228-.987-.19-.4-.47-.727-.623-.727-.153 0-.203-.197-.111-.437.102-.266-.042-.632-.369-.937-.686-.64-.69-1.7-.007-2.127.291-.182.53-.6.53-.929 0-.328.11-.598.246-.598s.332-.267.436-.594c.23-.723.864-1.238 1.54-1.25.474-.007.494-.176.339-2.852-.175-3.006-.915-6.333-1.792-8.05-1.007-1.974-3.345-2.693-4.618-1.42-.827.826-.822 1.303.017 1.685.81.37 1.291 1.471.934 2.14-.166.309-.156.568.03.753.163.164.188.43.058.636-.123.194-.242.696-.265 1.114-.044.798-.457 1.213-1.216 1.22-.25.002-.565.213-.702.468-.136.255-.817.632-1.512.837-1.13.334-1.346.327-2.032-.067-.422-.242-.936-.44-1.142-.44a.378.378 0 0 1-.376-.38c0-.208-.241-.455-.536-.549-.295-.093-.728-.463-.963-.822-.349-.531-.37-.778-.118-1.332.234-.514.235-.77.005-1.048-.232-.28-.226-.367.025-.367.227 0 .28-.253.168-.81-.127-.637-.024-.946.485-1.455.355-.355.83-.646 1.054-.646.225 0 .41-.165.41-.366 0-.203.385-.445.86-.54a138.36 138.36 0 0 0 1.536-.316c.438-.094.799.003 1.024.274.473.57 1.162.527 1.737-.108.978-1.08 3.513-1.164 4.36-.143.173.208.695.504 1.16.658.78.257.838.356.75 1.278-.052.55.09 1.715.317 2.59.227.876.555 3.052.73 4.838.192 1.957.403 3.094.533 2.862.285-.51-.184-5.26-.68-6.9-.335-1.103-.34-1.4-.033-1.993.198-.383.44-1.125.538-1.648.15-.797.084-1.018-.405-1.36-.576-.404-1.632-3.024-1.388-3.443.07-.12.287-.155.483-.08.196.076.425-.079.509-.344.084-.264.368-.676.632-.914.451-.409.51-.38.975.485.402.747.609.89 1.101.767.333-.083.606-.072.606.026 0 .59-.95 3.01-1.362 3.468-.614.684-.614 1.103-.004 2.468.472 1.052.472 1.164.008 3.534-.508 2.599-.656 6.285-.253 6.285.25 0 .42-.863.703-3.572.09-.873.346-2.409.567-3.412.22-1.004.345-2.403.278-3.11-.114-1.177-.076-1.284.447-1.284.314 0 .973-.296 1.464-.658 1.343-.991 2.519-1.126 3.5-.4.777.574.837.58 1.725.156 1.04-.496 1.794-.36 2.198.394.204.38.445.47.926.35.528-.133.65-.064.65.364 0 .29.29.716.642.948.782.512 1.067 1.303.709 1.97-.186.349-.175.592.038.805.23.23.228.382-.012.622-.175.175-.318.643-.318 1.04 0 .784-.602 1.553-1.218 1.553-.212 0-.454.179-.538.397-.084.218-.309.397-.5.397-.19 0-.699.202-1.129.449-.735.422-.823.422-1.467 0-.377-.247-.928-.45-1.224-.45-.296 0-.538-.163-.538-.364 0-.2-.359-.513-.797-.695-.796-.33-1.173-1.078-1.017-2.02.044-.27-.02-.651-.141-.846-.127-.202-.105-.47.051-.626.15-.15.207-.678.127-1.174-.164-1.007.45-1.947 1.273-1.947.26 0 .55-.124.643-.276.312-.504-.452-1.047-1.474-1.047-1.37 0-2.464.97-3.142 2.782-.716 1.914-1.609 6.368-1.609 8.027 0 1.194.076 1.37.728 1.68.4.19.842.606.982.924.14.317.46.631.71.697.298.078.41.294.325.622-.079.301.087.7.414.996.625.566.721 1.789.176 2.241-.203.169-.309.54-.234.826.093.357.003.52-.288.52-.233 0-.594.405-.8.9-.37.884-1.218 1.412-1.746 1.086-.405-.25-.322 3.927.12 6.01.89 4.202 4.204 7.257 5.963 5.497.737-.736.668-.993-.387-1.434-.925-.386-1.417-1.323-1.112-2.118.08-.207-.028-.521-.24-.697-.276-.23-.305-.413-.105-.655.154-.185.204-.637.112-1.004-.252-1.003.076-1.689.953-1.994.432-.151.857-.459.943-.684.087-.225.403-.41.704-.41.3 0 .75-.184.999-.41.52-.47 1.794-.274 2.02.312.076.2.483.363.904.363.455 0 .766.14.766.347 0 .191.37.621.823.956.71.525.804.73.68 1.489-.095.59-.016.984.242 1.198.336.279.333.376-.019.765-.222.246-.404.768-.404 1.162 0 .537-.23.852-.926 1.262-.509.3-.926.654-.926.785s-.182.238-.406.238c-.223 0-.692.188-1.042.417-.582.382-.717.378-1.592-.036-.948-.45-.961-.448-1.684.244-.942.903-2.045.902-3.375-.002-.566-.385-1.39-.8-1.83-.922-.776-.216-.81-.291-1.13-2.541-.61-4.274-.889-7.052-.772-7.664.064-.335-.003-.608-.15-.608-.476 0 .008 7.051.888 12.898.298 1.983.286 2.229-.133 2.692-.387.427-.432.803-.282 2.315.378 3.796 1.596 7.164 3.026 8.367.985.828 2.453 1.16 3.343.754.826-.376.846-1.297.035-1.605-.945-.36-1.321-.98-1.174-1.937.087-.56-.01-1.024-.275-1.325-.3-.34-.318-.464-.07-.464.24 0 .29-.246.172-.837-.204-1.02.4-2.073 1.19-2.073a.704.704 0 0 0 .687-.53c.088-.337.36-.528.753-.528.338 0 .689-.12.779-.265.09-.145.506-.264.926-.264.42 0 .836.119.926.264.09.146.446.265.791.265.365 0 .69.194.778.463.082.254.507.666.944.914.667.378.794.613.794 1.468 0 .56.13 1.147.288 1.305.207.207.207.338 0 .466-.159.097-.288.579-.288 1.069 0 .918-.557 1.723-1.192 1.723-.198 0-.433.232-.523.516-.098.307-.317.457-.54.37-.208-.079-.567.047-.8.279-.477.477-2.113.572-2.381.138-.113-.182-.4-.074-.801.303-.405.38-1.07.628-1.89.705-1.06.1-1.438.001-2.324-.606-.582-.399-1.356-.807-1.72-.908-.389-.109-.633-.35-.592-.587.038-.221-.17-1.618-.463-3.103-.293-1.486-.609-3.526-.703-4.534-.093-1.008-.272-1.833-.396-1.833-.334 0-.277 1.16.187 3.812.33 1.892.352 2.608.108 3.626-.315 1.31-.147 2.88.308 2.88.142 0 .493.53.78 1.18.286.648.704 1.361.928 1.585.533.533.255.94-.645.94-.52 0-.851.22-1.19.793-.541.918-.736.968-1.283.331zm-17.053-55.033c.347-.692.714-1.525.816-1.852.167-.541.097-.596-.76-.596-.767 0-.944-.099-.944-.529 0-.47.177-.529 1.588-.529 1.465 0 1.587.045 1.587.59 0 .324-.378 1.395-.84 2.38-.686 1.463-.955 1.792-1.46 1.792h-.619zm32.45.984c0-.15.357-.98.794-1.844.436-.865.793-1.636.793-1.712 0-.077-.476-.14-1.058-.14-.764 0-1.058-.11-1.058-.397 0-.312.367-.397 1.72-.397 2.077 0 2.087.041.735 2.774-.674 1.362-1.132 1.988-1.455 1.988-.26 0-.471-.122-.471-.272z" transform="translate(-234.026 -181.235)"/><path style="fill:#f1d609;stroke-width:.26458332" d="M237.466 243.868c0-.731 1.845-4.16 2.239-4.16.533 0 .533-.003-.37 1.99l-.777 1.714h1.041c.75 0 1.042.112 1.042.397 0 .309-.353.397-1.588.397-1.112 0-1.587-.101-1.587-.338zm33.073-.299c0-.536 1.483-3.765 1.827-3.978.711-.44.712.244.002 1.71-.424.875-.77 1.708-.77 1.85 0 .144.41.261.91.261s.984.12 1.074.265c.102.165-.438.264-1.44.264-1.2 0-1.603-.093-1.603-.372zm-15.437-1.434c-.241-.266-.438-.624-.438-.794 0-.175-.384-.31-.882-.31-1.124 0-1.395-.268-.649-.64.358-.178.714-.743.922-1.462.186-.644.464-1.248.616-1.342.152-.094.346-.6.431-1.125.116-.712.01-1.19-.421-1.886-.417-.675-.508-1.063-.33-1.406.319-.612.842-3.675.842-4.927 0-.636-.122-.97-.356-.97-.196 0-.555-.22-.799-.49-.416-.46-.385-.844.5-6.24.597-3.64.914-6.397.865-7.513l-.078-1.765-1.146-.082c-.948-.068-1.222-.216-1.587-.858-.243-.427-.53-.777-.64-.778-.11 0-.198-.3-.198-.663 0-.364-.115-.661-.256-.661-.41 0-.788-.924-.628-1.536.08-.31.38-.638.667-.728.302-.096.46-.319.379-.531-.077-.202.173-.846.557-1.432.647-.988 1.249-1.274 2.287-1.086.125.022.39-.172.587-.432.344-.454.359-.454.367 0 .006.364.113.417.471.229.255-.133.701-.15.992-.038.769.297 2.248 2.074 2.084 2.502-.078.202.105.496.41.66.39.209.55.553.55 1.195 0 .495-.12.974-.265 1.064-.146.09-.265.455-.265.81 0 .358-.155.646-.35.646-.191 0-.519.387-.727.86-.332.754-.506.862-1.418.877-1.523.026-1.637.474-1.227 4.826.187 1.993.555 5.111.818 6.93.505 3.508.458 3.806-.678 4.238-.532.202-.55.313-.33 2.144.126 1.061.34 2.411.473 3 .18.794.136 1.411-.172 2.397-.398 1.272-.392 1.366.144 2.249.307.507.748 1.338.98 1.847.232.51.669 1.194.971 1.522l.55.595-.906.002c-.729.001-.994.157-1.357.794-.523.92-.759.973-1.36.308zm8.558-4.65c0-.497-.186-.771-.64-.944-.839-.319-1.216-1.021-.94-1.748.146-.384.092-.758-.162-1.12-.232-.333-.28-.607-.122-.705.142-.088.188-.512.102-.942-.18-.898.255-1.578 1.007-1.578.293 0 .608-.276.755-.662.165-.435.457-.663.853-.665.331-.002.774-.113.985-.247.246-.155.705-.107 1.285.135.496.207 1.008.311 1.137.231.13-.08.374.16.544.531.17.372.464.677.656.677.564 0 1.231 1.244 1.052 1.96-.096.38-.038.683.14.742.225.075.22.255-.014.694-.175.326-.245.82-.157 1.098.104.327-.03.674-.382.982l-1.072.94c-.291.254-.63.463-.753.463s-.606.19-1.073.423c-.703.35-.981.368-1.628.1-.617-.256-.863-.254-1.177.006-.335.279-.396.221-.396-.371zm-19.712-.158c-.09-.146-.405-.265-.702-.265a.704.704 0 0 1-.67-.507c-.073-.278-.416-.577-.762-.664-.83-.209-1.24-.998-.935-1.802.142-.374.14-.8-.003-1.058-.15-.267-.143-.492.018-.592.142-.088.189-.512.102-.943-.18-.905.256-1.578 1.025-1.578.287 0 .577-.211.645-.47.081-.312.58-.578 1.479-.792 1.142-.272 1.45-.26 1.96.073.331.218.778.396.991.396.214 0 .456.208.538.463.082.254.522.674.977.932.763.434.814.55.662 1.5-.112.702-.06 1.079.166 1.184.264.123.264.185 0 .308-.182.085-.331.547-.331 1.026 0 .927-.333 1.348-1.19 1.506-.308.057-.565.346-.614.69-.072.499-.166.548-.602.315-.392-.21-.616-.178-.927.133-.46.46-1.577.549-1.827.145zm8.419-.909c.316-.591.725-1.433.91-1.87l.335-.793-.135.893a14.155 14.155 0 0 0-.136 1.756c0 .752-.1.877-.774.976l-.775.114zm5.965.84c-.596-.237-.718-.474-.831-1.625-.073-.742-.117-1.367-.096-1.39.02-.022.4.722.843 1.654.443.932.8 1.682.794 1.666-.007-.015-.326-.153-.71-.305zm6.664-14.596c-.356-.198-.803-.3-.992-.227-.19.072-.344-.038-.344-.246 0-.207-.387-.547-.86-.756-.734-.323-.873-.533-.946-1.433-.047-.58-.202-1.195-.343-1.366-.169-.202-.164-.368.013-.477.16-.1.205-.649.109-1.345-.159-1.158-.145-1.185.8-1.58.53-.221.962-.575.962-.787 0-.228.157-.325.385-.237.211.08.655-.042.985-.273.814-.57 1.625-.529 2.205.112.3.33.667.475.967.38.276-.088.485-.025.485.146 0 .165.417.693.927 1.173.78.737.901 1 .767 1.67-.094.47-.038.872.136.98.163.1.204.323.093.494-.112.172-.326.73-.476 1.239-.173.588-.535 1.052-.992 1.271-.396.19-.72.458-.72.595 0 .138-.223.25-.496.25s-.645.18-.826.397c-.404.487-.985.493-1.839.02zm-21.643-.244c-.473-.155-.86-.436-.86-.624s-.215-.342-.479-.342c-1.1 0-1.347-.546-1.428-3.169-.077-2.504-.077-2.507.65-2.858.4-.194.728-.524.728-.735 0-.21.19-.382.422-.382.232 0 .757-.198 1.166-.44.655-.386.848-.395 1.628-.07.487.204 1.028.338 1.202.3.174-.04.446.17.604.466.159.296.444.538.635.538.608 0 1.3.995 1.134 1.631-.085.325-.06.716.054.869.114.153.156.859.092 1.569-.102 1.133-.21 1.326-.881 1.58-.873.329-.97.83-.301 1.57.426.472.388.468-.487-.047l-.95-.56-.48.53c-.52.573-1.105.615-2.449.174zm9.122-1.368c.435-.87.862-1.761.947-1.98.086-.218.115.318.065 1.191-.074 1.294-.182 1.605-.582 1.682-.27.052-.655.229-.856.392-.2.164-.009-.415.426-1.285zm5.982 1.11c-.734-.242-.859-.425-1.011-1.484a61.027 61.027 0 0 0-.297-1.87c-.07-.376.07-.205.325.397.247.582.783 1.564 1.192 2.183.408.618.717 1.107.685 1.087-.031-.02-.434-.161-.894-.313zm-3.09-23.595a39.494 39.494 0 0 0-.605-2.877c-.353-1.39-.35-1.662.019-2.585.562-1.406.53-2.525-.08-2.853-.497-.265-.918-1.123-1.211-2.466-.127-.58-.064-.728.31-.728.268 0 .622-.342.822-.794.452-1.022.745-1.001 1.266.09.333.7.548.86 1.026.769l.605-.116-.408 1.282c-.224.706-.706 1.605-1.07 2l-.662.717.564 1.546c.537 1.473.546 1.645.181 3.648-.21 1.157-.419 2.46-.464 2.897-.067.64-.123.54-.293-.53zm9.086.926c-.218-.14-.664-.258-.992-.26-.417-.003-.595-.162-.595-.533 0-.291-.156-.53-.346-.53-.8 0-1.33-.713-1.292-1.736.021-.56-.108-1.113-.286-1.228-.251-.163-.241-.265.044-.448.23-.149.308-.467.208-.852-.28-1.066.072-1.802.973-2.04.67-.176.83-.354.822-.916-.01-.643.025-.665.446-.284.414.375.513.374 1.061-.01.822-.576 1.63-.531 2.221.122.28.31.7.492.967.422.32-.083.474.024.474.33 0 .251.354.718.787 1.038.742.548.782.672.69 2.1-.168 2.56-.411 3.263-1.23 3.548-.404.14-.8.426-.88.634-.08.209-.38.379-.666.379-.287 0-.596.119-.686.264-.207.336-1.2.336-1.72 0zm-21.298-.529c-.09-.145-.395-.264-.678-.264-.287 0-.513-.18-.513-.411 0-.226-.352-.533-.783-.684-.43-.15-.843-.47-.916-.713-.168-.558-.015-2.536.226-2.925a.6.6 0 0 0 .009-.574c-.353-.571.14-1.52.933-1.797.438-.152.796-.402.796-.556 0-.153.29-.278.645-.278.356 0 .72-.119.81-.264.25-.405 1.397-.315 2.133.167.614.402.694.4 1.183-.043.513-.464.52-.458.37.297-.13.65-.02.871.689 1.396.726.536.824.745.703 1.489-.077.475-.02.984.126 1.13.178.179.171.325-.022.444-.158.098-.287.52-.287.937 0 .88-.604 1.59-1.35 1.59-.286 0-.588.18-.671.398-.084.218-.371.397-.638.397s-.559.119-.649.264c-.09.146-.566.265-1.058.265-.492 0-.968-.12-1.058-.265zm10.186-5.468c0-.243-.347-1.057-.77-1.808l-.771-1.365.865.418c.811.392.867.506.882 1.807.009.764-.035 1.39-.095 1.39-.061 0-.111-.2-.111-.442zm4.52.011c-.012-.309-.093-.919-.18-1.355-.146-.725-.09-.803.642-.91l.802-.118-.418.81a10.8 10.8 0 0 0-.62 1.472c-.18.588-.205.6-.225.101zm-20.13-4.97c0-.058.347-.882.772-1.828.425-.947.703-1.792.617-1.877-.085-.085-.552-.155-1.037-.155-.485 0-.882-.12-.882-.265 0-.147.706-.264 1.588-.264 1.246 0 1.587.086 1.587.403 0 .734-1.848 4.094-2.252 4.094-.216 0-.393-.048-.393-.107zm33.452-1.493c.34-.736.692-1.41.781-1.5.429-.428.082-.842-.77-.917-1.453-.129-1.088-.603.532-.691 1.316-.072 1.459-.027 1.459.458 0 .935-1.655 3.987-2.162 3.987-.416 0-.4-.128.16-1.337z" transform="translate(-234.026 -181.235)"/><path style="fill:#a99c1c;stroke-width:.26458332" d="M237.466 243.868c0-.731 1.845-4.16 2.239-4.16.533 0 .533-.003-.37 1.99l-.777 1.714h1.041c.75 0 1.042.112 1.042.397 0 .309-.353.397-1.588.397-1.112 0-1.587-.101-1.587-.338zm33.073-.299c0-.536 1.483-3.765 1.827-3.978.711-.44.712.244.002 1.71-.424.875-.77 1.708-.77 1.85 0 .144.41.261.91.261s.984.12 1.074.265c.102.165-.438.264-1.44.264-1.2 0-1.603-.093-1.603-.372zm-15.437-1.434c-.241-.266-.438-.624-.438-.794 0-.17-.107-.31-.237-.31-.242 0 .017-1.548.35-2.085.1-.163.066-.296-.077-.296-.143 0-.397.417-.566.928-.297.901-1.083 1.604-1.418 1.269-.091-.091.097-.296.417-.456.358-.178.714-.744.922-1.462.186-.644.463-1.248.616-1.342.152-.094.346-.6.431-1.125.116-.712.009-1.19-.421-1.886-.417-.675-.508-1.063-.33-1.406.319-.612.842-3.675.842-4.927 0-.636-.122-.97-.356-.97-.196 0-.555-.22-.8-.49-.416-.46-.386-.838.488-6.152 1.086-6.606 1.204-9.212.428-9.415-.497-.13-.497-.14 0-.637.278-.277.497-.772.488-1.1l-.017-.595-.24.595c-.326.814-.556.749-.464-.132.063-.605-.024-.724-.52-.706-.327.011-.594-.097-.594-.24s-.239-.045-.53.219c-.29.263-.529.707-.529.985 0 .451-.044.463-.397.11-.599-.599-.51-1.492.15-1.492 1.245 0 2.13-1.125 1.175-1.492-.218-.083-.338-.244-.268-.358.18-.292-.705-.483-1.288-.279-.268.094-.661.463-.874.82-.213.356-.319.43-.236.163.083-.267.15-.586.15-.71s.244-.303.54-.397c.37-.117.494-.32.392-.642-.082-.259.017-.609.221-.778.296-.245.402-.187.526.29.122.462.227.525.473.278.247-.246.388-.22.632.114.485.662 1.139.259 1.017-.627-.088-.632-.065-.666.146-.219.242.513.25.511.268-.05.01-.32-.246-.767-.569-.993-.53-.37-.467-.546.155-.433.125.022.39-.172.587-.432.344-.454.359-.454.367.003.006.363.111.418.443.233.239-.134.685-.174.992-.09.491.136.466.171-.21.297-.564.104-.795.318-.87.804-.273 1.76.82 2.602 1.786 1.374.3-.381.488-.913.417-1.183-.1-.382.01-.34.504.192.347.375.567.85.488 1.055-.081.212.094.5.406.667.303.162.55.418.55.569 0 .15-.187.087-.416-.142-.518-.518-1.616-.538-2.116-.038-.511.51-.227 1.12.633 1.356l.708.194-.661.2c-.596.18-.568.203.278.227.516.015 1.082-.093 1.257-.238.23-.192.245-.178.053.053-.146.174-.265.591-.265.926 0 .349-.16.608-.375.608a.587.587 0 0 0-.508.331c-.083.205-.142.162-.155-.113-.011-.244-.337-.693-.723-.997-.621-.488-.769-.51-1.257-.185-.726.48-.762 1.682-.072 2.372.43.43.447.502.085.363-1.189-.456-1.16 2.976.1 11.72.478 3.318.468 3.867-.065 3.538-.171-.106-.21-.054-.098.129.115.186-.074.406-.483.562-.37.14-.625.408-.567.594.058.187.176 1.032.264 1.88.118 1.145.079 1.49-.153 1.346-.235-.145-.269.457-.137 2.464.17 2.594.326 3.137 1.34 4.646.272.405.419.811.326.904-.092.092-.168.029-.168-.14 0-.17-.127-.31-.282-.31-.167 0-.21.229-.106.556.352 1.11.304 1.824-.175 2.611-.566.931-.78.98-1.38.319zm.002-15.987c-.074-.182-.134-.033-.134.33 0 .365.06.514.134.332.073-.182.073-.48 0-.662zm-.44.075c0-.355-.127-.472-.397-.369-.424.163-.506.427-.22.713.333.334.617.176.617-.344zm1.24-.323c-.085-.21-.148-.148-.16.16-.012.279.05.435.138.347.088-.088.097-.316.021-.507zm1.961 14.536c-.364-.593-.364-.594.201-.092.606.54.685.687.366.687-.11 0-.366-.268-.567-.595zm5.748-3.027c-.062-.54.12-.941.664-1.466l.75-.722-.57-.799c-.561-.789-1.405-1.05-1.723-.535-.244.394-.498.323-.848-.237-.26-.416-.218-.585.247-.992.308-.27.48-.354.383-.188-.097.167 0 .371.216.454.226.087.366.014.33-.17-.035-.177.103-.286.307-.243.203.044.548.011.767-.073.326-.125.287-.269-.218-.807-.692-.736-.436-.897.328-.206.465.421.485.421.323 0-.095-.247-.249-.45-.342-.452-1.178-.028-.783-1.718.443-1.898.683-.1.748-.057.504.334-.347.555.217 2.097.767 2.097.2 0 .623-.258.939-.574.547-.547.554-.61.142-1.327-.418-.73-.416-.744.093-.472.288.154.64.209.783.121.141-.087.396.145.566.517.17.372.453.677.63.677s.48.208.672.463c.298.394.295.413-.02.132-.45-.401-1.324-.437-1.324-.055 0 .152-.148.257-.33.234-.651-.085-.993.024-.993.316 0 .193.154.17.44-.066.399-.328.411-.307.132.217-.264.495-.223.64.28.992.995.697 1.776.46 2.129-.646.07-.218.087-.078.038.312-.048.39.037.75.188.801.395.132-.245 1.445-.704 1.445-.2 0-.301-.1-.226-.221.075-.122-.188-.345-.585-.495-.543-.207-.778-.19-.95.066-.313.47-.027 1.864.457 2.226.507.378.225 1.158-.417 1.158-.267 0-.56.119-.65.264a.574.574 0 0 1-.478.244c-.227-.015-.223-.058.016-.154.357-.144.464-2.092.127-2.3-.112-.07-.176.37-.142.976.06 1.076.056 1.081-.163.229-.287-1.12-.445-1.263-.94-.852-.222.184-.412.23-.422.104-.01-.127-.114.007-.23.298-.115.291-.112.792.008 1.112.17.457.133.55-.171.433-.214-.082-.558-.009-.764.162-.306.254-.39.174-.46-.434zm2.114.53c.19-.076.42-.066.507.022.088.088-.068.15-.347.139-.308-.013-.371-.076-.16-.16zm-13.36-1.52c.316-.592.725-1.434.91-1.87l.335-.794-.135.893a14.155 14.155 0 0 0-.136 1.756c0 .752-.1.877-.774.976l-.775.114zm5.965.84c-.596-.238-.717-.475-.831-1.626-.073-.742-.116-1.367-.096-1.39.02-.022.4.722.843 1.654.443.932.8 1.682.794 1.666-.007-.015-.326-.153-.71-.305zm-11.738-.281c-.298-.176-.566-.66-.613-1.106-.046-.437-.189-.9-.316-1.03-.133-.137-.17.032-.084.396l.148.634-.439-.59c-.367-.495-.52-.54-.94-.278-.274.171-.44.407-.369.524.072.116.005.211-.15.211-.153 0-.28.298-.28.662 0 .808-.777.913-.981.132-.076-.29-.333-.54-.57-.553-.238-.013-.06-.132.394-.263 1.254-.364 1.551-.857 1.013-1.68-.49-.746-1.593-.917-2.246-.348-.208.182-.296.226-.194.097.102-.128.072-.443-.065-.7-.3-.559.236-1.133.757-.811.187.115.63.154.984.086.746-.143.857-.868.228-1.498-.565-.565-.155-.528.523.048.53.45.534.448.153-.066-.216-.291-.53-.619-.698-.727-.545-.352-.088-1.198.71-1.315.65-.096.72-.047.505.353-.136.255-.24.68-.23.944.017.43.043.425.247-.05.225-.523.227-.523.246.014.034 1.006 1.337 1.697 1.345.714.003-.388.044-.4.25-.073.416.656.675-.47.323-1.403-.233-.617-.23-.73.01-.49.172.172.527.313.79.313.261 0 .476.11.476.245 0 .136.175.421.389.635.342.343.309.41-.276.556-.365.092-.601.269-.524.394.077.124-.06.389-.303.587-.393.32-.421.3-.246-.168.154-.413.127-.46-.122-.212-.52.515.412 1.74 1.163 1.53.457-.128.496-.104.183.116-.218.152-.274.28-.125.281.15.002.537-.18.86-.407.648-.454.771-1.394.257-1.97-.282-.317-.26-.317.158 0 .381.29.454.587.331 1.355-.105.66-.048 1.033.173 1.137.264.123.264.185 0 .308-.182.085-.33.342-.33.57 0 .37-.054.368-.485-.021-.266-.241-.593-.436-.727-.434-.134.002-.066.126.153.276.313.214.257.254-.265.188-.364-.046-.631-.23-.595-.408.108-.529-.296-.356-.806.345-.3.41-.36.653-.163.653.461 0 1.534 1.245 1.293 1.5-.113.121-.248.42-.298.664-.077.37-.182.392-.621.133zm-3.935-1.893a1 1 0 0 1 .503-.502c.229-.088.311-.005.223.223a1 1 0 0 1-.502.503c-.229.087-.311.005-.224-.224zm21.428-.188c.076-.123.25-.156.385-.072.346.214.307.297-.14.297-.211 0-.322-.101-.245-.225zm4.07-.737c0-.14.18-.188.398-.104.218.084.396.2.396.256 0 .058-.178.104-.396.104-.219 0-.397-.115-.397-.256zm-11.885-.692c.013-.308.076-.37.16-.16.077.191.067.42-.02.508-.089.087-.151-.069-.14-.348zm5.572-1.731c-.02-.383.171-.858.427-1.059.403-.315.423-.311.157.034-.168.218-.36.695-.427 1.058l-.121.662zm-20.938-.948c0-.152.208-.44.463-.64.428-.336.434-.323.074.166-.213.291-.421.58-.463.64-.04.06-.074-.014-.074-.166zm4.183-2.374c.191-.077.42-.067.507.02.088.089-.068.151-.347.14-.308-.013-.37-.076-.16-.16zm.256-6.052c.956-.67.724-2.499-.316-2.499-1.026 0-1.558.602-1.438 1.627.098.841.054.913-.495.808-.332-.063-.603-.272-.603-.463s-.268-.399-.595-.462c-.515-.1-.498-.12.126-.15.447-.023.883-.283 1.146-.685.395-.602.39-.697-.06-1.315-.565-.777-.762-.81-1.741-.3-.4.209-.728.277-.728.153 0-.125-.058-.386-.13-.58-.07-.194-.02-.523.113-.732.193-.305.32-.315.635-.054.271.225.447.24.567.045.096-.155.28-.216.41-.137.128.08.432-.157.674-.526.483-.737.243-1.3-.678-1.593-.701-.223-.365-1.111.484-1.278.387-.076.822-.01.968.145.181.194.16.224-.066.097-.216-.122-.331-.005-.331.336 0 .762.284 1.38.557 1.21.13-.08.237-.02.237.132s.284.253.632.224c.433-.035.585-.173.484-.437-.095-.248-.038-.317.162-.194.429.266.41-1.215-.022-1.671-.271-.287-.235-.303.199-.089.29.144.678.208.86.143.181-.065.406.08.5.322.093.243.42.543.727.667.526.212.519.227-.118.243-.373.009-.909.204-1.191.433-.282.229-.335.34-.117.245.224-.097.182.003-.096.23-.475.386-.466.426.237 1.078.811.751 1.062.82 1.34.37.127-.205.067-.234-.183-.09-.204.12-.28.115-.168-.008.304-.334 1.226-.343 1.497-.015.13.157.175.61.099 1.004-.12.63-.185.67-.525.33-.212-.212-.527-.384-.698-.382-.183.002-.148.11.085.26.333.216.316.258-.103.261-.275.002-.637-.183-.805-.413-.266-.364-.35-.33-.672.27-.305.57-.308.742-.016 1.012.282.262.314.248.167-.071-.1-.219.015-.13.258.198s.695.61 1.005.626c.447.025.467.056.1.152-.255.066-.463.311-.463.544 0 .232.208.653.463.936.426.472.388.468-.487-.047l-.95-.56-.48.53c-.264.292-.608.531-.763.531-.155 0-.018-.185.306-.412zm19.397.168c-.205-.13-.532-.175-.728-.1-.2.077-.354-.039-.354-.267 0-.222-.15-.473-.331-.558-.255-.119-.248-.192.033-.32.546-.248 1.356-1.117 1.356-1.454 0-.21-.112-.204-.383.021-.321.266-.375.196-.331-.43.046-.657-.029-.738-.609-.66-.364.049-.78.215-.926.37-.183.194-.142.214.132.066.236-.126.307-.115.177.028-.628.685-1.633-.433-1.134-1.262.207-.344.383-.383.777-.172.364.194.458.189.329-.019-.112-.18.06-.29.453-.29.944 0 1.03-.25.402-1.162l-.568-.823.708.641c.39.353.709.52.709.372 0-.466-.94-1.145-1.609-1.162l-.64-.017.595-.24c.327-.131.595-.417.595-.636 0-.246.153-.338.4-.243.22.084.576.008.79-.17.34-.281.352-.214.099.513-.16.46-.218.91-.129 1 .09.089.163-.036.163-.279 0-.242.12-.44.265-.44.365 0 .332.62-.053 1.005-.247.247-.13.317.529.317.628 0 .848-.12.85-.463.003-.254.132-.641.287-.86.212-.297.246-.131.136.662-.1.727-.068.934.106.661.396-.62.306-1.625-.2-2.228-.387-.461-.35-.453.224.053.416.367.856.537 1.122.435.268-.103.438-.036.438.171 0 .187.334.646.742 1.02.409.375.542.527.296.338-.527-.406-1.655-.19-2.151.413-.306.37-.272.377.32.068l.661-.347-.526.592c-.493.555-.497.612-.07.924.25.183.378.41.283.506-.095.094.13.172.501.172.37 0 .824-.182 1.008-.404.295-.355.374-.33.653.198.176.334.218.715.094.854-.123.138-.223.46-.223.716 0 .392-.1.363-.65-.186-.357-.357-.856-.649-1.109-.649-.412 0-.406.04.055.398.482.375.47.384-.194.147-.89-.317-1.528.24-.887.773.219.181.336.43.26.55-.074.123.101.349.39.504.648.346.456.973-.344 1.126-.52.1-.581.016-.51-.7.067-.662.038-.715-.154-.284-.22.493-.249.481-.424-.184-.103-.392-.11-.838-.014-.992.1-.162-.06-.28-.38-.28-.305 0-.622.178-.705.396-.084.217-.229.348-.323.29-.248-.153-.21 1.503.043 1.894.252.39.185.407-.322.087zm-12.267-1.481c.435-.87.862-1.761.947-1.98.086-.218.115.318.065 1.191-.074 1.294-.182 1.605-.582 1.682-.27.052-.655.229-.856.392-.2.164-.009-.415.426-1.285zm5.982 1.11c-.734-.242-.859-.425-1.011-1.484a61.027 61.027 0 0 0-.297-1.87c-.07-.376.07-.205.325.397.247.582.783 1.564 1.192 2.183.408.618.717 1.107.685 1.087-.031-.02-.434-.161-.894-.313zm3.581-1.171c-.329-.42-.32-.43.1-.1.255.2.463.408.463.463 0 .218-.217.078-.563-.363zm-19.26-.75c.013-.308.076-.37.16-.16.077.191.067.42-.02.507-.088.088-.15-.068-.14-.347zm5.754-3.9c-.098-.483-.062-.657.104-.492.141.141.21.478.153.748-.077.364-.144.297-.257-.256zm-6.044-.053c-.28-.336-.263-.375.1-.236.239.092.434.273.434.403 0 .34-.153.293-.534-.167zm19.055-.242c0-.21.108-.448.24-.53.132-.082.178.09.101.381-.161.618-.34.696-.34.149zm-17.529-2.44c.182-.074.48-.074.662 0 .182.073.033.133-.33.133-.365 0-.513-.06-.332-.133zm13.825-2.306c0-.055.208-.264.463-.463.42-.33.429-.32.1.1-.346.44-.563.58-.563.363zm-5.06-.628c-.33-.42-.32-.429.099-.1.255.2.463.408.463.463 0 .218-.217.078-.563-.363zm4.662-1.39c-.265-.293-.416-.596-.338-.675.175-.174 1 .617 1 .96 0 .36-.128.305-.662-.286zm-4.426-6.129c.154-.154.436-.227.627-.164.198.066.078.186-.28.28-.44.115-.543.08-.347-.116zm2.358-4.586a41.609 41.609 0 0 0-.61-2.876c-.354-1.391-.352-1.663.018-2.585.595-1.49.519-2.316-.283-3.06-.44-.408-.603-.737-.444-.896.392-.392.088-1.887-.348-1.72-.201.078-.365.025-.365-.116 0-.14.21-.256.465-.256.261 0 .618-.347.816-.794.452-1.022.745-1.001 1.266.09.333.7.548.86 1.026.769l.605-.116-.408 1.282c-.224.706-.703 1.602-1.063 1.992-.54.585-.614.84-.424 1.455.127.41.171 2.413.098 4.45-.111 3.114-.167 3.494-.349 2.381zm1.519-10.543c.13-.553.086-.723-.165-.64-.188.063-.414.56-.502 1.103-.128.79-.095.918.165.64.179-.192.404-.688.502-1.103zm9.149 11.205c.529-.529.742-1.221.29-.942-.131.081-.363-.21-.515-.646-.394-1.13-1.02-1.006-1.364.271-.158.585-.228 1.16-.157 1.275.072.116-.22.16-.65.096-.534-.078-.779-.265-.779-.594a.656.656 0 0 0-.463-.6c-.377-.099-.36-.127.086-.152.302-.017.808-.307 1.125-.643.818-.872.713-1.192-.14-.426l-.713.641.45-.718c.246-.395.449-.842.449-.992 0-.33-.978-.37-1.103-.045-.048.127-.356.313-.683.415-.48.15-.595.083-.595-.34 0-.289-.15-.594-.331-.68-.265-.123-.265-.184 0-.308.182-.085.33-.341.33-.57 0-.37.054-.368.484.022.592.536 1.023.58.592.062-.261-.315-.18-.355.497-.249.93.147 1.013-.125.36-1.17l-.45-.718.75.661.75.661-.327-.627c-.18-.344-.556-.686-.835-.76-.398-.103-.443-.212-.207-.496.165-.2.236-.612.156-.918-.139-.53-.123-.535.36-.097.404.365.585.393.893.137.333-.276.346-.214.094.454-.387 1.024-.118 1.646.712 1.646.368 0 .67-.096.67-.214s.184-.445.409-.728c.385-.483.4-.46.265.413-.108.695-.083.794.101.397.382-.823.324-1.497-.178-2.096-.352-.42-.292-.4.25.079.41.36.888.561 1.123.47.276-.105.41-.002.41.315 0 .259.353.73.783 1.049.808.597.835.784.57 3.976-.02.235-.305.123-.843-.33-.448-.377-.977-.685-1.176-.685-.477 0-1.294 1.154-.908 1.283.157.052.394.38.527.729.132.348.421.634.642.634.34 0 .333.08-.053.529-.249.29-.657.529-.907.529s-.529.119-.619.265c-.09.145-.275.264-.412.264-.137 0-.011-.238.28-.529zm3.122-4.551c.175-.175.318-.568.318-.873 0-1.142-1.268-1.578-2.265-.78-.484.388-.475.394.148.095.645-.31.65-.305.198.204-.254.288-.463.662-.463.832 0 .17.209.312.463.314.396.003.406.042.066.26-.304.197-.208.258.41.261.444.002.95-.138 1.125-.313zm-24.024 4.233c.365-.437.333-1.99-.045-2.223-.214-.133-.255-.035-.132.315.167.473.155.476-.182.043-.199-.255-.47-.463-.604-.463-.406 0-1.154 1.031-1.154 1.59 0 .35-.177.527-.529.527-.293 0-.53-.177-.53-.396 0-.218-.386-.564-.859-.77l-.86-.372.998.143c.73.105 1.136.018 1.512-.322.485-.439.49-.51.083-1.292-.237-.457-.48-.68-.54-.497-.062.182-.229.33-.37.33-.143 0-.185-.118-.095-.264.317-.513-.901-.258-1.268.265-.347.497-.367.474-.317-.361.077-1.257.235-1.408 1.379-1.317.77.06 1.087-.043 1.332-.434.304-.487.202-1.323-.162-1.332-.97-.023-.9-1.319.07-1.319.318 0 .746-.149.95-.33.315-.28.32-.262.032.119-.469.62.129 2.328.815 2.328.262 0 .478-.149.48-.33.003-.229.08-.212.246.051.19.3.281.23.422-.33.098-.392.105-.905.015-1.14-.122-.317-.052-.384.274-.259.251.097.656-.029.95-.294.495-.448.504-.44.319.3-.146.582-.077.845.295 1.117.45.33.433.356-.241.356-.4 0-.658.113-.572.251.085.138-.116.396-.448.572-.57.304-.58.294-.206-.185.362-.461.358-.476-.038-.166a.856.856 0 0 0-.3.864c.168.64.398.793 1.384.918.81.102 1.205-.195 1.41-1.064.068-.29.089-.156.046.3-.042.456.043.948.189 1.094.178.179.171.325-.022.444-.158.098-.287.404-.287.68 0 .448-.07.43-.667-.166-.745-.745-1.63-.76-2.083-.037-.404.645.06 1.31 1.188 1.705.712.25.774.32.297.331-.332.008-.673.194-.756.412-.084.218-.354.397-.6.397-.247 0-.591.119-.766.264-.23.193-.245.178-.053-.053zm23.697-1.083c.1-.26.247-.407.329-.326.081.082 0 .295-.18.475-.262.259-.292.228-.149-.149zm-26.608-1.245c0-.145.12-.265.265-.265a.265.265 0 0 1 0 .53.265.265 0 0 1-.265-.265zm25.4-.312c-.435-.183-.54-.323-.304-.41.196-.073.549.06.784.294.489.489.437.502-.48.116zm-20.902-.482c-.352-.228-.352-.256 0-.256.219 0 .576.115.794.256.353.228.353.257 0 .257-.218 0-.575-.116-.794-.257zm6.615-2.293c0-.243-.347-1.057-.77-1.808l-.771-1.365.865.418c.811.392.867.506.882 1.807.009.764-.035 1.39-.095 1.39-.061 0-.111-.2-.111-.442zm4.52.011c-.012-.309-.093-.919-.18-1.355-.146-.725-.09-.803.642-.91l.802-.118-.418.81a10.8 10.8 0 0 0-.62 1.472c-.18.588-.205.6-.225.101zm3.174-.253c.012-.309.075-.371.16-.16.076.19.067.42-.021.507-.088.088-.15-.068-.14-.347zm-18.366-.287a.729.729 0 0 1-.176-.45c0-.166.123-.15.313.04.172.172.252.375.177.45-.076.075-.217.057-.314-.04zm18.61-.589c0-.13.195-.311.434-.403.363-.14.38-.1.1.236-.381.46-.535.507-.535.167zm3.174-.394c0-.861.402-1.11.47-.29.028.346-.066.702-.209.79-.144.09-.26-.133-.26-.5zm-10.806-3.603c0-.364.06-.513.134-.33.073.181.073.479 0 .66-.074.183-.134.034-.134-.33zm-15.916.157c0-.06.347-.883.772-1.83.425-.946.703-1.79.617-1.876-.085-.085-.552-.155-1.037-.155-.485 0-.882-.12-.882-.265 0-.147.706-.264 1.588-.264 1.246 0 1.587.086 1.587.403 0 .734-1.848 4.094-2.252 4.094-.216 0-.393-.048-.393-.107zm33.452-1.494c.34-.736.692-1.41.781-1.5.429-.428.082-.842-.77-.917-1.453-.129-1.088-.603.532-.691 1.316-.072 1.459-.027 1.459.458 0 .935-1.655 3.987-2.162 3.987-.416 0-.4-.128.16-1.337z" transform="translate(-234.026 -181.235)"/><path style="fill:#c42023;stroke-width:.26458332" d="M237.466 243.974c0-.675 1.887-4.266 2.242-4.266.52 0 .534-.075-.379 1.96l-.783 1.744h1.048c.754 0 1.047.111 1.047.397 0 .309-.353.397-1.588.397-.873 0-1.587-.104-1.587-.232zm33.073-.393c0-.198.358-1.15.796-2.117.577-1.271.936-1.756 1.3-1.756.466 0 .446.12-.267 1.592-.424.875-.77 1.709-.77 1.852 0 .143.416.26.925.26.51 0 .926.12.926.265 0 .145-.655.264-1.455.264-1.051 0-1.455-.1-1.455-.36zm-15.577-1.765c-.388-.638-.444-1.031-.272-1.918.293-1.519.294-1.517-.178-1.336-.34.13-.315-.03.132-.865.662-1.235.693-2.03.115-3.008-.403-.682-.403-.892 0-2.89.239-1.186.434-3.061.434-4.168v-2.012l-.797.16c-.72.144-.785.102-.664-.43.074-.325.492-2.751.93-5.393.904-5.454 1.032-8.4.382-8.764-.375-.21-.375-.263 0-.574.228-.189.414-.537.415-.774.001-.252.168-.113.4.334.326.624.342.925.087 1.63-.24.666-.238 1.671.01 4.394.276 3.021.851 7.601 1.216 9.688l.105.602-.75-.534-.748-.533-.144.593c-.08.326-.156 2.89-.17 5.696l-.026 5.102.803.676c.87.733 1.025 1.158.42 1.158-.312 0-.33.15-.102.807.426 1.22-.111 3.161-.874 3.161-.13 0-.456-.36-.724-.802zm8.645-4.463c-.074-.503.088-.852.583-1.262l.684-.567-.012.992c-.009.748-.151 1.057-.582 1.261-.5.237-.583.185-.673-.424zm-11.005-1.442c1.004-1.966 1.135-2.128.888-1.1-.105.435-.283.851-.395.926-.112.074-.34.393-.506.709-.23.438-.226.599.02.68.177.06.06.176-.259.26-.557.146-.547.088.252-1.475zm14.618.61v-.973l.712.526c.8.592.746 1.142-.129 1.31-.516.098-.583-.001-.583-.863zm-20.53.487c-.239-.189-.512-.79-.608-1.335-.16-.92-.24-.992-1.08-.992-.705 0-1.039-.18-1.509-.817-.51-.692-.732-.797-1.447-.681-.951.154-1.552-.302-1.03-.783.24-.22.45-.202.818.066.78.571 1.163.435 1.651-.59.452-.948.451-.956-.24-1.55-.75-.645-.686-1.032.207-1.257.448-.113.535-.042.433.35-.253.965.158 1.822.874 1.822.711 0 1.967 1.059 1.967 1.658 0 .197-.174.589-.388.871-.537.71-.51.842.347 1.653.557.528.712.871.596 1.32-.135.52-.22.558-.591.265zm-4.02-.122c-.328-.327-.18-1.089.242-1.25.624-.24.64-.225.64.632 0 .747-.443 1.057-.883.618zm14.904-.485c0-.364.046-.662.102-.662.056 0 .158.298.228.662.07.364.024.661-.102.661-.125 0-.228-.297-.228-.661zm-.1-1.333c-.09-.237-.157-.57-.147-.74.009-.17.13-.023.27.325.14.349.206.681.148.74-.058.057-.18-.089-.27-.325zm7.507-.046c0-.115-.275-.551-.61-.97-.591-.739-.632-.749-1.402-.35-.736.38-.816.375-1.094-.07-.41-.656-.159-.824.966-.645.81.13 1.046.043 1.588-.582l.636-.734-.784-.678c-.903-.78-.881-1.492.05-1.67.56-.107.623-.045.491.482-.287 1.142.1 1.7 1.177 1.7.849 0 1.047.125 1.479.927.5.93.89 1.07 1.87.676.745-.3 1.258.159.908.813-.249.465-.32.474-.847.105-.842-.59-1.347-.497-1.84.338-.35.594-.65.753-1.512.804-.59.035-1.075-.03-1.076-.146zm-16.859-1.394-.853-.41.874-.273c.665-.208.951-.19 1.198.074.257.275.253.418-.02.683-.28.27-.51.256-1.199-.074zm-1.582-3.558c.029-1.014.716-1.198 1.138-.304.249.527.196.632-.44.872-.694.262-.721.24-.698-.568zm20.824.13c0-.625.117-.81.511-.81.285 0 .589.242.686.548.2.634.191.648-.602.891-.528.163-.595.091-.595-.628zm-12.832-3.192c.09-.145.216-.265.28-.265.064 0 .116.12.116.265 0 .146-.126.265-.28.265-.154 0-.206-.12-.116-.265zm-2.33-5.42c.242-.508.487-.876.544-.819.122.121-.682 1.741-.863 1.741-.066 0 .077-.415.32-.923zm6.703.668c-.214-.135-.32-.315-.236-.4.084-.084.303.03.488.25.381.46.308.504-.252.15zm4.755-.137c0-.197-.108-.398-.24-.447-.132-.048.046-.302.397-.563.618-.462.636-.46.636.044 0 .286.063.683.14.882.086.226-.062.377-.398.402-.294.022-.535-.121-.535-.318zm-20.99-.05c-.329-.328-.18-.862.314-1.126.428-.229.487-.163.463.52-.026.733-.377 1.007-.778.606zm4.009-.154c-.228-.182-.544-.722-.702-1.2l-.287-.868.759.449c.48.283.8.724.87 1.199.12.826-.018.917-.64.42zm20.42-.325c0-.598.057-.63.64-.364.73.332.636 1.02-.139 1.02-.357 0-.5-.19-.5-.656zm-9.31.21c.191-.076.42-.067.507.021.088.088-.068.15-.347.14-.308-.014-.37-.076-.16-.16zm-4.644-2.173c.226-.603.357-.734.42-.42.05.25-.097.644-.328.875-.384.383-.392.344-.092-.455zm-9.81-.424c-.53-.673-1.719-.905-2.033-.397-.394.638-1.058-.142-.766-.9.122-.32.243-.32.851-.003 1.01.527 1.186.468 1.67-.565.427-.913.425-.925-.331-1.561-.951-.8-1-1.47-.109-1.47.434 0 .608.118.518.352-.074.193-.013.67.134 1.058.22.578.436.707 1.184.707.712 0 1.038.174 1.473.785.518.727.53.841.16 1.555-.663 1.284-1.929 1.485-2.752.438zm13.996.485a4.363 4.363 0 0 0-.174-.794c-.144-.46-.137-.462.151-.012.167.26.245.617.174.794-.094.231-.136.235-.151.012zm7.142-.52c-.648-.824-.69-1.366-.161-2.12.213-.305.333-.608.266-.675-.224-.224 1.59.085 2.177.372.32.156.618.535.662.842.068.476.26.558 1.325.56 1.48.003 1.914.32 1.396 1.022-.338.457-.4.462-.795.066-.575-.574-1.788-.869-1.923-.466-.414 1.243-2.103 1.471-2.947.398zm-2.877-.375c-.457-.733.235-1.189 1.109-.73l.668.35-.742.425c-.69.396-.761.393-1.035-.045zm-13.864-.347-.714-.317.802-.354c.893-.396 1.41-.127 1.136.59-.195.506-.257.51-1.224.081zm19.184-2.116c.1-.263.183-.752.183-1.087 0-.89 1.12-1.058 1.512-.227.224.473.213.615-.046.615-.185 0-.673.265-1.084.589-.64.503-.722.52-.565.11zm-21.134-1.109c.021-1.007.688-1.384 1.148-.648.233.373.15.559-.44.996l-.727.537zm18.076.306c-.633-.48-.593-1.219.066-1.219.412 0 .53.176.53.794 0 .906.02.892-.596.425zm-5.225-6.132c0-.202-.305-.566-.678-.81-.623-.408-.75-.41-1.552-.028-.812.387-.932.382-1.672-.068-.59-.358-.826-.727-.906-1.416-.099-.844-.017-.983.87-1.482l.979-.55.818.688c.572.482.818.922.818 1.465 0 .602.162.839.72 1.05.395.151.931.219 1.19.151.35-.091.471.032.471.483 0 .383-.194.657-.53.744-.34.09-.528.008-.528-.227zm-6.88-.379c0-.29.11-.529.243-.529.134 0 .436-.074.67-.164.373-.143.387-.074.112.53-.372.817-1.025.921-1.025.163zm.86-3.097c-.327-.063-.595-.285-.595-.493 0-.208-.009-.465-.02-.57-.01-.106.108-.235.265-.287.156-.052.284.055.284.237 0 .183.197.55.438.816.241.266.39.468.33.448a11.31 11.31 0 0 0-.702-.15zm5.419-.831c.296-.517.588-.719.915-.633.838.22.458.948-.634 1.216l-.717.175zm-2.839-1.144c0-.17-.202-.533-.448-.805-.419-.463-.419-.484-.002-.324.292.112.508.009.627-.3.17-.446.19-.445.353.02.213.607.021 1.719-.296 1.719-.129 0-.234-.14-.234-.31zm7.673-5.37c0-.38.22-.77.53-.935.482-.258.528-.2.528.652 0 .76-.1.936-.529.936-.386 0-.529-.177-.529-.652zm3.704-.173c0-.746.045-.792.463-.472.255.195.496.371.536.391.04.02-.003.233-.095.472-.294.766-.904.502-.904-.391zm-24.684-.236c-.093-.357.035-.626.389-.815.665-.356.734-.28.56.62-.162.848-.747.968-.949.195zm3.69.062c.068-.26-.005-.808-.161-1.22-.24-.631-.406-.732-1.051-.637-.74.109-.938-.027-1.599-1.099-.146-.236-.623-.372-1.246-.355-1.081.03-1.538-.334-1.06-.846.227-.242.488-.201 1.13.178l.835.492.328-.79c.569-1.374 2.35-1.365 3.064.016.353.682.35.85-.03 1.586-.413.797-.404.845.265 1.544.754.787.692 1.602-.122 1.602-.326 0-.437-.149-.353-.471zm9.617-.307c0-.33-.186-1.318-.412-2.193-.374-1.442-.374-1.69 0-2.624.564-1.411.531-2.525-.085-2.855-.407-.218-.474-.479-.367-1.43.08-.703.015-1.235-.161-1.345-.196-.12-.206-.285-.03-.497.144-.174.478-.601.743-.949l.482-.631.5 1.028c.275.566.49 1.088.479 1.161a91.71 91.71 0 0 1-.187 1.02c-.136.726-.093.86.236.734.318-.122.348-.054.146.324-.141.264-.421.616-.622.783-.274.227-.381 1.247-.427 4.072-.033 2.073-.113 3.822-.178 3.886-.064.065-.117-.153-.117-.484zm9.063-1.67c-.777-.981-.88-1.51-.455-2.331.37-.716.542-.807 1.404-.745 1.272.092 1.63-.151 1.63-1.107 0-.643.109-.778.63-.778.884 0 1.136 1.004.33 1.31-1.016.387-1.222.84-.818 1.8.38.905 1.029 1.1 1.974.595.39-.209.527-.16.65.227.086.27.08.692-.015.937-.151.395-.22.401-.602.056-.237-.214-.743-.509-1.126-.654-.59-.225-.78-.168-1.254.378-.61.702-1.903.874-2.348.312zm-16.656-.748-.846-.428.928-.285c.996-.306 1.445.055.985.79-.181.289-.373.275-1.067-.076zm13.678.216c0-.229-.143-.464-.32-.522-.237-.08-.223-.21.056-.508.295-.316.53-.342 1.113-.122.746.282 1 .692.43.692-.171 0-.529.197-.795.438-.43.39-.483.392-.483.022zm-8.452-3.464c-.356-.749-.7-1.467-.762-1.597-.063-.13.02-.152.185-.05.363.224 1.42 2.485 1.306 2.792-.045.12-.373-.395-.73-1.145zm5.107.821c.054-.4-.006-.727-.13-.727-.126 0-.221-.268-.212-.596.016-.577.025-.575.284.066l.268.662.386-.728c.585-1.104.715-.87.146.265-.274.546-.575 1.17-.668 1.389-.094.218-.127.07-.074-.33zm5.618-.74c-.278-.28-.516-.86-.53-1.288-.02-.714.014-.745.424-.374.245.222.545.342.666.268.121-.075.175.33.121.9-.054.57-.116 1.029-.137 1.02a9.898 9.898 0 0 1-.544-.525zm-20.811-.338c-.779-.687-.731-1.237.106-1.236.475 0 .577.16.593.926.01.509.01.921 0 .917-.01-.005-.326-.278-.7-.607zm3.275-.11c.032-.46.279-.847.676-1.058.344-.184.646-.333.671-.333.026 0 .042.327.036.727-.006.436-.222.857-.54 1.05-.777.472-.898.417-.843-.386zm7.23-.465c-.083-.219-.037-.397.104-.397s.257.178.257.397c0 .218-.047.397-.104.397-.058 0-.173-.18-.257-.397zm-15.514-2.887c0-.06.352-.853.782-1.763.43-.91.721-1.754.646-1.876-.075-.122-.546-.221-1.047-.221-.5 0-.91-.12-.91-.265 0-.147.705-.264 1.587-.264 1.112 0 1.587.1 1.587.338 0 .731-1.845 4.16-2.238 4.16-.224 0-.407-.05-.407-.109zm33.598-1.736c.439-.869.797-1.702.797-1.852 0-.15-.416-.272-.926-.272-.646 0-.926-.12-.926-.397 0-.305.338-.397 1.456-.397 1.274 0 1.455.065 1.455.524 0 .947-1.659 3.974-2.178 3.974-.422 0-.386-.178.322-1.58z" transform="translate(-234.026 -181.235)"/><path style="fill:#333021;stroke-width:.26458332" d="M237.466 243.974c0-.675 1.887-4.266 2.242-4.266.52 0 .534-.075-.379 1.96l-.783 1.744h1.048c.754 0 1.047.111 1.047.397 0 .309-.353.397-1.588.397-.873 0-1.587-.104-1.587-.232zm33.073-.393c0-.198.358-1.15.796-2.117.577-1.271.936-1.756 1.3-1.756.466 0 .446.12-.267 1.592-.424.875-.77 1.709-.77 1.852 0 .143.416.26.925.26.51 0 .926.12.926.265 0 .145-.655.264-1.455.264-1.051 0-1.455-.1-1.455-.36zm-6.932-6.228c-.074-.503.088-.852.583-1.262l.684-.567-.012.992c-.009.748-.151 1.057-.582 1.261-.5.237-.583.185-.673-.424zm-8.347.328c-.227-.092-.279-.457-.166-1.166.12-.753.04-1.223-.298-1.74-.44-.672-.441-.828-.01-3.122.26-1.38.417-3.232.365-4.324-.055-1.157.014-1.91.175-1.91.17.001.233 2.029.175 5.733-.078 5.02-.037 5.76.33 5.966.834.466.356.937-.571.563zm-2.658-1.77c1.004-1.966 1.135-2.128.888-1.1-.105.435-.283.851-.395.926-.112.074-.34.393-.506.709-.23.438-.226.599.02.68.177.06.06.176-.259.26-.557.146-.547.088.252-1.475zm14.618.61v-.973l.712.526c.8.592.746 1.142-.129 1.31-.516.098-.583-.001-.583-.863zm-20.484.547c-.204-.126-.506-.762-.672-1.413l-.3-1.184.811.812c.51.51.777 1.016.72 1.361-.116.699-.115.698-.559.424zm-4.067-.182c-.327-.327-.18-1.089.243-1.25.624-.24.64-.225.64.632 0 .747-.443 1.057-.883.618zm14.905-.485c0-.364.046-.662.102-.662.056 0 .158.298.228.662.07.364.024.661-.102.661-.125 0-.228-.297-.228-.661zm-.1-1.333c-.09-.237-.157-.57-.147-.74.009-.17.13-.023.27.325.14.349.206.681.148.74-.058.057-.18-.089-.27-.325zm12.166-.872c-.102-.165-.547-.394-.989-.509l-.803-.208 1.08-.288c1.283-.342 1.836.022 1.25.824-.24.33-.41.387-.538.181zm-21.518-.568-.853-.41.874-.273c.665-.208.951-.19 1.198.074.257.275.253.418-.02.683-.28.27-.51.256-1.199-.074zm13.753.004c-.41-.656-.159-.823.966-.644.81.129 1.046.042 1.588-.583l.636-.733-.784-.678c-.903-.78-.881-1.493.05-1.67.56-.108.623-.045.491.481-.232.923.118 1.7.774 1.718l.577.017-.567.229c-.762.307-1.415 1.285-1.215 1.818.138.37.098.382-.266.086-.355-.289-.557-.28-1.189.046-.696.36-.787.353-1.061-.087zm-20.95-.624c-.149-.15-.124-.372.064-.573.244-.262.43-.249.903.062.329.215.776.322.996.237.221-.085.398-.009.398.17-.001.383-1.994.47-2.36.104zm25.645-1.237c-.339-.22-.33-.257.066-.26.255-.003.463.114.463.26 0 .323-.03.323-.529 0zm-22.831-.527c.072-.276-.144-.667-.54-.979-.711-.559-.631-.973.228-1.19.47-.118.526-.028.44.709-.061.522.058 1 .312 1.254.373.372.365.424-.074.539-.36.094-.455.008-.366-.333zm2.8-1.174c.03-1.014.717-1.197 1.139-.304.249.527.196.632-.44.872-.694.262-.721.24-.698-.568zm20.825.131c0-.625.117-.811.511-.811.285 0 .589.243.686.549.2.633.191.647-.602.89-.528.163-.595.092-.595-.628zm-12.832-3.193c.09-.145.216-.264.28-.264.064 0 .116.119.116.264 0 .146-.126.265-.28.265-.154 0-.206-.119-.116-.265zm2.132-.934c-.283-.214-.386-.388-.231-.388.156 0 .431.178.612.396.412.497.283.494-.381-.008zm-4.462-4.486c.242-.508.487-.876.544-.818.122.12-.682 1.74-.863 1.74-.066 0 .077-.415.32-.922zm6.703.668c-.214-.135-.32-.315-.236-.399.084-.084.303.028.488.25.381.46.308.504-.252.15zm4.755-.137c0-.197-.108-.398-.24-.446-.132-.049.046-.302.397-.564.618-.461.636-.46.636.045 0 .286.063.682.14.881.086.227-.062.377-.398.402-.294.023-.535-.12-.535-.318zm-20.99-.05c-.329-.327-.18-.861.314-1.125.428-.23.487-.164.463.519-.026.733-.377 1.007-.778.607zm4.009-.154c-.228-.182-.544-.721-.702-1.199l-.287-.868.759.448c.48.284.8.725.87 1.2.12.826-.018.917-.64.42zm20.42-.325c0-.598.057-.63.64-.364.73.333.636 1.02-.139 1.02-.357 0-.5-.189-.5-.656zm-9.31.21c.191-.076.42-.066.507.022.088.087-.068.15-.347.139-.308-.013-.37-.076-.16-.16zm-2.856-.866c-.263-.636-.244-1.253.1-3.274.563-3.304.568-6.155.011-6.467-.375-.21-.375-.264 0-.575.228-.189.414-.537.415-.774.001-.248.174-.1.408.349.33.633.348.92.092 1.538-.245.59-.238 1.64.03 4.718.285 3.278.284 4.071-.006 4.613-.455.85-.655.826-1.05-.128zm-1.788-1.307c.226-.603.357-.733.42-.42.05.25-.097.645-.328.875-.384.384-.392.344-.092-.455zm4.186.06a4.363 4.363 0 0 0-.174-.793c-.144-.46-.137-.461.152-.012.166.26.244.618.173.794-.094.232-.136.235-.151.012zm11.93-.505c-.192-.218-.698-.467-1.124-.552-1.181-.236-.921-.487.49-.472 1.635.017 2.009.236 1.578.925-.382.613-.48.623-.943.1zm-7.665-.389c-.457-.732.235-1.188 1.109-.73l.668.35-.742.425c-.69.396-.761.393-1.035-.045zm-21.05-.119a1.247 1.247 0 0 1-.01-.768c.122-.319.243-.32.85-.002.942.49 1.308.468 1.454-.09.09-.349.128-.316.151.132.025.49-.108.595-.747.595-.428 0-.852.12-.942.265-.237.384-.582.324-.757-.132zm7.186-.227-.714-.317.802-.355c.893-.395 1.41-.126 1.136.59-.195.507-.257.51-1.224.082zm16.234-.434c0-.364.06-.513.134-.331.073.182.073.48 0 .661-.074.182-.134.033-.134-.33zm-20.738-1.119c.285-.345.213-.515-.463-1.084-.957-.805-1.052-1.502-.206-1.501.486 0 .601.155.626.837.017.46.216.973.443 1.139.365.266.345.344-.162.66-.512.319-.538.313-.238-.051zm21.19-.03c.163-.196.207-.453.1-.572-.109-.12-.042-.127.147-.018.264.152.272.284.033.571-.17.206-.369.374-.442.374-.072 0 0-.16.163-.356zm2.498-.534c.1-.263.183-.752.183-1.087 0-.89 1.12-1.058 1.512-.227.224.473.213.615-.046.615-.185 0-.673.265-1.084.589-.64.503-.722.52-.565.11zm-21.134-1.109c.021-1.007.688-1.384 1.148-.648.233.373.15.559-.44.996l-.727.537zm18.076.306c-.633-.48-.593-1.219.066-1.219.412 0 .53.176.53.794 0 .906.02.892-.596.425zm-5.225-6.15c0-.212-.357-.588-.792-.836-1.04-.592-1.03-.923.013-.403.445.221 1.04.343 1.323.269.398-.105.514.002.514.471 0 .383-.194.657-.53.744-.35.092-.528.008-.528-.246zm-6.88-.36c0-.292.11-.53.243-.53.134 0 .436-.074.67-.164.373-.143.387-.074.112.53-.372.817-1.025.921-1.025.163zm2.076-2.274c-.106-.386.017-.66.407-.903.478-.297.516-.293.258.025-.166.205-.35.611-.408.902-.102.516-.109.516-.257-.024zm-1.216-.824c-.327-.063-.595-.285-.595-.493 0-.208-.009-.465-.02-.57-.01-.106.108-.235.265-.287.156-.052.284.055.284.237 0 .183.197.55.438.816.241.266.39.468.33.448a11.31 11.31 0 0 0-.702-.15zm5.419-.831c.296-.517.588-.719.915-.633.838.22.458.948-.634 1.216l-.717.175zm-3.104.385c0-.257.746-.354 1.083-.14.271.171.175.237-.355.24-.4.002-.728-.043-.728-.1zm.265-1.529c0-.17-.202-.533-.448-.805-.419-.463-.419-.484-.002-.324.292.112.508.009.627-.3.17-.446.19-.445.353.02.213.607.021 1.719-.296 1.719-.129 0-.234-.14-.234-.31zm7.673-5.37c0-.38.22-.77.53-.935.482-.258.528-.2.528.652 0 .76-.1.936-.529.936-.386 0-.529-.177-.529-.652zm3.704-.173c0-.746.045-.792.463-.472.255.195.496.371.536.391.04.02-.003.233-.095.472-.294.766-.904.502-.904-.391zm-24.684-.236c-.093-.357.035-.626.389-.815.665-.356.734-.28.56.62-.162.848-.747.968-.949.195zm3.685.14c.083-.217.016-.783-.148-1.258l-.3-.863.813.81c.875.872.863 1.704-.023 1.704-.328 0-.442-.132-.342-.394zm9.622-.385c0-.33-.184-1.313-.41-2.184-.376-1.45-.373-1.678.032-2.739.243-.636.39-1.51.326-1.941-.092-.626-.02-.778.352-.75.28.021.382.146.256.311-.116.151-.238 1.94-.27 3.976-.032 2.035-.11 3.751-.172 3.814-.063.063-.114-.156-.114-.487zm13.53-1.89c-.343-.28-.782-.507-.976-.507-.193 0-.415-.102-.492-.227-.077-.124.141-.172.484-.107.343.066.867-.01 1.165-.17.45-.241.569-.202.707.234.092.288.07.695-.048.904-.18.32-.314.3-.84-.127zm-21.123-.528-.846-.428.928-.285c.996-.306 1.445.054.985.79-.181.289-.373.275-1.067-.077zm13.678.216c0-.229-.143-.464-.32-.522-.237-.08-.223-.21.056-.508.295-.316.53-.342 1.113-.122.746.282 1 .692.43.692-.171 0-.529.197-.795.438-.43.39-.483.392-.483.022zm-20.974-1.074c-.231-.693.44-.895 1.297-.389.84.495.85.495 1.02-.04.193-.61.848-1.338 1.202-1.338.128 0-.059.292-.416.65-.357.356-.65.814-.65 1.016 0 .458-2.302.553-2.453.101zm23.091.116c0-.145.12-.338.265-.428.145-.09.264-.044.264.101 0 .146-.119.338-.264.428-.146.09-.265.045-.265-.1zm.53-1.063c0-.275.503-.673.652-.516.048.051-.079.246-.282.434-.204.187-.37.224-.37.082zm2.499-.05c-.098-.158-.046-.42.116-.582.162-.162.295-.627.295-1.035 0-.604.116-.74.63-.74.778 0 1.16 1.004.474 1.246-.674.238-1.374.912-1.215 1.17.078.126.082.23.01.23-.073 0-.213-.13-.31-.288zm-13.598-1.393c-.356-.749-.7-1.467-.762-1.597-.063-.13.02-.152.185-.05.363.224 1.42 2.485 1.306 2.791-.045.12-.373-.394-.73-1.144zm5.107.821c.053-.4-.006-.727-.13-.727-.126 0-.221-.268-.212-.596.016-.577.025-.575.284.066l.268.662.386-.728c.585-1.104.715-.87.146.265-.274.546-.575 1.17-.668 1.389-.094.218-.127.07-.074-.33zm5.618-.74c-.278-.28-.516-.86-.53-1.288-.02-.714.014-.745.424-.374.245.222.545.342.666.268.121-.075.175.33.121.9-.054.57-.116 1.029-.137 1.02a9.898 9.898 0 0 1-.544-.526zm-20.811-.339c-.779-.686-.731-1.236.106-1.235.475 0 .577.16.593.926.01.509.01.921 0 .917-.01-.005-.326-.278-.7-.608zm3.275-.11c.032-.459.279-.846.676-1.057.344-.184.646-.333.671-.333.026 0 .042.327.036.727-.006.436-.222.857-.54 1.05-.777.472-.898.416-.843-.386zm7.23-.464c-.083-.219-.037-.397.104-.397s.257.178.257.397c0 .218-.047.396-.104.396-.058 0-.173-.178-.257-.396zm-15.514-2.887c0-.06.352-.853.782-1.763.43-.91.721-1.754.646-1.876-.075-.122-.546-.221-1.047-.221-.5 0-.91-.12-.91-.265 0-.147.705-.264 1.587-.264 1.112 0 1.587.1 1.587.338 0 .731-1.845 4.16-2.238 4.16-.224 0-.407-.05-.407-.11zm33.598-1.736c.439-.869.797-1.702.797-1.852 0-.15-.416-.272-.926-.272-.646 0-.926-.12-.926-.397 0-.305.338-.397 1.456-.397 1.274 0 1.455.065 1.455.524 0 .947-1.659 3.974-2.178 3.974-.422 0-.386-.178.322-1.58zm-17.327.522c-.09-.146-.037-.265.117-.265s.28.119.28.265c0 .145-.052.264-.116.264-.065 0-.19-.119-.28-.264z" transform="translate(-234.026 -181.235)"/></svg>