<svg xmlns="http://www.w3.org/2000/svg" viewBox="0 0 42.598 65.352" height="247" width="161"><path d="M220.218-27.087c-.403-.445-.438-3.053-.438-32.106 0-30.299.02-31.64.483-32.06.442-.4 2.253-.438 20.597-.438 19.149 0 20.134.023 20.55.484.403.445.438 3.053.438 32.106 0 30.299-.02 31.64-.483 32.06-.442.4-2.253.438-20.597.438-19.149 0-20.134-.023-20.55-.484z" style="fill:#fff;fill-opacity:1;stroke-width:.26458332" transform="translate(-91.579 -107.725)"/><path style="fill:#fff;fill-opacity:1;stroke-width:.26584104" d="M-121.914 100.589c-.406-.445-.442-3.053-.442-32.106 0-30.299.02-31.64.489-32.06.445-.4 2.274-.438 20.792-.438 19.332 0 20.326.023 20.747.484.406.445.442 3.053.442 32.106 0 30.299-.02 31.64-.489 32.06-.445.4-2.274.438-20.793.438-19.33 0-20.325-.023-20.746-.484z" transform="translate(122.356 -35.72)"/><path style="fill:#b1b1af;stroke-width:.26458332" d="M111.676 222.998c-.403-.444-.438-3.061-.438-32.238 0-30.427.02-31.772.483-32.192.442-.4 2.272-.438 20.862-.438 19.405 0 20.398.023 20.815.484.402.445.438 3.062.438 32.238 0 30.427-.02 31.773-.484 32.192-.442.4-2.271.438-20.861.438-19.405 0-20.398-.023-20.815-.484zm41.411-.218c.464-.42.484-1.757.484-31.928 0-28.93-.036-31.529-.438-31.973-.417-.461-1.402-.484-20.55-.484-18.344 0-20.156.038-20.597.438-.464.42-.484 1.757-.484 31.927 0 28.93.036 31.53.438 31.974.417.46 1.402.484 20.55.484 18.344 0 20.156-.039 20.597-.438zm-39.03-1.634c-.402-.444-.438-2.933-.438-30.386 0-28.633.02-29.92.484-30.34.44-.398 2.105-.438 18.48-.438 17.098 0 18.017.024 18.433.484.402.444.438 2.941.438 30.507 0 22.998-.074 30.096-.317 30.34-.241.24-4.707.317-18.48.317-17.26 0-18.184-.024-18.6-.484zm36.815-.098c.461-.46.461-60.023 0-60.484-.459-.459-36.212-.459-36.671 0-.46.461-.46 60.023 0 60.484.46.46 36.212.46 36.671 0zm-35.613-.53c-.4-.4-.408-1.073-.017-1.464.225-.224.191-.41-.132-.733-.878-.878-.238-1.966 1.309-2.224.909-.152 1.027-.254.958-.826-.539-4.511-.27-5.783 1.601-7.572 2.093-2 4.955-2.504 7.473-1.313 6.451 3.05 4.24 12.608-2.91 12.58-.873-.002-1.945-.162-2.381-.353-.663-.29-.915-.287-1.524.02-.529.266-.87.292-1.24.095-.686-.367-.986-.345-.597.045.408.408.408 1.338 0 1.746-.174.175-.746.317-1.27.317s-1.095-.142-1.27-.317zm1.8-.844c0-.399-.643-.753-.9-.495-.35.348-.128.864.37.864.291 0 .53-.166.53-.369zm-.086-1.907c.208-.541-.444-.964-.901-.585-.258.215-.269.374-.043.647.399.48.745.457.944-.062zm2.202-.338c0-.307-.77-.938-.938-.77-.24.24.194 1.002.57 1.002.202 0 .368-.104.368-.232zm29.165 3.133c-.785-.316-1.023-.982-.596-1.667.248-.396.26-.576.042-.648-.398-.133-.386-1.453.017-1.856.175-.174.806-.317 1.402-.317.597 0 1.228.143 1.403.317.403.404.41 1.337.01 1.735-.231.232-.222.408.04.723.42.505-.026 1.723-.631 1.723-.21 0-.54.052-.734.116-.194.063-.623.007-.953-.126zm1.383-1.03c.084-.136.026-.325-.13-.42-.39-.243-1.119.075-.918.4.207.334.846.347 1.048.02zm.012-2.139c0-.216-.268-.431-.596-.478-.579-.082-.826.427-.41.844.309.308 1.006.055 1.006-.366zm-8.891 1.33c-1.348-.243-3.202-1.397-4.067-2.53-2.514-3.298-1.402-7.977 2.374-9.99 1.486-.792 4.338-.788 5.846.008 1.277.674 2.657 2.17 3.224 3.494.649 1.514.532 3.887-.268 5.443-.834 1.623-1.574 2.336-3.117 2.998-1.445.62-2.727.806-3.992.578zm-19.178-13.746c-.45-.108-.96-.285-1.136-.393-.176-.109-.486-.06-.689.11-.596.494-1.756.2-2.35-.598-.467-.63-.501-.847-.241-1.537.239-.632.222-1.033-.076-1.88-.797-2.258-.336-4.618 1.257-6.427 1.39-1.578 2.951-2.292 5.04-2.304 1.977-.012 3.206.45 4.64 1.745 3.028 2.737 2.807 7.807-.439 10.057-1.932 1.339-3.876 1.736-6.006 1.227zm-2.938-1.74c-.592-.432-.801-.279-.354.26.182.22.445.33.582.245.138-.085.035-.312-.228-.504zm19.876.686c-3.837-2.201-4.75-7.155-1.892-10.256 1.353-1.468 2.752-2.202 4.553-2.388 2.747-.283 5.59 1.39 6.767 3.98.554 1.222.694 4.106.24 4.955-.204.38-.165.674.152 1.158.573.874.404 1.704-.481 2.362-.602.447-.863.496-1.456.272-.564-.212-.956-.168-1.78.202-.688.309-1.706.476-2.91.48-1.565.003-2.06-.115-3.193-.765zm8.727-1.513c.14-.363.1-.38-.236-.1-.46.382-.507.535-.167.535.13 0 .311-.196.403-.435zM121.16 190.78c-1.464-.536-3.461-2.572-3.96-4.036-.481-1.41-.524-3.153-.103-4.188.166-.41.315-1.456.33-2.325.027-1.482.074-1.596.77-1.842.502-.177.885-.171 1.184.018.33.208.734.15 1.583-.225 1.597-.707 4.227-.68 5.75.056 1.35.655 2.92 2.296 3.508 3.669.65 1.518.524 3.906-.29 5.511-.75 1.481-2.438 3.007-3.851 3.483-1.218.41-3.631.35-4.921-.121zm18.88-.507c-1.727-.55-3.775-2.46-4.305-4.014-1.236-3.63.587-7.503 4.059-8.625 1.713-.553 2.47-.566 4.125-.068.756.228 1.736.323 2.392.233.906-.124 1.215-.048 1.672.409.652.651.713 1.31.189 2.027-.32.437-.32.61 0 1.228.484.935.477 3.685-.011 4.855-1.345 3.218-4.939 4.968-8.12 3.955zm7.38-11.041c-.061-.182-.335-.375-.61-.428-.431-.083-.45-.039-.144.331.42.506.91.569.754.097zm-25.654-2.422c-4.359-1.173-6.44-5.762-4.433-9.778 1.147-2.297 3.386-3.613 6.133-3.603 4.129.014 7.049 3.102 6.76 7.147-.217 3.027-2.1 5.333-5.078 6.217-1.537.457-1.745.458-3.382.017zm17.31-.984c-1.965-.973-3.761-3.798-3.761-5.915 0-1.236.862-3.387 1.751-4.372 1.77-1.958 2.841-2.238 7.857-2.053 2.414.09 3.22-.054 2.567-.457-.37-.229-.339-1.283.048-1.67.39-.39 1.655-.413 2.346-.044.55.295.686 1.299.236 1.749-.191.19-.15.38.132.614 1.018.845-.174 2.295-1.701 2.07-.994-.145-1.102.181-.499 1.511.634 1.398.632 3.899-.003 5.298-.617 1.358-1.977 2.718-3.335 3.335-1.518.69-4.173.659-5.637-.066zm7.616-11.08c0-.146-.186-.265-.413-.265-.227 0-.339.12-.249.265.09.145.276.264.413.264.137 0 .249-.119.249-.264zm2.646-.25c0-.676-.456-.934-.941-.532-.295.245-.317.41-.089.685.44.528 1.03.441 1.03-.152zm-.118-1.89c.272-.441-.341-.947-.706-.582-.305.305-.114.87.294.87.129 0 .314-.13.412-.288zm-34.014 3.121c-.783-.394-.984-1.282-.418-1.848.355-.355.357-.443.014-.727-.884-.734.03-1.846 1.517-1.846 1.211 0 1.717.57 1.364 1.537-.19.518-.164.864.093 1.27.447.706.189 1.397-.638 1.711-.84.32-1.136.305-1.932-.097zm1.499-.867c.24-.627-.323-1.07-.83-.65-.313.26-.339.428-.11.703.396.478.744.458.94-.053zm.042-2.319c.058-.297-.093-.441-.463-.441-.302 0-.548.159-.548.353 0 .81.857.885 1.011.088z" transform="translate(-111.238 -158.13)"/><path style="fill:#f5d806;stroke-width:.26458332" d="M115.53 220.425c-.69-.484-.75-.977-.175-1.455.375-.31.375-.364 0-.574-.49-.274-.546-1.29-.096-1.74.175-.175.705-.318 1.178-.318 1.16 0 1.463-.591.99-1.933-.803-2.276-.208-4.72 1.613-6.62 4.6-4.8 12.72-.085 10.862 6.306-1.023 3.518-4.785 5.541-8.325 4.476-.946-.285-1.393-.297-2.053-.059-.664.24-.933.231-1.264-.044-.605-.502-.823-.124-.392.681.338.633.318.731-.25 1.19-.751.61-1.312.633-2.088.09zm1.66-.908c0-.47-.872-.692-1.248-.316-.146.147-.182.403-.079.57.263.425 1.328.222 1.328-.254zm0-1.984c0-.584-.822-.875-1.253-.443-.445.444-.006 1.147.657 1.053.39-.055.597-.266.597-.61zm1.985-.095c0-.123-.238-.44-.529-.703-.512-.463-.53-.462-.53.048 0 .289.08.605.177.702.252.252.882.218.882-.047zm28.783 2.67c-.416-.477-.347-1.104.163-1.46.196-.136.14-.291-.172-.475-.622-.367-.592-1.482.048-1.825.883-.473 2.067-.327 2.512.308.36.515.363.65.018 1.177-.242.368-.29.656-.128.756.454.28.287 1.421-.25 1.709-.772.413-1.74.33-2.191-.19zm1.49-.226c.55-.21.536-.796-.022-1.01-.557-.214-1.002.211-.793.756.178.465.226.48.815.254zm.37-2.555c.113-.59-.63-.884-1.148-.454-.308.256-.328.413-.088.703.403.484 1.122.34 1.235-.25zm-9.608 1.08c-2.228-.842-3.823-2.429-4.339-4.317-.655-2.4-.199-4.432 1.382-6.154 1.448-1.576 2.781-2.168 4.905-2.175 4.74-.016 7.79 4.818 5.755 9.122-1.093 2.312-2.773 3.44-5.501 3.694-.775.072-1.766-.004-2.202-.17zm-22.197-14.04c-.754-.678-.862-1.082-.57-2.123.125-.45.077-1.04-.127-1.532-1.141-2.756.402-6.616 3.23-8.078 1.271-.658 3.618-.78 5.156-.27 1.392.463 3.158 2.048 3.864 3.47 1.065 2.144.666 5.093-.937 6.92-1.72 1.958-5.163 2.791-7.5 1.814-.833-.347-.987-.347-1.334 0-.545.545-1.01.493-1.782-.202zm1.162-.696c0-.334-.777-.932-.965-.743-.27.27.133.975.56.975.223 0 .405-.104.405-.232zm20.997.788c-1.89-.483-3.794-2.235-4.59-4.223-.488-1.22-.436-3.655.105-4.932.864-2.036 3.005-3.584 5.449-3.94 2.51-.365 5.432 1.227 6.656 3.625.676 1.326.91 3.53.505 4.759-.258.782-.24 1.087.1 1.744.533 1.032.52 1.245-.118 1.882-.552.552-1.967.72-2.247.266-.1-.16-.56-.06-1.187.26-1.173.599-3.452.87-4.673.559zm7.253-2.094c.159-.476-.388-.376-.573.105-.099.258-.04.379.154.314a.749.749 0 0 0 .419-.419zm-26.072-11.71c-3.67-1.45-5.357-5.307-3.874-8.859.214-.513.248-.947.094-1.19-.768-1.215.372-2.62 1.714-2.11.552.21.9.169 1.557-.181 1.063-.568 4.758-.629 5.74-.095 2.62 1.425 3.836 3.4 3.836 6.236 0 1.53-.122 2.059-.704 3.043-1.36 2.3-2.935 3.311-5.56 3.568-1.054.104-1.76 0-2.803-.412zm-2.417-10.992c.307-.37.287-.414-.144-.33-.275.053-.549.245-.61.427-.156.472.334.409.754-.097zm20.48 10.12c-4.216-1.978-5.282-6.846-2.253-10.286 1.665-1.892 4.89-2.637 7.214-1.666.732.306 1.092.324 1.726.085.66-.25.92-.224 1.488.148.73.478.945 1.664.402 2.207-.204.204-.167.635.133 1.517.72 2.124.397 4.042-1.007 5.976-1.779 2.447-4.995 3.29-7.703 2.02zm8.07-10.458c0-.53-.666-.932-1.1-.664-.15.093-.068.368.197.662.579.64.903.64.903.002zm-26.005-2.786c-2.732-.734-4.71-3.416-4.719-6.397-.005-1.813.488-3.142 1.66-4.477 1.328-1.513 2.676-2.078 4.986-2.09 2.25-.013 3.496.492 4.948 2.006 3.263 3.405 1.744 9.383-2.777 10.923-1.43.488-2.386.496-4.098.035zm18.473-.469c-1.404-.391-3.623-2.625-4.053-4.08-.924-3.126.178-6.131 2.818-7.69 1.223-.723 2.203-.843 5.592-.687 2.922.135 3.493.066 3.301-.4-.458-1.111-.423-1.345.266-1.797 1.295-.849 3.13.362 2.165 1.428-.408.451-.415.531-.055.67.484.185.541 1.256.09 1.707-.174.175-.773.317-1.33.317-1.277 0-1.426.375-.748 1.87 1.363 3.003-.128 6.797-3.253 8.28-1.25.594-3.415.766-4.793.382zm7.002-11.028c0-.339-.778-.93-.97-.738-.192.192.4.97.738.97a.233.233 0 0 0 .232-.232zm2.5-.273c.255-.414-.152-1.083-.66-1.083-.584 0-.883.413-.68.94.162.423 1.104.523 1.34.143zm-.118-2.406c0-.347-.177-.529-.514-.529-.581 0-.921.399-.677.794.305.494 1.19.297 1.19-.265zm-34.51 2.858c-.36-.515-.362-.65-.017-1.177.241-.368.29-.656.128-.756-.454-.28-.287-1.421.25-1.709.76-.407 1.472-.334 2.158.221.585.474.592.524.171 1.166-.378.577-.385.692-.053.82.467.18.511 1.258.07 1.7-.556.555-2.247.39-2.706-.265zm2.083-.188c.256-.414-.151-1.082-.659-1.082-.583 0-.882.413-.68.939.162.423 1.104.524 1.34.143zm-.25-2.537c0-.575-.38-.747-.908-.413-.319.201-.323.31-.027.666.439.528.936.394.936-.253z" transform="translate(-111.238 -158.13)"/><path style="fill:#a5971a;stroke-width:.26458332" d="M115.53 220.425c-.69-.484-.75-.977-.175-1.455.375-.31.375-.364 0-.574-.49-.274-.546-1.29-.096-1.74.175-.175.705-.318 1.178-.318 1.16 0 1.463-.591.99-1.933-1.73-4.903 3.311-10.004 8.173-8.27 1.3.464 2.575 1.35 3.207 2.228.332.46.132.346-.583-.335l-1.088-1.034.297.965c.343 1.12.031 2.087-.82 2.543-.423.226-.665.164-1.221-.315-.767-.66-.699-1.39.155-1.66.623-.199 1.006.025 1.303.76.201.5.231.466.246-.278.027-1.366-.8-2.788-1.1-1.89-.055.167-.353.323-.66.346-.309.022-.772.212-1.03.422-.259.21-.393.253-.299.095.095-.158.003-.287-.202-.287-.205 0-.32.086-.256.19.065.106-.062.34-.282.523-.338.28-.373.255-.226-.168.17-.488.164-.488-.218.003-.259.332-.519.428-.763.282-.204-.122.662.783 1.925 2.01 2.205 2.142 3.647 4.348 3.654 5.59.006 1.057.832.638 1.577-.8.176-.34.48-1.352.675-2.25.195-.897.364-1.326.376-.952.04 1.283-.796 3.445-1.73 4.48-.914 1.011-2.815 2.133-3.558 2.1-.21-.01-.12-.122.198-.25.528-.212.554-.32.301-1.24-.45-1.63-1.426-3.348-2.511-4.415-1.085-1.067-2.422-1.887-2.67-1.638-.083.083.017.154.223.157.23.004.12.209-.287.533-.484.386-.526.478-.155.346.333-.119.446-.082.329.107-.098.159-.006.461.205.672.334.334.306.418-.218.657-.644.293-.867 1.243-.235 1.001.202-.077.298-.03.215.105-.083.135.06.368.317.518.286.166.333.276.122.28-.19.005-.273.126-.185.27.094.152-.037.2-.315.116-.262-.08-.06.104.45.41.599.358.713.497.324.392-.957-.256-.605.42.668 1.283.618.42 1.124.805 1.124.857 0 .052-.565-.075-1.255-.283-.989-.297-1.435-.313-2.1-.073-.664.24-.933.231-1.264-.044-.605-.502-.823-.124-.392.681.338.633.318.731-.25 1.19-.751.61-1.312.633-2.088.09zm1.66-.908c0-.47-.872-.692-1.248-.316-.146.147-.182.403-.079.57.263.425 1.328.222 1.328-.254zm0-1.984c0-.584-.822-.875-1.253-.443-.445.444-.006 1.147.657 1.053.39-.055.597-.266.597-.61zm1.985-.095c0-.123-.238-.44-.529-.703-.512-.463-.53-.462-.53.048 0 .289.08.605.177.702.252.252.882.218.882-.047zm28.783 2.67c-.416-.477-.347-1.104.163-1.46.196-.136.14-.291-.172-.475-.622-.367-.592-1.482.048-1.825.883-.473 2.067-.327 2.512.308.36.515.363.65.018 1.177-.242.368-.29.656-.128.756.454.28.287 1.421-.25 1.709-.772.413-1.74.33-2.191-.19zm1.49-.226c.55-.21.536-.796-.022-1.01-.557-.214-1.002.211-.793.756.178.465.226.48.815.254zm.37-2.555c.113-.59-.63-.884-1.148-.454-.308.256-.328.413-.088.703.403.484 1.122.34 1.235-.25zm-26.476 1.482c.182-.073.48-.073.662 0 .182.073.033.134-.33.134-.365 0-.514-.06-.332-.134zm19.209-.454c1.753-.339 2.518-.835 2.034-1.319-.128-.128-.16-.427-.07-.664.226-.597.758-1.1.955-.903.09.09.164.025.164-.145 0-.17-.128-.308-.284-.308-.156 0-.096-.188.132-.416.581-.581.519-.711-.18-.373-.57.277-.574.272-.08-.123.282-.226.59-.411.683-.411.093 0 .17-.179.17-.397 0-.223-.242-.401-.552-.406-.522-.01-.518-.028.075-.357.544-.302.568-.37.177-.52-.655-.251-.864-.204-.406.092.238.154.271.258.082.26-.512.008-.681-.514-.224-.69.328-.126.353-.242.111-.533-.246-.296-.226-.34.1-.215.223.086.484.03.58-.124.101-.164.018-.22-.204-.135-.207.08-.562-.041-.79-.268-1.403-1.403-5.232 3.304-5.312 6.532-.018.69-.064 1.256-.103 1.257-.261.006-2.14-1.364-2.574-1.878-.32-.377-.358-.493-.097-.292.375.29.453.22.595-.534.336-1.785 1.74-4.219 3.337-5.781l1.58-1.547-.855-.638c-1.641-1.223-3.064-.973-3.509.617-.151.541-.121.601.162.331.466-.443.912-.416 1.413.085.313.313.348.54.142.926-.306.57-1.304.679-1.79.193-.395-.395-.411-1.658-.031-2.368.46-.861 2.288-1.536 4.176-1.542 4.74-.016 7.79 4.818 5.755 9.122-1.114 2.357-2.787 3.453-5.633 3.692l-1.541.13zm-6.321-3.092c-.096-.156-.118-.34-.048-.409.069-.07.196.058.282.282.18.467.027.549-.234.127zm-.609-2.364c0-.364.06-.513.134-.33.073.181.073.479 0 .66-.074.183-.134.034-.134-.33zm-14.858-.53c.288-.186.302-.257.05-.26-.19-.002-.265-.136-.165-.297.127-.205.245-.19.395.054.252.408.081.77-.362.764-.19-.002-.157-.106.082-.26zm14.858-1.058c0-.363.06-.512.134-.33.073.182.073.48 0 .661-.074.182-.134.033-.134-.33zm-5.908-.529c-.083-.364-.233-.9-.334-1.19-.101-.291.01-.195.247.213.236.409.387.945.334 1.191-.068.32-.139.258-.247-.214zm6.636-1.807c.143-.267.468-.654.722-.86.285-.232.222-.048-.168.484-.695.95-.955 1.126-.554.376zm-18.336-4.609c-.754-.677-.862-1.081-.57-2.122.125-.45.077-1.04-.127-1.532-1.141-2.756.402-6.616 3.23-8.078 1.271-.658 3.618-.78 5.156-.27 1.392.463 3.158 2.048 3.864 3.47 1.065 2.144.666 5.093-.937 6.92-1.72 1.958-5.163 2.791-7.5 1.814-.833-.347-.987-.347-1.334 0-.545.545-1.01.493-1.782-.202zm7.465-.696c.12-1.244-1.285-4.005-2.616-5.145-1.045-.894-1.062-.898-1.974-.485-.665.302-.88.542-.776.87.113.358.017.424-.463.318-.344-.076-.492-.038-.342.088.146.122.303.46.35.75.046.292.277.679.513.86.236.182.344.331.24.331-.104 0 0 .287.229.637.279.426.324.695.136.81-.45.28.402.959.96.766.427-.148.421-.114-.046.287-.443.38-.454.43-.066.308.254-.08.463-.038.463.093 0 .308.916.488 2.249.443 1-.034 1.063-.085 1.143-.93zm-5.51-3.736c-.238-.154-.27-.258-.08-.26a.616.616 0 0 1 .478.26c.203.329.111.329-.397 0zm-.793 3.737c0-.334-.777-.932-.965-.743-.27.27.133.975.56.975.223 0 .405-.104.405-.232zm10.455-3.58c.59-2.03-.026-4.549-1.425-5.815-.547-.495-.55-.493-.514.462.023.597-.145 1.16-.444 1.49-.944 1.043-2.477.408-2.15-.891.281-1.123 1.576-1.163 2.021-.062.217.536.226.537.239.029.007-.291-.135-.82-.314-1.174-.27-.531-.532-.648-1.483-.662-.97-.013-1.194.082-1.387.59-.187.493-.323.556-.727.34-.633-.338-.927-.06-.498.47.262.323.261.365-.002.207-.732-.44-.24.182 1.485 1.881 1.753 1.725 2.926 3.567 3.328 5.227l.192.794.635-.737c.349-.405.819-1.372 1.045-2.148zm-5.78-6.098c0-.212-.102-.323-.225-.246-.124.076-.157.25-.073.385.214.346.297.307.297-.14zm17.487 10.517c.33-.064.805-.061 1.058.005s-.016.118-.598.115c-.582-.003-.789-.057-.46-.12zm-2.862-.824c-2.13-1.353-3.252-3.37-3.243-5.831.01-2.607 1.204-4.544 3.522-5.715 4.327-2.187 9.217.47 9.713 5.276.08.77.004 1.804-.17 2.332-.258.782-.24 1.087.1 1.744.533 1.032.52 1.245-.118 1.882-.624.624-1.914.695-2.38.132-.182-.218-.465-.395-.629-.393-.194.003-.182.078.034.215.378.24-1.228 1.116-1.995 1.087-.558-.02.721-.642 1.53-.743.32-.04.237-.61-.132-.91-.145-.12.034-.143.397-.054.571.14.596.121.184-.137-.363-.226-.407-.383-.184-.652.223-.27.18-.426-.183-.653-.413-.258-.388-.277.183-.14.637.153.642.143.148-.252-.282-.226-.372-.41-.198-.41.173 0 .315-.215.315-.477s.136-.612.303-.779c.227-.227.144-.272-.331-.182-.349.066-.484.05-.301-.037s.265-.267.183-.4c-.083-.133-.048-.242.077-.242s.228-.285.228-.633c0-.41-.121-.587-.344-.5-.19.072-.344 0-.344-.162 0-.16.149-.294.33-.297.228-.003.212-.08-.052-.246-.559-.354-2.12.358-3.02 1.377-.973 1.102-2.216 3.72-2.438 5.135-.158 1.011-.12 1.112.453 1.22.534.102.546.124.082.155-.299.02-1.073-.3-1.72-.71zm8.95-1.32c.159-.477-.388-.377-.573.104-.099.258-.04.379.154.314a.749.749 0 0 0 .419-.419zm-8.6-3.622c.729-1.428 4.212-5.009 4.563-4.691.118.106.123.036.012-.156-.11-.192-.385-.278-.609-.192-.353.135-.358.096-.04-.29.332-.4.3-.432-.315-.315-.447.085-.683.012-.683-.21 0-.188.118-.268.261-.18.144.09.184.036.088-.118-.095-.154-.65-.242-1.233-.195-.597.048-.995-.021-.91-.158.082-.133-.038-.242-.267-.242-.429 0-1.464 1.455-1.466 2.06 0 .261.125.272.545.047 1.108-.592 1.8 1.019.726 1.691-.343.215-.579.161-1.014-.232-.445-.403-.547-.752-.477-1.631l.089-1.119-.85.825c-1.224 1.185-1.684 2.336-1.694 4.24-.01 1.718.31 2.757 1.219 3.953l.53.697.424-1.23c.233-.678.729-1.827 1.1-2.554zm-16.953-7.883c-.482-.183-.78-.438-.662-.567.121-.132.065-.148-.128-.037-.19.11-.663-.007-1.059-.26-2.757-1.763-3.812-5.163-2.544-8.2.214-.514.248-.948.094-1.191-.768-1.215.372-2.62 1.714-2.11.542.205.902.172 1.508-.142.439-.227.938-.355 1.11-.285.172.07.097.137-.166.149-.268.011-.402.144-.304.303.105.17-.021.249-.315.198-.33-.056-.478.066-.453.377.02.253-.07.394-.199.315-.129-.08-.244-.05-.255.069-.01.117-.061.431-.112.697-.067.354.027.443.351.33.39-.135.395-.114.04.178-.234.191-.394.723-.38 1.258.016.63-.151 1.075-.523 1.392-.5.427-.503.451-.04.286.348-.124.447-.085.317.126-.126.203-.044.25.244.14.303-.116.34-.223.123-.357-.22-.137-.197-.234.084-.342.267-.102.366-.008.307.294-.047.245-.104.445-.126.445-.022 0-.08.209-.13.464-.048.256.022.396.157.313a.29.29 0 0 0 .094-.398c-.236-.383.307-.29.638.108.162.196.213.437.113.537-.407.407-.243.853.33.9.432.036.958-.337 1.806-1.28 1.433-1.594 2.364-3.871 2.237-5.473-.108-1.359.083-1.39 1.742-.291 1.846 1.222 3.069 3.412 3.066 5.49-.002 1.197-.405 2.673-.913 3.346-.268.355-.227.082.13-.875.86-2.302.616-4.282-.753-6.124l-.67-.902-.43 1.563c-.614 2.234-1.747 4.164-3.293 5.605-.738.688-1.344 1.31-1.348 1.383-.003.072-.097.276-.21.452-.138.218.026.2.515-.053.713-.37 1.286-.3 1.024.123-.075.122.101.16.393.084.59-.155.776.584.198.79-.182.065.205.09.86.056 1.086-.057 1.21-.134 1.428-.894.29-1.01.074-1.304-.52-.71-.519.519-.866.448-1.345-.272-.294-.444-.285-.62.059-1.11.485-.693 1.23-.751 1.837-.145.318.318.414.79.35 1.707l-.089 1.268.794-.714.793-.715-.793.895c-1.464 1.649-4.763 2.539-6.696 1.805zm-2.3-8.125c-.09-.145-.018-.264.16-.264.18 0 .254-.072.166-.159-.237-.238-.755.157-.58.442.084.135.212.246.285.246.073 0 .059-.12-.031-.265zm.169-.979c-.305-.12-.305-.179 0-.371.295-.188.288-.23-.037-.237-.352-.007-.352-.037 0-.265.353-.228.353-.257 0-.264-.352-.007-.352-.04 0-.289.353-.25.353-.269 0-.172-.218.06-.404.396-.414.747-.021.802.096 1.042.496 1.016.199-.013.182-.074-.046-.165zm-.805-2.094c.307-.37.287-.414-.144-.33-.275.053-.549.245-.61.427-.156.472.334.409.754-.097zm20.333 10.019c-1.317-.67-1.439-.81-1.523-1.751-.136-1.521.128-2.252.883-2.442 1.237-.31 2.027 1.152.937 1.735-.387.208-.614.17-.938-.154-.236-.235-.501-.355-.59-.266-.295.295.46 2.269.973 2.543.689.368.885.337.711-.115-.103-.269-.02-.334.28-.22.282.109.362.06.237-.142-.119-.193-.053-.254.179-.165.202.077.52-.043.708-.268.186-.225.466-.409.622-.409.155 0 .063.16-.205.357-.38.278-.412.403-.142.57.244.15.282.11.129-.137-.157-.254-.096-.305.22-.183.24.092.425.083.41-.021a.767.767 0 0 1 .022-.321c.214-.555.229-1.323.025-1.323-.136 0-.977-.675-1.867-1.5-1.672-1.547-2.343-2.585-2.918-4.51-.195-.652-.455-1.055-.625-.969-.16.082.21-.339.823-.934.612-.596 1.208-1.083 1.322-1.083.115 0 .24.437.279.97.097 1.356 1.057 3.192 2.352 4.499 1.106 1.116 3.188 2.37 3.469 2.09.083-.083.005-.15-.174-.15-.178 0-.24-.138-.135-.306.127-.206.068-.235-.183-.087-.205.12-.134-.06.157-.402.34-.398.388-.549.133-.422-.219.108-.166.01.116-.22.283-.228.392-.416.243-.416-.15 0-.271-.178-.271-.397 0-.218.114-.397.253-.397s.09-.201-.11-.447c-.247-.304-.258-.384-.033-.25.186.112.33.07.33-.096 0-.163.132-.215.293-.116.16.1.1-.111-.133-.468-.234-.357-.354-.721-.266-.809.088-.088.06-.316-.061-.508-.122-.192-.223-.561-.225-.821-.002-.26-.163-.57-.357-.69-.282-.175-.266-.252.08-.385.255-.098.366-.058.27.097-.09.145.033.339.273.431.348.134.365.212.083.391-.286.181-.287.224-.007.228.19.002.278.115.194.25-.084.136-.028.323.123.417.152.093.243.028.203-.145-.087-.376.786-.577 1-.23.258.418.647.262.647-.26 0-.599-.728-.941-1.189-.559-.232.193-.424.157-.655-.12-.27-.327-.205-.45.387-.72.583-.265.84-.253 1.416.069.773.432 1.078 1.617.572 2.225-.226.273-.198.662.114 1.58.487 1.435.513 2.16.133 3.663-.688 2.727-3.482 4.946-6.224 4.946-.936 0-1.768-.218-2.77-.727zm-2.478-1.86-.508-.72.707.641c.742.675.833.82.508.806-.11-.005-.427-.332-.707-.728zm-1.19-2.594c.012-.308.075-.371.16-.16.075.191.066.42-.022.507-.088.088-.15-.068-.139-.347zm-.225-1.433c0-.51.055-.718.121-.463.067.254.067.671 0 .926-.066.254-.12.046-.12-.463zm.224-1.478c.013-.308.076-.37.16-.16.076.192.067.42-.02.508-.089.088-.151-.069-.14-.348zm-12.386-4.533c.402-.06.997-.06 1.323.004.325.063-.004.113-.732.11-.727-.001-.994-.053-.591-.114zm19.906-.075c-.732-.186-.743-.204-.132-.229.363-.015.84.088 1.058.23.45.29.218.29-.926 0zm-2.563-.18c.19-.077.419-.067.507.02.088.088-.068.151-.347.14-.309-.013-.371-.076-.16-.16zm-18.94-.923c-.621-.139-1.061-.363-.978-.498.083-.134-.008-.183-.204-.108-.603.23-2.468-1.615-3.088-3.057-1.09-2.535-.686-5.272 1.075-7.278.816-.93 2.508-1.979 3.19-1.978.188 0-.158.247-.767.549-1.145.566-2.25 1.57-1.365 1.238.458-.172.532.393.101.784-.124.114-.13.04-.01-.165.148-.256.116-.31-.103-.175-.224.138-.237.296-.043.528.15.183.196.41.1.506-.095.096-.028.174.15.174.18 0 .251.12.162.265-.287.463-.635.284-.528-.272.057-.295-.001-.472-.13-.393-.228.142-.116 1.327.169 1.789.08.129.329.164.553.078.353-.135.358-.097.04.287-.203.244-.37.634-.373.866a1.75 1.75 0 0 1-.23.78c-.186.293-.12.3.37.038.42-.225.501-.38.274-.52-.241-.149-.223-.236.07-.35.403-.154.454.226.106.783-.106.17-.102.358.007.42.11.06.071.082-.086.047-.158-.035-.287.097-.287.294 0 .196.07.349.154.34.085-.01.333 0 .551.019.353.031.353.064 0 .291-.218.142-.305.259-.192.261.112.002.648-.291 1.19-.652 2.047-1.36 3.575-4.078 3.611-6.42.012-.763.116-1.388.23-1.389.508-.004 2.246 1.086 3.02 1.893.887.926 1.679 2.521 1.649 3.322-.01.26-.177-.037-.371-.66-.195-.623-.68-1.56-1.08-2.085l-.727-.952-.425 1.687c-.545 2.163-1.551 3.864-3.345 5.658-.787.787-1.32 1.5-1.184 1.583.136.084.18.327.098.541-.082.214-.047.398.078.41 1.204.118 1.495.205 1.68.504a.52.52 0 0 0 .604.195c.216-.082.51-.032.654.113.367.366 1.39-.986 1.39-1.836 0-.63-.028-.642-.484-.23-.657.595-1.29.551-1.645-.112-.235-.44-.202-.654.164-1.059.921-1.017 2.23-.255 2.23 1.3 0 1.03.31 1.064 1.05.111.397-.51.483-.556.289-.153-.422.873-2.095 2.141-3.423 2.593-1.316.449-2.259.472-3.941.095zm-4.375-5.705c-.067-.257-.127-.11-.132.326-.005.437.05.647.122.468.073-.179.077-.536.01-.794zm.182-2.598c.09-.236.046-.342-.104-.25-.144.09-.262.275-.262.412 0 .38.19.296.366-.162zm22.53 7.767c-1.095-.305-3.853-2.775-3.837-3.437.005-.217.11-.173.277.115.393.675.685.57.861-.309.092-.459.374-.842.695-.944 1.324-.42 2.32.772 1.449 1.735-.58.642-.78.64-1.438-.019l-.53-.529v.632c0 1.008.795 1.737 2.084 1.913.866.118 1.108.077.96-.162-.149-.241-.07-.251.323-.04.422.225.687.138 1.407-.463l.887-.74-1.838-1.34c-1.924-1.404-3.624-3.384-4.114-4.791-.343-.983-.584-1.041-.973-.234-.158.327-.295.467-.305.31-.01-.157.345-.834.79-1.505.768-1.16 2.724-2.6 3.472-2.555.193.012.012.144-.401.295-.691.252-.737.35-.574 1.236.405 2.188 2.226 4.505 4.404 5.604.635.32 1.066.49.958.376-.108-.114-.048-.39.133-.613.272-.336.26-.367-.069-.177-.282.162-.263.075.067-.301.255-.292.374-.63.264-.75-.109-.12.027-.137.302-.038.443.16.458.13.132-.266-.333-.403-.315-.418.183-.153.436.233.551.217.551-.077 0-.204-.086-.317-.192-.252-.106.066-.259-.052-.34-.262-.099-.259-.018-.333.248-.231.5.192.39-.448-.157-.906-.34-.285-.327-.308.097-.159.448.157.463.114.156-.462-.292-.547-.285-.599.047-.371.213.145.1.012-.25-.297-.715-.632-.481-.937.57-.746.788.143.917-.17.286-.694-.318-.264-.463-.27-.611-.03-.145.233-.464.18-1.237-.203l-1.042-.516.794-.03c.436-.015 1.37-.026 2.075-.023 1.105.004 1.255-.058 1.094-.448-.458-1.111-.423-1.345.266-1.797 1.295-.849 3.13.362 2.165 1.428-.408.451-.415.531-.055.67.484.185.541 1.256.09 1.707-.174.175-.773.317-1.33.317-1.277 0-1.426.375-.748 1.87 1.363 3.003-.128 6.797-3.253 8.28-1.25.594-3.414.766-4.793.382zm9.501-11.301c.256-.414-.151-1.083-.66-1.083-.583 0-.882.413-.68.94.163.423 1.105.523 1.34.143zm-.117-2.405c0-.348-.177-.53-.514-.53-.581 0-.921.399-.677.794.305.494 1.19.297 1.19-.264zm-8.202 12.435c0-.146.126-.265.28-.265.154 0 .206.12.116.265-.09.145-.216.265-.28.265-.064 0-.116-.12-.116-.265zm-11.357-3.33c.013-.308.076-.37.16-.16.077.192.067.42-.02.508-.089.088-.151-.069-.14-.347zm5.885-1.697c0-.946.048-1.333.107-.86a8.42 8.42 0 0 1 0 1.72c-.059.473-.107.086-.107-.86zm-5.6.264c0-.363.06-.512.134-.33.074.182.074.48 0 .661-.073.182-.133.033-.133-.33zm-15.235-4.815c-.36-.515-.363-.65-.018-1.177.241-.368.29-.656.128-.756-.454-.28-.287-1.421.25-1.709.76-.407 1.472-.334 2.158.221.585.474.592.524.171 1.166-.378.577-.385.692-.053.82.467.18.511 1.258.07 1.7-.556.555-2.247.39-2.706-.265zm2.082-.188c.256-.414-.151-1.082-.659-1.082-.583 0-.882.413-.68.939.162.423 1.104.524 1.34.143zm-.25-2.537c0-.574-.38-.747-.908-.413-.319.201-.323.31-.027.666.439.528.936.394.936-.253zm6.288 1c.402-.06.998-.059 1.323.005.325.062-.004.112-.731.11-.728-.002-.994-.053-.592-.114zm18.253 0c.4-.06 1.055-.06 1.455 0 .4.062.073.111-.728.111-.8 0-1.127-.05-.727-.11z" transform="translate(-111.238 -158.13)"/><path style="fill:#b52820;stroke-width:.26458332" d="M115.53 220.425c-.705-.494-.73-.731-.144-1.318.417-.417.417-.46 0-.694-.515-.289-.588-1.295-.127-1.757.175-.175.707-.318 1.182-.318.572 0 .953-.166 1.128-.494.146-.272.239-.541.208-.598-.032-.058.083.056.253.252.184.212.249.74.158 1.299-.15.92-.136.938.61.796.687-.132 2.23.39 2.23.752 0 .078-.12.067-.267-.023-.146-.09-.674-.017-1.173.163-.737.267-.987.262-1.333-.025-.283-.235-.513-.265-.69-.088-.176.176-.128.377.144.603.224.186.408.496.408.688 0 .422-1.016 1.173-1.588 1.173-.226 0-.676-.185-1-.412zm1.519-.503c.397-.478.142-.938-.52-.938-.274 0-.574.125-.668.276-.176.284.312 1.047.668 1.047.11 0 .344-.173.52-.385zm.142-2.39c0-.583-.823-.874-1.254-.442-.445.444-.006 1.147.657 1.053.39-.055.597-.266.597-.61zm30.877 2.722a1.058 1.058 0 0 1 .013-1.498c.265-.267.238-.386-.132-.595-1.079-.608-.212-2.087 1.222-2.087.988 0 1.49.401 1.49 1.19 0 .306-.143.699-.318.874-.247.247-.247.388 0 .635.477.476.383 1.216-.194 1.525-.687.367-1.691.346-2.081-.044zm1.743-.776c.096-.502-.712-.89-1.082-.52-.382.382.01 1.137.539 1.035.253-.049.497-.28.543-.515zm.007-2.148a.585.585 0 0 0-.349-.632c-.525-.201-1.331.52-1.064.953.279.45 1.31.216 1.413-.321zm-24.15.157c-.474-2.521-2.576-5.377-4.647-6.31-1.25-.564-1.627-.354-1.783.992-.142 1.219-.019 3.32.209 3.574a.756.756 0 0 1 .101.265c.024.109.196.475.384.814.33.593.32.603-.274.273-.338-.187-.694-.345-.791-.35-.33-.018-.575-.407-.256-.407.227 0 .244-.14.058-.487-1.144-2.137-1.23-4.937-.174-5.66.16-.11.024-.196-.312-.198-.774-.005-.751-.308.102-1.322.418-.497.852-.769 1.084-.68.213.082.742-.15 1.175-.514.434-.365.898-.678 1.033-.697.134-.018.363-.062.509-.099.145-.036.926-.08 1.735-.099.906-.02 1.408-.135 1.307-.298-.09-.145-.037-.264.117-.264.44 0 .328.79-.117.827-.437.036-.89.136-.992.218-.094.076-1.065.303-1.44.337-.173.016-.629.279-1.012.585l-.697.555 1.708 1.09c2.107 1.343 3.789 3.494 4.597 5.88l.593 1.753-.584.448c-1.066.819-1.448.766-1.634-.226zm12.756.003c-.546-.346-.993-.725-.993-.842 0-.657.95-3.274 1.61-4.437.716-1.263 2.422-3.068 3.947-4.177.425-.31.545-.526.334-.607-.18-.069-.597-.363-.926-.652l-.599-.527 1.058.125c.583.068 1.287.216 1.565.328.356.142.45.11.315-.107-.105-.17-.065-.31.09-.31.153 0 .28.18.28.398 0 .218.126.396.28.396.154 0 .196-.148.093-.33-.103-.182.307.14.91.714.603.575 1.083 1.17 1.066 1.323-.065.582.04.966.23.848.322-.198.34 2.495.027 3.928-.16.727-.512 1.691-.783 2.142-.272.45-.406.916-.299 1.035.107.118.055.134-.117.036-.181-.104-.382.044-.48.355-.183.575-.533.693-.795.268-.09-.145-.06-.264.067-.264.548 0 1.199-2.077 1.314-4.198.099-1.802.055-2.173-.233-2-.28.169-.29.133-.046-.168.56-.692-.18-1.316-1.335-1.129-2.2.357-5.079 4.136-5.43 7.129l-.158 1.353-.992-.63zm5.887.597c0-.057.184-.175.41-.262.236-.09.342-.046.25.104-.156.252-.66.372-.66.158zm-19.03-7.94c-.56-.677-.24-1.349.645-1.349.701 0 .79.09.79.794 0 .603-.133.813-.552.873-.304.043-.701-.1-.882-.318zm12.708-.635c-.195-.364-.135-.553.251-.794.692-.432 1.294-.398 1.478.084.371.966-1.239 1.627-1.73.71zm-.028-2.093c0-.151.208-.44.463-.639.428-.336.434-.323.075.166-.214.291-.422.579-.463.64-.042.06-.075-.015-.075-.167zm-18.257-.19c0-.072.238-.26.53-.415.29-.156.529-.224.529-.151 0 .073-.238.26-.53.415-.29.156-.529.224-.529.151zm6.88-.407c0-.14.178-.188.396-.104.219.084.397.2.397.256 0 .058-.178.104-.397.104-.218 0-.396-.115-.396-.256zm-8.564-2.409c-.716-.563-.972-1.896-.428-2.232.148-.091.191-.307.096-.479s.111-.04.459.292c.51.488.56.648.262.833-.457.284-.191 1.076.361 1.076.47 0 .54-.415.112-.679-.212-.13-.21-.231.008-.366.21-.13.15-.379-.2-.827-.275-.353-.6-.939-.72-1.303-.288-.865-.17-3.375.19-4.047.248-.466.213-.51-.298-.376-.678.177-.598-.219.316-1.56.544-.799 2.74-2.483 3.237-2.483.135 0-.328.363-1.028.807-1.724 1.093-1.324 1.317.57.32 1.084-.571 2.006-.837 3.183-.917 1.625-.11 1.934.207.462.473-.41.075-.995.275-1.3.444-.305.17-.614.318-.687.329-.073.01-.468.2-.878.423l-.745.403 1.48.984c.816.54 1.95 1.466 2.523 2.055 1.158 1.194 2.647 3.954 2.647 4.907 0 1.09.795.567 1.676-1.1.23-.437.424-.699.43-.582.043.847-1.626 2.726-3.064 3.451l-.825.416-.168-1.221c-.344-2.516-2.711-5.597-5.049-6.574-1.194-.5-1.17-.504-1.487.33-.59 1.552-.53 3.336.16 4.699.65 1.28.872 1.955.4 1.208-.136-.214-.34-.295-.455-.18-.115.115.069.419.409.675.577.435.588.495.175.908-.58.58-.98.557-1.824-.107zm20.455-.729c-.647-.412-1.349-.977-1.56-1.257-.302-.4-.305-.437-.013-.177.573.511.72.408.918-.645.492-2.622 3.278-6.211 5.779-7.445.686-.339 1.194-.702 1.129-.807-.065-.105-.721-.473-1.458-.819-.737-.345-1.34-.7-1.34-.79 0-.09.365-.191.812-.225.567-.043.755.032.62.249-.12.195-.077.24.116.12.437-.27 1.407.087 1.19.438-.116.188-.02.229.274.116.306-.117.393-.074.265.132-.128.207-.041.25.265.133.27-.104.388-.068.292.087-.089.144.003.261.205.261.521 0 1.422 1.032 1.9 2.178.585 1.398.495 1.863-.115.6-.426-.88-.48-.925-.324-.264.396 1.675.212 4.45-.374 5.622-.31.619-.462 1.125-.34 1.125.123 0 .155.18.07.4-.11.286-.032.353.273.236.459-.176.581-.8.186-.945-.132-.048.042-.624.388-1.279.566-1.07.614-1.107.479-.362-.087.478-.028.903.14 1.007.16.1.292.586.292 1.081 0 1.032-.644 1.533-1.8 1.4-.792-.092-.857-.527-.427-2.861.121-.655.196-1.277.167-1.382-.029-.106-.113-.782-.186-1.504-.074-.721-.25-1.613-.39-1.98-.233-.615-.32-.647-1.07-.386-2.404.839-5.126 4.769-5.148 7.434a26.93 26.93 0 0 1-.024 1.257c-.008 0-.544-.336-1.19-.748zm9.88-5.47c.002-.727.053-.993.114-.59.061.401.06.997-.004 1.322-.063.326-.112-.004-.11-.731zm-22.943-1.87c-.497-.497-.53-.952-.098-1.384.838-.838 1.976-.025 1.546 1.106-.298.786-.837.89-1.448.278zm13.117-.878c-.496-.314.07-1.352.736-1.352.61 0 .924.737.52 1.224-.345.415-.74.455-1.256.128zm-11.152-.67c0-.353-.32-1.023-.713-1.49l-.713-.847.829.429c.455.235.914.567 1.018.736.115.185.075.236-.1.128-.198-.123-.242.113-.138.753.083.512.076.932-.016.932s-.167-.289-.167-.641zm10.848-2.374c0-.057.185-.175.41-.261.236-.09.342-.046.25.104-.156.251-.66.372-.66.157zm-15.147-.335c.182-.074.48-.074.661 0 .182.073.033.133-.33.133-.364 0-.513-.06-.331-.133zm.653-1.46c-.77-.118-1.866-.454-2.437-.746-1.315-.67-1.784-.694-1.291-.067.336.429.323.434-.166.074-.823-.604-2.25-2.161-2.25-2.454 0-.145.182-.114.404.07.653.542.701.155.136-1.09-.659-1.452-.704-3.589-.095-4.459.4-.57.401-.618.018-.47-.289.11-.428.018-.43-.285-.003-.246-.084-.776-.182-1.177-.289-1.188.712-1.945 1.961-1.483l.601.223-.61.862c-.337.475-.647 1.028-.69 1.23-.187.875-.154 2.308.06 2.65.173.277.138.315-.14.148-.304-.184-.312-.15-.042.182.18.223.252.481.16.574-.092.092.02.24.248.327.233.09.373.38.319.661-.063.323.181.7.683 1.058l.78.555.898-.555c2.266-1.4 4.141-4.512 4.215-6.993.046-1.566.285-1.655 1.61-.598l.739.589-.43 1.68c-.643 2.504-1.648 4.115-3.815 6.113l-1.95 1.796.713.466c.392.257 1.147.511 1.679.565.531.054 1.006.212 1.055.351.048.14.227.174.397.077.169-.097.215-.074.102.05-.285.313-.639.325-2.25.076zm-5.217-9.742c.09-.146.037-.265-.117-.265s-.28.12-.28.265c0 .145.052.264.117.264.064 0 .19-.119.28-.264zm.422-1.221c.307-.37.287-.415-.144-.331-.275.053-.549.245-.61.427-.156.472.334.41.754-.097zm7.912 10.637c0-.05.179-.24.397-.42.229-.19.397-.216.397-.061 0 .148-.179.337-.397.42-.218.085-.397.112-.397.061zm14.817-.241c0-.343 1.01-1.1 1.478-1.109.158-.003.478-.195.71-.428.316-.316.347-.499.123-.723-.165-.166-.404-.3-.53-.3-.41 0-2.497-1.55-3.646-2.709-1.146-1.156-2.19-3.114-2.462-4.622-.126-.698-.032-.943.535-1.389.379-.298.778-.541.887-.541.11 0 .279.532.376 1.183.202 1.345 1.81 3.938 2.978 4.801 1.035.766 2.881 1.689 3.377 1.689.386 0 .563-.856.452-2.182-.02-.254.093-.433.254-.397.308.069.463-.43.575-1.856.085-1.08.386-1.177 1.011-.328.624.848.658 1.867.125 3.792-.235.849-.373 1.63-.307 1.736.211.343-.884 1.747-1.384 1.776-.443.025-1.906.833-1.906 1.053 0 .051.208.019.463-.073.254-.091.377-.071.273.044-.105.116-.462.239-.794.273-1.002.104-1.038.12-.868.395.09.146.037.265-.117.265s-.28-.12-.28-.265c0-.145-.126-.265-.28-.265-.155 0-.222.095-.151.21.071.115-.1.227-.381.248-.281.021-.511-.104-.511-.278zm-3.168-.698c-.214-.136-.32-.315-.236-.4.085-.084.304.029.488.25.382.46.309.504-.252.15zm-12.828-1.56c-.261-.824.113-1.361.95-1.361.585 0 .834.164 1.03.679.33.869.323 1.15-.016.644-.232-.346-.3-.338-.538.066-.36.61-1.228.593-1.426-.029zm12.063-.633c-.034-.697.739-1.786 1.268-1.786.302 0 1.077.752 1.077 1.044 0 .118-.188.37-.418.56-.328.273-.527.28-.923.033-.676-.422-.72-.407-.853.28-.099.511-.12.492-.15-.131zm-20.632-1.522c0-.364.06-.512.134-.33.073.181.073.479 0 .66-.074.183-.134.034-.134-.33zm-.13-2.183c.233-1.217.389-1.279.311-.122-.036.54-.158.982-.27.982-.112 0-.13-.387-.04-.86zm30.49-3.142c-.015-.2-.045-.661-.067-1.025-.033-.545-.175-.661-.81-.661-.983 0-1.203-.588-.305-.813.985-.248 2.001.488 2.001 1.448 0 .785-.768 1.77-.82 1.05zm-23.125-3.67c.09-.146.424-.257.743-.247.559.018.56.027.05.246-.728.313-.987.313-.793 0zm-3.043-.927c-1.314-.703-2.251-.86-1.977-.33.095.181-.255-.114-.778-.658-1.026-1.068-1.187-1.525-.537-1.525.372 0 .372-.056 0-.588-.68-.972-.461-5.498.266-5.498.227 0 .302.236.22.689-.068.378.014.855.182 1.058.17.204.232.37.14.37-.093 0 .007.421.222.936.273.652.294.877.07.743-.243-.146-.241-.093.007.213.18.223.25.484.154.58-.096.095-.028.174.15.174.179 0 .25.119.161.264-.344.557.893.231 1.879-.495 2.331-1.716 3.754-4.14 3.875-6.602.037-.751.116-1.366.176-1.367.391-.007 2.42 1.414 2.212 1.55-.142.092-.325.681-.406 1.309-.31 2.366-2.526 5.6-5.04 7.352l-.742.518 1.404.982 1.404.982-.926-.01c-.509-.005-1.461-.296-2.116-.647zm19.05.379-.662-.221.669.047c.686.049 2.82-1.054 3.406-1.76.278-.335.105-.502-1.13-1.086-2.041-.966-3.89-2.722-4.928-4.684-.487-.919-.994-1.714-1.129-1.767-.255-.1 1.617-2.153 1.965-2.153.11 0 .38.605.6 1.343.667 2.246 2.239 4.015 4.704 5.293 1.101.57 1.373.63 1.137.247-.089-.144.004-.198.207-.12.45.173.997-.442 1.053-1.185.023-.303.115-.55.205-.55.09 0 .154-.596.142-1.323-.012-.728.064-1.323.168-1.323.69 0 1.076 3.633.5 4.709-.304.569-.157.728.567.614.387-.061.189.432-.623 1.553-.582.803-.883 1.035-1.031.796-.163-.263-.377-.22-.964.19-1.777 1.247-3.658 1.78-4.856 1.38zm-13.44-.498c.186-.298.488-.542.671-.542.492 0 .411.152-.338.644-.656.43-.664.427-.333-.102zm11.987-.01c-.093-.15.013-.195.248-.104.459.176.543.365.162.365-.137 0-.322-.117-.41-.261zm5.422.157c0-.057.184-.175.41-.261.236-.09.342-.046.25.104-.156.251-.66.372-.66.157zm-7.22-1.682c-.058-.109-.017-.496.091-.86.184-.618.198-.605.223.199.025.83-.091 1.076-.313.661zm-11.735-.463c-.248-.647.108-1.19.781-1.19.688 0 1.516.748 1.486 1.344-.01.22-.109.156-.236-.154-.2-.485-.233-.49-.407-.066-.231.569-1.413.617-1.624.066zm12.45-.79c-.554-.845-.237-1.273.85-1.149.649.075.76.204.76.881 0 1.089-.967 1.25-1.61.267zm10.246-1.194c0-.218.102-.635.227-.926.144-.334.228-.382.228-.132 0 .218-.103.635-.228.926-.143.333-.227.382-.227.132zm-.417-4.42c-.144-.377-.113-.408.148-.148.18.179.262.393.18.474-.08.081-.229-.065-.328-.326zm-.637-1.324c-.158-.295-.215-.609-.127-.697.338-.338-.512-.96-1.107-.811-.33.083-.682.022-.779-.135-.254-.412 1.031-.831 1.971-.643.89.178.92.128.49-.813-.421-.927.086-1.476 1.363-1.476 1.336 0 1.801.56 1.212 1.459-.389.593-.392.685-.031.823.483.186.537 1.185.089 1.634-.175.175-.764.318-1.31.318-.65 0-1.077.151-1.238.439-.222.396-.274.387-.533-.098zm2.457-1.111c.256-.414-.151-1.082-.66-1.082-.582 0-.882.412-.68.938.163.424 1.105.525 1.34.144zm-.117-2.405c0-.348-.177-.53-.514-.53-.581 0-.921.399-.677.794.305.494 1.19.297 1.19-.264zm-34.343 3.122c-.391-.392-.417-1.443-.04-1.675.19-.118.184-.283-.02-.53-.876-1.055.646-2.372 2.017-1.748.658.3.896 1.432.37 1.758-.166.102-.116.316.131.564.48.48.516 1.196.082 1.63-.411.411-2.13.411-2.54 0zm1.916-.453c.256-.413-.151-1.082-.659-1.082-.583 0-.882.413-.68.939.162.423 1.104.524 1.34.143zm-.25-2.519c0-.587-.373-.769-.898-.437-.5.316-.151 1.143.435 1.03.255-.049.464-.316.464-.593z" transform="translate(-111.238 -158.13)"/><path style="fill:#312c1c;stroke-width:.26458332" d="M115.53 220.425c-.705-.494-.73-.731-.144-1.318.417-.417.417-.46 0-.694-.515-.289-.588-1.295-.127-1.757.175-.175.707-.318 1.182-.318.572 0 .953-.166 1.128-.494.146-.272.239-.541.208-.598-.032-.058.092.069.274.28.457.532.413.809-.133.833-.276.013-.33.075-.132.155.182.073.33.468.33.877 0 .798.686 1.278 1.156.808.188-.188.113-.276-.242-.281-.473-.007-.478-.03-.06-.274.329-.192.684-.15 1.258.147.44.227.8.477.8.554 0 .078-.12.067-.267-.023-.146-.09-.674-.017-1.173.163-.737.267-.987.262-1.333-.025-.283-.235-.513-.265-.69-.088-.176.176-.128.377.144.603.224.186.408.496.408.688 0 .422-1.016 1.173-1.588 1.173-.226 0-.676-.185-1-.412zm1.519-.503c.397-.478.142-.938-.52-.938-.274 0-.574.125-.668.276-.176.284.312 1.047.668 1.047.11 0 .344-.173.52-.385zm.142-2.39c0-.583-.823-.874-1.254-.442-.445.444-.006 1.147.657 1.053.39-.055.597-.266.597-.61zm30.877 2.722a1.058 1.058 0 0 1 .013-1.498c.265-.267.238-.386-.132-.595-1.079-.608-.212-2.087 1.222-2.087.988 0 1.49.401 1.49 1.19 0 .306-.143.699-.318.874-.247.247-.247.388 0 .635.477.476.383 1.216-.194 1.525-.687.367-1.691.346-2.081-.044zm1.743-.776c.096-.502-.712-.89-1.082-.52-.382.382.01 1.137.539 1.035.253-.049.497-.28.543-.515zm.007-2.148a.585.585 0 0 0-.349-.632c-.525-.201-1.331.52-1.064.953.279.45 1.31.216 1.413-.321zm-23.499.341c0-.285-.247-1.178-.548-1.983-.709-1.894-2.692-4.06-4.664-5.092-1.736-.908-3.255-1.292-3.255-.821 0 .166-.075.226-.168.134-.092-.093.026-.464.262-.825l.43-.656 1.415.486c2.125.731 2.909 1.201 4.262 2.555 1.296 1.296 2.244 2.919 2.81 4.814.254.847.446 1.098.758.989.23-.08.12.09-.244.38-.836.666-1.058.67-1.058.02zm17.992.416c0-.058.184-.175.41-.262.236-.09.342-.046.25.104-.156.251-.66.372-.66.158zm-6.37-.96c-.353-.31-.507-.497-.342-.415.185.092.419-.32.607-1.068.844-3.35 3.505-6.52 6.217-7.405 1.826-.595 1.839-.607 1.3-1.253-.261-.313-.032-.16.51.341l.986.91-1.388.433c-.764.238-1.7.602-2.081.81-2.118 1.15-4.309 4.136-4.62 6.295-.265 1.834-.427 2.02-1.188 1.352zm7.296.27c-.09-.146-.06-.265.067-.265.548 0 1.199-2.077 1.315-4.197.098-1.802.055-2.174-.234-2-.28.169-.29.133-.046-.169.477-.59-.22-1.404-1.017-1.187-.595.162-.594.154.047-.232.854-.514 1.827-.525 2.02-.021.084.217.229.348.323.29.3-.185.3 2.574-.001 3.944-.16.728-.512 1.692-.783 2.143-.272.45-.406.916-.299 1.034.107.119.055.135-.116.037-.182-.104-.383.044-.481.354-.183.575-.533.694-.795.269zm-25.704-.388c-.304-.213-.616-.324-.693-.247-.078.078-.22.014-.315-.141-.096-.156-.044-.283.115-.283.199 0 .208-.151.029-.487-.882-1.647-1.147-3.583-.684-5.003.195-.6.94-.776 1.838-.431.386.148.384.194-.027.495-.418.305-.674 1.353-.647 2.648.013.624.212 2.088.298 2.183a.756.756 0 0 1 .101.265c.024.109.192.466.374.793.389.701.347.723-.388.208zm5.749-6.863c-.562-.676-.241-1.348.644-1.348.701 0 .79.089.79.794 0 .603-.133.812-.552.872-.304.044-.701-.1-.882-.318zm12.707-.635c-.195-.363-.135-.552.251-.793.692-.432 1.294-.398 1.478.083.371.966-1.239 1.627-1.73.71zm-18.417-1.258c-.436-.214-.574-.327-.305-.251.293.082.805-.128 1.277-.525.434-.365.898-.678 1.033-.697.134-.018.363-.062.509-.099.145-.036.926-.08 1.735-.099.906-.02 1.408-.135 1.307-.298-.09-.145-.037-.264.117-.264.44 0 .328.79-.117.827-.437.036-.89.136-.992.218-.036.03-.245.091-.463.138-1.028.218-1.245.31-2.033.867-.979.692-1.02.696-2.068.183zm23.68-.376c.297-.232.314-.344.07-.443-.18-.073-.597-.37-.926-.66l-.599-.526 1.058.124c.583.069 1.287.216 1.565.328.356.143.45.111.315-.106-.105-.17-.079-.31.058-.31s.31.231.384.514c.133.51.06.559-1.792 1.204-.44.153-.463.132-.133-.125zm-5.291-.458c0-.152.208-.44.463-.64.428-.335.434-.323.075.167-.214.29-.422.579-.463.64-.042.06-.075-.015-.075-.167zm-18.257-.19c0-.073.239-.26.53-.416.29-.155.529-.223.529-.15 0 .072-.238.26-.53.415-.29.156-.529.224-.529.151zm6.88-.407c0-.141.178-.188.396-.104.219.084.397.199.397.256 0 .057-.178.104-.397.104-.218 0-.396-.115-.396-.256zm-8.564-2.409c-.716-.563-.971-1.896-.428-2.232.148-.092.191-.307.096-.479s.099-.054.431.263c.549.522.567.613.19.99-.31.31-.447.332-.547.086-.08-.2-.14-.156-.153.116-.027.564.676 1.276 1.254 1.271.352-.003.37-.051.084-.232-.305-.193-.305-.248 0-.35.296-.1.3-.196.019-.536-.24-.29-.253-.443-.047-.512.186-.062.108-.34-.212-.753-.543-.704-1.044-2.036-.968-2.574.026-.182.062-.784.08-1.338.04-1.222.58-2.054 1.183-1.823.353.136.382.297.156.89-.593 1.562-.534 3.343.158 4.708.648 1.282.87 1.955.399 1.209-.136-.214-.34-.295-.455-.18-.115.114.069.418.408.674.578.436.59.495.176.908-.58.581-.98.558-1.824-.106zm8.062-1.522c-.458-1.972-.809-2.61-2.375-4.324-1.445-1.582-3.833-2.95-5.198-2.98-.903-.02-.912-.177-.066-1.229.47-.583 2.603-2.097 2.955-2.096.16 0-.126.252-.635.557-1.911 1.148-2.52 2.088-1.35 2.088 1.026 0 3.734 1.65 5.02 3.057 1.262 1.38 2.68 3.876 2.68 4.716 0 1.105 1.524.27 2.116-1.158.185-.446.388-.759.452-.695.382.382-1.505 2.67-2.711 3.288-.498.255-.567.16-.888-1.224zm11.945.5c-.59-.427-1.162-.933-1.273-1.124-.111-.192.11-.065.49.28l.69.63.18-.762c.331-1.405 1.254-3.397 2.156-4.653.988-1.376 4.035-3.555 5.334-3.815.453-.09.823-.276.823-.414 0-.137-.244-.171-.542-.077-.357.113-1.127-.13-2.248-.71-.938-.485-1.706-.945-1.707-1.024 0-.078.365-.17.812-.204.567-.043.755.033.62.25-.12.195-.077.24.116.12.437-.27 1.407.087 1.19.437-.116.189-.02.23.274.117.306-.118.393-.075.265.132-.128.207-.041.25.265.132.27-.103.388-.068.292.088-.089.143.003.261.205.261.521 0 1.422 1.032 1.9 2.178.62 1.482.475 1.843-.161.402-.305-.691-.688-1.257-.851-1.257-.164 0-1.043.353-1.954.784-3.13 1.48-5.597 4.791-5.702 7.651-.027.743-.062 1.351-.076 1.353-.015 0-.509-.348-1.098-.775zm8.057.314c-.15-.27-.023-1.554.289-2.898.141-.611.214-1.154.162-1.206-.052-.052-.157-.704-.233-1.45-.076-.746-.263-1.681-.414-2.08-.297-.78-.021-1.152.86-1.16 1.107-.01 1.306 4.25.295 6.295-.302.61-.441 1.11-.309 1.11.134 0 .119.228-.033.511-.38.71-.349.811.25.811.631 0 1.45-1.155 1.227-1.734-.088-.229-.274-.345-.414-.258-.14.086-.178.358-.084.603.151.395.123.402-.247.058-.38-.353-.369-.485.115-1.447.695-1.383.769-1.444.575-.475-.095.475-.041.882.13.988.508.314.348 1.952-.22 2.256-.595.318-1.789.365-1.95.076zm2.271-5.49c.002-.728.053-.994.114-.592.061.402.06.997-.004 1.323-.063.325-.112-.004-.11-.731zm-22.943-1.871c-.497-.498-.53-.953-.098-1.384.838-.839 1.976-.025 1.546 1.106-.298.786-.837.889-1.448.278zm13.117-.878c-.496-.314.07-1.353.736-1.353.61 0 .924.738.52 1.225-.344.415-.74.455-1.256.128zm-11.152-.67c0-.353-.32-1.023-.713-1.49l-.713-.847.829.428c.455.236.914.567 1.018.736.115.185.075.236-.1.129-.198-.123-.242.113-.138.752.083.513.076.932-.016.932s-.167-.288-.167-.64zm-7.235-.4c-.399-.143-.423-.228-.133-.461.944-.759 2.63-1.354 4.131-1.46 1.624-.113 1.935.203.462.47-.41.075-.996.274-1.3.444-.305.17-.614.323-.687.341-.5.122-1.038.467-.95.61.144.233-.921.272-1.523.056zm18.083-1.974c0-.057.185-.175.41-.262.236-.09.343-.046.25.104-.156.252-.66.372-.66.158zm-15.147-.336c.182-.073.48-.073.661 0 .182.074.033.134-.33.134-.364 0-.513-.06-.331-.134zm.734-1.447c-1.325-.204-3.324-.968-3.302-1.262.007-.087.547-.41 1.201-.72 1.036-.489 1.134-.5.76-.086-.4.442-.382.506.28.939.39.256 1.144.509 1.676.563.531.054 1.006.212 1.055.35.048.14.227.175.397.078.169-.097.215-.075.102.05-.282.31-.639.324-2.169.088zm3.036-.338c0-.05.179-.24.397-.42.229-.19.397-.216.397-.062 0 .148-.179.338-.397.421-.218.084-.397.111-.397.061zm14.817-.241c0-.343 1.01-1.1 1.478-1.11.4-.006 1.18-.822.979-1.023-.263-.263.064-.191 1.018.223.49.213.771.394.626.403-.146.009-.562.253-.926.543-.534.425-.56.492-.132.349.29-.098.443-.084.339.032-.105.115-.462.238-.794.273-1.002.104-1.038.12-.868.395.09.145.037.264-.117.264s-.28-.119-.28-.264c0-.146-.126-.265-.28-.265-.155 0-.222.094-.151.21.071.115-.1.227-.381.248-.281.021-.511-.104-.511-.278zm-3.168-.699c-.214-.135-.32-.315-.236-.399.085-.084.304.028.488.25.382.46.309.504-.252.15zm-20.362-1.043c-.743-1.043-.694-1.403.062-.458l.606.758 1.443-.61c3.511-1.486 5.8-4.547 6.297-8.418l.173-1.348.794.66c.436.362.602.593.368.513-.336-.115-.46.106-.59 1.054-.23 1.68-1.768 4.574-3.129 5.889-1.293 1.249-3.929 2.728-4.86 2.728-.379 0-.828-.296-1.164-.768zm28.417-.013c.086-.139-.353-.39-.975-.557-1.686-.454-2.856-1.123-4.417-2.527-1.624-1.46-2.368-2.557-3.14-4.632-.414-1.108-.478-1.561-.254-1.786.445-.444.724-.365.724.206 0 1.195 1.22 3.607 2.553 5.047 1.396 1.508 4.352 3.187 5.762 3.274.566.034.58.076.216.632-.369.563-.8.878-.469.343zm-20.883-.504c-.261-.824.113-1.36.95-1.36.585 0 .834.164 1.03.678.33.87.323 1.151-.016.644-.231-.346-.3-.337-.538.067-.36.61-1.228.592-1.426-.03zm-7.512-1.325c-.69-1.607-.747-3.633-.125-4.521.4-.57.401-.618.018-.47-.289.11-.428.018-.43-.285-.002-.246-.084-.776-.181-1.177-.29-1.188.71-1.945 1.96-1.483l.601.222-.61.863c-.337.474-.647 1.028-.69 1.23-.187.875-.154 2.308.06 2.65.173.277.138.314-.14.147-.316-.19-.317-.157-.007.224.2.246.26.452.132.456-.127.005-.049.154.173.331.222.177.39.5.374.72-.016.217.276.66.65.984.746.646.605.985-.527 1.264-.626.154-.738.051-1.257-1.155zm.357-5.592c.09-.145.037-.264-.117-.264s-.28.119-.28.264c0 .146.052.265.117.265.064 0 .19-.12.28-.265zm-.005-.89c.65-.474.752-1.226.167-1.226-.589 0-1.088.51-1.088 1.11 0 .57.257.602.92.117zm19.223 7.174c-.034-.697.74-1.786 1.268-1.786.302 0 1.078.752 1.078 1.045 0 .117-.189.37-.419.56-.328.273-.527.28-.922.033-.677-.423-.721-.408-.854.28-.098.51-.12.492-.15-.132zm8.343-.72c-1.747-.558-2.276-.89-1.017-.639.806.162.842.132.882-.724.023-.492.025-1.101.003-1.355-.02-.254.093-.433.254-.397.303.067.461-.428.571-1.787.083-1.033.45-1.166 1.033-.373.606.824.636 1.857.107 3.768-.235.848-.36 1.652-.277 1.786.183.295.31.318-1.557-.279zm-28.974-.801c0-.364.06-.513.133-.331.074.182.074.48 0 .661-.073.182-.133.034-.133-.33zm-.13-2.183c.232-1.217.388-1.279.31-.122-.036.54-.157.982-.27.982-.112 0-.13-.387-.04-.86zm30.422-3.234c-.096-.25-.006-.404.234-.404.52 0 .494-.914-.04-1.45-.486-.485-1.33-.415-1.217.101.09.414-.53.249-.672-.18-.056-.167.205-.38.58-.475.985-.247 2.002.489 2.002 1.448 0 .9-.643 1.595-.887.96zm-23.058-3.58c.09-.145.424-.255.743-.245.559.018.56.027.05.246-.728.313-.987.313-.793 0zm-3.161-.969-1.309-.68.78-.327c.817-.342 1.055-.244 2.998 1.233l.631.48-.896-.013c-.492-.007-1.484-.319-2.204-.693zm19.168.423-.661-.222.661.039c.76.044 1.962-.54 3.119-1.512.696-.586.9-.636 1.553-.387.736.281.74.296.223.686-1.542 1.162-3.729 1.786-4.895 1.396zm-13.44-.499c.186-.298.488-.542.672-.542.491 0 .41.153-.339.644-.656.43-.664.428-.333-.102zm11.987-.01c-.093-.15.013-.194.249-.104.458.176.542.366.162.366-.137 0-.322-.118-.411-.262zm5.422.158c0-.057.185-.175.41-.262.236-.09.342-.046.25.104-.156.252-.66.372-.66.158zm-25.902-1.096c-.832-.948-1.094-1.47-.49-.976.613.502 3.011-.661 4.786-2.321 1.816-1.7 2.685-3.191 3.15-5.406.283-1.35.266-1.5-.21-1.86-.68-.514-.298-.514.697 0 .718.372.776.5.633 1.39-.351 2.183-1.301 4.072-2.942 5.85-1.586 1.72-3.885 3.2-4.968 3.2-.484 0-.485.018-.022.53.264.29.414.528.333.528-.08 0-.515-.42-.967-.935zm27.99-.195c.445-.568.523-.508-1.427-1.092-3.427-1.026-6.693-4.083-7.548-7.066-.166-.579-.082-.838.429-1.317.35-.329.715-.518.812-.42.098.098.039.177-.13.177-1.074 0 .812 3.79 2.726 5.477 1.378 1.216 4.442 2.702 5.601 2.718.312.004.642-.188.734-.427.092-.24.237-.365.323-.279.198.198-.817 1.858-1.428 2.337-.418.328-.426.318-.092-.108zm-9.307-.391c-.058-.11-.018-.496.09-.86.184-.618.199-.605.223.199.026.829-.09 1.076-.313.661zm-11.735-.463c-.249-.647.108-1.19.78-1.19.689 0 1.516.748 1.487 1.343-.011.22-.11.156-.237-.153-.2-.486-.233-.491-.406-.066-.232.568-1.413.616-1.624.066zm12.45-.791c-.554-.845-.238-1.272.85-1.148.648.074.76.203.76.88 0 1.09-.968 1.25-1.61.268zm-19.795-.176c-.691-.988-.483-5.515.255-5.515.227 0 .302.235.22.688-.07.379.013.855.182 1.058.169.204.231.37.139.37-.093 0 .008.422.222.936.273.653.294.878.07.743-.242-.145-.24-.093.007.213.18.223.25.484.154.58-.095.096-.06.174.079.174.138 0 .27.238.292.53.022.29-.062.529-.187.529-.124 0-.402.067-.617.15-.23.088-.566-.1-.816-.456zm28.245-.407c-.312-.06-.782-.347-1.044-.637-.369-.408-.385-.49-.07-.37.484.186 1.033-.403 1.091-1.17.023-.302.115-.55.205-.55.09 0 .154-.595.143-1.323-.023-1.389.178-1.656.621-.828.373.696.417 3.522.066 4.18-.162.3-.218.622-.126.714.173.173.07.171-.886-.016zm1.795-.61c0-.219.103-.635.228-.926.143-.334.227-.383.227-.133 0 .219-.102.635-.227.926-.144.334-.228.383-.228.133zm-.417-4.42c-.143-.378-.113-.408.148-.149.181.18.263.393.181.475-.081.081-.23-.066-.329-.327zm-11.13-.872c.09-.146.217-.265.281-.265.064 0 .117.12.117.265 0 .145-.126.265-.28.265-.155 0-.207-.12-.117-.265zm10.474-.487c-.2-.373-.21-.571-.031-.571.4 0 .334-.68-.103-1.041-.29-.241-.5-.235-.92.027-.419.262-.614.267-.857.025-.437-.438.833-.903 1.889-.692.889.178.919.128.49-.813-.422-.926.085-1.475 1.362-1.475 1.337 0 1.802.56 1.213 1.458-.39.594-.393.685-.032.824.483.185.538 1.185.089 1.634-.175.174-.764.317-1.31.317-.65 0-1.077.152-1.238.44-.22.392-.278.378-.552-.133zm2.477-1.077c.255-.413-.152-1.082-.66-1.082-.583 0-.882.413-.68.939.162.423 1.104.524 1.34.143zm-.118-2.405c0-.347-.176-.529-.513-.529-.582 0-.922.399-.678.794.305.493 1.191.296 1.191-.265zm-24.035 3.175c0-.364.06-.512.133-.33.074.181.074.479 0 .66-.073.183-.133.034-.133-.33zm-10.308-.053c-.391-.391-.416-1.442-.04-1.675.191-.118.185-.283-.02-.53-.875-1.054.646-2.372 2.017-1.747.658.3.896 1.432.37 1.758-.166.102-.116.316.132.563.48.48.515 1.197.081 1.631-.41.411-2.13.411-2.54 0zm1.917-.452c.256-.414-.152-1.082-.66-1.082-.583 0-.882.412-.68.938.162.424 1.104.525 1.34.144zm-.25-2.52c0-.586-.374-.768-.898-.437-.5.317-.152 1.144.434 1.03.255-.048.464-.315.464-.592zm10.716 2.48c0-.154.119-.206.264-.116.146.09.265.216.265.28 0 .064-.12.117-.265.117-.145 0-.264-.126-.264-.28z" transform="translate(-111.238 -158.13)"/></svg>