<svg xmlns="http://www.w3.org/2000/svg" viewBox="0 0 42.598 65.352" height="247" width="161"><path d="M98.343 88.908c-.403-.445-.438-3.053-.438-32.106 0-30.299.02-31.64.484-32.06.44-.4 2.252-.438 20.596-.438 19.149 0 20.134.023 20.55.484.403.445.438 3.053.438 32.106 0 30.299-.02 31.64-.483 32.06-.442.4-2.253.438-20.597.438-19.149 0-20.133-.023-20.55-.484z" style="fill:#fff;fill-opacity:1;stroke-width:.26458332" transform="translate(13.99 -76.698)"/><path style="fill:#fff;fill-opacity:1;stroke-width:.26573646" d="M-14.618 253.285c-.406-.445-.442-3.053-.442-32.106 0-30.299.02-31.64.488-32.06.445-.4 2.273-.438 20.777-.438 19.316 0 20.31.023 20.73.484.405.445.441 3.053.441 32.106 0 30.299-.02 31.64-.488 32.06-.445.4-2.272.438-20.776.438-19.316 0-20.31-.023-20.73-.484z" transform="translate(15.06 -188.417)"/><path style="fill:#b2b2af;stroke-width:.26458332" d="M170.208 248.75c-.402-.445-.438-3.063-.438-32.239 0-30.427.02-31.773.484-32.192.442-.4 2.271-.438 20.861-.438 19.405 0 20.398.023 20.815.484.403.444.438 3.062.438 32.238 0 30.427-.02 31.773-.483 32.192-.442.4-2.272.438-20.862.438-19.405 0-20.398-.023-20.815-.484zm41.412-.22c.464-.419.484-1.756.484-31.927 0-28.93-.036-31.529-.438-31.974-.417-.46-1.402-.483-20.55-.483-18.344 0-20.156.038-20.597.437-.464.42-.484 1.757-.484 31.928 0 28.93.036 31.53.438 31.974.417.46 1.402.484 20.55.484 18.344 0 20.156-.039 20.597-.438zm-39.03-1.633c-.402-.444-.438-2.933-.438-30.386 0-28.633.02-29.92.484-30.34.44-.398 2.105-.438 18.48-.438 17.098 0 18.017.024 18.433.484.402.444.438 2.941.438 30.506 0 22.999-.074 30.097-.317 30.34-.241.241-4.707.318-18.48.318-17.26 0-18.184-.024-18.6-.484zm36.815-.098c.46-.461.46-60.023 0-60.484-.46-.459-36.212-.459-36.671 0-.461.461-.461 60.023 0 60.484.459.46 36.212.46 36.671 0zm-35.78-.627c-.496-.498-.529-.953-.097-1.384.246-.247.246-.388 0-.635-.833-.832-.042-2.328 1.23-2.328 1.44 0 2.453 1.45 1.604 2.298-.207.207-.207.338 0 .466.475.293.328 1.429-.224 1.724-.757.405-2.038.333-2.512-.141zm1.89-.809c.141-.426-.766-.712-1.01-.319-.11.18-.139.429-.062.553.188.304.948.138 1.071-.234zm.076-2.22c0-.345-.867-.557-1.144-.28-.42.42.323 1.166.783.785.198-.165.361-.392.361-.504zm30.757 2.874c-.407-.407-.425-1.08-.04-1.465.209-.21.166-.477-.156-.968-.429-.655-.42-.702.228-1.351.767-.767 1.637-.859 2.49-.26.623.436.779 1.407.302 1.884-.206.206-.188.445.064.848.544.87.01 1.47-1.394 1.563-.677.046-1.303-.06-1.494-.251zm1.873-.662c.096-.096.04-.335-.123-.533-.224-.269-.387-.284-.657-.06-.197.164-.293.403-.213.532.17.275.743.31.993.06zm.046-2.23c0-.206-.268-.412-.595-.459-.642-.09-.86.596-.265.834.5.2.86.044.86-.374zm-17.598.012c-.33-.997-.405-1.058-1.132-.898-.429.094-.73.069-.668-.056.062-.124.327-.702.591-1.284.264-.582.704-1.375.978-1.76.606-.853.618-1.183.08-2.209-.352-.673-.368-1.02-.103-2.274.172-.814.26-1.707.195-1.984-.1-.426-.14-.401-.266.157a918.17 918.17 0 0 1-.902 3.9l-.754 3.237-.794.012c-.436.007-1.024.186-1.307.4-1.14.862-.914.312.332-.808 1.571-1.413 2.3-2.799 2.845-5.418.389-1.865.385-1.93-.14-2.298-.591-.415-.723-1.627-.268-2.477.432-.806 1.583-8.677 1.547-10.57l-.033-1.72-.224 1.72c-.123.945-.525 2.722-.892 3.948-.368 1.227-.669 2.506-.669 2.845 0 .462-.149.614-.6.614-.33 0-1.03.292-1.554.648-1.396.95-2.118 1.062-2.895.45-.896-.705-1.47-.785-1.882-.264-.598.755-1.388.814-2.212.166-.417-.329-.972-.561-1.232-.517-.275.046-.473-.082-.473-.308 0-.213-.353-.51-.784-.66-.87-.304-1.235-1.193-.953-2.318.095-.378.042-.843-.116-1.035-.2-.24-.204-.4-.012-.52.153-.094.28-.55.282-1.015.002-.464.091-.969.198-1.12.353-.502 2.173-1.43 2.534-1.291.195.074.506-.048.693-.273.432-.52 1.442-.527 1.957-.012.218.218.572.397.787.397.215 0 .818.379 1.342.842.708.627.951 1.053.951 1.667 0 .453.143.967.317 1.14.245.246.207.397-.173.675-.338.247-.395.415-.184.546.4.247.392 1.551-.013 1.956-.174.174-.54.317-.811.317-.383 0-.475.164-.41.728.073.636.212.738 1.104.811.918.076 1.141-.042 2.215-1.162 1.409-1.47 2.326-3.348 2.855-5.844.517-2.441.492-3.074-.137-3.467-.697-.435-.678-1.515.036-2.015.564-.395.565-.404.126-2.8-.882-4.824-2.46-7.417-4.514-7.417-.536 0-1.205.123-1.486.274-.58.31-.7 1.313-.156 1.313.628 0 1.231.94 1.231 1.917 0 .524.149 1 .331 1.06.264.09.264.193-.001.514-.197.24-.267.723-.173 1.195.13.65.03.894-.564 1.36-.397.313-.945.569-1.216.569-.272 0-.493.186-.493.414 0 .284-.156.366-.492.259a.802.802 0 0 0-.826.247c-.43.517-1.695.52-2.122.006-.181-.218-.553-.397-.826-.397-.273 0-.497-.125-.497-.278 0-.154-.358-.404-.795-.556-.857-.299-1.227-1.125-.927-2.07.104-.328.032-.739-.174-.988-.283-.343-.286-.45-.015-.541.233-.078.286-.394.17-1.011-.151-.805-.084-.946.652-1.365.452-.257.822-.616.823-.798 0-.182.25-.33.555-.33.305 0 .856-.239 1.226-.53.85-.669 1.41-.669 2.128 0 .697.65.818.65 1.649 0 .872-.682 2.541-.683 3.572-.003 1.343.888 1.572 1.019 2.02 1.155.322.098.518.729.764 2.466.182 1.284.483 3.169.668 4.187l.336 1.852.024-1.444c.035-2.1-.72-7.75-1.358-10.175l-.552-2.094.593-.48c.698-.566.64-1.126-.441-4.191-.869-2.465-2.496-4.248-4.293-4.704-.643-.163-1.266-.237-1.383-.164-.403.249-.216.63.308.63.797 0 1.394 1.105 1.19 2.197-.109.577-.06.987.128 1.104.222.137.212.294-.036.593-.185.223-.303.732-.26 1.131.086.826-.538 1.59-1.3 1.59-.28 0-.51.149-.51.33-.001.34-1.938 1.258-2.655 1.258-.221 0-.696-.207-1.056-.459-.36-.252-.862-.423-1.117-.38-.28.047-.463-.088-.463-.342 0-.231-.29-.53-.645-.665-.8-.304-1.228-1.06-1.03-1.817.082-.316-.002-.757-.188-.98-.246-.297-.258-.486-.045-.699.16-.16.226-.62.146-1.02-.105-.525.012-.885.421-1.293.312-.312.69-.491.84-.398.15.092.337-.082.417-.387.08-.306.321-.556.536-.556.215 0 .693-.238 1.063-.53.851-.669 1.412-.667 2.269.007.535.42.904.499 1.732.366.82-.13 1.386-.015 2.562.524.831.38 1.775.691 2.097.691.627 0 .723.248 2.168 5.556.337 1.237.526 1.714.421 1.059-.197-1.227-.206-2.597-.032-4.895.104-1.377.05-1.486-1.595-3.184-.718-.742-.655-.92.351-.998.443-.034.82-.29 1.023-.693.473-.942.924-.958 1.444-.053.279.487.715.835 1.104.882.71.085 1.105.739.448.739-.227 0-.597.357-.823.793-.226.437-.52.794-.656.794-.474 0-.597 1.813-.203 2.972.215.629.303 1.372.197 1.662-.105.29-.274 1.091-.376 1.782-.14.955-.101 1.257.162 1.257.232 0 .374-.461.429-1.389.045-.764.19-1.865.324-2.447.133-.582.245-1.684.249-2.448.006-1.26.061-1.39.602-1.393.327-.002 1.071-.296 1.653-.652 1.766-1.079 2.326-1.248 3.705-1.114.953.092 1.45.015 1.777-.275.62-.548 1.698-.506 2.36.094.303.273.775.459 1.05.413.279-.046.502.072.503.265 0 .19.367.555.814.81.673.382.803.61.755 1.323-.031.473.037 1.08.15 1.35.131.308.085.566-.123.694-.2.124-.261.427-.153.767.285.9-.104 1.64-1.073 2.046-.496.206-.901.506-.901.665 0 .16-.181.22-.403.135-.222-.085-.638.08-.926.368-.716.717-1.699.662-2.32-.129-.283-.359-.6-.567-.703-.463-.104.104-.329-.002-.5-.235-.17-.234-.584-.512-.92-.618-.846-.269-1.253-1.234-.843-2 .25-.468.25-.64-.006-.798-.204-.126-.24-.337-.097-.562.126-.198.23-.77.232-1.272.002-.73.174-1.028.861-1.494.673-.456.768-.616.442-.741-1.394-.535-3.635.71-4.772 2.65-1.215 2.073-1.896 6.55-1.046 6.876.604.231.67.752.284 2.26-.407 1.597-.813 5.106-1.067 9.22-.276 4.473.077 3.133.977-3.704.294-2.233.303-2.254 1.384-2.942 2.281-1.454 3.341-1.6 5.388-.742.8.335.89.32 1.272-.226.522-.746 1.719-.773 2.37-.055.298.33.666.475.966.38.332-.106.485-.021.485.267 0 .231.29.531.645.666.978.372 1.19 1.038 1.05 3.303-.147 2.404-.42 3.053-1.28 3.053-.342 0-.692.179-.775.397-.084.219-.32.397-.525.397-.205 0-.521.179-.702.397-.426.513-1.314.506-2.059-.015-.323-.227-.694-.347-.822-.268-.13.08-.37-.018-.535-.217-.165-.2-.645-.431-1.067-.516-1.048-.21-1.177-.792-1.003-4.54.056-1.208.136-1.358.916-1.72.47-.218.855-.456.856-.53.006-.512-.65-.883-1.748-.987-1.012-.097-1.428-.01-1.958.408-1.444 1.14-2.669 4.316-3.124 8.1l-.214 1.774.765.395c.601.31.747.548.682 1.108-.052.45-.312.81-.709.977-.609.257-.622.328-.464 2.513.285 3.93 1.26 6.483 2.907 7.612 1.045.716 2.312.762 2.905.107.543-.6.555-.84.041-.84-.218 0-.648-.251-.956-.558-.422-.422-.524-.771-.418-1.424.079-.487.008-.998-.162-1.168-.227-.227-.222-.432.022-.821a2.53 2.53 0 0 0 .324-1.134c0-.779.982-1.86 1.506-1.658.246.094.444-.038.526-.35.075-.29.372-.507.703-.515.314-.008.968-.096 1.452-.195 1.033-.211 2.867.541 3.106 1.275.083.255.314.463.514.463s.453.145.562.321c.356.577.578 2.712.315 3.036-.165.203-.147.514.051.884.46.86.117 1.75-.796 2.069-.438.152-.796.402-.796.555 0 .154-.283.279-.629.279-.346 0-.777.178-.958.397-.437.527-1.46.502-2.408-.058-.678-.4-.87-.411-1.628-.09-1.327.565-2.46.413-3.695-.495-.608-.447-1.32-.812-1.582-.812-.372 0-.477-.212-.477-.966 0-.531-.172-1.87-.382-2.977a55.89 55.89 0 0 1-.551-3.554c-.33-3.014-.404-1.241-.123 2.898.276 4.052.816 8.223 1.184 9.142.11.275-.02.641-.345.966-.5.5-.506.612-.143 2.534.832 4.404 2.665 6.773 5.242 6.773 1.045 0 1.326-.635.41-.926-.739-.234-1.125-1.078-.92-2.01.108-.494.045-.944-.169-1.201-.284-.343-.265-.454.11-.664.26-.146.45-.572.45-1.014 0-.87.601-1.593 1.324-1.593.27 0 .558-.209.64-.463.087-.278.438-.48.877-.504a8.742 8.742 0 0 0 1.432-.224c.525-.137.841-.045 1.251.365.306.306.728.48.952.395.239-.092.404-.008.405.204 0 .198.345.554.765.793.641.365.781.639.879 1.72.063.707.022 1.411-.093 1.564-.114.153-.143.528-.063.833.207.79-.344 1.664-1.246 1.978-.425.148-.773.433-.773.632 0 .21-.163.3-.39.214-.213-.082-.706.1-1.093.405-.889.7-1.533.703-2.176.013-.46-.494-.614-.514-1.73-.233-1.116.28-1.348.25-2.614-.354-.765-.365-1.717-.738-2.117-.83-.522-.12-.73-.335-.737-.758-.005-.325-.353-2.079-.775-3.898-.552-2.388-.77-3.013-.784-2.247-.01.583.098 1.468.24 1.968.204.708.175 1.004-.131 1.342-.508.56-.505 2.13.004 2.789.375.486 1.455 2.681 1.455 2.96 0 .07-.243.065-.54-.012-.435-.114-.621.06-.955.895-.228.57-.502 1.036-.608 1.036-.107 0-.353-.48-.547-1.069zm-11.266-2.239c-.382-.382-.86-.631-1.063-.554-.209.08-.367-.023-.367-.24 0-.21-.35-.563-.775-.783-.854-.441-1.204-1.18-.945-1.994.092-.291.048-.53-.098-.53-.245 0-.198-1.001.119-2.575.072-.357.382-.657.783-.758.365-.091.824-.396 1.02-.676.197-.281.462-.479.59-.44.127.038.574-.16.992-.438.718-.48.804-.484 1.526-.069.42.241.941.371 1.157.288.216-.083.393-.022.393.136 0 .157.387.484.86.726 1.087.557 1.248.81 1.253 1.968.002.516.153 1.09.334 1.273.265.268.246.382-.096.576-.293.165-.385.467-.291.958.112.588-.043.868-.866 1.559-1.194 1.002-1.054 1.433.475 1.464 1.047.022 1.067.036.346.251-.503.15-1.105.11-1.766-.117-.804-.277-1.074-.28-1.354-.015-.757.715-1.505.712-2.227-.01zm-6.193-50.138c-.635-.634-.646-.773-.13-1.511.254-.361.302-.631.133-.736-.368-.228-.337-1.282.05-1.669.456-.455 2.216-.391 2.706.099.495.494.498.524.127 1.217-.21.39-.21.62 0 .83.48.48.326 1.45-.299 1.887-.81.568-1.954.516-2.587-.117zm1.852-.523c.347-.22.34-.31-.064-.713-.536-.536-1.174-.143-.905.557.182.475.407.511.97.156zm0-2.535c0-.45-.682-.512-.944-.087-.2.322.395.808.733.599.116-.072.211-.302.211-.512zm31.015 2.91c-.682-.477-.763-1.23-.184-1.71.36-.299.356-.386-.035-.819-.408-.45-.408-.53 0-1.153.34-.519.66-.668 1.436-.668.55 0 1.143.143 1.317.318.391.39.414 1.332.042 1.704-.191.192-.15.38.132.615.93.771.01 2.126-1.444 2.126-.372 0-.94-.186-1.264-.412zm1.793-.882c0-.558-.685-.947-.94-.533-.25.403.078 1.034.535 1.034.223 0 .405-.225.405-.5zm-.118-1.903c.273-.441-.34-.947-.705-.582-.305.305-.114.87.294.87.129 0 .314-.13.411-.288z" transform="translate(-169.77 -183.881)"/><path style="fill:#f2d609;stroke-width:.26458332" d="M174.07 246.314c-.652-.262-.842-1.448-.265-1.65.243-.085.207-.256-.132-.639-.963-1.086-.392-1.936 1.3-1.936 1.42 0 1.96.718 1.301 1.724-.253.388-.312.692-.15.792.453.28.286 1.42-.25 1.708-.606.324-1 .325-1.804.001zm1.47-.984c-.048-.254-.323-.463-.61-.463s-.562.209-.611.463c-.067.347.086.464.61.464.525 0 .679-.117.612-.464zm-.081-2.054c0-.343-.206-.554-.595-.61-.439-.062-.596.048-.596.42 0 .276.084.586.186.688.35.351 1.005.027 1.005-.498zm31.287 2.76c-.527-.306-.608-1.05-.163-1.495.225-.225.191-.41-.132-.734-.504-.504-.533-.77-.159-1.47.346-.646 2.138-.708 2.75-.096.515.514.516.646.016 1.36-.253.36-.301.63-.132.736.147.09.267.451.267.801 0 1.005-1.388 1.515-2.447.899zm1.597-1c-.045-.235-.29-.467-.543-.516-.564-.109-.935.714-.455 1.011.494.305 1.095.007.998-.495zm.007-1.958c.114-.59-.63-.884-1.147-.454-.308.256-.328.413-.087.702.402.485 1.121.34 1.234-.248zm-17.553-.068c-.41-.83-.648-1.035-1.121-.968l-.6.085.462-1.01c.253-.557.672-1.296.93-1.643.552-.742.613-2.114.125-2.782-.284-.388-.278-.802.034-2.354.29-1.44.304-1.908.062-1.989-.174-.058-.632-.377-1.018-.709l-.701-.603.466-1.478c.613-1.945 1.42-6.876 1.636-9.988l.172-2.485-.88-.397c-.485-.218-.918-.594-.963-.835-.09-.493.963-1.605 1.314-1.388.124.077.302-.057.394-.298.225-.586-.616-7.863-1.251-10.828-.644-3.001-.643-3.01.183-3.218.672-.169.686-.215.51-1.659-.1-.817-.154-1.902-.12-2.411.192-2.834.087-3.566-.678-4.697-.419-.618-.86-1.124-.98-1.124-.119 0-.217-.12-.217-.265 0-.145.33-.264.731-.264.505 0 .812-.185.992-.595.345-.785.96-.757 1.368.063.181.363.482.672.67.688 1.33.11 1.415.14.94.327-.252.1-.861.808-1.354 1.572-.848 1.316-.882 1.458-.63 2.644.295 1.394.298 1.661.044 3.817l-.178 1.505.992.414c.921.385.98.476.834 1.274-.087.472-.338 1.811-.558 2.975-.493 2.61-.877 10.342-.502 10.11.377-.232 1.943.79 1.943 1.267 0 .448-1.555 1.507-1.9 1.294-.506-.313-.03 7.675.71 11.906.38 2.173.378 2.389-.028 2.838-.242.267-.544.422-.671.343-.438-.27-.548.69-.263 2.305.235 1.334.216 1.717-.104 2.175-.481.687-.508 2.132-.048 2.602.189.192.656.915 1.04 1.607.696 1.254.696 1.256.12 1.258-.415 0-.689.275-.981.986l-.406.985-.52-1.052zm9.653-1.738c-.22-.411-.457-.512-.928-.393-.478.12-.597.066-.488-.218.09-.235-.137-.512-.603-.738-.654-.317-.747-.509-.747-1.545 0-.651-.11-1.355-.245-1.565-.161-.251-.139-.416.066-.485.172-.057.312-.45.312-.875 0-.817.798-1.83 1.442-1.83.21 0 .479-.167.595-.372.118-.206.864-.452 1.68-.553 1.178-.145 1.54-.098 1.82.24.191.23.516.42.721.42.205 0 .441.179.525.397.084.218.312.397.506.397.808 0 1.155 1.072 1.02 3.149-.104 1.605-.24 2.103-.677 2.473-.301.255-.713.463-.915.463-.202 0-.367.179-.367.397 0 .242-.247.397-.63.397-.345 0-.777.179-.958.397-.495.596-1.776.503-2.129-.156zm-21.136-.619c-.332-.353-.77-.578-.972-.5-.223.085-.369-.03-.369-.29 0-.238-.286-.541-.636-.674-.871-.332-.922-.461-1.051-2.685-.13-2.247.045-2.718 1.152-3.104.44-.154.8-.404.8-.557 0-.153.223-.279.496-.279.274 0 .645-.178.826-.397.373-.448 1.472-.533 1.72-.132.09.146.454.265.81.265.355 0 .645.117.645.26 0 .144.406.431.901.638.962.402 1.359 1.146 1.08 2.025-.096.3-.023.722.163.946.26.313.264.449.017.602-.175.108-.298.426-.272.707.1 1.078-.063 1.436-.83 1.833-.489.253-.794.618-.794.95 0 .42-.118.504-.526.374-.302-.096-.779.01-1.118.247-.822.576-1.34.518-2.042-.229zm14.849-.605c-.685-.13-.745-.252-.936-1.907l-.135-1.17.664 1.17c.364.644.85 1.379 1.08 1.633.23.255.31.447.177.427-.131-.02-.514-.088-.85-.153zm-6.445-1.016c.388-.456.86-1.057 1.05-1.334.316-.464.332-.466.198-.019-.08.267-.145.82-.145 1.228 0 .649-.115.757-.905.849l-.904.105.706-.83zm12.92-11.529c-.268-.156-.893-.235-1.39-.177-.6.07-.813.017-.637-.16.463-.463.303-1.216-.259-1.216-.734 0-1.395-1.1-1.18-1.96.098-.389.044-.85-.123-1.051-.224-.271-.2-.44.103-.69.22-.183.4-.711.4-1.174 0-.994.406-1.475 1.244-1.475.364 0 .608-.16.608-.397 0-.218.2-.397.444-.397.245 0 .822-.137 1.284-.304.686-.248.999-.224 1.713.133.48.24 1.034.436 1.23.436.196 0 .356.175.356.39 0 .215.298.586.662.825.476.312.661.669.661 1.276 0 .463.138.98.307 1.149.227.227.23.398.009.665-.174.209-.232.763-.14 1.331.177 1.092-.21 1.772-1.01 1.772-.278 0-.573.178-.657.397-.084.218-.43.397-.77.397s-.691.119-.781.264c-.214.346-1.455.326-2.074-.034zm-20.788-.529c-.323-.347-.692-.499-.96-.396-.29.111-.479.006-.562-.311-.069-.264-.48-.613-.915-.777-.743-.28-.787-.377-.732-1.591.033-.712-.03-1.44-.14-1.617-.111-.178-.081-.468.065-.644.146-.177.305-.725.353-1.219.088-.898.191-.998 1.675-1.62.437-.182 1.17-.515 1.63-.738.76-.37.895-.367 1.511.037.373.244.8.443.951.443.15 0 .512.209.803.463l1.082.95c.38.335.504.673.399 1.094-.095.376-.001.733.245.938.35.29.344.368-.059.662-.39.286-.408.436-.127 1.054.452.99.16 1.71-.767 1.895-.507.101-.773.316-.773.626 0 .333-.147.432-.504.339-.3-.078-.73.093-1.059.422-.707.707-1.451.704-2.116-.01zm8.313-1.818c.535-.8.99-1.475 1.014-1.5.022-.024 0 .482-.052 1.125-.08 1-.177 1.169-.675 1.169-.32 0-.734.149-.92.33-.186.182.099-.324.633-1.124zm5.503.874c-.482-.094-.576-.288-.564-1.168.008-.58.046-1.019.083-.976.127.146 1.204 2.329 1.131 2.292a6.333 6.333 0 0 0-.65-.148zm-13.903-12.507c-.364-.286-.746-.435-.85-.331-.105.104-.33.01-.5-.21-.17-.22-.641-.547-1.048-.728-.661-.292-.734-.448-.68-1.467.032-.627-.03-1.282-.136-1.456a.662.662 0 0 1 .002-.633c.108-.175.204-.681.214-1.125.012-.573.19-.881.614-1.068.33-.144.667-.478.75-.742.084-.264.292-.432.461-.373.17.06.592-.113.94-.382.772-.6 1.961-.635 2.429-.071.19.23.6.37.908.31.43-.082.558.022.545.442-.01.375.174.576.58.634.723.103 1.215.932.985 1.658-.093.292-.021.71.159.927.234.282.247.477.044.68-.157.157-.223.667-.147 1.133.163 1.008-.42 1.735-1.39 1.735-.396 0-.644.153-.644.397 0 .233-.246.4-.595.405-.327.005-.826.183-1.109.397-.659.498-.74.491-1.532-.132zm21.493-.646c-.86-.466-1.832-.874-2.595-1.088-.849-.239-1.051-.985-.927-3.422.114-2.233.354-2.79 1.204-2.79.415 0 .501-.136.405-.64-.108-.568-.056-.614.47-.414.461.176.722.084 1.195-.42.735-.781 1.424-.82 2.03-.114.248.291.723.53 1.055.53.331 0 .603.148.604.33 0 .182.373.542.827.8.75.428.811.56.669 1.44-.087.532-.036 1.114.111 1.292.183.22.18.379-.009.495-.152.094-.277.617-.277 1.161 0 1.085-.372 1.625-1.12 1.625-.266 0-.553.179-.636.397-.084.218-.364.397-.621.397-.258 0-.617.179-.798.397-.402.485-.729.49-1.588.024zm-11.644-3.486c-.001-.279-.302-1.15-.667-1.934-.366-.786-.633-1.456-.593-1.49.04-.036.321.03.627.146.452.172.587.517.728 1.865.095.91.113 1.715.04 1.788-.073.073-.134-.096-.135-.375zm3.454-2.16c-.009-1.227.081-1.654.349-1.654.199 0 .703-.268 1.12-.595l.758-.596-.622 1.01c-.343.554-.84 1.566-1.108 2.248l-.484 1.24zm-13.158-7.496c-.307-.114-.637-.334-.733-.49-.097-.155-.466-.283-.821-.283-.387 0-.646-.153-.646-.382 0-.21-.327-.54-.728-.732-.601-.289-.729-.523-.735-1.352-.005-.552-.167-1.1-.36-1.22-.245-.151-.262-.27-.057-.397.16-.1.292-.627.292-1.171 0-1.092.373-1.625 1.137-1.625.278 0 .562-.235.639-.53.076-.29.348-.528.604-.528s.614-.179.795-.397c.467-.562 1.684-.492 2.246.128.338.374.664.477 1.133.36.486-.122.628-.071.54.193-.07.207.224.53.693.765.723.361.814.537.825 1.6.007.658.098 1.334.203 1.504.104.17.063.386-.092.482-.154.096-.262.372-.238.614.128 1.306-.037 1.665-.944 2.044-.51.213-.926.504-.926.648 0 .143-.231.26-.513.26-.283 0-.579.106-.658.233-.226.366-1.044.502-1.656.276zm20.45-.65c-.234-.234-.425-.536-.425-.67 0-.136-.225-.247-.5-.247-.276 0-.57-.178-.654-.396-.084-.219-.37-.397-.637-.397-.96 0-1.52-1.345-.844-2.022.192-.192.15-.38-.135-.617-.371-.308-.37-.37.004-.645.331-.242.36-.45.14-1.028-.228-.601-.186-.814.249-1.25.288-.288.703-.524.921-.524.219 0 .397-.192.397-.427 0-.294.162-.386.514-.294.306.08.698-.068.967-.366.595-.657 1.559-.635 2.244.05.302.302.719.484.926.405.216-.083.376.015.376.23 0 .205.328.53.728.72.584.28.744.555.813 1.4.048.58.198 1.188.334 1.353.16.192.122.404-.107.593-.211.176-.307.618-.237 1.096.132.901-.304 1.59-1.006 1.59-.257 0-.537.179-.62.397-.084.219-.355.397-.603.397s-.639.165-.868.366c-.72.63-1.519.745-1.978.286zm-12.34-5.51-.934-1.36.692-.026c.625-.023.719.105.972 1.323.154.742.263 1.366.242 1.386-.02.02-.458-.575-.971-1.323zm4.622 1.066c.082-.266.15-.865.15-1.33 0-.703.138-.9.813-1.155l.815-.307-.47.712c-.259.392-.692 1.13-.963 1.639-.271.51-.426.708-.345.441zm-19.377-3.934a1.033 1.033 0 0 1 .086-1.54c.362-.3.362-.381 0-.78-.526-.582-.509-.889.08-1.422 1.247-1.129 3.552.183 2.38 1.355-.238.238-.207.425.133.801.552.61.558.957.027 1.488-.49.49-2.25.554-2.706.098zm2.014-.81c.114-.59-.63-.884-1.148-.454-.308.255-.327.413-.087.702.403.485 1.122.34 1.235-.249zm-.067-1.808c.099-.16.016-.453-.183-.652-.459-.459-1.163-.07-.938.518.186.485.855.565 1.121.134zm31.34 2.594c-.814-.411-.982-1.131-.411-1.762.385-.425.387-.494.023-.633-.634-.244-.482-1.172.274-1.667 1.273-.834 3.091.393 2.14 1.445-.408.45-.415.53-.056.669.24.092.409.477.409.933 0 .632-.154.83-.833 1.066-.459.16-.846.289-.86.287a17.941 17.941 0 0 1-.686-.338zm1.468-.742c.099-.16-.013-.483-.249-.718-.394-.395-.461-.395-.856 0-.235.235-.347.559-.249.718.232.375 1.123.375 1.354 0zm-.015-2.352c0-.471-.873-.692-1.249-.316-.146.146-.182.402-.08.569.264.425 1.329.222 1.329-.253z" transform="translate(-169.77 -183.881)"/><path style="fill:#a99c1c;stroke-width:.26458332" d="M174.07 246.314c-.652-.262-.842-1.448-.265-1.65.243-.085.207-.256-.132-.639-.963-1.086-.392-1.936 1.3-1.936 1.42 0 1.96.718 1.301 1.724-.253.388-.312.692-.15.792.453.28.286 1.42-.25 1.708-.606.324-1 .325-1.804.001zm1.47-.984c-.048-.254-.323-.463-.61-.463s-.562.209-.611.463c-.067.347.086.464.61.464.525 0 .679-.117.612-.464zm-.081-2.054c0-.343-.206-.554-.595-.61-.439-.062-.596.048-.596.42 0 .276.084.586.186.688.35.351 1.005.027 1.005-.498zm31.287 2.76c-.527-.306-.608-1.05-.163-1.495.225-.225.191-.41-.132-.734-.504-.504-.533-.77-.159-1.47.346-.646 2.138-.708 2.75-.096.515.514.516.646.016 1.36-.253.36-.301.63-.132.736.147.09.267.451.267.801 0 1.005-1.388 1.515-2.447.899zm1.597-1c-.045-.235-.29-.467-.543-.516-.564-.109-.935.714-.455 1.011.494.305 1.095.007.998-.495zm.007-1.958c.114-.59-.63-.884-1.147-.454-.308.256-.328.413-.087.702.402.485 1.121.34 1.234-.248zm-17.591-.145c-.298-.601-.619-1.038-.713-.97-.094.067-.051-.02.096-.193.347-.41.348-1.615.002-1.4-.424.262-.307-.128.252-.839.45-.573.515-1.074.506-3.933-.009-2.906-.064-3.294-.482-3.427-.259-.082-.686-.387-.95-.678-.456-.504-.457-.593-.023-1.97.603-1.914 1.411-6.863 1.625-9.952l.172-2.485-.881-.397c-.484-.218-.917-.594-.962-.835-.09-.493.963-1.605 1.314-1.388.124.077.302-.057.394-.298.225-.586-.616-7.863-1.251-10.828-.644-3.001-.643-3.01.183-3.218.659-.166.686-.241.573-1.604-.074-.888-.029-1.301.118-1.089.146.21.163-.016.045-.583-.106-.51-.174-1.581-.15-2.382.023-.8-.105-1.707-.286-2.016-1.214-2.067-1.344-2.355-.893-1.98.488.404.86.242.559-.244-.105-.17-.474-.253-.82-.187-.347.066-.63.018-.63-.107 0-.126.356-.228.793-.228.498 0 .794-.136.794-.365 0-.2.184-.517.41-.705.628-.52 1.263.272 1.278 1.597l.013 1.082.49-.606.49-.606-.297.604c-.163.333-.573 1.013-.911 1.511-.553.814-.588 1.035-.347 2.174.298 1.41.301 1.667.044 3.862-.164 1.398-.132 1.55.352 1.677.384.1.493.29.391.681-.101.388-.036.504.23.407.203-.074.332-.298.285-.498-.066-.285-.014-.294.24-.045.255.251.231.753-.115 2.38-.804 3.773-1.332 11.978-.749 11.618.345-.213 1.9.846 1.9 1.293 0 .448-1.555 1.507-1.9 1.294-.507-.314-.03 7.677.712 11.918.404 2.309.401 2.377-.125 2.903l-.54.54v-.97c0-.533-.116-1.041-.258-1.129-.324-.2-.313 2.679.016 4.453.186 1.001.152 1.404-.156 1.845-.486.693-.515 2.137-.053 2.61.571.583 1.817 2.962 1.347 2.572a2.678 2.678 0 0 1-.644-.891c-.193-.478-.22-.457-.235.19-.01.412.127.729.314.73.206.004.23.079.066.2-.146.106-.451.6-.679 1.096l-.414.903-.54-1.094zm.179-11.868c0-.534-.09-.88-.199-.772-.109.11-.198.546-.198.97 0 .425.089.772.198.772.11 0 .199-.436.199-.97zm1.852.029c0-.21-.12-.382-.265-.382-.145 0-.265.245-.265.545 0 .3.12.471.265.381.146-.09.265-.335.265-.544zm-1.148-30.61c-.073-.182-.133-.033-.133.33 0 .364.06.513.133.331.073-.182.073-.48 0-.661zm8.955 41.08c-.093-.15.013-.195.249-.105.458.176.542.366.161.366-.137 0-.321-.118-.41-.262zm-11.098-.346c.1-.26.248-.408.33-.326.08.081 0 .295-.182.474-.26.26-.291.23-.148-.148zm-10.185-.565c-.332-.353-.754-.584-.938-.514-.183.07-.396-.113-.473-.407-.095-.36.012-.583.327-.683.257-.081.691-.413.965-.737l.498-.588-.597.505c-.328.278-.685.418-.792.311-.107-.107.013-.31.267-.452.733-.41.542-.833-.32-.707-.428.063-.719.017-.645-.102.073-.12.305-.217.515-.217.21 0 .381-.11.381-.246 0-.342-1.627.149-1.895.572-.241.38-.249.34-.349-1.78-.05-1.09-.02-1.199.18-.619.132.388.42.773.637.857.254.097.329.043.21-.151-.133-.215.052-.255.637-.138.974.195 1.33-.194.757-.827-.222-.245-.405-.565-.407-.71-.002-.146-.278-.342-.614-.437-.44-.124-.48-.18-.14-.199.26-.014.54-.204.624-.423.084-.218.363-.397.62-.397.258 0 .617-.178.798-.397.182-.218.46-.396.62-.396.161 0 .027.185-.296.411-.638.447-.817 1.797-.283 2.127.183.113.234.073.128-.098-.097-.158-.056-.362.092-.453.148-.092.269.019.269.246 0 .48.354.525 1.075.139.661-.354.654-1.173-.017-1.843-.291-.291-.417-.53-.28-.53.137 0 .322.12.412.265.09.146.454.265.81.265.355 0 .645.123.645.273 0 .15.268.38.596.512.57.23.571.24.046.256-.302.01-.808.293-1.125.63-.742.79-.748 1.21-.008.553.566-.503.567-.503.244.114-.36.685-.376.648.428 1.066.762.396.769.394 1.413-.295.416-.447.51-.479.377-.13-.098.257-.023.653.165.88.28.339.281.453.001.626-.213.132-.277.447-.17.84l.172.628-.38-.648a2.041 2.041 0 0 0-1.76-1.041c-.217-.004-.039.159.398.361l.793.369-.8-.036c-1.007-.044-1.425.208-1.378.83.024.318.19.444.488.366.599-.156 1.686.884 1.14 1.093-.206.08-.376.394-.376.7 0 .44-.113.52-.541.383-.299-.094-.695-.045-.882.11-.25.208-.34.182-.34-.098 0-.21.099-.32.22-.245.121.075.211-.258.2-.74-.012-.48-.081-.726-.155-.544-.073.182-.247.33-.385.33-.154 0-.148-.194.016-.5.213-.398.167-.526-.228-.629-.334-.087-.606.078-.835.505-.248.464-.397.544-.553.299-.134-.212-.214-.03-.217.492-.004.874.319 1.28 1.187 1.494.513.126.512.131-.02.16-.302.018-.82-.257-1.153-.61zm3.95-1.332c0-.068-.267-.253-.595-.412-.571-.277-.575-.272-.081.123.54.433.677.491.677.289zm-4.233-4.905c0-.145-.126-.264-.28-.264-.154 0-.206.119-.117.264.09.146.216.265.28.265.065 0 .117-.119.117-.265zm23.83 6.32c.338-.633.314-.844-.164-1.44-.398-.496-.402-.494-.132.064.421.873.367 1.28-.118.877-.218-.18-.397-.493-.397-.694 0-.638-.68-.391-1.001.364l-.31.727.137-.75c.088-.48.038-.688-.138-.58-.152.094-.276.491-.276.883 0 .6-.12.716-.753.738-.639.022-.742-.068-.684-.596.037-.341-.049-.62-.192-.62-.143 0-.082-.18.137-.398.469-.47 1.35-.544 1.07-.091-.11.18-.073.234.094.13.199-.122.195-.402-.011-.95-.161-.426-.39-.715-.51-.642-.333.206-1.532.39-1.532.236 0-.075.387-.314.86-.531.6-.276.66-.345.199-.23-.364.092-.781.211-.927.266-.146.054-.43-.165-.631-.488-.26-.416-.28-.615-.066-.686.166-.055.3-.448.3-.872 0-.817.8-1.83 1.443-1.83.21 0 .479-.167.595-.372.118-.206.864-.452 1.68-.553 1.178-.145 1.54-.098 1.82.24.191.23.516.42.721.42.205 0 .442.179.525.397.084.218.304.397.489.397s.5.208.7.463c.326.416.317.428-.086.112-.543-.425-1.697-.3-1.598.173.04.186-.115.525-.342.752-.522.521-.357 1.036.3.94.275-.041.764-.086 1.085-.1.38-.016.67-.268.828-.72.206-.588.233-.512.177.497l-.1 1.815-.034.624-.463-.547c-.255-.3-.82-.626-1.257-.722-.762-.168-.772-.158-.264.245.525.417.524.42-.05.428-.32.005-.64.105-.712.222-.2.322.442 1.45.894 1.572.347.093.348.073.008-.163-.214-.15-.323-.337-.241-.419.082-.082.364.09.629.382.431.477.435.531.042.531-.24 0-.438.165-.438.367 0 .204-.346.418-.777.481-.673.099-.744.052-.53-.35zm-2.537-4.768c.166-.156.13-.451-.104-.83l-.362-.59.606.53.605.53-.289-.552c-.724-1.382-2.27-1.518-2.594-.228-.325 1.296 1.138 2.076 2.138 1.14zm2.398-.742c-.085-.136.037-.355.27-.485.277-.155.394-.506.337-1.009-.075-.654-.218-.783-.948-.854-.709-.068-.904.032-1.108.567-.135.358-.17.93-.076 1.274.165.6.178.593.349-.17l.177-.794.031.86c.025.681.144.86.576.86.3 0 .476-.112.392-.249zm-8.56 4.822c-.684-.13-.744-.252-.935-1.907l-.135-1.17.664 1.17c.364.644.85 1.379 1.08 1.633.23.255.31.447.177.427-.131-.02-.514-.088-.85-.153zm-6.444-1.016a20.6 20.6 0 0 0 1.05-1.334c.316-.464.332-.466.198-.019-.08.267-.145.82-.145 1.228 0 .649-.115.757-.905.849l-.904.105zm14.835-11.522c.131-.16.143-.624.026-1.031-.12-.42-.105-.847.035-.987.152-.153-.06-.202-.556-.13-.502.075-.812.28-.828.552-.015.244-.114.145-.228-.229-.175-.573-.228-.6-.4-.195-.11.256-.15.792-.092 1.19.101.692.056.725-1.006.725-.858 0-1.05-.076-.84-.33.15-.18.211-.567.135-.86-.08-.304-.008-.53.167-.532.397-.003.977-1.253.798-1.72-.081-.21-.323-.292-.58-.196-.398.149-.402.116-.044-.33.362-.453.354-.48-.088-.315-.267.1-.66.182-.873.182-.213 0-.564.387-.78.86l-.392.86.164-.871c.09-.479.044-1.015-.102-1.19-.183-.222-.123-.495.195-.888.447-.55.47-.553.773-.066.173.276.446.501.608.501.197 0 .181-.137-.047-.411-.304-.367-.263-.376.372-.087.514.234.62.385.376.54-.252.16-.256.216-.017.219.707.009.856-.936.293-1.862-.496-.815-.5-.862-.051-.508.272.214.652.568.845.786.312.353.33.353.158 0-.416-.86-1.02-1.323-1.727-1.323-.425 0-.854.197-1.009.463-.148.255-.273.338-.278.186-.013-.466.593-.913 1.236-.913.342 0 .608-.16.608-.367 0-.206.352-.419.802-.485.551-.08.717-.032.53.155-.383.383-.325 1.24.137 2.02.381.644.387.635.218-.37-.123-.738-.087-.977.129-.844.165.103.3.477.3.832 0 .723.645.89.897.233.087-.228.278-.34.425-.25.16.1.266-.204.266-.754 0-.506-.148-.98-.33-1.053-.239-.097-.243-.14-.016-.155a.574.574 0 0 1 .479.244c.09.145.365.265.61.267.247 0 .586.298.754.661.28.602.252.66-.315.66-.342 0-.694.117-.783.261-.095.153.036.198.315.107.375-.12.397-.097.103.112-.206.146-.586.225-.845.175-.326-.062-.424.03-.319.304.083.217.32.329.528.25.207-.08.31-.038.23.093-.489.789.708 1.416 1.427.748.289-.268.316-.26.145.04-.142.25-.111.31.093.184.168-.104.306-.39.307-.637.001-.281.15-.164.4.316.298.572.324.853.101 1.121-.163.197-.231.53-.151.738.11.288-.024.35-.558.252-.386-.07-.864-.261-1.062-.425-.271-.225-.416-.206-.591.078-.157.254-.05.57.33.975.662.704.352.808-.406.136-.507-.45-.513-.445-.212.13.395.752 1.522 1.05 2.254.594.504-.314.522-.305.192.093-.2.242-.59.44-.868.44s-.574.178-.657.397c-.084.218-.414.397-.733.397-.32 0-.723.119-.898.264-.222.185-.245.177-.079-.027zm.466-1.626c-.073-.182-.133-.033-.133.33 0 .364.06.513.133.331.073-.182.073-.48 0-.661zm2.206-1.919c-.181-.218-.457-.396-.612-.396-.156 0-.052.174.23.388.664.502.794.505.382.008zm-23.45 3.16c.075-.155.01-.78-.145-1.39-.206-.808-.416-1.108-.779-1.108-.383 0-.498.196-.5.86-.004.65-.067.763-.26.463-.14-.219-.191-.635-.115-.926.13-.498.12-.5-.165-.043-.167.268-.253.747-.193 1.065.092.478-.007.573-.562.549-.923-.04-1.196-1.09-.49-1.878.62-.692.52-1.581-.166-1.462-.287.05-.41-.03-.306-.198.286-.462-.574-.32-1.07.176-.343.343-.424.36-.32.066.077-.215.033-.598-.096-.849-.147-.287-.121-.638.07-.945.292-.467.333-.462.92.126.339.338.753.615.921.615.169 0 .025-.235-.318-.52-.459-.383-.516-.523-.215-.53.226-.005.551.132.723.304.451.45.68.092.344-.537-.47-.876-.325-1.204.234-.533.286.344.524.497.53.34.014-.474-1.179-1.435-1.782-1.435-.31 0-.697.209-.858.463-.17.269-.252.304-.196.085.1-.388.289-.512 1.653-1.083.437-.183 1.17-.516 1.63-.74.76-.37.895-.366 1.511.038.373.244.8.443.951.443.15 0 .512.209.803.463l1.082.95c.38.335.504.673.399 1.094-.095.376-.001.734.245.938.35.291.346.367-.046.653-.27.198-.376.499-.27.773.115.301.071.386-.135.26-.207-.129-.25-.042-.131.267.151.394.07.381-.591-.09-.422-.3-.884-.545-1.028-.545-.452 0-.57.74-.17 1.071.21.174.38.44.38.59 0 .15-.267.046-.595-.231l-.595-.504.512.605c.282.332.64.557.794.5.155-.059.52-.012.81.104.502.198.499.21-.065.228-.403.012-.596.181-.596.523 0 .377-.136.468-.541.362-.341-.089-.691.043-.946.356-.222.273-.343.37-.268.216zm-2.71-2.167c.336-.429.324-.434-.166-.075-.291.213-.579.422-.64.463-.06.04.015.075.167.075.152 0 .44-.209.64-.463zm5.141-1.795c-.282-.213-.699-.383-.926-.376-.227.007-.055.175.382.375 1.037.475 1.171.476.544.001zm-.326-1.257c-.106-.17-.011-.217.243-.12.287.11.464-.033.572-.463.328-1.304-.538-2.022-1.6-1.326-.343.225-.624.49-.624.588 0 .098.143.036.317-.139.571-.57.812-.333.36.356-.554.847-.334 1.707.387 1.519.285-.075.44-.261.345-.415zm-1.674-2.313c0-.769-.138-1.107-.539-1.321-1.19-.638-2.259.636-1.628 1.94.277.573.28.573.314-.083.035-.66.035-.66.274-.066.287.714.654.76 1.055.132.26-.408.281-.392.17.133-.069.327-.018.529.114.447.132-.081.24-.613.24-1.182zm5.957 5.563c.535-.8.99-1.475 1.013-1.5.023-.024 0 .482-.05 1.125-.08 1-.178 1.169-.676 1.169-.32 0-.734.149-.92.33-.186.182.099-.324.633-1.124zm5.503.874c-.482-.094-.576-.287-.564-1.168.008-.58.046-1.019.083-.975.127.145 1.204 2.328 1.131 2.291a6.333 6.333 0 0 0-.65-.148zm3.852-.543c-.335-.429-.323-.434.166-.075.291.213.58.422.64.463.06.041-.014.075-.166.075s-.44-.209-.64-.463zm-12.38-1.014c.012-.309.075-.371.16-.16.076.19.066.419-.021.507-.088.088-.15-.069-.14-.347zm16.317-6.107c.182-.073.48-.073.661 0 .182.074.033.134-.33.134-.364 0-.513-.06-.331-.134zm-21.892-4.981c-.18-.217-.45-.318-.602-.224-.15.093-.405-.008-.565-.225-.16-.217-.47-.464-.688-.548-.28-.11-.235-.16.158-.176.305-.011.781-.286 1.058-.611.41-.481.418-.524.041-.233-.561.435-.626-.035-.069-.497.563-.467.227-.824-.609-.647-.682.145-.69.134-.197-.264.282-.228.387-.414.234-.414-.154 0-.61.26-1.015.578-.467.367-.687.44-.601.199.074-.21.024-.596-.112-.86-.16-.31-.148-.6.033-.819.155-.186.212-.407.127-.492-.085-.085.032-.127.259-.094.227.034.506.163.62.288.113.124.057.14-.125.036-.182-.105-.33-.077-.33.061 0 .266.624.576 1.145.57.178-.003.14-.114-.087-.261-.384-.248-.33-.284.529-.361.62-.056.509-1.037-.186-1.642-.63-.548-.615-1.582.02-1.35.164.06.49-.059.726-.263.382-.332.415-.3.301.294-.15.785.111 1.999.43 1.999.123 0 .18-.328.126-.728-.053-.4-.02-.549.072-.33.394.924.681 1.083 1.08.598.366-.444.377-.443.233.01-.088.28-.042.41.111.316.374-.231.324-2.071-.069-2.518-.182-.207-.067-.157.256.112.322.27.806.432 1.075.362.767-.2.584.875-.273 1.605-.4.34-.727.728-.727.861s.238.003.529-.288c.29-.291.648-.53.794-.53.145 0 .026.239-.265.53-.291.29-.53.684-.53.873 0 .406.526.979.898.979.144 0 .043-.16-.224-.356-.466-.34-.462-.362.081-.504.313-.082.646-.022.742.132.11.178.038.203-.199.069-.308-.177-.312-.15-.023.157.298.315.397.305.677-.074.302-.408.354-.4.665.098.225.36.25.628.073.805-.145.145-.203.646-.127 1.113.164 1.008-.42 1.735-1.39 1.735-.395 0-.643.153-.643.397 0 .237-.244.397-.609.397-.334 0-.778.148-.985.33-.207.182-.171.084.08-.219.25-.302.44-.898.42-1.323-.03-.63-.058-.662-.152-.174-.134.702-.606.533-.606-.217 0-.69-.377-.65-.76.081l-.312.596.114-.596c.13-.677-.225-.811-.469-.176-.259.674-.185 1.567.157 1.91.175.174.249.317.165.317-.084 0-.3-.177-.48-.394zm4.972-1.511c.463-.464.388-1.415-.146-1.833-.416-.326-.427-.318-.113.084.321.41.27.425-.62.179-1.133-.313-1.423-.142-.977.573.411.658.408.869-.01.618-.224-.135-.214-.055.033.249.422.52 1.375.588 1.833.13zm17.716 1.102c.853-.343 1.291-1.409.892-2.171l-.313-.598.114.595c.142.737-.267.792-.497.067-.207-.653-.543-.68-.794-.067-.174.427-.204.422-.382-.056-.172-.462-.214-.438-.38.226-.127.504-.05.956.234 1.39.396.605.393.629-.054.4a20.048 20.048 0 0 0-2.196-.927c-.218-.072-.084-.14.298-.152.383-.011.859-.23 1.059-.484.33-.42.32-.43-.107-.094-.739.58-.809.168-.089-.525.717-.69.672-1.034-.134-1.034-.29 0-.455-.12-.366-.265.248-.4-.469-.317-1.104.128-.5.35-.58.348-.72-.02-.088-.228-.09-.69-.006-1.028.144-.574.2-.59.86-.245.388.202.884.361 1.103.353.224-.01.138-.12-.199-.255-.793-.319-.76-.614.053-.458.702.134 1.199-.532.65-.872-.17-.104-.23-.315-.136-.468.095-.152.008-.374-.192-.492s-.422-.532-.494-.92c-.117-.637-.073-.684.457-.483.327.125.69.12.82-.009.132-.133.231.186.231.747 0 .912.06.985.86 1.063.717.069.903-.03 1.118-.596.142-.373.318-.678.39-.678.073 0 .013.314-.133.698-.146.384-.208.755-.138.825.162.162.548-1.283.46-1.721-.039-.196.21-.331.607-.331.422 0 .673.148.673.397 0 .218.149.397.33.398.182 0-.043.229-.5.507-.963.588-1.55 1.31-.69.85.763-.408.937-.053.253.518l-.584.487.807.01c.444.004.974-.14 1.178-.323.316-.281.319-.261.02.133-.192.254-.663.479-1.045.499-.603.03-.618.05-.114.149.32.062.803-.005 1.073-.15.683-.366 1.145.394.73 1.202-.29.56-.305.562-.615.066-.201-.322-.586-.496-1.044-.474-.594.03-.621.057-.15.149.318.061.722.287.9.501.279.336.224.352-.395.116-1.067-.405-1.27-.344-1.06.32.174.549.152.564-.297.2-.432-.351-.461-.35-.263.001.489.868 1.047 1.323 1.626 1.323.334 0 .729-.208.877-.463.148-.255.273-.338.278-.185.012.43-.575.913-1.112.913-.266 0-.553.178-.637.397-.084.218-.363.396-.62.396-.258 0-.617.179-.798.397-.181.219-.523.39-.76.38-.29-.01-.236-.095.167-.256zm-25.48-1.067c-.095-.155-.117-.339-.048-.408.07-.07.197.058.283.282.179.466.026.548-.235.126zm12.841-2.518c0-.279-.302-1.15-.667-1.934-.366-.786-.632-1.456-.593-1.49.04-.035.322.03.627.146.453.172.587.517.728 1.865.095.91.113 1.715.04 1.788-.073.073-.134-.096-.135-.375zm3.455-2.16c-.01-1.227.08-1.654.348-1.654.2 0 .703-.268 1.12-.595l.759-.596-.623 1.01c-.342.554-.84 1.566-1.107 2.248l-.485 1.24zm-8.194.415c-.011-.244-.208-.631-.437-.86-.228-.228-.292-.415-.141-.415.367 0 .889 1.007.727 1.403-.072.179-.137.123-.149-.128zm-8.223-.582c0-.054.208-.263.463-.463.42-.329.43-.32.1.1-.346.441-.563.581-.563.363zm21.167-.793c0-.055.208-.264.463-.463.42-.33.429-.32.1.1-.346.44-.563.58-.563.363zm7.903-.363c-.329-.42-.32-.43.1-.1.441.345.581.563.364.563-.055 0-.264-.209-.464-.463zm-4.728-.183c0-.21.119-.455.264-.545.146-.09.265.082.265.381 0 .3-.12.545-.265.545-.145 0-.264-.172-.264-.381zm1.058-2c-.545-.175-.568-.216-.132-.234.29-.013.708.093.926.234.463.3.142.3-.794 0zm-22.754-4.366c-.181-.218-.599-.397-.928-.397-.375 0-.65-.197-.736-.529-.076-.29-.053-.53.05-.53.105 0 .421-.184.703-.41.487-.39.481-.396-.121-.102l-.635.31.574-.806c.319-.448.462-.875.322-.961-.138-.085-.326-.034-.417.114-.091.147-.36.268-.598.268-.362 0-.35-.062.082-.388.39-.295.418-.39.116-.393-.518-.006-.897.262-1.292.914-.312.515-.316.514-.166-.039a1.038 1.038 0 0 0-.254-.975c-.252-.252-.306-.47-.142-.573.147-.09.267-.39.267-.666 0-.452.064-.437.65.148.357.357.922.64 1.256.63.499-.017.442-.087-.319-.393l-.926-.372.987.098c.934.092.983.06.91-.612-.044-.39-.167-.853-.276-1.029-.3-.487-1.687-.387-1.996.145-.149.254-.274.338-.278.185-.013-.436.577-.913 1.128-.913.279 0 .562-.235.64-.53.076-.29.347-.528.604-.528.256 0 .614-.179.795-.397.466-.562 1.684-.492 2.245.128.341.377.663.478 1.143.357.546-.137.637-.088.5.269-.114.299-.024.442.287.453.31.012.247.1-.2.279-.789.314-1.594 1.009-1.594 1.374 0 .146.209.086.463-.133.89-.764 1.251-.828.534-.095-.813.83-.72 1.325.207 1.093.339-.086.695-.028.79.128.115.185.365.116.724-.198.301-.264.463-.334.358-.155-.104.179-.065.559.088.844.196.366.192.57-.011.697-.159.098-.224.432-.146.743.128.512.11.523-.197.113-.37-.493-1.898-1.189-1.619-.737.09.145.328.264.529.264s.434.11.516.244c.088.142-.247.134-.802-.02-1.2-.33-1.333-.195-.732.745.474.741.473.746-.045.358-.519-.388-.519-.385-.02.199.277.325.753.598 1.058.607.535.016.534.025-.041.256-.328.132-.595.363-.595.513 0 .15-.215.273-.477.273s-.619.119-.793.264c-.231.193-.246.178-.053-.052.145-.175.25-.74.234-1.257-.017-.517-.086-.731-.152-.477-.166.634-.612.586-.612-.066 0-.589-.518-.698-1.005-.211-.247.247-.318.203-.322-.199-.003-.43-.046-.45-.26-.119-.457.707-.299 1.798.323 2.234.324.227.457.412.297.412-.16 0-.439-.179-.62-.397zm.397-6.482c-.093-.291-.055-.53.083-.53.139 0 .327.269.42.596.166.59.17.591.578.066.226-.29.522-.5.657-.463.36.097.3-1.361-.071-1.733-.41-.41-1.602-.41-2.011 0-.385.385-.404 1.008-.06 1.914.303.797.65.925.404.15zm22.29 6.091c.183-.207.318-.858.301-1.448-.017-.59-.09-.84-.162-.557-.12.476-.157.466-.479-.132-.307-.57-.37-.592-.528-.184-.099.255-.299.463-.444.463-.146 0-.192-.208-.104-.463.135-.386.095-.377-.236.05-.219.283-.398.73-.398.993 0 .587-.934.653-1.154.082-.083-.219-.38-.397-.657-.397-.278 0-.663-.209-.855-.463-.298-.394-.295-.414.02-.133.602.537 1.414.355 2.056-.459.68-.863.437-1.203-.681-.95-.679.153-.688.142-.2-.24.283-.22.388-.401.235-.401-.154 0-.623.265-1.043.588-.42.324-.613.399-.43.168.273-.344.26-.483-.068-.756-.36-.298-.353-.371.053-.668.309-.226.658-.258 1.079-.098.892.34 1.027.293.44-.152-.595-.45-.322-.533.429-.131.445.238.512.184.512-.413 0-.474.102-.627.33-.495.182.104.043-.127-.31-.514s-.889-.718-1.19-.735c-.447-.025-.463-.053-.087-.151.255-.067.463-.305.463-.53 0-.274.17-.364.514-.274.306.08.698-.068.967-.366.25-.275.762-.484 1.14-.464l.686.036-.661.121c-.917.169-1.323.56-1.323 1.273 0 .984.284 1.444.888 1.44.791-.004 1.791-1.568 1.447-2.263-.246-.496-.241-.497.149-.015.229.284.576.43.81.34.258-.1.41-.01.41.237 0 .218.286.504.636.637.35.133.72.377.821.542.126.204.02.197-.33-.022-.677-.422-1.825-.124-2.197.57-.285.533-.277.535.398.093.922-.604 1.144-.317.28.363-.797.628-.494.968.52.582.962-.365 1.05-.338.637.197-.339.437-.33.438.168.017.5-.424.54-.414.826.19.234.495.222.7-.052.928a.747.747 0 0 0-.214.736c.125.402.105.405-.214.024-.194-.23-.65-.565-1.014-.742-.641-.312-.645-.309-.133.12.515.431.509.439-.232.266-.701-.163-.748-.128-.582.432.099.335.215.787.257 1.005.043.219.424.473.847.565.568.123.62.175.202.198-.312.017-.636.21-.72.428-.083.218-.355.397-.602.397-.248 0-.698.205-1 .456-.303.25-.402.287-.22.08zm.894-2.722c-.262-.26-.292-.23-.148.148.099.26.247.408.328.326.082-.081 0-.295-.18-.474zm-18.67 1.58c.1-.26.248-.407.33-.326.081.082 0 .295-.181.474-.261.26-.292.23-.148-.148zm3.812-4.251-.934-1.36.692-.026c.624-.023.718.105.971 1.323.154.742.263 1.366.243 1.386-.02.02-.458-.575-.972-1.323zm4.622 1.066c.082-.266.149-.865.149-1.33 0-.703.138-.9.814-1.155l.814-.307-.47.712c-.258.392-.692 1.13-.963 1.639-.271.51-.426.708-.344.441zm-8.255-1.965c-.31-.66-.302-.68.097-.282.237.237.387.558.334.713-.054.155-.248-.04-.431-.431zm12.902-.593c.155-.29.342-.53.415-.53.073 0 .005.24-.15.53-.157.291-.344.53-.416.53-.073 0-.005-.239.15-.53zm3.3-.284c-.254-.804.004-.886.355-.114.166.365.193.663.06.663-.132 0-.319-.247-.414-.55zm-27.325-1.092a1.033 1.033 0 0 1 .087-1.54c.361-.3.361-.381 0-.78-.527-.582-.51-.889.08-1.422 1.247-1.129 3.551.183 2.38 1.355-.239.238-.208.425.132.801.552.61.559.957.028 1.488-.49.49-2.25.554-2.707.098zm2.015-.81c.113-.59-.63-.884-1.148-.454-.308.255-.328.413-.087.702.402.485 1.121.34 1.235-.249zm-.067-1.808c.098-.16.016-.453-.183-.652-.46-.459-1.164-.07-.938.518.186.485.854.565 1.12.134zm31.34 2.594c-.814-.411-.982-1.131-.412-1.762.385-.425.388-.494.024-.633-.635-.244-.482-1.172.273-1.667 1.274-.834 3.092.393 2.14 1.445-.408.45-.414.53-.055.669.24.092.408.477.408.933 0 .632-.154.83-.833 1.066-.458.16-.845.289-.86.287a17.941 17.941 0 0 1-.686-.338zm1.468-.742c.098-.16-.014-.483-.25-.718-.394-.395-.461-.395-.855 0-.236.235-.348.559-.25.718.232.375 1.123.375 1.355 0zm-.016-2.352c0-.471-.873-.692-1.248-.316-.147.146-.183.402-.08.569.263.425 1.328.222 1.328-.253z" transform="translate(-169.77 -183.881)"/><path style="fill:#bf2325;stroke-width:.26458332" d="M174.07 246.314c-.652-.262-.842-1.448-.265-1.65.243-.085.207-.256-.132-.639-.928-1.047-.397-1.936 1.159-1.936.885 0 1.818.523 1.818 1.019 0 .102-.18.443-.4.757-.253.361-.302.631-.132.736.458.284.296 1.423-.245 1.712-.605.324-.999.325-1.803.001zm1.465-1.014c-.045-.234-.29-.466-.543-.515-.565-.109-.936.714-.455 1.01.493.306 1.095.008.998-.495zm-.076-2.024c0-.343-.206-.554-.595-.61-.439-.062-.596.048-.596.42 0 .276.084.586.186.688.35.351 1.005.027 1.005-.498zm31.287 2.76c-.527-.306-.608-1.05-.163-1.495.225-.225.191-.41-.132-.734-.238-.238-.433-.594-.433-.792 0-1.143 2.174-1.622 3.037-.668.454.502.454.551 0 1.243-.322.492-.375.754-.167.823.168.056.305.385.305.732 0 .999-1.392 1.506-2.447.892zm1.361-.484c.45-.285.196-1.081-.345-1.081-.497 0-.774.444-.585.938.169.44.404.476.93.143zm.243-2.474c.114-.59-.63-.884-1.148-.454-.308.256-.327.413-.087.702.403.485 1.122.34 1.235-.248zm-17.53-.069c-.332-.616-.437-1.194-.333-1.836.116-.715.06-.936-.236-.936-.305 0-.273-.156.15-.727.453-.614.572-1.347.762-4.697.124-2.182.243-3.42.264-2.748.022.672.157 1.844.302 2.604.21 1.114.185 1.494-.133 1.948-.552.789-.49 2.103.136 2.9.292.372.411.715.264.764-.167.056-.183.385-.043.882.159.566.098 1.074-.213 1.77l-.435.976zm8.168-2.507c0-.291.114-.53.253-.53.14 0 .489-.208.777-.462.51-.452.519-.444.33.33-.225.921-.142.818-.821 1.026-.418.128-.539.045-.539-.364zm4.073-.367c-.103-.885-.098-.89.492-.463.738.535.806 1.359.113 1.359-.371 0-.527-.23-.605-.896zm-20.855.414c-.218-.098-.413-.553-.433-1.01-.036-.83-.035-.83.683-.418.537.309.688.568.6 1.029-.124.65-.21.69-.85.4zm-3.3-.3c-.086-.14-.316-.192-.51-.117-.197.075-.409-.077-.477-.343-.087-.336.12-.596.694-.875l.816-.398-.094.993c-.1 1.038-.17 1.16-.43.74zm15.735-.292c0-.154.12-.207.265-.117.145.09.264.216.264.28 0 .065-.119.117-.264.117-.146 0-.265-.126-.265-.28zm-7.286-.502c.576-.637.708-.68.51-.164-.079.207-.336.45-.572.54-.35.135-.34.068.062-.376zm6.434-.599a5.577 5.577 0 0 1-.583-1.265c-.11-.385.098-.176.498.501.71 1.206.78 1.827.085.764zm6.738-.272c-.146-.182-.347-.599-.447-.926-.194-.632-.901-.777-1.7-.35-.664.356-1.165-.485-.683-1.145.333-.456.375-.452.945.079.744.693.866.691 1.686-.021.832-.724.834-1.128.011-1.952-.763-.762-.64-1.398.26-1.345.518.03.606.145.484.633-.267 1.063.1 1.837.952 2.007.502.1.926.429 1.174.908.343.664.34.848-.022 1.596-.353.729-.548.846-1.403.846-.546 0-1.112-.149-1.257-.33zm-11.917-.716c.177-.284.36-.48.405-.435.157.157-.252.952-.49.952-.13 0-.093-.232.085-.517zm-9.489-.541c-.493-.835-1.089-.986-1.988-.505-.686.368-1.13-.03-.888-.793.163-.515.221-.527.747-.16.95.667 1.685.507 2.014-.438.241-.69.215-.923-.147-1.323-.242-.267-.6-.485-.797-.485-.292 0-.297-.098-.028-.53.393-.628 1.4-.74 1.165-.13-.084.22-.037.705.105 1.079.21.551.406.663 1.046.596 1.671-.175 2.55 1.727 1.394 3.02-.235.263-.79.463-1.284.463-.686 0-.97-.168-1.339-.794zm25.971.224c-.436-.267-.624-.487-.417-.487.206-.001.59-.197.854-.435.408-.369.5-.376.626-.049.08.212.054.626-.06.921-.205.526-.224.527-1.003.05zm-21.448-.87-.81-.28.843-.414c.784-.384.866-.38 1.142.063.164.262.297.524.297.583 0 .278-.739.302-1.472.048zm19.943-2.569c.077-.527.247-.755.523-.701.66.128.653.636-.017 1.074-.608.4-.619.391-.506-.373zm-21.91-.718c0-.897.09-1.094.5-1.094.818 0 .903.785.165 1.523l-.665.666zm10.318-1.295c0-.11.268-.366.596-.567.593-.364.593-.363.091.201-.54.606-.687.685-.687.366zm-2.907-1.181c.002-.04.18-.656.395-1.367.534-1.758 1.398-7.176 1.61-10.083l.172-2.382-.825-.307c-1.111-.415-1.298-1.025-.556-1.815.33-.352.703-.576.829-.499.125.078.303-.056.396-.296.31-.81-1.047-11.085-1.683-12.744-.13-.34-.07-.369.322-.15.566.317 2.478.128 3.019-.298.313-.246.341-.164.17.499-.582 2.268-.943 5.182-1.107 8.93-.11 2.51-.288 4.167-.45 4.167-.146 0-.19.076-.096.17.093.093.34.028.55-.145.258-.215.434-.227.55-.038.095.152.087.277-.017.277s.017.228.268.505c.434.48.433.52-.023.774-.264.148-.414.335-.334.415.08.08.415-.042.742-.271.567-.397.574-.443.142-.92-.25-.277-.341-.503-.202-.503.366 0 .888.578.888.983 0 .436-1.591 1.428-1.942 1.21-.544-.335.356 11.277 1.047 13.506.144.463.12.465-.537.035-.531-.348-.772-.38-1.057-.143-.281.233-.395.232-.474-.004-.074-.223-.344-.187-.952.128-.466.24-.847.405-.845.365zm2.208-14.517c-.983-.285-1.315-.913-.679-1.284.38-.221.386-.265.042-.272-.479-.009-1.045.495-1.045.93 0 .4 1.02.88 1.852.873.586-.005.567-.034-.17-.247zm7.32 10.759c.143-.142.259-.446.259-.677 0-.23.363-.634.808-.896.444-.263.764-.556.71-.653a16.28 16.28 0 0 1-.437-1.035c-.361-.914-.949-1.09-1.914-.574-.427.228-.605.189-.889-.199-.301-.41-.29-.555.072-.957.363-.402.459-.415.643-.086.119.212.56.461.981.554.603.132.908.025 1.442-.509 1.07-1.07 2.56-.832 3.283.526.22.414.184.761-.155 1.49-.412.881-.526.948-1.613.94-.996-.008-1.205.085-1.404.623-.128.348-.182.831-.118 1.074.09.346-.107.463-.905.54-.662.062-.93.006-.762-.161zm4.492-.854v-.967l.595.5c.328.276.628.516.668.533.292.125-.365.9-.762.9-.4 0-.501-.194-.501-.966zm-24.786.013c-.083-.216.155-.663.546-1.025.812-.753.79-.637.32-1.756-.312-.742-.315-.995-.02-1.566.55-1.062 1.477-1.368 2.523-.832 1.138.583 1.39 1.336.826 2.466-.392.786-.565.889-1.502.889-1.187 0-1.445.217-1.45 1.225-.006.794-.987 1.267-1.243.599zm4.48.238c-.458-.088-.596-.296-.596-.896 0-.773.007-.777.661-.348.364.238.662.657.662.932 0 .274-.03.482-.066.462-.037-.02-.334-.087-.662-.15zm10.781-.607c-.616-.197-.621-.214-.082-.238.319-.015.653.092.743.238.09.145.127.252.082.238l-.743-.238zm-4.763-1.837c0-.137.118-.321.262-.41.15-.093.194.013.104.249-.176.458-.366.542-.366.161zm16.035-.624c-.436-.32-.418-.368.257-.675.583-.266.767-.265.933.004.2.324-.166 1.015-.538 1.015-.1 0-.393-.155-.652-.344zm-20.782-.574-.589-.315.715-.468c.596-.39.768-.409 1.042-.111.264.287.24.44-.125.783-.371.348-.563.368-1.043.111zm-7.416-.39c-.175-.328-.137-.622.127-.97.208-.275.382-.355.386-.178.005.178.307.479.671.67l.662.347-.797.3c-.682.258-.833.234-1.049-.17zm26.572-2.654c.01-.843.083-.951.583-.856.869.165.928.947.107 1.418l-.701.402.01-.964zm-3.387.303c-.606-.67-.56-1.368.091-1.368.428 0 .53.176.53.926 0 1.07-.033 1.092-.621.442zm-17.372-.27c0-.289-.062-.688-.138-.887-.219-.57.787-.505 1.148.074.175.28.206.509.07.509-.136 0-.435.187-.664.416-.378.377-.416.367-.416-.111zm-3.393-.306c-.676-.563-.567-1.057.234-1.057.394 0 .514.185.514.794 0 .93.037.917-.748.263zm-.737-6.725c-.073-.19.246-.726.71-1.189l.842-.842-.563-.6c-.733-.78-.71-1.254.103-2.131.781-.843 1.87-.852 2.536-.02.655.818.725 1.26.327 2.05-.308.61-.538.728-1.414.728-.92 0-1.069.087-1.232.727-.102.4-.173.911-.158 1.136.034.501-.965.624-1.15.14zm3.649-.641.014-1.018.574.555c.659.636.59 1.48-.12 1.48-.386 0-.48-.204-.468-1.017zm17.795-.067c-.099-.16.073-.544.381-.853l.562-.561v.852c0 .856-.556 1.187-.943.562zm3.589-.635c0-.923.002-.924.523-.403.554.554.464 1.329-.155 1.329-.245 0-.368-.31-.368-.926zm-2.145-1.394c-.234-.047-.581-.378-.772-.735-.406-.758-.507-.774-1.716-.268-.993.414-1.327.209-1.055-.648.133-.42.267-.473.66-.262.273.145.78.264 1.13.264.5 0 .699-.208.944-.992.285-.913.26-1.034-.315-1.521-.344-.291-.686-.781-.76-1.089-.126-.515-.077-.537.61-.277.561.211.767.482.826 1.088.072.733.175.815 1.127.892 1.162.095 1.73-.384 1.73-1.459 0-.777.936-.844 1.135-.081.076.29.025.529-.114.529s-.537.307-.886.683c-.536.579-.588.781-.341 1.323.218.479.5.64 1.122.64.457 0 .946-.116 1.088-.258.168-.168.361-.094.552.211.221.355.203.592-.073.97-.202.276-.366.378-.366.228 0-.29-1.127-.887-1.674-.887-.18 0-.456.342-.613.759-.284.75-1.173 1.104-2.239.89zm-24.584-.602c-.463-.864.022-1.131 1.081-.596.763.385.824.475.38.562-.291.056-.67.216-.842.356-.214.174-.408.074-.62-.322zm7.15.122c-.364-.202-.493-.369-.286-.371.207-.002.577-.186.822-.408.4-.361.48-.361.78 0 .268.323.27.484.007.8-.385.465-.45.464-1.323-.021zm5.649-.897c-.152-.569-.19-1.172-.087-1.341.105-.169.274.252.376.935.233 1.554.076 1.774-.29.406zm3.63-.883c-.012-.608.086-.943.245-.844.146.09.265.018.265-.16 0-.18.06-.265.133-.192.074.074-.037.6-.246 1.169l-.379 1.035zm-13.98-.964c-.329-.275-.735-.545-.902-.6-.419-.14.06-.86.597-.897.272-.019.513.327.69.992.15.562.26 1.018.244 1.013a14.617 14.617 0 0 1-.629-.508zm2.934-.119a3.16 3.16 0 0 0 .179-.942c0-.29.242-.523.616-.595.508-.097.597-.021.507.432-.06.303-.417.78-.795 1.06-.622.464-.67.468-.507.045zm11.027-.96c0-.14.178-.256.397-.256.218 0 .397.047.397.104 0 .057-.18.172-.397.256-.219.084-.397.037-.397-.104zm1.062-.017c-.002-.232.252-.649.564-.926.56-.497.564-.497.273.025-.162.291-.415.708-.563.926-.237.348-.27.345-.274-.025zm-3.142-8.309c-.042-3.335-.338-4.976-1.04-5.766-.39-.438-.386-.46.047-.294.42.161.452.058.3-.98-.126-.855-.062-1.302.243-1.691l.413-.53.418.53c.29.366.38.88.295 1.67-.093.87-.04 1.11.225 1.008.192-.074.073.271-.263.766-.548.808-.583 1.03-.342 2.168.305 1.444.305 1.602-.019 4.31l-.236 1.984-.04-3.175zm-9.165.813c0-.878.017-.893.53-.466.29.243.56.455.6.472.264.114-.344.9-.695.9-.319 0-.435-.241-.435-.906zm-4.101.228c0-.227.357-.714.794-1.082.787-.662.79-.676.34-1.438-.513-.87-.714-.917-1.698-.403-.613.32-.743.308-1.086-.092-.298-.349-.319-.551-.088-.866.26-.356.37-.361.805-.043.525.384 2.04.518 1.927.171-.1-.309.681-1.247 1.118-1.343.216-.048.689-.11 1.05-.138.509-.039.714-.259.91-.971.138-.507.26-.936.272-.955.012-.018.297-.118.634-.221.909-.28.664.544-.476 1.601-.885.82-.904.876-.463 1.363.252.279.459.647.459.817 0 .409.352.391 1.462-.073.83-.346.938-.34 1.158.07.157.295.132.604-.073.884-.274.375-.383.383-.82.063-.789-.577-1.604-.454-1.944.292-.256.563-.479.662-1.488.662-.935 0-1.25.117-1.485.556-.163.306-.238.782-.166 1.058.102.39-.01.502-.505.502-.402 0-.637-.153-.637-.414zm24.723-1.225c-.232-1.032-.31-1.11-1.13-1.106-.948.004-1.358.411-1.364 1.356-.003.41-.163.596-.511.596-.823 0-.8-.612.052-1.336.766-.651.78-.7.39-1.443-.317-.604-.34-.915-.109-1.443.163-.37.407-.752.543-.848.136-.096-.13-.552-.59-1.013-.775-.775-1.106-1.596-.639-1.586.45.009.801.448 1.107 1.385.289.887.418.992 1.22.992.95 0 1.443-.537 1.443-1.57 0-.362.171-.547.507-.547.832 0 .796.615-.079 1.358l-.82.697.453.95c.427.896.427.994-.002 1.764-.451.807-.449.82.297 1.471.807.704.79 1.433-.032 1.433-.355 0-.553-.299-.736-1.11zm1.945-2.314-.717-.445.881-.399c.806-.365.906-.36 1.165.055.217.348.179.545-.165.844-.396.345-.53.339-1.164-.055zm-16.367-1.447-.944-1.373.706.104c.598.087.75.293.989 1.335.155.678.262 1.25.237 1.27-.024.02-.47-.581-.988-1.336zm.282-.685c0-.146-.126-.265-.28-.265-.154 0-.207.12-.117.265.09.145.216.264.28.264.065 0 .117-.119.117-.264zm4.392 1.587c.164-.61.9-1.888.9-1.561 0 .08-.242.612-.539 1.183-.31.598-.463.759-.36.378zm4.4.206c-.23-.277-.182-.432.205-.674.319-.199.563-.22.664-.055.088.142.391.259.674.259.282 0 .513.119.513.264 0 .146-.149.267-.33.269-.182.002-.578.07-.879.15-.306.082-.68-.012-.846-.213zm-18.317-1.925c-.18-.219-.506-.397-.722-.397-.25 0-.334-.153-.232-.419.088-.23.16-.52.16-.645 0-.124.228-.21.507-.188.385.029.53.28.602 1.042.11 1.15.12 1.13-.315.607zm-5.503-2.038a1.033 1.033 0 0 1 .086-1.54c.362-.3.362-.381 0-.78-.565-.625-.505-.988.247-1.48.446-.293.91-.37 1.473-.246.961.21 1.267.782.81 1.514-.264.424-.247.604.091.978.524.579.524.932 0 1.456-.49.49-2.251.554-2.707.098zm2.014-.808c.049-.255-.1-.536-.331-.624-.545-.21-1.218.353-1.025.857.202.528 1.246.35 1.356-.233zm-.067-1.81c.099-.16.016-.453-.183-.652-.459-.459-1.163-.07-.938.518.186.485.855.565 1.121.134zm31.34 2.594c-.814-.411-.982-1.131-.411-1.762.396-.438.396-.49.005-.64-.645-.248-.368-1.3.446-1.688 1.368-.654 2.872.494 1.963 1.499-.391.432-.395.504-.032.643.24.092.408.477.408.933 0 .632-.154.83-.833 1.066-.458.16-.845.289-.86.287a18.026 18.026 0 0 1-.686-.338zm1.468-.742c.099-.16-.013-.483-.249-.718-.394-.395-.461-.395-.856 0-.235.235-.347.559-.249.718.232.375 1.123.375 1.354 0zm-.015-2.352c0-.471-.873-.692-1.249-.316-.146.146-.182.402-.08.569.264.425 1.329.222 1.329-.253z" transform="translate(-169.77 -183.881)"/><path style="fill:#333224;stroke-width:.26458332" d="M174.07 246.314c-.652-.262-.842-1.448-.265-1.65.243-.085.207-.256-.132-.639-.928-1.047-.397-1.936 1.159-1.936.885 0 1.818.523 1.818 1.019 0 .102-.18.443-.4.757-.253.361-.302.631-.132.736.458.284.296 1.423-.245 1.712-.605.324-.999.325-1.803.001zm1.465-1.014c-.045-.234-.29-.466-.543-.515-.565-.109-.936.714-.455 1.01.493.306 1.095.008.998-.495zm-.076-2.024c0-.343-.206-.554-.595-.61-.439-.062-.596.048-.596.42 0 .276.084.586.186.688.35.351 1.005.027 1.005-.498zm31.287 2.76c-.527-.306-.608-1.05-.163-1.495.225-.225.191-.41-.132-.734-.238-.238-.433-.594-.433-.792 0-1.143 2.174-1.622 3.037-.668.454.502.454.551 0 1.243-.322.492-.375.754-.167.823.168.056.305.385.305.732 0 .999-1.392 1.506-2.447.892zm1.361-.484c.45-.285.196-1.081-.345-1.081-.497 0-.774.444-.585.938.169.44.404.476.93.143zm.243-2.474c.114-.59-.63-.884-1.148-.454-.308.256-.327.413-.087.702.403.485 1.122.34 1.235-.248zm-9.362-2.576c0-.291.114-.53.253-.53.14 0 .489-.208.777-.462.51-.452.519-.444.33.33-.225.921-.142.817-.821 1.026-.418.127-.539.045-.539-.364zm4.073-.367c-.103-.885-.098-.89.492-.463.738.535.806 1.359.113 1.359-.371 0-.527-.23-.605-.896zm-20.855.414c-.218-.099-.413-.553-.433-1.01-.036-.83-.035-.83.683-.418.537.309.688.568.6 1.029-.124.65-.21.69-.85.4zm-3.3-.3c-.086-.14-.316-.192-.51-.118-.197.076-.409-.076-.477-.342-.087-.336.12-.596.694-.875l.816-.398-.094.993c-.1 1.038-.17 1.16-.43.74zm15.735-.292c0-.154.12-.207.265-.117.145.09.264.216.264.28 0 .065-.119.117-.264.117-.146 0-.265-.126-.265-.28zm-7.286-.502c.576-.637.708-.68.51-.164-.079.207-.336.45-.572.54-.35.135-.34.068.062-.376zm3.46-.616c.083-.332.246-2.267.362-4.3.116-2.032.228-3.145.25-2.474.022.672.157 1.84.3 2.595.214 1.13.185 1.49-.166 2.026-.293.447-.383.984-.286 1.705.107.8.05 1.053-.236 1.053-.26 0-.33-.187-.225-.605zm2.974.017a5.577 5.577 0 0 1-.583-1.265c-.11-.385.098-.176.498.501.71 1.206.78 1.827.085.764zm8.26-.13a3.23 3.23 0 0 0 .734-.414c.252-.2.295-.157.17.168-.091.239-.421.425-.733.413-.387-.014-.441-.067-.17-.167zm-13.44-.858c.178-.284.36-.48.406-.435.157.157-.252.952-.49.952-.13 0-.093-.233.085-.517zm-9.166.013c-.082-.132.09-.178.381-.102.618.162.696.342.149.342-.21 0-.448-.108-.53-.24zm1.44.052c.218-.08.635-.339.926-.574.525-.425.525-.424.025.166-.277.328-.694.586-.926.575-.358-.018-.362-.043-.025-.167zm24.21-.382c-.437-.267-.625-.487-.418-.487.206-.001.59-.196.854-.435.408-.369.5-.376.626-.048.08.21.053.625-.06.92-.205.526-.224.527-1.003.05zm-7.47-.474c-.197-.314-.175-.573.074-.914.333-.456.375-.452.945.079.676.629 1.184.712 1.38.225.105-.26.138-.257.155.008a.428.428 0 0 1-.31.423c-.182.046-.7.204-1.15.35-.67.218-.871.187-1.095-.171zm-21.36-.264c-.097-.156-.101-.523-.009-.813.154-.486.215-.497.738-.13.313.219.87.41 1.238.426.626.025.618.04-.125.231-.436.113-.99.288-1.23.388-.24.101-.515.055-.612-.102zm7.381-.132-.81-.28.843-.414c.784-.384.866-.38 1.142.063.164.262.297.524.297.583 0 .278-.739.302-1.472.048zm17.347-1.35c0-.225-.293-.703-.652-1.062-.745-.745-.645-1.399.206-1.346.515.033.58.19.593 1.426.008.765-.023 1.39-.067 1.39-.044 0-.08-.184-.08-.409zm-21.818-.402c.21-.34-.611-1.306-1.111-1.306-.292 0-.297-.098-.028-.53.421-.674 1.36-.728 1.15-.066-.08.255.02.782.222 1.172.36.693.306 1.011-.17 1.011-.13 0-.158-.126-.063-.281zm24.414-.817c.077-.527.247-.755.523-.701.66.128.653.636-.017 1.074-.608.4-.619.391-.506-.373zm-21.91-.718c0-.897.09-1.094.5-1.094.818 0 .903.785.165 1.523l-.665.666zm10.318-1.295c0-.11.268-.366.596-.567.593-.364.593-.363.091.201-.54.606-.687.685-.687.366zm-2.91-1.337c0-.3 1.204-.843 1.865-.843.535 0 .698.385.274.647-.133.082-.287.014-.342-.152-.07-.209-.36-.166-.949.138-.466.241-.848.335-.848.21zm3.323-.19c-.283-.214-.386-.389-.23-.389.155 0 .43.179.611.397.412.496.283.494-.381-.008zm6.209-3.412c.142-.142.26-.442.26-.668.003-.225.412-.674.91-.997l.906-.586-.275.788c-.15.434-.211.954-.134 1.156.103.266-.143.395-.892.466-.67.064-.942.008-.775-.159zm4.491-.854v-.967l.595.5c.328.276.628.516.668.533.292.125-.365.9-.762.9-.4 0-.501-.194-.501-.966zm-24.78.026c-.08-.206.244-.755.728-1.236.538-.535.8-.68.687-.381-.1.266-.183.758-.183 1.093 0 .705-1 1.13-1.233.524zm4.473.225c-.457-.088-.595-.296-.595-.896 0-.773.007-.777.661-.348.364.238.662.657.662.932 0 .274-.03.482-.066.463-.037-.02-.334-.088-.662-.151zm7.925-.692c-.216-.596-.236-1.307-.067-2.346.134-.82.324-2.603.423-3.962l.18-2.47-.823-.308c-.453-.17-.898-.503-.99-.741-.183-.478.832-1.743 1.325-1.652.47.086.484-1.08.055-4.555-.391-3.164-.388-3.254.13-3.81.453-.485.568-.511.78-.176.344.543 0 8.537-.379 8.79-.205.137-.197.195.025.198a.621.621 0 0 0 .48-.265c.092-.148.28-.199.418-.114.137.086.19.253.117.372-.074.119.054.372.284.563.378.314.374.379-.05.688-.685.501-.316.675.386.183.567-.397.574-.443.142-.92-.25-.277-.341-.503-.202-.503.366 0 .888.578.888.983 0 .419-1.585 1.432-1.918 1.226-.134-.083-.199 1.707-.15 4.18.069 3.595.013 4.426-.33 4.911l-.415.584zm.57-9.464c-.983-.285-1.315-.913-.679-1.284.38-.221.386-.265.042-.272-.479-.009-1.045.495-1.045.93 0 .4 1.02.88 1.852.873.586-.005.567-.034-.17-.247zm2.287 9.549c-.616-.197-.621-.214-.082-.238.319-.015.653.092.743.238.09.145.127.252.082.238l-.743-.238zm9.26-1.043c0-.137.118-.322.262-.41.15-.093.194.013.104.248-.176.459-.366.543-.366.162zm-14.023-.794c0-.137.118-.321.262-.41.15-.093.194.013.104.249-.176.458-.366.542-.366.161zm16.035-.624c-.436-.32-.418-.367.257-.675.583-.266.767-.265.933.004.2.324-.166 1.015-.538 1.015-.1 0-.393-.155-.652-.344zm-7.752-.419c-.259-.414-.229-.583.166-.94.418-.379.502-.384.633-.043.083.217.574.473 1.091.57 1.175.22 1.219.51.08.53-.473.01-1.039.1-1.257.202-.251.117-.514 0-.713-.319zm-13.03-.155-.589-.315.715-.468c.596-.39.768-.409 1.042-.11.264.286.24.44-.125.782-.371.348-.563.368-1.043.111zm-7.416-.39c-.175-.328-.137-.622.127-.97.208-.275.382-.355.386-.178.005.178.307.479.671.67l.662.347-.797.3c-.682.258-.833.234-1.049-.17zm26.572-2.654c.01-.843.083-.951.583-.856.869.165.928.947.107 1.418l-.701.402.01-.964zm-3.387.303c-.606-.67-.56-1.368.091-1.368.428 0 .53.176.53.926 0 1.07-.033 1.092-.621.442zm-17.372-.27c0-.289-.062-.688-.138-.887-.219-.57.787-.505 1.148.074.175.28.206.509.07.509-.136 0-.435.187-.664.416-.378.377-.416.367-.416-.111zm-3.393-.306c-.676-.563-.567-1.057.234-1.057.394 0 .514.185.514.794 0 .93.037.917-.748.263zm-.732-6.713c-.07-.183.313-.802.853-1.374.587-.622.85-.794.653-.427-.18.336-.337.937-.348 1.335-.014.514-.167.735-.525.762-.278.02-.562-.112-.633-.296zm3.644-.653.014-1.018.574.555c.659.636.59 1.48-.12 1.48-.386 0-.48-.204-.468-1.017zm17.795-.067c-.099-.16.073-.544.381-.853l.562-.561v.852c0 .856-.556 1.187-.943.562zm3.589-.635c0-.923.002-.924.523-.403.554.554.464 1.329-.155 1.329-.245 0-.368-.31-.368-.926zm-21.96-.765c0-.058.184-.175.41-.262.235-.09.341-.046.249.104-.156.251-.66.372-.66.158zm-4.77-1.23c-.462-.865.023-1.132 1.082-.597.763.385.824.475.38.562-.291.056-.67.216-.842.356-.215.174-.408.074-.62-.322zm2.222.152c-.082-.214-.098-.541-.035-.728.062-.187.176-.012.253.388.15.782.026.974-.218.34zm3.34.139c0-.137.119-.322.262-.41.15-.094.195.013.104.248-.175.459-.365.542-.365.162zm1.588-.17c-.363-.202-.492-.369-.285-.371.207-.002.577-.186.822-.408.4-.361.48-.361.78 0 .268.323.27.484.007.8-.385.465-.45.464-1.323-.021zm19.244-.11c.25-.291.49-.53.536-.53.045 0-.045.239-.2.53-.156.29-.397.529-.536.529-.14 0-.05-.238.2-.53zm-13.594-.787c-.152-.569-.19-1.172-.087-1.341.105-.169.274.252.376.935.233 1.554.076 1.774-.29.406zm8.226.498c-.248-.402.154-1.326.488-1.12.167.103.714.254 1.216.336.502.082.962.327 1.021.544.093.338.07.34-.156.017-.228-.327-.41-.32-1.34.044-.622.244-1.142.32-1.23.179zm8.042.028c-.053-.158-.57-.457-1.151-.663l-1.055-.376.94-.012c.516-.006 1.054-.127 1.196-.27.449-.448.909.594.505 1.146-.195.267-.38.341-.435.175zm-12.639-1.409c-.01-.608.087-.943.246-.844.146.09.265.018.265-.16 0-.18.06-.265.133-.192.074.074-.037.6-.246 1.169l-.379 1.035zm-13.979-.964c-.329-.275-.735-.545-.902-.6-.419-.14.06-.86.597-.897.272-.019.513.327.69.992.15.562.26 1.018.244 1.013a14.617 14.617 0 0 1-.629-.508zm21.491.02c.122-.385-.01-.649-.477-.955-.355-.233-.698-.698-.763-1.034-.109-.57-.067-.591.633-.327.571.216.75.455.75 1.006 0 .397.175.82.39.94.325.182.299.276-.156.56-.492.307-.529.288-.377-.19zm2.143.092c-.438-.332-.45-.389-.076-.389.503 0 .986-.77.986-1.57 0-.716.947-.738 1.133-.027.092.355-.024.571-.367.68-.497.158-1.195 1.13-1.087 1.512.076.27.007.245-.59-.206zm-20.7-.23a3.16 3.16 0 0 0 .179-.943c0-.29.242-.523.616-.595.508-.097.597-.021.507.432-.06.303-.417.78-.795 1.06-.622.464-.67.468-.507.045zm11.027-.96c0-.142.178-.257.397-.257.218 0 .397.047.397.104 0 .057-.18.172-.397.256-.219.084-.397.037-.397-.104zm1.062-.018c-.002-.232.252-.649.564-.926.56-.497.564-.497.273.025-.162.291-.415.708-.563.926-.237.348-.27.345-.274-.025zm-3.108-4.391c.258-.067.615-.063.794.01.18.072-.031.127-.468.122-.437-.005-.583-.065-.326-.132zm-.116-4.447c-.082-2.037-.238-3.972-.347-4.3-.157-.469-.099-.595.274-.595.26 0 .706-.208.99-.463.388-.347.352-.218-.145.519-.603.894-.639 1.095-.394 2.249.303 1.433.303 1.574-.005 4.31l-.224 1.984-.149-3.704zm-9.083 1.342c0-.878.017-.893.53-.466.29.243.56.455.6.472.264.114-.344.9-.695.9-.319 0-.435-.241-.435-.906zm-4.101.228c0-.227.357-.714.794-1.082.437-.368.729-.775.648-.906-.08-.13.029-.17.244-.088.322.124.297.243-.145.685-.344.343-.491.76-.413 1.17.1.526.014.635-.503.635-.39 0-.625-.155-.625-.414zm24.713-1.312c-.211-.912-.2-1.262.052-1.47.247-.206.296-.148.196.235-.089.339.104.694.58 1.069.774.609.734 1.363-.073 1.363-.348 0-.552-.322-.755-1.197zm-3.629.57c-.08-.206.203-.616.653-.949.54-.4.739-.726.624-1.026-.126-.331-.092-.366.137-.138.224.221.228.446.016.842-.159.297-.289.786-.289 1.087 0 .627-.914.774-1.141.184zm-17.439-1.372c.324-.227.588-.64.588-.918 0-.322.133-.455.366-.365.202.077.796-.04 1.321-.26.876-.365.976-.36 1.198.054.157.295.132.604-.073.884-.274.375-.383.383-.82.063-.789-.577-1.604-.454-1.944.292-.165.364-.509.662-.762.662-.385 0-.364-.069.126-.412zm-5.295-.901c-.298-.349-.319-.551-.088-.866.26-.356.37-.361.805-.043.278.203.84.37 1.248.37.54 0 .738.126.722.462-.012.277-.074.33-.154.133-.172-.426-.58-.416-1.447.036-.613.32-.743.308-1.086-.092zm28.318-.524-.717-.445.881-.399c.806-.365.906-.36 1.165.055.217.348.179.545-.165.844-.396.345-.53.339-1.164-.055zm-16.367-1.447-.944-1.373.706.104c.598.087.75.293.989 1.335.155.678.262 1.25.237 1.27-.024.02-.47-.581-.988-1.336zm.282-.685c0-.146-.126-.265-.28-.265-.154 0-.207.12-.117.265.09.145.216.264.28.264.065 0 .117-.119.117-.264zm4.392 1.587c.164-.61.9-1.888.9-1.561 0 .08-.242.612-.539 1.183-.31.598-.463.759-.36.378zm4.4.206c-.23-.277-.182-.432.205-.674.319-.199.563-.22.664-.055.088.142.391.259.674.259.282 0 .513.119.513.264 0 .146-.149.266-.33.268-.182.002-.578.07-.879.151-.306.082-.68-.012-.846-.213zm-18.581-.04c0-.056.208-.264.463-.464.42-.33.429-.32.1.1-.346.44-.563.58-.563.363zm2.41-.906c-.46-.153-.343-.528.153-.487.298.025.533-.27.706-.89.143-.509.27-.94.281-.959.012-.018.283-.113.601-.211.457-.14.57-.077.53.298-.063.591-1.871 2.383-2.271 2.25zm21.376-.373c-.384-.262-.377-.335.066-.778.27-.27.49-.788.49-1.151 0-.473.142-.662.5-.662.841 0 .832.687-.017 1.315-.546.404-.755.747-.665 1.092.073.277.113.497.09.488a8.804 8.804 0 0 1-.464-.304zm-23.522-.606c-.18-.219-.506-.397-.722-.397-.25 0-.334-.153-.232-.419.088-.23.16-.52.16-.645 0-.124.229-.21.507-.188.385.029.53.28.602 1.042.11 1.15.12 1.13-.315.607zm20.969-.584c-1.049-1.16-1.178-2.163-.189-1.463.217.154 1.266 2.485 1.093 2.429-.024-.008-.432-.443-.904-.966zm-26.472-1.454a1.033 1.033 0 0 1 .086-1.54c.362-.3.362-.381 0-.78-.565-.625-.505-.988.247-1.48.446-.293.91-.37 1.473-.246.961.21 1.267.782.81 1.514-.264.424-.247.604.091.978.524.579.524.932 0 1.456-.49.49-2.251.554-2.707.098zm2.014-.807c.049-.256-.1-.537-.331-.625-.545-.21-1.218.353-1.025.857.202.528 1.246.35 1.356-.232zm-.067-1.811c.099-.16.016-.453-.183-.652-.459-.459-1.163-.07-.938.518.186.485.855.565 1.121.134zm31.34 2.595c-.814-.412-.982-1.132-.411-1.763.396-.438.397-.49.005-.64-.645-.248-.368-1.3.446-1.688 1.368-.654 2.872.494 1.963 1.499-.391.432-.395.504-.032.643.24.092.408.477.408.933 0 .632-.154.83-.833 1.066-.458.16-.845.289-.86.287a18.026 18.026 0 0 1-.686-.337zm1.468-.743c.099-.16-.013-.483-.249-.718-.394-.395-.461-.395-.856 0-.235.235-.347.559-.249.718.232.375 1.123.375 1.354 0zm-.015-2.352c0-.471-.873-.692-1.249-.316-.146.146-.182.402-.079.569.263.425 1.328.223 1.328-.253z" transform="translate(-169.77 -183.881)"/></svg>