<svg xmlns="http://www.w3.org/2000/svg" viewBox="0 0 42.598 65.352" height="247" width="161"><path d="M220.218-27.087c-.403-.445-.438-3.053-.438-32.106 0-30.299.02-31.64.483-32.06.442-.4 2.253-.438 20.597-.438 19.149 0 20.134.023 20.55.484.403.445.438 3.053.438 32.106 0 30.299-.02 31.64-.483 32.06-.442.4-2.253.438-20.597.438-19.149 0-20.134-.023-20.55-.484z" style="fill:#fff;fill-opacity:1;stroke-width:.26458332" transform="translate(80.657 -138.25)"/><path style="fill:#fff;fill-opacity:1;stroke-width:.26584104" d="M-64.718 98.985c-.406-.444-.442-3.052-.442-32.106 0-30.298.02-31.64.488-32.06.446-.399 2.274-.437 20.793-.437 19.331 0 20.325.023 20.746.484.407.444.442 3.052.442 32.105 0 30.3-.02 31.64-.488 32.06-.446.4-2.274.438-20.793.438-19.331 0-20.325-.023-20.746-.484z" transform="translate(65.16 -34.117)"/><path style="fill:#b2b2b0;stroke-width:.26458332" d="M45.393 230.482c-.403-.445-.438-3.062-.438-32.238 0-30.427.02-31.773.484-32.192.441-.4 2.27-.438 20.86-.438 19.406 0 20.399.023 20.816.484.402.444.438 3.061.438 32.238 0 30.427-.02 31.772-.484 32.192-.442.4-2.271.438-20.861.438-19.405 0-20.398-.023-20.815-.484zm41.411-.219c.464-.42.484-1.757.484-31.927 0-28.93-.035-31.53-.438-31.974-.417-.46-1.401-.484-20.55-.484-18.344 0-20.155.039-20.597.438-.463.42-.484 1.757-.484 31.928 0 28.93.036 31.529.438 31.973.417.461 1.402.484 20.55.484 18.345 0 20.156-.038 20.597-.438zm-39.03-1.633c-.402-.444-.438-2.933-.438-30.386 0-28.633.02-29.921.484-30.34.44-.399 2.106-.438 18.48-.438 17.098 0 18.018.024 18.434.484.402.444.437 2.941.437 30.506 0 22.998-.074 30.097-.317 30.34-.24.241-4.706.318-18.48.318-17.26 0-18.184-.024-18.6-.484zm36.815-.098c.461-.461.461-60.023 0-60.484-.459-.46-36.212-.46-36.67 0-.462.46-.462 60.023 0 60.484.458.459 36.211.459 36.67 0zm-35.783-1.065c-.226-.323-.412-1.047-.412-1.608 0-1.305 1.246-2.693 2.245-2.502.618.118.627.098.263-.605-.957-1.85-.67-4.858.61-6.378 1.864-2.217 4.725-2.908 7.249-1.753 2.261 1.036 3.656 3.14 3.656 5.518 0 2.27-1.22 4.258-3.274 5.339-2.041 1.073-5.73.588-6.98-.917-.376-.453-2.354-.3-2.544.195-.095.247.096.346.634.33 1.001-.028 1.581.475 1.581 1.373 0 1.497-2.177 2.222-3.028 1.008zm1.92-.805c.105-.546-.658-.915-1.062-.512-.403.404-.034 1.167.512 1.062a.75.75 0 0 0 .55-.55zm30.624.805c-.657-.937-.535-2.753.238-3.525.66-.66 1.57-.827 2.228-.41.464.294.109.905-.41.706-.426-.164-1.41.266-1.41.615 0 .12.286.164.636.097.753-.144 1.746.72 1.746 1.518 0 1.405-2.229 2.14-3.028 1zm1.573-1c0-.339-.15-.666-.331-.727-.406-.135-.71.576-.491 1.147.232.606.822.306.822-.42zm-9.525-.766c-3.294-1.529-4.575-5.546-2.77-8.692.917-1.6 2.286-2.58 4.233-3.029 1.11-.256 1.556-.233 2.741.14 4.708 1.485 6.187 6.866 2.814 10.239-1.84 1.84-4.747 2.396-7.018 1.342zm-18.654-12.894a22.483 22.483 0 0 1-1.379-.644c-.583-.293-1.046-.39-1.14-.238-.271.44-1.425.28-1.979-.274-.628-.628-.687-1.656-.128-2.215.307-.307.362-.737.232-1.837-.389-3.312 1.876-6.3 5.256-6.933 1.776-.334 3.586.317 5.097 1.831 2.965 2.97 2.582 7.1-.884 9.536-.942.662-1.422.804-2.903.86-.976.037-1.953-.002-2.172-.086zm-3.175-2.17c0-.345-.314-.574-.57-.416-.274.17-.038.636.321.636.137 0 .25-.099.25-.22zm21.829 1.97c-1.225-.535-2.479-1.705-3.115-2.907-.439-.83-.574-1.535-.567-2.944.013-2.163.402-3.057 1.934-4.44 3.964-3.582 10.319-.808 10.34 4.515.004.769-.17 1.821-.387 2.34-.294.702-.321 1.075-.11 1.47.711 1.329-.682 2.674-2.142 2.069-.49-.204-.912-.207-1.424-.012-1.001.38-3.568.329-4.53-.091zm6.89-.973c.284-.461-.04-.559-.403-.122-.209.252-.229.404-.053.404.155 0 .36-.127.456-.282zm-16.68-7.36c-2.036-.933-3.475-2.97-3.752-5.31-.275-2.32 1.454-5.104 3.794-6.113.61-.264 1.178-.719 1.274-1.023.354-1.113 2.538-.952 2.908.214.093.293.414.61.714.705.866.275 2.592 1.971 3.182 3.128.722 1.415.769 3.903.1 5.278-1.49 3.06-5.247 4.486-8.22 3.122zm3.109-12.113a1.021 1.021 0 0 0-.662 0c-.182.074-.033.134.331.134s.513-.06.33-.134zm-12.913 3.662c-1.399-.657-2.88-2.41-3.298-3.901-.19-.682-.27-1.797-.184-2.62.109-1.058.05-1.514-.229-1.745-.998-.829.317-2.845 1.557-2.386.418.155.858.034 1.61-.44 1.226-.774 3.496-1.056 5.07-.63 1.975.535 3.926 2.677 4.461 4.9.347 1.438-.104 3.519-1.01 4.663-1.46 1.845-2.63 2.457-4.909 2.567-1.556.075-2.231-.015-3.068-.408zm-2.299-9.724c-.26-.26-.73.14-.73.621 0 .404.035.404.448-.009.246-.246.373-.521.282-.612zm21.317 9.304c-2.252-1.288-3.258-2.97-3.258-5.448 0-2.999 1.567-5.151 4.337-5.957 1.373-.399 1.716-.408 3.04-.085 1.015.248 1.715.285 2.194.117.533-.188.872-.138 1.396.205.578.38.685.635.651 1.566-.022.611.141 1.587.362 2.167.746 1.963.057 5.023-1.44 6.391-1.422 1.3-2.402 1.68-4.325 1.678-1.465-.002-2.083-.135-2.957-.634zm7.322-10.21c0-.146-.126-.265-.28-.265-.154 0-.206.12-.116.265.09.145.216.264.28.264.064 0 .116-.119.116-.264zm-26.456-2.835c-2.369-1.201-3.936-3.948-3.61-6.325.816-5.96 8.536-7.698 11.67-2.628.712 1.15.802 1.525.802 3.344 0 1.853-.077 2.157-.802 3.188-.44.627-1.313 1.5-1.94 1.94-.99.696-1.402.81-3.167.875-1.531.057-2.256-.04-2.953-.394zm19.515.087c-2.096-1.135-3.201-2.585-3.66-4.803-.286-1.387-.269-1.77.131-2.974.982-2.957 3.775-4.574 6.899-3.993.873.162 2.18.31 2.905.329 1.16.03 1.359.12 1.668.761.395.821.882.923 1.493.312.553-.553.53-.591-.255-.44-1.473.28-2.354-1.839-1.122-2.701.84-.589 1.609-.51 2.312.238.516.55.589.844.469 1.908-.169 1.494-.88 2.205-2.208 2.205-.493 0-.897.04-.897.091 0 .05.192.476.426.945.307.615.397 1.362.323 2.675-.121 2.135-.942 3.554-2.823 4.876-.961.675-1.425.81-3.036.88-1.313.057-2.125-.038-2.625-.309zm7.206-10.217c0-.145-.126-.264-.28-.264-.154 0-.207.119-.117.264.09.146.216.265.28.265.064 0 .117-.12.117-.265zm2.603-1.955c.107-.56-.392-.975-.925-.77-.376.144-.482.922-.17 1.235.329.328.997.044 1.095-.465zm-34.155 3.093c-.766-.195-.55-.873.278-.873.683 0 1.376-.404 1.376-.801 0-.091-.338-.116-.751-.056-.882.13-1.632-.49-1.626-1.345.005-.725.24-1.078.97-1.463.827-.434 1.085-.385 1.816.346 1.608 1.608.07 4.735-2.063 4.192zm1.604-3.06c.102-.528-.652-.92-1.035-.538-.37.37.018 1.178.52 1.081.235-.045.467-.29.515-.543z" transform="translate(-44.955 -165.614)"/><path style="fill:#f5d905;stroke-width:.26458332" d="M48.918 227.328c-.44-.559-.543-.963-.439-1.74.181-1.359.833-2.03 1.97-2.03.769 0 .881-.073.713-.464a7.365 7.365 0 0 1-.411-4.424c1.19-5.316 8.358-6.077 10.89-1.156 1.23 2.392.887 4.592-1.024 6.562-2.225 2.293-5.551 2.53-7.99.571-.975-.783-2.033-.868-2.844-.228-.579.458-.382.927.333.79.364-.07.84.021 1.058.202.545.452.496 1.678-.088 2.206-.711.644-1.518.536-2.168-.29zm1.725-.86c0-1-1.028-.92-1.144.087-.074.65-.005.737.53.661.456-.064.614-.257.614-.748zm30.664.656c-.776-1.184-.015-3.418 1.219-3.578.772-.1 1.323.015 1.323.276 0 .146-.353.265-.785.265-.505 0-.882.182-1.058.511-.384.717-.369.734.522.603.991-.145 1.585.322 1.585 1.246 0 .941-.45 1.344-1.502 1.344-.635 0-.984-.179-1.304-.667zm1.88-.656c0-.485-.16-.684-.595-.746-.51-.072-.596.036-.596.746s.087.818.596.746c.436-.062.595-.262.595-.746zm-9.038-.655c-1.568-.475-2.624-1.31-3.462-2.736-.603-1.025-.726-1.537-.71-2.96.031-2.669 1.384-4.74 3.743-5.728 1.196-.501 3.45-.435 4.705.138.96.44 3.29 2.642 3.318 3.138.007.112.117.74.245 1.395.676 3.46-1.948 6.795-5.518 7.013-.671.041-1.716-.076-2.321-.26zm-19.39-13.148c-.5-.144-1.145-.426-1.432-.627-.342-.24-.896-.313-1.613-.215-.753.103-1.179.038-1.373-.21-.512-.65-.572-1.506-.149-2.11.293-.418.422-1.242.434-2.772.016-1.98.09-2.28.816-3.313 1.569-2.234 4.913-3.241 7.362-2.218 1.217.509 2.701 1.994 3.247 3.25.537 1.234.543 3.98.011 4.992-.63 1.203-2.325 2.681-3.58 3.124-1.297.457-2.375.486-3.723.099zm-2.933-1.741c-.005-.11-.172-.414-.372-.678-.404-.532-.831-.168-.578.492.15.39.965.55.95.186zm22.177 1.734c-1.39-.37-3.251-2.097-3.797-3.526-.687-1.8-.415-4.341.62-5.775 1.082-1.5 3.126-2.554 4.953-2.554 3.885 0 6.907 3.792 5.924 7.435-.173.64-.296 1.747-.274 2.46.021.712-.095 1.456-.258 1.653-.333.4-1.498.471-2.046.124-.21-.134-.852-.078-1.563.136-1.367.412-2.15.422-3.56.047zm6.406-.853c0-.06.072-.299.16-.53.23-.598-.236-.516-.628.112-.275.441-.264.529.069.529.22 0 .399-.05.399-.11zm-15.523-7.29c-1.195-.28-3.195-1.508-3.579-2.199-.65-1.17-1.27-3.234-1.27-4.223 0-2.049 1.825-4.52 3.865-5.23.426-.15.892-.535 1.034-.858.393-.89 1.568-1.206 2.236-.602.295.268.537.645.537.839 0 .194.445.538.989.765 1.374.574 2.152 1.359 2.88 2.901 1.033 2.192.645 5.12-.907 6.837-1.142 1.264-4.088 2.165-5.785 1.77zm2.03-12.187c0-.377-.7-.61-1.095-.366-.234.144-.181.258.186.402.724.283.908.276.908-.036zm-11.51 3.863a9.942 9.942 0 0 0-1.015-.27c-.413-.092-1.32-.699-2.016-1.35-1.615-1.51-2.259-3.303-1.892-5.267.207-1.107.17-1.405-.235-1.92-.87-1.106.077-2.428 1.486-2.074.431.108 1.012-.052 1.76-.486 3.121-1.81 6.952-.624 8.55 2.644.97 1.982.849 4.335-.309 5.981-1.09 1.553-2.858 2.595-4.639 2.734-.784.062-1.545.065-1.69.008zm-3.58-10.006c.012-.3-.73-.237-.926.079-.094.152-.098.468-.008.702.144.375.207.366.544-.079.21-.277.385-.593.39-.702zm21.386 9.144c-1.71-.843-3.022-2.326-3.282-3.708-.284-1.516.057-3.931.73-5.16.462-.846.992-1.327 2.076-1.885 1.33-.684 1.614-.734 3.307-.577 1.019.094 2.15.166 2.514.16l1.323-.017c.9-.009 1.39.716 1.195 1.771a2.645 2.645 0 0 0 .25 1.64c.232.45.407 1.462.407 2.359 0 3.296-2.182 5.702-5.454 6.013-1.349.128-1.76.048-3.066-.596zm7.197-9.856c0-.312-.516-.646-.706-.457-.19.19.145.706.457.706a.25.25 0 0 0 .249-.249zm-25.996-3.024c-1.474-.548-2.775-1.645-3.434-2.894-.743-1.41-.806-4.368-.12-5.665 1.054-1.992 3.262-3.335 5.473-3.33 3.648.01 6.187 2.544 6.208 6.196.009 1.571-.084 1.887-.912 3.1-1.582 2.318-4.823 3.483-7.215 2.593zm19.685.07c-1.094-.223-2.95-1.457-2.95-1.96 0-.216-.109-.393-.242-.393-.338 0-1.034-2.02-1.168-3.391-.177-1.81.31-3.195 1.562-4.447 1.626-1.627 4.19-2.145 6.51-1.317.56.2 1.12.253 1.322.125.674-.427 1.305-.225 1.752.561.473.832 1.29 1.042 1.853.478.588-.587.349-.902-.601-.792-.781.092-.965.006-1.228-.571-.462-1.014.266-2.023 1.46-2.023 1.153 0 1.569.54 1.569 2.04 0 1.008-.129 1.33-.746 1.86-.594.51-.926.608-1.632.475-.487-.091-.885-.116-.885-.055 0 .06.252.682.561 1.38 1.223 2.765-.185 6.272-3.068 7.64-1.005.477-2.803.65-4.07.39zm6.311-10.423a.398.398 0 0 0-.397-.397c-.413 0-.525.313-.22.617.304.305.617.193.617-.22zm2.514-1.984c0-.755-.836-1.074-1.088-.417-.24.628.1 1.261.624 1.16.293-.056.464-.33.464-.743zm-34.264 2.795c0-.236.327-.412.858-.464.584-.056.887-.238.95-.571.073-.387-.02-.453-.45-.316-.3.095-.779.047-1.066-.107-1.372-.734-.708-2.66.918-2.66.822 0 .981.114 1.332.953.464 1.11.304 2.172-.449 2.98-.61.654-2.093.785-2.093.185zm1.803-2.73c-.06-.523-.232-.727-.612-.727-.381 0-.553.204-.613.728-.073.63.009.727.613.727.603 0 .685-.097.612-.727z" transform="translate(-44.955 -165.614)"/><path style="fill:#a69819;stroke-width:.26458332" d="M48.918 227.328c-.44-.559-.543-.963-.439-1.74.181-1.359.833-2.03 1.97-2.03.769 0 .881-.073.713-.464a7.368 7.368 0 0 1-.414-4.411c.209-.934.438-1.417.617-1.306.177.11.209.052.084-.15-.456-.739 2.781-3.126 3.857-2.845.273.072.565.018.65-.118.19-.308 1.83-.027 2.89.495.436.215 1.171.75 1.634 1.188.732.695.807.887.579 1.487-.307.808-.679 1.087-1.454 1.092-.742.005-1.243-.63-1.028-1.306.22-.696 1.056-.697 1.543 0 .331.471.4.486.544.112.344-.896-1.127-2.417-1.926-1.99-.488.261-.58.278-1.512.278-.57 0-.638.067-.382.376.258.311.207.349-.299.219-.473-.122-.258.224.959 1.542 1.447 1.567 3.326 4.883 3.326 5.87 0 .518-1.83 2.058-2.43 2.045-.046 0-.109-.549-.14-1.217-.073-1.615-.95-3.353-2.5-4.963-1.24-1.285-1.283-1.306-1.798-.84-.29.263-.452.602-.359.752.104.168 0 .21-.267.107-.27-.104-.413-.045-.374.153.034.177-.113.283-.327.236-.283-.063-.247.076.132.508.287.327.36.5.162.383-.416-.244-.89.342-.622.77.267.426.301.957.051.803-.122-.076-.293-.025-.378.113-.085.137-.032.326.119.419.15.093.204.28.12.415-.083.136-.04.246.098.246.137 0 .307.304.378.676l.13.676-.562-.522c-.813-.757-2.81-.315-2.81.621 0 .208.244.282.663.201.364-.07.84.021 1.058.202.545.452.496 1.678-.088 2.206-.711.644-1.518.536-2.168-.29zm1.725-.86c0-1-1.028-.92-1.144.087-.074.65-.005.737.53.661.456-.064.614-.257.614-.748zm7.673-11.642c-.09-.145-.365-.256-.61-.246-.365.015-.35.06.081.246.708.304.717.304.53 0zm22.991 12.298c-.776-1.184-.015-3.418 1.219-3.578.772-.1 1.323.015 1.323.276 0 .146-.353.265-.785.265-.505 0-.882.182-1.058.511-.384.717-.369.734.522.603.991-.145 1.585.322 1.585 1.246 0 .941-.45 1.344-1.502 1.344-.635 0-.984-.179-1.304-.667zm1.88-.656c0-.485-.16-.684-.595-.746-.51-.072-.596.036-.596.746s.087.818.596.746c.436-.062.595-.262.595-.746zm-6.108-.665c1.985-.509 2.185-.687 2.135-1.908-.022-.55.027-1.118.11-1.264.083-.145.154-.562.159-.926.004-.363.103-.81.218-.992.116-.182.114-.332-.004-.335-.118-.002-.035-.13.183-.284.353-.25.353-.268 0-.162-.218.066-.364.263-.324.437.04.175-.042.246-.182.16-.14-.087-.21-.393-.155-.681.069-.355-.044-.525-.347-.528-.385-.003-.392-.04-.05-.26.279-.18.295-.258.056-.261-.258-.003-.271-.132-.056-.533.56-1.046-.53-.564-1.961.868-.959.958-1.577 1.875-1.968 2.92-.632 1.69-.747 3.492-.239 3.732.182.086-.026.088-.463.006-2.164-.41-4.024-2.68-4.244-5.184l-.124-1.416.382 1.656c.21.911.644 2.025.965 2.475l.582.818.592-1.865c.674-2.128 1.96-4.02 3.772-5.552.688-.581 1.188-1.12 1.112-1.196-.281-.285-4.04-.414-4.523-.156-.29.155-.498.552-.498.948v.682l.48-.593c.346-.427.636-.542 1.044-.412 1.21.384.93 2.004-.347 2.004-.64 0-1.805-1.213-1.555-1.618.08-.129.044-.234-.079-.234-.278 0-1.119 1.402-1.402 2.34-.134.443-.22.528-.235.23-.064-1.327 1.812-3.577 3.607-4.33 1.196-.501 3.45-.435 4.705.139.96.438 3.29 2.64 3.318 3.137.007.112.117.74.245 1.395.36 1.837-.118 3.566-1.355 4.908-1.208 1.31-2.305 1.892-3.945 2.092-1.02.125-.968.09.391-.257zm2.95-1.779c.044-.296-.068-.38-.36-.267-.314.12-.334.192-.077.278.283.094.28.163-.013.368-.3.21-.298.236.013.152.206-.055.402-.294.437-.53zm.115-.863c0-.042-.158-.137-.352-.211-.194-.075-.353.02-.353.21 0 .191.159.286.353.212.194-.075.352-.17.352-.211zm-.05-2.124c-.082-.082-.23.065-.33.326-.143.377-.113.408.149.148.18-.18.262-.393.18-.474zm-18.52 1.594c.133-.29.309-.707.39-.926.127-.342.15-.34.168.016.011.227-.164.644-.39.926-.406.505-.408.505-.169-.016zm.645-2.38c.003-.583.058-.79.12-.46.064.328.062.805-.004 1.058-.067.253-.118-.017-.116-.599zm-6.152-7.45c2.654-.407 2.46-.284 2.273-1.456-.223-1.396-1.009-2.904-2.198-4.22-1.229-1.36-2.396-2-2.817-1.543-.23.25-.208.281.096.135.313-.15.308-.116-.023.16-.493.412-.566 1.283-.091 1.1.436-.167.736.353.342.596-.182.112-.239.077-.138-.086.103-.167-.082-.262-.465-.24-.498.03-.574.115-.346.39.216.26.193.412-.09.59-.309.197-.312.242-.016.245.308.003.308.072 0 .452-.313.386-.308.417.034.226.31-.174.33-.15.087.113-.347.376-.168 1.147.212.912.133-.083.226-.053.205.067-.164.943.11 1.396 1.15 1.91.618.307.943.557.723.557-.22 0-.828-.229-1.35-.509-.67-.359-1.258-.468-1.992-.369-.702.094-1.133.023-1.323-.218-.51-.65-.57-1.506-.148-2.11.293-.418.422-1.242.434-2.772.016-1.98.09-2.28.816-3.313 1.084-1.544 3.148-2.615 5.04-2.615 1.527 0 2.433.305 3.71 1.248.733.54.802.707.659 1.591-.124.76-.324 1.045-.869 1.237-1.22.429-2.106-.89-1.138-1.693.319-.265.524-.244 1.058.106.389.254.663.315.663.146 0-.585-.566-1.317-1.317-1.706-.998-.516-1.632-.512-.947.006.282.214.391.389.242.389-.149 0-.36-.09-.47-.199-.246-.247-1.482-.288-1.33-.044.06.098-.239.248-.664.333-.572.114-.763.295-.733.694.022.296.124.538.227.538.38 0 3.224 2.79 3.84 3.765.35.554.854 1.564 1.122 2.245l.486 1.237.367-.647a13.46 13.46 0 0 0 .678-1.44c.198-.505.318-.62.331-.318.085 2.007-3.467 4.744-6.032 4.647-.671-.025-.76-.066-.298-.137zm-4.241-1.877c-.005-.11-.172-.414-.372-.678-.404-.532-.831-.168-.578.492.15.39.965.55.95.186zm22.19 1.737c-1.296-.345-3.09-1.922-3.691-3.244-.32-.702-.476-1.622-.455-2.66l.033-1.588.174 1.852c.105 1.124.372 2.153.677 2.617l.504.765.18-.671c.436-1.633 2.004-4.017 3.607-5.486 1.626-1.49 1.666-1.556 1.145-1.921-.297-.208-.47-.45-.383-.535.086-.087-.094-.092-.4-.012-.307.08-.731.001-.943-.175-.548-.454-2.62.696-2.739 1.52-.094.662.342.809.578.194.318-.83 1.756-.272 1.756.682 0 1.34-1.93 1.28-2.5-.077l-.35-.832-.547 1.04c-.302.571-.554.854-.56.628-.023-.81 1.586-2.59 2.96-3.274 4.603-2.294 9.953 1.888 8.641 6.754-.173.64-.296 1.747-.274 2.46.021.712-.095 1.456-.258 1.653-.333.4-1.498.471-2.046.124-.21-.134-.852-.078-1.563.136-1.364.41-2.15.422-3.546.05zm4.442-.647c.97-.46 1.882-1.798 1.42-2.083-.144-.09-.263-.057-.263.073s-.194.236-.432.236c-.393 0-.394-.027-.01-.308.607-.444 1.028-1.654.656-1.884-.192-.119-.22-.061-.081.164.144.234.11.282-.105.15-.223-.139-.236-.296-.043-.529.151-.182.187-.42.08-.528-.27-.27-.262-.78.015-.975.126-.089.034-.236-.204-.327-.284-.11-.369-.063-.245.136.117.19.069.23-.132.106-.245-.152-.24-.294.025-.621.225-.277.235-.359.03-.236-.173.104-.415.011-.536-.206-.196-.35-.312-.35-1.009.01-2.021 1.042-3.85 3.78-3.92 5.87-.04 1.166.002 1.245.752 1.423 1.099.26 2.91.048 4.002-.47zm.526-3.322c.076-.123.25-.156.385-.072.346.214.307.297-.139.297-.212 0-.323-.101-.246-.225zm1.425 3.113c0-.06.072-.299.16-.53.23-.598-.236-.516-.628.112-.275.441-.264.529.069.529.22 0 .399-.05.399-.11zm-17.97-5.07c.012-.309.075-.372.159-.16.076.19.067.419-.02.507-.089.088-.151-.069-.14-.348zm3.215-2.096c.106-.116.454-.341.773-.502.77-.387.935-.952.278-.952-.285 0-.678-.193-.873-.428-.304-.366-.266-.499.27-.933.549-.444.692-.46 1.182-.138.717.474.853 1.409.294 2.026-.409.452-.406.493.045.61.337.088.284.128-.179.133-.363.003-.959.093-1.323.2-.363.108-.574.1-.467-.016zm-1.17-.312c.191-.077.42-.067.507.02.088.088-.068.151-.347.14-.308-.013-.37-.076-.16-.16zm-3.098-.691c-.335-.558-.33-.563.126-.127.262.251.42.514.35.583-.07.07-.284-.136-.476-.456zm8.872-.718c.31-.363.812-1.136 1.113-1.718.301-.582.553-.964.56-.85.025.448-1.022 2.2-1.614 2.7l-.624.528zm-8.91-.542c-.317-.445-.532-.854-.478-.908.054-.054.366.31.693.81.737 1.124.57 1.2-.215.098zm1.598-2.013c-.8-.223-1.633-.424-1.852-.446-.709-.071-1.058-.642-1.058-1.728 0-1.171.479-2.475.83-2.258.122.075.158-.03.079-.236-.195-.508 1.179-2.103 1.654-1.92.216.082.303.027.206-.13-.095-.154.284-.453.857-.678.565-.222 1.141-.66 1.28-.976.14-.315.583-.688.987-.828.6-.209.831-.158 1.27.281.295.295.554.782.577 1.082.023.307.181.493.36.424.876-.336 2.687 1.253 3.52 3.09.704 1.554.756 3.847.088 3.877-.255.011-1.173.215-2.04.453-1.945.534-4.827.531-6.758-.008zm6.462-2.295c.57-.172 1.079-.439 1.13-.593.127-.382-.816-1.434-1.286-1.434-.208 0-.509-.13-.667-.288-.159-.159-.688-.327-1.177-.373-.49-.047-1.009-.12-1.154-.163-.146-.043-.645.124-1.11.372-.588.313-.9.361-1.025.158-.125-.203-.25-.182-.408.067-.19.301-.228.3-.231-.004-.003-.274-.092-.29-.36-.068-.195.162-.433.216-.529.12-.095-.095-.174.038-.174.298 0 .342-.146.434-.529.334-.887-.232-.864.29.033.754 2.275 1.177 5.232 1.5 7.487.82zm-2.493-5.74c0-.377-.698-.61-1.094-.366-.234.144-.181.258.186.402.724.283.908.276.908-.036zm-11.51 3.863a9.942 9.942 0 0 0-1.014-.27c-.413-.092-1.32-.699-2.016-1.35-1.615-1.51-2.259-3.303-1.892-5.267.207-1.107.17-1.405-.235-1.92-.542-.689-.429-1.556.25-1.92.556-.297 2.393-.223 2.201.09-.076.125-.007.309.155.41.205.126.16.374-.15.815-.244.35-.454 1.018-.466 1.486-.02.776.027.826.515.566.48-.256.499-.24.173.155-.2.242-.26.442-.132.444.127.002.052.12-.166.26-.251.163-.279.259-.075.261.188.002.254.183.159.432-.137.356-.076.38.36.147.408-.219.526-.199.526.09 0 .203-.088.316-.196.25-.108-.067-.067.152.091.486.158.335.546.63.861.656 1.572.13 4.474-4.057 4.486-6.47.003-.628.059-1.142.123-1.142.348-.002 2.17 1.474 2.562 2.077.413.635.415.667.012.337-.391-.32-.444-.29-.457.265-.04 1.707-1.87 4.643-3.886 6.237l-1.3 1.027.652.492c1.573 1.186 4.291.385 4.28-1.26-.003-.328-.088-.454-.199-.293-.372.544-1.067.61-1.492.14-.55-.607-.532-.904.088-1.465.696-.63 1.536-.318 1.966.73l.345.84.43-.794c.238-.436.437-.662.443-.502.022.613-1.607 2.482-2.744 3.148-1.09.64-3.518 1.102-4.257.812zm-3.678-9.187c.126-.205.066-.235-.183-.093-.3.171-.308.143-.04-.145.438-.472.418-.78-.051-.78-.49 0-.765.448-.577.94.177.46.59.499.85.078zm22.464 8.803c-.478-.206-.433-.274.463-.708.546-.263.992-.572.992-.686 0-.114.15-.171.331-.127.182.044.24.03.13-.031-.11-.061-.12-.25-.023-.42.097-.17.088-.228-.02-.13-.393.35-3.576-3.005-4.384-4.623-.438-.876-.796-1.759-.796-1.963 0-.22-.128-.29-.317-.174-.174.108-.08-.208.208-.703.288-.494.937-1.135 1.441-1.426.742-.426.85-.443.562-.085-.457.57-.05 1.904 1.153 3.77 1.025 1.589 1.953 2.464 3.645 3.435l1.267.728-.125-.688c-.068-.38.005-.769.163-.867.183-.113.21-.052.073.17-.145.233-.111.282.104.149.223-.138.236-.296.043-.528-.339-.409-.097-.695.419-.497.29.111.352-.02.256-.547-.07-.382-.036-.694.073-.694.109 0 .213-.685.231-1.522.018-.836.07-1.746.115-2.022.045-.275-.086-.56-.291-.631-.258-.09-.322.003-.206.305.13.34-.007.306-.625-.15-.781-.578-.784-.59-.23-.887 1.302-.697 2.548.27 2.228 1.728-.103.471-.01 1.062.247 1.559.24.462.414 1.463.414 2.37 0 3.308-2.199 5.724-5.454 5.994-.857.072-1.796.027-2.087-.099zm6.848-3.616c.09-.236.046-.342-.104-.25-.144.09-.261.274-.261.411 0 .38.19.297.365-.161zm-9.427 2.376c-.402-.408-.19-1.876.355-2.46.495-.532.614-.556 1.11-.226.734.487.803.769.34 1.392-.324.437-.468.468-.913.196-.48-.293-.537-.248-.612.488-.045.446-.171.72-.28.61zm-9.11-4.347c0-.946.048-1.333.107-.86a8.421 8.421 0 0 1 0 1.72c-.059.473-.107.086-.107-.86zm-10.139-1.956c0-.057.185-.175.41-.262.236-.09.342-.046.25.104-.156.252-.66.372-.66.158zm.933-3.06c-.417-.675 3.033-1.539 4.491-1.124.634.18.448.222-.926.209-1.732-.018-3.556.5-3.288.935.08.128.085.233.012.233-.073 0-.203-.114-.289-.253zm20.366-1.083c.515-.208 3.506-.348 3.285-.154-.06.054-.943.158-1.962.233-1.06.077-1.626.044-1.323-.079zm3.787.097c.19-.076.42-.067.507.021.088.088-.068.15-.347.14-.308-.013-.371-.076-.16-.16zm-23.036-1.769c-1.19-.443-2.73-1.577-3.114-2.294-.153-.285-.205-.518-.117-.518.088 0-.036-.197-.276-.437-.24-.24-.378-.656-.308-.926s.02-.49-.112-.49c-.312 0-.312-1.775 0-1.968.132-.082.18-.38.106-.66-.17-.652.797-2.346 1.795-3.146.53-.424.719-.486.608-.198-.188.491-.002.522.74.125.3-.16.473-.175.386-.034-.088.141-.499.397-.914.57-.416.171-.756.478-.756.68 0 .284.128.307.552.102.426-.208.401-.146-.11.273-.364.297-.55.543-.413.547.137.003.024.17-.25.37-.436.319-.45.413-.114.749.211.211.548.33.75.262.22-.073.292-.004.18.178-.102.164-.03.3.161.303.252.003.238.074-.05.26-.218.141-.516.257-.662.257-.145 0-.086-.116.133-.257.238-.154.27-.258.081-.26-.537-.007-.645.479-.165.747.365.205.392.332.135.642-.269.324-.21.374.358.312.538-.06.617-.002.386.277-.205.247-.208.403-.01.526.155.096.22.274.144.397-.24.39 1.023.106 1.885-.423 1.05-.644 2.7-2.598 3.211-3.805.217-.51.472-1.522.569-2.25l.176-1.322 1.298 1.274c.77.757 1.184 1.348 1.019 1.456-.154.099-.416.597-.583 1.106-.167.51-.59 1.397-.938 1.973l-.634 1.047.569.283c.312.156.695.67.849 1.142.154.473.382.768.507.655.125-.113 0 .116-.28.508-1.218 1.713-4.736 2.732-6.792 1.967zm4.777-.992c.853.103 1.375-.42 1.375-1.377 0-.633-.07-.743-.317-.496-.437.437-.888.397-1.408-.123-.257-.257-.512-.334-.614-.185-.096.14-.563.525-1.037.857-.475.331-.794.714-.71.851.085.137.295.168.466.07.172-.099.225-.082.117.037-.108.12-.066.374.094.566.228.275.411.283.857.038.312-.171.842-.279 1.177-.238zm14.908 1.063c-.462-.095-1.31-.483-1.883-.863l-1.043-.69.382-1.26c.21-.694.384-1.277.385-1.296.002-.02.225-.093.495-.164.732-.192 1.36.273 1.36 1.006 0 .5-.139.648-.608.648-.335 0-.752-.143-.926-.317-.247-.247-.318-.164-.318.375 0 1.066.258 1.512 1.133 1.965.682.353.957.365 1.82.08.559-.184 1.016-.443 1.016-.575 0-.132.224-.17.498-.083.318.102.556.007.658-.26.089-.23.063-.358-.057-.284-.12.074-.217-.028-.217-.226 0-.203.182-.306.419-.237.23.067-.01-.116-.533-.408-2.211-1.232-5-5.048-5.001-6.843 0-.838-.385-.74-1.028.265-.303.473-.553.766-.555.652-.015-.691 2.48-3.1 3.21-3.1.124 0 .225.328.225.728 0 1.199 1.415 3.818 2.7 4.997 1.298 1.192 2.55 1.996 2.183 1.4-.147-.237-.08-.286.233-.166.513.197.579-.1.123-.556-.424-.423.112-.41.563.014.194.181.128-.022-.145-.453-.274-.431-.349-.692-.167-.58.492.304.952-.059.605-.477-.204-.245-.169-.432.126-.676.365-.303.364-.385-.014-.803-.32-.352-.343-.513-.098-.664.199-.123.254-.09.145.088-.098.158-.067.355.068.439.293.18.24-.36-.087-.884-.158-.255-.135-.312.074-.183.704.435.232-.394-.627-1.102-.513-.423-.781-.784-.596-.802a10.92 10.92 0 0 0 1.06-.207c.617-.147.792-.051 1.191.65.49.86 1.298 1.08 1.87.507.588-.587.349-.902-.601-.792-.781.092-.965.006-1.228-.571-.462-1.014.266-2.023 1.46-2.023 1.153 0 1.569.54 1.569 2.04 0 1.008-.129 1.329-.746 1.86-.594.51-.926.608-1.632.475-.487-.091-.885-.116-.885-.055 0 .06.252.682.561 1.38.79 1.784.573 3.71-.612 5.452-.482.708-1.023 1.23-1.203 1.162-.18-.068-.3.02-.265.197.035.176-.144.305-.397.285-.253-.02-.395.07-.315.199.353.57-2.658 1.08-4.345.736zm6.311-10.424a.398.398 0 0 0-.397-.397c-.413 0-.525.313-.22.617.304.305.617.193.617-.22zm2.514-1.984c0-.755-.836-1.074-1.088-.417-.24.628.1 1.261.624 1.16.293-.056.464-.33.464-.743zm-21.085 9.128c.134-.291.31-.708.39-.926.127-.343.15-.341.168.015.012.227-.164.644-.39.926-.405.506-.408.505-.168-.015zm.651-2.514c0-.655.052-.923.115-.595a3.77 3.77 0 0 1 0 1.19c-.063.328-.115.06-.115-.595zm-.315-1.742c.012-.308.075-.37.16-.16.076.192.066.42-.021.508-.088.088-.15-.069-.14-.348zm-13.515-2.077c0-.236.327-.412.858-.464.584-.056.887-.238.95-.571.073-.387-.02-.453-.45-.316-.3.095-.779.047-1.066-.107-1.372-.734-.708-2.66.918-2.66.822 0 .981.114 1.332.953.464 1.11.304 2.172-.449 2.98-.61.654-2.093.785-2.093.185zm1.803-2.73c-.06-.523-.232-.727-.612-.727-.381 0-.553.204-.613.728-.073.63.009.727.613.727.603 0 .685-.097.612-.727zm4.216.553c.182-.073.48-.073.662 0 .182.074.033.134-.331.134s-.513-.06-.33-.134zm2.927-.006c.191-.076.42-.067.507.021.088.088-.068.15-.347.139-.308-.013-.37-.075-.16-.16zm16.652.006c.182-.073.48-.073.662 0 .182.074.033.134-.33.134-.365 0-.513-.06-.332-.134zm2.134-.006c.19-.076.419-.067.507.021.088.088-.069.15-.348.139-.308-.013-.37-.075-.16-.16zM56 170.465c.182-.073.48-.073.662 0 .182.073.033.134-.331.134s-.513-.06-.33-.134z" transform="translate(-44.955 -165.614)"/><path style="fill:#b92621;stroke-width:.26458332" d="M49.132 227.592c-.595-.685-.77-1.747-.442-2.686.323-.929.926-1.349 1.936-1.349.893 0 .878.47-.019.578-.383.046-.874.352-1.09.679-.384.581-.374.591.432.43 1.023-.204 1.62.244 1.62 1.215 0 1.358-1.597 2.1-2.437 1.133zm1.595-1.058c-.06-.523-.232-.728-.613-.728-.38 0-.552.205-.613.728-.072.63.01.728.613.728.604 0 .686-.097.613-.728zm30.707.82c-.544-.656-.461-2.575.14-3.24.522-.576 2.275-.801 2.275-.292 0 .146-.353.265-.785.265-.505 0-.882.182-1.058.511-.403.753-.353.814.519.64.47-.094.955-.025 1.19.171.477.395.524 1.62.08 2.064-.463.463-1.94.388-2.361-.12zm1.753-.886c0-.473-.16-.684-.562-.742-.613-.087-.973.49-.719 1.153.264.686 1.281.36 1.281-.411zm-24.813-2.23c-.226-2.196-1.764-4.662-3.65-5.852-1.029-.65-1.112-.662-1.743-.248-.365.24-.602.496-.527.571.075.075-.074.512-.331.971-.28.498-.458 1.342-.445 2.092.026 1.394-.081 1.52-.594.7-.288-.462-.287-.524.003-.36.192.108.155-.01-.083-.264-.377-.4-.391-.637-.112-1.823.176-.75.531-1.765.789-2.257.323-.619.378-.95.177-1.075-.443-.274 1.17-1.708 1.695-1.507.235.09.808.011 1.272-.176.465-.186.994-.319 1.176-.295.182.025.636.06 1.008.078 1 .049.559.466-.707.669l-1.1.176 1.85 1.909c1.838 1.896 2.943 3.664 3.456 5.527.235.85.197 1.035-.3 1.488-.313.284-.82.646-1.128.804-.529.272-.567.211-.706-1.127zm14.007.752c-.831-.565-.942-.738-.634-.992.205-.17.523-.844.707-1.499.573-2.047 1.66-3.711 3.552-5.438l1.826-1.667-1.159-.298c-1.696-.437-1.78-.49-.802-.514.487-.011 1.302.177 1.81.418.73.347.969.369 1.132.104.152-.245.506-.066 1.313.663.607.549 1.225 1.246 1.373 1.55.236.485.21.479-.223-.055-.704-.872-.889-.464-.322.71.37.767.455 1.401.358 2.699-.198 2.653-.251 2.88-.783 3.36-.489.443-.489.44-.004-.143.272-.327.387-.595.256-.595-.132 0-.24-.883-.24-1.962 0-1.653-.1-2.097-.63-2.816-.348-.47-.467-.755-.265-.633.31.186.31.152.009-.22-.323-.398-.432-.402-1.121-.046-2.2 1.138-4.016 3.892-4.355 6.608-.101.814-.315 1.45-.486 1.45-.168 0-.758-.308-1.312-.684zm8.822-2.195c0-.146.119-.338.264-.428.146-.09.265-.045.265.1 0 .146-.12.339-.265.429-.145.09-.264.044-.264-.101zm.59-1.883c0-.51.055-.718.121-.463.067.254.067.671 0 .926-.066.254-.12.046-.12-.463zm-22.762-2.7c-.431-.43-.401-1.18.053-1.355.606-.232 1.228.408 1.05 1.078-.176.656-.614.767-1.103.278zm13.809-.892c-.199-.79.16-1.26.86-1.127.59.113.82 1.256.316 1.576-.623.394-1 .25-1.176-.449zm-1.32-1.398c.54-.606.687-.685.687-.366 0 .11-.268.366-.595.567-.594.364-.594.364-.092-.201zm2.804-1.096c0-.145.126-.264.28-.264.154 0 .206.119.116.264-.09.146-.216.265-.28.265-.064 0-.116-.12-.116-.265zm.86-2.034c.254-.067.67-.067.925 0 .255.066.047.12-.463.12-.509 0-.717-.054-.463-.12zm3.968-.258c-.514-.207-.395-.515.397-1.03.633-.413.68-.417.365-.031-.311.379-.306.443.037.443.466 0 .77-.628.564-1.164-.078-.204-.015-.449.141-.545.166-.103.196-.36.072-.622-.116-.246-.193-.924-.17-1.506.024-.582-.068-1.274-.204-1.538A4.667 4.667 0 0 1 80 205.5c-.231-1.2-1.16-1.275-2.812-.228-1.903 1.207-3.144 3.107-3.738 5.724l-.333 1.466-1.12-.958c-.616-.528-1.244-1.216-1.395-1.53-.273-.566-.271-.567.165-.044.297.355.482.424.563.21.988-2.627 2.682-4.985 4.808-6.693.609-.49 1.068-1.009 1.02-1.154-.049-.145-.497-.401-.996-.57l-.907-.305.624-.334c.344-.184.56-.23.48-.1-.08.128.383.423 1.027.655.644.231 1.17.316 1.17.189 0-.128-.138-.232-.308-.232-.17 0-.235-.073-.146-.162.257-.258 1.86.843 2.512 1.725.407.55.468.755.194.65-.502-.192-.503.119-.006 1.308.47 1.124.729 6.763.334 7.26-.26.328-1.346.414-1.984.156zm-20.76-1.632c-.839-2.856-3.63-6.006-5.15-5.813-.347.044-.633.166-.635.272-.002.106-.16.492-.35.86-.424.815-.393 4.015.046 4.808.35.63.032.887-1.1.887-.816 0-1.221-.49-1.221-1.476 0-.996.696-1.757 1.063-1.162a.61.61 0 0 1-.05.707c-.359.433-.09 1.137.434 1.137.456 0 .544-.412.14-.661-.145-.09-.264-.283-.264-.429 0-.145.129-.184.286-.087.158.097.098-.187-.132-.633-.465-.898-.549-2.9-.177-4.197.166-.579.15-.874-.05-.94-.434-.145 1.13-2.078 1.633-2.02.233.028.9-.165 1.483-.428.582-.263 1.348-.513 1.702-.556.585-.07.566-.03-.205.439-.467.284-.952.516-1.079.516-.126 0-.292.162-.368.36-.086.225.264.588.923.958 1.487.836 3.684 3.115 4.35 4.515 1.543 3.234 1.487 2.788.465 3.685-.502.44-.997.8-1.101.8-.104 0-.394-.694-.643-1.543zm.46-6.294c-.92-.92.192-1.924 1.16-1.05.255.232.544.342.64.244.098-.097.178-.044.178.117 0 .292-1.007 1.118-1.363 1.118-.103 0-.38-.193-.616-.43zm13.672-.153c-.788-.788.044-1.756.959-1.115.465.326.524.505.303.919-.313.584-.798.66-1.262.196zm-5.197-.966c.141-.518.088-.596-.32-.469-.667.208-1.223-.19-1.106-.793.13-.673 1.246-.652 1.693.031.288.441.28.64-.045 1.191-.384.649-.388.65-.222.04zm3.784-.503c.331-.473.658-.86.726-.86.229 0-.39.966-.862 1.345-.332.266-.292.125.136-.485zm-10.81-.61c0-.155.119-.207.264-.118.146.09.265.217.265.28 0 .065-.12.117-.265.117-.145 0-.264-.126-.264-.28zm12.17-.618c0-.058.185-.175.411-.262.236-.09.342-.046.25.104-.156.251-.66.372-.66.158zm-7.937-1.182c-.655-.1-1.935-.463-2.844-.804-1.546-.58-1.654-.675-1.65-1.448.002-.456.074-1.092.16-1.415l.158-.587.831.618c2.133 1.585 5.777 2.06 8.567 1.116 2.126-.718 2.124-1.104-.015-2.538-1.292-.866-1.492-.917-3.487-.894-2.165.025-3.725.474-4.725 1.36-.495.439-.5.433-.181-.175.24-.456.25-.68.035-.811-.19-.118-.035-.412.434-.827.524-.462.599-.489.268-.094-.79.942-.511.965.795.067 1.017-.7 1.575-.885 2.933-.971 1.063-.068 1.936.02 2.382.242 1.33.66 2.426 1.596 2.857 2.441.238.465.595.941.794 1.058.217.127.36.67.36 1.367v1.156l-1.653.54c-1.908.623-4.309.862-6.019.599zm-7.144-4.535c0-.146.126-.265.28-.265.155 0 .207.12.117.265-.09.145-.216.264-.28.264-.064 0-.117-.119-.117-.264zm-2.29-.46c-.55-.19-1.159-.285-1.353-.21-.194.073-.853-.342-1.464-.924-.61-.582-.902-.985-.647-.895.566.2.597-.1.069-.683-.66-.729-.887-3.39-.401-4.696.23-.616.576-1.271.77-1.455.294-.278.3-.229.03.295-.44.854-.198 4.032.358 4.692.231.275.571.703.756.953.309.417.452.373 1.776-.545 2.093-1.451 3.346-3.438 4.158-6.595l.223-.866.875.601c.812.558.865.682.733 1.724-.288 2.27-2.597 5.596-4.853 6.99l-.92.569.627.482c.345.265.776.484.958.488.182.003.33.1.33.213 0 .313-.901.251-2.025-.138zm20.918-.547 1.563-.723-.769-.349c-2.358-1.071-4.465-3.403-5.53-6.12l-.614-1.566.625-.674c.343-.37.726-.674.851-.674s.374.571.553 1.269c.41 1.598 1.436 3.16 2.956 4.495 1.029.904 3.111 2.174 3.564 2.174.413 0 1.237-2.675 1.278-4.15.058-2.038.496-1.767.653.404.085 1.175-.02 1.853-.43 2.782-.583 1.317-.322 1.709.333.5.217-.4.4-.618.406-.486.006.133-.285.746-.646 1.361-.626 1.07-2.574 2.512-3.36 2.489-.192-.006.056-.186.55-.401 1.267-.55.825-.788-.553-.297-.627.223-1.557.469-2.066.547-.79.12-.698.036.636-.581zm-15.266-.842c.076-.29.25-.458.385-.374.146.09.12.306-.062.527-.418.502-.486.47-.323-.153zm10.838.35c-.097-.098-.167-.485-.154-.86.022-.672.027-.67.256.096.24.806.205 1.07-.102.763zm-12.51-1.264c-.282-.732.024-1.337.716-1.418 1.003-.117 1.46.547.858 1.25-.544.635-1.362.723-1.575.168zm12.896-.307c-.31-.356-.304-.477.036-.818.576-.576 1.574-.21 1.467.537-.1.7-.993.866-1.503.28zm-7.364-.486c.248-.248.451-.564.451-.702s.293-.385.65-.548c.522-.237.785-.209 1.324.144.737.483.904 1.222.275 1.222a.398.398 0 0 1-.397-.397c0-.496-.958-.523-1.243-.034-.117.199-.504.453-.861.564-.612.19-.623.175-.199-.25zM50.3 187.52c-.174-.174-.317-.646-.317-1.049 0-.87.802-1.4 1.755-1.162.707.178.61.677-.13.677-.713 0-1.147.545-.783.983.401.485-.083.993-.525.551zm30.216-1.308a1.751 1.751 0 0 1-.231-.756c-.004-.218-.246-.4-.537-.406-1.333-.025-1.465-.916-.135-.916 1.249 0 1.97 1.107 1.355 2.078-.191.303-.263.303-.452 0zm-25.338-4.067c-.707-.194-1.422-.3-1.589-.237-.475.182-2.396-1.51-1.995-1.758.256-.158.221-.373-.15-.94-.332-.506-.484-1.238-.486-2.338-.003-1.938.156-3.32.383-3.321.092 0 .23-.239.306-.53.14-.537.717-.75.717-.265 0 .146-.1.265-.22.265-.255 0-.271.09-.424 2.369-.063.94-.036 1.832.06 1.984.094.153.199.454.232.67.032.215.185.433.34.485.154.051.216.196.139.322-.078.126.098.357.39.514 1.116.597 4.496-1.898 5.684-4.195.234-.452.582-1.507.773-2.345l.348-1.524.96.956.96.956-.496 1.355c-.272.744-.767 1.795-1.1 2.333-.422.682-.508 1.013-.285 1.087.462.154 1.106.842 1.106 1.181 0 .16-.074.217-.164.126-.09-.09-.336.01-.548.22-.285.286-.514.314-.894.11-.281-.15-.51-.387-.51-.527s-.728.28-1.617.935c-.89.655-1.743 1.19-1.897 1.19-.48 0-.008.3 1.044.66.668.23 1.168.264 1.475.1.278-.15.465-.152.465-.007 0 .237-.926.583-1.455.542-.146-.01-.844-.179-1.551-.373zm20.504.043c.529-.167 1.333-.612 1.788-.99l.827-.687-1.12-.504c-1.634-.735-3.85-3.076-4.712-4.976-1.06-2.34-1.086-2.966-.145-3.584l.773-.508.664 2.004c.536 1.62.93 2.277 2.054 3.429 1.43 1.464 2.944 2.316 3.642 2.048.217-.083.484-.528.592-.99.108-.46.24-1.016.293-1.234.054-.218.076-.754.05-1.19a40.8 40.8 0 0 1-.044-2.072c.005-1.206-.03-1.27-.61-1.124-.799.2-1.084-.266-.39-.637.666-.356 1.484.024 1.732.805.24.754 1.811.634 1.924-.148.064-.446-.075-.529-.893-.529-.743 0-1.018-.13-1.178-.557-.344-.916.278-1.81 1.327-1.911 1.169-.112 1.594.449 1.594 2.103 0 1.049-.118 1.345-.72 1.82-.545.428-.933.527-1.586.404l-.865-.162.124 1.136c.068.625.182 1.422.254 1.77.073.35.023 1.121-.11 1.714-.17.752-.153 1.134.054 1.262.2.124.057.5-.433 1.142-.54.708-.863.916-1.238.797-.28-.088-.508-.044-.508.098 0 .392-2.655 1.633-3.425 1.601-.584-.024-.545-.069.285-.33zm7.242-12.077c0-1-1.03-.921-1.145.087-.074.65-.005.737.53.661.456-.064.615-.258.615-.748zm-11.245 10.301c0-.592.123-1.306.274-1.588.366-.684 1.49-.674 1.71.015.33 1.04-.519 1.43-1.334.615-.42-.419-.44-.37-.348.794.054.682.008 1.24-.102 1.24-.11 0-.2-.484-.2-1.076zm-11.245.547c.09-.146.216-.265.28-.265.064 0 .117.119.117.265 0 .145-.126.264-.28.264-.155 0-.207-.119-.117-.264zm-11.774-8.07c0-.264.264-.397.784-.397.53 0 .883-.183 1.087-.565.28-.524.252-.552-.393-.39-1.072.268-1.743-.23-1.743-1.294 0-.957.532-1.455 1.552-1.455.887 0 1.359.724 1.359 2.085 0 .897-.154 1.42-.54 1.834-.633.68-2.106.807-2.106.182zm1.803-2.712c-.06-.524-.232-.728-.612-.728-.381 0-.553.204-.613.728-.073.63.009.727.613.727.603 0 .685-.097.612-.727z" transform="translate(-44.955 -165.614)"/><path style="fill:#2f2619;stroke-width:.26458332" d="M49.132 227.592c-.595-.685-.77-1.747-.442-2.686.323-.929.926-1.349 1.936-1.349.893 0 .878.47-.019.578-.383.046-.874.352-1.09.679-.384.581-.374.591.432.43 1.023-.204 1.62.244 1.62 1.215 0 1.358-1.597 2.1-2.437 1.133zm1.595-1.058c-.06-.523-.232-.728-.613-.728-.38 0-.552.205-.613.728-.072.63.01.728.613.728.604 0 .686-.097.613-.728zm30.707.82c-.544-.656-.461-2.575.14-3.24.522-.576 2.275-.801 2.275-.292 0 .146-.353.265-.785.265-.505 0-.882.182-1.058.511-.403.753-.353.814.519.64.47-.094.955-.025 1.19.171.477.395.524 1.62.08 2.064-.463.463-1.94.388-2.361-.12zm1.753-.886c0-.473-.16-.684-.562-.742-.613-.087-.973.49-.719 1.153.264.686 1.281.36 1.281-.411zm-10.842-1.503c-.638-.433-.907-.754-.693-.826.194-.064.45.043.571.239.252.407.24.433.881-1.884.714-2.575 2.626-4.912 5.303-6.481l1.24-.726.8.762c.44.419.918 1 1.06 1.29.208.424.162.408-.23-.077-.705-.872-.89-.464-.323.71.37.767.455 1.401.358 2.699-.198 2.653-.251 2.88-.783 3.36-.489.443-.489.44-.004-.143.272-.327.387-.595.256-.595-.132 0-.24-.883-.24-1.962 0-1.653-.1-2.097-.63-2.816-.348-.47-.467-.755-.265-.633.31.187.311.153.005-.224-.198-.245-.496-.378-.661-.296-.165.082-.07-.038.213-.267.282-.23.67-.417.86-.417.19 0 .346-.119.346-.264 0-.393-.433-.324-1.546.243-1.655.844-3.667 2.847-4.385 4.363-.677 1.432-1.301 4.39-.926 4.39.113 0 .257-.268.32-.596.099-.51.12-.491.151.132.046.92-.345.925-1.678.02zm-13.204-.877c-.54-3.373-4.37-7.64-6.885-7.669-.479-.006-.481-.03-.048-.51.447-.493.493-.484 2.092.416 1.946 1.095 3.098 2.156 4.193 3.862 1.036 1.614 1.856 4.171 1.484 4.627-.454.556-.66.377-.836-.726zm14.96-.53c0-.364.06-.513.133-.331.074.182.074.48 0 .661-.073.182-.133.033-.133-.33zm-23.017-1.087c-.288-.46-.287-.523.003-.36.192.11.155-.01-.083-.263-.377-.4-.391-.637-.112-1.823.342-1.45 1.094-3.088 1.412-3.073.105.005.47.164.809.352l.617.343-.706.463c-.389.254-.645.524-.57.6.075.074-.074.511-.331.97-.28.498-.458 1.342-.445 2.092.026 1.394-.081 1.52-.594.7zm30.119.324c0-.146.119-.338.264-.428.146-.09.265-.045.265.1 0 .146-.12.339-.265.429-.145.09-.264.044-.264-.101zm-6.615-.995c0-.142.185-.49.412-.772.388-.484.393-.476.096.148-.386.81-.508.96-.508.624zm7.205-.888c0-.51.055-.718.121-.463.067.254.067.671 0 .926-.066.254-.12.046-.12-.463zm-5.485-1.852c.263-.292.538-.53.611-.53.073 0-.083.238-.346.53-.264.29-.539.529-.612.529-.072 0 .084-.238.347-.53zm-17.277-.847c-.431-.43-.401-1.181.053-1.356.606-.232 1.228.408 1.05 1.078-.176.656-.614.767-1.103.278zm13.809-.893c-.199-.79.16-1.26.86-1.127.59.113.82 1.256.316 1.576-.623.394-1 .25-1.176-.449zm-17.957-1.304-1.052-.647.92-.33c.506-.18 1.068-.318 1.25-.304.182.014.636.04 1.008.058 1 .049.56.466-.705.668-1.072.172-1.086.188-.626.697.604.667.49.647-.795-.142zm16.637-.094c.54-.606.687-.685.687-.366 0 .11-.268.366-.595.567-.594.364-.594.364-.092-.201zm6.177-.456c-.084-.085-.73-.322-1.433-.527l-1.279-.373 1.284.1c.708.056 1.475.293 1.71.528.235.234.302.426.15.426-.153 0-.347-.07-.432-.154zm-3.373-.64c0-.145.126-.264.28-.264.154 0 .206.119.116.264-.09.146-.216.265-.28.265-.064 0-.116-.12-.116-.265zm.86-2.034c.254-.067.67-.067.925 0 .255.066.047.12-.463.12-.509 0-.717-.054-.463-.12zm3.968-.258c-.517-.208-.393-.52.397-1l.728-.443-.601.525c-.38.333-.496.591-.316.702.427.264 1.498-.077 1.673-.532.195-.508-.075-1.237-.387-1.044-.13.08-.237.028-.237-.118 0-.145.12-.338.265-.428.151-.094.174-.357.054-.611-.116-.246-.193-.924-.17-1.506.023-.582-.123-1.384-.324-1.783-.2-.398-.363-.785-.36-.86.022-.535-.059-.649-.573-.812-.558-.177-.561-.196-.082-.547.802-.586 1.06-.436 1.535.893.52 1.454.8 6.883.382 7.409-.26.327-1.346.413-1.984.155zm-7.167-1.04c-.61-.521-1.232-1.205-1.383-1.52-.272-.562-.27-.563.146-.044.364.456.458.474.693.132.21-.305.233-.26.104.2-.099.35-.051.595.115.595.155 0 .282-.148.283-.33 0-.182.338-1.045.751-1.919.988-2.085 3.144-4.409 5.13-5.528l1.597-.9-.763-.413c-.42-.227-.658-.418-.53-.424.486-.022 1.917 1.048 2.528 1.89.564.777.572.821.073.383-.737-.646-1.42-.462-3.535.956-1.987 1.332-3.695 3.677-4.195 5.762-.272 1.136-.268 1.415.027 1.597.196.121.29.286.211.366-.08.08-.643-.282-1.252-.803zm-12.685-.017c-.197-2.37-2.993-5.783-5.883-7.18-1.569-.759-1.744-.792-2.046-.391-.182.24-.33.348-.33.237 0-.468 1.436-2.033 1.824-1.987.233.027.9-.166 1.483-.429.582-.263 1.348-.513 1.702-.556.585-.07.566-.03-.205.439-.467.284-.952.516-1.079.516-.126 0-.298.177-.38.394-.119.308-.302.337-.84.132-.83-.315-1.183-.331-1.183-.054 0 .114.53.404 1.179.645 2.763 1.024 5.538 3.923 6.477 6.768.313.948.425 1.061.786.788.232-.175.072.064-.355.532-.944 1.031-1.076 1.048-1.15.146zm-9 .121c-.175-.174-.314-.442-.31-.595.004-.153.13-.07.278.185.175.302.565.452 1.116.432.564-.02.67-.074.318-.16-.88-.217-1.236-.652-1.07-1.31.159-.635-.238-.873-.475-.285-.084.208-.141.22-.154.033-.012-.164.167-.454.396-.645.345-.286.457-.282.646.025a.61.61 0 0 1-.05.707c-.359.433-.09 1.137.434 1.137.456 0 .544-.412.14-.661-.145-.09-.264-.283-.264-.429 0-.145.129-.184.286-.087.158.097.084-.215-.164-.695-.345-.666-.42-1.3-.32-2.694.153-2.14.356-2.441 1.385-2.05.712.27.722.299.241.663-.276.209-.42.384-.32.388.101.005.03.306-.16.67-.42.81-.387 4.013.05 4.802.26.468.242.597-.099.728-.67.257-1.563.183-1.905-.159zm8.551-6.99c-.919-.92.193-1.924 1.16-1.05.256.232.545.342.642.244.097-.097.177-.044.177.117 0 .292-1.007 1.118-1.363 1.118-.103 0-.38-.193-.616-.43zm13.673-.153c-.788-.788.044-1.756.959-1.115.465.326.524.505.303.919-.313.584-.798.66-1.262.196zm-5.197-.966c.141-.518.088-.596-.32-.469-.667.208-1.223-.19-1.106-.793.13-.673 1.246-.652 1.693.031.288.441.28.64-.045 1.191-.384.649-.388.65-.222.04zm3.784-.503c.331-.473.658-.86.726-.86.229 0-.39.966-.862 1.345-.332.266-.292.125.136-.485zm-10.81-.61c0-.155.119-.207.264-.118.146.09.265.217.265.28 0 .065-.12.117-.265.117-.145 0-.264-.126-.264-.28zm16.873-.033c-.057-.172-.513-.45-1.012-.618l-.907-.306.624-.334c.344-.184.555-.221.47-.083-.086.139.316.393.894.566 1.105.332 1.328.66.63.927-.557.214-.579.21-.7-.152zm-4.703-.585c0-.058.185-.175.411-.262.236-.09.342-.046.25.104-.156.251-.66.372-.66.158zm-9.678-2.235c-1.808-.674-2.757-1.328-2.757-1.9 0-.41.256-.344 1.887.493 1.811.929 1.994.967 4.564.958 2.33-.008 2.875-.1 4.199-.712 1.383-.64 1.52-.661 1.52-.227 0 1.415-6.694 2.402-9.413 1.388zm-2.485-.297c-.214-.135-.333-.302-.264-.371s.356.044.638.25c.565.413.25.515-.374.121zm10.978-2.325c-.09-.255-.783-.877-1.54-1.383-1.296-.866-1.497-.917-3.492-.894-2.165.025-3.725.474-4.725 1.36-.495.439-.5.433-.181-.175.24-.456.25-.68.035-.811-.19-.118-.035-.412.434-.827.524-.462.599-.489.268-.094-.79.942-.511.965.795.067 1.552-1.068 3.978-1.352 5.476-.641 1.322.627 2.41 1.615 2.79 2.532.182.44.436.8.564.8.128 0 .232.119.232.264 0 .442-.482.296-.656-.198zm-13.896-.86c0-.146.126-.265.28-.265.155 0 .207.12.117.265-.09.145-.216.264-.28.264-.064 0-.117-.119-.117-.264zm-2.29-.46c-.55-.19-1.16-.285-1.353-.21-.194.074-.288.03-.21-.098.327-.529 1.59-.583 2.578-.11.553.265 1.006.545 1.008.623.005.252-.997.15-2.023-.205zm20.803-.496c.796-.36 1.69-.61 1.985-.556.442.08.373.17-.39.505a9.091 9.091 0 0 1-1.984.556l-1.058.149zm2.322.135c1.028-.51 1.289-1.031.515-1.031-.726 0-3.275-1.611-4.58-2.894-2.089-2.053-3.611-5.656-2.548-6.03.19-.067.33.101.33.4 0 1.037 1.864 4.256 3.09 5.335 1.212 1.066 3.323 2.228 4.6 2.531.575.137.752.02 1.178-.771.276-.512.551-.882.612-.822.06.06-.2.639-.579 1.284-.653 1.115-2.565 2.554-3.392 2.554-.192 0 .156-.25.774-.556zm-25.682-.45c-.408-.45-.347-.519 1.081-1.22 3.11-1.525 4.95-3.701 5.824-6.89.429-1.567.529-1.725.848-1.34.31.373.277.7-.226 2.264-.901 2.797-3.12 5.319-5.909 6.712-.684.343-1.17.696-1.08.787.09.09.103.164.029.164-.075 0-.33-.215-.567-.477zm8.21-.578c.075-.29.248-.458.384-.374.146.09.12.306-.062.527-.418.502-.486.47-.323-.153zm10.837.35c-.097-.098-.167-.484-.154-.86.022-.672.027-.67.256.096.24.806.205 1.07-.102.763zm-19.825-1.563c-.724-.96-.963-3.456-.461-4.806.23-.616.576-1.271.77-1.455.294-.278.3-.229.03.295-.45.873-.196 4.113.367 4.675.596.596.99 1.39.753 1.518-.697.376-1.045.322-1.46-.227zm7.314.3c-.28-.733.025-1.338.717-1.419 1.003-.117 1.46.547.858 1.25-.544.635-1.362.723-1.575.168zm12.897-.308c-.31-.356-.304-.477.036-.818.576-.576 1.574-.21 1.467.537-.1.7-.993.866-1.503.28zm7.375.049c0-.06.247-.686.549-1.39.327-.76.568-1.94.595-2.913.058-2.039.496-1.768.653.403.128 1.758-.65 4.01-1.386 4.01-.226 0-.411-.05-.411-.11zm-14.763-.518c.187-.2.51-.298.719-.218.293.112.263.19-.13.345-.787.308-.96.27-.589-.127zm2.575-.15c.33-.208.33-.303 0-.723-.348-.442-.34-.452.083-.12.255.2.463.527.463.728 0 .2-.208.362-.463.36-.38-.003-.395-.047-.083-.244zm-1.719-.927c.283-.226.7-.402.926-.39.357.018.359.04.016.168-.218.08-.635.256-.926.39-.52.24-.52.237-.016-.168zm-15.222-4.038c-.347-.441-.337-.447.14-.078.474.367.498.357.315-.132-.158-.424-.131-.464.136-.198.231.23.249.415.057.606-.191.192-.39.13-.648-.198zm.42-1.135c.104-.166.443-.406.756-.532l.568-.229-.576-.017c-.317-.009-.764.17-.992.4-.229.228-.416.285-.416.126 0-.519 1.255-.92 1.916-.612.579.27.58.284.068.458-.29.098-.75.298-1.02.444-.355.192-.439.181-.303-.038zm29.747-.167c-.243-.3-.259-.394-.044-.265.558.336.7-.6.177-1.178-.43-.475-.433-.512-.03-.357.553.212.844 1.245.516 1.831-.222.397-.273.395-.619-.031zm-1.556-1.275c-.276-.332-.117-.675.313-.675.13 0 .168.11.084.245-.083.135.118.287.447.336l.6.09-.586.167c-.336.095-.701.026-.858-.163zm-23.56-2.65c-.861-.242-1.07-.386-.752-.522.24-.102.955-.011 1.587.203.767.26 1.304.306 1.613.141.278-.149.463-.15.463-.004 0 .238-.932.584-1.455.54-.146-.012-.8-.173-1.455-.357zm20.408.029c.529-.167 1.35-.627 1.826-1.022.804-.668 1.314-.751 1.314-.215 0 .366-2.69 1.597-3.425 1.567-.584-.024-.545-.069.285-.33zm-23.854-1.383c-.566-.614-.579-.664-.095-.369.486.296.786.234 2.25-.459.928-.44 2.157-1.177 2.73-1.638 1.8-1.453 3.324-4.256 3.324-6.117 0-.578.023-.585.5-.153.583.527.52.935-.498 3.214-.838 1.877-2.786 3.94-4.815 5.098-2.106 1.202-2.62 1.266-3.396.424zm19.85-.393c0-.592.124-1.306.275-1.588.366-.684 1.49-.674 1.71.015.33 1.04-.519 1.43-1.334.615-.42-.419-.44-.37-.348.794.054.682.008 1.24-.102 1.24-.11 0-.2-.484-.2-1.076zm-11.244.547c.09-.146.216-.265.28-.265.064 0 .117.119.117.265 0 .145-.126.264-.28.264-.154 0-.207-.119-.117-.264zm17.663-1.09c-1.946-.748-4.108-2.804-5.065-4.818-.958-2.013-1.193-3.202-.712-3.601.285-.236.39-.063.53.871.203 1.359 1.675 3.937 2.875 5.039.904.83 3.745 2.275 4.473 2.275.248 0 .572-.208.72-.462.148-.255.273-.37.278-.256.018.465-.876 1.511-1.28 1.499-.237-.008-1.056-.254-1.82-.547zm-26.66-.665c-.328-.61-.495-1.444-.488-2.431.013-1.894.175-3.222.392-3.222.092 0 .23-.239.306-.53.14-.537.717-.75.717-.265 0 .146-.1.265-.22.265-.255 0-.271.09-.424 2.369-.063.94-.036 1.832.06 1.984.094.153.198.444.228.648.031.203.213.47.405.59.191.122.229.227.083.234-.145.007-.038.184.24.394.495.375.495.384 0 .561-.278.1-.57.215-.651.256-.081.041-.372-.342-.647-.853zm7.564.19c-.46-.461-.529-.465-.984-.06-.268.238-.084-.007.41-.546.775-.848.972-.94 1.452-.688.577.304.94.721.948 1.088.002.118-.115.14-.26.05-.146-.09-.265-.05-.265.09 0 .505-.82.547-1.3.065zm20.615-.556c-.277-.182-.307-.32-.102-.46.308-.206.563-.872.812-2.114.171-.858.171-.884-.025-2.53-.09-.757-.052-1.21.095-1.119.135.084.369-.058.519-.316.167-.288.276-.334.28-.121.006.231.296.32.869.264.623-.06.88-.228.936-.612.064-.446-.075-.529-.894-.529-.742 0-1.017-.13-1.177-.557-.344-.916.278-1.81 1.327-1.911 1.169-.112 1.594.449 1.594 2.103 0 1.049-.118 1.345-.721 1.82-.544.428-.932.527-1.585.404l-.865-.162.124 1.136c.068.625.181 1.418.253 1.762.179.867-.358 3.211-.734 3.206-.17-.002-.488-.12-.706-.264zm3.308-8.727c0-1-1.03-.921-1.145.087-.074.65-.005.737.53.661.456-.064.615-.258.615-.748zm-34.264 2.778c0-.264.264-.397.784-.397.53 0 .883-.183 1.087-.565.28-.524.252-.552-.393-.39-1.072.268-1.743-.23-1.743-1.294 0-.957.532-1.455 1.552-1.455.887 0 1.359.724 1.359 2.085 0 .897-.154 1.42-.54 1.834-.633.68-2.106.806-2.106.182zm1.803-2.712c-.06-.524-.232-.728-.612-.728-.381 0-.553.204-.613.728-.073.63.009.727.613.727.603 0 .685-.097.612-.727zm28.5 1.534c-.085-.138.078-.376.364-.529.67-.358 1.1-.348.482.011-.258.15-.4.385-.315.521.084.137.034.249-.111.249-.146 0-.335-.113-.42-.252z" transform="translate(-44.955 -165.614)"/></svg>