<svg xmlns="http://www.w3.org/2000/svg" viewBox="0 0 42.598 65.352" height="247" width="161"><path d="M98.343 88.908c-.403-.445-.438-3.053-.438-32.106 0-30.299.02-31.64.484-32.06.44-.4 2.252-.438 20.596-.438 19.149 0 20.134.023 20.55.484.403.445.438 3.053.438 32.106 0 30.299-.02 31.64-.483 32.06-.442.4-2.253.438-20.597.438-19.149 0-20.133-.023-20.55-.484z" style="fill:#fff;fill-opacity:1;stroke-width:.26458332" transform="translate(173.22 -70.397)"/><path style="fill:#fff;fill-opacity:1;stroke-width:.26552716" d="M-141.24 245.914c-.406-.444-.442-3.052-.442-32.105 0-30.3.02-31.64.487-32.06.445-.4 2.27-.438 20.744-.438 19.286 0 20.278.023 20.697.484.406.444.442 3.052.442 32.105 0 30.3-.02 31.64-.488 32.06-.444.4-2.269.438-20.744.438-19.285 0-20.277-.023-20.697-.484z" transform="translate(141.682 -181.046)"/><path style="fill:#b2b3b0;stroke-width:.26458332" d="M100.283 244.402c-.403-.444-.438-3.061-.438-32.238 0-30.427.02-31.772.484-32.192.441-.4 2.27-.438 20.86-.438 19.406 0 20.399.023 20.816.484.402.445.438 3.062.438 32.238 0 30.427-.02 31.773-.484 32.192-.441.4-2.271.438-20.861.438-19.405 0-20.398-.023-20.815-.484zm41.411-.218c.464-.42.484-1.757.484-31.928 0-28.93-.035-31.529-.438-31.973-.417-.461-1.401-.484-20.55-.484-18.344 0-20.155.038-20.597.438-.463.42-.484 1.757-.484 31.927 0 28.93.036 31.53.438 31.974.417.46 1.402.484 20.55.484 18.345 0 20.156-.039 20.597-.438zm-39.03-1.634c-.402-.444-.438-2.933-.438-30.386 0-28.632.02-29.92.484-30.34.44-.398 2.106-.438 18.48-.438 17.098 0 18.018.024 18.434.484.402.444.438 2.942.438 30.507 0 22.998-.075 30.097-.318 30.34-.24.24-4.706.317-18.48.317-17.26 0-18.184-.024-18.6-.484zm36.815-.098c.461-.46.461-60.023 0-60.484-.459-.459-36.212-.459-36.67 0-.462.461-.462 60.023 0 60.484.458.46 36.211.46 36.67 0zm-35.471-.41c-.632-.7-.809-1.784-.463-2.832.338-1.024.926-1.467 1.944-1.467.585 0 .663-.127.749-1.21.053-.666.012-1.347-.09-1.513-.103-.166-.048-.47.122-.675.17-.205.275-.7.233-1.098-.087-.83.538-1.59 1.307-1.59.285 0 .588-.182.673-.405.094-.243.342-.345.622-.256.281.089.529-.013.622-.257.23-.6 1.644-.507 2.255.15.356.382.688.5 1.069.379.438-.14.552-.063.552.371 0 .356.171.547.488.547.893 0 1.453.927 1.266 2.094-.106.666-.058 1.117.132 1.234.206.128.168.258-.121.42-.231.13-.352.41-.27.626.265.69-.159 1.688-.874 2.063-.819.429-.524.707.803.757 1.03.039 2.064-.532 2.686-1.482.564-.86 1.44-4.04 1.664-6.046.16-1.428.119-1.705-.311-2.06-.485-.402-.483-.463.056-2.646 1.01-4.093 1.647-9.832 1.127-10.154-.184-.113-.304.049-.317.428-.022.658-.102.51-.364-.67-.116-.525-.286-.706-.562-.6a.417.417 0 0 1-.542-.228c-.08-.209-.566-.628-1.08-.93-.807-.477-.912-.653-.782-1.305.083-.414.07-.833-.028-.931-.242-.242-.359-1.99-.184-2.745.087-.374.449-.72.927-.886.431-.15.784-.44.784-.645 0-.204.224-.37.497-.37.968 0 1.16-.613.839-2.682-.326-2.099-1.547-4.703-2.59-5.524-.812-.638-2.738-.938-3.478-.542-.343.184-.56.558-.56.97 0 .547.096.639.525.503 1.06-.337 2.51 2.076 1.591 2.645-.175.108-.168.345.022.699.22.412.193.638-.122.985-.233.258-.345.691-.261 1.012.174.665-.705 1.669-1.462 1.669-.275 0-.574.192-.664.427-.1.26-.358.376-.66.297-.286-.075-.674.08-.92.367-.538.629-1.243.631-2.048.007-.347-.27-.78-.438-.961-.375-.182.063-.331-.077-.331-.31 0-.235-.268-.529-.595-.654-.328-.125-.823-.48-1.1-.788-.413-.458-.453-.677-.217-1.195.159-.348.215-.707.126-.797-.265-.265-.294-2.629-.038-3.113.13-.244.468-.518.752-.608.283-.09.59-.396.68-.68.126-.4.268-.459.636-.262.365.196.602.105 1.039-.397.691-.795 1.448-.83 2.178-.1l.55.55 1.026-.71c.973-.675 1.134-.702 3.094-.529l2.066.183.854 2.167c.47 1.191 1.019 2.997 1.22 4.012l.367 1.846.031-1.536c.038-1.913-.369-4.714-1.075-7.396-.434-1.648-.477-2.132-.214-2.448.18-.216.49-.393.69-.393.467 0 .462-.954-.016-3.212-.828-3.905-2.266-5.784-4.427-5.784-1.202 0-1.551.438-.628.789.95.36 1.382 1.386.967 2.296-.256.562-.251.749.024.93.272.18.25.283-.102.491-.335.198-.408.49-.296 1.184.184 1.135-.248 1.718-1.274 1.718-.474 0-.762.139-.762.368 0 .21-.37.43-.86.51-.473.079-1.175.222-1.561.32-.524.132-.846.033-1.27-.392-.372-.371-.748-.512-1.085-.405-.396.126-.515.039-.515-.376 0-.329-.301-.696-.768-.938-.676-.349-.78-.564-.862-1.787a19.612 19.612 0 0 1 .04-2.718c.121-1.198.226-1.375 1.06-1.798.51-.259.892-.6.85-.76-.048-.18.161-.229.558-.13.442.112.779 0 1.11-.365.654-.722 1.608-.657 2.431.167.604.604.84.671 1.856.532 2.624-.36 4.797 1.546 5.495 4.822.212.991.449.867.896-.47.265-.792.236-.977-.229-1.472-.292-.311-.531-.703-.531-.87 0-.168-.355-.709-.788-1.202-.86-.98-.81-1.238.246-1.238.491 0 .83-.234 1.17-.808.568-.963.919-.906 1.473.238.313.646.552.828.99.751.987-.172 1.33.243.657.793-.324.265-.925 1.07-1.335 1.788-.646 1.132-.71 1.424-.477 2.183.264.857.71 1.2.71.545 0-.182.342-1.045.76-1.918.83-1.733 1.86-2.85 3.043-3.296.79-.3 2.445-.125 2.697.283.253.408 1.073.254 1.57-.294.5-.554 1.835-.72 2.116-.265.09.145.514.265.942.265.496 0 .778.136.778.375 0 .207.349.453.775.547 1.113.244 1.437.754 1.245 1.958-.122.763-.057 1.116.255 1.374.38.315.38.376.005.65-.344.251-.362.44-.109 1.112.42 1.11-.253 2.186-1.366 2.186-.523 0-.82.16-.929.502-.107.338-.326.458-.67.368-.28-.073-.702.058-.936.292-.591.592-1.34.53-2.037-.166-.325-.326-.802-.557-1.058-.513-.32.054-.467-.092-.467-.467 0-.309-.172-.546-.397-.546-.218 0-.626-.228-.906-.508-.437-.438-.497-.826-.428-2.78.084-2.357.368-3.062 1.234-3.062.698 0 .621-.698-.098-.891-1.142-.306-2.156-.163-3.038.428-1.203.808-2.62 3.72-3.172 6.52-.414 2.103-.412 2.231.035 2.559.451.33.448.452-.074 2.81-.774 3.5-1.096 5.461-1.076 6.549.018.93.023.926.357-.318.187-.693.435-1.348.55-1.455.117-.107.13.103.03.467-.099.364-.25 1.26-.334 1.993-.12 1.037-.059 1.409.274 1.686.35.29.503.292.839.014.346-.287.433-.251.56.232.109.417.353.573.897.573 1.032 0 1.608.874 1.406 2.135-.099.618-.042 1.044.157 1.167.217.134.138.315-.258.593-.41.287-.49.48-.284.687.531.531.323 1.701-.406 2.274-.381.3-.784.489-.896.42-.112-.07-.35.05-.53.268-.18.216-.627.394-.993.394h-.666l.146 2.05c.087 1.22.06 1.73-.064 1.257-.116-.437-.225-1.24-.242-1.786-.017-.546-.15-.992-.296-.992-.625 0-.148 5.477.93 10.694.38 1.842.386 2.121.041 2.314-.279.156-.362.543-.288 1.345l.103 1.125-.367-1.19c-.206-.67-.378-.948-.393-.636-.035.75.505 2.253.754 2.099.11-.068.35.379.533.992.523 1.749 1.466 3.417 2.485 4.395.735.706 1.212.924 2.238 1.022.804.077 1.374.012 1.486-.17.1-.163.016-.294-.19-.294-.69 0-1.319-1.009-1.319-2.118 0-.59-.108-1.138-.241-1.22-.143-.088-.136-.276.016-.46.142-.17.297-.785.344-1.365.073-.893.217-1.116.94-1.452.47-.218.857-.558.86-.756.003-.218.17-.296.426-.198.233.09.72-.074 1.094-.368.89-.7 1.557-.669 2.277.108.445.48.702.576 1.038.388.358-.2.481-.116.616.42.092.369.315.67.495.67s.525.22.767.487c.369.406.415.87.286 2.844-.16 2.454-.413 3.015-1.394 3.09-.315.023-.638.249-.718.502-.08.252-.3.4-.487.328-.188-.072-.494.053-.68.278-.509.613-1.986.524-2.431-.147-.337-.507-.465-.53-1.488-.254-2.735.737-5.18-1.131-6.54-4.996l-.33-.94-.614 1.251-.614 1.252.585.624c.323.343.69.97.817 1.394.127.423.32.992.43 1.263.166.41.109.465-.334.324-.42-.133-.604 0-.866.631-.414 1-.564 1-1.157-.004-.353-.597-.607-.763-.984-.643-.279.088-.507.052-.507-.082 0-.592.649-2.093 1.14-2.636.492-.544.51-.7.209-1.852-.384-1.471-.39-1.594-.194-3.507.123-1.202.082-1.11-.238.53-.989 5.07-1.735 6.718-3.404 7.51-.823.39-1.15.407-2.49.13-1.451-.3-1.59-.283-2.354.281-.902.667-1.754.573-2.191-.243-.179-.334-.442-.44-.835-.337-.362.095-.51.048-.403-.126.204-.331-.262-.735-1.08-.935-.414-.101-.596-.027-.596.244 0 .26-.164.338-.492.234-.563-.179-1.36.063-1.36.413 0 .13.334.237.741.237.964 0 1.376.438 1.376 1.467 0 1.489-1.767 2.298-2.717 1.245zm1.525-1.124c0-.34-.148-.667-.33-.728-.406-.135-.71.576-.492 1.146.233.607.822.307.822-.418zm16.418-48.891c-.18-.18-.673 1.878-.652 2.72.012.502.155.167.389-.91.203-.937.321-1.752.263-1.81zm-1.362 2.126c-.248-1.351-.701-2.38-.51-1.158.076.491.139 1.176.139 1.521 0 .346.124.629.276.629.176 0 .21-.363.095-.992zm16.179 47.728c-.987-.987-.944-2.588.098-3.63.777-.777 1.208-.91 1.983-.612.721.276.484.897-.343.897-.418 0-.903.171-1.076.38-.263.316-.181.376.488.357 1.077-.03 1.614.472 1.614 1.512 0 .957-.319 1.326-1.377 1.592-.557.14-.86.031-1.387-.496zm1.656-1.033c.11-.565-.714-.936-1.01-.456-.306.494-.008 1.095.495.999.235-.046.467-.29.515-.543zm-11.989-14.24a56.902 56.902 0 0 0-2.116-.622c-.746-.204-1.291-.499-1.25-.675.041-.172-.177-1.207-.483-2.299-.306-1.092-.504-2.039-.438-2.104.065-.065.249.398.408 1.029.365 1.45 1.568 3.125 2.783 3.876 1.134.7 2.914.833 3.488.259.525-.525.3-1.032-.751-1.696-.688-.435-.847-.708-.847-1.456 0-.506-.155-1.019-.345-1.14-.251-.16-.268-.314-.06-.563.197-.239.202-.56.014-1.054-.351-.924.008-1.596 1.047-1.958.44-.153.8-.404.8-.557 0-.153.224-.278.498-.278s.694-.298.932-.662c.498-.76 1.35-.855 2.217-.247.325.227.813.343 1.085.257.35-.111.534-.001.634.38.093.356.36.536.794.536.886 0 1.357.645 1.323 1.81-.015.532.082 1.101.216 1.264.156.188.109.408-.129.605-.294.245-.312.472-.085 1.075.41 1.085-.09 2.125-1.022 2.125-.47 0-.737.17-.83.53-.088.332-.362.529-.737.529-.33 0-.747.178-.928.397-.501.604-1.72.494-2.2-.199l-.413-.595-.612.727c-.692.823-1.823 1.09-2.993.706zm-13.313-.904c-.95-.8-1.402-.832-1.839-.132-.181.29-.549.529-.816.529-.267 0-.701-.238-.965-.53-.263-.29-.698-.528-.967-.528-.268 0-.488-.118-.488-.261 0-.144-.417-.436-.926-.648-.51-.213-.943-.542-.964-.732-.02-.189-.056-.94-.08-1.667-.022-.727-.143-1.672-.267-2.1-.197-.676-.124-.866.564-1.455.435-.373.872-.9.97-1.17.153-.42.244-.44.602-.143.362.3.497.248.945-.367.609-.835 1.636-.95 2.391-.267.407.369.593.393 1.01.133.708-.443.782-.41.782.342 0 .558.124.662.788.662 1.063 0 1.716.98 1.483 2.227-.104.551-.057.977.12 1.086.196.121.149.334-.149.663-.28.31-.373.686-.26 1.045.225.708-.494 1.858-1.162 1.858-.27 0-.632.17-.805.379-.42.505.515 1.473 1.423 1.473 2.572 0 4.174-2.214 4.787-6.615.111-.8.257-1.3.323-1.109.176.505-.452 3.665-1.05 5.288-.375 1.014-.44 1.494-.234 1.74.222.269-.076.408-1.397.651-2.398.442-2.934.393-3.819-.352zm16.738-16.553c-.296-.327-.695-.492-.996-.414-.34.09-.545-.03-.634-.371-.073-.277-.36-.576-.64-.665-.757-.24-1.338-1.279-1.145-2.048.094-.374.04-.739-.125-.84-.16-.1-.199-.32-.087-.492.111-.172.202-.847.202-1.5 0-1.115.055-1.206.892-1.48.49-.16 1-.483 1.132-.719.132-.235.406-.364.609-.286.207.08.498-.1.663-.407.256-.477.181-.619-.575-1.094-.652-.409-1.18-.518-2.114-.438-1.644.142-2.835 1.073-4.052 3.167-.528.908-.897 1.472-.821 1.254.076-.219.347-1.06.602-1.869.438-1.393.544-1.51 1.977-2.183.878-.412 1.972-.71 2.606-.71 1.129 0 2.653.611 2.653 1.064 0 .142.331.258.735.258.404 0 1.005.19 1.335.42.33.232.778.353.994.27.255-.098.48.08.642.506.174.456.45.656.909.656.842 0 1.305.844 1.09 1.988-.11.592-.054.914.175 1 .246.092.208.227-.14.495-.404.312-.433.49-.186 1.14.245.645.21.884-.21 1.448-.276.372-.772.716-1.101.765-.33.048-.656.302-.724.564-.081.31-.295.432-.615.348-.269-.07-.761.062-1.094.295-.81.568-1.364.534-1.957-.122zm-26.511-22.275c.06-.181.418-.367.796-.412.379-.045.83-.253 1.005-.463.263-.318.18-.381-.495-.381-.539 0-.95-.198-1.223-.588-.565-.807-.52-1.181.237-1.938 1.332-1.331 2.79-.457 2.79 1.673 0 1.809-.522 2.44-2.021 2.44-.84 0-1.165-.099-1.09-.33zm2.004-2.798c.064-.432-.051-.575-.463-.575-.354 0-.547.171-.547.485 0 1.006.864 1.083 1.01.09zm30.793 2.666c.062-.312.289-.435.697-.377.584.082 1.366-.343 1.366-.743 0-.108-.301-.138-.67-.067-.834.16-1.71-.575-1.71-1.434 0-1.412 2.061-2.233 3-1.194.64.707.58 2.705-.11 3.581-.429.546-.778.697-1.606.697-.867 0-1.042-.084-.967-.463zm1.931-2.712c0-.725-.589-1.025-.822-.419-.219.571.086 1.282.492 1.147.181-.06.33-.388.33-.728z" transform="translate(-99.845 -179.534)"/><path style="fill:#f2d806;stroke-width:.26458332" d="M103.987 241.757c-.262-.29-.438-.933-.438-1.6 0-1.393.947-2.494 2.035-2.365.992.117 1.123.744.157.744-.737 0-1.398.403-1.398.852 0 .12.302.14.672.048 1.257-.316 2.106 1.04 1.435 2.293-.36.673-1.863.69-2.463.028zm1.65-.409c.403-.485.093-1.224-.513-1.224-.62 0-.86.392-.648 1.06.194.611.728.687 1.162.164zm31.31.671c-.968-.614-.828-3.46.198-4.009.73-.39 2.194-.345 2.051.063-.063.182-.31.296-.548.254-.579-.103-1.497.408-1.497.834 0 .225.257.304.751.232.855-.126 1.63.483 1.63 1.279 0 1.106-1.628 1.954-2.584 1.347zm1.475-1.334c-.09-.782-.675-.917-1.094-.253-.201.318-.185.554.056.845.495.596 1.134.232 1.038-.592zm-17.988-.693c-.19-.417-.519-.662-.89-.662-.571 0-.577-.03-.217-1.075.204-.591.605-1.395.892-1.786.492-.67.499-.786.122-2.03-.323-1.064-.343-1.59-.106-2.732.161-.778.253-1.44.204-1.472-.049-.032-.43-.205-.845-.384-.859-.37-.864-.1.083-4.544.376-1.765.606-3.826.632-5.653l.041-2.874-.905-.49c-.497-.27-.987-.623-1.088-.787-.102-.164-.468-.439-.815-.61-.466-.232-.653-.572-.714-1.3-.045-.542-.208-.986-.363-.986-.182 0-.17-.133.035-.38.233-.281.24-.52.024-.923-.388-.725.31-2.136 1.055-2.136.351 0 .522-.18.522-.547 0-.426.117-.51.527-.38.397.126.604 0 .836-.511.17-.374.469-.68.664-.68.418 0 .429-.414.089-3.57-.29-2.693-.345-3.009-.947-5.495-.485-1.999-.295-2.576.848-2.576.553 0 .627-.12.617-.992-.007-.546-.166-1.35-.355-1.786-.289-.667-.278-.971.067-1.912.392-1.07.384-1.151-.175-1.907-.32-.434-.583-.904-.583-1.045 0-.14-.301-.612-.669-1.049-.699-.83-.528-1.262.385-.972.353.112.554.008.666-.345.088-.278.377-.701.641-.94.454-.411.507-.377.95.605.446.99.515 1.032 1.43.887l.962-.153-.793.798c-1.305 1.31-2.053 2.731-1.845 3.504.212.788.205 1.72-.026 3.661-.153 1.292-.113 1.438.538 1.95.466.367.645.699.53.985-.355.888-1.416 6.323-1.594 8.166-.174 1.803-.148 1.946.444 2.45.347.294.892.492 1.212.44.32-.053.643.065.719.262.075.197.353.358.616.358s.757.195 1.096.433c.515.36.596.6.485 1.43-.075.553-.005 1.127.154 1.286.208.208.147.391-.217.657-.433.317-.46.467-.19 1.059.463 1.015.014 1.984-1.015 2.19-.451.09-.878.312-.947.494-.07.181-.336.275-.591.208-.256-.066-.62.066-.81.294-.189.229-.523.416-.743.416-.34 0-.37.36-.212 2.447.102 1.346.475 4.14.828 6.208.353 2.069.641 3.882.641 4.03 0 .148-.297.344-.661.435-.783.196-.783.2-.23 1.915.4 1.237.4 1.418 0 2.417-.564 1.41-.544 1.912.098 2.462.29.25.529.666.529.926s.185.738.412 1.061c.392.56.38.588-.236.588-.47 0-.693.181-.814.662-.091.363-.285.661-.431.661-.146 0-.401-.298-.567-.661zm-10.813-.422c-.195-.365-.47-.51-.803-.422-.32.084-.506-.003-.506-.236 0-.203-.413-.54-.917-.752-1.013-.423-1.424-1.357-.97-2.204.193-.362.187-.6-.02-.807-.211-.212-.213-.391-.007-.64.158-.19.326-.82.373-1.4.076-.933.185-1.084.946-1.308.472-.14.86-.348.86-.463 0-.116.223-.21.496-.21s.645-.179.826-.397c.5-.602 1.488-.475 2.071.267.332.421.676.604.945.5.238-.09.424-.028.424.144 0 .169.415.48.921.692 1.016.424 1.417 1.325.966 2.168-.197.369-.185.61.044.852.248.264.245.365-.013.46-.183.067-.33.558-.33 1.104 0 1.088-.374 1.618-1.14 1.618-.314 0-.453.135-.368.356.096.252-.042.321-.475.239-.387-.074-.815.086-1.167.438-.72.72-1.77.72-2.156 0zm21.078-.012c-.326-.467-.57-.539-1.374-.408-.878.142-.926.122-.478-.208.478-.35.47-.377-.173-.623-.37-.141-.802-.418-.96-.615-.354-.444-.624-3.136-.314-3.136.125 0 .226-.453.226-1.006 0-1.1.37-1.64 1.12-1.64.266 0 .553-.179.637-.397.083-.218.363-.397.62-.397.258 0 .617-.179.798-.397.487-.587 1.752-.497 2.21.158.277.394.548.504.942.379.397-.126.552-.061.552.232 0 .225.349.588.775.809.914.472 1.187 1.142.839 2.058-.17.445-.158.757.035.95.206.206.203.387-.01.644-.163.197-.271.708-.24 1.136.048.66-.094.851-.936 1.263-.545.266-.992.59-.992.719s-.156.174-.347.101c-.191-.073-.567.11-.835.405-.633.7-1.594.687-2.095-.027zm-6.579-13.802c-.866-.242-.992-.379-.992-1.078v-.801l1.059 1.033c.907.886 1.252 1.29.992 1.157a23.966 23.966 0 0 0-1.059-.31zm6.463-.092c-.156-.279-.444-.384-.798-.291-.39.102-.6-.003-.712-.358-.088-.276-.307-.502-.488-.502-.73 0-1.306-.721-1.28-1.606.013-.49-.093-1.033-.237-1.207-.166-.2-.169-.372-.007-.471.16-.1.149-.436-.03-.911-.366-.969-.132-1.55.787-1.953.404-.177.83-.474.946-.66a.818.818 0 0 1 .624-.335c.226 0 .645-.298.932-.662.626-.796.996-.825 1.86-.146.38.3.878.457 1.189.376.393-.103.575.015.688.445.112.429.295.549.683.447.833-.218 1.451.654 1.244 1.757-.104.554-.059.986.114 1.093.202.125.196.284-.02.544-.212.256-.227.592-.049 1.102.37 1.06-.028 1.902-.988 2.093-.543.11-.8.317-.8.648 0 .318-.134.437-.385.34-.211-.08-.654.042-.984.273-.78.547-1.978.539-2.288-.016zm-21.223-.366c-.296-.297-.647-.472-.78-.39-.133.082-.371-.092-.53-.387-.157-.295-.506-.537-.774-.537-.681 0-1.133-.633-1.074-1.508.027-.407.027-.8 0-.873-.027-.073-.09-.758-.14-1.522-.088-1.334.272-2.182.928-2.182.125 0 .305-.243.399-.54.124-.392.315-.495.69-.376.367.116.677-.036 1.057-.518.65-.826 1.36-.872 2.05-.13.413.442.619.495 1.042.269.45-.241.55-.186.694.385.092.367.29.591.44.499 1.015-.628 2.438 1.124 1.832 2.256-.213.399-.222.67-.028.903.166.2.18.431.036.579-.132.134-.278.72-.324 1.303-.074.93-.204 1.114-1.076 1.523-.546.256-.993.592-.993.746 0 .164-.23.207-.552.105-.394-.125-.665-.016-.941.379-.492.702-1.263.708-1.956.015zm7.866-.102c.66-.569.763-.591.923-.199.31.761.242.84-.724.84h-.94zm12.51-16.306c-.195-.364-.451-.49-.782-.386-.345.11-.543-.005-.663-.384-.094-.297-.324-.54-.51-.54-.661 0-1.29-1.005-1.13-1.806.086-.427.02-.896-.15-1.066-.218-.217-.223-.384-.017-.59.205-.205.201-.51-.013-1.08-.267-.709-.232-.851.325-1.302.343-.278.836-.506 1.096-.506.26 0 .54-.179.624-.397.083-.218.386-.397.672-.397.287 0 .594-.236.687-.529.219-.689 1.182-.688 2.058 0 .37.292.852.462 1.07.379.251-.097.46.048.57.396.11.346.4.548.785.548.874 0 1.3.638 1.13 1.69-.08.492-.017 1.022.14 1.178.202.203.191.396-.038.673-.2.24-.258.732-.153 1.293.19 1.012-.33 1.78-1.206 1.78-.275 0-.63.242-.788.537-.158.295-.405.464-.55.374-.145-.09-.551.027-.904.257-.896.588-1.902.533-2.253-.122zm-20.895-.12c-.181-.218-.553-.396-.826-.396-.274 0-.497-.177-.497-.394 0-.216-.4-.56-.888-.764l-.887-.37.027-2.61c.026-2.442.066-2.626.626-2.871.328-.145.664-.472.745-.728.11-.343.318-.424.792-.305.385.097.643.047.643-.125 0-.158.304-.487.675-.73.644-.422.713-.415 1.465.14.468.347.988.522 1.276.43.343-.109.529.004.628.382.092.354.36.536.785.536 1.038 0 1.62.858 1.423 2.094-.102.639-.057 1.118.115 1.224.189.117.152.319-.111.611-.217.24-.433.854-.48 1.363-.073.775-.249 1.001-1.08 1.39-.545.257-.992.587-.992.734 0 .15-.276.198-.625.11-.43-.108-.676-.027-.786.26-.205.535-1.59.549-2.028.02zm8.863-8.07c-.403-.581-.866-1.061-1.028-1.065-.162-.004-.075-.136.194-.292.269-.157.578-.183.688-.059.24.273 1.107 2.475.974 2.475-.052 0-.424-.476-.828-1.058zm5.28.178c.079-.267.144-.7.144-.962 0-.298.248-.524.662-.603.785-.15.807-.088.198.551a9.42 9.42 0 0 0-.806.992c-.315.464-.332.466-.199.022zm7.452-6.033c-.267-.38-.574-.518-.941-.422-.409.107-.546.018-.546-.355 0-.288-.343-.674-.813-.918-.712-.368-.804-.541-.742-1.403.04-.54-.019-1.128-.128-1.306a.684.684 0 0 1 .004-.654c.112-.182.171-.642.131-1.023-.077-.735.54-1.557 1.17-1.557a.385.385 0 0 0 .378-.388c0-.224.156-.329.37-.247.203.078.59-.085.86-.363.755-.778 1.383-.894 2.352-.434.489.232 1 .353 1.137.268.136-.084.31.084.385.373.092.351.361.527.809.527.917 0 1.49.88 1.307 2.01-.087.535-.012 1.056.186 1.295.239.287.246.399.025.399-.213 0-.254.389-.137 1.276.204 1.534-.329 2.309-1.401 2.04-.495-.125-.677-.043-.779.347-.085.325-.298.465-.592.389-.252-.066-.613.067-.803.295-.504.608-1.761.524-2.233-.15zm-21.066-.362c-.181-.218-.613-.397-.959-.397s-.629-.152-.629-.338c0-.186-.372-.664-.827-1.064-.712-.624-.807-.854-.679-1.641.082-.504.032-.988-.111-1.076-.168-.104-.162-.28.018-.497.153-.184.207-.69.12-1.123-.18-.905.395-1.669 1.258-1.669.31 0 .593-.22.672-.523.107-.406.24-.467.604-.273.343.184.584.12.914-.244.764-.845 1.422-.839 2.404.023.618.542 1.066.741 1.418.63.42-.134.49-.064.374.376-.106.405-.014.54.366.54.28 0 .65.143.825.318.39.39.42 1.969.04 2.204-.188.116-.172.298.049.565.237.285.245.443.031.576-.162.1-.333.716-.38 1.369-.08 1.133-.124 1.19-.974 1.27-.582.057-.932.248-1.012.556-.086.327-.308.434-.733.353-.336-.065-.69.013-.79.173-.262.425-1.617.352-2-.108zm-5.821-7.673c0-.263.264-.397.784-.397.5 0 .883-.182 1.054-.502.242-.452.174-.5-.67-.477-1.034.03-1.422-.355-1.429-1.415-.005-.907.456-1.31 1.498-1.31 1.178 0 1.796.931 1.598 2.408-.08.59-.351 1.302-.605 1.582-.568.628-2.23.71-2.23.111zm1.966-2.428c.096-.251-.006-.62-.236-.85-.366-.366-.448-.366-.814 0-.496.496-.246 1.294.407 1.294.26 0 .55-.2.643-.444zm31.019 2.649c-.349-.349-.165-.584.521-.666.384-.046.855-.322 1.047-.613.331-.5.29-.53-.764-.53-1.09 0-1.115-.02-1.194-.966-.063-.761.048-1.057.522-1.39.822-.575 1.193-.532 1.952.228.708.708.844 1.81.356 2.88-.407.893-1.94 1.557-2.44 1.057zm1.543-2.999c0-.413-.17-.687-.464-.743-.523-.101-.864.532-.623 1.16.252.657 1.087.337 1.087-.417z" transform="translate(-99.845 -179.534)"/><path style="fill:#aa9d19;stroke-width:.26458332" d="M103.987 241.757c-.262-.29-.438-.933-.438-1.6 0-1.393.947-2.494 2.035-2.365.992.117 1.123.744.157.744-.737 0-1.398.403-1.398.852 0 .12.302.14.672.048 1.257-.316 2.106 1.04 1.435 2.293-.36.673-1.863.69-2.463.028zm1.65-.409c.403-.485.093-1.224-.513-1.224-.62 0-.86.392-.648 1.06.194.611.728.687 1.162.164zm31.31.671c-.968-.614-.828-3.46.198-4.009.73-.39 2.194-.345 2.051.063-.063.182-.31.296-.548.254-.579-.103-1.497.408-1.497.834 0 .225.257.304.751.232.855-.126 1.63.483 1.63 1.279 0 1.106-1.628 1.954-2.584 1.347zm1.475-1.334c-.09-.782-.675-.917-1.094-.253-.201.318-.185.554.056.845.495.596 1.134.232 1.038-.592zm-17.988-.693c-.195-.428-.517-.662-.912-.662-.466 0-.57-.106-.438-.45.108-.28.212-.33.278-.132.174.52.591.36.591-.227 0-.3-.119-.471-.264-.382-.501.31-.264-.56.398-1.456.449-.609.605-1.073.485-1.44-.097-.299-.172-1.564-.165-2.812l.012-2.27-.794-.299c-.904-.341-.907-.066.057-4.555a29.28 29.28 0 0 0 .632-5.752c.03-2.494.102-2.975.446-2.977.226-.001.553-.145.728-.32.384-.384.421-1.27.053-1.27-.146 0-.265-.238-.265-.529 0-.773-.642-.646-1.001.199l-.31.727.145-.793c.112-.61.073-.723-.168-.486-.175.171-.27.763-.215 1.336l.098 1.03-.73-.365c-.401-.2-.73-.478-.73-.617 0-.14-.267-.362-.595-.493-.58-.234-.578-.24.103-.256.384-.01.98-.262 1.323-.561.588-.512.59-.528.047-.265-.924.447-1.015.33-.328-.421l.641-.7-.61.15c-.476.118-.548.076-.329-.19.222-.266.125-.31-.447-.207-.402.072-.85.222-.995.334-.145.111-.408.046-.584-.145-.48-.522.217-.988 1.154-.77.734.17.74.164.224-.272-.516-.436-.508-.444.278-.314.617.103.886.007 1.144-.405.185-.297.218-.467.074-.377-.35.216-1.15-.604-.933-.956.11-.18-.16-.237-.773-.166-.52.06-.886.016-.814-.1.07-.114.36-.208.643-.208.342 0 .513-.182.513-.547 0-.426.117-.51.527-.38.397.126.604 0 .836-.511.17-.374.469-.679.664-.679.418 0 .429-.415.089-3.572-.29-2.692-.345-3.008-.947-5.494-.483-1.993-.294-2.576.835-2.576.597 0 .615-.068.615-2.309 0-1.678-.075-2.202-.276-1.918-.217.307-.236.277-.089-.138.443-1.252.436-1.53-.053-2.202-.649-.89-.98-1.73-.587-1.486.181.112.266-.1.233-.582-.078-1.153-.039-1.291.579-2.077l.573-.729.584 1.144c.454.89.532 1.321.353 1.95l-.23.807.636-.794c.443-.554.543-.852.33-.988-.172-.11.025-.196.45-.199l.755-.004-.756.756c-1.265 1.265-2.012 2.696-1.806 3.462.212.788.205 1.72-.026 3.661-.154 1.292-.113 1.438.538 1.95.466.367.645.699.53.985-.357.892-1.417 6.326-1.596 8.181-.164 1.71-.129 1.972.313 2.302.473.354.468.365-.099.222-.328-.082-.774-.003-.992.178-.467.388-.53 2.002-.09 2.274.21.13.26.01.158-.381-.082-.314-.041-.57.09-.57.132 0 .24.237.24.528 0 .291.155.53.344.53.556 0 .98-.582.98-1.346 0-.543.151-.739.647-.833.396-.076.702.015.786.233.075.197.409.365.74.373.48.012.419.08-.293.33-1 .352-1.927 1.419-1.234 1.419.214 0 .33-.093.26-.207-.07-.114.114-.337.409-.495.417-.223.536-.207.536.075 0 .198-.296.52-.658.713-.508.272-.591.433-.364.706.4.482 1.03.445 1.416-.083.253-.346.364-.365.533-.091.128.208.109.281-.048.184-.144-.089-.261.012-.261.225 0 .32.083.31.485-.053.557-.505.639-1.666.154-2.21-.28-.313-.255-.312.16.003.374.284.46.605.359 1.351-.072.539-.013 1.097.131 1.242.174.173.096.43-.231.757-.392.391-.64.442-1.202.245-.503-.177-.825-.15-1.12.094-.496.412-.537.983-.081 1.145.182.065.244.211.138.325-.105.113-.396.04-.646-.163-.393-.319-.424-.315-.23.029.495.88 1.053 1.325 1.705 1.359.645.034.65.043.075.153-.336.064-.672.273-.745.464-.073.19-.342.292-.597.225-.256-.067-.62.066-.81.294-.189.228-.523.415-.743.415-.34 0-.37.361-.212 2.448.102 1.346.475 4.14.828 6.208.353 2.068.641 3.882.641 4.03 0 .148-.297.343-.661.435-.783.196-.783.2-.23 1.914.4 1.237.4 1.419 0 2.417-.566 1.416-.544 1.913.108 2.472.431.369.505.648.368 1.382-.11.588-.07.92.113.92.157 0 .214-.21.126-.464-.128-.373-.08-.36.255.066.387.495.374.535-.204.61-.399.053-.676.311-.78.728-.21.83-.612.824-.995-.015zm.919-10.716c-.076-.291-.184-.53-.24-.53-.056 0-.101.239-.101.53 0 .291.107.53.24.53.131 0 .177-.239.1-.53zm-.606-33.073c0-.291-.108-.53-.24-.53s-.177.239-.101.53c.076.291.184.53.24.53.055 0 .101-.239.101-.53zm.704-.33c-.073-.183-.133-.034-.133.33s.06.513.133.33c.074-.181.074-.479 0-.66zm-1.498.198c0-.219-.112-.397-.249-.397-.333 0-.572.413-.361.624.298.298.61.182.61-.227zm-10.184 43.791c-.093-.15.013-.194.249-.104.458.176.542.366.161.366-.137 0-.321-.118-.41-.262zm21.873.074c.957-.146 1.328-.664 1.228-1.713-.07-.723-.206-.891-.778-.958-.53-.061-.735.062-.875.53-.176.588-.19.591-.413.08-.194-.446-.233-.393-.249.33-.016.729-.117.86-.658.86-.352 0-.858.076-1.125.168-.424.147-.418.116.045-.246.522-.41.52-.417-.133-.68l-.661-.266.677-.017c.643-.016 2.01-.784 1.426-.802-.152-.005-.427.14-.61.322-.268.265-.299.24-.157-.132.096-.255.282-.463.412-.463s.236-.252.236-.56c0-.455-.124-.536-.661-.434-.822.157-.852.002-.066-.345.495-.219.44-.239-.33-.12-.51.079-1.062.324-1.227.544-.247.332-.322.251-.43-.466-.072-.478-.026-.908.101-.956.128-.049.232-.26.232-.471 0-.295.171-.257.742.166.862.637 1.444.502 1.87-.432.166-.365.195-.598.064-.516-.132.08-.31-.037-.396-.262-.103-.269-.045-.352.17-.243.18.092.06-.07-.268-.36-.698-.616-.556-1.261.313-1.427.484-.093.582-.018.482.365-.07.265-.045.804.054 1.2.142.562.233.634.423.334.167-.263.243-.28.246-.052.002.182.242.33.533.33.292 0 .53-.118.53-.264 0-.145.126-.264.28-.264.154 0 .195.137.091.305-.117.19-.072.234.117.117.168-.104.305-.54.305-.967 0-.428.11-.778.243-.778.134 0 .432-.073.662-.161.271-.104.418-.016.418.251 0 .227.209.534.463.682.4.234.37.271-.223.278-.378.004-.892.235-1.143.512-.39.43-.405.586-.107 1.07.203.328.536.517.795.45.245-.062.515.068.6.29.134.348.234.335.724-.095.47-.412.541-.424.412-.069-.086.237-.037.55.11.697.177.178.157.438-.06.787-.317.507-.34.508-.816.03-.511-.51-1.438-.689-1.149-.22.092.148.257.212.369.144.11-.069.202.046.202.256 0 .28-.09.307-.341.098-.188-.156-.466-.207-.618-.113-.337.209-.368.933-.04.933.13 0 .303.173.384.384.103.269.012.34-.303.24-.383-.123-.39-.102-.052.141.218.157.635.295.926.306.486.02.48.04-.066.26-.328.132-.596.359-.596.505 0 .145-.156.204-.347.131-.191-.073-.567.11-.835.405-.28.31-.78.522-1.174.5l-.687-.04zm-19.905-.522c.343-.711.363-1.852.036-2.055-.42-.26-1.608.35-1.636.84-.018.321-.093.26-.238-.192-.194-.607-.214-.586-.238.265-.023.804-.113.926-.688.926-.364 0-.661-.153-.661-.34 0-.186-.268-.446-.596-.578-.577-.232-.573-.24.117-.256.391-.01.785-.135.874-.278.092-.15-.014-.195-.25-.104-.59.227-.505-.135.161-.674.602-.487.456-1.224-.192-.975-.2.077-.426.035-.505-.091-.078-.127.007-.291.19-.365.195-.078.133-.143-.148-.155-.264-.011-.74.114-1.058.28-.318.165-.49.206-.382.09.108-.115.077-.353-.069-.53-.18-.217-.138-.56.133-1.082.22-.42.399-.617.4-.44 0 .179.353.506.782.728 1.076.557 1.337.496.542-.125-.463-.363-.538-.52-.25-.523.225-.003.55.135.722.307.5.5.717.005.232-.53-.678-.75-.562-1.294.147-.684l.587.504-.42-.662c-.23-.363-.762-.736-1.181-.828-.619-.136-.65-.173-.167-.199.327-.017.595-.136.595-.265 0-.128.305-.292.677-.363.524-.1.642-.039.524.27-.084.219-.07.829.032 1.355.176.904.196.92.376.295.181-.63.192-.633.217-.066.036.823.437.744.991-.193.324-.55.529-.69.672-.463.152.238.208.217.211-.079.007-.699-.766-1.541-1.52-1.656l-.725-.11.709-.039c.477-.027.883.183 1.246.644.296.376.657.61.803.52.146-.09.508.078.804.374.297.297.436.539.31.539s-.537.243-.915.54c-.601.473-.65.621-.388 1.194.217.478.447.619.849.521.303-.073.402-.065.22.018-.182.084-.33.25-.33.37 0 .267 1.043.032 1.587-.357.218-.157.309-.18.2-.053-.107.128-.048.41.133.63.262.317.261.42-.002.51-.182.06-.33.298-.33.526 0 .357-.076.348-.531-.064-.292-.264-.607-.405-.7-.312-.092.093.027.244.266.335.24.092.435.292.435.445 0 .152-.218.08-.484-.162-.267-.24-.57-.352-.676-.247-.105.105-.112-.044-.017-.33.1-.297-.064-.18-.38.272-.683.975-.698 1.326-.08 1.771.265.19.552.536.638.768.123.331.018.395-.493.297-.429-.082-.786.045-1.049.372-.377.47-.384.466-.12-.081zm2.687-1.329c.192-.32.407-.526.476-.456.07.07-.088.332-.35.583-.456.436-.461.43-.126-.127zm21.202-.406c.184-.392.378-.586.431-.43.054.154-.097.475-.334.712-.398.399-.406.377-.097-.282zm-23.081-.349c0-.227.12-.338.269-.246.148.091.2.277.116.412-.226.367-.385.299-.385-.166zm16.404-3.043c0-.154.12-.206.265-.116.145.09.264.216.264.28 0 .064-.119.117-.264.117-.146 0-.265-.127-.265-.28zm-13.717-.513c0-.364.06-.513.134-.33.073.181.073.479 0 .66-.073.182-.134.034-.134-.33zm-2.363-.417c.251-.263.53-.405.618-.316.089.088-.117.303-.456.478-.591.303-.598.296-.162-.162zm20.578.03c0-.068.268-.266.595-.44.54-.289.562-.277.232.122-.338.41-.827.598-.827.317zm-18.785-.671c-.239-.155-.272-.259-.082-.261a.616.616 0 0 1 .478.26c.203.329.112.329-.397 0zm12.964-.1c0-.055.208-.264.463-.463.42-.33.43-.32.1.1-.346.44-.563.58-.563.363zm4.993-1.951c-.329-.42-.32-.429.1-.1.255.2.463.408.463.463 0 .218-.217.078-.563-.363zm-8.499-4.909c-.866-.242-.992-.379-.992-1.078v-.801l1.059 1.033c.907.886 1.252 1.29.992 1.157a23.966 23.966 0 0 0-1.059-.31zm-14.76-.458c-.296-.297-.647-.472-.78-.39-.133.082-.371-.092-.53-.387-.157-.295-.506-.537-.774-.537s-.645-.208-.838-.463c-.298-.394-.295-.413.021-.132.53.473 1.725.408 2.15-.117.248-.304.258-.384.033-.249-.476.286-.407-.103.122-.688.39-.431.4-.533.066-.744-.542-.343-1.002-.307-.519.041.328.236.31.257-.1.124-.272-.09-.69-.011-.925.173-.382.298-.39.284-.067-.128.468-.595.104-.597-.607-.003-.302.254-.461.354-.353.223.107-.13.076-.382-.071-.559-.147-.177-.193-.513-.104-.747.124-.322.282-.362.649-.166.267.143.746.26 1.064.26.47 0 .52-.07.267-.376-.256-.309-.214-.35.232-.234.554.145.761-.283.281-.58-.144-.09-.391-.403-.549-.697-.264-.494-.24-.511.33-.235l.615.3-.632-.55c-.42-.366-.816-.492-1.179-.377-.514.163-.52.147-.095-.278.248-.247.45-.569.45-.714 0-.145.244-.186.541-.092.392.125.688-.016 1.078-.511.312-.397.778-.668 1.113-.647.564.035.563.039-.026.152-.875.168-1.489 1.226-1.233 2.125l.208.73.183-.926c.11-.557.198-.697.219-.353.053.883.32 1.411.712 1.411.458 0 1.284-1.726 1.025-2.144-.124-.2-.085-.25.103-.134.165.102.528.064.807-.086.425-.227.534-.167.669.371.12.478-.018.822-.537 1.341l-.699.699.568.567c.482.482.647.518 1.094.24.437-.274.526-.262.526.07 0 .22-.14.399-.309.399-.17 0-.238.07-.152.156.35.35 1.324-.26 1.664-1.041.2-.46.368-.678.374-.487.006.192-.117.586-.273.877-.203.38-.2.63.013.885.204.246.21.41.018.528-.152.094-.277.626-.277 1.182 0 .652-.164 1.134-.463 1.36-.394.299-.414.295-.132-.02.44-.493.419-1.368-.049-2-.312-.424-.44-.453-.727-.168-.288.287-.274.318.08.184.268-.102.494.006.601.286.152.394.118.404-.27.081-.245-.202-.515-.353-.602-.335-.087.018-.312-.027-.5-.1-.566-.216-.71.172-.385 1.034.308.814.307.814-.249.32-.55-.487-.552-.486-.245.1.17.325.594.663.941.75.613.153.617.172.145.645-.786.785-1.584.402-1.589-.762-.003-.718-.069-.861-.26-.565-.22.34-.257.33-.26-.066-.003-.254-.14-.463-.306-.463-.166 0-.474.209-.683.463-.364.441-.375.441-.236 0 .228-.727-.086-.54-.377.223-.343.903.18 2.007 1.068 2.253.628.174.631.185.066.21-.327.014-.838-.216-1.134-.513zm7.866-.102c.66-.569.763-.591.923-.199.31.761.242.84-.724.84h-.94zm15.6-.162c.126-.623.088-.814-.132-.678-.192.119-.305-.007-.305-.34 0-.821-.551-.97-1.066-.286-.44.581-.472.587-.595.104-.074-.29-.143-.096-.16.45-.026.802-.14.982-.687 1.087-.47.09-.699-.01-.806-.35-.083-.26-.354-.527-.601-.592-.282-.074-.195-.13.23-.15.375-.016.97-.347 1.323-.734.65-.714.265-.626-.653.149-.477.401-.486.393-.19-.173.172-.327.436-.595.587-.595.152 0 .235-.208.186-.463-.049-.255-.207-.465-.35-.467-.144-.002-.415-.102-.603-.221-.202-.128-.59-.056-.945.177-.546.358-.63.349-.909-.097-.195-.313-.212-.55-.047-.653.17-.104.168-.333-.005-.656-.32-.599-.347-1.507-.048-1.692.119-.073.168.198.108.604-.146.996.525 1.617 1.744 1.612.726-.003.873-.07.577-.26-.34-.22-.33-.258.066-.261.54-.005.62-.788.132-1.313-.268-.29-.256-.32.066-.166.218.105.166.003-.117-.225-.282-.23-.818-.426-1.19-.438-.413-.013-.522-.08-.28-.171.218-.083.492-.311.608-.508a.806.806 0 0 1 .623-.358c.227 0 .646-.298.933-.662.286-.364.72-.654.964-.644.316.011.272.085-.154.256-.844.34-1.222 1.282-.877 2.188.4 1.052 1.01 1.178 1.763.366.755-.814.788-1.165.193-2.04-.437-.643-.436-.647.076-.202.302.263.75.393 1.07.31.91-.239 1.011.875.147 1.618-.637.548-.671.666-.358 1.252.263.49.549.639 1.185.616.46-.017.963-.11 1.116-.205.498-.311.896.683.493 1.234-.301.412-.424.434-.778.14-.23-.191-.383-.239-.339-.105.084.252-.112.376-.596.376-.154 0-.206-.12-.116-.265.09-.145.1-.265.025-.265-.077 0-.266.237-.42.527-.218.405-.176.689.179 1.23l.46.704-.651-.343-.652-.342.504.567c.278.312.813.584 1.191.604.623.033.631.047.091.15-.368.071-.595.307-.595.618 0 .34-.13.452-.4.349-.22-.085-.577-.007-.794.172-.339.282-.37.207-.22-.54zm-4.477-2.935c.18-.18.393-.262.475-.18.081.081-.066.23-.327.328-.377.144-.407.114-.148-.148zm-22.377-2.877c0-.364.06-.513.134-.331.073.182.073.48 0 .661-.074.182-.134.034-.134-.33zm6.208.052c-.083-.135.072-.448.345-.696.273-.247.565-.338.649-.203.084.136-.071.45-.345.696-.273.248-.565.339-.649.203zm21.002-.024c0-.13.196-.311.435-.403.363-.14.38-.1.1.236-.381.46-.535.507-.535.167zm-2.491-.463c-.243-.633-.054-.682.32-.082.178.284.216.517.085.517s-.313-.196-.405-.435zm4.715-.69-.504-.595.595.504c.56.474.716.687.505.687-.05 0-.319-.268-.596-.596zm-21.869-.638c.182-.073.48-.073.662 0 .181.073.033.133-.331.133s-.513-.06-.33-.133zm11.328-2.548c.1-.261.247-.408.329-.326.081.081 0 .294-.18.474-.262.26-.293.229-.149-.148zm-1.208-2.04c-.615-.196-.621-.213-.081-.237.318-.015.653.092.743.238.09.145.127.252.082.238l-.744-.238zm6.233-3.679c-.081-.132.09-.177.382-.101.617.161.695.341.148.341-.21 0-.448-.108-.53-.24zm1.646-.172c.59-.413.82-1.44.323-1.44-.145 0-.264-.171-.264-.381 0-.613-.58-.798-.943-.302-.314.43-.34.428-.448-.025-.093-.397-.166-.354-.412.243-.164.399-.242.875-.171 1.058.08.208-.12.347-.528.37-.432.026-.71-.132-.814-.462-.088-.276-.311-.5-.497-.5s-.565-.269-.842-.596c-.504-.595-.504-.595.046-.133.706.595 1.485.589 2.234-.017.533-.432.557-.546.237-1.125-.196-.354-.33-.733-.3-.842.088-.31-.33-.233-.723.132-.285.265-.319.265-.17 0 .23-.407.023-.42-.686-.04-.719.385-1.54-.313-1.056-.897.168-.202.218-.475.11-.605-.108-.131.051-.03.354.222.793.665 2.078.597 2.553-.135.428-.66.332-1.359-.15-1.083-.169.097-.22.078-.112-.04.341-.377-.36-.926-1.22-.958-.565-.02-.66-.072-.299-.162.291-.072.625-.296.741-.498.117-.202.436-.368.71-.368.274 0 .574-.238.666-.529.116-.366.386-.52.878-.503l.71.027-.66.183c-.886.247-1.248 1.318-.806 2.385.389.939 1.209 1.098 1.467.286.093-.294.27-.47.395-.393.478.295.564-.967.114-1.667-.457-.71-.456-.711.072-.245.292.258.717.398.943.311.268-.103.472.033.585.39.11.347.4.55.785.55.337 0 .77.207.962.462.298.394.295.414-.02.132-.838-.747-2.911-.052-2.911.975 0 .636.617 1.127 1.157.92.238-.091.43-.034.43.128 0 .469.463.34 1.087-.303.318-.327.491-.441.385-.253-.107.189-.064.5.096.692.212.256.2.52-.044.983-.372.706-1.206.825-1.877.268-.372-.308-.459-.296-.605.083-.093.244-.031.748.138 1.12.274.601.256.658-.163.512-.345-.12-.307-.025.139.354.508.43.561.61.317 1.066-.161.301-.411.475-.556.385-.145-.09-.551.027-.904.257-.827.543-1.226.55-.453.008zm3.102-3.821a.615.615 0 0 0-.48-.26c-.188.001-.156.106.083.26.508.328.6.328.397 0zm-25.797 3.572c-.181-.219-.553-.397-.826-.397-.274 0-.497-.183-.497-.406 0-.223-.268-.513-.596-.644-.587-.236-.586-.24.082-.256.373-.01.908-.205 1.19-.434.283-.229.366-.34.184-.249-.423.215-.434-.449-.014-.869.247-.247.244-.317-.015-.317-.183 0-.26-.119-.17-.264.108-.175-.07-.175-.529 0-.46.174-.637.174-.529-.002.208-.336-.033-.335-.661.001-.394.211-.528.158-.661-.262-.253-.796.044-1.08.82-.786 1.032.393 1.562.338 1.18-.122-.257-.31-.21-.35.263-.225.512.134.542.09.28-.4-.391-.73-.374-1.187.036-.978.182.092.06-.07-.268-.36-.33-.291-.724-.57-.875-.621-.152-.05-.196-.302-.098-.558.115-.3.348-.412.654-.315.301.095.721-.095 1.147-.521.37-.37.827-.668 1.015-.662.189.006.017.187-.381.404-.862.467-1.13 1.313-.742 2.335.196.516.41.695.697.585.229-.088.584-.16.79-.16.207 0 .376-.238.376-.529 0-.29.119-.529.264-.529.422 0 .307-.834-.198-1.434-.46-.547-.46-.547.113-.063.352.297.777.423 1.092.323.37-.118.553-.019.65.352.084.32.424.56.893.63l.758.113-.814.04c-.487.023-1.062.304-1.433.698-.594.632-.6.679-.151 1.174.314.348.717.485 1.238.419.43-.055.704.01.619.148-.084.135-.413.26-.732.277-.426.022-.46.062-.13.149.527.138 1.608-.377 1.422-.678-.07-.114.034-.208.232-.208s.298.16.223.357c-.075.195-.003.517.16.714.226.27.2.44-.102.69-.22.183-.408.586-.417.896l-.017.562-.232-.578c-.245-.607-1.258-1.293-1.52-1.03-.085.084-.015.153.154.153.17 0 .309.103.309.228s-.298.171-.661.102c-.52-.1-.662-.018-.662.38 0 .28.149.668.33.864.272.292.24.323-.183.174-.501-.179-.502-.17-.025.358.27.297.65.54.845.54.245 0 .197.159-.153.51-.317.316-.718.455-1.059.366-.436-.115-.549-.354-.549-1.171 0-.92-.069-1.028-.661-1.028-.4 0-.662.151-.662.381 0 .21-.108.449-.24.53-.134.083-.21-.145-.17-.505.098-.898-.301-.588-.519.402-.118.54-.037 1.013.25 1.452.472.719.401.875-.114.254zm4.96-1.676c.255-.267.51-.448.568-.403.156.123-.531.888-.798.888-.128 0-.024-.218.23-.485zm-8.034-.425c-.08-.21-.1-.597-.042-.86.064-.3.155-.156.24.381.145.901.051 1.127-.198.479zm22.725-.148c.37-.291.773-.525.896-.52.314.012-.968 1.049-1.298 1.049-.149 0 .032-.238.402-.53zm6.849 0c0-.364.06-.513.133-.331.074.182.074.48 0 .661-.073.182-.133.034-.133-.33zm-21.853-.981c-.144-.377-.113-.407.148-.148.18.18.262.393.18.474-.08.082-.229-.065-.328-.326zm12.846-2.89c-.017-.31.178-.726.432-.925.403-.316.424-.312.161.033-.166.218-.36.635-.432.926-.124.503-.132.501-.161-.034zm-14.435-.073c-.134-.216.144-.528.8-.898.158-.09.287-.005.287.187 0 .436-.895 1.021-1.087.71zm20.754.14c0-.055.209-.264.463-.463.42-.33.43-.32.1.1-.346.44-.563.58-.563.363zm-2.205-.341c-.097-.097-.172-.365-.168-.596.007-.344.058-.332.289.064.285.49.202.854-.12.532zm-24.782-.32c0-.268.765-.955.888-.798.045.057-.136.312-.403.566-.267.255-.485.359-.485.231zm3.443-.496c-.002-.473.042-.86.098-.86.24 0 .343 1.031.135 1.36-.156.244-.23.084-.233-.5zm8.595-.86c-.403-.582-.866-1.062-1.028-1.066-.162-.004-.075-.136.194-.292.269-.157.578-.183.688-.059.24.273 1.107 2.475.974 2.475-.052 0-.424-.476-.828-1.058zm5.28.177c.079-.267.144-.7.144-.962 0-.298.248-.524.662-.603.785-.15.807-.088.198.551a9.42 9.42 0 0 0-.806.992c-.315.464-.332.466-.199.022zm7.452-6.033c-.258-.368-.577-.517-.916-.428-.394.103-.551-.02-.644-.505-.095-.5.042-.727.62-1.026.408-.21.824-.516.924-.677.1-.162-.13-.09-.512.16-.393.258-.694.331-.694.17 0-.158.233-.411.519-.564.633-.34.43-1.064-.299-1.064-.284 0-.443-.119-.353-.264.23-.373-.03-.33-1.005.166-.466.236-.759.337-.65.222.107-.114.067-.362-.09-.55-.156-.19-.19-.498-.073-.686.116-.189.204-.64.195-1.004-.015-.58-.003-.59.093-.07.06.326.367.773.68.993.745.521 1.238.52.57-.001-.476-.372-.46-.379.215-.09.98.42 1.135.177.65-1.02-.36-.89-.505-1-1.289-.975l-.883.027.727-.277c.4-.152.728-.428.728-.614s.166-.274.37-.196c.203.078.617-.123.919-.447l.55-.59-.31.818c-.42 1.113.05 2.177.96 2.177 1.26 0 1.838-1.214 1.172-2.464-.278-.521-.265-.543.129-.218.24.198.605.296.81.217.225-.086.429.06.509.367.086.331.364.511.787.511.36 0 .812.208 1.004.463.298.394.295.414-.02.132-.564-.502-1.712-.395-2.26.21-.465.514-.465.532-.01.357.421-.162.442-.115.171.39-.169.317-.24.684-.159.816.167.27 1.15.219 1.74-.09.211-.11.104.045-.24.348-.343.302-.472.549-.285.549s.528-.17.759-.38c.37-.334.455-.303.723.265.172.363.196.644.055.644-.144 0-.177.536-.08 1.276.183 1.37-.247 2.168-1.161 2.16-.304-.003-.236-.11.217-.339.86-.435.97-2.075.148-2.196a13.44 13.44 0 0 1-1.084-.218c-.433-.11-.647.024-.887.55-.271.595-.24.774.215 1.259.64.682.491 1.746-.22 1.56-.251-.066-.613.067-.802.295-.19.229-.472.416-.628.416-.155 0-.096-.15.133-.331.64-.509.817-1.676.328-2.164-.545-.545-1.08-.527-1.415.047-.215.37-.275.383-.296.066-.018-.27-.1-.227-.254.133-.355.826-.305 1.15.264 1.72.291.29.417.529.28.529-.137 0-.428-.254-.645-.565zm4.995-3.67a.615.615 0 0 0-.478-.26c-.19.002-.157.107.081.26.509.33.6.33.397 0zm-5.068-2.524c-.086-.225-.213-.352-.283-.282-.069.07-.047.253.049.408.26.422.413.34.234-.126zm-20.993 5.832c-.181-.218-.583-.398-.892-.399-.341 0-.684-.262-.87-.661-.235-.509-.232-.66.016-.66.177 0 .553-.187.835-.416.283-.23.365-.341.183-.25-.182.093-.33.039-.33-.12s.178-.357.396-.44c.219-.085.397-.391.397-.683 0-.442-.12-.501-.727-.36-.54.125-.625.1-.331-.1.321-.217.274-.27-.244-.272-.352-.002-.863.197-1.136.444-.429.388-.473.392-.333.027.089-.232.037-.499-.116-.593-.19-.118-.18-.328.033-.668.275-.44.37-.454.847-.12.664.465 1.996.495 2.038.046a5.227 5.227 0 0 0-.022-.823c-.033-.318.059-.424.26-.299.239.147.242.06.015-.365-.165-.306-.563-.614-.887-.683l-1.116-.237c-.451-.095-.438-.116.09-.142.38-.019.674-.234.757-.554.106-.403.242-.466.596-.277.28.15.555.151.704.002.148-.148.254.174.271.826.016.588.158 1.199.317 1.358.208.208.248 0 .143-.747-.108-.778-.074-.937.138-.64.156.22.285.606.287.86.007.785.704.513 1.019-.396.297-.858.297-.858.162-.066-.1.593-.067.693.134.397.402-.594.332-1.347-.183-1.964-.252-.302-.085-.21.373.203.596.541.986.704 1.383.578.44-.14.518-.086.383.266-.097.252-.01.541.2.675.285.18.246.235-.167.238-.638.005-1.713.707-1.713 1.118 0 .16.24.074.531-.19.292-.264.593-.418.668-.343.075.075-.044.288-.266.472-.778.645-.448 1.223.615 1.077.197-.027.279.078.183.233-.096.156.011.283.238.283.227 0 .383-.09.346-.199-.036-.109.04-.218.17-.242.129-.024.335-.202.458-.397.153-.24.226-.253.228-.038a.631.631 0 0 1-.273.487c-.187.115-.165.308.066.587.272.33.275.44.013.528-.182.061-.33.299-.33.527 0 .371-.05.373-.464.018-.836-.718-1.132-.81-.95-.293.137.39.103.416-.188.146-.585-.542-.847-.38-.726.45.063.428.017.719-.102.645-.12-.074-.217-.01-.217.144 0 .153.22.415.487.582.696.434.188 1.507-.639 1.349-.319-.061-.66.02-.758.179-.099.159-.318.29-.487.29-.17 0-.043-.186.28-.413.443-.31.588-.676.588-1.484 0-1.07-.002-1.072-.926-.964-.537.063-.928-.008-.93-.17-.002-.152-.12-.099-.26.12-.44.68-.316 2.325.198 2.624.255.149.329.274.165.278-.165.004-.447-.17-.628-.389zm24.474-1.72c-.264-.29-.37-.529-.237-.529s.39.238.572.53c.182.29.289.529.237.529-.051 0-.309-.239-.572-.53zm-25.847-3.62c.191-.076.42-.067.507.021.088.088-.068.15-.347.139-.308-.013-.37-.075-.16-.16zm6.956-1.485c-.335-.557-.33-.563.126-.126.262.25.42.513.35.583-.07.07-.284-.136-.476-.457zm15.848.327c0-.154.12-.206.265-.116.145.09.264.216.264.28 0 .064-.119.116-.264.116-.146 0-.265-.126-.265-.28zm-27.252-1.175c0-.263.264-.397.784-.397.5 0 .883-.182 1.054-.502.242-.452.174-.5-.67-.477-1.034.03-1.422-.355-1.429-1.415-.004-.907.456-1.31 1.498-1.31 1.178 0 1.796.931 1.598 2.408-.08.59-.351 1.302-.605 1.582-.568.628-2.23.71-2.23.111zm1.966-2.428c.096-.251-.006-.62-.236-.85-.366-.366-.448-.366-.814 0-.496.496-.246 1.294.407 1.294.26 0 .55-.2.643-.444zm31.019 2.649c-.349-.349-.165-.584.521-.666.384-.046.855-.322 1.047-.613.331-.5.29-.53-.764-.53-1.09 0-1.115-.02-1.194-.966-.063-.761.048-1.057.522-1.39.822-.575 1.193-.532 1.952.228.708.708.844 1.81.356 2.88-.407.893-1.94 1.557-2.44 1.057zm1.543-2.999c0-.413-.17-.687-.464-.743-.523-.101-.864.532-.623 1.16.252.657 1.087.337 1.087-.417zm-19.31 2.387c-.438-.485-.44-.536-.029-.694.244-.094.518-.097.61-.006.09.09-.053.165-.318.165-.465 0-.465.018-.003.529.264.291.42.53.347.53-.073 0-.346-.237-.606-.525z" transform="translate(-99.845 -179.534)"/><path style="fill:#c41c24;stroke-width:.26458332" d="M103.987 241.757c-.262-.29-.438-.933-.438-1.6 0-1.393.947-2.494 2.035-2.365.992.117 1.123.744.157.744-.815 0-1.398.412-1.398.989 0 .275.12.288.547.06.425-.227.69-.199 1.19.13.685.448.818 1.176.37 2.014-.36.673-1.863.69-2.463.028zm1.774-.443c.233-.605-.093-1.19-.661-1.19-.28 0-.578.178-.662.397-.232.605.094 1.19.662 1.19.28 0 .578-.178.661-.397zm31.18.701c-.896-.568-.808-3.26.13-3.946.539-.395 2.132-.337 1.94.07-.068.146-.275.23-.46.188-.506-.116-1.4.441-1.4.873 0 .277.204.34.743.233.792-.158 1.18.14 1.487 1.14.337 1.099-1.381 2.114-2.44 1.442zm1.49-1.082c.12-.825-.342-1.258-.872-.818-.491.407-.536 1.236-.077 1.42.555.222.855.031.948-.602zm-18.074-1.06c-.222-.43-.404-1.075-.404-1.434s-.132-.697-.295-.75c-.17-.058.002-.452.416-.942l.71-.844.643.694c.646.697.897 1.598.35 1.26-.198-.122-.234.004-.113.386.2.628-.293 2.41-.666 2.41-.13 0-.42-.351-.641-.78zm-12.045-.81c0-.12-.073-.407-.161-.637-.101-.264-.018-.419.224-.419.21 0 .59-.228.843-.507.392-.433.409-.597.117-1.124-.188-.34-.316-.71-.283-.824.108-.38-.728-.512-1.515-.237-1.009.352-1.552-.154-1.042-.97.327-.524.338-.524.977-.021.76.598 1.591.661 1.793.136.18-.468 1.467-1.016 2.12-.903.373.064.55-.15.735-.888.27-1.078 1.089-1.536 1.3-.729.082.314-.097.634-.506.902-.72.47-.773.791-.303 1.803.338.728 1.055.92 1.763.472.562-.356 1.226.377.777.857-.279.298-.446.3-1.007.006-.958-.5-1.146-.449-1.653.441-.396.696-.596.792-1.642.792-1.145 0-1.197.035-1.36.902-.107.575-.352.95-.673 1.034-.278.072-.504.033-.504-.087zm4.497.037c-.44-.11-.667-.358-.68-.737-.016-.53.024-.543.574-.182.325.213.657.559.737.768.08.21.12.367.089.35a10.083 10.083 0 0 0-.72-.199zm15.875 0c.219-.154.397-.383.397-.51 0-.126.346-.528.77-.891.736-.634.753-.698.398-1.5-.305-.688-.521-.838-1.217-.838-.465 0-.92.12-1.009.265-.471.762-1.029-.311-.567-1.09.232-.39.338-.38 1.155.102l.9.53.712-.821c.539-.623.966-.84 1.769-.896.978-.068 1.076-.148 1.298-1.046.146-.59.432-1.023.728-1.1.652-.17.658.728.008 1.197-.832.6-.924 1.012-.433 1.924.453.843.452.901-.053 1.763-.46.785-.659.895-1.654.913-1.2.023-1.603.365-1.61 1.368-.003.41-.163.596-.512.596-.279 0-.725.07-.992.157-.4.13-.416.109-.088-.123zm4.746-.004c-.272-.107-.362-.36-.264-.74.131-.51.206-.535.636-.218.578.426.273 1.213-.372.958zm1.665-3.21c-.604-.49-.58-.57.266-.871.595-.212 1.141.69.66 1.089-.229.19-.503.125-.926-.218zm-14.336-.26c-.014-.073-.054-1.643-.089-3.488-.035-1.846-.15-3.443-.257-3.549-.106-.106-.506-.05-.889.124-.655.298-.686.281-.533-.288.68-2.527 1.277-6.11 1.444-8.674l.197-3.043.213 2.778c.116 1.528.5 4.315.852 6.194.352 1.88.597 3.46.544 3.512-.053.053-.246-.085-.43-.307-.446-.537-1.064-.513-1.064.042 0 .244.244 1.35.543 2.456.542 2.01.542 2.012.018 3.193-.288.65-.535 1.122-.549 1.05zm9.042-3.246c-.393-.419-.49-.717-.322-.99.3-.486.66-.14.896.862.208.883.147.896-.574.128zm-20.787-.148c-.59-.652-.552-1.104.091-1.104.412 0 .53.176.53.794 0 .93-.042.95-.621.31zm15.4-6.676-.624-.545.727.443c.4.244.728.489.728.545 0 .207-.221.089-.83-.443zm4.652-.56c-.09-.288-.125-.55-.075-.583 1.387-.924 1.625-1.017 1.454-.572a3.106 3.106 0 0 0-.173.928c0 .696-.997.883-1.206.226zm4.02-.133c.294-1.175-.107-1.672-1.348-1.672-1.075 0-1.169-.06-1.538-.985-.343-.862-.345-1.086-.01-1.786.258-.543.59-.814 1.027-.84 1.212-.071 1.436-.292 1.436-1.408 0-.587.11-1.067.243-1.067.134 0 .416-.066.627-.147.614-.236.773.893.17 1.215-.62.333-1.175 1.324-.863 1.545.523.372 1.06 1.514.885 1.885-.102.218-.32.656-.482.973-.25.487-.195.673.351 1.191.869.824.872 1.672.007 1.672-.535 0-.624-.101-.505-.576zm-25.035-.342c-.219-.41-.133-.597.47-1.026l.738-.526-.104.887c-.12 1.03-.716 1.39-1.104.665zm3.965.305c-.223-.101-.415-.568-.439-1.063l-.041-.883.703.618c.386.34.735.631.775.647.146.057-.266.897-.431.879-.094-.01-.349-.1-.567-.198zm5.688-.048c.09-.146.216-.265.28-.265.065 0 .117.12.117.265 0 .145-.126.265-.28.265-.154 0-.207-.12-.117-.265zm5.424-.545c0-.154.12-.206.265-.116.145.09.264.216.264.28 0 .064-.119.116-.264.116-.146 0-.265-.126-.265-.28zm-13.609-1.99c-.87-.87-.993-1.4-.51-2.217.333-.564.731-.82 1.467-.945.961-.162 1.01-.219 1.01-1.163 0-.79.13-1.051.635-1.282.563-.256.647-.218.755.345.082.432-.078.82-.502 1.219-.77.722-.767.955.02 1.917.581.71.685.742 1.498.459 1.136-.396 1.75.07 1.154.873-.352.476-.407.48-.864.066-.686-.62-1.56-.551-1.932.154-.172.327-.444.683-.605.79-.506.338-1.692.218-2.126-.215zm17.595-.487c-.433-.522.207-.87 1.281-.696l.901.146-.947.449c-.775.368-.998.386-1.235.101zm-21.018-.364c-.308-.497.265-.8 1.16-.615l.923.192-.9.317c-1.066.376-1.019.372-1.183.106zm28.674-.091-.662-.269.794-.34c.942-.402 1.667-.06 1.162.55-.347.417-.406.42-1.294.059zm-26.325-2.871c-.264-.292-.63-.531-.811-.531-.192 0-.277-.206-.203-.489.221-.848 1.333-.414 1.484.58.16 1.052.12 1.09-.47.44zm20.851.095c-.65-.454-.54-1.155.18-1.155.321 0 .508.252.588.793.131.895.05.933-.768.362zm-7.69-2.102c.49-.582.632-2.093.22-2.348-.134-.083-.614-.194-1.067-.246-.917-.107-1.335.375-1.335 1.539 0 .787-.632.921-1.025.218-.204-.364-.083-.606.58-1.16l.837-.699-.441-.925c-.394-.826-.399-.987-.047-1.49.497-.708.279-1.428-.57-1.882-.85-.455-.893-1.34-.062-1.251.43.045.672.321.867.989.216.734.425.943 1.008 1.01.992.116 1.499-.366 1.499-1.42 0-.967.7-1.361 1.216-.685.227.297.11.544-.53 1.123l-.818.742.607 1.078.608 1.078-.542.76c-.691.971-.681 1.129.124 1.934.692.692.668 1.612-.035 1.342-.212-.08-.649.075-.97.348-.584.493-.584.493-.123-.055zm-5.018-3.696c-.433-.463.124-.884.893-.673l.57.156-.574.428c-.464.347-.633.364-.89.09zm7.564-.372-.671-.41.889-.432c.823-.401.904-.401 1.104 0 .142.284.067.573-.217.842-.392.37-.5.37-1.105 0zm8.085-4.62c.02-1.068.014-1.074-1.12-1.23-1.217-.166-1.639.168-1.639 1.294 0 .285-.188.59-.418.679-.567.217-.56.22-.751-.277-.114-.296.104-.665.67-1.138.808-.674.827-.738.519-1.673-.275-.832-.255-1.086.138-1.751.433-.733.434-.82.013-1.462-.246-.375-.623-.682-.838-.682-.427 0-.538-.672-.15-.912.443-.274 1.082.168 1.082.749 0 .934.7 1.723 1.387 1.56.794-.189 1.259-.81 1.259-1.684 0-.787.745-1.272 1.099-.714.35.552.256.955-.263 1.12-.268.085-.641.442-.83.794-.291.545-.278.705.09 1.073.238.238.433.543.433.678 0 .377 1.14.292 1.742-.13.476-.334.572-.321.84.11.427.682-.205 1.218-.96.814-.895-.479-1.348-.321-1.8.626-.403.846-.403.958.01 1.588.245.373.567.678.716.678.502 0-.204.886-.737.925-.43.032-.508-.132-.492-1.035zm-20.77.73c-.295-.08-.382-.339-.3-.898.146-.99-.25-1.474-1.38-1.685-1.135-.213-1.712-1.347-1.177-2.313.189-.34.318-.708.287-.818-.048-.17 1.25-.328 1.868-.227.298.048.772-1.335.636-1.856-.08-.304.078-.484.493-.563.931-.178 1.104.847.25 1.478-.796.587-.825 1.05-.126 2.031l.53.746-.663.788c-.825.982-.827 1.234-.011 2.05.37.37.587.823.5 1.046-.154.404-.192.413-.906.221zm-4.019-.594c-.088-.335.102-.676.568-1.02l.699-.517-.097 1.02c-.073.765-.215 1.02-.568 1.02-.259 0-.53-.226-.602-.503zm13.065-1.255c-.128-2.376-.672-6.381-1.09-8.022-.277-1.086-.466-2.012-.42-2.058.046-.046.382.03.747.17.694.263 1.597.224 2.39-.105.404-.167.436-.106.23.436-.375.985-1.137 4.868-1.498 7.633-.18 1.382-.342 2.258-.36 1.946zm-7.027-1.704-.778-.482.758-.288c.869-.33 1.46-.186 1.46.355 0 .737-.626.918-1.44.415zm-7.66-.133c-.218-.568.11-1.227.466-.938.165.133.507.285.761.337.366.075.302.186-.311.534-.65.37-.796.38-.916.067zm20.71-.015c-.534-.644.087-.975 1.073-.573l.85.348-.803.303c-.65.245-.864.23-1.12-.078zm-18.357-3.005c-.263-.29-.628-.529-.81-.529-.204 0-.276-.209-.189-.544.09-.34.287-.489.526-.397.212.081.48.147.598.147s.263.417.322.926c.06.51.091.926.07.926-.02 0-.253-.238-.517-.529zm9.579-.952c-.261-.35-.355-.635-.208-.635.268 0 .936 1.03.771 1.187-.048.046-.302-.202-.563-.552zm2.989-5.413c0-.154.119-.207.265-.117.145.09.264.216.264.28 0 .064-.119.117-.264.117-.146 0-.265-.126-.265-.28zm12.079-1.241c.29-1.159-.072-1.78-1.08-1.852-.982-.069-1.474.422-1.474 1.473 0 .782-1.241.947-1.387.184-.082-.429.075-.658.615-.897.936-.414 1.11-.914.684-1.96-.292-.714-.283-.951.056-1.542.363-.632.357-.764-.054-1.393-.25-.382-.631-.694-.846-.694a.395.395 0 0 1-.39-.397c0-.218.108-.397.242-.397s.431-.072.661-.16c.323-.124.419.016.419.61 0 .425.163.995.362 1.267.305.417.506.455 1.257.24.814-.231.902-.355.976-1.37.064-.877.185-1.116.567-1.116.779 0 .848.729.136 1.44-.8.8-.807 1.018-.073 2.01.636.861 1.173.976 1.941.414.437-.32.546-.312.812.051.455.622-.214 1.242-.927.86-.878-.47-1.46-.309-1.941.538-.48.845-.366 1.408.42 2.06.564.469.262 1.226-.49 1.226-.527 0-.61-.102-.486-.595zm-20.631.25c-.302-.062-.426-.246-.331-.494.083-.217.152-.65.152-.961v-.567l.539.54c.648.648.408 1.638-.36 1.482zm8.847-2.249c-.026-2.022-.118-2.458-.695-3.306-.365-.538-.555-1.014-.423-1.058.132-.044.177-.548.1-1.12-.139-1.037.417-2.373.987-2.373.896 0 1.412 4.01.577 4.477-.301.168-.344.456-.185 1.244.263 1.305.246 2.085-.074 3.407-.23.949-.26.817-.287-1.27zm-13.26 1.69c0-.134-.062-.405-.137-.602-.086-.223.164-.472.66-.66.97-.366 1.243-.977.874-1.954-.224-.595-.18-.895.232-1.573l.51-.838-.912-.86c-.96-.907-.945-1.478.038-1.404.428.032.587.213.587.666 0 1.052.478 1.647 1.323 1.647.811 0 1.323-.59 1.323-1.525 0-.406.15-.478.794-.384.9.132 1.045.697.285 1.104-.28.15-.69.454-.913.677-.364.363-.348.502.154 1.352.52.881.626.935 1.547.788.718-.115 1.027-.056 1.131.216.22.572-.501.703-1.523.276-.868-.363-.941-.352-1.329.202-.226.323-.42.768-.431.99-.014.272-.065.296-.155.074-.074-.185-.586-.33-1.16-.33-1.126 0-1.575.484-1.575 1.701 0 .548-.127.68-.661.68-.364 0-.662-.11-.662-.244zm19.558-3.356c-.534-.643.082-1.024.935-.576l.707.37-.658.3c-.526.24-.723.221-.984-.094zm-21.064-.54c-.239-.622.239-.82 1.189-.493l.873.301-.955.293c-.79.243-.982.225-1.107-.101zm-2.727-3.166c0-.285.143-.37.434-.259.45.173 1.683-.474 1.683-.883 0-.128-.425-.22-.944-.206-1.01.029-1.427-.354-1.434-1.317-.01-1.416 2.01-1.95 2.803-.74.533.814.369 2.57-.312 3.322-.586.648-2.23.71-2.23.083zm1.961-2.298c.413-.655-.435-1.479-1.022-.992-.492.409-.523.85-.089 1.284.39.39.74.298 1.111-.292zm31.024 2.547c-.378-.378-.143-.618.608-.618.505 0 .882-.182 1.058-.511.376-.703.407-.68-.85-.68-1.08 0-1.128-.034-1.21-.876-.108-1.133.33-1.637 1.425-1.637 1.453 0 2.155 1.628 1.409 3.266-.407.892-1.94 1.556-2.44 1.056zm1.543-2.999c0-.413-.17-.687-.464-.743-.523-.101-.864.532-.623 1.16.252.657 1.087.337 1.087-.417z" transform="translate(-99.845 -179.534)"/><path style="fill:#2f2c1e;stroke-width:.26458332" d="M103.987 241.757c-.262-.29-.438-.933-.438-1.6 0-1.393.947-2.494 2.035-2.365.992.117 1.123.744.157.744-.815 0-1.398.412-1.398.989 0 .275.12.288.547.06.425-.227.69-.199 1.19.13.685.448.818 1.176.37 2.014-.36.673-1.863.69-2.463.028zm1.774-.443c.233-.605-.093-1.19-.661-1.19-.28 0-.578.178-.662.397-.232.605.094 1.19.662 1.19.28 0 .578-.178.661-.397zm31.18.701c-.896-.568-.808-3.26.13-3.946.539-.395 2.132-.337 1.94.07-.068.146-.275.23-.46.188-.506-.116-1.4.441-1.4.873 0 .277.204.34.743.233.792-.158 1.18.14 1.487 1.14.337 1.099-1.381 2.114-2.44 1.442zm1.49-1.082c.12-.825-.342-1.258-.872-.818-.491.407-.536 1.236-.077 1.42.555.222.855.031.948-.602zm-30.12-1.87c0-.12-.072-.407-.16-.637-.101-.264-.018-.419.224-.419.21 0 .6-.238.863-.529.263-.291.609-.52.768-.508.175.012.162.072-.032.151-.178.072-.397.528-.488 1.013-.105.557-.352.931-.67 1.015-.278.072-.504.033-.504-.087zm4.498.037c-.44-.11-.667-.358-.68-.737-.016-.53.024-.543.574-.182.325.213.657.559.737.768.08.21.12.367.089.35a10.083 10.083 0 0 0-.72-.199zm15.875 0c.219-.154.4-.373.404-.488.004-.114.406-.6.893-1.08.492-.485.796-.662.684-.398-.112.262-.26.804-.328 1.204-.082.479-.288.728-.603.728-.262 0-.695.07-.962.157-.4.13-.416.109-.088-.123zm4.746-.004c-.272-.107-.362-.36-.264-.74.131-.51.206-.535.636-.218.578.426.273 1.213-.372.958zm-21.414-2.412c.53-.531.601-.74.576-1.72-.01-.437.01-.448.122-.066.143.494 1.038.612 1.66.218.562-.355 1.226.377.777.858-.279.298-.446.299-1.007.006-.958-.5-1.146-.45-1.653.441-.248.436-.575.792-.728.792-.152 0-.038-.238.253-.53zm20.373.34c.218-.08.575-.28.793-.442.345-.256.35-.234.034.168-.2.255-.557.454-.794.442-.36-.017-.365-.045-.033-.168zm-11.907-.59c0-.443.47-.552.626-.145.092.24-.001.395-.237.395-.214 0-.389-.112-.389-.25zm14.613-.548c-.604-.49-.58-.57.266-.871.595-.212 1.141.69.66 1.089-.229.19-.503.125-.926-.218zm-1.692-.774c-.09-.952-.058-1.042.234-.643.395.54.42.884.101 1.387-.156.247-.263.01-.335-.744zm-6.102.315c-.054-.255.015-.656.155-.892.232-.39.334-.383 1.13.087.481.284.998.44 1.148.347.15-.092.273-.042.273.112s-.41.28-.91.28-.984.119-1.074.264c-.254.411-.612.313-.722-.198zm-20.84-.197c-.22-.265-.211-.493.034-.886.327-.523.338-.523.977-.02.355.279.868.508 1.14.508.271 0 .493.115.493.256 0 .141-.177.188-.393.105-.217-.083-.745-.028-1.175.122-.595.207-.85.187-1.076-.085zm14.3.396c-.013-.073-.057-1.696-.099-3.608l-.075-3.475.615 2.445.614 2.445-.516 1.162c-.284.64-.526 1.103-.54 1.03zm-8.79-1.463c-.3-.457.37-2.46.866-2.59.739-.193.814.785.096 1.256-.338.221-.653.673-.7 1.004-.047.331-.165.48-.263.33zm21.093-1.117c.209-.4.38-.922.381-1.16.001-.238.24-.494.531-.57.769-.201.687.638-.132 1.35-.364.316-.662.695-.662.841 0 .147-.112.266-.249.266-.136 0-.078-.327.131-.727zm-3.263-.666c-.393-.419-.49-.717-.322-.99.3-.486.66-.14.896.862.208.883.147.896-.574.128zm-20.787-.148c-.59-.652-.552-1.104.091-1.104.412 0 .53.176.53.794 0 .93-.042.95-.621.31zm15.4-6.676-.624-.545.727.443c.4.244.728.489.728.545 0 .207-.221.089-.83-.443zm-4.16-.578c-.197-.498-.208-1.33-.037-2.646.137-1.056.268-2.753.29-3.772.037-1.615.087-1.398.394 1.698.194 1.952.413 3.708.488 3.902.074.195.038.353-.08.353-.12 0-.34.268-.493.596l-.276.595zm8.812.017c-.09-.287-.125-.549-.075-.582 1.387-.924 1.625-1.017 1.454-.572a3.106 3.106 0 0 0-.173.928c0 .696-.997.883-1.206.226zm4.02-.132c.294-1.175-.107-1.673-1.348-1.673-.847 0-1.19-.12-1.321-.463-.141-.37-.11-.397.157-.132.473.47 1.818.41 2.39-.107.503-.456.692-.141.206.345-.194.193-.075.47.392.913.888.842.903 1.693.029 1.693-.536 0-.625-.101-.505-.576zm-25.035-.342c-.219-.41-.133-.597.47-1.026l.738-.526-.104.887c-.12 1.03-.716 1.39-1.104.665zm3.965.305c-.223-.101-.415-.568-.439-1.063l-.041-.883.703.618c.386.34.735.631.775.647.146.057-.266.897-.431.879-.094-.01-.349-.1-.567-.198zm5.688-.048c.09-.146.216-.265.28-.265.065 0 .117.12.117.265 0 .145-.126.265-.28.265-.154 0-.207-.12-.117-.265zm5.424-.545c0-.154.12-.206.265-.117.145.09.264.217.264.28 0 .065-.119.117-.264.117-.146 0-.265-.126-.265-.28zm-13.609-1.99c-.875-.875-.993-1.4-.501-2.233.256-.433.578-.788.714-.788.137 0 .052.217-.189.484-.933 1.03-.223 2.69 1.15 2.69.34 0 .837-.196 1.103-.437.591-.535.648-.293.069.287-.536.535-1.81.534-2.346-.002zm17.595-.487c-.433-.522.207-.87 1.281-.696l.901.146-.947.449c-.775.368-.998.386-1.235.101zm-13-.308c-.218-.262-.626-.379-1.091-.31-.646.095-.743.022-.743-.557 0-.624.023-.635.357-.18.309.423.472.448 1.23.184 1.12-.39 1.737-.006 1.248.776-.384.616-.55.63-1.001.087zm-8.018-.056c-.308-.497.265-.8 1.16-.615l.923.192-.9.317c-1.066.376-1.019.372-1.183.106zm27.35-.202c0-.226.122-.337.27-.246.148.092.2.277.117.413-.227.367-.386.298-.386-.167zm1.324.11-.662-.268.794-.34c.942-.402 1.667-.06 1.162.55-.347.417-.406.42-1.294.059zm-4.349-1.362c.1-.261.248-.408.329-.326.082.081 0 .295-.18.474-.262.26-.292.229-.149-.148zm1.915-.505c.174-.174.317-.77.317-1.323 0-.552.11-1.005.243-1.005.134 0 .416-.066.627-.147.692-.266.734.87.048 1.319-.337.22-.69.643-.783.938-.094.295-.305.536-.47.536-.213 0-.208-.092.018-.318zm-21.445-.398c.492-.095.596-.288.596-1.112 0-.796.128-1.056.634-1.286.559-.255.647-.218.749.313.154.804-1.155 2.285-1.975 2.236l-.6-.036zm-2.446-.605c-.264-.292-.63-.531-.811-.531-.192 0-.277-.206-.203-.489.221-.848 1.333-.414 1.484.58.16 1.052.12 1.09-.47.44zm20.851.095c-.65-.454-.54-1.155.18-1.155.321 0 .508.252.588.793.131.895.05.933-.768.362zm-7.69-2.102c.685-.813.612-2.186-.131-2.485-.328-.131-.427-.247-.22-.256.207-.009.624-.222.926-.472.303-.251.401-.287.22-.08-.484.55-.41.913.334 1.658.692.692.668 1.612-.035 1.342-.212-.081-.649.075-.97.348-.584.493-.584.493-.123-.055zm-3.219-.865c-.212-.396-.108-.601.544-1.084.573-.423.766-.748.668-1.123-.15-.572-.246-.619 1.148.552.073.061-.074.037-.327-.053-.54-.194-.996.5-.996 1.518 0 .801-.646.92-1.037.19zm-1.8-2.83c-.432-.464.125-.885.894-.674l.57.156-.574.428c-.464.347-.633.364-.89.09zm7.565-.373-.671-.41.889-.432c.823-.401.904-.401 1.104 0 .142.284.067.573-.217.842-.392.37-.5.37-1.105 0zm-1.404-.09c.1-.26.248-.408.33-.326.08.081 0 .295-.182.474-.26.26-.291.23-.148-.148zm-3.183-2.01c-.082-.26-.445-.632-.807-.825-.873-.467-.881-1.278-.013-1.227.505.03.68.224.805.891.088.47.347.957.575 1.085.375.21.375.248.003.39-.258.1-.468-.018-.562-.314zm2.148.27c-.443-.174-.45-.224-.066-.542.233-.193.423-.744.423-1.225 0-.972.7-1.36 1.221-.678.233.306.132.525-.483 1.043-.507.426-.734.825-.65 1.143.07.27.108.48.086.47-.023-.01-.262-.105-.53-.21zm10.524-2.79c.02-1.068.014-1.074-1.12-1.23-1.217-.166-1.639.168-1.639 1.294 0 .622-.795.997-1.1.518-.325-.513-.288-.589.595-1.242.583-.431.778-.756.68-1.133-.128-.488-.103-.496.327-.106.541.49 1.901.558 2.34.118.228-.227.268-.165.16.25-.097.37.07.769.507 1.205.706.706.59 1.298-.266 1.362-.42.03-.5-.139-.484-1.036zm-20.77.73c-.295-.08-.382-.339-.3-.898.064-.432-.041-.975-.233-1.206-.294-.354-.274-.461.126-.685.26-.146.626-.626.811-1.066.185-.44.413-.677.507-.525.094.151-.128.63-.493 1.063-.825.982-.827 1.234-.01 2.05.368.37.586.823.5 1.046-.155.404-.193.413-.907.221zm-4.019-.594c-.088-.335.102-.676.568-1.02l.699-.517-.097 1.02c-.073.765-.215 1.02-.568 1.02-.259 0-.53-.226-.602-.503zm13.064-1.255c-.016-.312-.153-1.77-.304-3.24-.262-2.553-.109-3.738.482-3.731.299.003.833 1.323.689 1.7-.072.187-.29 1.577-.484 3.089s-.367 2.494-.383 2.182zm-11.781-1.322c-.14-.363-.101-.38.236-.1.46.38.507.534.167.534-.13 0-.312-.195-.403-.434zm4.755-.382-.778-.482.758-.288c.869-.33 1.46-.186 1.46.355 0 .737-.626.918-1.44.415zm-7.66-.133c-.218-.568.11-1.227.466-.938.165.133.507.285.761.337.366.075.302.186-.311.534-.65.37-.796.38-.916.066zm20.71-.015c-.534-.644.087-.975 1.073-.573l.851.348-.804.303c-.65.245-.864.23-1.12-.078zm7.882.137c-.267-.155-.713-.222-.993-.149-.279.073-.507.025-.507-.107s.275-.24.61-.24c.337 0 .839-.166 1.116-.369.438-.32.547-.312.823.065.222.304.235.535.042.766-.33.397-.46.401-1.091.034zm-5.183-.386c.012-.308.075-.37.16-.16.076.191.066.42-.022.508-.087.087-.15-.069-.139-.348zm-20.903-.264c.013-.308.076-.371.16-.16.077.19.067.42-.02.507-.089.088-.151-.068-.14-.347zm21.42-.812c.298-.485.283-.672-.1-1.257-.248-.378-.626-.687-.841-.687-.427 0-.538-.672-.15-.912.443-.274 1.082.168 1.082.749 0 .316.175.824.388 1.129.352.502.336.602-.17 1.05-.552.492-.554.491-.208-.072zm-20.779-.621c-.09-.146.03-.265.265-.265.235 0 .354.12.264.265-.09.145-.209.264-.264.264-.056 0-.175-.119-.265-.264zm23.004-.324c.226-.323.412-.906.412-1.294 0-.78.748-1.26 1.099-.706.35.552.256.955-.263 1.12-.268.085-.645.45-.839.811-.193.361-.457.657-.586.657-.13 0-.05-.264.177-.588zm-20.848-.272c.114-.327.211-.914.216-1.304.007-.515.167-.74.584-.82.898-.171 1.048.87.215 1.485-.362.267-.657.654-.657.86 0 .206-.128.375-.283.375-.178 0-.206-.22-.075-.596zm-2.95-.463c-.263-.29-.628-.529-.81-.529-.204 0-.276-.209-.189-.544.09-.34.287-.489.526-.397.212.081.48.147.598.147s.263.417.322.926c.06.51.091.926.07.926-.02 0-.253-.238-.517-.529zm9.579-.952c-.261-.35-.355-.635-.208-.635.268 0 .936 1.03.771 1.187-.048.046-.302-.202-.563-.552zm1.997-3.818c-.832-.335-.75-.567.088-.248.376.143.793.192.926.11.133-.083.242-.024.242.13 0 .333-.44.336-1.256.007zm1.786-.096c0-.057.184-.175.41-.262.236-.09.342-.046.25.104-.156.252-.66.372-.66.158zm-.794-1.5c0-.153.119-.206.265-.116.145.09.264.216.264.28 0 .064-.119.117-.264.117-.146 0-.265-.126-.265-.28zm12.025-2.018-.014-1.373.455.749c.25.412.573.821.717.91.46.285.045 1.087-.563 1.087-.523 0-.583-.14-.595-1.373zm-20.577 1.028c-.302-.062-.426-.246-.331-.494.083-.217.152-.65.152-.961v-.567l.539.54c.648.648.408 1.638-.36 1.482zm16.681-.49c-.07-.366.01-.62.192-.62.546 0 1.513-1.09 1.348-1.52-.129-.336-.086-.35.242-.077.352.292.353.395.006.89-.216.308-.392.817-.392 1.132 0 .394-.198.61-.639.693-.507.097-.662-.006-.757-.498zm-7.834-1.862c-.017-1.337-.15-2.505-.295-2.595-.386-.238-.324-.661.097-.661.653 0 .94 2.748.484 4.63-.227.938-.26.782-.286-1.374zm-13.26 1.792c0-.133-.062-.404-.137-.601-.086-.224.17-.474.682-.668.451-.17.884-.553.961-.85.078-.299.249-.476.38-.395.13.08.057.403-.163.717-.22.314-.4.901-.4 1.305 0 .608-.114.735-.661.735-.364 0-.662-.109-.662-.243zm3.97-1.99c0-.21.107-.448.239-.53.132-.081.178.09.101.382-.161.618-.34.696-.34.148zm1.983-1.07c-.436-.192-.883-.295-.992-.227-.109.067-.198-.146-.198-.473 0-.563.02-.569.354-.11.28.38.555.447 1.293.308.693-.13.975-.077 1.084.205.11.29-.426.802-.702.668l-.839-.37zm21.564.128c-.218-.14-.665-.258-.992-.26-.328-.002-.595-.112-.595-.244s.237-.178.528-.102c.291.076.805-.042 1.143-.264.555-.364.64-.36.89.04.2.321.18.532-.073.769-.415.387-.398.386-.901.061zm-7.96-.423c-.533-.643.083-1.024.936-.576l.707.37-.658.3c-.526.24-.723.221-.984-.094zm-21.063-.54c-.239-.622.239-.82 1.189-.493l.873.301-.955.293c-.79.243-.982.225-1.107-.101zm3.374-1.304c.259-.312.144-.547-.618-1.266-.981-.926-.975-1.5.015-1.425.456.034.587.21.587.781 0 .406.216.954.48 1.218.464.463.459.49-.151.778-.54.255-.586.242-.313-.086zm20.568-.38c-.248-.436-.635-.792-.86-.792a.404.404 0 0 1-.409-.397c0-.218.11-.397.243-.397.134 0 .431-.072.661-.16.322-.124.419.015.419.602 0 .42.185 1.028.412 1.351.226.324.316.588.198.587-.117-.001-.416-.358-.664-.794zm2.052.536c-.489-.172-.485-.189.067-.333.479-.125.58-.342.58-1.235 0-.886.092-1.083.502-1.083.672 0 .97.821.412 1.134-.238.133-.57.57-.739.97-.237.562-.424.687-.822.547zm-20.7-.185c-.212-.08-.148-.285.198-.63.282-.283.512-.79.512-1.129 0-.533.106-.6.794-.499.99.145 1.016.645.066 1.263-.4.26-.846.618-.992.794-.145.176-.406.267-.579.201zm8.425-.583c-.26-.165-.18-.258.307-.351.478-.092.623-.028.525.229-.158.41-.336.437-.832.122zm-16.446-1.25c0-.285.143-.37.434-.259.45.173 1.683-.474 1.683-.883 0-.128-.425-.22-.944-.206-1.01.029-1.427-.354-1.434-1.317-.01-1.416 2.01-1.95 2.803-.74.533.814.369 2.57-.312 3.322-.586.648-2.23.71-2.23.083zm1.961-2.298c.413-.655-.435-1.479-1.022-.992-.492.409-.523.85-.089 1.284.39.39.74.298 1.111-.292zm31.024 2.547c-.378-.378-.143-.618.608-.618.505 0 .882-.182 1.058-.511.376-.703.407-.68-.85-.68-1.08 0-1.128-.034-1.21-.876-.108-1.133.33-1.637 1.425-1.637 1.453 0 2.155 1.628 1.409 3.266-.407.892-1.94 1.556-2.44 1.056zm1.543-2.999c0-.413-.17-.687-.464-.743-.523-.101-.864.532-.623 1.16.252.657 1.087.337 1.087-.417z" transform="translate(-99.845 -179.534)"/></svg>