<svg xmlns="http://www.w3.org/2000/svg" viewBox="0 0 42.598 65.352" height="247" width="161"><path d="M106.28 169.417c-.402-.445-.438-3.053-.438-32.106 0-30.299.02-31.64.484-32.06.441-.4 2.253-.438 20.597-.438 19.148 0 20.133.023 20.55.484.402.445.438 3.053.438 32.106 0 30.299-.02 31.64-.484 32.06-.441.4-2.253.438-20.596.438-19.15 0-20.134-.024-20.55-.484z" style="fill:#fff;fill-opacity:1;stroke-width:.26458332" transform="translate(-165.367 -104.336)"/><path style="fill:#fff;fill-opacity:1;stroke-width:.26573646" d="M165.809 169.204c-.406-.444-.442-3.052-.442-32.106 0-30.299.02-31.64.488-32.06.445-.399 2.273-.438 20.777-.438 19.316 0 20.309.024 20.73.484.405.445.441 3.053.441 32.106 0 30.3-.02 31.64-.488 32.06-.445.4-2.272.438-20.776.438-19.316 0-20.31-.023-20.73-.484z" transform="translate(-165.367 -104.336)"/><path style="fill:#b1b1af;stroke-width:.26458332" d="M168.21 171.075c-.402-.445-.438-3.062-.438-32.238 0-30.427.02-31.773.484-32.192.442-.4 2.271-.438 20.861-.438 19.405 0 20.399.023 20.815.484.403.444.438 3.061.438 32.238 0 30.427-.02 31.772-.483 32.192-.442.4-2.272.438-20.862.438-19.405 0-20.398-.023-20.815-.484zm41.412-.219c.464-.42.484-1.756.484-31.927 0-28.93-.036-31.53-.438-31.974-.417-.46-1.402-.484-20.55-.484-18.344 0-20.156.039-20.597.438-.464.42-.484 1.757-.484 31.928 0 28.93.036 31.529.438 31.973.417.461 1.402.484 20.55.484 18.344 0 20.156-.038 20.597-.438zm-39.03-1.633c-.402-.444-.438-2.933-.438-30.386 0-28.633.02-29.92.484-30.34.44-.399 2.105-.438 18.48-.438 17.098 0 18.017.024 18.433.484.402.444.438 2.941.438 30.506 0 22.998-.074 30.097-.317 30.34-.241.241-4.707.318-18.48.318-17.26 0-18.184-.024-18.6-.484zm36.815-.098c.46-.461.46-60.023 0-60.484-.46-.46-36.212-.46-36.671 0-.461.46-.461 60.023 0 60.484.459.459 36.212.459 36.671 0zm-2.593-.706c-.996-.302-1.32-.58-1.984-1.703-.437-.738-.96-1.394-1.162-1.459-.207-.066-.293.003-.196.16.21.34-.278 1.691-.71 1.965-.548.35-1.223.225-1.775-.327-.676-.676-.299-1.582.66-1.582.746 0 1.143.885.659 1.468-.428.515-.135.492.388-.031.678-.678.522-2.03-.326-2.842-.93-.892-1.009-.887-1.2.068-.275 1.377-1.932 1.71-2.57.516-.522-.974.243-2.024 1.205-1.655.628.24.49 1.397-.199 1.674-.575.232-.576.24-.04.257.83.025 1.49-.839 1.28-1.674-.269-1.074-2.932-3.068-4.1-3.07-.912-.002-.954.042-1.287 1.342-.632 2.465-3.017 3.983-5.58 3.55-1.475-.25-3.055-1.806-3.492-3.44-.255-.955-.433-1.19-.903-1.19-.322 0-.748-.062-.948-.139-.44-.169-2.764 1.326-3.133 2.015-.354.663-.046 1.778.585 2.116.465.249.48.225.173-.267-.285-.456-.265-.613.125-1.004.358-.358.566-.398.921-.174 1.036.652.549 1.951-.733 1.951-.852 0-1.325-.484-1.555-1.592l-.164-.795-1 .712c-1.19.848-1.474 1.69-.875 2.603.445.68 1.026.916.81.33-.202-.554.294-1.045.96-.95 1.304.185.793 1.809-.57 1.809-.828 0-1.839-1.05-1.839-1.91 0-.843-.605-.402-1.455 1.06-.823 1.415-.926 1.486-2.591 1.767l-1.004.17.677-1.337c.373-.736.825-1.34 1.004-1.34.18-.003.922-.286 1.65-.63 1.282-.605 1.3-.63.614-.813-1.006-.27-1.596-1.02-1.494-1.905.063-.55.248-.774.695-.837.792-.112 1.422.422 1.322 1.122-.059.41-.267.55-.807.542-.8-.012-.964.26-.309.51.795.306 1.771.16 2.676-.4l.908-.561-.782-.476c-1.01-.615-1.19-.931-.987-1.74.132-.529.307-.647.858-.58.38.045.823.298.983.562.236.39.174.575-.334.992l-.624.512h.865c1.025 0 3.693-1.872 3.688-2.588-.002-.301-.462-.633-1.366-.984-1.664-.645-2.847-2.012-3.05-3.523-.496-3.702 2.22-6.068 6.017-5.241.907.197.953.169 1.504-.94.312-.629.8-2.036 1.084-3.128.504-1.939.504-1.986.017-2.069-.61-.103-.675-1.159-.102-1.635.506-.42.506-.904 0-1.323-.508-.422-.51-1.836-.005-2.559.347-.494.347-.597 0-.885-.215-.178-.392-.668-.392-1.086 0-.595.12-.762.55-.762.483 0 .528-.105.364-.86-.103-.472-.44-1.563-.749-2.423-.505-1.405-.668-1.6-1.62-1.936-.633-.224-1.684-.332-2.619-.27-1.37.092-1.656.212-2.345.983l-.785.879 1.287.615c.894.427 1.51.97 2.015 1.777l.729 1.16-.3 4.867c-.182 2.986-.435 5.137-.654 5.567-.418.821-3.618 3.05-3.762 2.619-.053-.16-.532-.515-1.065-.788-.532-.273-1.265-.815-1.629-1.205-.646-.692-.665-.831-.834-6.028-.106-3.246-.073-5.585.084-5.999.427-1.129 1.267-1.812 2.63-2.14.712-.17 1.295-.44 1.295-.597 0-.158.259-.563.575-.9l.576-.612h-1.09c-.598 0-1.162-.12-1.251-.265-.09-.145-.442-.264-.782-.264s-.686-.179-.77-.397c-.083-.219-.312-.397-.507-.397-.409 0-1.351-1.19-1.624-2.05-.174-.547-.116-.578.908-.491.601.05 1.218.217 1.371.37.153.153.422.222.6.154.177-.068.475.06.661.285.187.225.504.409.704.409.2 0 .581.208.846.463 1.468 1.413 1.645 1.492 3.48 1.553 1.002.034 2.068.194 2.37.355.623.333.696.095.18-.585-.281-.37-.59-.43-1.539-.3-.897.122-1.471.03-2.352-.382-2.173-1.015-2.946-2.065-2.946-4.004 0-2.12 1.316-3.817 3.268-4.214.708-.143.91-.324.975-.87.063-.54-.164-.885-1.058-1.609-1.81-1.462-2.255-1.63-3.01-1.135-.84.55-.815.83.077.816.769-.01 1.156.733.647 1.242-.395.395-1.57.019-1.755-.56-.236-.747.39-1.873 1.146-2.063l.667-.167-.901-.752c-1.034-.864-2.099-.968-2.732-.269-.587.65-.554.92.073.584.898-.48 1.754.794 1.024 1.525-.504.504-1.223.371-1.667-.306-.621-.948.178-2.551 1.272-2.551.505 0 .509-.023.07-.508-.253-.28-.89-.61-1.416-.734-.76-.18-1.11-.489-1.709-1.51-.415-.705-.704-1.332-.644-1.392.06-.06.393.006.739.147.346.14.938.321 1.314.4.477.102.83.466 1.161 1.202.262.58.698 1.257.97 1.502.467.423.492.413.492-.198 0-1.497 1.536-2.362 2.494-1.404.476.476.55 1.323.136 1.578-.153.095-.57.1-.926.01-.696-.174-.861-.889-.329-1.422.177-.176.2-.317.053-.317-.528 0-.9.656-.9 1.588 0 .743.206 1.153.927 1.852l.926.897v-.84c0-1.692 2.283-2.145 2.789-.553.14.44.039.716-.387 1.061-.639.517-1.214.418-1.472-.253-.107-.28.04-.61.406-.905.571-.463.572-.466.025-.466-.674 0-1.194.898-.99 1.71.083.331.802 1.094 1.598 1.695 1.125.85 1.68 1.093 2.486 1.093 1.007 0 1.047-.035 1.332-1.168.356-1.414 1.424-2.745 2.593-3.234 1.427-.596 3.515-.465 4.627.291.99.674 2.074 2.519 2.074 3.533 0 .506.144.578 1.153.578.906 0 1.407-.195 2.347-.913 1.373-1.048 1.608-1.486 1.272-2.37-.36-.948-.78-1.08-.721-.229.044.65-.04.734-.744.734-.668 0-.807-.114-.877-.725-.065-.563.067-.794.585-1.03.884-.403 1.968.276 2.187 1.37.086.43.237.782.336.782.099 0 .633-.415 1.187-.923.856-.784.98-1.032.824-1.652-.347-1.382-1.199-1.902-1.199-.732 0 .52-.134.661-.629.661-.94 0-1.298-.569-.804-1.275.794-1.133 2.618-.392 2.914 1.184l.171.916.596-.56c.327-.307.799-1.01 1.048-1.562.413-.916.577-1.026 1.886-1.264.788-.142 1.433-.232 1.433-.2 0 .034-.286.565-.636 1.18-.502.884-.929 1.237-2.03 1.68-1.367.551-2.023 1.224-1.193 1.224 1.16 0 1.977 2.1 1.014 2.605-.633.332-1.653-.094-1.653-.692 0-.786.505-1.113 1.29-.834l.694.247-.655-.556c-.764-.648-1.975-.566-3.033.204-.799.581-.854.878-.163.878.575 0 1.338.933 1.338 1.637 0 .554-.861 1.068-1.426.851-.468-.18-.803-1.034-.56-1.427.09-.147.403-.267.694-.267.291 0 .456-.12.366-.265-.357-.577-1.677-.234-3.147.82-1.793 1.283-1.947 2.082-.458 2.385 1.97.4 3.26 1.969 3.418 4.155.243 3.364-2.391 5.649-5.536 4.802-1.046-.282-1.175-.26-1.606.273-.444.549-1.332 3.153-1.698 4.98-.133.67-.08.841.262.841.302 0 .43.238.43.794 0 .437-.106.794-.236.794-.455 0-.566.875-.167 1.316.487.538.522 1.837.076 2.818-.26.571-.26.741 0 .828.483.161.42 1.653-.07 1.653-.548 0-.504.919.143 3.013.593 1.92 1.065 2.33 3.069 2.662 1.553.258 3.126-.232 3.804-1.184l.56-.787-.696-.265c-.383-.145-.786-.264-.894-.264-.334 0-1.534-1.405-2.017-2.36-.339-.672-.41-1.217-.278-2.117.098-.667.27-2.84.383-4.83.237-4.184.43-4.64 2.389-5.632.71-.36 1.347-.808 1.414-.995.088-.247.29-.192.752.203.347.298.979.714 1.402.926 1.507.752 1.653 1.337 1.808 7.205.152 5.78.073 6.242-1.241 7.276-.362.285-1.108.591-1.659.68-.745.122-1.116.367-1.449.956-.43.763-.253 1.288.317.936.345-.213 2.095.38 2.777.941.29.24.737.51.992.6.254.09.463.294.463.454 0 .16.178.47.397.69.723.722.482 1.152-.646 1.152-.574 0-1.116-.12-1.206-.265-.09-.145-.458-.264-.818-.264-.36 0-.725-.186-.812-.412-.087-.227-.302-.357-.478-.29-.176.068-.786-.308-1.355-.835-.937-.867-1.225-.976-3.02-1.14-1.091-.101-2.222-.275-2.513-.386-.522-.2-.523-.194-.025.372.4.457.797.574 1.944.574 3.607 0 5.907 2.981 4.675 6.06-.502 1.253-2.344 2.671-3.471 2.671-.495 0-.61.143-.61.762 0 .608.286.982 1.414 1.852 1.424 1.098 2.445 1.359 3.031.773.485-.485.381-.68-.294-.55-.708.135-1.322-.463-1.092-1.063.358-.932 1.767-.709 2.097.333.218.686-.242 1.501-1.102 1.952l-.696.365 1.028.698c1.188.807 1.62.858 2.435.287.807-.565.737-.84-.18-.706-.607.089-.805-.006-.948-.456-.328-1.033.898-1.784 1.663-1.019.797.797-.053 2.858-1.179 2.858-.79 0 .362.988 1.452 1.245.761.18 1.103.47 1.587 1.347.339.614.577 1.205.529 1.313-.048.108-.623.033-1.278-.166zm-14.438-22.657c-.388-.51-.766-.926-.84-.926-.13 0 .192.47.954 1.389.695.839.607.482-.114-.463zm-2.225-13.089c-.308-.432-.695-.87-.86-.971-.165-.102.033.251.44.786.885 1.16 1.219 1.307.42.185z" transform="translate(-167.772 -106.207)"/><path style="fill:#f2d707;stroke-width:.26458332" d="M205.343 168.384c-.218-.141-.663-.258-.988-.26-.416-.004-.7-.26-.952-.865-.362-.865-.657-1.185-2.798-3.03a108.532 108.532 0 0 1-1.852-1.631c-2.195-2.005-2.862-2.416-3.924-2.416-1.053 0-1.072.017-1.518 1.389-.248.764-.649 1.61-.89 1.88-1.217 1.361-4.015 1.915-5.58 1.106-1.105-.571-2.1-1.882-2.433-3.207-.292-1.16-.303-1.168-1.456-1.168-.876 0-1.436.2-2.283.813-.618.447-1.218.982-1.334 1.19-.117.208-.365.378-.551.378-.187 0-.836.458-1.443 1.018-.606.56-1.102.955-1.102.88 0-.366-1.435 1.263-1.883 2.137-.386.753-.671.992-1.182.992-.37 0-.904.123-1.186.274-.63.337-.638.17-.048-1.093.367-.787.685-1.055 1.539-1.298.592-.168 1.604-.708 2.249-1.2a114.01 114.01 0 0 1 4.546-3.326c1.245-.867 1.521-1.195 1.521-1.809 0-.646-.127-.773-.918-.922-1.071-.2-2.376-1.22-2.928-2.286-.213-.412-.387-1.442-.387-2.288 0-3.32 2.647-4.985 6.218-3.912.666.2 1.505-1.273 2.26-3.967.622-2.224.636-2.515.121-2.515-.529 0-.512-1.021.026-1.616.388-.429.388-.518 0-1.072-.5-.715-.558-2.362-.099-2.821.256-.256.256-.434 0-.844-.447-.716-.407-1.584.073-1.584.242 0 .397-.247.397-.634 0-1.06-1.074-4.197-1.815-5.302-.695-1.036-.707-1.041-2.286-.977-1.383.056-1.743-.039-2.79-.734-1.295-.86-2.105-2.199-2.105-3.483 0-1.867 1.537-3.769 3.315-4.102.827-.156.918-.26.918-1.045 0-.736-.194-1.011-1.256-1.775-.692-.498-2.15-1.686-3.241-2.642-1.202-1.051-2.414-1.865-3.071-2.061-.899-.269-1.188-.532-1.667-1.518-.526-1.083-.535-1.176-.104-1.01.262.102.8.25 1.196.33.528.106.935.526 1.524 1.569.442.783.904 1.424 1.027 1.424.123 0 .52.267.882.595 1.447 1.308 3.763 3.267 4.545 3.844 1.073.793 2.895.748 3.02-.074.374-2.473 1.959-4.082 4.235-4.3 2.334-.225 4.096 1.078 4.833 3.573.326 1.102.355 1.124 1.5 1.124.865 0 1.466-.206 2.329-.8.64-.44 1.267-.986 1.394-1.214.128-.228.34-.409.473-.402.324.017 1.957-1.106 1.959-1.347 0-.106.358-.376.794-.602.473-.245 1.055-.928 1.446-1.699.62-1.223.715-1.294 1.854-1.385.66-.052 1.161-.035 1.113.039-.048.074-.25.514-.449.977-.29.676-.669.956-1.906 1.407-.85.31-1.689.793-1.864 1.075-.176.281-.461.512-.634.512s-.745.406-1.271.902c-.527.496-1.157.979-1.401 1.072-.244.094-.95.551-1.568 1.016-1.572 1.184-1.578 2.072-.015 2.497 2.765.75 4.08 3.645 2.87 6.313-.722 1.588-1.937 2.355-3.73 2.355-.8 0-1.72-.097-2.045-.215-.491-.179-.678-.069-1.123.662-.533.873-1.072 2.489-1.56 4.676-.23 1.035-.204 1.169.251 1.288.628.164.654.794.06 1.45-.42.465-.42.54 0 1.252.562.95.57 1.84.025 2.618-.388.554-.388.643 0 1.072.613.677.552 1.617-.106 1.617-.29 0-.529.096-.529.214 0 .885 1.227 4.586 1.803 5.438.692 1.023.752 1.051 2.298 1.073 2.893.04 4.895 1.796 4.894 4.295 0 1.957-1.35 3.654-3.207 4.03-.789.16-.901.29-.961 1.099-.063.844.062 1.014 1.591 2.16.913.684 2.008 1.607 2.433 2.05.425.444.882.807 1.016.807s.466.283.738.629c.272.345 1.006.757 1.633.915.982.247 1.22.453 1.724 1.488.584 1.204.538 1.416-.204.937zm-14.023-21.696c0-.145-.089-.265-.198-.266-.11-.001-.491-.432-.85-.958-.358-.525-.696-.818-.752-.651-.056.168.213.717.598 1.222.686.899 1.202 1.18 1.202.653zm-2.612-13.428c-.302-.56-1.621-1.824-1.621-1.553 0 .29 1.424 2.016 1.663 2.016.114 0 .095-.208-.042-.463zm10.283 33.666c-.387-.466-.176-1.136.431-1.37.469-.179 1.252.612 1.003 1.013-.34.55-1.114.743-1.434.357zm-21.186-.725c.2-.976.96-1.177 1.448-.381.235.383.191.554-.22.86-.283.21-.714.381-.959.381-.362 0-.412-.16-.27-.86zm20.395-1.092c0-.055.208-.263.463-.463.42-.33.429-.32.1.1-.346.44-.563.58-.563.363zm-17.675-.747c-.495-.495-.386-1.27.18-1.27.648 0 1.143.613.934 1.157-.195.509-.67.557-1.114.113zm16.136-.41c.096-.841 1.162-1.196 1.437-.478.208.54-.348 1.206-1.007 1.206-.405 0-.496-.155-.43-.728zm5.693-.762c-.354-.354-.184-1.365.258-1.534.66-.254 1.347.526.979 1.11-.316.501-.944.716-1.237.424zm-28.496-.623c-.521-.333-.044-1.16.737-1.277.583-.087 1.27.81.98 1.279-.204.329-1.199.328-1.717-.002zm25.932-1.456c-.699-.842.48-1.663 1.263-.88.243.242.215.424-.12.794-.527.582-.72.597-1.143.086zm-23.372-.242c-.21-.547.44-1.289 1.03-1.177.329.063.54.355.595.823.074.646-.002.725-.7.725-.43 0-.847-.167-.925-.371zm26.428-8.778c-.256-.187-.613-.283-.793-.213-.181.069-.482-.058-.668-.283-.187-.225-.498-.409-.692-.409-.194 0-.626-.271-.96-.603a11.388 11.388 0 0 0-1.253-1.052c-.355-.247-.562-.533-.46-.635.265-.265 2.909-.11 3.209.188.138.138.512.25.832.25.319 0 .648.178.732.397.084.218.327.397.54.397.45 0 1.481 1.35 1.481 1.941 0 .501-1.293.516-1.968.022zm-25.546-4.474c-.343-.365-.752-.668-.909-.673-.408-.013-1.346-.843-1.7-1.506-.19-.354-.304-2.058-.304-4.538 0-2.361-.107-4.037-.265-4.134-.653-.404.005-3.092.98-3.995.37-.343 1.104-.7 1.632-.792.528-.093 1.164-.423 1.413-.734.434-.54.447-.542.316-.032-.111.435.071.605.993.926 1.493.521 2.734 2.22 2.659 3.64-.029.543-.144 2.773-.255 4.956-.223 4.354-.511 5.292-1.828 5.95a7.806 7.806 0 0 0-1.429.985l-.679.611zm22.486-.596c0-.11-.539-.422-1.196-.692-.87-.358-1.369-.79-1.833-1.588-.798-1.37-1.076-2.46-.737-2.885.144-.18.319-2.002.389-4.049.143-4.179.378-4.945 1.79-5.843.51-.324 1.212-.812 1.56-1.085.621-.486.644-.485 1.207.05.316.3.959.751 1.428 1.002 1.449.775 1.721 1.87 1.51 6.066-.125 2.457-.093 3.667.1 3.786.47.291.315 1.815-.314 3.063-.5.99-.788 1.24-1.786 1.546-.655.201-1.4.47-1.654.598-.255.127-.463.141-.464.031zm-21.166-17.174c-1.251-.19-2.779-.723-3.257-1.135-1.121-.967-2.034-2.01-2.034-2.324 0-.404 1.74-.468 1.984-.073.09.146.386.265.658.265s.674.178.892.397c.218.218.56.396.759.396.2 0 .773.413 1.276.918.502.505 1.151.922 1.442.928.433.008.391.082-.229.405-.416.217-.774.38-.793.36-.02-.02-.334-.082-.698-.137zm-1.458-11.745c-.232-.732.187-1.15.918-.919.395.126.546.358.49.754-.115.803-1.167.925-1.408.165zm22.985.143c-.25-.653.11-1.19.8-1.19.738 0 .995.447.647 1.124-.291.567-1.238.61-1.447.066zm-25.274-1.385c-.671-.152-.773-.761-.213-1.268.598-.541 1.315-.343 1.315.364 0 .619-.511 1.038-1.102.904zm27.87-.268c-.131-.255-.185-.612-.12-.794.142-.397 1.034-.44 1.268-.062.091.148.277.2.412.117.36-.223.301.512-.071.884-.462.462-1.215.389-1.49-.145zm-22.623-1.301c-.327-.327-.18-1.089.242-1.25.745-.287 1.169-.172 1.169.315 0 .81-.924 1.422-1.411.935zm16.553-.134c-.423-.422-.413-.875.027-1.24.487-.404 1.324.23 1.195.903-.118.61-.77.79-1.222.337zm-18.725-2.465c-.51-.394-.508-.409.122-.941.58-.492.678-.503 1.053-.128.31.31.344.526.135.857-.392.622-.712.674-1.31.212zm21.055.008c-.425-.511.054-1.202.834-1.202.405 0 .497.155.43.726-.095.83-.762 1.082-1.264.476z" transform="translate(-167.772 -106.207)"/><path style="fill:#1598c1;stroke-width:.26458332" d="M205.387 168.416c-.194-.123-.337-.308-.317-.41.02-.103-.416-.532-.97-.955-2.091-1.596-3.55-2.811-5.347-4.453-2.195-2.005-2.862-2.416-3.924-2.416-1.053 0-1.072.017-1.518 1.389-.248.764-.649 1.61-.89 1.88-1.217 1.361-4.015 1.915-5.58 1.106-1.105-.571-2.1-1.882-2.433-3.207-.292-1.16-.303-1.168-1.456-1.168-.876 0-1.436.2-2.283.813-.618.447-1.218.982-1.334 1.19-.117.208-.365.378-.551.378-.187 0-.836.458-1.443 1.018-.606.56-1.102.955-1.102.88 0-.371-1.438 1.27-1.897 2.164-.446.87-.624 1-1.211.888-.407-.078-.846.025-1.071.25-.614.614-.68.204-.15-.931.398-.85.7-1.112 1.569-1.359.592-.168 1.604-.708 2.249-1.2a114.01 114.01 0 0 1 4.546-3.326c1.245-.867 1.521-1.195 1.521-1.809 0-.646-.126-.773-.918-.922-1.071-.2-2.376-1.22-2.928-2.286-.213-.412-.387-1.442-.387-2.288 0-3.32 2.647-4.985 6.218-3.912.666.2 1.506-1.273 2.26-3.967.622-2.224.636-2.515.121-2.515-.529 0-.512-1.021.026-1.616.388-.429.388-.518 0-1.072-.5-.715-.558-2.362-.099-2.821.256-.256.256-.434 0-.844-.447-.716-.407-1.584.073-1.584.242 0 .397-.247.397-.634 0-1.06-1.074-4.197-1.815-5.302-.695-1.036-.707-1.041-2.286-.977-1.383.056-1.743-.039-2.79-.734-1.295-.86-2.105-2.199-2.105-3.483 0-1.867 1.537-3.769 3.315-4.102.828-.156.918-.26.918-1.045 0-.736-.194-1.011-1.256-1.775-.692-.498-2.15-1.686-3.241-2.642-1.202-1.051-2.414-1.865-3.071-2.061-.899-.269-1.187-.532-1.667-1.518-.485-1-.51-1.167-.148-1.028.237.091.57.167.74.17.215.003.207.068-.026.216-.24.153-.038.452.712 1.055.576.463 1.13.841 1.23.841.102 0 .448.268.77.596.323.327 1.104 1.012 1.736 1.52.632.51 1.351 1.122 1.598 1.36.246.24 1.075.93 1.84 1.535 1.198.946 1.546 1.09 2.475 1.022.846-.062 1.1-.195 1.162-.609.375-2.473 1.96-4.082 4.236-4.3 2.334-.225 4.096 1.078 4.833 3.573.326 1.102.355 1.124 1.5 1.124.865 0 1.466-.206 2.329-.8.64-.44 1.267-.986 1.394-1.214.128-.228.34-.409.473-.402.324.017 1.957-1.106 1.959-1.347 0-.106.358-.377.794-.602.478-.247 1.057-.932 1.46-1.726.569-1.123.774-1.311 1.39-1.278l.723.04-.685.106c-.47.073-.824.398-1.13 1.038l-.443.932 1.629-1.254c.895-.69 1.573-1.144 1.505-1.011-.067.133-.286.621-.485 1.085-.29.676-.669.955-1.906 1.407-.85.31-1.688.793-1.864 1.075-.176.281-.461.511-.634.511s-.745.406-1.271.903c-.526.496-1.157.979-1.4 1.072-.245.094-.95.551-1.568 1.016-1.573 1.184-1.579 2.072-.016 2.497 2.765.75 4.08 3.645 2.87 6.313-.722 1.587-1.937 2.355-3.73 2.355-.8 0-1.72-.097-2.045-.215-.491-.179-.678-.069-1.123.662-.533.873-1.072 2.489-1.559 4.676-.23 1.035-.205 1.169.25 1.288.628.164.654.794.06 1.45-.42.464-.42.54 0 1.252.562.95.57 1.84.025 2.618-.388.554-.388.643 0 1.072.613.677.552 1.616-.106 1.616-.29 0-.529.097-.529.215 0 .885 1.227 4.586 1.803 5.438.692 1.023.753 1.051 2.298 1.072 2.894.04 4.896 1.797 4.895 4.296-.001 1.957-1.352 3.654-3.208 4.03-.788.16-.901.29-.961 1.098-.063.845.062 1.015 1.591 2.16.913.685 2.008 1.608 2.433 2.051.425.444.883.807 1.016.807.134 0 .466.283.738.628.272.346 1.006.758 1.633.916.983.247 1.22.453 1.724 1.488.574 1.183.537 1.411-.16.97zm-31.309-1.76c.277-.609.261-.646-.178-.412a3.31 3.31 0 0 0-.824.67c-.289.348-.262.412.178.412.299 0 .649-.285.824-.67zm21.858-9.973c.49-.7.537-1.826.094-2.27-.247-.246-.237-.317.045-.317.623 0 1.33-.844 1.33-1.587 0-1.09-.777-1.616-2.409-1.628-1.238-.01-1.482.08-2.012.742-.331.415-.6.873-.596 1.018.004.146.181.035.393-.245.212-.28.466-.43.563-.333.097.097.359.029.581-.152.343-.278.376-.251.217.172-.151.403-.117.442.175.2.28-.233.472-.181.84.227.264.29.4.528.305.528h-.371c-.11 0-.199-.11-.199-.243s-.099-.341-.22-.463c-.121-.12-.197-.1-.167.045.03.145.039.428.022.627-.027.308-.102.308-.495 0-.415-.326-.427-.317-.114.083.42.537.004 1.539-.638 1.539-.222 0-.329-.121-.237-.27.091-.147.307-.184.478-.08.193.115.178.02-.037-.245-.372-.46-1.222-.337-.93.134.103.167.043.199-.152.078-.243-.15-.211-.322.127-.696.247-.273.571-.421.72-.33.148.092.192.041.096-.113-.263-.426-1.191-.078-1.38.518-.092.29-.404.763-.692 1.051-.51.51-.51.54-.04 1.07 1.395 1.57 3.909 2.073 4.703.94zm-.814-2.265c.098-.159-.032-.407-.288-.55-.26-.146-.364-.357-.234-.48.128-.12.283-.075.346.098a.378.378 0 0 0 .426.242c.173-.04.224-.024.114.038-.11.06-.138.212-.062.335.076.123 0 .31-.171.415-.188.116-.24.077-.131-.098zm-9.548 2.206c.468-.21 1.082-.567 1.363-.792.501-.401.499-.421-.112-1.071-.342-.364-.68-.605-.75-.535-.069.07-.297-.08-.505-.332-.354-.43-.37-.43-.236-.004.244.778-.317.79-.761.016l-.423-.735.108.72c.066.446.004.655-.165.551-.17-.105-.204.022-.093.339.156.445.138.455-.153.086-.183-.23-.463-.376-.623-.322-.456.154-.982-.65-.766-1.173.131-.317.232-.36.317-.134.068.183.246.258.394.166.167-.103.208.03.106.35-.106.335-.041.52.182.52.19 0 .357-.308.369-.684.056-1.767.09-1.875.593-1.875.28 0 .575.15.657.331.082.182.12.096.086-.192-.144-1.18-2.773-1.608-3.992-.649-.384.302-.698.786-.698 1.076 0 .753.482 1.551.936 1.551.442 0 .519.417.123.662-.146.09-.265.435-.265.768 0 1.468 2.392 2.224 4.308 1.362zm4.276-5.15c.267-.431-.14-1.027-.616-.902-.59.155-1.19-.554-1.02-1.205.11-.426.028-.472-.565-.313-.817.219-.925.891-.165 1.032.693.129 1.222.57 1.04.865-.08.13-.072.354.018.5.205.33 1.109.347 1.308.023zm1.206-1.876c0-.331-.177-.529-.473-.529s-.472.198-.472.53c0 .331.176.529.472.529s.473-.198.473-.53zm-1.39-1.52c.065-.195-.117-.332-.44-.332-.325 0-.551.171-.551.417 0 .486.825.415.992-.086zm1.654-1.39c0-.145-.089-.265-.198-.266-.11-.001-.491-.432-.85-.958-.358-.525-.696-.818-.752-.651-.056.168.213.717.598 1.222.686.899 1.202 1.18 1.202.653zm-1.852-2.661c0-.137-.119-.25-.264-.25-.146 0-.265.186-.265.413 0 .227.12.339.265.25.145-.09.264-.276.264-.413zm0-9.626c0-.28-.507-.397-.658-.153-.092.148.019.27.246.27s.412-.053.412-.117zm-.76-1.14c-.302-.56-1.621-1.825-1.621-1.554 0 .29 1.424 2.016 1.663 2.016.114 0 .095-.208-.042-.463zm.76-2.977c0-.602-.663-.721-.88-.158-.165.432.03.687.528.687.194 0 .352-.238.352-.53zm-1.323-1.455c0-.673-.602-.92-.934-.385-.254.413.066 1.046.53 1.046.255 0 .404-.244.404-.661zm2.996.417c.499-.047-.008-.936-.614-1.079-.368-.087-.702-.384-.757-.673-.131-.692-.567-.932-1.137-.627-.545.291-.348 1.14.214.925.486-.187 1.444.786 1.256 1.275-.1.263.004.354.337.29.266-.05.582-.1.701-.111zm5.934-2.029c.392-.254.595-.647.595-1.154 0-.74-.575-1.6-1.071-1.6-.132 0-.105-.298.061-.661 1-2.195-2.647-3.185-5.154-1.4l-.793.565.899.805.899.805.092-.639.09-.639.455.603c.43.57.475.577.835.134.305-.375.308-.425.015-.248-.248.15-.328.107-.248-.131.168-.505.745-.634.745-.167 0 .255.175.349.496.265.365-.096.565.07.76.63.234.67.191.793-.363 1.055-.65.307-.757.189-.639-.712.036-.274-.07-.234-.341.128-.233.311-.31.69-.189.926.334.654.036 1.032-.708.897-.599-.109-.645-.071-.348.286.767.924 2.682 1.048 3.912.252zm-12.332-.13c.398-.352.468-.503.192-.417-.238.074-.67-.031-.958-.233-.288-.202-.61-.283-.714-.179-.104.104-.15.01-.1-.207.048-.219-.065-.366-.25-.329-.24.049-.212-.125.096-.595.54-.826 1.026-.879.633-.069-.259.535-.25.549.083.137.205-.253.455-.375.558-.273.102.103.108-.017.012-.266-.228-.596.459-.857 1.206-.457.557.298.559.32.087.853-.368.414-.39.516-.088.421.218-.07.526-.383.684-.698.159-.315.514-.822.79-1.127.496-.548.492-.56-.42-1.321-2.365-1.971-5.258-1.214-4.648 1.216.15.597.28.681.84.54.597-.15.636-.113.385.357-.369.688-.958 1.064-.727.463.224-.585-.537-.587-1.183-.002-.816.739-.494 2.172.574 2.554.95.34 2.343.166 2.948-.368zm.651-2.426c.105-.181.093-.242-.026-.134-.12.108-.406.048-.638-.132-.373-.291-.38-.275-.058.134.433.552.476.56.722.132zm18.577 43.278c.19-.077.419-.067.507.02.088.088-.069.15-.347.14-.309-.013-.371-.076-.16-.16zm-4.98-1.013c-.387-.466-.176-1.136.431-1.37.469-.179 1.252.612 1.003 1.013-.34.55-1.114.743-1.434.357zm-21.186-.725c.2-.976.96-1.177 1.448-.381.235.383.191.554-.22.86-.283.21-.714.381-.959.381-.362 0-.412-.16-.27-.86zm20.395-1.092c0-.055.208-.263.463-.463.42-.33.429-.32.1.1-.346.44-.563.58-.563.363zm-17.675-.747c-.495-.495-.386-1.27.18-1.27.648 0 1.143.613.934 1.157-.195.509-.67.557-1.114.113zm16.136-.41c.096-.841 1.162-1.196 1.437-.478.208.54-.348 1.206-1.007 1.206-.405 0-.496-.155-.43-.728zm5.693-.762c-.354-.354-.184-1.365.258-1.534.66-.254 1.347.526.979 1.11-.316.501-.944.716-1.237.424zm-28.496-.623c-.521-.333-.044-1.16.737-1.277.583-.087 1.27.81.98 1.279-.204.329-1.199.328-1.717-.002zm25.932-1.456c-.699-.842.48-1.663 1.263-.88.243.242.215.424-.12.794-.527.582-.72.597-1.143.086zm1.055-.4c0-.146-.126-.265-.28-.265-.154 0-.206.12-.116.265.09.145.216.265.28.265.064 0 .116-.12.116-.265zm-24.427.158c-.21-.547.44-1.289 1.03-1.177.329.063.54.355.595.823.074.646-.002.725-.7.725-.43 0-.847-.167-.925-.371zm1.144-.142c0-.313-.516-.647-.706-.457-.189.19.145.706.457.706a.25.25 0 0 0 .249-.25zm25.284-8.636c-.256-.187-.613-.283-.793-.213-.181.069-.482-.058-.668-.283-.187-.225-.498-.409-.692-.409-.194 0-.626-.271-.96-.603a11.388 11.388 0 0 0-1.253-1.052c-.355-.247-.562-.533-.46-.635.265-.265 2.909-.11 3.209.188.138.138.512.25.832.25.319 0 .648.178.732.397.084.218.327.397.54.397.45 0 1.481 1.35 1.481 1.941 0 .501-1.293.516-1.968.022zm-25.546-4.474c-.343-.365-.752-.668-.909-.673-.408-.013-1.346-.843-1.7-1.506-.19-.354-.304-2.058-.304-4.538 0-2.361-.107-4.037-.265-4.134-.653-.404.005-3.092.98-3.995.37-.343 1.104-.7 1.632-.792.528-.093 1.164-.423 1.413-.734.434-.54.447-.542.316-.032-.111.435.071.605.993.926 1.493.521 2.734 2.22 2.659 3.64-.029.543-.144 2.773-.255 4.956-.223 4.354-.511 5.292-1.828 5.95a7.806 7.806 0 0 0-1.429.985l-.679.611zm1.439-1.708c.968-1.011 1.167-2.59.342-2.711-.303-.045-.605-.26-.671-.479-.097-.32-.053-.333.23-.066.193.182.535.33.76.327.243-.002.14-.141-.25-.339-.364-.184-.67-.45-.682-.59-.099-1.285-.494-2.772-.738-2.775-.172-.002-.14-.106.073-.24.316-.2.305-.306-.068-.68-.243-.243-.367-.564-.275-.713.107-.173.251-.14.396.087.152.24.227.052.227-.567 0-.694-.064-.827-.256-.529-.171.265-.258.287-.26.066-.007-.49-1.504-.413-1.696.088-.089.23-.161 1.186-.161 2.125 0 .939-.18 2.136-.399 2.661-.27.647-.314 1.057-.134 1.273.145.175.199.383.119.463-.08.08-.192.62-.25 1.202-.144 1.442.47 1.96 2.533 2.14.227.02.75-.315 1.16-.743zm21.047 1.112c0-.11-.539-.422-1.196-.692-.87-.358-1.369-.79-1.833-1.588-.798-1.37-1.076-2.46-.737-2.885.144-.18.319-2.002.389-4.049.143-4.179.378-4.945 1.79-5.843.51-.324 1.212-.812 1.56-1.085.621-.486.644-.485 1.207.05.316.3.959.751 1.428 1.002 1.449.775 1.721 1.87 1.51 6.066-.125 2.457-.093 3.667.1 3.786.47.291.315 1.815-.314 3.063-.5.99-.788 1.24-1.786 1.546-.655.201-1.4.47-1.654.598-.255.127-.463.141-.464.031zm.79-4.897c.005.364 1.008.442 1.52.117.178-.114.36-.44.404-.724.044-.285.187-.69.318-.899.154-.246.127-.418-.074-.485-.498-.166-.37-1.117.152-1.126.44-.008.44-.021.002-.277-.43-.25-.433-.334-.036-1.249.234-.538.442-1.73.462-2.65.042-1.971-.382-2.535-2.12-2.818-1.029-.168-1.14-.122-1.797.74-.549.72-.66 1.082-.513 1.672.103.415.372.89.597 1.056.333.246.347.376.075.704-.24.29-.251.453-.038.584.163.1.233.346.157.545-.076.199-.035.425.092.504.127.078.188.588.136 1.133-.137 1.44.162 3.629.437 3.195.167-.264.224-.27.227-.022zm-.392-1.257c-.09-.145-.037-.264.117-.264s.28.119.28.264c0 .146-.053.265-.117.265s-.19-.12-.28-.265zm3.223.215c-.084-.21-.147-.148-.16.16-.011.279.052.435.14.347.087-.088.097-.316.02-.507zm-3.968-2.116c-.085-.212-.148-.149-.16.16-.012.278.05.435.139.347.088-.088.097-.316.02-.507zm4.052-1.01a.265.265 0 0 0-.264-.264.265.265 0 0 0-.265.265.265.265 0 0 0 .53 0zm-24.87-8.11c-1.252-.19-2.78-.722-3.258-1.134-1.121-.967-2.034-2.01-2.034-2.324 0-.404 1.74-.468 1.984-.073.09.146.386.265.658.265s.674.178.892.397c.218.218.56.396.759.396.2 0 .773.413 1.276.918.502.505 1.151.922 1.442.928.433.008.391.082-.229.405-.416.217-.774.38-.793.36-.02-.02-.334-.082-.698-.137zm-1.46-11.744c-.231-.732.188-1.15.919-.919.395.126.546.358.49.754-.115.803-1.167.925-1.408.165zm.666-.254a.265.265 0 0 0-.265-.264.265.265 0 0 0-.265.264.265.265 0 0 0 .53 0zm22.32.397c-.25-.653.11-1.19.8-1.19.738 0 .995.447.647 1.124-.291.567-1.238.61-1.447.066zm1.228-.397c0-.145-.179-.264-.397-.264-.219 0-.397.119-.397.264 0 .146.178.265.397.265.218 0 .397-.119.397-.265zm-26.502-.988c-.671-.152-.773-.761-.213-1.268.598-.541 1.315-.343 1.315.364 0 .619-.511 1.038-1.102.904zm27.87-.268c-.131-.255-.185-.612-.12-.794.142-.397 1.034-.44 1.268-.062.091.148.277.2.412.117.36-.223.301.512-.071.884-.462.462-1.215.389-1.49-.145zm-22.623-1.301c-.327-.327-.18-1.089.242-1.25.745-.287 1.169-.172 1.169.315 0 .81-.924 1.422-1.411.935zm16.553-.134c-.423-.422-.413-.875.027-1.24.487-.404 1.324.23 1.195.903-.118.61-.77.79-1.222.337zm-18.725-2.465c-.51-.394-.508-.409.122-.941.58-.492.678-.503 1.053-.128.31.31.344.526.135.857-.392.622-.712.674-1.31.212zm21.055.008c-.425-.511.054-1.202.834-1.202.405 0 .497.155.43.726-.095.83-.762 1.082-1.264.476zm-25.013-1.995c-.431-.186-.446-.231-.082-.246.246-.01.521.1.611.246.188.304.18.304-.529 0z" transform="translate(-167.772 -106.207)"/><path style="fill:#aa9e1b;stroke-width:.26458332" d="M205.387 168.416c-.194-.123-.337-.308-.317-.41.02-.103-.416-.532-.97-.955-2.091-1.596-3.55-2.811-5.347-4.453-2.195-2.005-2.862-2.416-3.924-2.416-1.053 0-1.072.017-1.518 1.389-.248.764-.649 1.61-.89 1.88-1.217 1.361-4.015 1.915-5.58 1.106-1.105-.571-2.1-1.882-2.433-3.207-.292-1.16-.303-1.168-1.456-1.168-.876 0-1.436.2-2.283.813-.618.447-1.218.982-1.334 1.19-.117.208-.365.378-.551.378-.187 0-.836.458-1.443 1.018-.606.56-1.102.955-1.102.88 0-.371-1.438 1.27-1.897 2.164-.446.87-.624 1-1.211.888-.407-.078-.846.025-1.071.25-.614.614-.68.204-.15-.931.398-.85.7-1.112 1.569-1.359.592-.168 1.604-.708 2.249-1.2a114.01 114.01 0 0 1 4.546-3.326c1.245-.867 1.521-1.195 1.521-1.809 0-.646-.126-.773-.918-.922-1.071-.2-2.376-1.22-2.928-2.286-.213-.412-.387-1.442-.387-2.288 0-3.32 2.647-4.985 6.218-3.912.666.2 1.506-1.273 2.26-3.967.622-2.224.636-2.515.121-2.515-.529 0-.512-1.021.026-1.616.388-.429.388-.518 0-1.072-.5-.715-.558-2.362-.099-2.821.256-.256.256-.434 0-.844-.447-.716-.407-1.584.073-1.584.242 0 .397-.247.397-.634 0-1.06-1.074-4.197-1.815-5.302-.695-1.036-.707-1.041-2.286-.977-1.383.056-1.743-.039-2.79-.734-1.295-.86-2.105-2.199-2.105-3.483 0-1.867 1.537-3.769 3.315-4.102.828-.156.918-.26.918-1.045 0-.736-.194-1.011-1.256-1.775-.692-.498-2.15-1.686-3.241-2.642-1.202-1.051-2.414-1.865-3.071-2.061-.899-.269-1.187-.532-1.667-1.518-.485-1-.51-1.167-.148-1.028.237.091.57.167.74.17.215.003.207.068-.026.216-.24.153-.038.452.712 1.055.576.463 1.13.841 1.23.841.102 0 .448.268.77.596.323.327 1.104 1.012 1.736 1.52.632.51 1.351 1.122 1.598 1.36.246.24 1.075.93 1.84 1.535 1.198.946 1.546 1.09 2.475 1.022.846-.062 1.1-.195 1.162-.609.375-2.473 1.96-4.082 4.236-4.3 2.334-.225 4.096 1.078 4.833 3.573.326 1.102.355 1.124 1.5 1.124.865 0 1.466-.206 2.329-.8.64-.44 1.267-.986 1.394-1.214.128-.228.34-.409.473-.402.324.017 1.957-1.106 1.959-1.347 0-.106.358-.377.794-.602.478-.247 1.057-.932 1.46-1.726.569-1.123.774-1.311 1.39-1.278l.723.04-.685.106c-.47.073-.824.398-1.13 1.038l-.443.932 1.629-1.254c.895-.69 1.573-1.144 1.505-1.011-.067.133-.286.621-.485 1.085-.29.676-.669.955-1.906 1.407-.85.31-1.688.793-1.864 1.075-.176.281-.461.511-.634.511s-.745.406-1.271.903c-.526.496-1.157.979-1.4 1.072-.245.094-.95.551-1.568 1.016-1.573 1.184-1.579 2.072-.016 2.497 2.765.75 4.08 3.645 2.87 6.313-.722 1.587-1.937 2.355-3.73 2.355-.8 0-1.72-.097-2.045-.215-.491-.179-.678-.069-1.123.662-.533.873-1.072 2.489-1.559 4.676-.23 1.035-.205 1.169.25 1.288.628.164.654.794.06 1.45-.42.464-.42.54 0 1.252.562.95.57 1.84.025 2.618-.388.554-.388.643 0 1.072.613.677.552 1.616-.106 1.616-.29 0-.529.097-.529.215 0 .885 1.227 4.586 1.803 5.438.692 1.023.753 1.051 2.298 1.072 2.894.04 4.896 1.797 4.895 4.296-.001 1.957-1.352 3.654-3.208 4.03-.788.16-.901.29-.961 1.098-.063.845.062 1.015 1.591 2.16.913.685 2.008 1.608 2.433 2.051.425.444.883.807 1.016.807.134 0 .466.283.738.628.272.346 1.006.758 1.633.916.983.247 1.22.453 1.724 1.488.574 1.183.537 1.411-.16.97zm-31.309-1.76c.277-.609.261-.646-.178-.412a3.31 3.31 0 0 0-.824.67c-.289.348-.262.412.178.412.299 0 .649-.285.824-.67zm14.494-5.949c.181-.18.545-.171 1.12.03 2.548.887 3.61-2.168 1.523-4.381-.783-.83-.916-.876-2.15-.737-.724.081-1.638.386-2.032.676-1.421 1.05-1.903 3.754-.785 4.406.583.34 1.986.345 2.324.006zm-1.786-1.302c-.509-.418-.57-.602-.332-.993.241-.395.71-.492 2.678-.555 2.217-.07 2.396-.037 2.528.468.267 1.018-.864 1.632-1.942 1.055-.374-.2-.717-.165-1.293.132-.97.502-.89.508-1.64-.107zm9.15-2.722c.49-.7.537-1.826.094-2.27-.247-.246-.237-.317.045-.317.623 0 1.33-.844 1.33-1.587 0-1.09-.777-1.616-2.409-1.628-1.238-.01-1.482.08-2.012.742-.331.415-.6.873-.596 1.018.004.146.181.035.393-.245.212-.28.466-.43.563-.333.097.097.359.029.581-.152.343-.278.376-.251.217.172-.151.403-.117.442.175.2.28-.233.472-.181.84.227.264.29.4.528.305.528h-.371c-.11 0-.199-.11-.199-.243s-.099-.341-.22-.463c-.121-.12-.197-.1-.167.045.03.145.039.428.022.627-.027.308-.102.308-.495 0-.416-.326-.427-.317-.114.083.42.537.004 1.539-.638 1.539-.222 0-.329-.121-.237-.27.091-.147.307-.184.478-.08.193.115.178.02-.037-.245-.372-.46-1.222-.337-.93.134.103.167.043.199-.152.078-.243-.15-.211-.322.127-.696.247-.273.571-.421.72-.33.148.092.192.041.096-.113-.263-.426-1.191-.078-1.38.518-.092.29-.404.763-.692 1.051-.51.51-.51.54-.04 1.07 1.395 1.57 3.909 2.073 4.703.94zm-.814-2.265c.098-.159-.032-.407-.288-.55-.26-.146-.364-.357-.234-.48.128-.12.283-.075.346.098a.378.378 0 0 0 .426.242c.173-.04.224-.024.114.038-.11.06-.138.212-.062.335.076.123 0 .31-.171.415-.188.116-.24.077-.131-.098zm-9.548 2.206c.468-.21 1.082-.567 1.363-.792.501-.401.499-.421-.112-1.071-.342-.364-.68-.605-.75-.535-.069.07-.297-.08-.505-.332-.354-.43-.37-.43-.236-.004.244.778-.317.79-.761.016l-.423-.735.108.72c.066.446.004.655-.165.551-.17-.105-.204.022-.093.339.156.445.138.455-.153.086-.183-.23-.463-.376-.623-.322-.456.154-.982-.65-.766-1.173.131-.317.232-.36.317-.134.068.183.246.258.394.166.167-.103.208.03.106.35-.106.335-.041.52.182.52.19 0 .357-.308.369-.684.056-1.767.09-1.875.593-1.875.28 0 .575.15.657.331.082.182.12.096.086-.192-.144-1.18-2.773-1.608-3.992-.649-.384.302-.698.786-.698 1.076 0 .753.482 1.551.936 1.551.442 0 .519.417.123.662-.146.09-.265.435-.265.768 0 1.468 2.392 2.224 4.308 1.362zm4.276-5.15c.267-.431-.14-1.027-.616-.902-.59.155-1.19-.554-1.02-1.205.11-.426.028-.472-.565-.313-.817.219-.925.891-.165 1.032.693.129 1.222.57 1.04.865-.08.13-.072.354.018.5.205.33 1.109.347 1.308.023zm1.206-1.876c0-.331-.177-.529-.473-.529s-.472.198-.472.53c0 .331.176.529.472.529s.473-.198.473-.53zm-1.39-1.52c.065-.195-.117-.332-.44-.332-.325 0-.551.171-.551.417 0 .486.825.415.992-.086zm1.654-1.39c0-.145-.089-.265-.198-.266-.11-.001-.491-.432-.85-.958-.358-.525-.696-.818-.752-.651-.056.168.213.717.598 1.222.686.899 1.202 1.18 1.202.653zm-1.718-.531c.09-.147-.027-.34-.26-.43-.507-.194-.79.02-.546.414.22.356.591.363.806.016zm-.134-2.13c0-.137-.119-.25-.264-.25-.146 0-.265.186-.265.413 0 .227.12.339.265.25.145-.09.264-.276.264-.413zm1.223-2.418c.422-.682-1.96-1.05-2.51-.387-.163.196-.227.424-.144.507.265.265 2.478.165 2.654-.12zm-.561-4.71c0-.633-2.344-.555-2.466.081-.08.417.072.468 1.187.397.924-.06 1.279-.192 1.279-.479zm-.662-2.498c0-.28-.507-.397-.659-.153-.09.148.02.27.247.27s.412-.053.412-.117zm-.76-1.14c-.302-.56-1.621-1.825-1.621-1.554 0 .29 1.424 2.016 1.663 2.016.114 0 .095-.208-.042-.463zm.553-1.174c-.404-.404-.702-.105-.478.479.132.345.247.379.482.143.236-.235.235-.383-.004-.622zm.207-1.803c0-.602-.663-.721-.88-.158-.165.432.03.687.528.687.194 0 .352-.238.352-.53zm-1.323-1.455c0-.673-.602-.92-.934-.385-.254.413.066 1.046.53 1.046.255 0 .404-.244.404-.661zm2.996.417c.499-.047-.008-.936-.614-1.079-.368-.087-.702-.384-.757-.673-.131-.692-.567-.932-1.137-.627-.545.291-.348 1.14.214.925.486-.187 1.444.786 1.256 1.275-.1.263.004.354.337.29.266-.05.582-.1.701-.111zm5.934-2.029c.392-.254.595-.647.595-1.154 0-.74-.575-1.6-1.071-1.6-.132 0-.105-.298.061-.661 1-2.195-2.647-3.185-5.154-1.4l-.793.565.899.805.899.805.092-.639.09-.639.455.603c.43.57.475.577.835.134.305-.375.308-.425.015-.248-.248.15-.328.107-.248-.131.168-.505.745-.634.745-.167 0 .255.175.349.496.265.365-.096.565.07.76.63.234.67.191.793-.363 1.055-.65.307-.757.189-.639-.712.036-.274-.07-.234-.341.128-.233.311-.31.69-.189.926.334.654.036 1.032-.708.897-.599-.109-.645-.071-.348.286.767.924 2.682 1.048 3.912.252zm-12.332-.13c.398-.352.468-.503.192-.417-.238.074-.67-.031-.958-.233-.288-.202-.61-.283-.714-.179-.104.104-.15.01-.1-.207.048-.219-.065-.366-.251-.329-.24.049-.211-.125.097-.595.54-.826 1.026-.879.633-.069-.259.535-.25.549.083.137.205-.253.455-.375.558-.273.102.103.108-.017.012-.266-.228-.596.459-.857 1.206-.457.557.298.559.32.087.853-.368.414-.39.516-.088.421.218-.07.526-.383.684-.698.159-.315.514-.822.79-1.127.496-.548.492-.56-.42-1.321-2.365-1.971-5.258-1.214-4.648 1.216.15.597.28.681.84.54.597-.15.636-.113.385.357-.369.688-.958 1.064-.727.463.224-.585-.537-.587-1.183-.002-.816.739-.494 2.172.574 2.554.95.34 2.343.166 2.948-.368zm.651-2.426c.105-.181.093-.242-.026-.134-.12.108-.406.048-.638-.132-.373-.291-.38-.275-.058.134.433.552.476.56.722.132zm6.1-2.928c1.127-1.231 1.399-2.63.694-3.578a2.052 2.052 0 0 0-2.574-.578c-.399.213-.772.221-1.28.028-.888-.337-1.893.002-2.31.78-.454.85-.055 2.552.838 3.57.738.84.862.883 2.279.799 1.322-.08 1.599-.2 2.352-1.021zm-4.958-1.544c-.525-.98.74-1.724 1.913-1.125.6.306.749.301 1.025-.032.415-.5 1.687-.504 2.1-.006.176.211.242.628.147.926-.149.47-.406.546-1.94.576-.972.018-2.04.062-2.373.096-.369.039-.71-.132-.872-.436zm17.435 47.75c.19-.077.419-.067.507.02.088.088-.069.15-.347.14-.309-.013-.371-.076-.16-.16zm-4.98-1.013c-.387-.466-.176-1.136.431-1.37.469-.179 1.252.612 1.003 1.013-.34.55-1.114.743-1.434.357zm-21.186-.725c.2-.976.96-1.177 1.448-.381.235.383.191.554-.22.86-.283.21-.714.381-.959.381-.362 0-.412-.16-.27-.86zm20.395-1.092c0-.055.208-.263.463-.463.42-.33.429-.32.1.1-.346.44-.563.58-.563.363zm-17.679-.751c-.457-.457-.383-1.266.116-1.266.36 0 .374.067.083.417-.286.345-.282.457.026.647.205.127.309.294.23.373-.078.078-.283 0-.455-.171zm16.14-.406c.096-.841 1.162-1.196 1.437-.478.208.54-.348 1.206-1.007 1.206-.405 0-.496-.155-.43-.728zm1.16.169c.1-.162.018-.398-.183-.525-.566-.359-.761-.284-.761.29 0 .565.641.725.944.235zm4.533-.931c-.354-.354-.184-1.365.258-1.534.66-.254 1.347.526.979 1.11-.316.501-.944.716-1.237.424zm-28.496-.623c-.521-.333-.044-1.16.737-1.277.583-.087 1.27.81.98 1.279-.204.329-1.199.328-1.717-.002zm25.932-1.456c-.699-.842.48-1.663 1.263-.88.243.242.215.424-.12.794-.527.582-.72.597-1.143.086zm1.055-.4c0-.146-.126-.265-.28-.265-.154 0-.206.12-.117.265.09.145.217.265.28.265.065 0 .117-.12.117-.265zm-24.427.158c-.21-.547.44-1.289 1.03-1.177.329.063.54.355.595.823.074.646-.002.725-.7.725-.43 0-.847-.167-.925-.371zm1.144-.142c0-.313-.516-.647-.706-.457-.189.19.145.706.457.706a.25.25 0 0 0 .249-.25zm25.284-8.636c-.256-.187-.613-.283-.793-.213-.181.069-.482-.058-.668-.283-.187-.225-.498-.409-.692-.409-.194 0-.626-.271-.96-.603a11.388 11.388 0 0 0-1.253-1.052c-.355-.247-.562-.533-.46-.635.265-.265 2.909-.11 3.209.188.138.138.512.25.832.25.319 0 .648.178.732.397.084.218.327.397.54.397.45 0 1.481 1.35 1.481 1.941 0 .501-1.293.516-1.968.022zm-25.546-4.474c-.343-.365-.752-.668-.909-.673-.408-.013-1.346-.843-1.7-1.506-.19-.354-.304-2.058-.304-4.538 0-2.361-.107-4.037-.265-4.134-.653-.404.005-3.092.98-3.995.37-.343 1.104-.7 1.632-.792.528-.093 1.164-.423 1.413-.734.434-.54.447-.542.316-.032-.111.435.071.605.993.926 1.493.521 2.734 2.22 2.659 3.64-.029.543-.144 2.773-.255 4.956-.223 4.354-.511 5.292-1.828 5.95a7.806 7.806 0 0 0-1.429.985l-.679.611zm1.439-1.708c.968-1.011 1.167-2.59.342-2.711-.303-.045-.605-.26-.671-.479-.097-.32-.053-.333.23-.066.193.182.535.33.76.327.243-.002.14-.141-.25-.339-.364-.184-.67-.45-.682-.59-.099-1.285-.494-2.772-.738-2.775-.172-.002-.14-.106.073-.24.316-.2.305-.306-.068-.68-.243-.243-.367-.564-.275-.713.107-.173.251-.14.396.087.152.24.227.052.227-.567 0-.694-.064-.827-.256-.529-.171.265-.258.287-.26.066-.007-.49-1.504-.413-1.696.088-.089.23-.161 1.186-.161 2.125 0 .939-.18 2.136-.399 2.661-.27.647-.314 1.057-.134 1.273.145.175.199.383.119.463-.08.08-.193.62-.25 1.202-.144 1.442.47 1.96 2.533 2.14.227.02.75-.315 1.16-.743zm21.047 1.112c0-.11-.539-.422-1.196-.692-.87-.358-1.369-.79-1.833-1.588-.798-1.37-1.076-2.46-.737-2.885.144-.18.319-2.002.389-4.049.143-4.179.378-4.945 1.79-5.843.51-.324 1.212-.812 1.56-1.085.621-.486.644-.485 1.207.05.316.3.959.751 1.428 1.002 1.449.775 1.721 1.87 1.51 6.066-.125 2.457-.093 3.667.1 3.786.47.291.315 1.815-.314 3.063-.5.99-.788 1.24-1.786 1.546-.655.201-1.4.47-1.654.598-.255.127-.463.141-.464.031zm.79-4.897c.005.364 1.008.442 1.52.117.178-.114.36-.44.404-.724.044-.285.187-.69.318-.899.154-.246.127-.418-.074-.485-.498-.166-.37-1.117.152-1.126.44-.008.44-.021.002-.277-.43-.25-.433-.334-.036-1.249.234-.538.442-1.73.462-2.65.042-1.971-.382-2.535-2.12-2.818-1.029-.168-1.14-.122-1.797.74-.549.72-.66 1.082-.513 1.672.103.415.372.89.597 1.056.333.246.347.376.075.704-.24.29-.251.453-.038.584.163.1.233.346.157.545-.076.199-.035.425.092.504.127.078.188.588.136 1.133-.137 1.44.162 3.629.437 3.195.167-.264.224-.27.227-.022zm-.392-1.257c-.09-.145-.037-.264.117-.264s.28.119.28.264c0 .146-.053.265-.117.265s-.19-.12-.28-.265zm3.223.215c-.084-.21-.147-.148-.16.16-.011.279.052.435.14.347.087-.088.097-.316.02-.507zm-3.968-2.116c-.085-.212-.148-.149-.16.16-.012.278.05.435.139.347.088-.088.097-.316.02-.507zm4.052-1.01a.265.265 0 0 0-.264-.264.265.265 0 0 0-.265.265.265.265 0 0 0 .53 0zm-24.87-8.11c-1.252-.19-2.78-.722-3.258-1.134-1.121-.967-2.034-2.01-2.034-2.324 0-.404 1.74-.468 1.984-.073.09.146.386.265.658.265s.674.178.892.397c.218.218.56.396.759.396.2 0 .773.413 1.276.918.502.505 1.151.922 1.442.928.433.008.391.082-.229.405-.416.217-.774.38-.793.36-.02-.02-.334-.082-.698-.137zm-1.46-11.744c-.232-.732.188-1.15.919-.919.395.126.546.358.49.754-.115.803-1.167.925-1.408.165zm.666-.254a.265.265 0 0 0-.265-.264.265.265 0 0 0-.265.264.265.265 0 0 0 .53 0zm22.32.397c-.25-.653.11-1.19.8-1.19.738 0 .995.447.647 1.124-.291.567-1.238.61-1.447.066zm1.228-.397c0-.145-.18-.264-.397-.264-.219 0-.397.119-.397.264 0 .146.178.265.397.265.218 0 .397-.119.397-.265zm-26.502-.988c-.671-.152-.773-.761-.213-1.268.598-.541 1.315-.343 1.315.364 0 .619-.511 1.038-1.102.904zm27.87-.268c-.131-.255-.185-.612-.12-.794.142-.397 1.034-.44 1.268-.062.091.148.277.2.412.117.36-.223.301.512-.071.884-.462.462-1.215.389-1.49-.145zm-22.623-1.301c-.327-.327-.18-1.089.242-1.25.745-.287 1.169-.172 1.169.315 0 .81-.924 1.422-1.411.935zm1.146-.765c0-.45-.682-.512-.944-.088-.2.323.395.808.733.6.116-.073.211-.303.211-.512zm15.936.517c.434-.447.434-.499 0-.989-.443-.5-.438-.506.154-.195.752.395.698 1.426-.082 1.564-.503.088-.507.07-.072-.38zm-.834-.524c.013-.308.076-.37.16-.16.077.191.067.42-.02.507-.089.088-.151-.068-.14-.347zm-18.42-1.827c-.51-.394-.508-.409.122-.941.58-.492.678-.503 1.053-.128.31.31.344.526.135.857-.392.622-.712.674-1.31.212zm21.055.008c-.425-.511.054-1.202.834-1.202.405 0 .497.155.43.726-.095.83-.762 1.082-1.264.476zm-25.013-1.995c-.431-.186-.446-.231-.082-.246.246-.01.521.1.611.246.188.304.18.304-.529 0z" transform="translate(-167.772 -106.207)"/><path style="fill:#c91b2c;stroke-width:.26458332" d="M204.424 167.181c-.723-.648-1.406-1.178-1.518-1.178-.111 0-.456-.209-.766-.463-.794-.654-2.576-2.201-3.387-2.942-2.34-2.137-2.87-2.45-4.012-2.366-1.064.078-1.132.135-1.449 1.214-.183.622-.532 1.435-.776 1.808-.944 1.44-4.046 2.145-5.693 1.294-1.026-.53-2.002-1.867-2.368-3.242-.295-1.11-.313-1.124-1.481-1.124-.9 0-1.451.194-2.305.813-.618.447-1.218.982-1.334 1.19-.117.208-.365.378-.551.378-.187 0-.835.457-1.44 1.016-.606.559-1.143.974-1.194.923-.05-.05-.415.207-.81.572-.393.365-.8.664-.905.664-.104 0-.812.545-1.574 1.211-.761.666-1.384 1.138-1.384 1.048 0-.09.235-.624.522-1.188.425-.832.769-1.106 1.832-1.459.72-.239 1.455-.61 1.632-.824.178-.214.845-.741 1.482-1.171.636-.43 1.304-.906 1.483-1.057.178-.152.995-.746 1.814-1.32 1.57-1.1 2.192-2.3 1.322-2.55-1.125-.322-2.827-1.362-3.31-2.02-.361-.493-.568-1.265-.637-2.38-.086-1.398-.007-1.79.517-2.553 1.016-1.481 1.933-2.01 3.482-2.005.754.002 1.69.103 2.08.223.645.199.759.122 1.248-.837.522-1.023 1.614-4.59 1.614-5.272 0-.184-.179-.336-.397-.336-.532 0-.51-1.023.035-1.626.4-.44.4-.526 0-1.136-.544-.83-.559-2.359-.028-2.8.361-.3.361-.38 0-.78-.513-.567-.527-1.595-.023-1.595.21 0 .444-.101.52-.224.273-.442-.962-4.241-1.789-5.502-.832-1.27-.859-1.284-2.086-1.196-1.72.123-2.915-.337-4.005-1.544-1.09-1.207-1.403-2.48-.952-3.886.438-1.366 1.163-2.1 2.613-2.643 2.167-.812 2.158-1.488-.04-3.154a71.278 71.278 0 0 1-3.373-2.77c-1.007-.888-2.17-1.65-2.807-1.84-.896-.265-1.186-.527-1.658-1.499l-.573-1.178.915.89c.504.488 1.601 1.36 2.44 1.935.837.576 1.779 1.286 2.091 1.577 3.462 3.222 4.767 4.1 6.088 4.1 1.081 0 1.113-.025 1.271-1.012.232-1.453 1.185-2.733 2.544-3.42 2.744-1.385 5.417-.061 6.402 3.171.54 1.774 2.406 1.615 4.527-.386.505-.476.972-.866 1.037-.866.258 0 2.061-1.336 2.063-1.528 0-.113.27-.326.597-.474 1.275-.577 3.642-2.266 4.396-3.137.198-.23.308-.298.244-.153-.064.146-.28.644-.479 1.108-.29.676-.669.955-1.906 1.407-.85.31-1.689.793-1.864 1.075-.176.281-.461.511-.634.511s-.745.406-1.271.903c-.527.496-1.157.979-1.401 1.072-.244.094-.95.551-1.568 1.016-.814.613-1.125 1.037-1.131 1.542-.007.604.145.735 1.151.988 1.41.355 2.66 1.671 3.084 3.25.58 2.156-.34 4.166-2.306 5.036-1.178.521-1.442.532-3.905.161-.716-.107-1.564 1.478-2.245 4.194-.666 2.656-.665 2.476-.02 2.476.652 0 .696.7.085 1.374-.414.458-.414.55 0 1.419.543 1.137.547 1.368.04 2.34-.358.685-.358.815.002 1.211.595.658.52 1.593-.128 1.593-.634 0-.647.228-.13 2.21.49 1.883 1.29 3.675 1.845 4.136.23.191 1.107.365 1.949.387 2.836.073 4.803 1.873 4.803 4.396 0 1.776-1.878 3.953-3.411 3.953-.604 0-1.19 1.04-.931 1.651.077.183.818.867 1.646 1.52.828.652 2.28 1.86 3.225 2.685.997.869 2.181 1.635 2.818 1.824.908.269 1.167.502 1.5 1.35.221.563.382 1.019.357 1.012-.024-.007-.637-.542-1.36-1.19zm-15.852-6.474c.181-.18.545-.171 1.12.03 2.548.887 3.61-2.168 1.523-4.381-.783-.83-.916-.876-2.15-.737-.724.081-1.638.386-2.032.676-1.421 1.05-1.903 3.754-.785 4.406.583.34 1.986.345 2.324.006zm-1.786-1.302c-.509-.418-.57-.602-.332-.993.241-.395.71-.492 2.678-.555 2.217-.07 2.396-.037 2.528.468.267 1.018-.864 1.632-1.942 1.055-.374-.2-.717-.165-1.293.132-.97.502-.89.508-1.64-.107zm8.962-2.39c.747-.696.958-1.455.593-2.138-.166-.309-.262-.58-.213-.605.827-.41 1.154-.732 1.353-1.327.535-1.604-1.362-2.7-3.542-2.047-.899.27-1.143.527-1.856 1.953-.452.903-.992 1.836-1.2 2.072-.335.381-.279.515.492 1.165 1.74 1.465 3.414 1.82 4.373.928zm-10.883-.004c.305-.002 1.067-.374 1.692-.827l1.136-.823-.789-.738c-.434-.405-.938-1.136-1.12-1.624-.183-.488-.436-1.149-.561-1.469-.266-.675-2.074-1.269-3.09-1.014-.356.09-.943.457-1.303.818-.716.716-.67 1.513.128 2.234.287.258.44.812.44 1.587 0 1.095.075 1.228.927 1.66.509.259 1.164.41 1.455.335.29-.075.779-.137 1.085-.14zm5.132-5.925c0-.335.244-.675.596-.83.808-.354.75-.973-.133-1.396-.424-.203-.727-.563-.727-.863 0-.534-1.027-.77-1.092-.25-.018.145-.048.406-.066.578-.018.173-.427.416-.91.541-.695.18-.859.346-.793.8.052.357.332.63.743.727.37.087.703.383.758.673.124.653.487.885 1.125.718.294-.077.5-.364.5-.698zm-1.549-1.044c-.634-.764.435-1.833 1.199-1.199.207.172.34.561.297.865-.095.662-1.047.874-1.496.334zm2.872-3.233c0-.079-.3-.466-.666-.86-.367-.394-.813-1.043-.991-1.443-.342-.769-.586-.9-.857-.462-.09.147.021.338.249.426.227.087.413.283.413.436 0 .389 1.297 2.047 1.601 2.047.138 0 .251-.065.251-.144zm-1.718-.652c.09-.146-.027-.34-.26-.43-.507-.194-.79.02-.546.415.22.355.591.362.806.015zm1.089-4.547c.422-.683-1.96-1.05-2.51-.387-.163.195-.227.423-.144.507.265.264 2.478.164 2.654-.12zm-.561-4.711c0-.632-2.344-.555-2.466.081-.08.417.072.468 1.187.397.924-.059 1.279-.191 1.279-.478zm-.662-2.662c0-.137-.178-.249-.397-.249-.409 0-.525.313-.227.61.211.212.624-.027.624-.36zm-.761-.976c-.139-.255-.637-.82-1.109-1.257-.924-.855-.82-.517.266.86.722.915 1.262 1.17.843.397zm.554-1.173c-.404-.404-.702-.106-.478.478.132.345.247.38.482.144.236-.236.235-.384-.004-.622zm.464-1.916c.141-.371.5-.677.854-.727.39-.056.639-.295.691-.663.066-.46-.068-.594-.661-.661-.523-.06-.744-.235-.745-.587-.002-.626-.707-1.094-1.303-.866-.28.108-.418.397-.366.77.061.444-.065.618-.49.679-1.039.148-1.006 1.214.044 1.412.306.057.564.349.613.692.117.816 1.047.783 1.363-.049zm-1.333-.836c-.437-.527-.037-1.265.75-1.382.666-.1 1.053.847.58 1.417-.415.5-.897.487-1.33-.035zm8.729-2.118c.987-.83 1.03-1.504.15-2.384-.503-.504-.603-.775-.413-1.129.33-.616-.187-1.643-1.045-2.077-1.166-.59-2.612-.413-4.022.492l-1.295.831.817.844c.45.464 1.039 1.43 1.308 2.145.396 1.05.663 1.363 1.38 1.617 1.396.495 2.237.404 3.12-.339zm-12.03-.206c.344-.344.889-1.147 1.21-1.785.32-.638.762-1.364.981-1.614.361-.41.318-.521-.467-1.19-1.318-1.124-1.88-1.38-3.06-1.39-1.147-.01-1.748.426-2.077 1.507-.099.324-.06.8.085 1.058.205.365.126.586-.358.998-.979.832-1.075 1.6-.3 2.377.934.933 3.071.954 3.986.04zm6.402-5.279c1.128-1.23 1.4-2.629.695-3.577a2.052 2.052 0 0 0-2.574-.579c-.399.214-.772.222-1.28.029-.888-.338-1.893.002-2.31.78-.454.85-.055 2.552.838 3.569.738.84.862.884 2.28.8 1.321-.08 1.598-.2 2.351-1.022zm-4.957-1.544c-.525-.98.74-1.724 1.913-1.125.6.306.749.302 1.025-.032.415-.5 1.687-.503 2.1-.006.176.212.242.628.147.926-.149.47-.406.547-1.94.576-.972.019-2.04.062-2.373.097-.369.038-.71-.132-.872-.436zm12.443 46.58c-.37-.69.195-1.412.893-1.144.605.232.56 1.09-.074 1.43-.421.226-.574.173-.82-.286zm-21.209-.501c.09-.616.252-.794.72-.794.332 0 .67.175.752.389.184.478-.492 1.198-1.124 1.198-.365 0-.44-.169-.348-.793zm2.71-1.975c-.369-.445-.192-1.2.281-1.2.214 0 .201.125-.04.417-.287.345-.283.456.025.647.205.126.304.299.22.383-.085.084-.303-.027-.485-.247zm16.18-.34c.097-.842 1.163-1.196 1.438-.479.208.541-.348 1.206-1.007 1.206-.405 0-.496-.155-.43-.728zm1.16.168c.1-.161.019-.398-.182-.525-.566-.358-.761-.284-.761.29 0 .565.641.725.944.235zm4.679-.94c-.436-.175-.423-1.005.022-1.374.26-.216.477-.202.827.054.393.287.422.447.167.922-.313.586-.435.634-1.016.399zm-28.602-.588c-.28-.177-.292-.35-.057-.79.166-.31.406-.563.535-.563.639 0 1.07.385 1.07.955 0 .481-.142.632-.595.629-.327-.002-.756-.106-.953-.231zm2.607-1.58c0-.126.297-.171.661-.102.364.07.662.172.662.228 0 .056-.298.101-.662.101-.364 0-.661-.102-.661-.227zm23.062-.566c.153-.468 1.28-.703 1.28-.268 0 .165-.125.222-.277.128-.152-.094-.469-.011-.704.183-.363.3-.409.293-.299-.043zm3.452-8.253c-.125-.124-.456-.272-.737-.329-.713-.143-1.628-.659-3.079-1.737-1.358-1.009-1.468-1.189-.87-1.419.218-.083.397-.063.397.045 0 .109.486.15 1.081.094.595-.057 1.214.03 1.376.192.162.162.44.294.62.294.495 0 2.19 1.15 2.203 1.493.006.167.19.371.408.455.219.084.397.374.397.646 0 .37-.195.493-.785.493-.432 0-.887-.102-1.011-.227zm-25.262-4.089c-.105-.167.017-.53.27-.806.254-.277.386-.379.292-.226-.093.152-.215.515-.27.806-.065.338-.17.42-.292.226zm1.123-1.013c.184-.222.24-.404.125-.404-.116 0 .05-.278.37-.619.9-.957 1.103-2.125 1.044-5.993l-.055-3.574-.155 3.704-.155 3.704-.055-3.751-.055-3.751-1.5-.188c-1.082-.135-1.868-.07-2.82.235-.727.232-1.427.357-1.556.277-.333-.206.034-2.485.527-3.273.568-.906 1.087-1.255 2.174-1.46.51-.096 1.075-.298 1.257-.448.228-.188.33-.187.33.003 0 .152.358.355.795.45 1.582.348 3.407 2.947 3.039 4.328-.103.384-.27 2.426-.374 4.536-.215 4.426-.467 5.132-2.149 6.03-.726.387-1.004.456-.787.195zm1.087-.743c.98-.752 1.15-1.57 1.195-5.746l.044-4.101-.2 3.043a160.36 160.36 0 0 0-.233 4.325c-.03 1.07-.171 1.41-.857 2.05-.807.755-.771 1.06.051.43zm19.82.672c0-.11-.539-.422-1.196-.692-.87-.358-1.369-.79-1.833-1.587-.796-1.368-1.076-2.46-.74-2.886.143-.18.329-2.032.413-4.115.177-4.352.448-5.092 2.224-6.075 1.317-.73 1.413-.26.205 1.001-.89.93-1.181 2.696-1.132 6.878.026 2.208.051 2.337.208 1.058l.178-1.455.043 1.493c.032 1.089.157 1.536.462 1.653.758.291 3.2.168 4.287-.216.587-.207 1.138-.306 1.224-.22.346.346.121 1.876-.44 2.988-.499.99-.787 1.24-1.785 1.546-.655.202-1.4.47-1.654.598-.255.128-.463.142-.464.031zm-2.416-9.717.233-3.961 1.004-.868c1.128-.975 1.014-1.163-.187-.308-.432.309-.896.85-1.031 1.204-.135.354-.3 2.453-.368 4.665-.153 4.975.037 4.576.349-.732zm-17.762 7.511c.093-.358.213-.478.28-.28.063.191-.011.473-.165.627-.196.196-.23.093-.115-.347zm18.348-6.483c.013-.308.075-.371.16-.16.076.191.067.42-.021.507-.088.088-.15-.068-.14-.347zm.333-2.492c0-1.09.046-1.537.103-.992.057.546.057 1.439 0 1.985-.057.545-.103.099-.103-.993zm1.85-4.894c0-.219.1-.397.221-.397.122 0 .22.178.22.397 0 .218-.098.397-.22.397-.121 0-.22-.179-.22-.397zm-21.65-1.142c-.583-.047-1.172-.195-1.31-.331-.139-.136-.53-.247-.869-.247-.34 0-.683-.174-.765-.387-.082-.213-.37-.457-.64-.543-.422-.134-1.576-1.636-1.576-2.051 0-.243 1.846-.153 2 .097.081.13.364.238.629.238.264 0 .63.179.81.397.181.218.53.397.777.397.246 0 .797.37 1.224.821.428.452.984.9 1.237.997.437.167.437.189 0 .435-.253.143-.936.223-1.518.177zm-.662-11.518c.726-.383.94-.359.672.074-.096.156-.435.28-.754.279-.556-.004-.553-.019.082-.353zm23.018.253c0-.058.185-.175.411-.262.235-.09.342-.046.249.104-.155.251-.66.372-.66.158zm.649-.93c-.139-.13-.49-.295-.78-.365-.415-.1-.379-.134.17-.158.4-.018.764.139.85.366.176.456.115.496-.24.158zm-26.644-.753c-.547-.123-.594-.58-.125-1.22.41-.561 1.25-.322 1.25.357 0 .594-.526.998-1.125.863zm28.024.023c-.652-.653.269-1.765.976-1.179.193.16.43.214.525.118.096-.096.175 0 .175.214 0 .77-1.164 1.358-1.676.847zm-22.836-1.812c-.085-.22-.007-.577.173-.793.46-.556 1.32-.502 1.32.082 0 .953-1.184 1.516-1.493.711zm1.228-.541c0-.45-.682-.512-.944-.087-.2.323.395.808.733.599.116-.072.211-.302.211-.512zm15.938.492c.367-.407.393-.58.132-.857-.262-.278-.248-.323.07-.226.608.186.503 1.373-.133 1.494-.505.096-.508.077-.07-.41zm-.836-.499c.013-.308.076-.37.16-.16.077.192.067.42-.02.508-.089.088-.151-.069-.14-.348zm-18.393-1.85c-.465-.466-.365-.771.384-1.172.664-.355 1.28.603.777 1.21-.404.486-.644.478-1.16-.039zm21.018.02c-.403-.486.064-1.19.79-1.19.423 0 .488.298.302 1.389-.058.342-.747.216-1.092-.199z" transform="translate(-167.772 -106.207)"/><path style="fill:#1a9039;stroke-width:.26458332" d="M204.424 167.181c-.723-.648-1.406-1.178-1.518-1.178-.111 0-.456-.209-.766-.463-.794-.654-2.576-2.201-3.387-2.942-2.212-2.021-2.86-2.416-4.02-2.451-1.126-.034-1.134-.04-.262-.198l.902-.164-1.473-1.257c-.81-.691-1.544-1.257-1.63-1.257-.086 0-.61-.453-1.163-1.007l-1.007-1.007.676-.496.677-.496-.481.552c-.472.54-.462.566.5 1.304.54.415 1.412 1.152 1.937 1.638.525.487 1.37 1.2 1.88 1.586.51.386.986.77 1.058.854.073.085.847.729 1.72 1.432s2.302 1.902 3.175 2.664c.888.775 2.072 1.53 2.685 1.713.908.27 1.168.504 1.5 1.351.222.564.383 1.02.358 1.013-.025-.007-.637-.542-1.36-1.19zm-32.947.816c0-.09.235-.624.522-1.188.425-.832.769-1.106 1.832-1.459.72-.239 1.465-.623 1.656-.853.191-.23.777-.69 1.301-1.02.525-.332 1.123-.762 1.329-.957.206-.195 1.062-.817 1.902-1.384.84-.566 1.64-1.221 1.776-1.455.137-.234.252-.329.257-.211.004.117.741-.359 1.637-1.059 4.145-3.236 3.974-3.137 5.118-2.963l1.058.16-1.016.038c-1.075.04-2.2.742-2.745 1.714-.177.315-.325.417-.33.226-.01-.351-1.818.817-3.098 2-.354.328-.698.596-.764.596-.26 0-2.377 1.646-2.577 2.003-.117.208-.365.378-.551.378-.187 0-.835.457-1.44 1.016-.606.559-1.143.974-1.194.923-.05-.05-.415.207-.81.572-.393.365-.8.664-.905.664-.104 0-.812.545-1.574 1.211-.761.666-1.384 1.138-1.384 1.048zm6.288-1.525c.085-.323.203-.442.262-.264.06.178.366.326.682.328.467.003.5.051.176.26-.74.478-1.288.32-1.12-.324zm22.155.272c.07-.19.006-.523-.14-.741-.232-.344-.32-.328-.66.116-.215.283-.391.387-.391.231 0-.464.695-.898 1.157-.72.472.18.584 1.04.169 1.297-.144.089-.205.007-.135-.183zm-19.44-2.451c-.369-.445-.192-1.2.281-1.2.214 0 .201.125-.04.416-.287.345-.283.457.025.647.205.127.304.3.22.383-.085.085-.303-.026-.485-.246zm16.18-.34c.097-.842 1.163-1.197 1.438-.48.208.542-.348 1.207-1.007 1.207-.405 0-.496-.155-.43-.728zm1.16.168c.1-.162.019-.398-.182-.525-.566-.359-.761-.284-.761.29 0 .565.641.725.944.235zm-10.687-1.096c-.712-.343-1.643-2.016-1.613-2.899.014-.386.073-.462.163-.209.338.946 2.219 1.46 2.89.79.18-.18.544-.171 1.119.03 1.274.443 2.31-.069 2.639-1.306.248-.932.259-.94.285-.193.04 1.147-.945 2.964-1.94 3.58-.956.59-2.552.683-3.543.207zm-13.243-.436c-.38-.242-.195-.82.264-.82.145 0 .19.12.1.267-.091.147.11.377.447.513.548.22.557.246.083.258-.291.007-.693-.091-.894-.218zm29.486-.478c-.144-.377-.113-.407.148-.148.18.18.262.393.18.475-.08.081-.229-.066-.328-.327zm-1.208.088c0-.055.209-.264.463-.463.42-.33.43-.32.1.1-.345.44-.563.58-.563.363zm-25.664-1.187c0-.125.297-.17.661-.101.364.07.662.172.662.228 0 .055-.298.101-.662.101-.364 0-.661-.102-.661-.228zm23.062-.566c.153-.467 1.28-.703 1.28-.267 0 .164-.125.222-.277.128-.152-.094-.469-.012-.704.183-.363.3-.409.293-.299-.044zm-12.78-1.041c-.509-.418-.57-.602-.332-.993.241-.395.71-.492 2.678-.555 2.217-.07 2.396-.037 2.528.468.267 1.018-.864 1.632-1.942 1.055-.374-.2-.717-.165-1.293.132-.97.502-.89.508-1.64-.107zm9.297-.398c0-.21.108-.448.24-.53.132-.081.177.09.101.381-.161.618-.341.696-.341.149zm-3.948-1.096c.013-.308.075-.371.16-.16.076.19.067.42-.021.507-.088.088-.15-.068-.139-.347zm3.613-.895c.734-.684.96-1.454.614-2.099-.373-.697-.362-.737.247-.896.845-.221 1.201-1.486.68-2.411l-.432-.767.596.397c1.026.68 1.571 1.645 1.587 2.807.02 1.42-.598 2.346-1.986 2.976-1.482.673-2.034.67-1.306-.007zm-14.66-.257c-3.074-1.396-2.79-5.388.443-6.217.647-.166.646-.16-.06.242-.981.56-1.324 1.265-1.013 2.083.137.362.407.756.6.877.206.13.347.707.345 1.41-.004 1.099.068 1.227.922 1.654 1.299.649.206.605-1.237-.05zm4.856-3.336c-.622-1.304-.534-1.526.116-.294.295.56.49 1.064.432 1.121-.057.057-.304-.315-.548-.827zm2.017.039c-1.032-.869-2.492-3.654-2.175-4.152.493-.776 1.774-4.117 1.943-5.07.154-.869.111-.992-.343-.992-.286 0-.58.15-.653.331-.107.265-.138.265-.154 0-.012-.182-.2-.33-.418-.33-.528 0-.52-1.157.012-1.598.225-.187.342-.513.26-.726-.112-.293-.003-.347.452-.226.33.089.822.163 1.094.165.397.003.434.078.186.376-.403.486-.136.624 1.232.64 1.169.013 1.723-.378 1.097-.774-.257-.163-.144-.232.387-.235.868-.005 1.74.882 1.753 1.782.01.591-.385.737-1.644.61-.576-.06-.6.59-.078 2.069.212.6.3 1.089.198 1.086-.255-.008-1.642-1.994-1.642-2.352 0-.362-.443-.377-.662-.022-.091.147.021.338.249.425.227.088.413.277.413.42 0 .503 1.126 1.838 1.751 2.075.385.147.63.454.63.789 0 .302.188.91.417 1.353.365.706.368.86.03 1.244-.212.242-.624.915-.917 1.497-1.026 2.043-2.232 2.613-3.418 1.615zm2.036-2.377c0-.335.244-.674.596-.829.808-.354.75-.974-.133-1.396-.424-.204-.727-.563-.727-.864 0-.533-1.027-.769-1.092-.25-.018.146-.048.406-.066.579-.018.172-.427.416-.91.54-.695.181-.86.346-.793.8.052.357.332.632.743.728.37.087.703.382.758.672.124.654.487.886 1.125.72.294-.078.5-.365.5-.7zm-.395-4.928c.09-.147-.027-.34-.26-.43-.507-.194-.79.02-.546.414.22.356.591.363.806.016zm13.416 6.037c-.125-.125-.456-.273-.737-.33-.713-.142-1.628-.658-3.079-1.737-1.358-1.008-1.468-1.188-.87-1.418.218-.084.397-.064.397.045 0 .108.486.15 1.081.094.595-.057 1.214.03 1.376.191.162.162.44.295.62.295.495 0 2.19 1.149 2.203 1.493.006.166.19.37.408.455.219.083.397.374.397.645 0 .37-.195.494-.785.494-.432 0-.887-.102-1.011-.227zm-10.408-4.117c-.33-.42-.32-.429.1-.1.254.2.462.408.462.463 0 .218-.217.078-.562-.363zm-14.854.028c-.105-.167.017-.53.27-.807.254-.276.386-.378.292-.226-.093.153-.215.516-.27.807-.065.338-.17.42-.292.226zm1.123-1.013c.184-.222.24-.404.125-.404-.116 0 .05-.279.37-.62.9-.956 1.103-2.124 1.044-5.993l-.055-3.573-.155 3.704-.155 3.704-.055-3.751-.055-3.752-1.5-.187c-1.082-.135-1.868-.07-2.82.235-.727.232-1.427.357-1.556.277-.333-.206.034-2.485.527-3.273.568-.907 1.087-1.255 2.174-1.46.51-.096 1.075-.298 1.257-.448.228-.189.33-.188.33.003 0 .151.358.354.795.45 1.582.348 3.407 2.946 3.039 4.327-.103.385-.27 2.426-.374 4.537-.215 4.426-.467 5.131-2.149 6.03-.726.387-1.004.456-.787.194zm1.087-.743c.98-.752 1.15-1.57 1.195-5.746l.044-4.101-.2 3.042a160.36 160.36 0 0 0-.233 4.326c-.03 1.07-.171 1.41-.857 2.05-.807.755-.771 1.06.051.429zm19.82.672c0-.11-.539-.422-1.196-.692-.87-.358-1.369-.79-1.833-1.588-.796-1.368-1.076-2.459-.74-2.885.143-.18.329-2.032.413-4.116.177-4.351.448-5.092 2.224-6.075 1.317-.729 1.413-.259.205 1.002-.89.93-1.181 2.696-1.132 6.877.026 2.209.051 2.337.208 1.059l.178-1.456.043 1.493c.032 1.09.157 1.537.462 1.654.758.29 3.2.168 4.287-.216.587-.207 1.138-.306 1.224-.22.346.346.121 1.876-.44 2.988-.499.99-.787 1.24-1.785 1.546-.655.201-1.4.47-1.654.598-.255.127-.463.141-.464.031zm-2.416-9.718.233-3.96 1.004-.868c1.128-.975 1.014-1.163-.187-.308-.432.308-.896.85-1.031 1.204-.135.354-.3 2.453-.368 4.665-.153 4.974.037 4.576.349-.733zm-17.762 7.512c.093-.358.213-.478.28-.28.063.191-.011.473-.165.627-.196.196-.23.093-.115-.347zm9.44-5.37c-.225-.584.073-.883.478-.478.238.238.24.386.004.622-.236.235-.35.2-.483-.144zm-1.961-.165a.265.265 0 0 1 .53 0 .265.265 0 0 1-.53 0zm10.869-.948c.013-.309.075-.371.16-.16.076.19.067.419-.021.507-.088.088-.15-.068-.14-.347zm-8.828-.573c-1.57-.047-2.792-.186-2.715-.31.076-.125-.038-.373-.255-.553-.217-.18-.394-.61-.394-.956 0-.627.293-.758 1.428-.636.446.047.485-.077.344-1.106-.088-.638-.234-1.393-.325-1.677-.107-.337.117-.2.644.392.445.5.888.83.986.732.097-.097-.4-.745-1.104-1.438-.704-.694-1.306-1.405-1.337-1.581-.031-.176-.247-.701-.48-1.168-.363-.727-.37-.91-.056-1.268.202-.231.616-.914.92-1.52.648-1.288 1.715-2.207 2.564-2.207.716 0 1.695 1.091 2.604 2.9l.65 1.294-.943 2.181c-.519 1.2-1.002 2.707-1.075 3.35-.116 1.029-.071 1.162.369 1.115 1.206-.128 1.69.016 1.69.505 0 .273-.187.652-.415.841-.228.19-.359.561-.29.826.07.265.108.456.085.426-.023-.031-1.326-.095-2.895-.142zm1.002-.86c0-.633-2.344-.555-2.466.08-.08.418.072.469 1.187.398.924-.06 1.279-.192 1.279-.479zm-.662-2.662c0-.137-.178-.249-.397-.249-.409 0-.525.312-.227.61.211.212.624-.027.624-.361zm-.207-2.15c-.404-.404-.702-.106-.478.479.132.345.247.379.482.143.236-.235.235-.383-.004-.622zm.464-1.915c.141-.372.5-.678.854-.728.39-.055.639-.294.691-.662.066-.46-.068-.594-.661-.662-.523-.06-.744-.234-.745-.586-.002-.626-.707-1.095-1.303-.866-.28.108-.418.397-.366.77.061.443-.065.618-.49.679-1.039.147-1.006 1.214.044 1.411.306.058.564.35.613.692.117.817 1.047.784 1.363-.048zm8.563 5.668c0-1.091.047-1.538.104-.992.057.546.057 1.439 0 1.984-.057.546-.104.1-.104-.992zm-6.418-2.8c.013-.308.076-.371.16-.16.077.191.067.42-.02.507-.089.088-.151-.068-.14-.347zm8.27-2.095c0-.218.099-.397.22-.397.122 0 .22.179.22.397 0 .219-.098.397-.22.397-.121 0-.22-.178-.22-.397zm-21.652-1.142c-.582-.046-1.171-.195-1.31-.33-.138-.136-.529-.247-.868-.247-.34 0-.683-.175-.765-.387-.082-.213-.37-.457-.64-.543-.422-.134-1.576-1.636-1.576-2.052 0-.243 1.846-.153 2 .098.081.13.364.238.629.238.264 0 .63.178.81.397.181.218.53.396.777.396.246 0 .797.37 1.224.822.428.451.984.9 1.237.996.437.167.437.19 0 .436-.253.143-.936.222-1.518.176zm5.424-1.454c0-.046.387-.433.86-.86l.86-.777-.777.86c-.725.801-.943.981-.943.777zm13.209-1.131c.987-.831 1.03-1.505.15-2.384-.503-.504-.603-.775-.413-1.13.33-.615-.187-1.642-1.045-2.076l-.656-.332.625-.004c.344-.002 1.084.254 1.644.568 2.288 1.286 2.414 4.322.234 5.61-1.126.665-1.45.513-.54-.252zm-16.692-.175a3.497 3.497 0 0 1-1.28-2.712c0-1.621.853-2.552 2.911-3.177.629-.19.64-.176.23.297-.63.726-.829 1.594-.506 2.197.231.432.183.581-.263.82-.84.45-1.148 1.524-.653 2.28.444.676.22.827-.439.295zm11.823-1.503c-.096-.303-.49-.937-.874-1.41-.605-.74-.616-.785-.087-.33.662.572 1.471 1.955 1.264 2.163-.07.07-.207-.12-.303-.423zm-5.065-1.795c.488-.58.484-.593-.372-1.323-.475-.405-1.055-.848-1.288-.982a3.277 3.277 0 0 1-.689-.548c-.352-.402-3.403-2.952-4.895-4.092-.655-.5-1.964-1.588-2.91-2.417-.998-.875-2.176-1.644-2.807-1.83-.912-.27-1.179-.519-1.663-1.548-.46-.98-.481-1.112-.104-.657.26.313 1.306 1.18 2.325 1.928 1.89 1.386 3.172 2.43 4.752 3.866a22.262 22.262 0 0 0 2.036 1.587c.632.43 1.184.856 1.227.948.148.317 2.64 2.326 2.98 2.402.188.042.685.456 1.103.92.71.789.859.838 2.259.755 1.328-.08 1.597-.198 2.368-1.039.478-.521.87-.83.87-.683 0 .146.787-.362 1.749-1.129.962-.766 2.242-1.729 2.844-2.138.602-.41 1.36-1.038 1.683-1.396.324-.357.68-.652.794-.655.326-.008 1.922-1.15 1.924-1.378 0-.113.27-.326.597-.474 1.275-.577 3.642-2.266 4.396-3.137.198-.23.308-.298.244-.153-.064.146-.28.644-.479 1.108-.29.676-.669.955-1.906 1.407-.85.31-1.689.793-1.864 1.075-.176.281-.461.511-.634.511s-.732.387-1.243.86c-.51.473-1.338 1.098-1.84 1.39-.5.29-1.372.906-1.935 1.367-4.953 4.056-5.975 4.71-7.433 4.75-.81.024-1.372.223-1.87.662-.641.566-.663.57-.219.043zm-1.402-3.405c.013-.308.075-.371.16-.16.076.191.067.42-.021.507-.088.088-.15-.068-.139-.347zm.75-.151c-.524-.98.741-1.724 1.914-1.125.6.306.749.301 1.025-.032.415-.5 1.687-.504 2.1-.006.176.211.242.628.147.926-.149.47-.406.546-1.94.576-.972.018-2.04.062-2.373.096-.369.039-.71-.132-.872-.436zm-.905-1.5c.323-2.52 2.396-4.088 4.616-3.49 1.19.32 2.397 1.769 2.397 2.879v.636l-.548-.698c-.588-.747-1.987-.966-2.554-.4-.22.22-.519.22-1.145.003-1.157-.403-2.131.086-2.574 1.291l-.338.923zm-7.803-.403c.726-.383.94-.36.672.074-.096.155-.435.28-.754.278-.556-.004-.553-.018.082-.352zm23.018.252c0-.057.185-.175.411-.261.235-.09.342-.046.249.104-.155.251-.66.371-.66.157zm.649-.928c-.139-.132-.49-.297-.78-.367-.415-.1-.379-.134.17-.158.4-.017.764.14.85.367.176.456.115.495-.24.158zm-26.313-.655c0-.055.208-.264.463-.463.42-.33.429-.32.1.1-.346.44-.563.58-.563.363zm-.794-.562c0-.218.047-.397.104-.397.057 0 .173.179.256.397.084.219.037.397-.104.397-.14 0-.256-.178-.256-.397zm29.506.083c.092-.24-.084-.501-.457-.681-.454-.219-.494-.297-.159-.31.246-.01.522.103.614.251.091.148.277.2.412.117.409-.253.277.318-.156.678-.333.275-.377.266-.254-.055zm-23.855-1.41c-.085-.22-.007-.576.173-.793.46-.556 1.32-.502 1.32.083 0 .952-1.184 1.516-1.493.71zm1.228-.54c0-.45-.682-.512-.944-.088-.2.323.395.808.733.6.116-.073.211-.303.211-.513zm15.938.492c.367-.408.393-.58.132-.858-.262-.278-.248-.322.07-.225.608.186.503 1.372-.133 1.493-.505.096-.508.078-.07-.41zm-.836-.499c.013-.308.076-.37.16-.16.077.191.067.42-.02.507-.089.088-.151-.068-.14-.347zm-18.39-1.849c-.618-.618-.504-.804.137-.224.543.491.56.491.926-.01.205-.28.373-.392.373-.248 0 .305-.546.897-.828.897-.106 0-.38-.187-.608-.415zm21.912-.574c-.26-.414-.343-.42-.792-.067-.463.365-.474.36-.138-.068.492-.628 1.234-.59 1.283.066.05.647.016.653-.353.068z" transform="translate(-167.772 -106.207)"/><path style="fill:#252a1e;stroke-width:.26458332" d="M205.475 168.118c-.09-.146-1.288-1.16-2.662-2.254-1.373-1.093-2.497-2.055-2.497-2.138 0-.178 2.044 1.416 2.257 1.76.08.13.618.365 1.194.52.828.223 1.159.5 1.581 1.33.473.925.564 1.489.127.782zm-33.493-1.274c.4-.783.759-1.084 1.597-1.335.595-.178 1.5-.692 2.012-1.141.512-.45 1.016-.728 1.12-.619.104.11-.042.334-.324.499-.283.165-.794.567-1.137.895-.342.327-.699.595-.792.595-.093 0-.734.476-1.424 1.058-.69.582-1.326 1.059-1.412 1.059-.086 0 .076-.455.36-1.011zm5.993-.235c-.089-.23-.099-.48-.022-.556.076-.076.138-.008.138.15 0 .16.209.332.463.383.424.086.425.109.022.268-.278.11-.5.02-.601-.245zm21.945.135c.07-.19.006-.523-.14-.741-.232-.344-.32-.328-.66.116-.215.283-.391.387-.391.231 0-.464.695-.898 1.157-.72.472.18.584 1.04.169 1.297-.144.089-.205.007-.135-.183zm-19.612-2.713c-.18-.47.085-.946.51-.918.228.015.224.058-.015.154a.57.57 0 0 0-.33.487.57.57 0 0 0 .33.486c.26.104.257.138-.008.154-.186.012-.405-.152-.486-.363zm17.482.168c.12-.21.003-.496-.292-.72-.426-.322-.433-.371-.054-.378.554-.011.87.784.46 1.16-.229.21-.26.195-.114-.062zm-20.757-.678c0-.054.208-.263.463-.463.42-.329.429-.32.1.1-.346.441-.563.581-.563.363zm10.1-.496c-.65-.313-1.633-1.974-1.633-2.76 0-.385.074-.36.428.147.375.535.583.593 1.654.463 1.567-.191 1.581-.191 2.68-.014 1.167.188 1.828-.277 2.112-1.486.212-.899.216-.901.242-.137.04 1.147-.945 2.964-1.94 3.58-.956.59-2.552.683-3.543.207zm11.576-.64-.642-.706.72.508c.395.28.723.598.727.707.014.326-.131.234-.805-.508zm-24.658.154c-.467-.272-.4-.77.103-.77.145 0 .19.12.1.267-.091.147.11.377.447.512.337.136.434.25.215.255-.218.005-.608-.114-.865-.264zm4.195-.07c.091-.24.293-.435.448-.435.155 0 .52-.209.813-.463.531-.462.531-.462.021.238-.28.386-.56.655-.619.598-.06-.057-.27.03-.469.196-.285.237-.326.208-.194-.135zm25.13-.358c-.144-.377-.113-.407.148-.148.18.18.262.393.18.475-.08.081-.229-.066-.328-.327zm-1.208.087c0-.054.209-.263.463-.463.42-.329.43-.32.1.1-.345.441-.563.581-.563.363zm-4.92-1.024-.504-.595.596.504c.56.473.715.686.504.686-.05 0-.318-.268-.596-.595zm-20.744-.162c0-.125.297-.17.661-.101.364.07.662.172.662.228 0 .055-.298.101-.662.101-.364 0-.661-.103-.661-.228zm23.062-.566c.153-.467 1.28-.703 1.28-.267 0 .164-.125.222-.277.128-.152-.094-.469-.012-.704.183-.363.3-.409.293-.299-.044zm-17.963-.546c.167-.268.354-.439.414-.378.06.06.828-.451 1.706-1.137 3.497-2.73 4.158-3.215 4.158-3.047 0 .212-1.914 2.035-2.155 2.053-.294.022-3.401 2.344-3.401 2.541 0 .103-.231.248-.514.322-.441.116-.47.066-.208-.354zm12.692-1.041c-1.037-.873-1.938-1.588-2.002-1.588-.064 0-.577-.459-1.14-1.02l-1.023-1.021.661-.483.662-.482-.481.552c-.472.54-.462.566.499 1.304a46.7 46.7 0 0 1 2.2 1.848c.672.602 1.578 1.402 2.015 1.778.437.375.727.686.644.69-.082.006-.998-.705-2.035-1.578zm-.258 1.14c.258-.068.615-.063.794.01.18.072-.031.127-.468.121-.436-.005-.583-.064-.326-.131zm-7.451-.71c-.408-.49-.098-1.196.602-1.372.314-.079 1.403-.108 2.418-.064 1.79.077 1.85.102 1.93.798.067.583-.046.75-.598.89-.428.107-.915.016-1.315-.246-.556-.365-.675-.368-.957-.03-.405.489-1.682.504-2.08.024zm9.497-.282c0-.21.108-.448.24-.53.132-.081.177.09.101.381-.161.618-.341.696-.341.149zm-.335-1.991c.734-.684.96-1.454.614-2.099-.373-.697-.362-.737.247-.897.845-.22 1.201-1.485.68-2.41l-.432-.767.596.396c1.026.682 1.571 1.646 1.587 2.808.02 1.42-.598 2.346-1.986 2.976-1.482.673-2.034.67-1.306-.007zm-14.66-.258c-3.074-1.395-2.79-5.387.443-6.216.647-.166.646-.16-.06.242-.981.56-1.324 1.265-1.013 2.083.137.362.407.756.6.877.206.13.347.707.345 1.41-.004 1.099.068 1.227.922 1.654 1.299.649.206.605-1.237-.05zm7.785-1.25c.182-.073.48-.073.661 0 .182.074.034.134-.33.134s-.513-.06-.331-.133zm-2.93-2.085c-.62-1.304-.533-1.526.117-.294.295.56.49 1.064.432 1.121-.057.057-.304-.315-.548-.827zm2.018.039c-1.032-.869-2.492-3.655-2.175-4.152.493-.776 1.774-4.117 1.943-5.07.154-.869.111-.992-.343-.992-.286 0-.58.15-.653.331-.08.198-.142.144-.154-.132-.012-.255-.2-.463-.418-.463-.52 0-.511-.899.012-1.333.225-.187.342-.513.26-.726-.112-.293-.003-.348.452-.226.33.089.734.162.9.164.166.002.285.212.265.467-.03.384.188.463 1.286.463 1.097 0 1.317-.079 1.286-.463-.06-.765 1.052-.572 1.521.265.703 1.252.313 1.816-1.153 1.667-.578-.059-.599.58-.07 2.136l.393 1.158-.918-1.059c-.506-.582-.92-1.207-.923-1.389-.005-.387-.433-.441-.655-.082-.085.136.057.37.315.521.258.15.373.276.257.28-.398.016 1.239 1.912 1.85 2.145.367.14.61.451.61.78 0 .303.188.912.417 1.354.365.706.368.859.03 1.244-.211.241-.624.915-.917 1.497-1.026 2.043-2.232 2.613-3.418 1.615zm2.036-2.377c0-.335.244-.674.596-.829.808-.354.75-.974-.133-1.396-.424-.204-.727-.563-.727-.864 0-.533-1.027-.769-1.092-.25-.018.146-.048.406-.066.579-.018.172-.427.416-.91.54-.695.181-.859.346-.793.8.052.357.332.631.743.728.37.087.703.382.758.672.124.654.487.886 1.125.719.294-.077.5-.364.5-.699zm-.325-5.141c.059-.176-.138-.314-.446-.314-.55 0-.715.277-.37.622.246.246.687.078.816-.308zm11.967 4.628c-.8-.331-1.693-.742-1.984-.912l-.53-.31h.53c.29 0 .755.171 1.03.38.277.21.591.326.699.26.107-.067.342.056.522.273.18.216.484.394.676.394.192 0 .422.119.512.264.213.345.238.35-1.455-.35zm-3.555-1.475c-.08-.13.032-.305.25-.389.217-.083.395-.03.395.12s.137.187.305.084c.19-.117.234-.073.117.116-.224.363-.86.404-1.067.069zm-5.474-1.02c-.33-.42-.32-.429.1-.1.254.2.462.408.462.463 0 .218-.217.078-.562-.363zm-14.762-.364c-.012-.237.187-.595.442-.794.402-.316.424-.311.167.033a3.871 3.871 0 0 0-.442.794c-.123.332-.15.327-.167-.034zm1.138-.868c.032-.218.264-.624.516-.902.77-.851.973-2.146.916-5.868l-.055-3.574-.155 3.705-.155 3.704-.055-3.751-.055-3.752-1.5-.187c-1.085-.136-1.868-.07-2.83.238-.731.233-1.351.399-1.377.366-.026-.032-.128-.356-.227-.72-.163-.602-.145-.62.195-.198.502.622.71.583.72-.132.009-.579.02-.581.395-.086.212.28.417.46.454.397.482-.79.73-1.368.73-1.697 0-.22.12-.4.265-.4.373 0 .331.992-.046 1.118-.189.063-.225.244-.092.459.177.286.284.267.552-.1.314-.43.35-.428.606.026.262.463.287.462.645-.022.256-.347.43-.408.56-.198.103.167.114.424.024.569-.095.154.202.277.712.295.482.016 1.197.068 1.589.115.572.068.681-.003.554-.36a3.249 3.249 0 0 0-.38-.736c-.121-.159-.141-.368-.044-.466.097-.097-.041-.336-.307-.53-.341-.25-.393-.41-.175-.545.198-.122.496.22.828.952.574 1.264.65 1.836.294 2.214-.13.139-.286 2.009-.347 4.156-.096 3.416-.177 3.996-.65 4.63-.71.953-2.188 1.852-2.104 1.28zm.98-.496c.98-.752 1.15-1.57 1.195-5.746l.044-4.102-.2 3.043a160.36 160.36 0 0 0-.233 4.326c-.03 1.07-.171 1.41-.857 2.05-.807.755-.771 1.06.051.429zm19.621.405c-.183-.061-.268-.215-.19-.342.078-.126.319-.163.534-.08.286.11.344.026.214-.312-.127-.33-.07-.424.195-.327.205.074.343.269.307.433-.036.163.112.297.33.297a.398.398 0 0 0 .398-.397c0-.218.112-.396.249-.396.275 0 .655.506.497.664-.203.203-2.212.568-2.534.46zm-1.59-.74c-.326-.228-.591-.55-.591-.714 0-.165.267-.013.593.337.514.552.605.576.68.183.05-.25.208-.455.353-.455.337 0 .183.852-.176.972-.148.05-.535-.096-.86-.324zm4.594-.186c.09-.255.261-.463.382-.463.12 0 .256-.295.302-.655.06-.474.182-.592.441-.43.279.174.176.42-.465 1.117-.452.492-.749.686-.66.431zm-1.817-.358c-.106-.106-.193-.376-.193-.599 0-.298.078-.327.294-.111.162.162.249.431.193.598-.056.168-.188.218-.294.112zm1.27-.198c-.137-.308-.102-.561.095-.682.171-.107.236-.391.143-.633-.104-.271-.013-.5.239-.596.224-.086.343-.325.264-.531-.19-.497-.617-.481-.617.021 0 .47-.418.526-.686.093-.132-.213-.29-.167-.524.154-.313.429-.354.423-.63-.092-.272-.509-.225-.551.607-.551.496 0 1.393-.174 1.994-.386.6-.211 1.091-.28 1.091-.153 0 .127.07.449.154.715.146.46.134.46-.227.022-.56-.68-.67-.588-.866.728-.099.655-.276 1.19-.395 1.19-.12 0-.263.268-.32.596-.096.545-.123.554-.322.105zm-22.436-.457c.093-.358.213-.478.28-.28.063.191-.011.473-.165.627-.196.196-.23.093-.115-.347zm19.771.268c-.096-.155-.11-.346-.033-.424.19-.19.706.145.706.457 0 .338-.457.316-.673-.033zm-2.837-.845c-.548-1.196-.767-2.255-.5-2.42.123-.076.307-1.884.408-4.017.192-4.07.443-5.011 1.542-5.781.69-.484 1.111-.54.848-.114-.112.181-.04.25.183.176.202-.067.367-.252.367-.41 0-.157.08-.366.179-.464.098-.099.15.01.117.24-.034.232-.406.78-.827 1.219-.89.93-1.181 2.696-1.132 6.877.026 2.209.051 2.337.208 1.059l.178-1.456.043 1.5c.026.907.174 1.557.374 1.646.182.08-.235.077-.926-.008-1.142-.14-1.257-.105-1.257.389 0 .298.121.618.27.71a.314.314 0 0 1 .105.43c-.09.145.046.416.3.602.288.21.36.404.188.51-.151.093-.452-.216-.668-.688zm.825-6.887c.209-3.554.286-3.972.842-4.564.337-.358.49-.651.342-.651-.335 0-1.008.766-1.236 1.407-.094.265-.227 2.289-.294 4.498-.152 4.952.037 4.575.346-.69zm.619 7.465c.052-.156.208-.284.346-.284.138 0 .294.128.346.284.052.156-.104.284-.346.284-.243 0-.398-.128-.346-.284zm1.97-.428c-.252-.252-.204-.875.067-.875.325 0 .586.745.319.91-.12.074-.293.058-.386-.035zm1.154-.346c0-.291.119-.53.265-.53.145 0 .264.239.264.53 0 .291-.119.53-.264.53-.146 0-.265-.239-.265-.53zm-3.704-.117c0-.21.119-.454.264-.544.146-.09.265.081.265.38 0 .3-.12.546-.265.546-.145 0-.264-.172-.264-.382zm1.18.1c-.096-.156-.111-.346-.034-.424.19-.19.706.145.706.457 0 .338-.457.315-.672-.033zm5.06-.212c-.115-.184-.136-.407-.049-.494.237-.237.495.111.367.495-.09.269-.152.269-.319 0zm-4.518-.56c-.195-.316.053-.798.41-.798.322 0 .324.716.003.914-.135.084-.321.032-.412-.116zm-2.251-.402c0-.218.119-.396.264-.396.146 0 .265.178.265.396 0 .219-.12.397-.265.397-.145 0-.264-.178-.264-.397zm1.19.133c-.09-.146-.037-.265.117-.265s.28.12.28.265c0 .145-.052.264-.117.264-.064 0-.19-.119-.28-.264zm-9.02-3.54c-.224-.583.074-.882.479-.477.238.238.24.386.004.621-.236.236-.35.202-.483-.143zm-1.96-.164a.265.265 0 0 1 .53 0 .265.265 0 0 1-.53 0zm10.869-.948c.013-.309.075-.371.16-.16.076.19.067.419-.021.507-.088.088-.15-.069-.14-.347zm-8.828-.573c-1.57-.047-2.792-.186-2.715-.31.076-.125-.038-.373-.255-.553-.217-.18-.394-.61-.394-.956 0-.627.293-.758 1.428-.636.446.047.485-.077.344-1.106-.088-.638-.235-1.393-.328-1.677-.105-.321.133-.167.628.407.439.508.879.844.977.745.271-.271-1.211-2.085-1.925-2.356-.345-.131-.57-.329-.503-.439.068-.11-.103-.667-.38-1.237-.432-.888-.452-1.097-.139-1.454.201-.23.614-.912.918-1.516.648-1.29 1.715-2.208 2.564-2.208.716 0 1.695 1.091 2.604 2.9l.65 1.294-.943 2.181c-.519 1.2-1.002 2.707-1.075 3.35-.116 1.028-.071 1.162.369 1.115 1.087-.116 1.426.016 1.426.556 0 .301-.183.73-.406.954-.313.313-.336.49-.1.775.168.203.262.343.207.313-.054-.031-1.383-.095-2.952-.142zm1.084-.794c-.066-.342-.367-.473-1.144-.498-1.081-.036-1.824.308-1.566.726.08.129.742.235 1.472.235 1.121 0 1.313-.072 1.238-.463zm-.744-2.728c0-.137-.178-.249-.397-.249-.409 0-.525.312-.227.61.211.212.624-.027.624-.361zm0-1.689c0-.46-.434-.767-.782-.552-.352.218-.035.934.414.934a.376.376 0 0 0 .368-.382zm.257-2.376c.141-.372.5-.678.854-.728.39-.055.639-.294.691-.662.066-.46-.068-.594-.661-.662-.523-.06-.744-.234-.745-.586-.002-.626-.707-1.095-1.303-.866-.28.108-.418.397-.366.77.061.443-.065.618-.49.678-1.039.148-1.006 1.215.044 1.412.306.058.564.35.613.692.117.817 1.047.784 1.363-.048zm8.564 5.668c0-1.091.046-1.538.103-.992.057.546.057 1.439 0 1.984-.057.546-.103.1-.103-.992zm-17.552-.132c0-.219.12-.397.265-.397.145 0 .264.178.264.397 0 .218-.119.397-.264.397-.146 0-.265-.179-.265-.397zm-1.058-.133c0-.145.119-.264.264-.264.146 0 .265.119.265.264a.265.265 0 0 1-.53 0zm-5.557-.677c0-.226.12-.339.265-.249.146.09.265.276.265.413 0 .137-.12.249-.265.249-.145 0-.265-.186-.265-.413zm1.166.045c-.085-.22-.056-.555.064-.744.219-.345.264-.49.325-1.037.022-.202.168-.185.454.052.384.32.384.376-.005.66-.234.171-.356.493-.27.715.085.222.026.483-.13.58-.157.096-.354-.005-.439-.226zm2.453-.268c-.166-.43.057-.736.387-.532.3.186.294.903-.009.903-.13 0-.3-.167-.379-.37zm1.265.09c-.096-.156-.11-.347-.033-.424.19-.19.706.144.706.456 0 .338-.457.316-.673-.033zm1.202-.116c0-.218.119-.396.264-.396.146 0 .265.178.265.396 0 .219-.119.397-.265.397-.145 0-.264-.178-.264-.397zm-5.708-.483c-.394-1.029 2.33-2.747 3.205-2.022.472.393.51.875.055.708-.181-.066-.3-.255-.264-.418.036-.164-.113-.298-.33-.298a.407.407 0 0 0-.398.415c0 .294-.153.366-.53.246-.55-.175-1.467.477-1.224.87.073.118.027.384-.101.59-.193.314-.263.298-.413-.091zm5.046-.178a.491.491 0 0 1 .073-.575c.176-.177.329-.161.457.046.105.17.073.43-.073.575-.176.176-.329.161-.457-.046zm-2.488-.367c-.217-.26-.228-.434-.036-.552.154-.095.353.018.442.252.224.582-.022.763-.406.3zm1.153.083c-.096-.156.105-.592.448-.969.414-.455.482-.634.202-.534-.465.166-1.248-.204-.986-.466.305-.305 2.862.973 2.854 1.426-.007.365-.066.355-.389-.072-.31-.408-.454-.441-.774-.176-.216.18-.53.242-.698.139-.21-.13-.25-.016-.126.374.185.58-.214.79-.53.278zm21.929-2.759c0-.218.099-.397.22-.397.122 0 .22.179.22.397 0 .219-.098.397-.22.397-.121 0-.22-.178-.22-.397zm-20.858-1.455c-.09-.145-.399-.264-.687-.264-.287 0-.83-.202-1.207-.449-.65-.425-.702-.423-1.049.05-.2.275-.364.365-.364.2 0-.165.12-.374.268-.466.394-.243.047-.658-.549-.658-.282 0-.513-.127-.513-.283 0-.364.777-.12 2.71.85.836.419 1.58.76 1.654.759.982-.023 1.056.007.663.261-.508.329-.723.329-.926 0zm5.424-1.984c.342-.364.68-.662.753-.662.073 0-.147.298-.489.662-.341.364-.68.661-.753.661-.073 0 .147-.297.489-.661zm12.415-.288c.987-.831 1.03-1.505.15-2.384-.503-.504-.603-.775-.413-1.13.33-.615-.187-1.642-1.045-2.076l-.656-.332.625-.004c.344-.002 1.084.254 1.644.568 2.288 1.286 2.414 4.322.234 5.61-1.126.665-1.45.513-.54-.252zm-16.692-.175a3.497 3.497 0 0 1-1.28-2.712c0-1.621.853-2.552 2.911-3.177.629-.19.64-.176.23.297-.629.726-.829 1.594-.506 2.197.231.432.183.581-.263.82-.84.45-1.148 1.524-.653 2.28.444.676.22.827-.439.295zm11.823-1.503c-.096-.303-.49-.937-.874-1.41-.605-.74-.616-.785-.087-.33.662.572 1.471 1.955 1.264 2.163-.07.07-.207-.12-.303-.423zm-5.065-1.795c.488-.58.484-.593-.372-1.323-.475-.405-1.022-.83-1.216-.945-.385-.228-2.38-1.984-3.67-3.232-.453-.436-.57-.585-.262-.33.307.254.621.463.697.463.075 0 .663.49 1.306 1.089.642.599 1.585 1.357 2.094 1.685.51.328 1.153.85 1.43 1.16.277.31.813.577 1.19.594.549.025.58.057.158.159-.29.07-.826.384-1.188.697l-.66.569zm2.957-.859c.3-.12.924-.653 1.39-1.183.464-.53.845-.834.845-.678 0 .157.863-.394 1.918-1.225 2.924-2.302 2.713-2.16 2.33-1.555-.185.291-.984 1.006-1.777 1.588-.793.582-2.12 1.56-2.949 2.174-.828.613-1.685 1.111-1.904 1.107-.242-.005-.185-.093.147-.228zm-3.538-3.12c.067-.575.24-.745.828-.812.409-.047.91.052 1.113.221.284.236.507.21.969-.113.812-.569 1.727-.529 2.059.09.59 1.102.132 1.342-2.55 1.342h-2.502zm-.959-1.076c.283-2.504 2.373-4.091 4.599-3.492 1.114.3 2.397 1.752 2.397 2.712 0 .427-.046.421-.529-.062-.56-.56-2.081-.723-2.533-.27-.168.167-.606.15-1.25-.047-.872-.267-1.082-.239-1.714.233-.396.295-.806.882-.91 1.303-.127.517-.147.395-.06-.377zm-8.063-.123c.06-.04.348-.25.64-.463.489-.359.501-.353.166.075-.2.255-.488.463-.64.463-.152 0-.227-.033-.166-.075zm23.261-.029c0-.057.185-.175.411-.261.235-.09.342-.046.249.104-.155.251-.66.372-.66.157zm0-1.219-.661-.212.728-.026c.4-.014.727.093.727.238 0 .146-.03.253-.066.238a35.226 35.226 0 0 0-.728-.238zm-20.67-.463c-.33-.42-.32-.429.099-.1.44.346.58.563.363.563-.055 0-.263-.208-.463-.463zm18.16-.07c.078-.128.705-.61 1.393-1.07 1.17-.785 1.209-.794.602-.14-.626.675-2.287 1.682-1.996 1.21zm-23.827-.278c-.095-.155-.117-.339-.048-.408.07-.07.197.057.283.282.179.466.026.548-.235.126zm29.385-.032c.092-.24-.084-.501-.457-.681-.454-.219-.494-.296-.159-.31.246-.01.522.103.614.251.091.148.277.2.412.117.409-.253.277.318-.156.678-.333.275-.377.266-.254-.055zm-25.121-.63c-.605-.606-.51-.81.113-.247.291.264.53.52.53.57 0 .197-.246.073-.643-.324zm1.43-.782c-.184-.222-.258-.48-.164-.573.093-.094.17-.044.17.11 0 .591.814.593 1.052.002.147-.365.244-.434.254-.18.017.413-.465 1.044-.797 1.044-.1 0-.33-.181-.514-.403zm-3.751-1.195c-.684-.587-1.696-1.221-2.25-1.41-.76-.262-1.155-.629-1.624-1.513-.462-.87-.495-1.025-.132-.609.579.665 3.954 3.274 4.25 3.286.186.008 1.262 1.317 1.078 1.313-.043 0-.638-.481-1.322-1.067zm25.092.408c.084-.219.304-.397.489-.397s.484-.179.665-.397c.182-.218.438-.397.571-.397.133 0-.165.357-.662.794-1.006.882-1.29.988-1.063.397zm3.007-2.014c.509-.44 1.141-.92 1.405-1.065.452-.25.456-.22.074.518-.233.45-.763.908-1.246 1.077-1.23.428-1.26.359-.233-.53zm-26.833.124c-.14-.363-.101-.38.236-.1.459.381.507.534.167.534-.13 0-.312-.195-.403-.434zm22.165-.304c-.253-.401-.336-.407-.784-.054-.463.365-.474.36-.138-.068.456-.582.985-.594 1.202-.028.23.602.062.692-.28.15z" transform="translate(-167.772 -106.207)"/></svg>