<svg xmlns="http://www.w3.org/2000/svg" viewBox="0 0 42.598 65.352" height="247" width="161"><path d="M220.218-27.087c-.403-.445-.438-3.053-.438-32.106 0-30.299.02-31.64.483-32.06.442-.4 2.253-.438 20.597-.438 19.149 0 20.134.023 20.55.484.403.445.438 3.053.438 32.106 0 30.299-.02 31.64-.483 32.06-.442.4-2.253.438-20.597.438-19.149 0-20.134-.023-20.55-.484z" style="fill:#fff;fill-opacity:1;stroke-width:.26458332" transform="translate(7.035 32.132)"/><path style="fill:#fff;fill-opacity:1;stroke-width:.26563182" d="M14.762 13.46c-.405-.445-.441-3.053-.441-32.107 0-30.299.02-31.64.488-32.06.444-.4 2.27-.438 20.76-.438 19.3 0 20.293.024 20.713.484.406.445.442 3.053.442 32.106 0 30.299-.02 31.64-.488 32.06-.445.4-2.27.438-20.76.438-19.3 0-20.294-.023-20.714-.484z" transform="translate(-14.32 51.41)"/><path style="fill:#b5b4b3;stroke-width:.26458332" d="M156.946 145.49c-.402-.444-.438-3.062-.438-32.238 0-30.427.02-31.773.484-32.192.442-.4 2.271-.438 20.861-.438 19.405 0 20.398.023 20.815.484.403.444.438 3.062.438 32.238 0 30.427-.02 31.773-.484 32.192-.441.4-2.27.438-20.86.438-19.406 0-20.399-.023-20.816-.484zm41.412-.218c.463-.42.484-1.757.484-31.928 0-28.93-.036-31.53-.438-31.974-.417-.46-1.402-.483-20.55-.483-18.345 0-20.156.038-20.597.437-.464.42-.484 1.757-.484 31.928 0 28.93.035 31.53.438 31.974.417.46 1.401.483 20.55.483 18.344 0 20.155-.038 20.597-.437zm-39.03-1.634c-.403-.444-.438-2.933-.438-30.386 0-28.633.02-29.92.483-30.34.44-.398 2.106-.438 18.48-.438 17.098 0 18.018.024 18.434.484.402.444.438 2.941.438 30.506 0 22.999-.074 30.097-.318 30.34-.24.241-4.706.318-18.48.318-17.259 0-18.183-.024-18.6-.484zm36.815-.098c.46-.461.46-60.023 0-60.484-.46-.459-36.212-.459-36.671 0-.461.461-.461 60.023 0 60.484.459.46 36.212.46 36.67 0zm-26.338-2.066c-.655-.27-1.653-1.732-1.654-2.425 0-.243.292-.79.65-1.217l.651-.774-.546-1.429c-.765-2.002-.602-5.11.366-6.985 2.574-4.989 9.045-6.68 13.59-3.553 2.553 1.757 3.929 4.357 3.91 7.39-.022 3.685-1.831 6.616-5.08 8.233-1.58.785-2.008.88-4.017.886-1.788.006-2.516-.116-3.55-.592-1.29-.594-1.306-.595-1.852-.085-.691.645-1.696.87-2.468.551zm1.747-1.408c.385-.464-1.054-1.91-1.666-1.675-.489.187-.548 1.257-.096 1.71.423.422 1.399.403 1.762-.035zM159.42 113.63v-9.593l18.392-.104 18.391-.104-.07 9.629-.069 9.629-18.322.068-18.322.068v-9.593zm21.034 6.029c5.589-.406 9.453-2.154 11.281-5.101.688-1.109.517-1.573-1.169-3.166-1.944-1.837-3.384-2.602-6.415-3.409-4.556-1.213-10.298-.906-15.3.818-3.105 1.07-5.463 3.205-5.463 4.945 0 1.736 4.282 4.707 7.938 5.507 1.59.348 5.639.741 6.482.63a79.73 79.73 0 0 1 2.646-.224zm-5.259-16.435c-3.931-1.26-6.615-4.8-6.592-8.7.022-3.782 1.932-6.744 5.373-8.33 1.781-.821 2.03-.866 4.186-.757 1.627.083 2.6.276 3.354.667l1.063.55.738-.635c1.033-.889 1.91-.811 2.984.264 1.07 1.07 1.153 1.951.28 2.966-.614.715-.615.729-.158 1.933 1.006 2.648.823 5.51-.49 7.668-2.23 3.667-6.946 5.588-10.738 4.374zm10.728-15.055c.386-.847-.085-1.463-1.12-1.463-1.08 0-1.204.463-.36 1.345.902.94 1.098.957 1.48.118z" transform="translate(-156.508 -80.622)"/><path style="fill:#f6d906;stroke-width:.26458332" d="M169.1 140.662c-.888-1.055-.897-2.19-.023-3l.662-.613-.592-1.292c-.449-.98-.592-1.778-.59-3.296.003-1.725.124-2.248.868-3.76 2.165-4.399 7.378-6.256 12.048-4.292 1.571.66 3.589 2.704 4.443 4.5 1.997 4.2.103 9.48-4.18 11.65-1.41.715-1.783.785-4.193.783-2.172-.002-2.83-.1-3.672-.552l-1.025-.55-.667.618c-.98.908-2.217.83-3.08-.196zm2.462-.608c.406-.49-1.04-2.099-1.67-1.857-.568.218-.823 1.337-.416 1.827.41.494 1.686.513 2.086.03zm-12.011-26.343v-9.541H196.196V122.93l-4.564.078c-2.51.043-10.756.116-18.323.161l-13.758.082zm22.622 5.947c5.11-.78 8.466-2.619 9.924-5.438.359-.694.33-.797-.528-1.921-2.642-3.46-6.955-5.076-13.497-5.055-3.942.012-5.66.268-8.912 1.324-2.873.933-4.692 2.311-5.65 4.279-.406.836-.396.918.23 1.987 1.152 1.966 4.18 3.716 8.093 4.68 2.495.613 6.866.674 10.34.144zm-6.747-16.518c-2.546-.665-4.765-2.52-6.001-5.02-.498-1.007-.606-1.652-.603-3.607.003-2.078.098-2.567.742-3.837 1.005-1.983 2.574-3.518 4.508-4.41 2.147-.991 5.127-1.038 7.225-.113l1.372.605.596-.554c1.143-1.065 2.928-.602 3.565.925.332.795.33 1.004-.016 1.675-.218.421-.528.81-.69.864-.196.065-.102.661.285 1.81 1.05 3.11.347 6.572-1.838 9.06-.47.537-1.647 1.365-2.613 1.84-1.457.718-2.099.875-3.748.918-1.095.028-2.347-.042-2.784-.156zm10.716-15.495c0-1.155-1.387-1.63-2.248-.77-.4.401-.369.5.427 1.32.807.832.89.86 1.34.453.264-.24.48-.69.48-1.003z" transform="translate(-156.508 -80.622)"/><path style="fill:#069fd3;stroke-width:.26458332" d="M169.1 140.662c-.899-1.067-.897-2.19.002-3.024l.688-.637.631.749c.548.651 3.1 2.139 3.67 2.139.11 0 .129-.189.04-.419-.126-.33.032-.3.754.147 1.008.623 2.482.542 3.199-.175.482-.483 1.777-.64 2.034-.247.122.186.196.124.199-.166.002-.255-.115-.463-.26-.463a.265.265 0 0 1-.265-.265c0-.307.696-.36.86-.066.061.11.078.057.037-.115-.04-.173.046-.354.192-.403.786-.262-1.695-3.53-3.989-5.253-2.593-1.948-7.213-3.644-7.726-2.835-.118.186-.216.213-.218.061-.01-.708 1.85-3.246 3.038-4.144.728-.55 1.434-1.001 1.568-1.002.135 0-.334.41-1.042.914-.865.615-1.162.96-.906 1.05 3.224 1.141 4.176 1.543 5.447 2.3 1.742 1.039 4.36 3.366 5.407 4.807.406.559.803.88.897.727.094-.15.085-.412-.019-.58-.104-.168-.075-.235.063-.15.445.275.94-.246.977-1.031.02-.42.143-.838.273-.931.502-.36-.144-.7-1.09-.575-2.02.27-3.354-1.957-1.787-2.983.864-.566 1.853-.31 2.393.621.232.399.359.52.283.27-.075-.25-.034-.518.091-.596.438-.27-.798-2.26-1.827-2.942-.568-.376-1.726-.905-2.573-1.175-.847-.271-1.302-.5-1.01-.508 2.156-.063 5.535 2.498 6.788 5.145 1.991 4.21.098 9.483-4.183 11.653-1.41.714-1.783.784-4.193.782-2.172-.002-2.83-.1-3.672-.552l-1.025-.55-.667.618c-.98.908-2.217.83-3.08-.196zm7.781.448c0-.235-1.07-.358-1.206-.138-.081.132.157.24.53.24.371 0 .676-.046.676-.102zm3.816-.368c.717-.257 1.355-.623 1.418-.813.076-.229-.254-.156-.98.214-.604.308-1.212.488-1.352.401-.141-.086-.256-.024-.256.138 0 .163-.1.235-.221.16-.122-.076-.568-.033-.992.093l-.771.231.926.022c.509.012 1.512-.189 2.228-.446zm-9.135-.688c.406-.49-1.04-2.099-1.67-1.857-.568.218-.823 1.337-.416 1.827.41.494 1.686.513 2.086.03zm14.293-4.695c.179-.595.394-1.264.48-1.487.096-.25.031-.364-.168-.298-.177.06-.592.909-.921 1.887-.502 1.492-.528 1.715-.157 1.38.243-.22.588-.887.766-1.482zm.382-2.482c.084-.218.037-.397-.104-.397-.14 0-.256.179-.256.397 0 .218.047.397.104.397.057 0 .173-.179.256-.397zm-17.537 1.566c.013-.309.075-.371.16-.16.076.19.067.419-.021.507-.088.088-.15-.068-.139-.347zm-.21-1.83c.002-.728.054-.994.114-.592.061.402.06.997-.004 1.323-.062.325-.112-.004-.11-.731zm.23-1.985c0-.364.061-.512.134-.33.074.181.074.48 0 .661-.073.182-.133.033-.133-.33zm5.912-6.492c.437-.2 1.032-.36 1.323-.357.291.003-.007.174-.661.38-1.47.463-1.705.455-.662-.023zm2.85-.57c.257-.067.614-.063.793.01.18.072-.031.127-.468.122-.436-.005-.583-.065-.325-.132zm-15.663-2.675c2.733-2.732 2.875-3.228 1.65-5.727l-.713-1.452.617-1.235c.726-1.455.963-3.13.582-4.118-.246-.635-2.306-2.54-4.014-3.712-.619-.425.36-.45 17.832-.463l18.486-.014-2.241 2.23c-2.925 2.912-3.113 3.365-2.214 5.328.894 1.952.87 2.016-.227.58-2.65-3.47-6.956-5.085-13.505-5.064-3.942.012-5.66.267-8.912 1.324-2.873.933-4.692 2.311-5.65 4.279-.406.836-.396.918.23 1.987 1.744 2.975 7.375 5.207 13.141 5.207 3.11 0 7.131-.536 9.128-1.219 2.103-.718 4.392-2.237 5.336-3.54.474-.654 1.017-1.37 1.206-1.59.389-.453.341-1.013-.208-2.45-.54-1.415-.475-2.13.268-2.932.79-.852 1.86-.923 2.273-.15.43.803.115 1.387-.668 1.238-.357-.069-.587-.023-.51.102.077.124.37.226.653.226.64 0 .667.414.05.773-.44.257-.44.27 0 .277.51.01.621.409.188.677-.151.093-.202.398-.114.677.108.341.035.507-.225.507-.44 0-.82 1.186-.534 1.665.105.176.418.483.697.684.402.29.433.41.15.584-.283.175-.288.286-.027.548.458.457.41.752-.12.752-.35 0-.38.07-.133.317.468.469.39.694-.275.789-.35.05-.627.3-.676.614-.062.393-.02.437.161.172.364-.531 1.227-.254 1.324.425.103.721-1.025 1.275-1.777.872-1.237-.662-1.47-2.034-.69-4.074.713-1.868.406-2.405-.496-.866-.972 1.658-1.03 3.445-.154 4.676.617.867 3.445 2.853 4.198 2.95 1.092.139-10.168.35-22.643.425l-13.806.083zm-.926-1.262c-.883-.882-.091-1.856.97-1.194.35.219.46.227.336.026-.102-.166-.488-.416-.857-.556-.649-.247-.655-.272-.197-.777.362-.401.386-.523.1-.523-.23 0-.382-.303-.4-.794-.015-.455.108-.793.289-.793.174 0 .465-.327.647-.726.307-.673.27-.777-.508-1.426-.54-.451-.732-.767-.54-.886.219-.135.212-.29-.028-.578-.26-.313-.256-.436.016-.605.218-.135.273-.426.153-.806-.132-.418-.098-.54.115-.408.332.206 1.076-.29 1.076-.715 0-.149-.173-.122-.394.062-.618.512-1.242.118-1.146-.724.07-.601.23-.743.914-.81.64-.062.956.082 1.389.632.66.84.706 1.746.163 3.286-.547 1.548-.497 3.43.132 5.027.693 1.76.672 2.014-.244 2.93-.872.872-1.38.964-1.986.358zm-.12-5.763c-.32-.387-.138-.7.41-.7.394 0 .483.682.118.907-.13.08-.366-.013-.527-.207zm33.16.07c-.273-.44.34-.947.705-.582.305.306.114.87-.294.87-.129 0-.314-.13-.411-.288zm-17.647-10.735c.182-.073.48-.073.661 0 .182.073.033.133-.33.133-.364 0-.513-.06-.331-.133zm2.646 0c.182-.073.48-.073.661 0 .182.073.033.133-.33.133-.364 0-.513-.06-.331-.133zm-5.527-.885c-1.654-.854-3.06-2.336-3.98-4.195-.498-1.008-.606-1.653-.603-3.608.003-2.078.098-2.567.742-3.837 1.662-3.278 4.604-5.148 8.11-5.155 2.03-.004 4.653.723 4.354 1.206-.231.375.75-.072 1.32-.602.574-.534 1.762-.622 2.569-.19.294.157.705.695.913 1.194.332.795.33 1.004-.016 1.675-.218.421-.537.813-.709.87-.225.075-.18.449.165 1.353.263.687.4 1.325.307 1.419-.094.094-.17-.005-.17-.219s-.313-1.015-.694-1.78c-.735-1.476-1.897-2.405-3.88-3.105l-1.072-.378.507.595c.504.59.504.591-.021.202-.291-.216-.594-.478-.672-.582-.155-.206-1.463-.301-2.108-.154-.22.05-.687.294-1.04.54-.514.36-.721.386-1.042.127-.286-.232-.346-.235-.212-.011.11.184-.025.378-.333.476-.336.107-.463.311-.36.58.13.34.066.364-.365.133-.475-.254-.521-.199-.495.6.057 1.712 2.961 4.875 5.93 6.457 2.034 1.085 5.358 2.004 5.64 1.56.376-.593.226.076-.212.941-.678 1.342-1.616 2.483-2.548 3.1l-.86.569.727-.627c.4-.345.728-.699.728-.786 0-.088-.415-.237-.921-.332-2.614-.49-7.482-3.716-9.783-6.481-.632-.76-1.2-1.181-1.617-1.2-.354-.015-.644.065-.644.18 0 .113.12.206.265.206.145 0 .265.186.265.413 0 .227-.108.346-.24.264-.132-.081-.173.109-.091.423.102.39.053.511-.156.382-.227-.14-.235-.004-.033.527.25.657.234.685-.18.346-.407-.334-.434-.308-.283.278.093.362.026.825-.153 1.05-.176.223.024.14.444-.184.996-.768 2.032-.746 2.902.06.824.765.872 1.197.22 2.001-.683.846-1.852.782-2.588-.14-.522-.655-.595-.68-.695-.231-.14.63.608 2.172 1.422 2.93.342.318 1.276.882 2.076 1.254s1.277.672 1.059.666c-.219-.006-1.068-.356-1.889-.78zm-3.635-5.096c-.261-.26-.291-.229-.148.148.1.261.247.408.329.327.081-.082 0-.295-.18-.475zm-.03-4.03c.118-.146.3-.741.405-1.323.105-.582.311-1.21.458-1.396.148-.185.182-.423.077-.528-.528-.528-1.492 2.01-1.434 3.776.024.73.072.853.156.397.067-.364.219-.78.337-.926zm16.402-5.545c0-1.154-1.387-1.63-2.248-.77-.4.401-.369.5.427 1.32.807.832.89.86 1.34.453.264-.24.48-.69.48-1.003zm-11.917-.8a6.194 6.194 0 0 1 1.64-.518c.486-.069 1.217-.194 1.625-.277.407-.083.87-.072 1.027.026.158.097.701.202 1.207.233.776.047.843.01.428-.23-1.094-.638-5.402-.149-6.586.747-.674.51-.31.52.659.02zm12.533 7.668c0-1.019.049-1.403.106-.854.057.549.056 1.382-.002 1.852-.059.47-.106.02-.104-.998z" transform="translate(-156.508 -80.622)"/><path style="fill:#aa9b1a;stroke-width:.26458332" d="M169.1 140.662c-.899-1.067-.897-2.19.002-3.024l.688-.637.631.749c.548.651 3.1 2.139 3.67 2.139.11 0 .129-.189.04-.419-.126-.33.032-.3.754.147 1.008.623 2.482.542 3.199-.175.482-.483 1.777-.64 2.034-.247.122.186.196.124.199-.166.002-.255-.115-.463-.26-.463a.265.265 0 0 1-.265-.265c0-.307.696-.36.86-.066.061.11.078.057.037-.115-.04-.173.046-.354.192-.403.786-.262-1.695-3.53-3.989-5.253-2.593-1.948-7.213-3.644-7.726-2.835-.118.186-.216.213-.218.061-.01-.708 1.85-3.246 3.038-4.144.728-.55 1.434-1.001 1.568-1.002.135 0-.334.41-1.042.914-.865.615-1.162.96-.906 1.05 3.224 1.141 4.176 1.543 5.447 2.3 1.742 1.039 4.36 3.366 5.407 4.807.406.559.803.88.897.727.094-.15.085-.412-.019-.58-.104-.168-.075-.235.063-.15.445.275.94-.246.977-1.031.02-.42.143-.838.273-.931.502-.36-.144-.7-1.09-.575-2.02.27-3.354-1.957-1.787-2.983.864-.566 1.853-.31 2.393.621.232.399.359.52.283.27-.075-.25-.034-.518.091-.596.438-.27-.798-2.26-1.827-2.942-.568-.376-1.726-.905-2.573-1.175-.847-.271-1.302-.5-1.01-.508 2.156-.063 5.535 2.498 6.788 5.145 1.991 4.21.098 9.483-4.183 11.653-1.41.714-1.783.784-4.193.782-2.172-.002-2.83-.1-3.672-.552l-1.025-.55-.667.618c-.98.908-2.217.83-3.08-.196zm7.781.448c0-.235-1.07-.358-1.206-.138-.081.132.157.24.53.24.371 0 .676-.046.676-.102zm3.816-.368c.717-.257 1.355-.623 1.418-.813.076-.229-.254-.156-.98.214-.604.308-1.212.488-1.352.401-.141-.086-.256-.024-.256.138 0 .163-.1.235-.221.16-.122-.076-.568-.033-.992.093l-.771.231.926.022c.509.012 1.512-.189 2.228-.446zm-9.135-.688c.406-.49-1.04-2.099-1.67-1.857-.568.218-.823 1.337-.416 1.827.41.494 1.686.513 2.086.03zm12.294-1.356c.093-.242 0-.397-.236-.397a.394.394 0 0 0-.389.397c0 .218.107.397.236.397.13 0 .305-.179.389-.397zm2-3.34c.178-.594.393-1.263.479-1.486.096-.25.031-.364-.168-.298-.177.06-.592.909-.921 1.887-.502 1.492-.528 1.715-.157 1.38.243-.22.588-.887.766-1.482zm-3.419.43c0-.219-.112-.397-.249-.397-.333 0-.572.413-.36.624.297.298.61.182.61-.227zm-1.73-2.231c.195-.317-.303-.63-.655-.413-.296.183-.102.66.269.66.128 0 .302-.112.385-.247zm5.53-.68c.084-.218.037-.397-.104-.397-.14 0-.256.179-.256.397 0 .218.047.397.104.397.057 0 .173-.179.256-.397zm-7.829-1.505c-.163-.49-.733-.572-.733-.104 0 .23.188.419.419.419.23 0 .372-.142.314-.315zm-2.585-1.67c0-.218-.112-.397-.25-.397-.333 0-.572.413-.36.625.298.298.61.181.61-.228zm-2.91-1.323c0-.218-.113-.397-.25-.397-.333 0-.572.414-.36.625.297.298.61.181.61-.228zm-4.213 6.064c.013-.309.075-.371.16-.16.076.19.067.419-.021.507-.088.088-.15-.068-.139-.347zm-.21-1.83c.002-.728.054-.994.114-.592.061.402.06.997-.004 1.323-.062.325-.112-.004-.11-.731zm.23-1.985c0-.364.061-.512.134-.33.074.181.074.48 0 .661-.073.182-.133.033-.133-.33zm5.912-6.492c.437-.2 1.032-.36 1.323-.357.291.003-.007.174-.661.38-1.47.463-1.705.455-.662-.023zm2.85-.57c.257-.067.614-.063.793.01.18.072-.031.127-.468.122-.436-.005-.583-.065-.325-.132zm-15.646-2.692c2.714-2.714 2.857-3.214 1.633-5.71l-.713-1.452.647-1.266c.46-.902.646-1.695.646-2.769 0-1.73-.404-2.284-3.092-4.242-.853-.62-1.423-1.171-1.267-1.223.27-.09 1.364.709 4.105 3l1.265 1.059 2.472-.013 2.472-.013-1.584.573c-2.368.857-4.03 2.221-4.91 4.029-.406.836-.396.918.23 1.987.783 1.336 2.51 2.628 4.9 3.665 1.475.64 1.588.73.7.56-1.624-.314-3.98-.148-4.948.348-.48.246-1.678 1.204-2.663 2.13-2.666 2.505-2.59 2.034.107-.663zm32.37 1.372a43.414 43.414 0 0 1-2.454-1.842c-1.597-1.291-2.562-1.548-5.046-1.343l-1.755.144 1.19-.415c1.994-.696 4.286-2.24 5.204-3.508.474-.654 1.017-1.37 1.206-1.59.389-.453.341-1.012-.208-2.45-.54-1.415-.475-2.13.268-2.932.79-.852 1.86-.923 2.273-.15.43.803.115 1.387-.668 1.238-.357-.069-.587-.023-.51.102.077.124.37.226.653.226.64 0 .667.414.05.773-.44.257-.44.27 0 .277.51.01.621.409.188.677-.151.093-.202.398-.114.677.108.341.035.507-.225.507-.44 0-.82 1.186-.534 1.665.105.176.418.483.697.684.402.29.433.41.15.584-.283.175-.288.286-.027.548.458.457.41.752-.12.752-.35 0-.38.07-.133.317.468.469.39.694-.275.789-.35.05-.627.3-.676.614-.062.393-.02.437.161.172.364-.531 1.227-.254 1.324.425.103.721-1.025 1.275-1.777.872-1.237-.662-1.47-2.034-.69-4.074.713-1.868.406-2.405-.496-.866-.96 1.64-1.03 3.446-.177 4.643.627.881 2.417 2.205 3.783 2.799.63.274.717.376.326.384-.293.006-1.008-.309-1.587-.699zm-5.661-.308c-.308-.574.087-1.1.825-1.1.261 0 .476-.118.476-.264 0-.503-1.292-.266-1.696.31-.359.513-.421.527-.575.126-.134-.35-.254-.382-.538-.146-.202.167-.366.487-.366.71 0 .345-.076.337-.508-.055-.485-.439-.522-.433-.819.12-.226.424-.388.5-.603.286-.16-.16-.901-.293-1.644-.293-.744 0-1.557-.15-1.808-.333-.388-.284-.287-.32.677-.244.846.067 1.568-.116 2.853-.724 2.753-1.304 5.556-.994 5.556.614 0 .623-.735 1.481-1.268 1.481-.166 0-.419-.22-.562-.488zm-23.241-.083c-.61-.61-.38-1.522.53-2.094 1.086-.683 2.556-.556 4.956.428 1.22.5 2.002.664 2.712.57.549-.074.998-.09.998-.034 0 .316-1.68.884-2.673.904-1.822.037-2.197-.046-2.568-.568-.422-.596-1.11-.64-1.11-.07 0 .344-.118.321-.696-.133-.829-.652-1.494-.7-1.958-.14-.257.309-.265.482-.033.714.232.232.307.204.307-.115 0-.232.16-.483.354-.558.534-.205 1.033.211.926.773-.112.592-1.263.806-1.745.323zm9.869-.204c-.196-.317.302-.63.654-.413.296.183.102.659-.269.659-.128 0-.302-.11-.385-.246zm2.171.042c-.818-.176-.493-.59.463-.59.51 0 .926.105.926.234 0 .29-.771.488-1.389.356zm2.183-.325c0-.146.179-.265.397-.265.218 0 .397.12.397.265 0 .145-.179.264-.397.264-.218 0-.397-.119-.397-.264zm-18.634-1.739c-.883-.882-.091-1.856.97-1.194.35.219.46.227.336.026-.102-.166-.488-.416-.857-.556-.649-.247-.655-.272-.197-.777.362-.401.386-.523.1-.523-.23 0-.382-.303-.4-.794-.015-.455.108-.793.289-.793.174 0 .465-.327.647-.726.307-.673.27-.777-.508-1.426-.54-.451-.732-.767-.54-.886.219-.135.212-.29-.028-.578-.26-.313-.256-.436.016-.605.218-.135.274-.426.153-.806-.132-.417-.098-.54.115-.408.332.206 1.076-.29 1.076-.715 0-.149-.173-.122-.394.062-.618.512-1.242.118-1.146-.724.07-.601.23-.743.914-.81.64-.062.956.082 1.389.632.66.84.706 1.746.163 3.286-.547 1.548-.497 3.43.132 5.027.693 1.76.672 2.014-.244 2.93-.872.872-1.38.964-1.986.358zm-.12-5.763c-.32-.387-.138-.7.41-.7.394 0 .483.682.118.907-.13.08-.366-.013-.527-.207zm33.16.07c-.273-.44.34-.947.705-.582.305.306.114.87-.294.87-.129 0-.314-.13-.411-.288zm-2.24-1.493c-.814-1.189-2.94-2.899-4.427-3.563-1.384-.618-1.442-.786-.145-.428 2.03.56 4.99-.427 6.59-2.198.275-.305.977-.924 1.559-1.376.582-.452.034.208-1.217 1.466-2.967 2.982-3.149 3.419-2.245 5.392.38.83.657 1.545.615 1.586-.041.042-.37-.354-.73-.88zm-4.212-4.504c-.354-.063-1.6-.467-2.769-.898-1.313-.484-2.38-.726-2.795-.632-.642.144-.649.134-.157-.25.283-.221.967-.402 1.522-.402.565 0 1.008-.13 1.008-.295 0-.181.248-.132.647.13.414.271.708.327.815.154.096-.156.391.014.694.4.593.753 1.019.867 1.019.273 0-.56.342-.492.742.148.487.78 2 .627 2.12-.214.047-.328-.043-.596-.198-.596-.156 0-.283.172-.283.382 0 .602-.54.779-.995.325-.342-.342-.355-.488-.075-.826.481-.579 1.526-.512 1.864.12.666 1.245-1.194 2.53-3.159 2.18zm-21.59-.3c-.964-.42-1.295-1.024-.96-1.757.3-.659 1.432-.926 1.749-.413.288.466-.181 1.082-.823 1.082-.365 0-.577.116-.485.265.304.492 1.495.3 1.643-.265.17-.652.602-.698.615-.066.008.366.135.31.607-.266.465-.569.667-.66.916-.411.248.248.405.204.71-.197.243-.318.471-.414.597-.25.112.145.943.264 1.848.264 1.17 0 1.769.125 2.077.434.402.401.354.412-.654.143-1-.267-1.232-.22-2.861.583-1.84.907-4.002 1.278-4.978.853zm10.752-1.717c-.24-.29-.175-.39.323-.485.343-.065.909-.014 1.256.114.516.191.56.278.24.48-.573.363-1.472.309-1.819-.11zm-1.746-.165c-.09-.145.022-.264.249-.264s.412.119.412.264c0 .146-.112.265-.249.265s-.322-.119-.412-.265zm5.064.081c-.298-.298-.182-.61.227-.61.219 0 .397.112.397.25 0 .333-.413.572-.624.36zm-3.675-2.637c.182-.073.48-.073.661 0 .182.073.033.133-.33.133-.364 0-.513-.06-.331-.133zm2.646 0c.182-.073.48-.073.661 0 .182.073.033.133-.33.133-.364 0-.513-.06-.331-.133zm-5.527-.885c-1.654-.854-3.06-2.336-3.98-4.195-.498-1.008-.606-1.653-.603-3.608.003-2.078.098-2.567.742-3.837 1.662-3.278 4.604-5.148 8.11-5.155 2.03-.004 4.653.723 4.355 1.206-.232.375.749-.072 1.318-.601.575-.535 1.763-.623 2.57-.191.294.157.705.695.913 1.194.332.795.33 1.004-.016 1.675-.218.421-.537.813-.709.87-.225.075-.18.449.165 1.353.263.687.4 1.325.307 1.419-.094.094-.17-.005-.17-.219 0-.213-.313-1.015-.694-1.78-.735-1.475-1.897-2.405-3.88-3.104l-1.072-.379.507.595c.504.59.504.591-.021.202-.291-.216-.594-.478-.672-.582-.155-.206-1.463-.301-2.108-.154-.22.05-.687.294-1.04.54-.514.36-.721.386-1.042.127-.286-.232-.346-.235-.212-.011.11.184-.025.378-.333.476-.336.107-.463.311-.36.58.13.34.066.364-.365.133-.475-.254-.521-.199-.495.6.057 1.712 2.961 4.875 5.93 6.457 2.034 1.085 5.358 2.004 5.64 1.56.376-.593.226.076-.212.941-.678 1.342-1.616 2.483-2.548 3.1l-.86.569.727-.627c.4-.345.728-.699.728-.786 0-.088-.415-.237-.921-.332-2.614-.49-7.482-3.716-9.783-6.481-.632-.76-1.2-1.181-1.617-1.2-.354-.015-.644.065-.644.18 0 .113.12.206.265.206.145 0 .265.186.265.413 0 .227-.108.346-.24.264-.132-.081-.173.109-.091.423.102.39.053.511-.156.382-.227-.14-.235-.004-.033.527.25.657.234.685-.18.346-.407-.334-.434-.308-.283.278.093.362.026.825-.153 1.05-.176.223.024.14.444-.184.996-.768 2.032-.746 2.902.06.824.765.872 1.197.22 2.001-.683.846-1.852.782-2.588-.14-.522-.655-.595-.68-.695-.231-.14.63.608 2.172 1.422 2.93.342.318 1.276.882 2.076 1.254s1.277.672 1.059.666c-.219-.006-1.068-.356-1.889-.78zm11.281-3.173c.09-.146-.022-.265-.249-.265-.226 0-.412.12-.412.265 0 .145.112.264.249.264s.322-.119.412-.264zm-3.031-1.418c-.353-.353-.946.182-.68.614.138.222.287.217.571-.019.267-.221.3-.403.109-.595zm-11.885-.505c-.261-.26-.291-.229-.148.148.1.261.247.408.329.327.081-.082 0-.295-.18-.475zm9.162-.877c-.252-.253-.758.156-.57.46.112.18.26.176.45-.014.155-.156.21-.357.12-.446zm-2.315-1.852c0-.23-.142-.372-.315-.315-.49.164-.572.733-.104.733a.42.42 0 0 0 .419-.418zm-6.878-1.301c.119-.146.301-.741.406-1.323.105-.582.311-1.21.458-1.396.148-.185.182-.423.077-.528-.528-.528-1.492 2.01-1.434 3.776.024.73.072.853.156.397.067-.364.219-.78.337-.926zm4.76-.816c0-.23-.14-.372-.313-.314-.49.163-.572.733-.105.733a.42.42 0 0 0 .419-.42zm-1.851-2.91c0-.468-.57-.386-.733.104-.058.173.084.314.314.314a.42.42 0 0 0 .419-.419zm13.494-1.819c0-1.155-1.387-1.63-2.248-.77-.4.401-.369.5.427 1.32.807.832.89.86 1.34.453.264-.24.48-.69.48-1.003zm-11.917-.8a6.194 6.194 0 0 1 1.64-.518c.486-.069 1.217-.194 1.625-.277.407-.083.87-.072 1.027.026.158.097.701.202 1.207.233.776.047.843.01.428-.23-1.094-.638-5.401-.149-6.586.747-.674.51-.31.52.659.02zm12.533 7.668c0-1.019.049-1.403.106-.854.057.549.056 1.382-.002 1.852-.059.47-.105.02-.104-.998z" transform="translate(-156.508 -80.622)"/><path style="fill:#b72b24;stroke-width:.26458332" d="M169.188 140.703c-.988-.988-1.024-2.074-.098-2.944.531-.5.722-.559.895-.28.14.226.038.537-.279.853-.639.64-.633 1.352.016 1.94.699.632 2.01.229 1.979-.609-.012-.312.077-.568.198-.568.12 0 .22.178.22.397 0 .218.119.397.264.397.441 0 .298.477-.314 1.048-.838.78-1.957.69-2.881-.234zm13.073-1.366c-.09-.45-.318-.876-.506-.948-.188-.072-.278-.3-.199-.507.08-.206.042-.375-.084-.375s-.396-.387-.6-.86c-.204-.472-1.275-1.755-2.38-2.849-2.256-2.235-4.962-3.762-7.599-4.288-.854-.17-1.596-.34-1.649-.376-.1-.068.742-1.452 1.389-2.285.347-.447.477-.43 2.564.331 3.87 1.412 6.473 3.26 9.03 6.405.67.826 1.29 1.431 1.377 1.345.086-.086.165-.048.177.086.06.713.236 1.266.45 1.407.132.087.313.536.403.997.143.736.035.955-.885 1.786-.577.521-1.11.947-1.187.947-.076 0-.211-.367-.301-.816zm1.595-.639c.093-.242 0-.397-.236-.397a.394.394 0 0 0-.389.397c0 .218.107.397.236.397.13 0 .305-.179.389-.397zm-1.419-2.91c0-.219-.112-.397-.249-.397-.333 0-.572.413-.36.624.297.298.61.182.61-.227zm-1.73-2.231c.195-.317-.303-.63-.655-.413-.296.183-.102.66.269.66.128 0 .302-.112.385-.247zm-2.299-2.185c-.163-.49-.733-.572-.733-.104 0 .23.188.419.419.419.23 0 .372-.142.314-.315zm-2.585-1.67c0-.218-.112-.397-.25-.397-.333 0-.572.413-.36.625.298.298.61.181.61-.228zm-2.91-1.323c0-.218-.113-.397-.25-.397-.333 0-.572.414-.36.625.297.298.61.181.61-.228zm13.25 6.328c.012-.308.075-.37.16-.16.076.191.066.42-.022.507-.087.088-.15-.068-.139-.347zm.173-2.69c-.08-1.127-.334-2.407-.565-2.844-.372-.703-.57-.715-.442-.028.025.13-.281.577-.68.992-.51.534-.981.756-1.6.756-.974 0-1.934-.768-1.934-1.547 0-1.074 1.827-1.812 2.592-1.046.175.175.322.68.326 1.124.008.767.028.782.397.294.518-.685.492-1.995-.056-2.801-.44-.648-.44-.65.093-.186 1.178 1.026 2.027 3.108 2.152 5.276.066 1.134.062 2.06-.009 2.06-.07 0-.193-.922-.273-2.05zm8.389-9.473c-.484-.388-.476-.394.148-.097.81.386.96.508.624.508-.142 0-.49-.185-.772-.411zm-32.906-1.308c2.447-2.668 2.761-3.225 2.443-4.337a16.592 16.592 0 0 0-.486-1.461c-.118-.279.303-.005.934.607.631.613 2.11 1.589 3.286 2.17 1.176.58 1.781.96 1.345.847-1.298-.34-3.952-.165-4.924.323-.493.248-1.608 1.123-2.476 1.945l-1.578 1.493zm26.726.702c-.308-.574.087-1.1.825-1.1.261 0 .476-.118.476-.264 0-.503-1.292-.266-1.696.31-.359.513-.421.527-.575.126-.134-.35-.254-.382-.538-.146-.202.167-.366.487-.366.71 0 .345-.076.337-.508-.055-.486-.439-.522-.433-.819.12-.226.424-.388.5-.603.286-.16-.16-.901-.293-1.644-.293-.744 0-1.557-.15-1.808-.333-.388-.284-.287-.32.677-.244.846.067 1.568-.116 2.853-.724 2.753-1.304 5.556-.994 5.556.614 0 .623-.735 1.481-1.268 1.481-.166 0-.419-.22-.562-.488zm-23.241-.083c-.61-.61-.38-1.522.53-2.094 1.086-.683 2.556-.556 4.956.428 1.22.5 2.002.664 2.712.57.549-.074.998-.09.998-.034 0 .316-1.68.884-2.673.904-1.822.037-2.197-.046-2.568-.568-.422-.596-1.11-.64-1.11-.07 0 .344-.118.321-.696-.133-.829-.652-1.494-.7-1.958-.14-.257.309-.265.482-.033.714.232.232.307.204.307-.115 0-.232.16-.483.354-.558.534-.205 1.033.211.926.773-.112.592-1.263.806-1.745.323zm9.869-.204c-.196-.317.302-.63.654-.413.296.183.102.659-.269.659-.128 0-.302-.11-.385-.246zm2.171.042c-.818-.176-.493-.59.463-.59.51 0 .926.105.926.234 0 .29-.771.488-1.389.356zm2.183-.325c0-.146.179-.265.397-.265.218 0 .397.12.397.265 0 .145-.179.264-.397.264-.218 0-.397-.119-.397-.264zm12.227-.93c-1.58-1.317-2.54-1.586-4.911-1.376l-1.627.144 1.19-.46c1.576-.607 2.269-1.015 3.759-2.21l1.245-1-.285.817c-.507 1.452-.124 2.84 1.137 4.124 1.432 1.46 1.274 1.448-.508-.039zm.784-1.005c-.663-.706-.724-1.542-.218-2.993.691-1.981.745-3.565.175-5.186-.61-1.736-.443-2.55.673-3.282.78-.51 1.502-.27 1.664.554.155.79-.407 1.092-1.011.544-.295-.266-.536-.355-.536-.197 0 .378.749 1.116 1.144 1.126.171.005.095.173-.17.374-.381.289-.409.41-.132.586.529.337.419 1.188-.246 1.906-.328.354-.596.75-.596.88 0 .131.268.507.596.835.696.697.851 1.921.272 2.144-.32.123-.335.229-.071.546.264.319.251.394-.07.394-.566 0-1.03.65-.832 1.165.154.4.197.398.517-.033.33-.443.377-.444.806-.021.378.372.398.52.116.86-.492.593-1.418.503-2.081-.202zm-31.62.17c-.283-.282-.203-1.098.128-1.303.168-.103.464.03.659.296s.43.409.522.317c.293-.294-.145-1.03-.699-1.174-.433-.114-.473-.212-.214-.525.194-.233.221-.454.069-.563-.389-.276-.373-1.633.02-1.633.56 0 .735-1.304.27-2.013-.228-.348-.545-.633-.705-.633-.212 0-.212-.096 0-.35.212-.257.204-.437-.032-.673-.253-.253-.241-.372.055-.555.304-.188.314-.311.049-.63-.275-.332-.229-.411.281-.484.421-.06.639-.292.7-.748.071-.534.023-.598-.252-.33a1.35 1.35 0 0 1-.816.33c-.66 0-.615-.965.063-1.328.788-.421 1.55-.071 2.029.933.395.83.384 1.01-.194 3.01-.607 2.1-.609 2.147-.146 3.659.793 2.589.817 3.37.128 4.012-.587.547-1.558.743-1.915.386zm-.176-6.04c0-.243.128-.399.284-.347.156.053.284.208.284.347 0 .138-.128.294-.284.346-.156.052-.284-.104-.284-.346zm33.337.132a.265.265 0 0 1 .53 0 .265.265 0 0 1-.53 0zm-3.308-2.224c-.727-.767-1.93-1.741-2.672-2.165l-1.348-.77 1.889-.01c2.144-.012 3.023-.426 5.307-2.496.826-.748.553-.38-.728.981-2.293 2.438-2.494 3.086-1.52 4.902.29.543.499.98.462.97-.036-.01-.662-.645-1.39-1.412zm-26.76-.025c.07-.291.203-.791.295-1.112.353-1.231-.325-2.625-1.928-3.963-.84-.701-1.82-1.477-2.178-1.724-.357-.247-.521-.456-.365-.463.157-.008 1.347.874 2.646 1.959 2.593 2.166 3.432 2.468 6.014 2.162l1.375-.163-1.558.657c-1.635.688-3.14 1.688-3.949 2.622-.465.538-.476.538-.352.025zm23.47-3.507c-.354-.063-1.6-.467-2.769-.898-1.313-.484-2.38-.726-2.795-.632-.642.144-.649.134-.157-.25.283-.221.967-.402 1.522-.402.564 0 1.008-.13 1.008-.295 0-.181.248-.132.647.13.414.271.708.327.815.154.096-.156.391.014.694.4.593.753 1.019.867 1.019.273 0-.56.342-.492.742.148.487.78 2 .627 2.12-.214.047-.328-.043-.596-.198-.596-.156 0-.283.172-.283.382 0 .602-.54.779-.995.324-.342-.341-.355-.487-.075-.825.481-.579 1.526-.512 1.864.12.666 1.245-1.194 2.53-3.159 2.18zm-21.59-.3c-.964-.42-1.295-1.024-.96-1.757.3-.659 1.432-.926 1.749-.413.288.465-.181 1.082-.823 1.082-.365 0-.577.116-.485.265.304.492 1.495.3 1.643-.265.17-.652.602-.698.615-.066.008.366.135.31.607-.266.465-.569.667-.66.916-.411.248.248.405.204.71-.197.243-.318.471-.414.597-.25.112.145.943.264 1.848.264 1.17 0 1.769.125 2.077.434.402.401.354.412-.654.143-1-.267-1.232-.22-2.861.583-1.84.907-4.002 1.278-4.978.853zm10.752-1.717c-.24-.29-.175-.39.323-.485.343-.065.909-.014 1.256.114.516.191.56.278.24.48-.573.363-1.472.309-1.819-.11zm-1.746-.165c-.09-.145.022-.264.249-.264s.412.119.412.264c0 .146-.112.265-.249.265s-.322-.12-.412-.265zm5.064.081c-.298-.298-.182-.61.227-.61.219 0 .397.112.397.25 0 .333-.413.572-.624.36zm-9.434-5.949c-.545-.752-.714-1.192-.53-1.376.148-.148.27-.463.27-.7 0-.236.302-.714.671-1.06 1.17-1.1 3.297-.479 3.297.96 0 .641-.885 1.43-1.605 1.43-.724 0-1.386-.956-1.23-1.776l.141-.736-.505.624c-.655.809-.64 1.74.046 2.849.775 1.253.405 1.11-.555-.215zm12.168.198c-4.842-1.64-9.514-5.491-11.417-9.41-.318-.656-.68-1.261-.806-1.346-.125-.085.332-.67 1.015-1.3l1.242-1.145.688 1.432c2.226 4.631 6.146 7.967 10.74 9.14 1.019.26 1.897.502 1.95.537.125.083-1.226 2.403-1.49 2.56-.107.064-.972-.147-1.922-.468zm1.991-.944c.09-.146-.022-.265-.249-.265-.226 0-.412.12-.412.265 0 .145.112.264.249.264s.322-.119.412-.264zm-3.031-1.418c-.353-.353-.946.182-.68.614.138.222.287.217.571-.019.267-.221.3-.403.109-.595zm-2.723-1.382c-.252-.253-.758.156-.57.46.112.18.26.176.45-.014.155-.156.21-.357.12-.446zm-2.315-1.852c0-.23-.142-.372-.315-.315-.49.164-.572.734-.104.734a.42.42 0 0 0 .419-.42zm-2.117-2.117c0-.23-.141-.372-.314-.314-.49.163-.572.733-.105.733a.42.42 0 0 0 .419-.42zm-1.852-2.91c0-.468-.57-.386-.733.104-.058.173.084.314.314.314a.42.42 0 0 0 .419-.419zm-3.41 8.065c-.162-.465-.286-.977-.276-1.138.01-.16.19.175.398.744.209.57.333 1.082.277 1.138-.057.057-.236-.278-.398-.744zm-.528-3.083c.032-1.614.15-1.456.293.397.048.619-.005 1.125-.118 1.125-.113 0-.192-.685-.175-1.522zm.255-2.072c.012-.308.075-.371.16-.16.076.191.066.42-.021.507-.088.088-.15-.068-.14-.347zm16.428-2.835c-.219-.262-.162-.46.229-.794.582-.498.684-1.502.202-1.985-.425-.425-1.318-.401-1.937.051-.428.313-.45.432-.15.794.553.667.019.498-.626-.198l-.577-.623.828-.567c1.085-.744 2.011-.718 2.873.08.694.644.955 2.037.498 2.66-.52.708-1.046.937-1.34.582z" transform="translate(-156.508 -80.622)"/><path style="fill:#272721;stroke-width:.26458332" d="M170.024 141.382c.293-.25 1.841-.403 1.695-.166-.088.143-.53.26-.983.26-.452 0-.773-.042-.712-.094zm-.763-1.282c-.174-.174-.304-.561-.287-.86.03-.531.034-.531.161-.013.072.291.251.678.399.86.342.422.145.432-.273.013zm13.328-1.48c-1.803-4.43-6.763-8.59-11.45-9.602-.843-.183-1.577-.364-1.629-.404-.052-.04.16-.429.47-.865l.564-.793 1.383.398c2.025.582 4.893 1.993 6.444 3.17 2.25 1.709 5.058 5.16 5.704 7.012.208.6.344.721.51.46.124-.196.227-.23.23-.077.002.153-.384.654-.858 1.113l-.86.835zm1.267.078c.093-.242 0-.397-.236-.397a.394.394 0 0 0-.389.397c0 .218.107.397.236.397.13 0 .305-.179.389-.397zm-.36-1.323a.398.398 0 0 0-.397-.397.398.398 0 0 0-.397.397c0 .218.179.397.397.397a.398.398 0 0 0 .397-.397zm-1.059-1.587c0-.219-.112-.397-.249-.397-.333 0-.572.413-.36.624.297.298.61.182.61-.227zm-.793-1.345c0-.468-.57-.386-.733.104-.058.173.083.315.314.315a.42.42 0 0 0 .419-.42zm-.938-.886c.196-.317-.302-.63-.654-.413-.296.183-.102.66.269.66.128 0 .302-.112.385-.247zm-1.311-1.341c-.128-.207-.28-.223-.457-.046a.491.491 0 0 0-.072.575c.128.207.28.222.456.046a.491.491 0 0 0 .073-.575zm-.987-.844c-.163-.49-.733-.572-.733-.104 0 .23.188.419.419.419.23 0 .372-.142.314-.315zm-1.262-.876a.398.398 0 0 0-.397-.397.398.398 0 0 0-.397.397c0 .218.179.397.397.397a.398.398 0 0 0 .397-.397zm-1.323-.794c0-.218-.112-.397-.25-.397-.333 0-.572.414-.36.625.298.298.61.181.61-.228zm-1.364-.78c.059-.301-.037-.429-.265-.353-.195.065-.397.33-.447.59-.058.302.037.43.265.353.195-.065.397-.33.447-.59zm-1.547-.543c0-.218-.112-.397-.249-.397-.333 0-.572.414-.36.625.297.298.61.181.61-.228zm-1.373-.416c-.052-.157-.208-.285-.346-.285-.139 0-.294.128-.347.285-.052.156.104.284.347.284.242 0 .398-.128.346-.284zm.183 11.396c-.09-.145-.038-.264.116-.264.155 0 .28.119.28.264 0 .146-.052.265-.116.265s-.19-.119-.28-.265zm11.774-4.1c0-.219.047-.397.104-.397.057 0 .172.178.256.396.084.219.037.397-.104.397-.14 0-.256-.178-.256-.397zm2.666-.552c.013-.308.076-.37.16-.16.077.191.067.42-.02.508-.088.087-.151-.069-.14-.348zm.174-2.69c-.08-1.127-.334-2.407-.565-2.844-.372-.703-.57-.715-.442-.028.025.13-.281.577-.68.992-.51.534-.981.756-1.6.756-.974 0-1.934-.768-1.934-1.547 0-1.074 1.827-1.812 2.592-1.046.175.175.322.68.326 1.124.008.767.028.782.397.294.518-.685.492-1.995-.056-2.801-.44-.648-.44-.65.093-.186 1.178 1.026 2.027 3.108 2.152 5.276.066 1.134.062 2.06-.009 2.06-.07 0-.193-.922-.273-2.05zm8.389-9.473c-.484-.388-.476-.394.148-.097.81.386.96.508.624.508-.142 0-.49-.185-.772-.411zm-32.906-1.308c2.447-2.668 2.761-3.225 2.443-4.337a16.592 16.592 0 0 0-.486-1.461c-.118-.279.303-.005.934.607.631.613 2.11 1.589 3.286 2.17 1.176.58 1.781.96 1.345.847-1.298-.34-3.952-.165-4.924.323-.493.248-1.608 1.123-2.476 1.945l-1.578 1.493zm26.726.702c-.308-.574.087-1.1.825-1.1.261 0 .476-.118.476-.264 0-.503-1.292-.266-1.696.31-.359.513-.421.527-.575.126-.134-.35-.254-.382-.538-.146-.202.167-.366.487-.366.71 0 .345-.076.337-.508-.055-.486-.439-.522-.433-.819.12-.226.424-.388.5-.603.286-.16-.16-.656-.297-1.1-.302-.715-.008-.655-.064.525-.49.733-.263 1.567-.6 1.853-.746.286-.146 1.098-.407 1.806-.58 1.088-.265 1.383-.25 1.918.1.757.497.827 1.467.148 2.081-.628.569-1.023.554-1.346-.05zm-23.241-.083c-.414-.413-.428-1.453-.023-1.703.747-.462 2.64-.352 4.625.268 1.682.525 2.309.607 3.271.425.655-.124 1.231-.185 1.281-.135.25.247-1.614.899-2.631.92-1.822.036-2.197-.047-2.568-.569-.422-.596-1.11-.64-1.11-.07 0 .344-.118.321-.696-.133-.829-.652-1.494-.7-1.958-.14-.257.309-.265.482-.033.714.232.232.307.204.307-.115 0-.232.16-.483.354-.558.534-.205 1.033.211.926.773-.112.592-1.263.806-1.745.323zm9.869-.204c-.196-.317.302-.63.654-.413.296.183.102.659-.269.659-.128 0-.302-.11-.385-.246zm2.171.042c-.818-.176-.493-.59.463-.59.51 0 .926.105.926.234 0 .29-.771.488-1.389.356zm2.183-.325c0-.146.179-.265.397-.265.218 0 .397.12.397.265 0 .145-.179.264-.397.264-.218 0-.397-.119-.397-.264zm1.743-.082c-.417-.306-.36-.334.477-.236.523.06.885.217.805.347-.208.336-.731.291-1.282-.111zm10.484-.848c-1.58-1.317-2.54-1.586-4.911-1.376l-1.627.144 1.19-.46c1.576-.607 2.269-1.014 3.759-2.21l1.245-1-.285.817c-.507 1.453-.124 2.84 1.137 4.124 1.432 1.46 1.274 1.448-.508-.039zm-22.546-.658c-.218-.14-.278-.256-.132-.256.145 0 .443.115.661.256.219.141.278.257.133.257-.146 0-.443-.116-.662-.257zm23.725.089c-.318-.318-.186-2.085.252-3.37.325-.952.361-1.411.15-1.876-.155-.338-.215-1.252-.135-2.03.08-.778.027-1.845-.119-2.372-.344-1.249-.131-2.289.51-2.492.621-.197 1.282.296 1.282.956 0 .72-.497.888-1.075.365-.282-.255-.513-.335-.513-.177 0 .378.749 1.116 1.144 1.126.171.005.095.173-.17.374-.381.289-.409.41-.132.586.529.337.419 1.189-.246 1.906-.328.354-.596.75-.596.88 0 .131.268.507.596.835.696.697.851 1.921.272 2.144-.32.123-.335.229-.071.546.264.319.251.394-.07.394-.566 0-1.03.65-.832 1.165.154.4.197.398.517-.033.33-.443.377-.444.806-.021.378.372.398.52.116.86-.345.415-1.363.557-1.686.234zm-32.015-.265c-.283-.283-.203-1.099.128-1.304.168-.103.464.03.659.296s.43.409.522.317c.293-.293-.145-1.03-.699-1.174-.433-.114-.473-.212-.214-.525.194-.233.221-.454.069-.563-.389-.276-.373-1.633.02-1.633.56 0 .735-1.304.27-2.013-.228-.348-.545-.633-.705-.633-.212 0-.212-.096 0-.35.212-.257.204-.437-.032-.673-.253-.253-.241-.372.055-.555.304-.188.314-.311.049-.63-.275-.332-.229-.411.281-.484.421-.06.639-.292.7-.748.071-.534.023-.598-.252-.33a1.35 1.35 0 0 1-.816.33c-.749 0-.592-1.017.214-1.384.593-.27.743-.243 1.059.189.468.64.462 1.528-.022 3.123-.279.918-.311 1.457-.119 1.964.146.384.192 1.036.1 1.45-.09.413.045 1.635.3 2.717.38 1.616.402 2.039.121 2.377-.346.418-1.364.56-1.688.236zm6.11-.275c.33-.064.806-.061 1.059.005.253.066-.016.118-.599.115-.582-.003-.789-.057-.46-.12zm-6.286-5.766c0-.243.128-.399.284-.347.156.053.284.208.284.347 0 .138-.128.294-.284.346-.156.052-.284-.104-.284-.346zm33.337.132a.265.265 0 0 1 .53 0c0 .145-.12.265-.265.265a.265.265 0 0 1-.265-.265zm-3.308-2.224c-.727-.767-1.93-1.741-2.672-2.165l-1.348-.77 1.889-.01c2.144-.012 3.023-.426 5.307-2.496.826-.748.553-.38-.728.981-2.293 2.438-2.494 3.086-1.52 4.902.29.543.499.98.462.97-.036-.01-.662-.645-1.39-1.412zm-26.76-.025c.07-.291.203-.791.295-1.111.353-1.232-.325-2.626-1.928-3.964-.84-.701-1.82-1.477-2.178-1.724-.357-.247-.521-.456-.365-.463.157-.008 1.347.874 2.646 1.959 2.593 2.166 3.432 2.468 6.014 2.162l1.375-.163-1.558.657c-1.635.688-3.14 1.688-3.949 2.622-.465.538-.476.538-.352.025zm1.88-3.823c-.955-.388-1.296-1.005-.96-1.741.3-.659 1.432-.926 1.749-.413.288.466-.181 1.082-.823 1.082-.365 0-.577.116-.485.265.304.492 1.495.3 1.643-.265.17-.652.602-.698.615-.066.008.366.135.31.607-.266.465-.569.667-.66.916-.411.248.248.405.204.71-.197.243-.318.471-.414.597-.25.112.145.943.264 1.848.264 1.174 0 1.768.125 2.08.436.404.405.333.407-1 .037-1.402-.39-1.465-.384-2.787.285-.743.377-1.807.794-2.364.925-.557.132-1.192.306-1.41.387-.218.08-.64.048-.935-.072zm20.28-.297c.495-.305-2.191-1.007-3.57-.932-1.134.06-1.233.026-.81-.284.266-.194.936-.353 1.49-.353.565 0 1.009-.13 1.009-.295 0-.181.248-.132.647.13.414.271.708.327.815.154.096-.156.391.014.694.4.593.753 1.019.867 1.019.273 0-.56.342-.492.742.148.487.78 2 .627 2.12-.214.047-.328-.043-.596-.198-.596-.156 0-.283.172-.283.382 0 .602-.54.779-.995.325-.342-.342-.355-.488-.075-.826.905-1.09 2.568.083 1.787 1.26-.337.507-.63.575-2.534.592-1.184.01-2.02-.063-1.857-.164zm-9.528-1.404c-.24-.29-.175-.39.323-.485.343-.065.909-.014 1.256.114.516.191.56.278.24.48-.573.363-1.472.309-1.819-.11zm-1.746-.165c-.09-.145.022-.264.249-.264s.412.119.412.264c0 .146-.112.265-.249.265s-.322-.119-.412-.265zm5.064.081c-.298-.298-.182-.61.227-.61.219 0 .397.112.397.25 0 .333-.413.572-.624.36zm-9.434-5.949c-.545-.752-.714-1.192-.53-1.376.148-.148.27-.463.27-.7 0-.236.302-.714.671-1.06 1.17-1.1 3.297-.479 3.297.96 0 .641-.885 1.43-1.605 1.43-.724 0-1.386-.956-1.23-1.776l.141-.736-.505.624c-.655.809-.64 1.74.046 2.849.775 1.253.405 1.11-.555-.215zm13.916.483c.104-.268-.102-.44-.677-.566-4.412-.97-9.634-5.01-11.755-9.095-.708-1.364-1.079-1.843-1.232-1.595-.12.195-.283.29-.36.212-.079-.078.311-.585.866-1.126l1.009-.985.495 1.134c1.892 4.337 5.334 7.549 9.857 9.2 2.333.851 3.231.987 3.231.49 0-.17.074-.235.164-.145.09.09-.149.7-.532 1.354-.687 1.171-1.354 1.875-1.066 1.122zm.243-1.23c.09-.145-.022-.264-.249-.264-.226 0-.412.12-.412.265 0 .145.112.264.249.264s.322-.119.412-.264zm-1.515-.479c.057-.172-.084-.314-.315-.314a.42.42 0 0 0-.419.419c0 .467.57.386.734-.105zm-1.516-.938c-.353-.353-.946.182-.68.614.138.222.287.217.571-.019.267-.221.3-.403.109-.595zm-1.334-.302a.398.398 0 0 0-.397-.397.398.398 0 0 0-.397.397c0 .218.179.397.397.397a.398.398 0 0 0 .397-.397zm-1.39-1.08c-.251-.252-.757.156-.57.46.113.18.26.176.45-.014.156-.156.21-.357.12-.446zm-1.164-.499c.187-.486-.31-.823-.674-.458-.283.282-.08.846.305.846.121 0 .287-.174.37-.388zm-1.15-1.353c0-.23-.142-.372-.315-.315-.49.164-.572.733-.104.733a.42.42 0 0 0 .419-.418zm-1.191-.86c0-.479-.518-.392-.62.104-.058.276.041.397.264.323.196-.065.356-.258.356-.427zm-.926-1.257c0-.23-.141-.372-.314-.314-.49.163-.572.733-.105.733a.42.42 0 0 0 .419-.42zm-.982-1.463c-.447-.447-.978-.022-.577.461.222.267.404.3.595.11.192-.192.186-.367-.018-.571zm-.87-1.448c0-.467-.57-.385-.733.105-.058.173.084.314.314.314a.42.42 0 0 0 .419-.419zm-.325-1.118c.057-.173-.084-.315-.315-.315a.42.42 0 0 0-.418.42c0 .466.57.385.733-.105zm-3.084 9.184c-.162-.465-.287-.977-.277-1.138.01-.16.19.175.398.744.209.57.333 1.082.277 1.138-.057.057-.236-.278-.398-.744zm-.53-3.083c.033-1.614.15-1.456.294.397.048.619-.005 1.125-.118 1.125-.113 0-.192-.685-.175-1.522zm.256-2.072c.012-.308.075-.371.16-.16.076.191.066.42-.021.507-.088.088-.15-.068-.14-.347zm14.388-4.626c-.285-.46.04-.558.402-.12.209.25.229.402.053.402-.154 0-.36-.127-.455-.282zm2.81-.137c.012-.308.075-.37.16-.16.076.192.066.42-.022.508-.087.088-.15-.069-.139-.348zm-1.923-1.878c.19-.077.42-.067.507.02.088.089-.068.151-.347.14-.308-.013-.371-.076-.16-.16z" transform="translate(-156.508 -80.622)"/></svg>