<svg xmlns="http://www.w3.org/2000/svg" viewBox="0 0 42.598 65.352" height="247" width="161"><path d="M220.218-27.087c-.403-.445-.438-3.053-.438-32.106 0-30.299.02-31.64.483-32.06.442-.4 2.253-.438 20.597-.438 19.149 0 20.134.023 20.55.484.403.445.438 3.053.438 32.106 0 30.299-.02 31.64-.483 32.06-.442.4-2.253.438-20.597.438-19.149 0-20.134-.023-20.55-.484z" style="fill:#fff;fill-opacity:1;stroke-width:.26458332" transform="translate(172.415 38.677)"/><path style="fill:#fff;fill-opacity:1;stroke-width:.26563182" d="M-153.452 9.183c-.406-.445-.442-3.053-.442-32.106 0-30.299.02-31.64.488-32.06.445-.4 2.27-.438 20.76-.438 19.3 0 20.294.023 20.714.484.405.445.441 3.053.441 32.106 0 30.299-.02 31.64-.488 32.06-.444.4-2.27.438-20.76.438-19.3 0-20.293-.024-20.713-.484z" transform="translate(153.894 55.685)"/><path style="fill:#adaeab;stroke-width:.26458332" d="M25.615 138.007c-.403-.445-.438-3.062-.438-32.238 0-30.428.02-31.773.484-32.193.441-.4 2.27-.438 20.86-.438 19.406 0 20.399.024 20.816.484.402.445.438 3.062.438 32.238 0 30.427-.02 31.773-.484 32.193-.441.4-2.271.438-20.861.438-19.405 0-20.398-.024-20.815-.484zm41.411-.219c.464-.42.484-1.757.484-31.928 0-28.93-.035-31.529-.438-31.973-.417-.46-1.401-.484-20.55-.484-18.344 0-20.155.039-20.597.438-.463.42-.484 1.757-.484 31.928 0 28.93.036 31.529.438 31.973.417.46 1.402.484 20.55.484 18.345 0 20.156-.039 20.597-.438zm-39.03-1.633c-.402-.445-.438-2.935-.438-30.412 0-16.46.09-29.983.199-30.05.109-.068.167 13.396.13 29.918-.05 22.047.01 30.138.23 30.402.248.298 3.459.36 18.495.36 16.348 0 18.212-.042 18.356-.418.089-.23.16-13.839.16-30.242 0-22.843-.073-29.897-.317-30.14-.234-.235-3.097-.334-10.914-.38l-10.596-.064 10.559-.072c9.547-.066 10.606-.03 11.046.368.468.424.488 1.64.488 30.51 0 23.034-.075 30.143-.318 30.386-.24.24-4.706.317-18.48.317-17.26 0-18.184-.024-18.6-.483zm21.523-.575c-.627-.627-.644-.776-.167-1.462.453-.651.116-1.713-.543-1.713-.424 0-.427-.035-.038-.424.59-.59 1.437-.256 1.77.7.15.43.398.782.551.782.38 0 .353-.878-.039-1.27-.247-.247-.056-.312.86-.296.648.011 1.029.08.847.154-.546.22-.437 3.258.132 3.69.4.304.241.353-1.19.36-1.309.007-1.765-.102-2.183-.52zm1.801-.727c-.055-.67-.21-.993-.479-.993-.5 0-.673 1.095-.252 1.602.542.654.817.424.731-.61zm2.181.396c.014-.858.015-.859.43-.264.592.85 1.408.788 1.408-.107 0-.686-.012-.691-.529-.224-.521.472-.529.462-.52-.687.007-1.025.05-1.11.36-.702.503.664.69.575.69-.33 0-.51-.135-.794-.376-.794-.665 0-1.212.31-1.212.69 0 .202-.12.368-.265.368-.145 0-.264-.298-.264-.662 0-.666.216-.758 1.72-.733 1.344.023 2.087.125 1.785.247-.403.163-.466 3.53-.066 3.53.146 0 .265.118.265.264 0 .149-.75.264-1.72.264h-1.72l.014-.86zm4.547.684c-.587-.237-.929-1.138-.587-1.55.235-.282.211-.503-.102-.95-.837-1.195.478-1.983 2.61-1.562.583.115.91.222.728.24-.406.037-.472 3.47-.066 3.47.146 0 .265.118.265.264 0 .267-2.231.336-2.848.088zm1.26-1.014c0-.728-.305-.854-.755-.312-.212.256-.207.435.02.662.488.487.735.369.735-.35zm0-1.985c0-.851-.68-1.132-.963-.397-.215.562.08 1.191.558 1.191.274 0 .405-.257.405-.794zm2.3 2.791c-.69-.69-.817-2.26-.243-3.032.67-.902 1.948-1.046 2.69-.303.662.661.73 2.278.133 3.131-.484.692-1.975.81-2.58.204zm1.767-.74c.422-1.577.03-3.052-.733-2.759-.315.121-.423.525-.423 1.582 0 .78.079 1.499.176 1.596.358.358.825.159.98-.42zm-32.852.535c-1.593-.413-2.169-2.734-.993-4.002.8-.863 2.324-.945 3.32-.18.568.436.665.733.693 2.107.017.9-.098 1.701-.265 1.834-.457.363-1.824.482-2.755.241zm24.16-4.317c-4.134-1.57-5.14-6.992-1.836-9.893l1.03-.905.05-2.848c.046-2.739.026-2.85-.527-2.93-.448-.063-.7-.459-1.148-1.801-.774-2.32-1.212-2.362-2.895-.28-.712.88-1.369 1.601-1.46 1.602-.263.002-4.464 4.271-4.464 4.537 0 .13.298.373.662.54.424.192.661.517.661.904 0 .332.11.67.243.753.313.194 2.962-.363 3.398-.714.242-.194.517-.072.993.442.832.898.835 1.422.011 1.629-.873.219-1.28-.085-1.096-.819l.153-.608-1.488.346c-1.477.343-2.328.974-1.546 1.146.5.11.5.858.002 1.518-.214.282-.392.73-.397.993-.005.265-.254 1.053-.555 1.752-.463 1.077-.772 1.386-2.015 2.014-1.948.986-3.835 1.132-5.229.404-1.042-.543-1.044-.543-1.604-.017-.556.522-1.55.676-2.358.366-.538-.207-.567-2.033-.038-2.471.404-.335 1.14-.086 2.03.689.382.331.443.248.586-.797.088-.642.348-1.688.577-2.323.23-.635.469-1.393.533-1.684.064-.291.37-.738.681-.993.387-.318.518-.646.415-1.039-.094-.362.008-.69.276-.886.376-.275.303-.447-.623-1.475-2.491-2.764-3.786-5.192-4.482-8.403-.873-4.027-1.167-5.797-1.17-7.048-.004-1.99-.28-3.307-.693-3.307-.2 0-.362-.238-.362-.53 0-.74.517-.671 2.983.397 1.175.51 2.18.926 2.232.926.052 0-.036-.244-.196-.543-.16-.298-.296-1.042-.304-1.653-.007-.611-.178-1.432-.38-1.825-.43-.84-.487-2.896-.09-3.292.19-.192.15-.38-.133-.615-.224-.186-.408-.49-.408-.674 0-.185-.268-.404-.595-.488-.974-.249-2.494-1.677-3.085-2.899-.7-1.446-.723-3.627-.052-5.076.975-2.105 2.94-3.312 5.377-3.302 4.38.019 7.06 4.431 5.092 8.382-.37.741-1.065 1.617-1.546 1.947l-.874.599-.054 2.801c-.052 2.694-.03 2.812.553 3.067.408.177.784.763 1.144 1.78.295.833.676 1.655.848 1.826.239.239 1.208-.59 4.157-3.551 3.78-3.795 4.358-4.686 3.047-4.686-.33 0-.51-.23-.567-.727-.08-.694-.144-.725-1.373-.66-.71.037-1.602.218-1.985.402-.63.303-.75.27-1.29-.37-.737-.873-.747-1.19-.049-1.564.684-.366 1.404.137 1.217.85-.149.569-.09.575 1.656.172 1.413-.326 1.528-.46 1.046-1.231-.229-.367-.198-.667.133-1.307.236-.456.43-1.005.43-1.22 0-.214.259-.974.576-1.69.504-1.134.775-1.393 2.125-2.03 2.156-1.018 3.294-1.125 4.818-.45l1.248.551.577-.543c.436-.41.798-.508 1.482-.4 1.062.17 1.352.538 1.232 1.569-.133 1.134-.533 1.407-1.404.957-.403-.208-.865-.547-1.026-.752-.227-.291-.369.03-.636 1.448-.383 2.028-1.195 4.065-1.797 4.507-.247.181-.345.546-.262.979.083.435 0 .74-.226.826-.535.206-.442.519.45 1.507 1.051 1.167 2.678 3.524 3.368 4.88.957 1.883 2.114 7.108 2.431 10.984.115 1.392.371 2.795.57 3.116.689 1.11-.172 1.122-2.511.038-1.184-.55-2.185-.968-2.226-.932-.04.037.049.389.199.782.15.394.271 1.11.271 1.592s.18 1.304.397 1.827c.447 1.07.515 2.369.158 3.035-.288.54.514 1.59 1.654 2.166 2.1 1.06 3.181 3.027 3.04 5.526-.084 1.489-.236 1.948-.997 3.007-1.521 2.119-4.433 3.053-6.76 2.17zm-10.2-5.395c.388-.727.351-.811-.36-.811-.637 0-2.164-1.033-1.55-1.05a.269.269 0 0 0 .265-.333c-.037-.178.172-.361.463-.406.378-.058.633.155.892.745l.363.826.495-.751c.273-.413.496-.9.497-1.082.002-.43-.979-.43-1.122 0-.133.398-.72-.624-.887-1.544-.116-.636.244-.878.556-.374.311.504.587.261.46-.405-.174-.907-.845-1.225-1.93-.914-.482.139-.916.212-.964.164-.048-.048.161-.403.465-.789.621-.79.307-.968-.376-.213-.423.467-.471 1.414-.092 1.793.099.099-.027.338-.28.531-.401.308-.409.385-.062.618.219.146.284.267.146.27-.138.001-.115.14.052.307.167.167.236.637.154 1.048-.255 1.276.088 1.994 1.168 2.442 1.286.534 1.323.532 1.646-.072zm.13-4.005c-.084-.135-.339-.246-.566-.246-.337 0-.353.074-.087.394.341.412.918.281.652-.148zm11.205-3.024c-.06-.51-.013-.926.104-.926.116 0 .211.364.211.81 0 .488.108.742.273.64.16-.1.202-.567.1-1.14-.119-.668-.087-.889.102-.707.15.146.327.562.393.926.069.386.144.111.18-.661.054-1.128.098-1.226.298-.662.2.567.22.528.13-.28-.056-.517-.285-1.375-.507-1.906l-.403-.966-1.143.33-1.143.33-.076 2.305c-.053 1.604.016 2.304.228 2.304.206 0 .246-.307.125-.952-.12-.645-.087-.896.103-.778.155.095.282.34.282.542 0 .42.553 1.717.733 1.717.065 0 .07-.417.01-.926zm5.333-6.566c-.213-.192-2.412-1.22-4.886-2.286a440.344 440.344 0 0 1-8.07-3.581c-1.964-.904-4.167-1.915-4.894-2.245-.728-.33-2.953-1.356-4.946-2.278-3.733-1.729-6.706-3.02-6.952-3.02-.078 0-.14.099-.14.22 0 .12.743.548 1.653.949 5.077 2.237 8.717 3.872 17.793 7.993 9.6 4.358 11.36 5.074 10.442 4.248zm-22.9-15.266c.421-.42.574-4.885.158-4.628-.177.11-.269.534-.207.96.174 1.181-.167.899-.597-.495l-.387-1.257-.16 1.19-.16 1.191-.04-1.008c-.026-.655-.14-.945-.33-.828-.159.098-.242.582-.185 1.074.125 1.065-.234 1.217-.393.167-.07-.46-.135-.24-.177.595-.054 1.087-.103 1.205-.277.662-.176-.55-.217-.572-.24-.133-.015.291.18 1.106.432 1.811.448 1.25.482 1.278 1.367 1.134.5-.08 1.038-.277 1.196-.435zm13.025-4.362c.243-.242.28-.397.095-.397-.167 0-.481.179-.7.397-.242.243-.279.397-.094.397.166 0 .48-.178.7-.397zm-.064-.969c-.06-.097.04-.246.223-.331.266-.124.266-.186.002-.31-.182-.084-.331-.27-.331-.412 0-.142.107-.192.237-.111.13.08.302-.024.382-.232.08-.208.006-.425-.164-.482-.195-.064-.287-.618-.25-1.488.078-1.78-.23-2.319-1.553-2.715-.896-.268-1.115-.259-1.315.057-.399.63-.278 1.016.284.907.311-.06.832.176 1.257.568.537.496.595.628.225.508-.424-.136-.45-.1-.166.242.285.343.232.403-.36.403-.381 0-.694-.128-.694-.284 0-.156-.173-.457-.386-.67-.338-.337-.436-.288-.793.403-.514.993-.514.99.121 1.157.302.079.532.007.535-.168.011-.587.94.912.997 1.611.046.55-.011.635-.26.386-.449-.448-1.015-.397-.867.078l.253.808c.099.312.439.391 1.43.33.716-.043 1.253-.158 1.193-.255zm-2.355-2.073c-.09-.146-.275-.265-.412-.265-.137 0-.25.12-.25.265 0 .145.186.264.413.264.227 0 .339-.119.25-.264zm11.444-9.197c-.44-.273-.785-.765-.874-1.25-.146-.795.005-2.73.231-2.956.066-.066.797-.143 1.626-.171 1.356-.047 1.572.022 2.147.69.706.819.857 2.392.3 3.117-.82 1.068-2.245 1.305-3.43.57zm-31.564-1.242a2.262 2.262 0 0 1 0-3.2c1.204-1.204 2.716-.522 2.964 1.338.279 2.089-1.574 3.252-2.964 1.862zm1.6-1.49c0-1.332-.086-1.697-.398-1.697-.293 0-.418.37-.478 1.423-.092 1.625.069 2.24.545 2.082.218-.073.33-.685.33-1.808zm1.93 1.822c.383-.383.43-3.387.054-3.387a.265.265 0 0 1-.265-.265c0-.442 2.558-.314 3.024.151.472.472.542 1.063.154 1.303-.16.099-.095.415.167.816.399.608.396.691-.044 1.177-.362.4-.815.522-1.94.522-1.14 0-1.396-.07-1.15-.317zm2.019-.363c.313-.313.348-.54.141-.926-.424-.794-.783-.604-.783.415 0 1.047.059 1.094.642.511zm.019-2.495a.52.52 0 0 0-.33-.463c-.197-.066-.331.122-.331.463s.134.529.33.463a.52.52 0 0 0 .331-.463zm1.847 2.46c.415-.848.247-3.251-.228-3.258-.211-.003-.209-.06.008-.198.168-.107.967-.154 1.776-.105 1.197.074 1.503.19 1.64.622.093.293.05.651-.096.797-.176.176-.32.087-.433-.267-.318-1.003-1.471-1.03-1.471-.035 0 .639.414.666.772.05.149-.254.28-.403.294-.33.272 1.523.042 2.575-.405 1.852-.303-.491-.583-.27-.556.44.038.987.555 1.054 1.368.177l.691-.746-.09.792c-.089.782-.11.793-1.861.87l-1.772.078zm3.842.503c0-.116.113-.325.252-.464.301-.3.038-3.293-.29-3.293-.125 0-.227-.089-.227-.198 0-.259 2.34-.237 3.108.028.76.262 1.112 1.493.533 1.858-.324.204-.352.39-.132.873.154.338.45.614.657.614.671 0 .18.66-.556.746-.593.07-.763-.054-.997-.727-.156-.447-.391-.812-.522-.812-.348 0-.292.899.079 1.27.246.246.07.317-.794.317-.611 0-1.111-.095-1.111-.212zm2.517-2.447c.19-.597-.261-1.31-.83-1.31-.375 0-.525 1.34-.188 1.676.347.347.85.167 1.018-.366z" transform="translate(-25.177 -73.138)"/><path style="fill:#f4d806;stroke-width:.26458332" d="M49.842 135.697c-.666-.466-.766-1.227-.22-1.68.29-.242.304-.443.066-.957-.166-.358-.458-.652-.648-.653-.19 0-.273-.121-.183-.266.356-.577 1.193-.256 1.551.595.313.744.307.922-.041 1.324-.525.604-.031 1.87.676 1.733.355-.068.438-.299.366-1.01a36.687 36.687 0 0 1-.133-1.915c-.035-.925.014-.992.722-.992.65 0 .712.059.427.401-.227.274-.289.946-.195 2.117l.138 1.715h-.969c-.533 0-1.234-.185-1.557-.412zm6.027.18c-.219-.09-.43-.455-.47-.81-.09-.823-.23-.953-.649-.606-.259.214-.343.1-.365-.493-.023-.627.04-.714.337-.468.479.397.646.198.675-.803.02-.697.124-.821.697-.821.524 0 .604.07.357.317-.382.382-.417 2.034-.063 2.964.277.73.099.978-.52.72zm6.03-.048c-.927-.54-.932-3.16-.008-3.656.42-.225.452-.087.372 1.58-.073 1.52-.013 1.856.357 1.998.687.263.943-.403.863-2.239l-.074-1.67.623.725c1.436 1.673-.301 4.33-2.134 3.262zm-8.404-.712c.008-.678.029-.692.308-.198.165.29.43.616.588.723.163.11.03.196-.308.199-.476.003-.594-.142-.588-.724zm4.279.41c-.415-.415-.408-1.194.013-1.341.236-.083.183-.282-.188-.7-.628-.707-.303-1.445.678-1.537.349-.033.485.007.304.088-.452.201-.42 1.6.04 1.777.526.202.687-.046.687-1.056 0-.663.115-.882.463-.883.404 0 .452.225.373 1.756-.065 1.26.01 1.82.264 1.98.223.142-.144.227-.98.23-.736.002-1.48-.14-1.654-.314zm1.534-.608c0-.673-.602-.92-.934-.385-.255.413.066 1.046.529 1.046.256 0 .405-.244.405-.661zm-29.486.066c-2.073-1.824.048-5.038 2.49-3.775 1.006.52 1.386 1.426 1.168 2.786-.134.838-.31 1.076-.966 1.305-1.218.424-1.948.339-2.692-.316zm23.67-2.514c-.004-.443.147-.594.59-.591.44.003.5.064.234.233-.2.126-.465.392-.591.592-.17.266-.23.205-.234-.234zm1.017-1.516c-3.14-1.155-4.46-4.908-2.793-7.943.4-.727 1.147-1.611 1.663-1.964.763-.523.907-.759.776-1.279-.103-.41-.061-.577.118-.466.152.094.376-.096.497-.423.214-.578.227-.573.492.187.198.57.46.797.968.839.382.032.677-.03.655-.138-.023-.107.073-.472.212-.811.252-.612.257-.61.731.265.278.51.907 1.082 1.5 1.36 1.302.613 2.615 2.265 2.94 3.697 1.038 4.586-3.299 8.317-7.759 6.676zm-20.733-1.692c-.658-.14-.8-.306-.824-.961-.062-1.647.632-1.915 1.994-.769.918.773.958.726 1.17-1.365.12-1.164.48-2.288 1.225-3.817.349-.716 1.205-.615 1.58.186.202.428.399.6.468.408.066-.183.224-.269.351-.19.127.078.168.304.092.502-.196.512 2.633 2.741 3.744 2.95.909.17.91.172.49.884-.413.699-.666.877-2.422 1.707-1.534.725-3.862.6-4.844-.258-.356-.313-.54-.271-1.308.296-.491.362-.9.645-.908.627-.008-.017-.372-.107-.808-.2zm9.393-4.684-.662-.38.794.178c.7.157.753.13.45-.239-.199-.241-.24-.482-.096-.57.296-.183.637.943.365 1.207-.105.102-.488.014-.851-.196zm1.802-2.144c.191-.077.42-.067.507.02.088.089-.068.151-.347.14-.308-.013-.371-.076-.16-.16zm3.666-.26c-.097-.098-.177-.455-.177-.794 0-.41-.155-.619-.463-.622-.34-.003-.288-.093.199-.344.608-.314.71-.277 1.265.464.565.752.574.827.148 1.138-.516.378-.72.41-.972.157zm-4.005-.605c-.21-.34.072-.453 1.58-.63 1.173-.138 1.218-.126.396.103-.51.142-1.129.373-1.377.513-.268.152-.51.157-.6.014zm-1.067-.277c-.09-.146-.037-.265.117-.265s.28.119.28.265c0 .145-.052.264-.116.264-.065 0-.19-.119-.28-.264zm-4.69-1.214c-.185-.424-1.17-1.875-2.189-3.225-1.018-1.35-1.856-2.54-1.861-2.646-.005-.105-.158-.46-.34-.787-.182-.327-.253-.595-.157-.595s.036-.167-.133-.37a2.278 2.278 0 0 1-.402-.86c-.053-.27-.346-1.539-.65-2.821-.855-3.59-1.397-8.913-.909-8.914.238-.001 5.208 2.191 13.316 5.873 2.837 1.288 6.432 2.905 7.987 3.593l2.828 1.25.442 1.404c.244.772.365 1.482.269 1.578-.153.153-1.597.6-3.172.983-.732.177-1.098-.232-1.483-1.655-.186-.688-.454-1.4-.595-1.582-.44-.57-1.27-.364-2 .498-.388.457-1.928 2.027-3.424 3.49-2.555 2.498-2.824 2.686-4.421 3.088-1.636.412-2.781 1.104-2.781 1.68 0 .151.168.045.373-.236.366-.5.383-.5.927-.008.639.578.519.939-.132.399-.37-.307-.484-.287-.795.138-.344.47-.38.456-.699-.275zm3.5-.684c0-.13.178-.304.395-.387.218-.084.33-.259.25-.389-.081-.13-.085-.237-.009-.237.077 0 .26.225.406.5.224.418.162.52-.387.624-.36.07-.655.02-.655-.11zm11.662-.903c.013-.308.076-.37.16-.16.077.192.067.42-.02.508-.089.088-.151-.069-.14-.348zm5.638-7.218c-.599-.238-1.272-.586-1.496-.774-.55-.462-6.05-2.961-6.523-2.964-.207 0-.6-.204-.872-.45-.272-.247-.818-.475-1.211-.507-.394-.031-1.668-.49-2.833-1.02-6.844-3.11-10.392-4.788-10.374-4.904.01-.073-.12-.608-.292-1.19-.17-.583-.312-1.19-.312-1.35-.002-.336 3.164-1.256 3.858-1.122.306.06.605.583.881 1.545.492 1.712.722 2.117 1.199 2.117.193 0 2.097-1.73 4.231-3.843 2.134-2.114 3.995-3.773 4.137-3.685.38.235 2.795-.633 3.2-1.152.304-.388.298-.406-.049-.137-.324.252-.537.164-1.12-.463-.724-.779-.58-1.118.16-.377.52.52.87.501 1.235-.066.284-.441.291-.441.154 0-.094.301-.003.463.26.463.222 0 .335.112.25.248-.084.137.186.643.602 1.125 1.518 1.762 2.952 3.898 3.718 5.542 1.01 2.165 2.48 9.484 2.366 11.78l-.08 1.616zM38.67 92.685c0-.689-.064-.773-.382-.51-.21.174-.326.516-.26.76s-.06.057-.281-.416c-.221-.473-.58-.86-.798-.86h-.594c-.11 0-.2.09-.203.199-.002.109-.108.362-.234.562-.181.285-.408.182-1.055-.484-.453-.466-1.236-1.107-1.74-1.426-2.052-1.296-3.034-3.87-2.39-6.261.598-2.223 3.234-4.228 5.555-4.228 2.37 0 4.838 1.88 5.422 4.13.623 2.403-.37 5.251-2.212 6.34-.73.43-.77.54-.642 1.74.076.704.065 1.28-.024 1.28-.09 0-.162-.371-.162-.826zm10.761-.075c-.095-.247.048-.458.385-.564.745-.237.855-.026.265.508-.43.39-.519.397-.65.056zm-5.602-1.577c-.99-1.146-1.037-1.258-.644-1.507.776-.49 1.305-.285 1.305.51 0 .671.082.746.728.662l.728-.095-.707.235c-.389.13-.806.295-.926.368-.12.073-.338-.005-.484-.173zm4.039-.533c-.46-.35-.37-.693.182-.693.163 0 .296.238.296.53 0 .29-.004.525-.01.52a93.913 93.913 0 0 0-.468-.357zm-1.592-.074c.182-.074.48-.074.662 0 .182.073.033.133-.33.133-.365 0-.514-.06-.332-.133zm2.712-.09c-.238-.154-.27-.258-.081-.26a.615.615 0 0 1 .478.26c.203.329.112.329-.397 0zm5.246-1.128c-.347-.347-.776-.582-.954-.523-.197.066-.323-.151-.323-.558 0-.45-.278-.86-.86-1.27-.473-.332-.993-.733-1.155-.89-.163-.157-.774-.443-1.359-.636-1.053-.347-1.059-.357-.661-1.046.97-1.683 4.857-2.66 6.71-1.688.934.49.97.49 1.567.006.404-.327.934-.468 1.558-.416.86.072.955.16 1.031.957.123 1.279-.301 1.685-1.26 1.207-.416-.208-.824-.553-.907-.768-.261-.682-.695-.42-.695.418 0 1.067-.525 3.166-.947 3.786-.185.271-.281.636-.214.81.066.175-.109.525-.39.78-.488.442-.537.434-1.14-.169zm-2.449.1c-.08-.129.062-.397.315-.595.407-.319.422-.312.132.06-.18.232-.25.5-.155.596.096.095.102.174.014.174-.089 0-.226-.106-.306-.235zm-2.967-1.757c-.458-.97.159-1.26 1.112-.52.477.37.46.379-.253.123-.625-.223-.714-.21-.479.074.16.191.205.484.103.65-.12.193-.293.077-.483-.327zm11.377-7.392c-.667-.467-.899-1.492-.66-2.917.173-1.03.206-1.057 1.358-1.138 1.684-.118 2.317.11 2.775.994.579 1.119.496 2.056-.248 2.8-.755.755-2.337.883-3.225.261zm-27.148-.588c-.378-.1-.463-.422-.463-1.769 0-.928-.138-1.786-.317-1.965-.247-.247-.067-.317.81-.317.622 0 1.36.123 1.641.274.552.295.72 1.578.206 1.578-.182 0-.13.194.133.484.61.675.545 1.344-.158 1.61-.676.256-1.021.103-.498-.22.577-.357.253-1.465-.458-1.566-.583-.082-.618-.015-.522.992.057.595.1 1.067.096 1.05-.004-.017-.215-.085-.47-.151zm1.337-2.914c.096-.646-.69-1.052-.912-.471-.21.548.104 1.252.501 1.12.182-.059.367-.351.411-.649zm8.645 2.894c-.149-.107-.485-.532-.748-.944-.445-.699-.447-.772-.035-1.074.645-.471.417-1.594-.346-1.702-.588-.084-.603-.032-.529 1.786.07 1.72.034 1.872-.452 1.872s-.522-.146-.44-1.755c.066-1.26-.01-1.82-.264-1.981-.22-.14.221-.227 1.152-.23 1.254-.003 1.574.094 1.914.579.36.516.363.65.015 1.18-.314.48-.33.732-.08 1.28.196.432.452.628.698.534.318-.123.328-.078.052.254-.372.45-.54.485-.937.2zm-14.24-.546c-.593-.656-.578-2.484.025-3.024.884-.79 2.287-.588 2.592.373.278.876.199 2.324-.15 2.745-.533.641-.665.453-.565-.807.132-1.658-.12-2.508-.746-2.508-.617 0-.952 1.358-.686 2.778.199 1.059.139 1.115-.47.443zm7.722-1.114c.056-.99-.032-1.745-.231-1.985-.276-.332-.092-.386 1.299-.386 1.587 0 1.62.014 1.62.72v.72l-.412-.588c-.578-.825-1.44-.78-1.44.074 0 .722.247.837.74.344.247-.247.316-.086.31.727-.007.839-.061.954-.278.582-.432-.741-.772-.537-.772.463 0 .706-.11.927-.463.927-.4 0-.451-.218-.373-1.598zm2.124 1.36c.199-.126.465-.392.591-.591.169-.267.23-.205.233.233.003.443-.148.594-.59.591-.44-.003-.5-.064-.234-.233z" transform="translate(-25.177 -73.138)"/><path style="fill:#2293b6;stroke-width:.26458332" d="M49.842 135.697c-.666-.466-.766-1.227-.22-1.68.29-.242.304-.443.066-.957-.166-.358-.458-.652-.648-.653-.19 0-.273-.121-.183-.266.356-.577 1.193-.256 1.551.595.313.744.307.922-.041 1.324-.525.604-.031 1.87.676 1.733.355-.068.438-.299.366-1.01a36.687 36.687 0 0 1-.133-1.915c-.035-.925.014-.992.722-.992.65 0 .712.059.427.401-.227.274-.289.946-.195 2.117l.138 1.715h-.969c-.533 0-1.234-.185-1.557-.412zm6.027.18c-.219-.09-.43-.455-.47-.81-.09-.823-.23-.953-.649-.606-.259.214-.343.1-.365-.493-.023-.627.04-.714.337-.468.479.397.646.198.675-.803.02-.697.124-.821.697-.821.524 0 .604.07.357.317-.382.382-.417 2.034-.063 2.964.277.73.099.978-.52.72zm6.03-.048c-.927-.54-.932-3.16-.008-3.656.42-.225.452-.087.372 1.58-.073 1.52-.013 1.856.357 1.998.687.263.943-.403.863-2.239l-.074-1.67.623.725c1.436 1.673-.301 4.33-2.134 3.262zm-8.404-.712c.008-.678.029-.692.308-.198.165.29.43.616.588.723.163.11.03.196-.308.199-.476.003-.594-.142-.588-.724zm4.279.41c-.415-.415-.408-1.194.013-1.341.236-.083.183-.282-.188-.7-.628-.707-.303-1.445.678-1.537.349-.033.485.007.304.088-.452.201-.42 1.6.04 1.777.526.202.687-.046.687-1.056 0-.663.115-.882.463-.883.404 0 .452.225.373 1.756-.065 1.26.01 1.82.264 1.98.223.142-.144.227-.98.23-.736.002-1.48-.14-1.654-.314zm1.534-.608c0-.673-.602-.92-.934-.385-.255.413.066 1.046.529 1.046.256 0 .405-.244.405-.661zm-29.595.045c-.218-.261-.167-.596.196-1.308.396-.777.42-.983.127-1.096-.442-.17-.477-1.11-.052-1.373.208-.129.255-.047.14.249-.107.28-.035.44.198.44.202 0 .412.135.467.3.064.191.273.127.576-.176.458-.458.453-.489-.144-.82-.937-.52.113-.476 1.124.047.97.501 1.368 1.46 1.134 2.732-.284 1.546-1.248 1.922-1.12.437.106-1.233-.375-1.718-1.075-1.084-.287.259-.597.816-.69 1.237-.183.838-.433.956-.881.415zm23.778-2.493c-.003-.443.148-.594.592-.591.438.003.5.064.233.233-.2.126-.465.393-.591.592-.17.266-.23.205-.234-.234zm1.018-1.516c-3.14-1.155-4.46-4.908-2.793-7.943.4-.727 1.147-1.611 1.663-1.964.763-.523.907-.759.776-1.279-.103-.41-.061-.576.118-.466.152.094.376-.096.497-.423.214-.578.227-.573.492.187.198.57.46.797.968.84.382.03.677-.031.655-.139-.023-.107.073-.472.212-.811.252-.612.257-.61.731.265.28.515.908 1.082 1.515 1.368 1.17.55 2.879 2.607 2.87 3.453-.004.398-.151.255-.515-.501-.687-1.429-1.237-2.074-1.585-1.86-.161.1-.257.024-.216-.171.04-.193-.106-.35-.324-.35-.219 0-.377.118-.353.264.024.145-.232.264-.57.264-.338 0-.553-.099-.478-.22.075-.121-.238-.027-.695.21-.458.236-.762.544-.675.683.086.14-.037.254-.272.254-.235 0-.362.106-.282.236.08.13-.039.308-.265.395-.227.087-.33.291-.23.453.124.202-.006.236-.414.106-.407-.13-.538-.096-.413.106.1.162-.014.37-.254.462-.348.134-.365.212-.082.391.283.18.275.228-.044.248-.219.013.02.185.529.38 1.663.641 4.772.403 6.987-.536.474-.2.493-.12.32 1.349-.1.859-.305 1.682-.453 1.83-.184.182-.209.105-.077-.24.161-.425.108-.477-.315-.313-1.205.465-3.278.704-4.875.562-1.948-.173-2.692.095-2.133.768.405.488 1.108.543 1.532.119.424-.424 1.593-.063 1.789.553.09.286.026.778-.143 1.094-.29.54-.263.564.448.399.556-.13.651-.105.36.092-.555.375-2.854.31-4.006-.115zm2.418-.137c.32-.208.283-.258-.199-.26-.327-.003-.595.114-.595.26 0 .331.28.331.794 0zm-1.227-.662c-.084-.218-.187-.397-.228-.397-.042 0-.145.179-.228.397-.092.24-.002.397.228.397.229 0 .32-.158.228-.397zm.036-7.011c.09-.146.045-.265-.1-.265-.146 0-.339.12-.429.265-.09.145-.044.264.101.264.146 0 .338-.119.428-.264zm3.438-2.114c.093-.15-.014-.194-.249-.104-.458.176-.542.366-.162.366.137 0 .322-.118.41-.262zm1.453 8.594c1.054-1.269 1.142-1.35.855-.789-.15.293-.552.768-.893 1.057-.598.505-.596.496.038-.268zm-26.851-.362c-.658-.14-.8-.306-.824-.961-.062-1.647.632-1.915 1.994-.769.918.773.958.726 1.17-1.365.12-1.164.48-2.287 1.225-3.817.349-.716 1.205-.615 1.58.186.202.428.399.6.468.408.066-.183.224-.269.351-.19.127.078.168.304.092.502-.196.512 2.633 2.741 3.744 2.95.909.17.91.172.49.884-.411.696-.663.874-2.4 1.697-1.128.535-3.975.692-3.672.202.081-.131.398-.174.704-.094.318.083.649-.005.773-.207.12-.193.733-.373 1.362-.399.63-.025 1.294-.063 1.476-.082.544-.06.374-.516-.265-.713-.327-.101-1.117-.532-1.755-.959-.638-.426-1.315-.716-1.504-.643-.19.073-.403-.01-.473-.184-.091-.223-.135-.214-.15.033-.011.192-.324.746-.695 1.233-.43.563-.572.948-.393 1.059.155.096.214.285.13.42-.084.136-.006.247.172.247.179 0 .246.079.15.175-.096.096-.392-.022-.658-.262-.451-.41-.54-.395-1.376.222-.491.362-.9.645-.908.627-.008-.017-.372-.107-.808-.2zm7.204-.722c-.088-.088-.316-.097-.507-.02-.211.084-.148.146.16.159.279.012.435-.051.347-.139zm2.189-3.961-.662-.381.794.178c.7.158.753.13.45-.239-.199-.241-.24-.481-.096-.57.296-.183.637.943.365 1.208-.105.101-.488.013-.851-.196zm1.802-2.145c.191-.077.42-.067.507.02.088.089-.068.151-.347.14-.308-.013-.371-.076-.16-.16zm3.666-.26c-.097-.097-.177-.455-.177-.794 0-.41-.155-.619-.463-.621-.34-.003-.288-.094.199-.345.608-.314.71-.277 1.265.464.565.752.574.827.148 1.138-.516.378-.72.41-.972.158zm-4.005-.605c-.21-.34.072-.453 1.58-.63 1.173-.137 1.218-.126.396.103-.51.142-1.129.373-1.377.513-.268.152-.51.157-.6.014zm-1.067-.277c-.09-.146-.037-.265.117-.265s.28.12.28.265c0 .145-.052.264-.116.264-.065 0-.19-.119-.28-.264zm-4.69-1.214c-.185-.424-1.17-1.875-2.189-3.225-1.018-1.35-1.856-2.54-1.861-2.646-.005-.105-.158-.46-.34-.787-.182-.327-.253-.595-.157-.595s.036-.167-.133-.37a2.278 2.278 0 0 1-.402-.86c-.053-.27-.346-1.539-.65-2.821-.884-3.713-1.396-8.914-.877-8.914.138 0 1.367.54 2.732 1.199 2.122 1.024 2.614 1.346 1.16.757-.22-.088-.398-.021-.398.148 0 .17-.119.235-.264.145-.538-.332-.236.143.791 1.247 2.182 2.343 2.462 2.59 2.946 2.59.273 0 .496.119.496.264 0 .328-.063.328-.924.001-.382-.145-.642-.175-.578-.066.064.109.37.76.68 1.447.588 1.304 1.33 1.91 2.093 1.709.414-.11.414-.121-.01-.15-.376-.025-.453-.278-.429-1.42.016-.763.12-1.448.23-1.52.111-.073.262-.582.336-1.131.116-.875.046-1.046-.566-1.379-1.89-1.026.265-.16 4.945 1.987a826.434 826.434 0 0 0 8.031 3.638l2.828 1.25.442 1.404c.244.772.365 1.482.269 1.578-.153.153-1.597.6-3.172.983-.732.177-1.098-.232-1.483-1.655-.186-.688-.454-1.4-.595-1.582-.423-.548-1.259-.375-1.924.397-1.473 1.708-2.021 2.293-1.84 1.961.12-.218-.108-.673-.594-1.19a16.744 16.744 0 0 1-1.456-1.85c-.369-.556-.742-1.002-.83-.991-.486.058-.632-.039-.947-.627l-.345-.646-.484.58c-.326.39-.487.457-.493.205-.01-.434-.353-.17-.426.328-.027.185.195.354.494.377.3.022.79.286 1.09.586.61.611.443 1.122-.592 1.809-.528.35-.57.346-.42-.044.091-.238.048-.432-.096-.432-.144 0-.327-.25-.407-.556-.098-.374-.26-.487-.494-.346-.277.166-.284.13-.033-.18.497-.615-.02-1.105-1.197-1.138l-1.07-.03.58 1.052c.319.578.847 1.184 1.172 1.346.326.163.523.366.438.451-.086.085.213.346.663.578.45.233.818.365.818.293 0-.073.433.163.963.522.53.36 1.125.653 1.323.653.494 0 .454.437-.059.634-1.183.454-2.92-.204-3.646-1.382a5.65 5.65 0 0 0-.661-.806c-.238-.24-.727-.993-1.086-1.674l-.652-1.237-.3.711c-.58 1.38-1.71 1.77-2.32.8-.202-.32-.182-.556.07-.86.498-.6 1.363-.526 1.535.133.188.719.59.143.596-.854.005-.83-.893-2.946-1.144-2.695-.096.096-.175-.102-.175-.441 0-.637-1.2-2.912-1.535-2.912-.105 0-.517-.302-.915-.672l-.725-.672v.7c0 .507.107.66.388.552.57-.219.674.14.26.89-.31.558-.366.58-.374.15-.005-.279-.086-.431-.178-.338-.093.093-.04.678.117 1.3.157.623.37 1.49.471 1.927.186.793.186.793.357.132.2-.774 1.15-1.023 1.721-.45.585.584-.205 1.61-1.072 1.392-.717-.18-.772.036-.363 1.44.148.51.331 1.269.407 1.69.076.42.254.98.396 1.245.142.265.227.579.189.696-.039.118.2.506.532.862.33.356.54.806.466 1-.075.195-.032.29.095.211.29-.178.88.498.643.736-.096.095.064.174.355.174.29 0 .617.087.724.195.337.337 1.067.219 1.495-.242.384-.415.432-.41.73.066.175.28.585.502.911.491.567-.018.57-.028.064-.246-.415-.178-.298-.231.543-.246.589-.01 1.244-.167 1.454-.349.21-.182-.004.092-.477.609-.676.738-1.192 1.008-2.416 1.26-1.538.318-2.94 1.132-2.94 1.706 0 .163.168.067.373-.214.366-.5.383-.5.927-.008.639.578.519.939-.132.399-.37-.307-.484-.287-.795.138-.344.47-.38.456-.699-.275zm-.601-3.284a.615.615 0 0 0-.479-.26c-.19.001-.157.106.082.26.508.328.6.328.397 0zm4.272-9.409c.022-.372.23-.887.463-1.145.61-.674.523-1.222-.25-1.575-.874-.398-.913-.392-.915.156 0 .255-.18.804-.397 1.221-.534 1.024-.497 1.491.118 1.491.283 0 .588.12.677.265.234.378.26.343.304-.413zm-.171 12.01c0-.13.178-.305.395-.388.218-.084.33-.259.25-.389-.081-.13-.085-.237-.009-.237.077 0 .26.225.406.5.224.419.162.52-.387.625-.36.068-.655.018-.655-.111zm11.662-.904c.013-.308.076-.37.16-.16.077.192.067.42-.02.508-.089.088-.151-.069-.14-.348zm-15.006-3.682c-.354-.923.872-1.714 1.381-.89.12.195.316.079.556-.33l.37-.632-.174.662c-.36 1.36-1.767 2.145-2.133 1.19zm7.842-.264c.341-.364.68-.662.753-.662.073 0-.147.298-.489.662-.341.364-.68.661-.753.661-.073 0 .147-.297.489-.661zm12.832-3.272c-1.378-.563-2.515-1.342-2.51-1.72.003-.165.12-.121.261.097.223.345.257.34.26-.036.003-.238-.293-.628-.658-.866-.364-.239-.95-.89-1.302-1.448-.377-.598-1.11-1.247-1.785-1.58-.63-.312-.929-.568-.665-.568s.723.13 1.02.288c.463.249.415.055-.349-1.389-.669-1.265-1.046-1.7-1.535-1.769-.514-.072-.59-.017-.366.265.422.532.387 2.87-.043 2.87-.218 0-.296.198-.21.53.077.292.007.69-.154.884-.162.195-.215.432-.12.528.096.096.055.174-.09.174-.493 0-.555-.287-.29-1.335.147-.575.419-1.046.606-1.046.21 0 .287-.203.201-.53-.076-.29-.338-.528-.583-.528-.245 0-.589-.143-.763-.318-.247-.247-.318-.185-.318.279 0 .327-.26 1.047-.578 1.6l-.578 1.004-2.266-1.033c-7.736-3.53-10.542-4.855-10.524-4.972.01-.073-.12-.608-.292-1.19-.17-.583-.312-1.19-.312-1.35-.002-.336 3.164-1.256 3.858-1.121.306.059.605.583.881 1.544.498 1.732.72 2.117 1.226 2.117.208 0 1.657-1.28 3.22-2.844 1.563-1.564 2.553-2.487 2.2-2.05a17.792 17.792 0 0 1-1.558 1.62l-.914.829.725.76a14.203 14.203 0 0 1 1.353 1.73c.346.534.872 1.049 1.168 1.143.297.094.54.252.54.351 0 .1.405.18.9.18s.846-.088.778-.197c-.067-.11.01-.199.173-.199.163 0 .216-.13.118-.288-.117-.19-.266-.198-.44-.025-.338.338-1.53-.667-1.53-1.292 0-.528 1.096-1.317 1.777-1.279.327.018.268.092-.19.238-.363.117-.509.224-.323.238.185.015.453.332.594.704.157.412.378.604.564.488.191-.118.234-.073.114.121-.105.17-.31.236-.457.146-.146-.09-.12.07.06.356.231.371.617.52 1.342.52.56 0 1.017-.072 1.016-.161-.003-.464-1.138-1.932-1.654-2.14-.327-.13-.49-.246-.363-.255.415-.03-.416-.81-.863-.81-.24 0-.874-.298-1.41-.662-.534-.364-1.157-.661-1.383-.661-.407 0-.596-.5-.213-.562 1.955-.323 3.136.12 4.062 1.525l.499.756.001-.727c.002-.856.835-1.786 1.598-1.786.721 0 .962.73.42 1.272-.363.363-.527.381-.968.106-.44-.276-.557-.263-.686.072-.215.561.048 1.461.822 2.817.464.81.663.996.665.62.006-.931.77-1.751 1.55-1.661.805.093 1.095.99.484 1.498-.522.433-1.236.097-1.241-.585-.003-.463-.051-.495-.26-.17-.142.218-.259.839-.261 1.38-.005 1.197.788 3.015 1.1 2.524.133-.21.212-.054.215.425.002.417.25 1.19.55 1.72.623 1.093 1.832 2.127 1.839 1.57.003-.249.082-.234.285.053.25.353.268.353.166 0-.063-.218-.31-.38-.55-.36-.239.02-.434-.017-.434-.083 0-.331.581-1.144.818-1.144.15 0 .186.137.083.305-.12.194-.073.234.13.11.224-.14.236-.296.04-.531-.152-.184-.353-.89-.446-1.57-.159-1.16-.193-1.203-.545-.702-.46.657-1.1.689-1.548.077-.5-.683-.036-1.344.886-1.265l.756.064-.214-1.35c-.117-.744-.336-1.393-.485-1.442-.15-.05-.203-.202-.12-.338.253-.408-.435-2.126-1.403-3.502-.5-.71-.76-1.201-.58-1.09.212.131.261.095.14-.102-.104-.168-.4-.306-.659-.306-.258 0-.551-.081-.65-.181-.246-.246-1.236-.307-1.089-.068.28.452-.908.408-1.299-.048-.233-.273-.694-.492-1.022-.487-.593.01-.592.013.063.384l.662.375-.951-.028c-.523-.016-1.118.068-1.323.187-.205.119-.076-.13.286-.554.943-1.102 1.371-1.435 1.636-1.272.361.224 2.784-.666 3.175-1.166.304-.388.298-.407-.049-.138-.324.252-.537.165-1.12-.463-.724-.779-.58-1.118.16-.377.52.52.87.501 1.235-.066.284-.441.29-.441.154 0-.094.302-.003.463.26.463.222 0 .335.112.25.249-.084.136.186.642.601 1.124 1.519 1.762 2.953 3.898 3.72 5.542 1.009 2.165 2.479 9.484 2.365 11.78l-.08 1.616zm-1.54-1.673c-.084-.21-.146-.148-.159.16-.011.28.051.435.139.347.088-.087.097-.316.02-.507zm-20.024-6.962c-.363-.207-.542-.378-.396-.378.145 0 .562.17.926.378.363.208.542.379.396.379-.145 0-.562-.17-.926-.379zm.53-9.954c0-.689-.064-.773-.382-.51-.21.174-.326.516-.26.76s-.06.057-.281-.416c-.221-.473-.58-.86-.798-.86h-.594c-.11 0-.199.113-.199.252 0 .138-.133.385-.297.548-.219.219-.442.11-.856-.415-.308-.391-.495-.815-.417-.942.078-.127-.062-.152-.312-.056-.334.128-.396.08-.235-.18.157-.254.103-.31-.19-.198-.226.087-.67-.025-.989-.247-.767-.538-2.128-2.436-2.128-2.969 0-.232.243.066.539.664.752 1.52 1.715 2.391 2.198 1.99a.915.915 0 0 1 .824-.134c.359.138.38.22.1.397-.195.123-.235.224-.089.224.354 0 1.132-.51.794-.521-.146-.005.13-.357.613-.783.562-.495 1.039-.714 1.323-.608.38.143.394.105.1-.258-.29-.356-.275-.465.09-.669.239-.134.415-.349.391-.478-.024-.128.114-.275.307-.327.232-.061.217.002-.046.188-.218.155-.278.28-.132.28.145 0 .383-.087.529-.194 1.766-1.298-3.453-2.035-6.416-.906l-1.39.529.002-.835c.002-1.22.465-2.688 1.07-3.393.465-.542.458-.491-.059.42l-.587 1.035.912-.234c.501-.13 2.072-.238 3.491-.242 1.419-.004 2.58-.088 2.58-.187 0-.098.208-.233.463-.3.391-.102.38-.126-.066-.155-.441-.03-.463-.078-.133-.292.31-.2.242-.257-.315-.26-.391-.002-.785.115-.875.26-.267.432-1.075.303-1.578-.253-.349-.386-.416-.709-.262-1.257.114-.406.187-.828.163-.937-.063-.292 1.521-.239 2.71.091.567.158 1.56.786 2.206 1.396 1.45 1.37 1.998 3.08 1.628 5.085-.274 1.489-1.525 3.433-2.174 3.38-.241-.02-.373.07-.292.2.08.13-.03.304-.246.387-.3.115-.358.453-.251 1.453.077.717.067 1.303-.022 1.303-.09 0-.162-.371-.162-.826zm-4.624-2.562c-.081-.082-.295 0-.474.18-.26.262-.229.292.148.149.261-.1.408-.248.326-.33zm2.75-.746c.343-.309-.211-.262-.773.066l-.66.386.66-.176c.365-.097.712-.22.772-.276zm1.115-7.598c-.163-.195-.232-.418-.155-.495.078-.078-.116-.208-.43-.29-.566-.148-.566-.146.037.496.637.678 1.052.897.548.29zm-1.483-1.181c-.082-.082-.295 0-.475.18-.26.262-.229.292.148.149.261-.1.408-.248.327-.33zM49.432 92.61c-.095-.247.048-.458.385-.564.745-.237.855-.026.265.508-.43.39-.519.397-.65.056zm-5.602-1.577c-.99-1.146-1.037-1.258-.644-1.507.776-.49 1.305-.285 1.305.51 0 .671.082.746.728.662l.728-.095-.707.235c-.389.13-.806.295-.926.368-.12.073-.338-.005-.484-.173zm4.039-.533c-.46-.35-.37-.693.182-.693.163 0 .296.238.296.53 0 .29-.004.525-.01.52a93.913 93.913 0 0 0-.468-.357zm-1.592-.074c.182-.074.48-.074.662 0 .182.073.033.133-.33.133-.365 0-.514-.06-.332-.133zm2.712-.09c-.238-.154-.27-.258-.081-.26a.615.615 0 0 1 .478.26c.203.329.112.329-.397 0zm5.246-1.128c-.347-.347-.776-.582-.954-.523-.197.066-.323-.151-.323-.558 0-.45-.278-.86-.86-1.27-.473-.332-.993-.733-1.155-.89-.163-.157-.774-.443-1.359-.636-1.053-.347-1.059-.357-.661-1.046.97-1.683 4.857-2.66 6.71-1.688.934.49.97.49 1.567.006.404-.327.934-.468 1.558-.416.86.072.955.16 1.031.957.123 1.279-.301 1.685-1.26 1.207-.416-.208-.824-.553-.907-.768-.261-.682-.695-.42-.695.418 0 1.067-.525 3.166-.947 3.786-.185.271-.281.636-.214.81.066.175-.109.525-.39.78-.488.442-.537.434-1.14-.169zm.474-3.517c-.098-.255.117-.65.567-1.041.65-.565.688-.69.375-1.204-.291-.476-.291-.54 0-.375.245.14.27.112.082-.094-.374-.41-2.193-.603-2.313-.245-.053.159-.565.315-1.139.348-.573.032-1.25.143-1.504.246-.53.214-.368.66.24.66.226 0 .844.334 1.374.741.798.613 1.967 1.28 2.381 1.358.052.01.024-.167-.063-.394zm-2.923 3.617c-.08-.129.062-.397.315-.595.407-.319.422-.312.132.06-.18.232-.25.5-.155.596.096.095.102.174.014.174-.089 0-.226-.106-.306-.235zm-2.967-1.757c-.458-.97.159-1.26 1.112-.52.477.37.46.379-.253.123-.625-.223-.714-.21-.479.074.16.191.205.484.103.65-.12.194-.293.077-.483-.327zm-16.249-6.03c.423-.544 1.668-1.244 2.185-1.228.189.005-.07.19-.574.408-.505.22-1.158.601-1.451.85-.508.43-.515.428-.16-.03zm27.626-1.362c-.667-.467-.899-1.492-.66-2.92.14-.827.299-1.064.732-1.086.503-.026.535.06.338.926-.16.71-.117 1.054.17 1.342.337.34.435.336.799-.028.228-.228.564-.848.746-1.377.307-.894.368-.936.842-.581.502.376.501.4-.08 1.433-.346.612-.477 1.088-.317 1.142.39.13.493 1.102.143 1.334-.502.333-2.133.222-2.713-.185zm2.552-.028c0-.083-.17-.321-.378-.53-.328-.327-.434-.322-.794.039-.573.573-.532.642.378.642.437 0 .794-.068.794-.151zm-29.7-.56c-.378-.1-.463-.422-.463-1.769 0-.928-.138-1.786-.317-1.965-.247-.247-.067-.317.81-.317.622 0 1.36.123 1.641.274.552.295.72 1.578.206 1.578-.182 0-.13.194.133.484.61.675.545 1.344-.158 1.61-.676.256-1.021.103-.498-.22.577-.357.253-1.465-.458-1.566-.583-.082-.618-.015-.522.992.057.595.1 1.067.096 1.05-.004-.017-.215-.085-.47-.151zm1.337-2.914c.096-.646-.69-1.052-.912-.471-.21.548.104 1.252.501 1.12.182-.059.367-.351.411-.649zm8.645 2.894c-.149-.107-.485-.532-.748-.944-.445-.699-.447-.772-.035-1.074.645-.471.417-1.594-.346-1.702-.588-.084-.603-.032-.529 1.786.07 1.72.034 1.872-.452 1.872s-.522-.146-.44-1.755c.066-1.26-.01-1.82-.264-1.981-.22-.14.221-.227 1.152-.23 1.254-.003 1.574.094 1.914.579.36.516.363.65.015 1.18-.314.48-.33.732-.08 1.28.196.432.452.628.698.534.318-.123.328-.078.052.254-.372.45-.54.485-.937.2zm-14.24-.546c-.593-.656-.578-2.484.025-3.024.884-.79 2.287-.588 2.592.373.278.876.199 2.324-.15 2.745-.533.641-.665.453-.565-.807.132-1.658-.12-2.508-.746-2.508-.617 0-.952 1.358-.686 2.778.199 1.059.139 1.115-.47.443zm7.722-1.114c.056-.99-.032-1.745-.231-1.985-.276-.332-.092-.386 1.299-.386 1.587 0 1.62.014 1.62.72v.72l-.412-.588c-.578-.825-1.44-.78-1.44.074 0 .722.247.837.74.344.247-.247.316-.086.31.727-.007.839-.061.954-.278.582-.432-.741-.772-.537-.772.463 0 .706-.11.927-.463.927-.4 0-.451-.218-.373-1.598zm2.124 1.36c.199-.126.465-.392.591-.591.169-.267.23-.205.233.233.003.443-.148.594-.59.591-.44-.003-.5-.064-.234-.233z" transform="translate(-25.177 -73.138)"/><path style="fill:#a89b19;stroke-width:.26458332" d="M51.161 135.83c.249-.145.397-.41.33-.588s-.151-1.008-.188-1.845c-.066-1.515-.063-1.521.694-1.521.646 0 .712.06.432.396-.213.257-.288.95-.215 1.967.102 1.412.059 1.585-.43 1.717-.837.224-1.124.166-.623-.126zm10.737 0c-.926-.54-.931-3.16-.007-3.657.42-.225.452-.087.372 1.58-.073 1.52-.013 1.856.357 1.998.687.263.943-.402.863-2.239l-.074-1.67.623.725c1.41 1.641-.336 4.31-2.134 3.262zm-12.327-.303c-.426-.426-.4-1.135.054-1.513.318-.264.315-.42-.02-1.094-.22-.438-.518-.707-.677-.61-.17.105-.208.053-.096-.129.379-.612 1.208-.32 1.576.555.313.744.307.922-.041 1.324-.323.371-.343.596-.102 1.124.235.517.227.66-.038.66-.186 0-.48-.142-.656-.317zm3.924-.41c.008-.678.029-.691.308-.198.165.29.43.616.588.723.163.11.03.196-.308.199-.476.003-.594-.142-.588-.724zm1.937.049c-.049-.853-.25-1.062-.682-.705-.259.214-.343.1-.365-.493-.023-.627.04-.714.337-.468.479.397.646.198.675-.803.02-.697.124-.821.697-.821.524 0 .604.07.357.317-.383.383-.416 2.035-.06 2.973.23.603.192.679-.33.679-.446 0-.599-.166-.629-.68zm2.342.361c-.415-.415-.408-1.194.013-1.341.236-.083.183-.282-.188-.7-.628-.707-.303-1.445.678-1.537.349-.033.485.007.304.088-.452.201-.42 1.6.04 1.777.526.202.687-.046.687-1.056 0-.663.115-.882.463-.883.404 0 .452.225.373 1.756-.065 1.26.01 1.82.264 1.98.223.142-.144.227-.98.23-.736.002-1.48-.14-1.654-.314zm1.534-.608c0-.673-.602-.92-.934-.385-.255.413.066 1.046.529 1.046.256 0 .405-.244.405-.661zm-29.595.045c-.218-.261-.167-.596.196-1.308.396-.777.42-.983.127-1.096-.442-.17-.477-1.11-.052-1.373.208-.129.255-.047.14.249-.107.28-.035.44.198.44.202 0 .412.135.467.3.064.191.273.127.576-.176.458-.458.453-.489-.144-.82-.937-.52.113-.476 1.124.047.97.502 1.368 1.46 1.134 2.732-.284 1.546-1.248 1.922-1.12.437.106-1.233-.375-1.718-1.075-1.084-.287.259-.597.816-.69 1.237-.183.838-.433.956-.881.415zm23.774-2.515c0-.352.166-.573.43-.573.367 0 .378.067.074.463-.194.255-.388.513-.429.573-.041.06-.075-.147-.075-.463zm1.178-1.453c-2.314-.89-3.63-2.762-3.658-5.205-.021-1.796.976-3.787 2.376-4.746.72-.492.914-.786.825-1.248-.063-.333-.021-.547.093-.476.114.07.283.008.374-.14.255-.413.59-.321.725.199.116.442 1.575.824 1.485.388-.023-.107.073-.472.212-.811.252-.612.257-.61.731.265.28.515.908 1.083 1.515 1.368 1.17.55 2.879 2.607 2.87 3.453-.004.398-.151.255-.515-.501-.687-1.429-1.237-2.074-1.585-1.86-.161.1-.257.024-.216-.171.04-.193-.106-.35-.324-.35-.219 0-.377.118-.353.264.024.145-.232.265-.57.265-.338 0-.553-.1-.478-.22.075-.122-.238-.028-.695.209-.458.236-.762.544-.675.683.086.14-.037.254-.272.254-.235 0-.362.106-.282.236.08.13-.039.308-.265.395-.227.087-.33.291-.23.453.124.202-.006.236-.414.106-.407-.13-.538-.096-.413.106.1.162-.014.37-.254.462-.348.134-.365.212-.082.391.283.18.275.228-.044.248-.219.013.02.185.529.38 1.663.641 4.772.403 6.987-.536.474-.2.493-.12.32 1.349-.1.859-.305 1.682-.453 1.83-.184.182-.209.105-.077-.24.161-.424.108-.477-.315-.313-1.205.465-3.278.704-4.875.562-1.948-.173-2.692.095-2.133.768.405.488 1.108.543 1.532.119.424-.424 1.593-.063 1.789.553.09.286.026.778-.143 1.094-.29.54-.263.564.448.399.556-.13.651-.105.36.092-.53.358-2.843.314-3.85-.074zm2.262-.178c.32-.208.283-.258-.199-.26-.327-.003-.595.114-.595.26 0 .331.28.331.794 0zm-1.227-.662c-.084-.218-.187-.397-.228-.397-.042 0-.145.179-.228.397-.092.24-.002.397.228.397.229 0 .32-.157.228-.397zm.036-7.011c.09-.146.045-.265-.1-.265-.146 0-.339.12-.429.265-.09.145-.044.264.101.264.146 0 .338-.119.428-.264zm3.438-2.114c.093-.15-.014-.194-.249-.104-.458.176-.542.366-.162.366.137 0 .322-.118.41-.262zm1.453 8.594c1.054-1.269 1.142-1.35.855-.789-.15.293-.552.768-.893 1.057-.598.506-.596.496.038-.268zm-26.851-.362c-.658-.14-.8-.306-.824-.961-.062-1.647.632-1.915 1.994-.769.918.773.958.726 1.17-1.365.12-1.164.48-2.287 1.225-3.817.349-.716 1.205-.615 1.58.186.202.428.399.6.468.408.066-.183.224-.269.351-.19.127.078.168.304.092.502-.196.512 2.633 2.741 3.744 2.95.909.17.91.172.49.884-.411.696-.663.874-2.4 1.697-1.128.536-3.975.692-3.672.202.081-.131.398-.174.704-.094.318.083.649-.005.773-.207.12-.193.733-.373 1.362-.399.63-.025 1.294-.063 1.476-.082.544-.06.374-.516-.265-.713-.327-.101-1.117-.532-1.755-.959-.638-.426-1.315-.716-1.504-.643-.19.073-.403-.01-.473-.183-.091-.224-.135-.215-.15.032-.011.192-.324.746-.695 1.233-.43.563-.572.948-.393 1.059.155.096.214.285.13.42-.084.136-.006.247.172.247.179 0 .246.079.15.175-.096.096-.392-.022-.658-.262-.451-.41-.54-.395-1.376.222-.491.362-.9.645-.908.627-.008-.017-.372-.107-.808-.2zm7.204-.722c-.088-.088-.316-.097-.507-.02-.211.084-.148.146.16.16.279.01.435-.052.347-.14zm2.189-3.961-.662-.381.794.178c.7.158.753.13.45-.239-.199-.241-.24-.481-.096-.57.296-.183.637.943.365 1.208-.105.101-.488.013-.851-.196zm1.802-2.145c.191-.077.42-.067.507.02.088.089-.068.151-.347.14-.308-.013-.371-.076-.16-.16zm3.637-.29c-.081-.08-.148-.425-.148-.764 0-.41-.155-.619-.463-.621-.34-.003-.288-.094.199-.345.607-.313.71-.277 1.248.44.322.43.532.868.467.974-.164.266-1.122.498-1.303.317zm-3.976-.575c-.21-.34.072-.453 1.58-.63 1.173-.137 1.218-.126.396.103-.51.142-1.129.373-1.377.513-.268.152-.51.157-.6.014zm-5.758-1.49c-.184-.425-1.17-1.876-2.188-3.226-1.018-1.35-1.856-2.54-1.861-2.646-.005-.105-.158-.46-.34-.787-.182-.327-.253-.595-.157-.595s.036-.166-.133-.37a2.278 2.278 0 0 1-.402-.86c-.053-.27-.346-1.539-.65-2.821-.884-3.713-1.396-8.914-.877-8.914.138 0 1.367.54 2.732 1.199 2.122 1.024 2.614 1.346 1.16.757-.22-.088-.398-.021-.398.148 0 .17-.119.235-.264.145-.538-.332-.236.143.791 1.247 2.182 2.343 2.462 2.59 2.946 2.59.273 0 .496.119.496.264 0 .327-.065.328-.898.01-.65-.246-.66-.233-.356.464.72 1.654 1.205 2.318 1.864 2.552.581.205.79.142 1.235-.372.604-.697.683-1.066.228-1.066-.17 0-.233-.077-.14-.17.094-.094.323-.044.508.11.257.212.346.123.376-.375.022-.36.23-.865.463-1.123.61-.674.523-1.222-.25-1.575-.874-.398-.913-.392-.915.156 0 .255-.187.819-.413 1.253-.227.434-.435 1.297-.462 1.916-.027.62-.137 1.128-.243 1.129-.256.002-.194-2.738.066-2.909.11-.072.261-.581.335-1.13.116-.875.046-1.046-.566-1.379-.385-.209-.608-.385-.495-.39.334-.018 9.734 4.294 9.617 4.41-.06.06-.551-.078-1.094-.304-.543-.227-1.035-.413-1.093-.413-.057 0 .138.476.435 1.058.297.583.645 1.059.773 1.059.129 0 .359.359.512.797.152.439.465.87.694.957.353.136.305.31-.31 1.121-.834 1.103-1.844 2.191-1.546 1.666.127-.223-.089-.662-.586-1.19a16.746 16.746 0 0 1-1.456-1.85c-.369-.556-.742-1.002-.83-.991-.486.058-.632-.039-.947-.627l-.345-.646-.484.58c-.326.39-.487.457-.493.205-.01-.434-.353-.17-.426.328-.027.185.195.354.494.377.3.022.79.286 1.09.586.61.611.443 1.122-.592 1.809-.528.35-.57.346-.42-.044.091-.238.048-.432-.096-.432-.144 0-.327-.25-.407-.556-.098-.374-.26-.487-.494-.346-.277.166-.284.13-.033-.181.497-.614-.02-1.104-1.197-1.137l-1.07-.03.58 1.052c.319.578.877 1.201 1.24 1.385.363.184.541.336.396.338-.145.002.26.483.902 1.07.641.586.939.993.661.904-.489-.156-.489-.148.009.257.612.5 1.907.554 2.074.088.065-.182.22-.235.345-.118.333.312-.428.704-1.376.709-.797.004-2.111-.78-2.579-1.538a5.65 5.65 0 0 0-.661-.806c-.238-.24-.727-.993-1.086-1.674l-.652-1.237-.3.711c-.58 1.38-1.71 1.77-2.32.8-.202-.32-.182-.556.07-.86.373-.45 1.22-.563 1.45-.193.077.125-.14.173-.483.108-.703-.135-1.029.209-.79.833.421 1.096 1.958-.052 1.958-1.462 0-.84-.897-2.953-1.148-2.702-.096.096-.175-.103-.175-.441 0-.638-1.2-2.912-1.535-2.912-.105 0-.517-.302-.915-.672l-.725-.672v.7c0 .507.107.66.388.552.57-.219.674.14.26.89-.31.558-.366.58-.374.15-.005-.279-.082-.435-.17-.346-.165.164.314 2.55.702 3.499.208.509.217.507.234-.05.01-.32.126-.647.258-.728.132-.082.175.102.094.408-.13.496.255 1.015.762 1.027.348.008.49-.869.2-1.22-.392-.471-.045-.473.426-.002.567.567-.243 1.587-1.09 1.375-.717-.18-.772.035-.363 1.44.148.509.331 1.269.407 1.689.076.42.254.98.396 1.246.142.265.227.578.189.696-.039.118.2.506.532.862.33.355.54.806.466 1-.075.195-.032.29.095.211.29-.179.88.498.643.735-.096.096.064.174.355.174.29 0 .617.088.724.195.337.338 1.067.22 1.495-.242.384-.414.432-.41.73.067.175.28.585.501.911.491.567-.018.57-.029.064-.246-.415-.178-.298-.231.543-.246.589-.01 1.244-.167 1.454-.35.21-.181-.004.093-.477.61-.676.738-1.192 1.007-2.416 1.26-1.538.318-2.94 1.132-2.94 1.706 0 .163.168.067.373-.214.366-.501.383-.501.927-.008.639.578.519.939-.132.399-.37-.307-.484-.287-.795.137-.344.471-.38.457-.699-.274zm-.6-3.285a.615.615 0 0 0-.479-.26c-.19.001-.157.106.082.26.508.328.6.328.397 0zm4.895-2.763c0-.064-.12-.19-.265-.28-.146-.09-.265-.037-.265.117s.12.28.265.28c.145 0 .265-.053.265-.117zm.941-2.819c.28-.452-.602-1.213-.975-.84-.166.165-.23.487-.142.715.183.478.853.552 1.117.125zm-1.409 7.862c.253-.191.382-.426.287-.52-.095-.095-.097-.173-.005-.173s.294.238.45.53c.252.47.202.528-.454.52-.666-.008-.692-.042-.278-.357zm11.336-.583c.013-.308.076-.37.16-.16.077.192.067.42-.02.508-.089.088-.151-.069-.14-.348zm-14.925-3.461c-.258-.258-.216-1.091.063-1.264.132-.081.178.089.102.378-.16.614.59 1.03 1.04.58.209-.209.19-.421-.07-.763-.309-.406-.307-.427.013-.141.307.273.437.226.726-.265l.353-.598-.175.662c-.324 1.225-1.458 2.005-2.052 1.41zm7.76-.485c.342-.364.682-.662.754-.662.073 0-.147.298-.489.662-.341.364-.68.661-.753.661-.073 0 .147-.297.489-.661zm6.145-.2c-.148-.18-.418-.865-.6-1.52-.336-1.209-1.172-2.234-1.603-1.967-.13.08-.237.02-.237-.134 0-.368.416-.356 1.033.03.4.25.744.204 1.743-.228 1.148-.497 1.193-.55.566-.67-.374-.071-.617-.028-.54.097.077.124.013.226-.14.226-.155 0-.28-.185-.28-.412 0-.245-.125-.336-.306-.224-.182.113-.234.073-.129-.098.098-.158-.07-.364-.376-.461-.304-.097-.499-.23-.433-.296.066-.066 1.139.332 2.383.884l2.263 1.004.444 1.404c.245.772.367 1.482.27 1.578-.158.16-1.82.669-3.225.99-.31.07-.685-.02-.833-.202zm-8.854-.528c-.343-.327-.44-.463-.214-.301.226.161.648.425.94.587.29.161.386.297.213.301-.174.004-.597-.26-.94-.587zm14.901-2.887c-.934-.486-1.747-1.062-1.806-1.28-.095-.353-.076-.353.174 0 .245.347.281.342.285-.036.002-.238-.294-.628-.659-.866-.364-.239-.95-.89-1.302-1.448-.377-.598-1.11-1.247-1.785-1.58-.63-.312-.929-.568-.665-.568s.716.126 1.004.28c.457.245.422.079-.276-1.303-.44-.872-.924-1.661-1.076-1.755-.447-.276-1.793.127-1.97.59-.242.628.287 1.052.863.692.416-.26.473-.177.509.734.028.707-.07 1.027-.317 1.027-.228 0-.308.192-.22.53.077.292.007.69-.154.884-.162.195-.215.432-.12.528.096.096.055.174-.09.174-.493 0-.555-.287-.29-1.335.147-.575.419-1.046.606-1.046.21 0 .287-.203.201-.53-.076-.29-.338-.528-.583-.528-.245 0-.589-.143-.763-.318-.247-.247-.32-.173-.326.331-.004.357-.272 1.073-.595 1.593l-.587.944-2.646-1.284c-2.2-1.068-2.755-1.428-1.258-.816.444.181-.183-1.325-.883-2.123a7.133 7.133 0 0 1-.785-1.105c-.207-.39-.506-.511-1.137-.46-.471.037-1.075-.049-1.342-.192-.356-.19-.757-.117-1.509.276-.792.414-.866.502-.326.392.467-.096.816.003 1.058.302.307.379.305.411-.015.218-.281-.17-.333-.116-.206.214.092.242.122.44.066.44-.212 0-3.87-1.81-3.83-1.895.023-.05-.09-.565-.252-1.147-.162-.583-.295-1.19-.295-1.35-.002-.336 3.164-1.256 3.858-1.121.306.059.605.583.881 1.545.498 1.731.72 2.116 1.226 2.116.208 0 1.657-1.28 3.22-2.844 1.563-1.564 2.553-2.487 2.2-2.05a17.792 17.792 0 0 1-1.558 1.62l-.914.829.725.76a14.203 14.203 0 0 1 1.353 1.73c.346.534.872 1.049 1.168 1.143.297.094.54.252.54.351 0 .1.405.181.9.181s.846-.09.778-.198c-.067-.11.01-.199.173-.199.163 0 .216-.13.118-.288-.117-.19-.266-.198-.44-.025-.338.338-1.53-.667-1.53-1.292 0-.564 1.203-1.378 1.802-1.22.36.095.344.125-.082.157-.291.021-.734.321-.985.666-.399.549-.407.667-.066.95.262.217.498.237.72.062.403-.317 1.289-.334 1.095-.02-.077.124-.259.151-.405.06-.146-.09-.12.07.06.357.231.371.617.52 1.342.52.56 0 1.017-.072 1.016-.161-.003-.464-1.138-1.932-1.654-2.14-.327-.13-.49-.246-.363-.255.415-.03-.416-.81-.863-.81-.24 0-.874-.298-1.41-.662-.534-.364-1.157-.661-1.383-.661-.226 0-.411-.108-.411-.24 0-.391 1.132.01 1.958.695.573.475.82.552.972.306.162-.263.29-.26.621.016.23.19.421.242.426.115.004-.127.183 0 .397.283.375.495.388.49.388-.148 0-.364.164-.885.364-1.159.35-.48.37-.477.547.082.1.318.357.579.57.579.54 0 .792-.797.344-1.081-.276-.175-.284-.235-.03-.238.552-.007.693.796.221 1.268-.363.363-.527.381-.968.106-.44-.275-.557-.263-.685.072-.216.561.047 1.461.822 2.817.463.81.662.996.664.62.004-.643.707-1.712 1.126-1.712.165 0 .04.243-.28.54-.405.377-.578.85-.578 1.578 0 1.244.786 3.08 1.104 2.58.133-.21.212-.054.215.425.002.417.25 1.19.55 1.72.623 1.094 1.832 2.127 1.84 1.57.002-.248.08-.234.284.054.25.352.268.352.166 0-.063-.219-.31-.38-.55-.36-.239.02-.434-.018-.434-.084 0-.331.581-1.144.819-1.144.149 0 .185.138.082.306-.12.193-.073.233.13.108.224-.139.236-.295.04-.53-.152-.184-.353-.89-.446-1.57-.159-1.16-.193-1.203-.545-.701-.47.672-1.18.688-1.588.035-.245-.392-.235-.606.043-.987.328-.448.346-.432.226.198-.092.481 0 .736.313.856.664.254.99-.073.804-.809-.09-.36-.059-.59.07-.51.135.084.142-.439.017-1.232-.12-.758-.34-1.419-.49-1.468-.15-.05-.203-.202-.12-.338.253-.408-.435-2.126-1.403-3.502-.5-.71-.76-1.201-.58-1.09.212.131.261.095.14-.102-.104-.168-.4-.306-.659-.306-.258 0-.55-.081-.65-.181-.246-.246-1.236-.307-1.089-.068.28.452-.908.408-1.299-.048-.233-.273-.694-.492-1.022-.487-.593.01-.592.013.063.384l.662.375-.951-.028c-.523-.016-1.11.069-1.304.189-.194.12-.004-.219.422-.753.426-.533.868-.97.982-.97.114 0 .087-.226-.061-.503-.206-.385-.173-.54.144-.661.75-.288 1.041-.15.517.247-.376.285-.436.468-.222.682.353.354 2.761-.366 3.268-.976.264-.318.245-.36-.1-.227-.26.1-.687-.101-1.108-.523-.377-.377-.57-.685-.428-.685.142 0 .437.179.655.397.52.52.87.501 1.235-.066.284-.441.291-.441.154 0-.094.302-.003.463.26.463.222 0 .335.112.25.249-.084.136.186.642.602 1.124 1.518 1.762 2.952 3.898 3.718 5.542 1.022 2.19 2.479 9.48 2.366 11.834l-.08 1.67zm-.898-1.33c-.085-.21-.147-.148-.16.16-.011.28.051.435.139.347.088-.087.097-.316.02-.507zm-8.719-.193c-.115-.44-.08-.544.116-.347.154.153.228.435.164.626-.066.198-.186.078-.28-.28zm-11.306-6.768c-.363-.208-.542-.379-.396-.379.145 0 .562.17.926.379.363.207.542.378.396.378-.145 0-.562-.17-.926-.378zm4.826-.863c-.31-.66-.302-.68.096-.282.238.237.388.558.335.713-.054.155-.248-.039-.431-.431zm11.645-.503c-.182-.074-.322-.332-.31-.575.013-.275.071-.316.154-.11.074.182.376.33.672.33.43 0 .512-.131.413-.653-.069-.36-.023-.59.101-.513.33.204.277 1.01-.091 1.378-.338.339-.422.351-.94.143zm-4.68-1.335c-.143-.377-.113-.408.149-.148.18.18.262.393.18.474-.081.082-.23-.065-.329-.326zm.096-2.63-.642-.699.728.466c.4.256.727.57.727.7 0 .359-.12.29-.813-.466zm-.906.171c-.09-.145-.045-.264.1-.264.146 0 .339.119.429.264.09.146.044.265-.101.265-.146 0-.338-.12-.428-.265zM38.67 92.685c0-.689-.064-.773-.382-.51-.21.174-.325.516-.258.76s-.088.027-.346-.482c-.457-.9-1.528-1.327-1.528-.608 0 .174-.133.45-.297.614-.219.219-.442.11-.856-.415-.308-.391-.495-.815-.417-.942.078-.127-.062-.152-.312-.056-.334.128-.396.08-.235-.18.157-.254.103-.31-.19-.198-.226.087-.67-.025-.989-.247-.767-.538-2.128-2.436-2.128-2.969 0-.232.243.066.539.664.752 1.52 1.715 2.391 2.198 1.99a.915.915 0 0 1 .824-.134c.359.138.38.22.1.397-.195.123-.235.224-.089.224.354 0 1.132-.51.794-.521-.146-.005.13-.357.613-.783.562-.495 1.039-.714 1.323-.608.38.143.394.105.1-.258-.29-.356-.275-.465.09-.669.239-.134.415-.349.391-.478-.024-.128.114-.276.307-.327.232-.061.217.002-.046.188-.218.155-.278.28-.132.28.145 0 .383-.087.529-.194 1.766-1.298-3.453-2.035-6.416-.906l-1.39.529.002-.835c.002-1.22.465-2.688 1.07-3.393.465-.542.458-.491-.059.42l-.587 1.035.912-.234c.501-.13 2.072-.238 3.491-.242 1.419-.004 2.58-.088 2.58-.187 0-.098.208-.233.463-.3.391-.102.38-.126-.066-.155-.441-.03-.463-.078-.133-.292.31-.2.242-.257-.315-.26-.391-.002-.785.115-.875.26-.267.432-1.075.302-1.578-.253-.349-.386-.416-.709-.262-1.257.114-.406.187-.828.163-.937-.063-.292 1.521-.239 2.71.091.567.158 1.56.786 2.206 1.396 1.45 1.37 1.998 3.08 1.628 5.085-.274 1.489-1.525 3.433-2.174 3.38-.241-.02-.373.07-.292.2.08.13-.03.304-.246.387-.3.115-.358.453-.251 1.453.077.717.067 1.303-.022 1.303-.09 0-.162-.371-.162-.826zm-4.624-2.562c-.081-.082-.295 0-.474.18-.26.262-.229.292.148.149.261-.1.408-.248.326-.33zm2.75-.746c.343-.309-.211-.262-.773.066l-.66.386.66-.176c.365-.097.712-.22.772-.276zm1.115-7.598c-.163-.195-.232-.418-.155-.495.078-.078-.116-.208-.43-.29-.566-.148-.566-.146.037.496.637.678 1.052.897.548.29zm-1.483-1.181c-.082-.082-.295 0-.475.18-.26.262-.229.292.148.149.261-.1.408-.248.327-.33zm7.401 10.435c-.99-1.146-1.037-1.258-.644-1.507.776-.49 1.305-.285 1.305.51 0 .671.082.746.728.662l.728-.095-.707.235c-.389.13-.806.295-.926.368-.12.073-.338-.005-.484-.173zm4.039-.533c-.46-.35-.37-.693.182-.693.163 0 .296.238.296.53 0 .29-.004.525-.01.52a93.913 93.913 0 0 0-.468-.357zm-1.592-.074c.182-.074.48-.074.662 0 .182.073.033.133-.33.133-.365 0-.514-.06-.332-.133zm2.712-.09c-.238-.154-.27-.258-.081-.26a.615.615 0 0 1 .478.26c.203.329.112.329-.397 0zm5.246-1.128c-.347-.347-.776-.582-.954-.523-.195.065-.323-.145-.323-.531 0-.786-1.618-2.156-3.27-2.769-1.14-.422-1.15-.435-.759-1.111.965-1.673 4.857-2.646 6.704-1.677.934.49.97.49 1.567.006.404-.327.934-.468 1.558-.416.86.072.955.16 1.031.957.123 1.279-.301 1.685-1.26 1.207-.416-.208-.824-.553-.907-.768-.261-.682-.695-.42-.695.418 0 1.067-.525 3.166-.947 3.786-.185.271-.281.636-.214.81.066.175-.109.525-.39.78-.488.442-.537.434-1.14-.169zm.474-3.517c-.098-.255.117-.65.567-1.041.65-.565.688-.69.375-1.204-.291-.476-.291-.54 0-.375.245.14.27.112.082-.094-.374-.41-2.193-.603-2.313-.245-.053.159-.565.315-1.139.348-.573.032-1.25.143-1.504.246-.53.214-.368.66.24.66.226 0 .844.334 1.374.741.798.613 1.967 1.28 2.381 1.358.052.01.024-.167-.063-.394zm-2.923 3.617c-.08-.129.062-.397.315-.595.407-.319.422-.312.132.06-.18.232-.25.5-.155.596.096.095.102.174.014.174-.089 0-.226-.106-.306-.235zm-2.967-1.757c-.461-.976.168-1.264 1.112-.507.496.397.494.402-.064.132-.773-.373-1.003-.352-.66.06.154.187.197.476.095.642-.12.193-.293.077-.483-.327zm-16.249-6.03c.423-.544 1.668-1.244 2.185-1.228.189.005-.07.19-.574.408-.505.22-1.158.601-1.451.85-.508.43-.515.428-.16-.03zm27.626-1.362c-.667-.467-.899-1.492-.66-2.92.14-.827.299-1.064.732-1.086.503-.026.535.06.338.926-.16.71-.117 1.054.17 1.342.337.34.435.336.799-.028.228-.228.564-.848.746-1.377.307-.894.368-.936.842-.581.502.376.501.4-.08 1.433-.346.612-.477 1.088-.317 1.142.39.13.493 1.102.143 1.334-.502.333-2.133.222-2.713-.185zm2.552-.028c0-.083-.17-.321-.378-.53-.328-.327-.434-.322-.794.039-.573.573-.532.642.378.642.437 0 .794-.068.794-.151zm-19.718-.58c-.149-.107-.49-.54-.759-.96-.444-.698-.45-.788-.06-1.006.569-.318.547-1.44-.035-1.78-.416-.242-.404-.27.118-.277.319-.005.763.254.988.574.36.516.363.65.015 1.18-.314.48-.33.732-.08 1.28.196.432.452.628.698.534.318-.123.328-.078.052.254-.372.45-.54.485-.937.2zm-14.24-.546c-.593-.656-.578-2.484.025-3.024.884-.79 2.287-.588 2.592.373.278.876.199 2.324-.15 2.745-.533.641-.665.453-.565-.807.132-1.658-.12-2.508-.746-2.508-.617 0-.952 1.358-.686 2.778.199 1.059.139 1.115-.47.443zm3.795-1.347c0-1.216-.11-1.874-.33-1.963-.182-.073.183-.143.81-.154.629-.012 1.373.102 1.654.253.551.295.69 1.172.23 1.456-.185.115-.132.34.156.658.603.666.4 1.43-.406 1.526-.462.054-.553.006-.305-.162.564-.382.27-1.49-.42-1.588-.522-.074-.595.032-.595.86 0 .663-.118.944-.397.944-.314 0-.397-.38-.397-1.83zm1.72-1.098c0-.396-.175-.67-.463-.725-.337-.065-.463.083-.463.547 0 .35.082.719.182.819.342.342.744-.005.744-.641zm2.207 1.331c.056-.99-.032-1.745-.231-1.985-.276-.332-.092-.386 1.299-.386 1.595 0 1.62.01 1.602.727-.018.715-.023.717-.305.133-.418-.867-1.53-.819-1.53.066 0 .722.248.837.742.344.246-.247.317-.118.317.582s-.07.829-.317.582c-.533-.532-.741-.361-.741.608 0 .706-.11.927-.463.927-.4 0-.451-.218-.373-1.598zm2.124 1.36c.199-.126.465-.392.591-.591.169-.267.23-.205.233.233.003.443-.148.594-.59.591-.44-.003-.5-.064-.234-.233zm1.845-1.517c.065-1.26-.01-1.82-.265-1.981-.24-.153-.1-.226.439-.23l.794-.003v1.984c0 1.808-.047 1.985-.53 1.985-.485 0-.521-.146-.438-1.755z" transform="translate(-25.177 -73.138)"/><path style="fill:#b12623;stroke-width:.26458332" d="M51.161 135.83c.249-.145.397-.41.33-.588s-.151-1.008-.188-1.845c-.066-1.515-.063-1.521.694-1.521.646 0 .712.06.432.396-.213.257-.288.95-.215 1.967.102 1.412.059 1.585-.43 1.717-.837.224-1.124.166-.623-.126zm10.737 0c-.926-.54-.931-3.16-.007-3.657.42-.225.452-.087.372 1.58-.073 1.52-.013 1.856.357 1.998.652.25.912-.355.926-2.155l.013-1.588.545.656c1.325 1.591-.475 4.174-2.206 3.165zm-12.327-.303c-.426-.426-.4-1.135.054-1.513.318-.264.315-.42-.02-1.094-.22-.438-.518-.707-.677-.61-.17.105-.208.053-.096-.129.379-.612 1.208-.32 1.576.555.313.744.307.922-.041 1.324-.323.371-.343.596-.102 1.124.235.517.227.66-.038.66-.186 0-.48-.142-.656-.317zm3.924-.41c.008-.678.029-.691.308-.198.165.29.43.616.588.723.163.11.03.196-.308.199-.476.003-.594-.142-.588-.724zm1.937.049c-.049-.853-.25-1.062-.682-.705-.259.214-.343.099-.365-.499-.027-.74-.006-.756.463-.332.468.423.493.408.523-.324.017-.423.012-.917-.012-1.1-.025-.194.256-.33.683-.33.565 0 .656.07.409.317-.383.383-.416 2.035-.06 2.973.23.603.192.679-.33.679-.446 0-.599-.166-.629-.68zm2.342.361c-.415-.415-.408-1.194.013-1.341.242-.085.207-.256-.133-.639-.598-.675-.585-1.058.05-1.397.645-.346 1.392-.383.855-.043-.505.32-.286 1.728.286 1.837.38.072.463-.107.463-.99 0-.85.098-1.078.463-1.079.404 0 .452.225.373 1.756-.065 1.26.01 1.82.264 1.98.223.142-.144.227-.98.23-.736.002-1.48-.14-1.654-.314zm1.534-.608c0-.673-.602-.92-.934-.385-.255.413.066 1.046.529 1.046.256 0 .405-.244.405-.661zm-29.457.22c-.329-.329-.178-1.072.353-1.748.633-.805.657-.986.132-.986-.218 0-.397-.119-.397-.264 0-.383.73-.327.861.066.086.256.214.246.564-.043.248-.205.39-.532.316-.727-.184-.478.39-.449 1.11.057.498.348.589.659.589 2 0 .991-.1 1.527-.265 1.425-.145-.09-.266-.544-.268-1.008-.008-1.547-.371-1.713-1.43-.654-.521.521-.947 1.197-.947 1.503 0 .55-.277.72-.618.38zm23.636-2.69c0-.352.166-.573.43-.573.367 0 .378.067.074.463-.194.255-.388.513-.429.573-.041.06-.075-.147-.075-.463zm2.56-1.292c.462-.058.99-.285 1.17-.504.285-.342.235-.374-.354-.226-.852.214-1.517-.7-.98-1.346.648-.78 1.846-.259 1.83.797-.015.926-.631 1.473-1.61 1.426l-.896-.042zm-2.593-.802c-.336-.429-.324-.434.166-.075.29.213.578.422.639.463.06.04-.014.075-.166.075s-.44-.209-.64-.463zm.42-.613c-.097-.156-.118-.34-.049-.409.07-.069.197.058.283.283.179.466.026.548-.235.126zm-20.098-.495c-.661-.128-.799-.286-.824-.945-.061-1.63.631-1.915 1.953-.803.585.492.847.576 1.078.344.232-.232.306-.22.306.048 0 .348-.537.875-1.323 1.297-.218.117-.754.144-1.19.059zm18.918-.281c-.292-.292-.53-.708-.53-.927 0-.218-.119-.396-.264-.396-.146 0-.265-.14-.265-.31 0-.17-.19-.52-.423-.778-.53-.585-.28-2.617.322-2.617.21 0 .46-.208.556-.463.096-.254.515-.784.931-1.177.888-.836 1.922-1.258 1.724-.702-.07.197-.011.584.132.861.211.41.18.473-.168.34-.335-.13-.428.006-.428.62 0 .574-.125.785-.463.782-.4-.003-.409-.043-.066-.285.353-.25.353-.268 0-.172-.557.152-.518.767.086 1.363.796.786 5.076.922 7.124.226l1.521-.517-.003.687c-.009 1.59-.196 1.78-2.116 2.142-1.724.325-4.885.25-6.675-.16-.535-.122-.768-.05-.893.273-.221.578.058.832.506.46.288-.24.334-.146.24.491-.136.933-.165.942-.848.259zm-12.568 0c-.09-.146.022-.265.249-.265s.412.119.412.265c0 .145-.112.264-.249.264s-.322-.119-.412-.264zm1.51-1.772c-.77-.375-1.978-1.201-2.685-1.836-.706-.635-1.402-1.155-1.546-1.155-.26 0-.927 1.236-1.213 2.249-.082.291-.093.025-.024-.592.11-.977.484-2.096 1.173-3.51.349-.715 1.205-.614 1.58.187.202.428.399.6.468.408.066-.183.224-.269.351-.19.127.078.168.304.092.502-.196.512 2.633 2.741 3.744 2.95l.911.17-.452.765c-.541.918-.616.92-2.399.052zm1.533-2.614-.662-.381.794.178c.7.158.753.13.45-.239-.199-.241-.24-.481-.096-.57.296-.183.637.943.365 1.208-.105.101-.488.013-.851-.196zm1.802-2.145c.191-.077.42-.067.507.02.088.089-.068.151-.347.14-.308-.013-.371-.076-.16-.16zm3.637-.29c-.081-.08-.148-.425-.148-.764 0-.405-.159-.623-.463-.634-.324-.012-.264-.096.199-.28.562-.225.75-.16 1.26.432.33.383.54.793.467.91-.173.281-1.127.525-1.315.337zm6.467-.44c0-.372.119-.677.264-.677.146 0 .265.231.265.514 0 .282-.12.587-.265.677-.15.092-.264-.13-.264-.514zm-10.443-.135c-.202-.326-.255-.302.918-.414.51-.049.688-.025.397.052-.291.078-.668.254-.837.39-.194.158-.37.148-.478-.028zm9.094-.759c.444-.354.59-.677.487-1.071-.08-.31-.047-.503.074-.428.122.075.297.016.388-.132.269-.434.592-.31.748.287.08.306.272.478.428.381.155-.096.282-.048.282.106s-.21.28-.467.28-.941.244-1.521.542c-.963.495-1 .498-.42.035zm5.73.076c-.282-.213-.386-.388-.23-.388.155 0 .43.178.611.397.412.496.283.493-.381-.008zm-12.633-.04c.191-.076.42-.067.507.021.088.088-.068.15-.347.14-.308-.013-.371-.076-.16-.16zm-8-.92c-.212-.51-.577-1.084-.81-1.277-.234-.194-.36-.52-.281-.726.078-.206.018-.633-.135-.95-.27-.557-.265-.559.133-.063.226.283.411.582.411.664 0 .083.243.302.539.487.448.28.703.258 1.521-.13.54-.257 1.205-.43 1.475-.384.345.059.432-.022.292-.269-.161-.283-.13-.288.156-.021.493.457 1.334.413 2.11-.111l.654-.442-.59.652c-.395.436-1.11.76-2.153.975-1.542.319-2.945 1.132-2.945 1.707 0 .163.168.067.373-.214.366-.5.383-.5.927-.008.639.578.519.939-.132.399-.37-.307-.484-.287-.795.138-.342.468-.387.442-.75-.427zm18.18-.023c-.166-.215-.148-.535.05-.912l.306-.582.445.755c.245.415.446.825.446.912 0 .296-.993.158-1.248-.173zm-14.292-.752c.258-.15.4-.385.315-.521-.084-.137-.09-.249-.015-.249.077 0 .266.238.422.53.252.47.202.528-.454.52-.634-.007-.671-.046-.268-.28zm11.326-.66c.013-.308.076-.37.16-.16.077.192.067.42-.02.508-.089.088-.151-.069-.14-.348zM36.73 116.96c-.545-.715-.612-.938-.315-1.052.263-.1.328-.015.214.282-.099.256-.056.36.107.26.149-.093.412.141.584.52.466 1.022.194 1.017-.59-.01zm-1.152-1.546c-.574-.74-.636-1-.238-1 .268 0 .348.148.236.439-.135.35-.05.408.42.285.37-.096.553-.045.491.14-.148.446-.615.516-.91.136zm3.48-.754c-.096-.155-.118-.338-.049-.408.07-.07.197.058.283.282.179.467.027.549-.234.126zm3.676-.47c-1.116-1.113-1.946-2.167-1.946-2.473 0-.148.328.073.728.493.4.42 1.144 1.09 1.654 1.49.567.446.72.665.396.566-.521-.158-.522-.155-.015.258.282.23.384.419.226.419s-.627-.34-1.043-.753zm.436-.158c0-.064-.12-.19-.265-.28-.146-.09-.265-.037-.265.117s.12.28.265.28c.145 0 .265-.053.265-.117zm9.848.315c-.148-.182-.418-.866-.6-1.521-.336-1.209-1.171-2.234-1.603-1.967-.13.08-.237.02-.237-.134 0-.368.416-.356 1.033.03.4.25.744.204 1.743-.228 1.148-.497 1.193-.55.566-.67-.374-.071-.617-.028-.54.097.077.124.013.226-.14.226-.155 0-.28-.185-.28-.412 0-.245-.125-.336-.306-.224-.182.113-.234.073-.129-.098.098-.158-.07-.364-.376-.461-.304-.097-.494-.235-.422-.307.072-.072 1.13.338 2.353.91 2.322 1.089 2.73 1.557 2.905 3.336.07.704-.021.786-1.248 1.127-2.2.613-2.439.639-2.719.296zm-18.242-.529c-.437-.566-.678-1.168-.265-.665.207.252.434.4.505.33.07-.07.128.05.128.269 0 .482-.04.49-.368.066zm9.154-.132c-.33-.42-.32-.43.1-.1.254.2.462.408.462.463 0 .218-.217.078-.562-.363zm3.311-1.588c-1.216-1.547-1.54-2.162-2.331-4.431-.406-1.165-.87-2.278-1.03-2.474-.324-.4-.036-.29 3.726 1.425 2.145.977 2.924 1.61.984.8-.543-.227-1.035-.413-1.093-.413-.057 0 .138.476.435 1.058.297.583.645 1.059.773 1.059.129 0 .359.359.512.797.152.439.46.868.684.953.34.13.287.326-.318 1.182-.399.564-.913 1.028-1.144 1.03-.23.004-.77-.44-1.198-.986zm-13.239-.003c.096-.155.031-.33-.144-.389-.225-.075-.233-.16-.03-.286.16-.098.357-.005.439.208.081.213.016.469-.146.569-.17.104-.22.062-.119-.102zm8.815-.504c-.258-.258-.216-1.091.063-1.264.132-.081.178.089.103.378-.171.654.557.995 1.122.525.333-.276.372-.259.233.103-.165.429-1.179.6-1.521.258zm17.148-.193c-.567-.247-.816-.55-.857-1.048-.031-.384.06-.7.204-.7s.248.09.23.199c-.08.514.055.877.278.739.135-.084.332-.013.438.158.12.193.077.238-.114.12-.168-.103-.306-.062-.306.092 0 .373.349.355.741-.037.247-.247.318-.189.318.264 0 .32-.03.578-.067.572a14.989 14.989 0 0 1-.865-.359zm-26.3-.798c-.2-.24-.217-.431-.047-.536.146-.09.394.078.552.373.326.61-.037.728-.506.163zm26.757-.619c-.186-.254-.268-.314-.181-.132.087.182.032.33-.123.33-.154 0-.28-.234-.28-.52 0-.377.122-.474.44-.352.254.097.374.06.283-.087-.087-.14-.066-.406.048-.59.12-.194.206.117.206.74 0 .59-.012 1.074-.027 1.074-.014 0-.179-.208-.366-.463zm-10.974-.574c-.115-.44-.08-.543.116-.347.154.154.228.436.164.627-.066.198-.186.078-.28-.28zm-10.07.067a.729.729 0 0 1-.177-.45c0-.165.123-.15.313.04.172.172.251.375.176.45-.075.075-.216.057-.313-.04zm-6.103-.308c-.075-.122.032-.22.237-.22.206 0 .313.098.238.22-.075.12-.182.22-.238.22-.055 0-.162-.1-.237-.22zm8.233.036c-.068-.117.11-.451.397-.742.519-.529.52-.528.429.112-.09.642-.596 1.028-.826.63zm17.801-.065c0-.137.118-.322.262-.41.15-.093.194.013.104.248-.176.459-.366.543-.366.162zm-18.609-.192c-.239-.239-.224-1.086.022-1.238.11-.067.199.223.199.646 0 .423-.01.768-.022.768-.013 0-.102-.079-.199-.176zm15.814-.948-.777-.86.925.794c.509.436.975.823 1.036.86.062.036-.005.066-.147.066-.143 0-.61-.387-1.037-.86zm-23.434 0c-.15-.28-.2-.58-.11-.67.267-.268.953-.294.79-.03-.084.135-.278.168-.433.072-.163-.1-.224-.02-.147.194.074.203.256.342.406.31.15-.032.332.097.405.287.21.546-.61.4-.911-.164zm2.773.187c-.087-.224-.083-.482.008-.573.09-.091.165.023.165.254 0 .23.149.479.33.552.26.105.258.138-.008.154-.186.012-.41-.162-.495-.387zm24.14.18c-.076-.122.018-.436.208-.696.276-.377.375-.398.488-.104.158.414-.48 1.149-.696.8zm-27.407-1.756c0-.218.193-.397.43-.397.351 0 .37.072.1.397-.182.218-.375.397-.43.397-.055 0-.1-.179-.1-.397zm5.413-.15c-.096-.155-.117-.339-.048-.408.07-.07.197.057.283.282.179.466.026.548-.235.126zm8.478-1.073c-2.277-1.126-2.778-1.454-1.324-.866.345.14.35.052.042-.68-.194-.463-.58-1.1-.859-1.418a7.133 7.133 0 0 1-.785-1.105c-.207-.39-.506-.51-1.137-.46-.471.038-1.075-.048-1.342-.19-.356-.192-.757-.118-1.509.274-.792.414-.866.503-.326.392.467-.096.816.003 1.058.302.307.38.305.412-.015.219-.281-.17-.333-.117-.206.214.092.242.122.44.066.44-.213 0-3.977-1.862-3.885-1.922.053-.034-.035-.539-.197-1.12-.162-.583-.295-1.19-.295-1.35-.002-.336 3.164-1.256 3.858-1.122.306.06.605.583.881 1.545.745 2.59 1.18 2.723 2.82.86l1.107-1.257.98 1.059c1.051 1.134 1.98 2.79 2.523 4.498.185.582.56 1.504.835 2.05.274.546.467.982.427.97-.04-.013-1.262-.613-2.717-1.333zm13.513.914c-.093-.243-.029-.57.143-.728.233-.213.271-.168.15.177-.09.255-.048.463.093.463.14 0 .256.12.256.265 0 .428-.458.302-.642-.177zm-5.04-.182-.263-.832c-.068-.218-.065-.397.007-.397.202 0 .678 1.38.528 1.53-.074.073-.196-.062-.272-.301zm-22.468-.59c-.238-.619-.196-.903.133-.903.17 0 .218.194.116.463-.127.333-.095.383.113.176.326-.323.077-1.243-.278-1.024-.126.078-.28-.131-.343-.465-.195-1.042-.14-2.855.087-2.855.12 0 .2.196.18.435-.02.239.103.484.273.544.462.163.247-.737-.264-1.11-.38-.279-.625-.927-.35-.927.407 0 1.76.63 1.76.82 0 .337-.358.296-.8-.092-.207-.182-.155-.065.116.26.387.463.426.67.18.966-.241.291-.235.403.03.495.256.09.22.257-.145.668-.33.372-.427.738-.302 1.132.145.456.236.504.417.218.387-.612.266.006-.164.838-.465.898-.54.934-.759.362zm.478-2.651c.43-.165.327-.634-.14-.634-.146 0-.198.11-.115.242.082.133 0 .303-.183.376-.183.074-.253.144-.156.155.097.012.365-.05.594-.139zm4.51 2.524c-.285-.461.04-.559.403-.121.208.251.228.403.053.403-.155 0-.36-.127-.456-.282zm22.152-.42c.055-.32-.052-.46-.313-.404-.314.068-.33.017-.072-.245.226-.23.241-.43.051-.659-.202-.244-.15-.31.205-.26.526.078.772 1.61.305 1.898-.143.088-.222-.06-.176-.33zm-8.877-1.377c-.25-.276-.371-.68-.277-.926.264-.689.715-.51.534.213-.115.459-.027.726.302.918.255.149.334.274.175.278-.16.004-.49-.213-.734-.483zm-15.116-.468c-.476-.405-.573-.565-.243-.401.485.24 1.395 1.111 1.135 1.086-.054-.005-.456-.313-.892-.685zm17.76-.506c-.256-.665-.18-.837.132-.3.154.265.225.538.157.606-.069.068-.199-.07-.29-.306zm5.92.17c0-.177-.1-.262-.22-.187-.122.075-.22-.043-.22-.262 0-.351.046-.35.402.005.222.222.321.486.22.586-.1.1-.182.037-.182-.141zm-16.341-1.022c-.31-.66-.302-.68.096-.282.238.237.388.558.335.713-.054.155-.248-.04-.431-.431zm16.308.068a7.07 7.07 0 0 1-.07-.33c-.02-.11-.127-.34-.236-.511a.363.363 0 0 1 .111-.504c.194-.12.239-.077.121.114-.104.168-.07.305.075.305.145 0 .246.239.224.53-.037.496-.15.695-.225.396zm-10.569-.815c-.386-.466-.095-1.18.567-1.39.271-.087.245.029-.092.41-.418.471-.426.565-.066.864.327.271.491.266.867-.028.42-.33.429-.32.1.1-.451.574-.922.59-1.376.044zm5.706-.113c-.101-.164-.113-.369-.025-.456.087-.087.159-.02.159.15 0 .491 1.005.357 1.156-.155.106-.36.124-.346.082.066-.06.588-1.073.88-1.372.395zm4.267-1.198c-.255-.666-.18-.837.132-.301.155.265.225.538.157.607-.068.068-.198-.07-.289-.306zm-7.458-.481a7.75 7.75 0 0 0-1.058-.906c-.374-.248-.42-.38-.17-.49.277-.12.278-.232.004-.586-.234-.304-.156-.283.254.066.643.55.787.836.26.52-.182-.11.116.239.661.773.546.535.992 1.034.992 1.11 0 .277-.411.065-.943-.487zm6.914-.887c-.144-.377-.114-.407.148-.148.18.18.262.393.18.475-.081.081-.23-.066-.328-.327zm-9.903-.88c-.343-.286-.51-.52-.371-.52s.468.238.731.53c.606.668.449.664-.36-.01zm.89.01c-.09-.146-.045-.265.1-.265.146 0 .339.119.429.264.09.146.044.265-.101.265-.146 0-.338-.12-.428-.265zm3.192-.188c-.144-.377-.114-.407.148-.148.18.18.262.393.18.474-.081.082-.229-.065-.328-.326zm4.772-.298c-.075-.121.032-.22.238-.22.205 0 .312.099.237.22-.075.121-.182.22-.237.22-.056 0-.163-.099-.238-.22zm-.688-.838c0-.145.171-.264.381-.264s.455.119.545.264c.09.146-.082.265-.382.265s-.544-.12-.544-.265zm-.175-.941c-.087-.227-.31-.354-.497-.282-.2.077-.407-.146-.508-.545-.093-.372-.243-.602-.333-.511-.09.09-.371-.024-.624-.253-.419-.379-.575-.376-1.741.03-1.227.428-3.183.557-3.508.232-.085-.085.043-.298.284-.474.318-.234.369-.444.185-.773-.162-.289-.161-.452.003-.452.14 0 .474-.069.74-.153.443-.14.44-.118-.03.265-.376.307-.436.498-.222.712.353.354 2.761-.366 3.268-.976.264-.318.245-.36-.1-.227-.26.1-.687-.101-1.108-.523-.377-.377-.57-.685-.428-.685.142 0 .437.179.655.397.52.52.87.501 1.235-.066.284-.441.29-.441.154 0-.094.301-.003.463.26.463.222 0 .337.108.256.24-.082.132.408.935 1.088 1.786 1.819 2.273 1.776 2.207 1.434 2.207-.168 0-.376-.185-.463-.412zm-17.552-2.53c0-.69-.064-.775-.382-.51-.21.173-.32.515-.244.76.114.37.095.378-.116.046-.603-.947-.617-1.55-.042-1.857.31-.166.631-.235.713-.153.211.21.421 2.54.23 2.54-.088 0-.16-.372-.16-.827zm-3.485-.425c-.765-.89-.74-1.024.169-.918.88.103 1.078.543.502 1.119-.181.181-.399.116-.671-.201zm8.644-1.228c-.99-1.146-1.037-1.258-.644-1.507.776-.49 1.305-.285 1.305.51 0 .671.082.746.728.662l.728-.095-.707.235c-.389.13-.806.295-.926.368-.12.073-.338-.005-.484-.173zm4.039-.533c-.252-.191-.381-.426-.287-.52.308-.308.549-.184.69.356.076.291.12.526.097.521a5.792 5.792 0 0 1-.5-.357zm-11.315-.312c0-.226.119-.338.265-.249.145.09.264.276.264.413 0 .137-.119.249-.264.249-.146 0-.265-.186-.265-.413zm10.005.232c.19-.076.419-.067.507.021.088.088-.069.15-.348.14-.308-.014-.37-.076-.16-.16zm2.43-.084c-.238-.154-.27-.258-.081-.26a.615.615 0 0 1 .478.26c.203.329.112.329-.397 0zm-11.641-.535c0-.579.417-.712.603-.192.065.182.21.244.324.138.114-.105.053-.376-.134-.601-.187-.226-.257-.493-.155-.594.101-.102.295-.01.43.205.182.286.256.144.282-.537.02-.51.051-1.22.07-1.58.03-.573-.111-.68-1.156-.875-1.768-.33-4.893-.048-6.102.55l-1.041.515.004-.959c.005-1.208.18-1.46 1.278-1.837 2.017-.69 5.918-.618 7.908.145.322.124.384.052.251-.293-.098-.255-.067-.39.07-.305.136.084.228-.082.207-.37-.03-.394-.123-.452-.381-.237-.258.214-.346.162-.36-.212-.017-.46-.034-.457-.225.033-.177.453-.224.406-.332-.324-.1-.686-.056-.796.225-.562.193.16.35.201.35.093 0-.108.174-.053.386.123.212.176.528.231.702.123.196-.12.248-.083.136.098-.246.397.095 1.674.396 1.488a.287.287 0 0 0 .089-.395c-.084-.136-.04-.246.097-.246s.312.238.388.529c.076.29.03.529-.102.529s-.24.126-.24.28c0 .154.12.207.265.117.164-.102.265.394.265 1.307 0 1.021-.104 1.47-.34 1.47-.187 0-.534.328-.77.729-.651 1.097-1.571 1.828-2.528 2.008-.735.138-.86.085-.86-.361zm2.221-2.331c.075-.121-.037-.22-.249-.22-.211 0-.385.099-.385.22s.112.22.25.22c.136 0 .31-.099.384-.22zm.557 2.337c.263-.29.538-.529.611-.529.073 0-.083.238-.347.53-.263.29-.538.528-.61.528-.074 0 .082-.238.346-.529zm14.11-.599c-.348-.347-.777-.582-.955-.523-.195.065-.323-.145-.323-.531 0-.789-1.62-2.157-3.282-2.773-1.233-.457-1.237-.485-.246-1.893.302-.43 4.376 2.129 4.878 3.064.466.868 1.087.995 1.624.332.555-.686.614-.156.088.793-.197.357-.308.78-.246.943.062.162-.117.503-.397.757-.489.442-.538.435-1.142-.169zm-2.45.1c-.08-.129.062-.397.315-.595.407-.319.422-.312.132.06-.18.232-.25.5-.155.596.096.095.102.174.014.174-.089 0-.226-.106-.306-.235zm-2.967-1.757c-.461-.977.168-1.264 1.112-.507.49.392.485.397-.104.11-.638-.31-1.196-.113-.646.227.17.105.225.328.122.495-.121.196-.292.082-.484-.325zm7.731-2.898c.09-1.914.698-2.593 2.208-2.466.86.072.955.16 1.031.957.123 1.279-.301 1.685-1.26 1.207-.416-.208-.824-.553-.907-.768-.282-.737-.695-.39-.714.602-.01.545-.111 1.23-.225 1.521-.125.321-.178-.093-.133-1.053zm-21.143-2.166c-.296-.297-.18-1.516.192-2.006.194-.255.636-.454.984-.443.623.021.622.025-.072.28-.904.33-1.204.985-.38.828.796-.152 1.41.57.952 1.12-.336.405-1.357.54-1.676.221zm16.708-.004c.19-.077.419-.067.507.02.088.088-.068.151-.347.14-.309-.013-.371-.076-.16-.16zm-12.65-1.143c-.74-.577-1.19-.69-.901-.223.121.197.072.233-.14.102-.215-.132-.239-.293-.07-.462.295-.295 1.082.044 1.628.701.455.55.285.51-.518-.118zM60.2 80.078c-.31-.252-.627-.755-.706-1.119-.215-.989.155-2.719.608-2.842.262-.072.294-.034.095.11-.304.222-.284 1.95.029 2.456.433.701 1.696-.227 2.232-1.642.281-.742.66-.931.945-.47.245.396-.53 1.694-1.545 2.584-.67.59-.837.883-.622 1.098.493.493-.4.342-1.036-.175zm-17.17-.527c-.15-.107-.473-.511-.719-.898-.39-.614-.398-.744-.06-1.025.531-.44.487-1.495-.076-1.823-.44-.256-.44-.27 0-.277.255-.005.71.238 1.01.54.51.508.52.592.134 1.18-.334.509-.355.762-.108 1.304.168.37.413.672.544.672.13 0 .164.119.074.264-.193.312-.427.33-.8.063zm19.227-.05c.114-.34.477-.402.51-.085.01.105-.123.24-.298.297-.175.059-.27-.037-.212-.211zm-33.468-.496c-.605-.668-.577-2.484.046-3.047.61-.554 1.733-.564 2.275-.023.584.584.64 2.554.093 3.223-.478.582-.61.36-.512-.866.132-1.658-.12-2.508-.746-2.508-.617 0-.952 1.358-.686 2.778.199 1.059.139 1.115-.47.443zm3.75-1.451-.087-1.935.923-.025c.507-.014 1.132.087 1.389.224.514.275.627 1.158.184 1.432-.185.115-.132.34.156.658.509.562.429 1.408-.145 1.518-.288.056-.396-.16-.393-.79.002-.7-.113-.884-.593-.952-.522-.074-.595.032-.595.86 0 .64-.121.944-.376.944-.283 0-.398-.48-.463-1.934zm1.765-.976c0-.413-.17-.687-.463-.743-.362-.07-.463.093-.463.743s.101.813.463.743c.292-.056.463-.33.463-.743zm2.207 1.313c.056-.99-.032-1.745-.231-1.985-.276-.332-.092-.386 1.299-.386 1.595 0 1.62.01 1.602.727-.018.715-.023.717-.305.133a1.015 1.015 0 0 0-.908-.596c-.514 0-.621.138-.621.794 0 .91.07.95.642.378.378-.378.416-.337.416.45 0 .673-.07.795-.317.548-.533-.532-.741-.361-.741.608 0 .706-.11.927-.463.927-.4 0-.451-.218-.373-1.598zm2.448 1.134c.195-.254.388-.512.43-.573.04-.06.074.148.074.463 0 .353-.165.573-.429.573-.367 0-.378-.066-.075-.463zm1.52-1.291c.066-1.26-.01-1.82-.264-1.981-.24-.153-.1-.226.439-.23l.794-.003v1.984c0 1.808-.047 1.985-.53 1.985-.485 0-.521-.146-.438-1.755z" transform="translate(-25.177 -73.138)"/><path style="fill:#403b29;stroke-width:.26458332" d="M51.161 135.83c.249-.145.397-.41.33-.588s-.151-1.008-.188-1.845c-.066-1.515-.063-1.521.694-1.521.646 0 .712.06.432.396-.213.257-.288.95-.215 1.967.102 1.412.059 1.585-.43 1.717-.837.224-1.124.166-.623-.126zm10.737 0c-.926-.54-.931-3.16-.007-3.657.42-.225.452-.087.372 1.58-.073 1.52-.013 1.856.357 1.998.652.25.912-.355.926-2.155l.013-1.588.545.656c1.325 1.591-.475 4.174-2.206 3.165zm-12.327-.303c-.426-.426-.4-1.135.054-1.513.318-.264.315-.42-.02-1.094-.22-.438-.518-.707-.677-.61-.17.105-.208.053-.096-.129.379-.612 1.208-.32 1.576.555.313.744.307.922-.041 1.324-.323.371-.343.596-.102 1.124.235.517.227.66-.038.66-.186 0-.48-.142-.656-.317zm3.924-.41c.008-.678.029-.691.308-.198.165.29.43.616.588.723.163.11.03.196-.308.199-.476.003-.594-.142-.588-.724zm1.937.049c-.049-.853-.25-1.062-.682-.705-.259.214-.343.099-.365-.499-.027-.74-.006-.756.463-.332.468.423.493.408.523-.324.017-.423.012-.917-.012-1.1-.025-.194.256-.33.683-.33.565 0 .656.07.409.317-.383.383-.416 2.035-.06 2.973.23.603.192.679-.33.679-.446 0-.599-.166-.629-.68zm2.342.361c-.415-.415-.408-1.194.013-1.341.242-.085.207-.256-.133-.639-.598-.675-.585-1.058.05-1.397.645-.346 1.392-.383.855-.043-.505.32-.286 1.728.286 1.837.38.072.463-.107.463-.99 0-.85.098-1.078.463-1.079.404 0 .452.225.373 1.756-.065 1.26.01 1.82.264 1.98.223.142-.144.227-.98.23-.736.002-1.48-.14-1.654-.314zm1.534-.608c0-.673-.602-.92-.934-.385-.255.413.066 1.046.529 1.046.256 0 .405-.244.405-.661zm-29.506.073c-.214-.547.741-2.202 1.509-2.613.344-.184.484-.462.398-.79-.082-.314.003-.507.224-.507.496 0 .726.452.323.637-.183.083-.064.086.263.005.327-.082.595-.034.595.106s-.268.326-.595.414c-.999.268-1.791 1.055-2.174 2.156-.28.804-.405.942-.543.592zm3.194-.272c-.055-.182-.163-.777-.24-1.323-.104-.75-.045-.992.243-.992.28 0 .38.35.38 1.323 0 1.266-.166 1.697-.383.992zm20.491-2.27c0-.353.166-.574.43-.574.367 0 .378.067.074.463-.194.255-.388.513-.429.573-.041.06-.075-.147-.075-.463zm-23.548-.31c0-.145.179-.264.397-.264.219 0 .397.12.397.265 0 .145-.178.264-.397.264-.218 0-.397-.119-.397-.264zm26.108-.983c.462-.058.99-.285 1.17-.504.285-.342.235-.374-.354-.226-.852.214-1.517-.7-.98-1.346.648-.78 1.846-.259 1.83.797-.015.926-.631 1.473-1.61 1.426l-.896-.042zm-2.593-.802c-.336-.429-.324-.434.166-.075.29.213.578.422.639.463.06.041-.014.075-.166.075s-.44-.209-.64-.463zm.42-.613c-.097-.155-.118-.34-.049-.409.07-.069.197.058.283.283.179.466.026.548-.235.126zm-1.18-.776c-.292-.291-.53-.708-.53-.926 0-.219-.119-.397-.264-.397-.146 0-.265-.164-.265-.365 0-.2-.184-.517-.41-.705-.44-.365-.43-1.747.013-1.652.146.032 1.039.377 1.985.769 2.814 1.164 5.713 1.14 8.877-.073.333-.128.41-.027.34.451-.242 1.672-7.338 1.776-10.474.154-.537-.278-.86-.335-.86-.152 0 .16.456.472 1.014.69.558.22 1.015.562 1.015.762 0 .199-.1.3-.221.226-.121-.075-.22.05-.22.276 0 .475.3.535.696.14.187-.188.236-.022.155.529-.14.949-.167.957-.851.273zm-19.71.003c-.093-.15.013-.195.249-.104.458.175.542.365.162.365-.137 0-.322-.118-.411-.261zm7.142-.003c-.09-.146.022-.265.249-.265s.412.12.412.265c0 .145-.112.264-.249.264s-.322-.119-.412-.264zm-4.366-.779c0-.136.12-.322.265-.412.145-.09.264.022.264.249s-.119.412-.264.412c-.146 0-.265-.112-.265-.249zm-1.718-.277c-.092-.15.014-.194.25-.104.458.176.541.366.16.366-.136 0-.32-.118-.41-.262zm-1.105-.355c.098-.267.177-.535.177-.595 0-.25 1.041-.089 1.212.188.113.183.042.247-.183.167-.202-.073-.596.06-.875.296-.474.4-.496.396-.33-.056zm10.182.172c.19-.077.42-.067.507.02.088.088-.068.15-.347.14-.308-.013-.371-.076-.16-.16zm-6.955-1.836c.11-.989 1.157-3.771 1.183-3.143.015.357 1.825 2.394 2.074 2.333.11-.026.217.2.24.504.035.473-.1.414-.949-.415-.544-.532-1.12-.967-1.28-.967-.282 0-.942 1.196-1.24 2.249-.082.291-.095.039-.028-.561zm4.623.678c0-.154.12-.207.265-.117.145.09.264.216.264.28 0 .064-.119.117-.264.117-.146 0-.265-.126-.265-.28zm2.136-.188c-.186-.199-.504-.298-.708-.22-.203.078-.37.024-.37-.12 0-.265-1.282-.902-1.653-.822-.11.023-.169-.106-.132-.288.036-.182-.133-.316-.376-.298-.243.019-.394-.1-.336-.264.14-.391-1.604-2.32-1.876-2.075-.115.104-.123.04-.019-.141.33-.573 1.119-.36 1.474.396.2.423.392.589.462.396.066-.183.224-.269.351-.19.127.078.168.304.092.502-.196.512 2.633 2.741 3.743 2.95.502.094.851.27.777.39-.201.325-1.042.198-1.429-.216zm9.506-1.672c-.8-.424-1.243-.77-.984-.77.26 0 .55-.209.645-.464.096-.254.515-.784.931-1.177.888-.836 1.922-1.258 1.724-.702-.07.197-.011.585.132.861.211.41.18.473-.168.34-.335-.13-.428.006-.428.62 0 .574-.125.785-.463.782-.4-.003-.409-.042-.066-.285.31-.22.315-.258.023-.18-.538.145-.582.955-.068 1.243.24.135.379.303.307.374-.071.07-.785-.218-1.585-.642zm-9.26-.13-.662-.38.794.178c.7.158.753.13.45-.239-.199-.241-.24-.481-.096-.57.296-.183.637.943.365 1.208-.105.101-.488.013-.851-.196zm1.802-2.144c.191-.077.42-.067.507.02.088.089-.068.151-.347.14-.308-.013-.371-.076-.16-.16zm3.637-.29c-.081-.08-.148-.425-.148-.764 0-.405-.159-.623-.463-.634-.324-.012-.264-.096.199-.28.562-.225.75-.16 1.26.432.33.383.54.793.467.91-.173.281-1.127.525-1.315.337zm6.467-.44c0-.372.119-.677.264-.677.146 0 .265.231.265.514 0 .282-.12.587-.265.677-.15.092-.264-.13-.264-.514zm-10.443-.135c-.202-.326-.255-.302.918-.414.51-.049.688-.025.397.052-.291.078-.668.254-.837.39-.194.158-.37.148-.478-.028zm9.094-.759c.444-.354.59-.677.487-1.071-.08-.31-.047-.503.074-.428.122.075.297.016.388-.132.269-.434.592-.31.748.287.08.306.272.478.428.381.155-.096.282-.048.282.106s-.21.28-.467.28-.941.244-1.521.542c-.963.495-1 .498-.42.035zm1.349-1.122c0-.136-.12-.248-.265-.248-.145 0-.264.185-.264.412 0 .227.119.339.264.249.146-.09.265-.276.265-.413zm4.381 1.198c-.282-.213-.386-.388-.23-.388.155 0 .43.178.611.397.412.496.283.493-.381-.008zm-12.633-.04c.191-.076.42-.067.507.021.088.088-.068.15-.347.14-.308-.014-.371-.076-.16-.16zm-8-.92c-.212-.51-.577-1.084-.81-1.278-.234-.193-.36-.52-.281-.725.078-.206.018-.633-.135-.95-.272-.562-.269-.563.12-.047.847 1.121 1.323 1.458 1.862 1.318.514-.134.511-.116-.048.294-.328.24-.596.546-.596.679 0 .132.268.1.596-.071.577-.303.581-.297.132.21-.255.287-.463.625-.463.75 0 .126.168 0 .373-.282.366-.5.383-.5.927-.008.639.578.519.939-.132.399-.37-.307-.484-.287-.795.138-.342.468-.387.442-.75-.428zm18.18-.023c-.166-.215-.148-.535.05-.912l.306-.582.445.755c.245.415.446.825.446.912 0 .296-.993.158-1.248-.173zm.585-.199c-.09-.145-.282-.264-.428-.264-.145 0-.19.119-.1.264.09.146.282.265.427.265.146 0 .191-.12.101-.265zm-14.877-.553c.258-.15.4-.385.315-.522-.084-.136-.09-.248-.015-.248.077 0 .266.238.422.53.252.47.202.528-.454.52-.634-.007-.671-.046-.268-.28zm11.326-.66c.013-.308.076-.37.16-.16.077.192.067.42-.02.508-.089.088-.151-.069-.14-.348zm-13.422-.75c.268-.21.66-.316.87-.235.479.183.42.23-.565.445-.73.16-.755.143-.305-.21zm-3.886-.782c-.545-.715-.612-.938-.315-1.052.263-.1.328-.015.214.282-.099.256-.056.36.107.26.149-.093.412.141.584.52.466 1.022.194 1.017-.59-.01zm6.969.692c0-.11.268-.365.595-.567.593-.364.594-.363.091.201-.539.607-.686.685-.686.366zm-8.121-2.238c-.574-.74-.636-1-.238-1 .268 0 .348.148.236.439-.135.35-.05.408.42.285.37-.096.553-.045.491.14-.148.446-.615.516-.91.136zm3.48-.754c-.096-.155-.118-.339-.049-.408.07-.07.197.058.283.282.179.467.027.549-.234.126zm3.676-.47c-1.116-1.113-1.946-2.167-1.946-2.473 0-.148.328.073.728.493.4.42 1.144 1.09 1.654 1.49.567.446.72.665.396.566-.521-.158-.522-.155-.015.258.282.23.384.419.226.419s-.627-.34-1.043-.753zm.436-.158c0-.064-.12-.19-.265-.28-.146-.09-.265-.037-.265.117s.12.28.265.28c.145 0 .265-.053.265-.117zm-8.394-.214c-.437-.566-.678-1.168-.265-.665.207.252.434.4.505.33.07-.07.128.05.128.269 0 .482-.04.49-.368.066zm9.154-.132c-.33-.42-.32-.43.1-.1.254.2.462.408.462.463 0 .218-.217.078-.562-.363zm12.66-.42c.077-.4-.135-1.046-.567-1.73-.805-1.275-1.595-1.42-2.855-.523-.754.537-.838.545-1.525.14-.4-.237-.803-.354-.896-.26-.093.093-.17.03-.17-.14 0-.394.401-.393 1.034.002.4.25.744.204 1.743-.228 1.148-.497 1.193-.55.566-.67-.374-.071-.617-.028-.54.097.077.124.013.226-.14.226-.155 0-.28-.185-.28-.412 0-.245-.125-.336-.306-.224-.182.112-.234.073-.129-.098.098-.158-.07-.364-.376-.462-.304-.096-.494-.234-.422-.306.072-.072 1.13.338 2.353.91 1.738.815 2.288 1.208 2.526 1.809.429 1.081.508 2.28.158 2.404-.185.065-.25-.135-.174-.534zm-9.463-1.3c-.492-.618-.684-.956-.429-.751.482.387 1.616 1.876 1.429 1.876-.059 0-.509-.507-1-1.125zm1.767.197c-.092-.24 0-.395.237-.395.428 0 .525.413.152.644-.13.08-.305-.032-.389-.25zm-14.892-.067c.096-.156.031-.331-.144-.39-.225-.074-.233-.16-.03-.285.16-.099.357-.005.439.207.081.213.016.469-.146.569-.17.105-.22.062-.119-.101zm8.815-.505c-.258-.257-.216-1.09.063-1.263.132-.082.178.088.103.378-.171.653.557.994 1.122.525.333-.277.372-.26.233.102-.165.429-1.179.6-1.521.258zm4.85-.353c0-.29.172-.529.382-.529.552 0 .807.55.38.82-.566.358-.762.284-.762-.29zm12.298.16c-.567-.246-.816-.55-.857-1.047-.031-.385.06-.7.204-.7s.248.09.23.198c-.08.514.055.877.278.74.135-.084.332-.014.438.157.12.193.077.239-.114.12-.168-.103-.306-.062-.306.092 0 .373.349.355.741-.037.247-.247.318-.188.318.264 0 .32-.03.578-.067.572a14.989 14.989 0 0 1-.865-.358zm-11.06-.97c-.509-.595-1.203-1.725-1.544-2.512-.593-1.369-1.016-1.827-1.016-1.1 0 .188-.249.36-.552.383-.395.03-.508-.074-.397-.363.085-.222.155-.45.155-.506 0-.056.198-.026.44.067.3.115.378.068.246-.146-.177-.286 2.063.591 3.204 1.255.704.41.199.35-.888-.104-.523-.218-.998-.397-1.056-.397-.057 0 .138.476.435 1.058.297.583.654 1.059.794 1.059s.33.3.422.667c.092.368.4.831.686 1.031.292.204.404.434.256.525-.144.089-.677-.324-1.186-.918zm-15.24.173c-.2-.241-.217-.432-.047-.537.146-.09.394.078.552.373.326.61-.037.728-.506.164zm12.811-.422c-.242-.392.192-1.085.626-1.001.643.124.679.91.05 1.075-.299.078-.602.045-.676-.074zm13.946-.197c-.186-.255-.268-.315-.181-.133.087.182.032.331-.123.331-.154 0-.28-.234-.28-.52 0-.378.122-.475.44-.353.254.098.374.06.283-.087-.087-.14-.066-.406.048-.59.12-.194.206.117.206.74 0 .591-.012 1.075-.027 1.075-.014 0-.179-.209-.366-.463zm-10.974-.574c-.115-.44-.08-.544.116-.347.154.153.228.435.164.626-.066.198-.186.078-.28-.28zm-10.07.067a.729.729 0 0 1-.177-.45c0-.166.123-.15.313.04.172.172.251.374.176.45-.075.074-.216.057-.313-.04zm-6.103-.31c-.075-.12.032-.22.237-.22.206 0 .313.1.238.22-.075.122-.182.221-.238.221-.055 0-.162-.099-.237-.22zm8.233.037c-.068-.117.11-.45.397-.742.519-.528.52-.528.429.112-.09.642-.596 1.028-.826.63zm17.801-.065c0-.137.118-.321.262-.41.15-.093.194.013.104.249-.176.458-.366.542-.366.161zm-18.609-.192c-.239-.239-.224-1.086.022-1.238.11-.067.199.224.199.646 0 .423-.01.769-.022.769-.013 0-.102-.08-.199-.177zm5.115-.75c0-.756.309-.849.81-.244.288.346.282.459-.033.658-.606.383-.777.293-.777-.413zm10.7-.198-.778-.86.925.794c.509.437.975.824 1.036.86.062.036-.005.066-.147.066-.143 0-.61-.387-1.037-.86zm-23.435 0c-.15-.28-.2-.58-.11-.67.267-.267.953-.294.79-.03-.084.135-.278.168-.433.073-.163-.101-.224-.02-.147.194.074.202.256.341.406.31.15-.032.332.097.405.286.21.546-.61.4-.911-.163zm2.773.187c-.087-.224-.083-.482.008-.573.09-.09.165.024.165.254s.149.479.33.552c.26.105.258.138-.008.155-.186.011-.41-.163-.495-.388zm24.14.18c-.076-.122.018-.435.208-.695.276-.378.375-.399.488-.104.158.414-.48 1.148-.696.8zm-27.407-1.756c0-.218.193-.397.43-.397.351 0 .37.072.1.397-.182.219-.375.397-.43.397-.055 0-.1-.178-.1-.397zm5.413-.15c-.096-.155-.117-.339-.048-.408.07-.07.197.058.283.282.179.466.026.548-.235.126zm10.727.018c-.239-.154-.271-.258-.082-.26a.616.616 0 0 1 .479.26c.203.328.111.328-.397 0zm11.264-.177c-.093-.242-.029-.57.143-.727.233-.214.271-.17.15.176-.09.255-.048.463.093.463.14 0 .256.12.256.265 0 .429-.458.303-.642-.177zm-5.04-.182c-.076-.24-.195-.613-.263-.832-.068-.218-.065-.397.007-.397.202 0 .678 1.38.528 1.53-.074.074-.196-.062-.272-.301zm-22.468-.589c-.238-.62-.196-.904.133-.904.17 0 .218.195.116.463-.127.334-.095.383.113.176.326-.323.077-1.243-.278-1.024-.126.078-.28-.13-.343-.464-.195-1.042-.14-2.855.087-2.855.12 0 .2.195.18.434-.02.24.103.484.273.544.462.164.247-.736-.264-1.11-.38-.278-.625-.927-.35-.927.407 0 1.76.63 1.76.82 0 .337-.358.296-.8-.092-.207-.182-.155-.065.116.26.387.464.426.67.18.966-.241.291-.235.403.03.496.256.089.22.256-.145.668-.33.371-.427.737-.302 1.132.145.455.236.503.417.217.387-.611.266.006-.164.838-.465.899-.54.934-.759.362zm.478-2.652c.43-.165.327-.633-.14-.633-.146 0-.198.109-.115.242.082.133 0 .302-.183.376-.183.073-.253.143-.156.154.097.012.365-.05.594-.139zm4.51 2.524c-.285-.46.04-.558.403-.121.208.251.228.403.053.403-.155 0-.36-.127-.456-.282zm6.824.009c-.886-.356-.72-.537.198-.217.437.153.794.325.794.383 0 .157-.322.103-.992-.166zm2.174-.511c.032-.224.167-.409.299-.41.131-.003.408-.112.615-.243.287-.182.334-.13.198.224-.097.255-.177.546-.177.649 0 .102-.224.186-.498.186-.296 0-.473-.164-.437-.406zm13.154.083c.055-.322-.052-.46-.313-.405-.314.068-.33.017-.072-.245.226-.23.241-.43.051-.659-.202-.244-.15-.31.205-.26.526.078.772 1.61.305 1.898-.143.088-.222-.06-.176-.33zm-14.865-.385c-.835-.482-.68-.512.396-.077.345.14.35.052.042-.68-.194-.463-.58-1.101-.859-1.418a7.133 7.133 0 0 1-.785-1.105c-.207-.39-.506-.511-1.137-.46-.471.038-1.097-.06-1.39-.217-.393-.21-.637-.2-.92.035-.213.176-.447.26-.521.186-.074-.073.156-.324.511-.557.565-.37.686-.374.967-.035a1.032 1.032 0 0 0 1.525.07c.447-.446 1.647.762 2.679 2.698 1.194 2.24 1.111 2.494-.508 1.56zm1.64-.82c-.431-.43-.399-.652.125-.853.499-.191.901.28.696.817-.169.438-.408.45-.82.037zm4.348-.173c-.25-.276-.371-.681-.277-.926.264-.689.715-.51.534.213-.115.459-.027.726.302.918.255.148.334.274.175.278-.16.004-.49-.213-.734-.483zm-15.116-.468c-.476-.405-.573-.566-.243-.402.485.241 1.395 1.112 1.135 1.087-.054-.005-.456-.313-.892-.685zm17.76-.506c-.256-.665-.18-.837.132-.3.154.265.225.538.157.606-.069.068-.199-.07-.29-.306zm5.92.17c0-.178-.1-.262-.22-.187-.122.075-.22-.043-.22-.262 0-.351.046-.35.402.005.222.222.321.486.22.586-.1.1-.182.037-.182-.141zm-21.244-1.214c-.988-.486-1.787-.955-1.774-1.042.012-.088-.101-.604-.252-1.148-.345-1.243-.349-1.65-.013-1.65.145 0 .264.287.264.64 0 .66.724 2.244 1.191 2.607.146.114.622.144 1.058.067.615-.108.705-.075.397.147-.31.223-.245.252.3.134.475-.103.814-.009 1.059.294.307.38.305.412-.015.219-.281-.17-.333-.117-.206.213.223.583.096.552-2.009-.481zm4.903.191c-.31-.659-.302-.68.096-.281.238.237.388.558.335.713-.054.155-.248-.04-.431-.432zm2.781.525c-.254-.054-.463-.255-.463-.447 0-.449.807-.763 1.13-.44.361.361-.121 1.003-.667.887zm13.527-.456a7.07 7.07 0 0 1-.07-.33c-.02-.11-.127-.34-.236-.511a.363.363 0 0 1 .111-.504c.194-.12.239-.077.121.114-.104.168-.07.305.075.305.145 0 .246.238.224.53-.037.496-.15.695-.225.396zm-10.569-.816c-.386-.465-.095-1.178.567-1.39.271-.086.245.03-.092.41-.418.472-.426.566-.066.865.327.271.491.266.867-.028.42-.33.429-.32.1.1-.451.574-.922.59-1.376.043zm5.706-.112c-.101-.164-.113-.369-.025-.456.087-.088.159-.02.159.15 0 .491 1.005.357 1.156-.155.106-.36.124-.346.082.066-.06.588-1.073.88-1.372.395zm-10.053-.262c-.221-.359.078-.794.545-.794.21 0 .381.238.381.53 0 .547-.638.73-.926.264zm1.686-.463c-.329-.42-.32-.43.1-.1.255.2.463.408.463.463 0 .218-.217.077-.563-.363zm12.634-.474c-.255-.665-.18-.837.132-.3.155.265.225.538.157.607-.068.068-.198-.07-.289-.307zm-7.458-.48a7.75 7.75 0 0 0-1.058-.906c-.374-.248-.42-.38-.17-.49.277-.12.278-.232.004-.586-.234-.304-.156-.284.254.066.643.55.787.836.26.52-.182-.11.116.239.661.773.546.535.992 1.034.992 1.109 0 .278-.411.065-.943-.486zm-7.92.094c.09-.146.275-.265.412-.265.137 0 .25.12.25.265 0 .145-.186.264-.413.264-.227 0-.34-.119-.25-.264zm1.686-.463c-.33-.42-.32-.43.1-.1.254.2.463.408.463.463 0 .218-.217.077-.563-.363zm13.148-.518c-.144-.377-.114-.407.148-.148.18.18.262.393.18.475-.081.081-.23-.066-.328-.327zm-9.903-.88c-.343-.286-.51-.52-.371-.52s.468.238.731.53c.606.668.449.664-.36-.01zm-8.447-.15c-.188-.203-.225-.37-.082-.37.275 0 .672.503.515.652-.05.049-.246-.078-.433-.282zm9.337.16c-.09-.146-.045-.265.1-.265.146 0 .339.119.429.264.09.146.044.265-.101.265-.146 0-.338-.12-.428-.265zm3.192-.188c-.144-.377-.114-.407.148-.148.18.18.262.393.18.474-.081.082-.229-.065-.328-.326zm4.772-.298c-.075-.121.032-.22.238-.22.205 0 .312.099.237.22-.075.121-.182.22-.237.22-.056 0-.163-.099-.238-.22zm-.688-.838c0-.145.171-.264.381-.264s.455.119.545.264c.09.146-.082.265-.382.265s-.544-.12-.544-.265zm-.175-.941c-.087-.227-.31-.354-.497-.282-.2.077-.407-.146-.508-.545-.093-.372-.243-.602-.333-.511-.09.09-.383-.034-.65-.276-.398-.36-.606-.384-1.158-.133-1.195.545-1.346.318-.185-.276.618-.317 1.124-.672 1.124-.79 0-.29-.193-.27-.877.089-.577.302-.577.302-.063-.276.419-.472.433-.549.077-.412-.276.106-.686-.083-1.121-.518-.377-.377-.57-.685-.428-.685.142 0 .437.179.655.397.52.52.87.501 1.235-.066.284-.441.291-.441.154 0-.094.301-.003.463.26.463.222 0 .338.108.256.24-.082.132.408.935 1.088 1.786 1.819 2.273 1.776 2.207 1.434 2.207-.168 0-.376-.185-.463-.412zm-5.443-1.22c.154-.154.436-.228.627-.164.198.066.078.186-.28.28-.44.115-.543.08-.347-.116zm-12.11-1.31c0-.69-.063-.774-.38-.51-.21.173-.32.515-.245.76.114.37.095.378-.116.046-.603-.947-.617-1.55-.042-1.857.31-.166.631-.235.713-.153.211.21.421 2.54.23 2.54-.088 0-.16-.372-.16-.827zm-.264-1.058c0-.145-.119-.191-.265-.101-.145.09-.264.283-.264.428 0 .146.119.191.264.101.146-.09.265-.282.265-.428zm11.113 1.09c-.168-.314-.181-.53-.031-.53.138 0 .47-.069.736-.153.466-.148.466-.138-.004.247-.27.22-.411.527-.316.683.096.155.113.282.036.282-.076 0-.266-.238-.422-.53zm-14.333-.457c-.765-.89-.74-1.024.169-.918.88.103 1.078.543.502 1.119-.181.181-.399.116-.671-.201zm.706-.337c-.09-.146-.282-.265-.428-.265-.145 0-.19.12-.1.265.09.145.282.264.427.264.146 0 .191-.119.101-.264zm7.938-.891c-.99-1.146-1.037-1.258-.644-1.507.776-.49 1.305-.285 1.305.51 0 .671.082.746.728.662l.728-.095-.707.235c-.389.13-.806.295-.926.368-.12.073-.338-.005-.484-.173zm4.039-.533c-.252-.191-.381-.426-.287-.52.308-.308.549-.184.69.356.076.291.12.526.097.521a5.792 5.792 0 0 1-.5-.357zm-11.315-.312c0-.226.119-.338.265-.249.145.09.264.276.264.413 0 .137-.119.249-.264.249-.146 0-.265-.186-.265-.413zm10.005.232c.19-.076.419-.067.507.021.088.088-.069.15-.348.14-.308-.014-.37-.076-.16-.16zm2.43-.084c-.238-.154-.27-.258-.081-.26a.615.615 0 0 1 .478.26c.203.329.112.329-.397 0zm-11.641-.535c0-.579.417-.712.603-.192.065.182.21.244.324.138.114-.105.053-.376-.134-.601-.187-.226-.257-.493-.155-.594.101-.102.295-.01.43.205.18.285.253.142.27-.537.03-1.077.157-1.848.336-2.027.07-.07.618.124 1.22.43l1.093.558-.47.796c-.704 1.191-1.694 2.006-2.657 2.186-.734.137-.86.084-.86-.362zm2.221-2.331c.075-.121-.037-.22-.249-.22-.211 0-.385.099-.385.22s.112.22.25.22c.136 0 .31-.099.384-.22zm.557 2.337c.263-.29.538-.529.611-.529.073 0-.083.238-.347.53-.263.29-.538.528-.61.528-.074 0 .082-.238.346-.529zm14.098-.61c-.34-.34-.765-.571-.943-.512-.195.065-.323-.145-.323-.531 0-.78-1.519-2.072-3.354-2.852-.702-.298-.999-.487-.66-.419.488.097.584.03.46-.32-.1-.283.013-.23.31.144.256.323.853.722 1.326.886.473.163.86.398.86.52 0 .124.223.181.496.129.334-.065.485.049.463.346-.018.242.111.413.288.378.198-.039.257.105.154.374-.102.265-.061.371.103.27.15-.093.646.297 1.104.867.918 1.143.698 1.702-.284.72zm-2.438.111c-.08-.129.062-.397.315-.595.407-.319.422-.312.132.06-.18.232-.25.5-.155.596.096.095.102.174.014.174-.089 0-.226-.106-.306-.235zm2.867-1.716c-.568-.782-1.45-1.704-1.96-2.05-.989-.672-1.88-1.449-1.45-1.265.957.41 2.796 1.77 3.06 2.264.47.879 1.09 1.01 1.63.343.573-.71.607-.235.057.827-.224.434-.336.904-.249 1.046.087.14.111.256.053.256-.059 0-.572-.64-1.14-1.421zm-5.834-.04c-.461-.977.168-1.265 1.112-.508.49.392.485.397-.104.11-.638-.31-1.196-.113-.646.227.17.105.225.328.122.495-.121.196-.292.082-.484-.325zm-18.314-1.616c-.036-1.083-.026-1.096 1.156-1.393 3.172-.799 6.2-.61 8.928.558 1.012.434 1.257.664 1.257 1.188v.65l-.86-.525c-.473-.289-1.507-.715-2.297-.947-2.963-.87-7.789-.268-8.038 1.003-.06.307-.127.067-.146-.534zm26.048-1.346c.039-.834.179-1.553.311-1.597.228-.076-.03 2.761-.272 3.004-.06.06-.078-.573-.039-1.407zm-15.455.177c-.32-.299-.686-.479-.813-.4-.127.078-.293-.094-.369-.384-.076-.29-.037-.464.086-.388.123.076.206-.096.185-.383-.03-.395-.123-.453-.381-.238-.258.214-.346.162-.36-.212-.017-.46-.034-.457-.225.033-.177.453-.225.406-.332-.324-.1-.686-.056-.796.225-.562.193.16.35.201.35.093 0-.108.174-.053.386.123.212.176.528.231.702.123.196-.12.248-.083.136.098-.246.397.095 1.674.396 1.488a.287.287 0 0 0 .089-.395c-.084-.136-.04-.246.097-.246s.312.238.388.529c.076.29.03.529-.102.529s-.24.126-.24.28c0 .154.12.207.265.117.146-.09.265.022.265.249 0 .53-.049.52-.748-.13zm17.838-.21c-.085-.138.04-.325.28-.417.584-.224.72-.036.254.35-.226.189-.442.215-.534.066zm-9.353-.482c-.183-.074-.265-.243-.183-.376.232-.376.56-.285.56.155 0 .218-.01.388-.023.376a3.856 3.856 0 0 0-.354-.155zm8.534-.618c-.09-.145-.044-.264.102-.264.145 0 .338.119.428.264.09.146.044.265-.101.265-.146 0-.339-.12-.429-.265zm-22.71-.97c-.296-.297-.18-1.516.192-2.006.194-.255.636-.454.984-.443.623.021.622.025-.072.28-.904.33-1.204.985-.38.828.796-.152 1.41.57.952 1.12-.336.405-1.357.54-1.676.221zm16.708-.004c.19-.077.419-.067.507.02.088.088-.068.151-.347.14-.309-.013-.371-.076-.16-.16zm-12.65-1.143c-.74-.577-1.19-.69-.901-.223.121.197.072.233-.14.102-.215-.132-.239-.293-.07-.462.295-.295 1.082.044 1.628.701.455.55.285.51-.518-.118zm20.692-1.271-.606-.467.937-.338c.987-.357 2.26-1.772 2.26-2.513 0-.24.119-.438.264-.438.146 0 .265.133.265.295 0 .363-1.099 2.348-1.306 2.36-.082.004-.375.18-.652.388-.415.315-.444.45-.166.786.486.585-.206.534-.996-.073zM43.03 79.55c-.149-.107-.472-.511-.718-.898-.39-.614-.398-.744-.06-1.025.531-.44.487-1.495-.076-1.823-.44-.256-.44-.27 0-.277.255-.005.71.238 1.01.54.51.508.52.592.134 1.18-.334.509-.355.762-.108 1.304.168.37.413.672.544.672.13 0 .164.119.074.264-.193.312-.427.33-.8.063zm19.228-.05c.114-.34.477-.402.51-.085.01.105-.123.24-.298.297-.175.059-.27-.037-.212-.211zm-33.468-.496c-.605-.668-.577-2.484.046-3.047.61-.554 1.733-.564 2.275-.023.584.584.64 2.554.093 3.223-.478.582-.61.36-.512-.866.132-1.658-.12-2.508-.746-2.508-.617 0-.952 1.358-.686 2.778.199 1.059.139 1.115-.47.443zm3.75-1.451-.087-1.935.923-.025c.507-.014 1.132.087 1.389.224.514.275.627 1.158.184 1.432-.185.115-.132.34.156.658.509.562.429 1.408-.145 1.518-.288.056-.396-.16-.393-.79.002-.7-.113-.884-.593-.952-.522-.074-.595.032-.595.86 0 .64-.121.944-.376.944-.283 0-.398-.48-.463-1.934zm1.765-.976c0-.413-.17-.687-.463-.743-.362-.07-.463.093-.463.743s.101.813.463.743c.292-.056.463-.33.463-.743zm2.207 1.313c.056-.99-.032-1.745-.231-1.985-.276-.332-.092-.386 1.299-.386 1.595 0 1.62.01 1.602.727-.018.715-.023.717-.305.133a1.015 1.015 0 0 0-.908-.596c-.514 0-.621.138-.621.794 0 .91.07.95.642.378.378-.378.416-.337.416.45 0 .673-.07.795-.317.548-.533-.532-.741-.361-.741.608 0 .706-.11.927-.463.927-.4 0-.451-.218-.373-1.598zm2.448 1.134c.195-.254.388-.512.43-.573.04-.06.074.148.074.463 0 .353-.165.573-.429.573-.367 0-.378-.066-.075-.463zm1.52-1.291c.066-1.26-.01-1.82-.264-1.981-.24-.153-.1-.226.439-.23l.794-.003v1.984c0 1.808-.047 1.985-.53 1.985-.485 0-.521-.146-.438-1.755zm19.003 1.108c-.183-.476.102-2.34.324-2.118.09.09.171.42.182.736.01.315.107.841.216 1.169.144.435.093.595-.19.595-.212 0-.452-.172-.532-.382z" transform="translate(-25.177 -73.138)"/></svg>